<?xml version="1.0" encoding="UTF-8"?>
<svg xmlns="http://www.w3.org/2000/svg" version="1.1" height="800" width="800"><rect x="0" y="0" width="800" height="800" fill="rgb(192,192,192)" /><rect x="0" y="0" width="47" height="47" fill="none" /><rect x="47" y="0" width="47" height="47" fill="none" /><rect x="94" y="0" width="47" height="47" fill="none" /><rect x="141" y="0" width="47" height="47" fill="none" /><rect x="188" y="0" width="47" height="47" fill="none" /><rect x="235" y="0" width="47" height="47" fill="none" /><rect x="282" y="0" width="47" height="47" fill="none" /><rect x="329" y="0" width="47" height="47" fill="none" /><rect x="376" y="0" width="47" height="47" fill="#FF6600" /><rect x="423" y="0" width="47" height="47" fill="#FF6600" /><rect x="470" y="0" width="47" height="47" fill="#FF6600" /><rect x="517" y="0" width="47" height="47" fill="#FF6600" /><rect x="564" y="0" width="47" height="47" fill="#FF6600" /><rect x="611" y="0" width="47" height="47" fill="#FF6600" /><rect x="658" y="0" width="47" height="47" fill="#FF6600" /><rect x="705" y="0" width="47" height="47" fill="#FF6600" /><rect x="752" y="0" width="47" height="47" fill="#FF6600" /><rect x="0" y="47" width="47" height="47" fill="#FF6600" /><rect x="47" y="47" width="47" height="47" fill="#FF6600" /><rect x="94" y="47" width="47" height="47" fill="#FF6600" /><rect x="141" y="47" width="47" height="47" fill="#FF6600" /><rect x="188" y="47" width="47" height="47" fill="#FF6600" /><rect x="235" y="47" width="47" height="47" fill="#FF6600" /><rect x="282" y="47" width="47" height="47" fill="#FF6600" /><rect x="329" y="47" width="47" height="47" fill="#FF6600" /><rect x="376" y="47" width="47" height="47" fill="#FF6600" /><rect x="423" y="47" width="47" height="47" fill="#FF6600" /><rect x="470" y="47" width="47" height="47" fill="#FF6600" /><rect x="517" y="47" width="47" height="47" fill="#FF6600" /><rect x="564" y="47" width="47" height="47" fill="#FF6600" /><rect x="611" y="47" width="47" height="47" fill="#FF6600" /><rect x="658" y="47" width="47" height="47" fill="#FF6600" /><rect x="705" y="47" width="47" height="47" fill="#FF6600" /><rect x="752" y="47" width="47" height="47" fill="#FF6600" /><rect x="0" y="94" width="47" height="47" fill="#FF6600" /><rect x="47" y="94" width="47" height="47" fill="#FF6600" /><rect x="94" y="94" width="47" height="47" fill="#FF6600" /><rect x="141" y="94" width="47" height="47" fill="#FF6600" /><rect x="188" y="94" width="47" height="47" fill="#6666CC" /><rect x="235" y="94" width="47" height="47" fill="#6666CC" /><rect x="282" y="94" width="47" height="47" fill="#6666CC" /><rect x="329" y="94" width="47" height="47" fill="#6666CC" /><rect x="376" y="94" width="47" height="47" fill="#6666CC" /><rect x="423" y="94" width="47" height="47" fill="#6666CC" /><rect x="470" y="94" width="47" height="47" fill="#6666CC" /><rect x="517" y="94" width="47" height="47" fill="#6666CC" /><rect x="564" y="94" width="47" height="47" fill="#6666CC" /><rect x="611" y="94" width="47" height="47" fill="#6666CC" /><rect x="658" y="94" width="47" height="47" fill="#6666CC" /><rect x="705" y="94" width="47" height="47" fill="#6666CC" /><rect x="752" y="94" width="47" height="47" fill="#6666CC" /><rect x="0" y="141" width="47" height="47" fill="#6666CC" /><rect x="47" y="141" width="47" height="47" fill="#6666CC" /><rect x="94" y="141" width="47" height="47" fill="none" /><rect x="141" y="141" width="47" height="47" fill="#FFFF99" /><rect x="188" y="141" width="47" height="47" fill="#FFFF99" /><rect x="235" y="141" width="47" height="47" fill="#FFFF99" /><rect x="282" y="141" width="47" height="47" fill="#FFFF99" /><rect x="329" y="141" width="47" height="47" fill="#FFFF99" /><rect x="376" y="141" width="47" height="47" fill="#FFFF99" /><rect x="423" y="141" width="47" height="47" fill="#FFFF99" /><rect x="470" y="141" width="47" height="47" fill="#FFFF99" /><rect x="517" y="141" width="47" height="47" fill="#FFFF99" /><rect x="564" y="141" width="47" height="47" fill="#FFFF99" /><rect x="611" y="141" width="47" height="47" fill="#66FF66" /><rect x="658" y="141" width="47" height="47" fill="#66FF66" /><rect x="705" y="141" width="47" height="47" fill="#66FF66" /><rect x="752" y="141" width="47" height="47" fill="#66FF66" /><rect x="0" y="188" width="47" height="47" fill="#66FF66" /><rect x="47" y="188" width="47" height="47" fill="#66FF66" /><rect x="94" y="188" width="47" height="47" fill="#66FF66" /><rect x="141" y="188" width="47" height="47" fill="#66FF66" /><rect x="188" y="188" width="47" height="47" fill="#66FF66" /><rect x="235" y="188" width="47" height="47" fill="#66FF66" /><rect x="282" y="188" width="47" height="47" fill="#66FF66" /><rect x="329" y="188" width="47" height="47" fill="#66FF66" /><rect x="376" y="188" width="47" height="47" fill="#66FF66" /><rect x="423" y="188" width="47" height="47" fill="none" /><rect x="470" y="188" width="47" height="47" fill="#FF6600" /><rect x="517" y="188" width="47" height="47" fill="#FF6600" /><rect x="564" y="188" width="47" height="47" fill="#FF6600" /><rect x="611" y="188" width="47" height="47" fill="#FF6600" /><rect x="658" y="188" width="47" height="47" fill="#FF6600" /><rect x="705" y="188" width="47" height="47" fill="#FF6600" /><rect x="752" y="188" width="47" height="47" fill="#FF6600" /><rect x="0" y="235" width="47" height="47" fill="none" /><rect x="47" y="235" width="47" height="47" fill="#6666CC" /><rect x="94" y="235" width="47" height="47" fill="#6666CC" /><rect x="141" y="235" width="47" height="47" fill="#6666CC" /><rect x="188" y="235" width="47" height="47" fill="#6666CC" /><rect x="235" y="235" width="47" height="47" fill="#6666CC" /><rect x="282" y="235" width="47" height="47" fill="#6666CC" /><rect x="329" y="235" width="47" height="47" fill="#6666CC" /><rect x="376" y="235" width="47" height="47" fill="#6666CC" /><rect x="423" y="235" width="47" height="47" fill="#FFFF99" /><rect x="470" y="235" width="47" height="47" fill="#FFFF99" /><rect x="517" y="235" width="47" height="47" fill="#FFFF99" /><rect x="564" y="235" width="47" height="47" fill="#FFFF99" /><rect x="611" y="235" width="47" height="47" fill="#FFFF99" /><rect x="658" y="235" width="47" height="47" fill="#FFFF99" /><rect x="705" y="235" width="47" height="47" fill="#66FF66" /><rect x="752" y="235" width="47" height="47" fill="#66FF66" /><rect x="0" y="282" width="47" height="47" fill="#66FF66" /><rect x="47" y="282" width="47" height="47" fill="#66FF66" /><rect x="94" y="282" width="47" height="47" fill="#66FF66" /><rect x="141" y="282" width="47" height="47" fill="#66FF66" /><rect x="188" y="282" width="47" height="47" fill="#66FF66" /><rect x="235" y="282" width="47" height="47" fill="#66FF66" /><rect x="282" y="282" width="47" height="47" fill="#66FF66" /><rect x="329" y="282" width="47" height="47" fill="#66FF66" /><rect x="376" y="282" width="47" height="47" fill="#66FF66" /><rect x="423" y="282" width="47" height="47" fill="#66FF66" /><rect x="470" y="282" width="47" height="47" fill="#66FF66" /><rect x="517" y="282" width="47" height="47" fill="#66FF66" /><rect x="564" y="282" width="47" height="47" fill="#FF6600" /><rect x="611" y="282" width="47" height="47" fill="#FF6600" /><rect x="658" y="282" width="47" height="47" fill="#FF6600" /><rect x="705" y="282" width="47" height="47" fill="#FF6600" /><rect x="752" y="282" width="47" height="47" fill="#FF6600" /><rect x="0" y="329" width="47" height="47" fill="#FF6600" /><rect x="47" y="329" width="47" height="47" fill="#FF6600" /><rect x="94" y="329" width="47" height="47" fill="#FF6600" /><rect x="141" y="329" width="47" height="47" fill="#FF6600" /><rect x="188" y="329" width="47" height="47" fill="#FF6600" /><rect x="235" y="329" width="47" height="47" fill="#FF6600" /><rect x="282" y="329" width="47" height="47" fill="#FF6600" /><rect x="329" y="329" width="47" height="47" fill="#FF6600" /><rect x="376" y="329" width="47" height="47" fill="#FF6600" /><rect x="423" y="329" width="47" height="47" fill="#FF6600" /><rect x="470" y="329" width="47" height="47" fill="#FF6600" /><rect x="517" y="329" width="47" height="47" fill="#FF6600" /><rect x="564" y="329" width="47" height="47" fill="#FF6600" /><rect x="611" y="329" width="47" height="47" fill="#FF6600" /><rect x="658" y="329" width="47" height="47" fill="#FF6600" /><rect x="705" y="329" width="47" height="47" fill="#FF6600" /><rect x="752" y="329" width="47" height="47" fill="#FF6600" /><rect x="0" y="376" width="47" height="47" fill="#FF6600" /><rect x="47" y="376" width="47" height="47" fill="#FF6600" /><rect x="94" y="376" width="47" height="47" fill="#FF6600" /><rect x="141" y="376" width="47" height="47" fill="#FF6600" /><rect x="188" y="376" width="47" height="47" fill="#FF6600" /><rect x="235" y="376" width="47" height="47" fill="none" /><rect x="282" y="376" width="47" height="47" fill="#6666CC" /><rect x="329" y="376" width="47" height="47" fill="#6666CC" /><rect x="376" y="376" width="47" height="47" fill="#6666CC" /><rect x="423" y="376" width="47" height="47" fill="#6666CC" /><rect x="470" y="376" width="47" height="47" fill="#6666CC" /><rect x="517" y="376" width="47" height="47" fill="#6666CC" /><rect x="564" y="376" width="47" height="47" fill="#6666CC" /><rect x="611" y="376" width="47" height="47" fill="#6666CC" /><rect x="658" y="376" width="47" height="47" fill="#6666CC" /><rect x="705" y="376" width="47" height="47" fill="#6666CC" /><rect x="752" y="376" width="47" height="47" fill="#6666CC" /><rect x="0" y="423" width="47" height="47" fill="#6666CC" /><rect x="47" y="423" width="47" height="47" fill="#6666CC" /><rect x="94" y="423" width="47" height="47" fill="#6666CC" /><rect x="141" y="423" width="47" height="47" fill="#6666CC" /><rect x="188" y="423" width="47" height="47" fill="#6666CC" /><rect x="235" y="423" width="47" height="47" fill="#6666CC" /><rect x="282" y="423" width="47" height="47" fill="#6666CC" /><rect x="329" y="423" width="47" height="47" fill="#6666CC" /><rect x="376" y="423" width="47" height="47" fill="#6666CC" /><rect x="423" y="423" width="47" height="47" fill="#6666CC" /><rect x="470" y="423" width="47" height="47" fill="#6666CC" /><rect x="517" y="423" width="47" height="47" fill="#6666CC" /><rect x="564" y="423" width="47" height="47" fill="none" /><rect x="611" y="423" width="47" height="47" fill="#FFFF99" /><rect x="658" y="423" width="47" height="47" fill="#FFFF99" /><rect x="705" y="423" width="47" height="47" fill="#FFFF99" /><rect x="752" y="423" width="47" height="47" fill="#FFFF99" /><rect x="0" y="470" width="47" height="47" fill="#FFFF99" /><rect x="47" y="470" width="47" height="47" fill="#FFFF99" /><rect x="94" y="470" width="47" height="47" fill="#FFFF99" /><rect x="141" y="470" width="47" height="47" fill="#FFFF99" /><rect x="188" y="470" width="47" height="47" fill="#FFFF99" /><rect x="235" y="470" width="47" height="47" fill="#FFFF99" /><rect x="282" y="470" width="47" height="47" fill="#FFFF99" /><rect x="329" y="470" width="47" height="47" fill="#FFFF99" /><rect x="376" y="470" width="47" height="47" fill="#FFFF99" /><rect x="423" y="470" width="47" height="47" fill="#FFFF99" /><rect x="470" y="470" width="47" height="47" fill="#FFFF99" /><rect x="517" y="470" width="47" height="47" fill="#FFFF99" /><rect x="564" y="470" width="47" height="47" fill="#FFFF99" /><rect x="611" y="470" width="47" height="47" fill="#FFFF99" /><rect x="658" y="470" width="47" height="47" fill="#FFFF99" /><rect x="705" y="470" width="47" height="47" fill="#FFFF99" /><rect x="752" y="470" width="47" height="47" fill="#FFFF99" /><rect x="0" y="517" width="47" height="47" fill="#FFFF99" /><rect x="47" y="517" width="47" height="47" fill="#FFFF99" /><rect x="94" y="517" width="47" height="47" fill="#FFFF99" /><rect x="141" y="517" width="47" height="47" fill="#FFFF99" /><rect x="188" y="517" width="47" height="47" fill="#FFFF99" /><rect x="235" y="517" width="47" height="47" fill="#FFFF99" /><rect x="282" y="517" width="47" height="47" fill="#FFFF99" /><rect x="329" y="517" width="47" height="47" fill="#FFFF99" /><rect x="376" y="517" width="47" height="47" fill="#FFFF99" /><rect x="423" y="517" width="47" height="47" fill="#FFFF99" /><rect x="470" y="517" width="47" height="47" fill="#FFFF99" /><rect x="517" y="517" width="47" height="47" fill="#FFFF99" /><rect x="564" y="517" width="47" height="47" fill="#FFFF99" /><rect x="611" y="517" width="47" height="47" fill="#FFFF99" /><rect x="658" y="517" width="47" height="47" fill="#FFFF99" /><rect x="705" y="517" width="47" height="47" fill="#FFFF99" /><rect x="752" y="517" width="47" height="47" fill="#FFFF99" /><rect x="0" y="564" width="47" height="47" fill="#FFFF99" /><rect x="47" y="564" width="47" height="47" fill="#FFFF99" /><rect x="94" y="564" width="47" height="47" fill="#FFFF99" /><rect x="141" y="564" width="47" height="47" fill="#FFFF99" /><rect x="188" y="564" width="47" height="47" fill="#FFFF99" /><rect x="235" y="564" width="47" height="47" fill="#FFFF99" /><rect x="282" y="564" width="47" height="47" fill="#FFFF99" /><rect x="329" y="564" width="47" height="47" fill="#FFFF99" /><rect x="376" y="564" width="47" height="47" fill="#FFFF99" /><rect x="423" y="564" width="47" height="47" fill="#FFFF99" /><rect x="470" y="564" width="47" height="47" fill="#FFFF99" /><rect x="517" y="564" width="47" height="47" fill="#FFFF99" /><rect x="564" y="564" width="47" height="47" fill="#FFFF99" /><rect x="611" y="564" width="47" height="47" fill="#FFFF99" /><rect x="658" y="564" width="47" height="47" fill="#FFFF99" /><rect x="705" y="564" width="47" height="47" fill="#FFFF99" /><rect x="752" y="564" width="47" height="47" fill="#FFFF99" /><rect x="0" y="611" width="47" height="47" fill="#FFFF99" /><rect x="47" y="611" width="47" height="47" fill="#FFFF99" /><rect x="94" y="611" width="47" height="47" fill="#FFFF99" /><rect x="141" y="611" width="47" height="47" fill="#FFFF99" /><rect x="188" y="611" width="47" height="47" fill="#FFFF99" /><rect x="235" y="611" width="47" height="47" fill="#FFFF99" /><rect x="282" y="611" width="47" height="47" fill="none" /><rect x="329" y="611" width="47" height="47" fill="#66FF66" /><rect x="376" y="611" width="47" height="47" fill="#66FF66" /><rect x="423" y="611" width="47" height="47" fill="#66FF66" /><rect x="470" y="611" width="47" height="47" fill="#66FF66" /><rect x="517" y="611" width="47" height="47" fill="#66FF66" /><rect x="564" y="611" width="47" height="47" fill="#66FF66" /><rect x="611" y="611" width="47" height="47" fill="#66FF66" /><rect x="658" y="611" width="47" height="47" fill="#66FF66" /><rect x="705" y="611" width="47" height="47" fill="#66FF66" /><rect x="752" y="611" width="47" height="47" fill="#66FF66" /><rect x="0" y="658" width="47" height="47" fill="#66FF66" /><rect x="47" y="658" width="47" height="47" fill="#66FF66" /><rect x="94" y="658" width="47" height="47" fill="#66FF66" /><rect x="141" y="658" width="47" height="47" fill="#66FF66" /><rect x="188" y="658" width="47" height="47" fill="#66FF66" /><rect x="235" y="658" width="47" height="47" fill="#66FF66" /><rect x="282" y="658" width="47" height="47" fill="#66FF66" /><rect x="329" y="658" width="47" height="47" fill="#66FF66" /><rect x="376" y="658" width="47" height="47" fill="#66FF66" /><rect x="423" y="658" width="47" height="47" fill="#66FF66" /><rect x="470" y="658" width="47" height="47" fill="#66FF66" /><rect x="517" y="658" width="47" height="47" fill="#66FF66" /><rect x="564" y="658" width="47" height="47" fill="#66FF66" /><rect x="611" y="658" width="47" height="47" fill="#66FF66" /><rect x="658" y="658" width="47" height="47" fill="#66FF66" /><rect x="705" y="658" width="47" height="47" fill="#66FF66" /><rect x="752" y="658" width="47" height="47" fill="#66FF66" /><rect x="0" y="705" width="47" height="47" fill="#66FF66" /><rect x="47" y="705" width="47" height="47" fill="#66FF66" /><rect x="94" y="705" width="47" height="47" fill="#66FF66" /><rect x="141" y="705" width="47" height="47" fill="#66FF66" /><rect x="188" y="705" width="47" height="47" fill="#66FF66" /><rect x="235" y="705" width="47" height="47" fill="#66FF66" /><rect x="282" y="705" width="47" height="47" fill="#66FF66" /><rect x="329" y="705" width="47" height="47" fill="#66FF66" /><rect x="376" y="705" width="47" height="47" fill="#66FF66" /><rect x="423" y="705" width="47" height="47" fill="#66FF66" /><rect x="470" y="705" width="47" height="47" fill="#66FF66" /><rect x="517" y="705" width="47" height="47" fill="#66FF66" /><rect x="564" y="705" width="47" height="47" fill="#66FF66" /><rect x="611" y="705" width="47" height="47" fill="#66FF66" /><rect x="658" y="705" width="47" height="47" fill="#66FF66" /><rect x="705" y="705" width="47" height="47" fill="#66FF66" /><rect x="752" y="705" width="47" height="47" fill="#66FF66" /><rect x="0" y="752" width="47" height="47" fill="#66FF66" /><rect x="47" y="752" width="47" height="47" fill="#66FF66" /><rect x="94" y="752" width="47" height="47" fill="none" /><rect x="141" y="752" width="47" height="47" fill="none" /></svg>