<?xml version="1.0" encoding="UTF-8"?>
<svg xmlns="http://www.w3.org/2000/svg" version="1.1" height="800" width="800"><rect x="0" y="0" width="800" height="800" fill="rgb(192,192,192)" /><rect x="0" y="0" width="32" height="32" fill="none" /><rect x="32" y="0" width="32" height="32" fill="none" /><rect x="64" y="0" width="32" height="32" fill="none" /><rect x="96" y="0" width="32" height="32" fill="none" /><rect x="128" y="0" width="32" height="32" fill="#FF6600" /><rect x="160" y="0" width="32" height="32" fill="#FF6600" /><rect x="192" y="0" width="32" height="32" fill="#FF6600" /><rect x="224" y="0" width="32" height="32" fill="#FF6600" /><rect x="256" y="0" width="32" height="32" fill="#FF6600" /><rect x="288" y="0" width="32" height="32" fill="#FF6600" /><rect x="320" y="0" width="32" height="32" fill="#FF6600" /><rect x="352" y="0" width="32" height="32" fill="#FF6600" /><rect x="384" y="0" width="32" height="32" fill="#FF6600" /><rect x="416" y="0" width="32" height="32" fill="#FF6600" /><rect x="448" y="0" width="32" height="32" fill="#FF6600" /><rect x="480" y="0" width="32" height="32" fill="#FF6600" /><rect x="512" y="0" width="32" height="32" fill="#FF6600" /><rect x="544" y="0" width="32" height="32" fill="#FF6600" /><rect x="576" y="0" width="32" height="32" fill="#FF6600" /><rect x="608" y="0" width="32" height="32" fill="#FF6600" /><rect x="640" y="0" width="32" height="32" fill="#FF6600" /><rect x="672" y="0" width="32" height="32" fill="#FF6600" /><rect x="704" y="0" width="32" height="32" fill="#FF6600" /><rect x="736" y="0" width="32" height="32" fill="#FF6600" /><rect x="768" y="0" width="32" height="32" fill="#FF6600" /><rect x="0" y="32" width="32" height="32" fill="#FF6600" /><rect x="32" y="32" width="32" height="32" fill="#FF6600" /><rect x="64" y="32" width="32" height="32" fill="#FF6600" /><rect x="96" y="32" width="32" height="32" fill="#FF6600" /><rect x="128" y="32" width="32" height="32" fill="#FF6600" /><rect x="160" y="32" width="32" height="32" fill="#FF6600" /><rect x="192" y="32" width="32" height="32" fill="#FF6600" /><rect x="224" y="32" width="32" height="32" fill="#FF6600" /><rect x="256" y="32" width="32" height="32" fill="#FF6600" /><rect x="288" y="32" width="32" height="32" fill="#FF6600" /><rect x="320" y="32" width="32" height="32" fill="#FF6600" /><rect x="352" y="32" width="32" height="32" fill="#FF6600" /><rect x="384" y="32" width="32" height="32" fill="#FF6600" /><rect x="416" y="32" width="32" height="32" fill="#FF6600" /><rect x="448" y="32" width="32" height="32" fill="#FF6600" /><rect x="480" y="32" width="32" height="32" fill="#FF6600" /><rect x="512" y="32" width="32" height="32" fill="#FF6600" /><rect x="544" y="32" width="32" height="32" fill="#FF6600" /><rect x="576" y="32" width="32" height="32" fill="#FF6600" /><rect x="608" y="32" width="32" height="32" fill="#FF6600" /><rect x="640" y="32" width="32" height="32" fill="#FF6600" /><rect x="672" y="32" width="32" height="32" fill="#FF6600" /><rect x="704" y="32" width="32" height="32" fill="#FF6600" /><rect x="736" y="32" width="32" height="32" fill="#FF6600" /><rect x="768" y="32" width="32" height="32" fill="#FF6600" /><rect x="0" y="64" width="32" height="32" fill="#FF6600" /><rect x="32" y="64" width="32" height="32" fill="#FF6600" /><rect x="64" y="64" width="32" height="32" fill="#FF6600" /><rect x="96" y="64" width="32" height="32" fill="#FF6600" /><rect x="128" y="64" width="32" height="32" fill="#FF6600" /><rect x="160" y="64" width="32" height="32" fill="#FF6600" /><rect x="192" y="64" width="32" height="32" fill="#FF6600" /><rect x="224" y="64" width="32" height="32" fill="#FF6600" /><rect x="256" y="64" width="32" height="32" fill="#FF6600" /><rect x="288" y="64" width="32" height="32" fill="#FF6600" /><rect x="320" y="64" width="32" height="32" fill="#FF6600" /><rect x="352" y="64" width="32" height="32" fill="#FF6600" /><rect x="384" y="64" width="32" height="32" fill="#FF6600" /><rect x="416" y="64" width="32" height="32" fill="#FF6600" /><rect x="448" y="64" width="32" height="32" fill="#FF6600" /><rect x="480" y="64" width="32" height="32" fill="#FF6600" /><rect x="512" y="64" width="32" height="32" fill="#FF6600" /><rect x="544" y="64" width="32" height="32" fill="#FF6600" /><rect x="576" y="64" width="32" height="32" fill="#FF6600" /><rect x="608" y="64" width="32" height="32" fill="#FF6600" /><rect x="640" y="64" width="32" height="32" fill="#FF6600" /><rect x="672" y="64" width="32" height="32" fill="#FF6600" /><rect x="704" y="64" width="32" height="32" fill="#FF6600" /><rect x="736" y="64" width="32" height="32" fill="#FF6600" /><rect x="768" y="64" width="32" height="32" fill="#FF6600" /><rect x="0" y="96" width="32" height="32" fill="#FF6600" /><rect x="32" y="96" width="32" height="32" fill="#FF6600" /><rect x="64" y="96" width="32" height="32" fill="#FF6600" /><rect x="96" y="96" width="32" height="32" fill="#FF6600" /><rect x="128" y="96" width="32" height="32" fill="#FF6600" /><rect x="160" y="96" width="32" height="32" fill="#FF6600" /><rect x="192" y="96" width="32" height="32" fill="#FF6600" /><rect x="224" y="96" width="32" height="32" fill="#FF6600" /><rect x="256" y="96" width="32" height="32" fill="#FF6600" /><rect x="288" y="96" width="32" height="32" fill="#FF6600" /><rect x="320" y="96" width="32" height="32" fill="#FF6600" /><rect x="352" y="96" width="32" height="32" fill="#FF6600" /><rect x="384" y="96" width="32" height="32" fill="#FF6600" /><rect x="416" y="96" width="32" height="32" fill="#FF6600" /><rect x="448" y="96" width="32" height="32" fill="none" /><rect x="480" y="96" width="32" height="32" fill="none" /><rect x="512" y="96" width="32" height="32" fill="none" /><rect x="544" y="96" width="32" height="32" fill="none" /><rect x="576" y="96" width="32" height="32" fill="none" /><rect x="608" y="96" width="32" height="32" fill="none" /><rect x="640" y="96" width="32" height="32" fill="#6666CC" /><rect x="672" y="96" width="32" height="32" fill="#6666CC" /><rect x="704" y="96" width="32" height="32" fill="#6666CC" /><rect x="736" y="96" width="32" height="32" fill="#6666CC" /><rect x="768" y="96" width="32" height="32" fill="#6666CC" /><rect x="0" y="128" width="32" height="32" fill="#6666CC" /><rect x="32" y="128" width="32" height="32" fill="#6666CC" /><rect x="64" y="128" width="32" height="32" fill="#6666CC" /><rect x="96" y="128" width="32" height="32" fill="#6666CC" /><rect x="128" y="128" width="32" height="32" fill="#6666CC" /><rect x="160" y="128" width="32" height="32" fill="#6666CC" /><rect x="192" y="128" width="32" height="32" fill="#6666CC" /><rect x="224" y="128" width="32" height="32" fill="#6666CC" /><rect x="256" y="128" width="32" height="32" fill="#6666CC" /><rect x="288" y="128" width="32" height="32" fill="#6666CC" /><rect x="320" y="128" width="32" height="32" fill="#6666CC" /><rect x="352" y="128" width="32" height="32" fill="#6666CC" /><rect x="384" y="128" width="32" height="32" fill="#6666CC" /><rect x="416" y="128" width="32" height="32" fill="#6666CC" /><rect x="448" y="128" width="32" height="32" fill="#6666CC" /><rect x="480" y="128" width="32" height="32" fill="#6666CC" /><rect x="512" y="128" width="32" height="32" fill="#6666CC" /><rect x="544" y="128" width="32" height="32" fill="#6666CC" /><rect x="576" y="128" width="32" height="32" fill="#6666CC" /><rect x="608" y="128" width="32" height="32" fill="#6666CC" /><rect x="640" y="128" width="32" height="32" fill="#6666CC" /><rect x="672" y="128" width="32" height="32" fill="#6666CC" /><rect x="704" y="128" width="32" height="32" fill="#6666CC" /><rect x="736" y="128" width="32" height="32" fill="#6666CC" /><rect x="768" y="128" width="32" height="32" fill="#6666CC" /><rect x="0" y="160" width="32" height="32" fill="#6666CC" /><rect x="32" y="160" width="32" height="32" fill="#6666CC" /><rect x="64" y="160" width="32" height="32" fill="#6666CC" /><rect x="96" y="160" width="32" height="32" fill="#6666CC" /><rect x="128" y="160" width="32" height="32" fill="#6666CC" /><rect x="160" y="160" width="32" height="32" fill="#FFFF99" /><rect x="192" y="160" width="32" height="32" fill="#FFFF99" /><rect x="224" y="160" width="32" height="32" fill="none" /><rect x="256" y="160" width="32" height="32" fill="#66FF66" /><rect x="288" y="160" width="32" height="32" fill="#66FF66" /><rect x="320" y="160" width="32" height="32" fill="#66FF66" /><rect x="352" y="160" width="32" height="32" fill="#66FF66" /><rect x="384" y="160" width="32" height="32" fill="#66FF66" /><rect x="416" y="160" width="32" height="32" fill="#66FF66" /><rect x="448" y="160" width="32" height="32" fill="#66FF66" /><rect x="480" y="160" width="32" height="32" fill="#66FF66" /><rect x="512" y="160" width="32" height="32" fill="#66FF66" /><rect x="544" y="160" width="32" height="32" fill="#66FF66" /><rect x="576" y="160" width="32" height="32" fill="#66FF66" /><rect x="608" y="160" width="32" height="32" fill="#66FF66" /><rect x="640" y="160" width="32" height="32" fill="#66FF66" /><rect x="672" y="160" width="32" height="32" fill="#66FF66" /><rect x="704" y="160" width="32" height="32" fill="#66FF66" /><rect x="736" y="160" width="32" height="32" fill="#66FF66" /><rect x="768" y="160" width="32" height="32" fill="#66FF66" /><rect x="0" y="192" width="32" height="32" fill="#66FF66" /><rect x="32" y="192" width="32" height="32" fill="#66FF66" /><rect x="64" y="192" width="32" height="32" fill="#66FF66" /><rect x="96" y="192" width="32" height="32" fill="#66FF66" /><rect x="128" y="192" width="32" height="32" fill="#66FF66" /><rect x="160" y="192" width="32" height="32" fill="#66FF66" /><rect x="192" y="192" width="32" height="32" fill="#66FF66" /><rect x="224" y="192" width="32" height="32" fill="#66FF66" /><rect x="256" y="192" width="32" height="32" fill="#66FF66" /><rect x="288" y="192" width="32" height="32" fill="#66FF66" /><rect x="320" y="192" width="32" height="32" fill="#66FF66" /><rect x="352" y="192" width="32" height="32" fill="#66FF66" /><rect x="384" y="192" width="32" height="32" fill="#66FF66" /><rect x="416" y="192" width="32" height="32" fill="#66FF66" /><rect x="448" y="192" width="32" height="32" fill="#66FF66" /><rect x="480" y="192" width="32" height="32" fill="#66FF66" /><rect x="512" y="192" width="32" height="32" fill="#66FF66" /><rect x="544" y="192" width="32" height="32" fill="#66FF66" /><rect x="576" y="192" width="32" height="32" fill="#66FF66" /><rect x="608" y="192" width="32" height="32" fill="#66FF66" /><rect x="640" y="192" width="32" height="32" fill="#66FF66" /><rect x="672" y="192" width="32" height="32" fill="#66FF66" /><rect x="704" y="192" width="32" height="32" fill="#66FF66" /><rect x="736" y="192" width="32" height="32" fill="#66FF66" /><rect x="768" y="192" width="32" height="32" fill="#66FF66" /><rect x="0" y="224" width="32" height="32" fill="#66FF66" /><rect x="32" y="224" width="32" height="32" fill="#66FF66" /><rect x="64" y="224" width="32" height="32" fill="#66FF66" /><rect x="96" y="224" width="32" height="32" fill="none" /><rect x="128" y="224" width="32" height="32" fill="none" /><rect x="160" y="224" width="32" height="32" fill="none" /><rect x="192" y="224" width="32" height="32" fill="none" /><rect x="224" y="224" width="32" height="32" fill="none" /><rect x="256" y="224" width="32" height="32" fill="none" /><rect x="288" y="224" width="32" height="32" fill="none" /><rect x="320" y="224" width="32" height="32" fill="none" /><rect x="352" y="224" width="32" height="32" fill="none" /><rect x="384" y="224" width="32" height="32" fill="none" /><rect x="416" y="224" width="32" height="32" fill="none" /><rect x="448" y="224" width="32" height="32" fill="none" /><rect x="480" y="224" width="32" height="32" fill="none" /><rect x="512" y="224" width="32" height="32" fill="none" /><rect x="544" y="224" width="32" height="32" fill="none" /><rect x="576" y="224" width="32" height="32" fill="none" /><rect x="608" y="224" width="32" height="32" fill="none" /><rect x="640" y="224" width="32" height="32" fill="none" /><rect x="672" y="224" width="32" height="32" fill="none" /><rect x="704" y="224" width="32" height="32" fill="none" /><rect x="736" y="224" width="32" height="32" fill="#FF6600" /><rect x="768" y="224" width="32" height="32" fill="#FF6600" /><rect x="0" y="256" width="32" height="32" fill="#FF6600" /><rect x="32" y="256" width="32" height="32" fill="#FF6600" /><rect x="64" y="256" width="32" height="32" fill="#FF6600" /><rect x="96" y="256" width="32" height="32" fill="#FF6600" /><rect x="128" y="256" width="32" height="32" fill="#6666CC" /><rect x="160" y="256" width="32" height="32" fill="#6666CC" /><rect x="192" y="256" width="32" height="32" fill="#6666CC" /><rect x="224" y="256" width="32" height="32" fill="#6666CC" /><rect x="256" y="256" width="32" height="32" fill="#6666CC" /><rect x="288" y="256" width="32" height="32" fill="#6666CC" /><rect x="320" y="256" width="32" height="32" fill="#6666CC" /><rect x="352" y="256" width="32" height="32" fill="#6666CC" /><rect x="384" y="256" width="32" height="32" fill="#6666CC" /><rect x="416" y="256" width="32" height="32" fill="#6666CC" /><rect x="448" y="256" width="32" height="32" fill="#6666CC" /><rect x="480" y="256" width="32" height="32" fill="#FFFF99" /><rect x="512" y="256" width="32" height="32" fill="#FFFF99" /><rect x="544" y="256" width="32" height="32" fill="#FFFF99" /><rect x="576" y="256" width="32" height="32" fill="#FFFF99" /><rect x="608" y="256" width="32" height="32" fill="#FFFF99" /><rect x="640" y="256" width="32" height="32" fill="#FFFF99" /><rect x="672" y="256" width="32" height="32" fill="#FFFF99" /><rect x="704" y="256" width="32" height="32" fill="none" /><rect x="736" y="256" width="32" height="32" fill="none" /><rect x="768" y="256" width="32" height="32" fill="none" /><rect x="0" y="288" width="32" height="32" fill="none" /><rect x="32" y="288" width="32" height="32" fill="#66FF66" /><rect x="64" y="288" width="32" height="32" fill="#66FF66" /><rect x="96" y="288" width="32" height="32" fill="#66FF66" /><rect x="128" y="288" width="32" height="32" fill="#66FF66" /><rect x="160" y="288" width="32" height="32" fill="#66FF66" /><rect x="192" y="288" width="32" height="32" fill="#66FF66" /><rect x="224" y="288" width="32" height="32" fill="#66FF66" /><rect x="256" y="288" width="32" height="32" fill="#66FF66" /><rect x="288" y="288" width="32" height="32" fill="#66FF66" /><rect x="320" y="288" width="32" height="32" fill="#66FF66" /><rect x="352" y="288" width="32" height="32" fill="#66FF66" /><rect x="384" y="288" width="32" height="32" fill="#66FF66" /><rect x="416" y="288" width="32" height="32" fill="#66FF66" /><rect x="448" y="288" width="32" height="32" fill="#66FF66" /><rect x="480" y="288" width="32" height="32" fill="#66FF66" /><rect x="512" y="288" width="32" height="32" fill="#66FF66" /><rect x="544" y="288" width="32" height="32" fill="#66FF66" /><rect x="576" y="288" width="32" height="32" fill="#66FF66" /><rect x="608" y="288" width="32" height="32" fill="#66FF66" /><rect x="640" y="288" width="32" height="32" fill="#66FF66" /><rect x="672" y="288" width="32" height="32" fill="#66FF66" /><rect x="704" y="288" width="32" height="32" fill="#66FF66" /><rect x="736" y="288" width="32" height="32" fill="#66FF66" /><rect x="768" y="288" width="32" height="32" fill="#66FF66" /><rect x="0" y="320" width="32" height="32" fill="#66FF66" /><rect x="32" y="320" width="32" height="32" fill="#66FF66" /><rect x="64" y="320" width="32" height="32" fill="#66FF66" /><rect x="96" y="320" width="32" height="32" fill="#66FF66" /><rect x="128" y="320" width="32" height="32" fill="#66FF66" /><rect x="160" y="320" width="32" height="32" fill="#66FF66" /><rect x="192" y="320" width="32" height="32" fill="#66FF66" /><rect x="224" y="320" width="32" height="32" fill="#66FF66" /><rect x="256" y="320" width="32" height="32" fill="#66FF66" /><rect x="288" y="320" width="32" height="32" fill="#66FF66" /><rect x="320" y="320" width="32" height="32" fill="#66FF66" /><rect x="352" y="320" width="32" height="32" fill="#66FF66" /><rect x="384" y="320" width="32" height="32" fill="#66FF66" /><rect x="416" y="320" width="32" height="32" fill="#66FF66" /><rect x="448" y="320" width="32" height="32" fill="#66FF66" /><rect x="480" y="320" width="32" height="32" fill="#66FF66" /><rect x="512" y="320" width="32" height="32" fill="#66FF66" /><rect x="544" y="320" width="32" height="32" fill="#FF6600" /><rect x="576" y="320" width="32" height="32" fill="#FF6600" /><rect x="608" y="320" width="32" height="32" fill="#FF6600" /><rect x="640" y="320" width="32" height="32" fill="#FF6600" /><rect x="672" y="320" width="32" height="32" fill="#FF6600" /><rect x="704" y="320" width="32" height="32" fill="#FF6600" /><rect x="736" y="320" width="32" height="32" fill="#FF6600" /><rect x="768" y="320" width="32" height="32" fill="#FF6600" /><rect x="0" y="352" width="32" height="32" fill="#FF6600" /><rect x="32" y="352" width="32" height="32" fill="#FF6600" /><rect x="64" y="352" width="32" height="32" fill="#FF6600" /><rect x="96" y="352" width="32" height="32" fill="#FF6600" /><rect x="128" y="352" width="32" height="32" fill="#FF6600" /><rect x="160" y="352" width="32" height="32" fill="#FF6600" /><rect x="192" y="352" width="32" height="32" fill="#FF6600" /><rect x="224" y="352" width="32" height="32" fill="#FF6600" /><rect x="256" y="352" width="32" height="32" fill="#FF6600" /><rect x="288" y="352" width="32" height="32" fill="#FF6600" /><rect x="320" y="352" width="32" height="32" fill="#FF6600" /><rect x="352" y="352" width="32" height="32" fill="none" /><rect x="384" y="352" width="32" height="32" fill="none" /><rect x="416" y="352" width="32" height="32" fill="none" /><rect x="448" y="352" width="32" height="32" fill="#6666CC" /><rect x="480" y="352" width="32" height="32" fill="#6666CC" /><rect x="512" y="352" width="32" height="32" fill="#6666CC" /><rect x="544" y="352" width="32" height="32" fill="#6666CC" /><rect x="576" y="352" width="32" height="32" fill="#6666CC" /><rect x="608" y="352" width="32" height="32" fill="#6666CC" /><rect x="640" y="352" width="32" height="32" fill="#6666CC" /><rect x="672" y="352" width="32" height="32" fill="#6666CC" /><rect x="704" y="352" width="32" height="32" fill="#6666CC" /><rect x="736" y="352" width="32" height="32" fill="#6666CC" /><rect x="768" y="352" width="32" height="32" fill="#6666CC" /><rect x="0" y="384" width="32" height="32" fill="#6666CC" /><rect x="32" y="384" width="32" height="32" fill="#6666CC" /><rect x="64" y="384" width="32" height="32" fill="#6666CC" /><rect x="96" y="384" width="32" height="32" fill="#6666CC" /><rect x="128" y="384" width="32" height="32" fill="#6666CC" /><rect x="160" y="384" width="32" height="32" fill="#6666CC" /><rect x="192" y="384" width="32" height="32" fill="#6666CC" /><rect x="224" y="384" width="32" height="32" fill="#6666CC" /><rect x="256" y="384" width="32" height="32" fill="none" /><rect x="288" y="384" width="32" height="32" fill="none" /><rect x="320" y="384" width="32" height="32" fill="none" /><rect x="352" y="384" width="32" height="32" fill="none" /><rect x="384" y="384" width="32" height="32" fill="none" /><rect x="416" y="384" width="32" height="32" fill="none" /><rect x="448" y="384" width="32" height="32" fill="none" /><rect x="480" y="384" width="32" height="32" fill="none" /><rect x="512" y="384" width="32" height="32" fill="none" /><rect x="544" y="384" width="32" height="32" fill="none" /><rect x="576" y="384" width="32" height="32" fill="none" /><rect x="608" y="384" width="32" height="32" fill="#FFFF99" /><rect x="640" y="384" width="32" height="32" fill="#FFFF99" /><rect x="672" y="384" width="32" height="32" fill="#FFFF99" /><rect x="704" y="384" width="32" height="32" fill="none" /><rect x="736" y="384" width="32" height="32" fill="#66FF66" /><rect x="768" y="384" width="32" height="32" fill="#66FF66" /><rect x="0" y="416" width="32" height="32" fill="#66FF66" /><rect x="32" y="416" width="32" height="32" fill="#66FF66" /><rect x="64" y="416" width="32" height="32" fill="#66FF66" /><rect x="96" y="416" width="32" height="32" fill="#66FF66" /><rect x="128" y="416" width="32" height="32" fill="#66FF66" /><rect x="160" y="416" width="32" height="32" fill="#66FF66" /><rect x="192" y="416" width="32" height="32" fill="#66FF66" /><rect x="224" y="416" width="32" height="32" fill="#66FF66" /><rect x="256" y="416" width="32" height="32" fill="#66FF66" /><rect x="288" y="416" width="32" height="32" fill="#66FF66" /><rect x="320" y="416" width="32" height="32" fill="#66FF66" /><rect x="352" y="416" width="32" height="32" fill="#66FF66" /><rect x="384" y="416" width="32" height="32" fill="#FF6600" /><rect x="416" y="416" width="32" height="32" fill="#FF6600" /><rect x="448" y="416" width="32" height="32" fill="#FF6600" /><rect x="480" y="416" width="32" height="32" fill="#6666CC" /><rect x="512" y="416" width="32" height="32" fill="#6666CC" /><rect x="544" y="416" width="32" height="32" fill="#6666CC" /><rect x="576" y="416" width="32" height="32" fill="#6666CC" /><rect x="608" y="416" width="32" height="32" fill="#6666CC" /><rect x="640" y="416" width="32" height="32" fill="#6666CC" /><rect x="672" y="416" width="32" height="32" fill="#6666CC" /><rect x="704" y="416" width="32" height="32" fill="#6666CC" /><rect x="736" y="416" width="32" height="32" fill="#6666CC" /><rect x="768" y="416" width="32" height="32" fill="#6666CC" /><rect x="0" y="448" width="32" height="32" fill="#6666CC" /><rect x="32" y="448" width="32" height="32" fill="#6666CC" /><rect x="64" y="448" width="32" height="32" fill="#6666CC" /><rect x="96" y="448" width="32" height="32" fill="#FFFF99" /><rect x="128" y="448" width="32" height="32" fill="#FFFF99" /><rect x="160" y="448" width="32" height="32" fill="#FFFF99" /><rect x="192" y="448" width="32" height="32" fill="#FFFF99" /><rect x="224" y="448" width="32" height="32" fill="#FFFF99" /><rect x="256" y="448" width="32" height="32" fill="#FFFF99" /><rect x="288" y="448" width="32" height="32" fill="#FFFF99" /><rect x="320" y="448" width="32" height="32" fill="#FFFF99" /><rect x="352" y="448" width="32" height="32" fill="#FFFF99" /><rect x="384" y="448" width="32" height="32" fill="#66FF66" /><rect x="416" y="448" width="32" height="32" fill="#66FF66" /><rect x="448" y="448" width="32" height="32" fill="#FF6600" /><rect x="480" y="448" width="32" height="32" fill="#FF6600" /><rect x="512" y="448" width="32" height="32" fill="#FF6600" /><rect x="544" y="448" width="32" height="32" fill="#6666CC" /><rect x="576" y="448" width="32" height="32" fill="#6666CC" /><rect x="608" y="448" width="32" height="32" fill="#6666CC" /><rect x="640" y="448" width="32" height="32" fill="#6666CC" /><rect x="672" y="448" width="32" height="32" fill="#FFFF99" /><rect x="704" y="448" width="32" height="32" fill="#FFFF99" /><rect x="736" y="448" width="32" height="32" fill="#FFFF99" /><rect x="768" y="448" width="32" height="32" fill="none" /><rect x="0" y="480" width="32" height="32" fill="none" /><rect x="32" y="480" width="32" height="32" fill="#66FF66" /><rect x="64" y="480" width="32" height="32" fill="#66FF66" /><rect x="96" y="480" width="32" height="32" fill="#66FF66" /><rect x="128" y="480" width="32" height="32" fill="#66FF66" /><rect x="160" y="480" width="32" height="32" fill="#66FF66" /><rect x="192" y="480" width="32" height="32" fill="#66FF66" /><rect x="224" y="480" width="32" height="32" fill="#66FF66" /><rect x="256" y="480" width="32" height="32" fill="#66FF66" /><rect x="288" y="480" width="32" height="32" fill="#66FF66" /><rect x="320" y="480" width="32" height="32" fill="#66FF66" /><rect x="352" y="480" width="32" height="32" fill="#66FF66" /><rect x="384" y="480" width="32" height="32" fill="#66FF66" /><rect x="416" y="480" width="32" height="32" fill="#66FF66" /><rect x="448" y="480" width="32" height="32" fill="#FF6600" /><rect x="480" y="480" width="32" height="32" fill="#FF6600" /><rect x="512" y="480" width="32" height="32" fill="#FF6600" /><rect x="544" y="480" width="32" height="32" fill="#FF6600" /><rect x="576" y="480" width="32" height="32" fill="#FF6600" /><rect x="608" y="480" width="32" height="32" fill="#FF6600" /><rect x="640" y="480" width="32" height="32" fill="#FF6600" /><rect x="672" y="480" width="32" height="32" fill="#6666CC" /><rect x="704" y="480" width="32" height="32" fill="#6666CC" /><rect x="736" y="480" width="32" height="32" fill="#6666CC" /><rect x="768" y="480" width="32" height="32" fill="#6666CC" /><rect x="0" y="512" width="32" height="32" fill="#6666CC" /><rect x="32" y="512" width="32" height="32" fill="#6666CC" /><rect x="64" y="512" width="32" height="32" fill="#6666CC" /><rect x="96" y="512" width="32" height="32" fill="#6666CC" /><rect x="128" y="512" width="32" height="32" fill="#FFFF99" /><rect x="160" y="512" width="32" height="32" fill="#FFFF99" /><rect x="192" y="512" width="32" height="32" fill="#FFFF99" /><rect x="224" y="512" width="32" height="32" fill="#FFFF99" /><rect x="256" y="512" width="32" height="32" fill="#FFFF99" /><rect x="288" y="512" width="32" height="32" fill="#FFFF99" /><rect x="320" y="512" width="32" height="32" fill="#66FF66" /><rect x="352" y="512" width="32" height="32" fill="#66FF66" /><rect x="384" y="512" width="32" height="32" fill="#66FF66" /><rect x="416" y="512" width="32" height="32" fill="#66FF66" /><rect x="448" y="512" width="32" height="32" fill="#66FF66" /><rect x="480" y="512" width="32" height="32" fill="#66FF66" /><rect x="512" y="512" width="32" height="32" fill="#66FF66" /><rect x="544" y="512" width="32" height="32" fill="#66FF66" /><rect x="576" y="512" width="32" height="32" fill="#66FF66" /><rect x="608" y="512" width="32" height="32" fill="#66FF66" /><rect x="640" y="512" width="32" height="32" fill="none" /><rect x="672" y="512" width="32" height="32" fill="none" /><rect x="704" y="512" width="32" height="32" fill="#FF6600" /><rect x="736" y="512" width="32" height="32" fill="#FF6600" /><rect x="768" y="512" width="32" height="32" fill="#FF6600" /><rect x="0" y="544" width="32" height="32" fill="#FF6600" /><rect x="32" y="544" width="32" height="32" fill="#FF6600" /><rect x="64" y="544" width="32" height="32" fill="#FF6600" /><rect x="96" y="544" width="32" height="32" fill="#FF6600" /><rect x="128" y="544" width="32" height="32" fill="#FF6600" /><rect x="160" y="544" width="32" height="32" fill="#FF6600" /><rect x="192" y="544" width="32" height="32" fill="#FF6600" /><rect x="224" y="544" width="32" height="32" fill="#FF6600" /><rect x="256" y="544" width="32" height="32" fill="#FF6600" /><rect x="288" y="544" width="32" height="32" fill="#FF6600" /><rect x="320" y="544" width="32" height="32" fill="#FF6600" /><rect x="352" y="544" width="32" height="32" fill="#FF6600" /><rect x="384" y="544" width="32" height="32" fill="#6666CC" /><rect x="416" y="544" width="32" height="32" fill="#6666CC" /><rect x="448" y="544" width="32" height="32" fill="#6666CC" /><rect x="480" y="544" width="32" height="32" fill="#6666CC" /><rect x="512" y="544" width="32" height="32" fill="#6666CC" /><rect x="544" y="544" width="32" height="32" fill="#6666CC" /><rect x="576" y="544" width="32" height="32" fill="#6666CC" /><rect x="608" y="544" width="32" height="32" fill="#6666CC" /><rect x="640" y="544" width="32" height="32" fill="#6666CC" /><rect x="672" y="544" width="32" height="32" fill="none" /><rect x="704" y="544" width="32" height="32" fill="none" /><rect x="736" y="544" width="32" height="32" fill="none" /><rect x="768" y="544" width="32" height="32" fill="#FFFF99" /><rect x="0" y="576" width="32" height="32" fill="#FFFF99" /><rect x="32" y="576" width="32" height="32" fill="#FFFF99" /><rect x="64" y="576" width="32" height="32" fill="#FFFF99" /><rect x="96" y="576" width="32" height="32" fill="#FFFF99" /><rect x="128" y="576" width="32" height="32" fill="#FFFF99" /><rect x="160" y="576" width="32" height="32" fill="#66FF66" /><rect x="192" y="576" width="32" height="32" fill="#66FF66" /><rect x="224" y="576" width="32" height="32" fill="#66FF66" /><rect x="256" y="576" width="32" height="32" fill="#66FF66" /><rect x="288" y="576" width="32" height="32" fill="#66FF66" /><rect x="320" y="576" width="32" height="32" fill="#66FF66" /><rect x="352" y="576" width="32" height="32" fill="#66FF66" /><rect x="384" y="576" width="32" height="32" fill="#FF6600" /><rect x="416" y="576" width="32" height="32" fill="#FF6600" /><rect x="448" y="576" width="32" height="32" fill="#FF6600" /><rect x="480" y="576" width="32" height="32" fill="#FF6600" /><rect x="512" y="576" width="32" height="32" fill="#FF6600" /><rect x="544" y="576" width="32" height="32" fill="#6666CC" /><rect x="576" y="576" width="32" height="32" fill="#6666CC" /><rect x="608" y="576" width="32" height="32" fill="#6666CC" /><rect x="640" y="576" width="32" height="32" fill="#6666CC" /><rect x="672" y="576" width="32" height="32" fill="#6666CC" /><rect x="704" y="576" width="32" height="32" fill="#6666CC" /><rect x="736" y="576" width="32" height="32" fill="#6666CC" /><rect x="768" y="576" width="32" height="32" fill="#6666CC" /><rect x="0" y="608" width="32" height="32" fill="#6666CC" /><rect x="32" y="608" width="32" height="32" fill="#6666CC" /><rect x="64" y="608" width="32" height="32" fill="#FFFF99" /><rect x="96" y="608" width="32" height="32" fill="#FFFF99" /><rect x="128" y="608" width="32" height="32" fill="#FFFF99" /><rect x="160" y="608" width="32" height="32" fill="#FFFF99" /><rect x="192" y="608" width="32" height="32" fill="#FFFF99" /><rect x="224" y="608" width="32" height="32" fill="#FFFF99" /><rect x="256" y="608" width="32" height="32" fill="#FFFF99" /><rect x="288" y="608" width="32" height="32" fill="#FFFF99" /><rect x="320" y="608" width="32" height="32" fill="#FFFF99" /><rect x="352" y="608" width="32" height="32" fill="#FFFF99" /><rect x="384" y="608" width="32" height="32" fill="#FFFF99" /><rect x="416" y="608" width="32" height="32" fill="#FFFF99" /><rect x="448" y="608" width="32" height="32" fill="#FFFF99" /><rect x="480" y="608" width="32" height="32" fill="#FFFF99" /><rect x="512" y="608" width="32" height="32" fill="#FFFF99" /><rect x="544" y="608" width="32" height="32" fill="#66FF66" /><rect x="576" y="608" width="32" height="32" fill="#66FF66" /><rect x="608" y="608" width="32" height="32" fill="#66FF66" /><rect x="640" y="608" width="32" height="32" fill="#66FF66" /><rect x="672" y="608" width="32" height="32" fill="none" /><rect x="704" y="608" width="32" height="32" fill="#FF6600" /><rect x="736" y="608" width="32" height="32" fill="#FF6600" /><rect x="768" y="608" width="32" height="32" fill="#FF6600" /><rect x="0" y="640" width="32" height="32" fill="#FF6600" /><rect x="32" y="640" width="32" height="32" fill="#FF6600" /><rect x="64" y="640" width="32" height="32" fill="#FF6600" /><rect x="96" y="640" width="32" height="32" fill="#FF6600" /><rect x="128" y="640" width="32" height="32" fill="#FF6600" /><rect x="160" y="640" width="32" height="32" fill="#FF6600" /><rect x="192" y="640" width="32" height="32" fill="#FF6600" /><rect x="224" y="640" width="32" height="32" fill="#FF6600" /><rect x="256" y="640" width="32" height="32" fill="#6666CC" /><rect x="288" y="640" width="32" height="32" fill="#6666CC" /><rect x="320" y="640" width="32" height="32" fill="#6666CC" /><rect x="352" y="640" width="32" height="32" fill="#6666CC" /><rect x="384" y="640" width="32" height="32" fill="#6666CC" /><rect x="416" y="640" width="32" height="32" fill="#6666CC" /><rect x="448" y="640" width="32" height="32" fill="#6666CC" /><rect x="480" y="640" width="32" height="32" fill="#6666CC" /><rect x="512" y="640" width="32" height="32" fill="#6666CC" /><rect x="544" y="640" width="32" height="32" fill="#6666CC" /><rect x="576" y="640" width="32" height="32" fill="#6666CC" /><rect x="608" y="640" width="32" height="32" fill="#6666CC" /><rect x="640" y="640" width="32" height="32" fill="#6666CC" /><rect x="672" y="640" width="32" height="32" fill="#6666CC" /><rect x="704" y="640" width="32" height="32" fill="#6666CC" /><rect x="736" y="640" width="32" height="32" fill="#6666CC" /><rect x="768" y="640" width="32" height="32" fill="#6666CC" /><rect x="0" y="672" width="32" height="32" fill="none" /><rect x="32" y="672" width="32" height="32" fill="none" /><rect x="64" y="672" width="32" height="32" fill="none" /><rect x="96" y="672" width="32" height="32" fill="#FFFF99" /><rect x="128" y="672" width="32" height="32" fill="#FFFF99" /><rect x="160" y="672" width="32" height="32" fill="#FFFF99" /><rect x="192" y="672" width="32" height="32" fill="#FFFF99" /><rect x="224" y="672" width="32" height="32" fill="#FFFF99" /><rect x="256" y="672" width="32" height="32" fill="#FFFF99" /><rect x="288" y="672" width="32" height="32" fill="#FFFF99" /><rect x="320" y="672" width="32" height="32" fill="#FFFF99" /><rect x="352" y="672" width="32" height="32" fill="#FFFF99" /><rect x="384" y="672" width="32" height="32" fill="#FFFF99" /><rect x="416" y="672" width="32" height="32" fill="none" /><rect x="448" y="672" width="32" height="32" fill="none" /><rect x="480" y="672" width="32" height="32" fill="none" /><rect x="512" y="672" width="32" height="32" fill="none" /><rect x="544" y="672" width="32" height="32" fill="none" /><rect x="576" y="672" width="32" height="32" fill="#66FF66" /><rect x="608" y="672" width="32" height="32" fill="#66FF66" /><rect x="640" y="672" width="32" height="32" fill="#66FF66" /><rect x="672" y="672" width="32" height="32" fill="#66FF66" /><rect x="704" y="672" width="32" height="32" fill="#66FF66" /><rect x="736" y="672" width="32" height="32" fill="#66FF66" /><rect x="768" y="672" width="32" height="32" fill="none" /><rect x="0" y="704" width="32" height="32" fill="#FF6600" /><rect x="32" y="704" width="32" height="32" fill="#FF6600" /><rect x="64" y="704" width="32" height="32" fill="#FF6600" /><rect x="96" y="704" width="32" height="32" fill="#FF6600" /><rect x="128" y="704" width="32" height="32" fill="#FF6600" /><rect x="160" y="704" width="32" height="32" fill="#FF6600" /><rect x="192" y="704" width="32" height="32" fill="#FF6600" /><rect x="224" y="704" width="32" height="32" fill="#FF6600" /><rect x="256" y="704" width="32" height="32" fill="#FF6600" /><rect x="288" y="704" width="32" height="32" fill="#FF6600" /><rect x="320" y="704" width="32" height="32" fill="#FF6600" /><rect x="352" y="704" width="32" height="32" fill="#FF6600" /><rect x="384" y="704" width="32" height="32" fill="#FF6600" /><rect x="416" y="704" width="32" height="32" fill="#FF6600" /><rect x="448" y="704" width="32" height="32" fill="#FF6600" /><rect x="480" y="704" width="32" height="32" fill="#FF6600" /><rect x="512" y="704" width="32" height="32" fill="#FF6600" /><rect x="544" y="704" width="32" height="32" fill="#FF6600" /><rect x="576" y="704" width="32" height="32" fill="#FF6600" /><rect x="608" y="704" width="32" height="32" fill="#FF6600" /><rect x="640" y="704" width="32" height="32" fill="#FF6600" /><rect x="672" y="704" width="32" height="32" fill="#6666CC" /><rect x="704" y="704" width="32" height="32" fill="#6666CC" /><rect x="736" y="704" width="32" height="32" fill="#6666CC" /><rect x="768" y="704" width="32" height="32" fill="#FFFF99" /><rect x="0" y="736" width="32" height="32" fill="#66FF66" /><rect x="32" y="736" width="32" height="32" fill="#66FF66" /><rect x="64" y="736" width="32" height="32" fill="#66FF66" /><rect x="96" y="736" width="32" height="32" fill="#66FF66" /><rect x="128" y="736" width="32" height="32" fill="#66FF66" /><rect x="160" y="736" width="32" height="32" fill="#66FF66" /><rect x="192" y="736" width="32" height="32" fill="#66FF66" /><rect x="224" y="736" width="32" height="32" fill="#66FF66" /><rect x="256" y="736" width="32" height="32" fill="#66FF66" /><rect x="288" y="736" width="32" height="32" fill="#66FF66" /><rect x="320" y="736" width="32" height="32" fill="#66FF66" /></svg>