<?xml version="1.0" encoding="UTF-8"?>
<svg xmlns="http://www.w3.org/2000/svg" version="1.1" height="800" width="800"><rect x="0" y="0" width="800" height="800" fill="rgb(192,192,192)" /><rect x="0" y="0" width="33" height="33" fill="none" /><rect x="33" y="0" width="33" height="33" fill="none" /><rect x="66" y="0" width="33" height="33" fill="#FF6600" /><rect x="99" y="0" width="33" height="33" fill="#FF6600" /><rect x="132" y="0" width="33" height="33" fill="#FF6600" /><rect x="165" y="0" width="33" height="33" fill="#FF6600" /><rect x="198" y="0" width="33" height="33" fill="#FF6600" /><rect x="231" y="0" width="33" height="33" fill="#FF6600" /><rect x="264" y="0" width="33" height="33" fill="#FF6600" /><rect x="297" y="0" width="33" height="33" fill="#FF6600" /><rect x="330" y="0" width="33" height="33" fill="#FF6600" /><rect x="363" y="0" width="33" height="33" fill="#FF6600" /><rect x="396" y="0" width="33" height="33" fill="#FF6600" /><rect x="429" y="0" width="33" height="33" fill="#FF6600" /><rect x="462" y="0" width="33" height="33" fill="#FF6600" /><rect x="495" y="0" width="33" height="33" fill="#FF6600" /><rect x="528" y="0" width="33" height="33" fill="#FF6600" /><rect x="561" y="0" width="33" height="33" fill="#FF6600" /><rect x="594" y="0" width="33" height="33" fill="#FF6600" /><rect x="627" y="0" width="33" height="33" fill="#FF6600" /><rect x="660" y="0" width="33" height="33" fill="#FF6600" /><rect x="693" y="0" width="33" height="33" fill="#FF6600" /><rect x="726" y="0" width="33" height="33" fill="#FF6600" /><rect x="759" y="0" width="33" height="33" fill="#FF6600" /><rect x="0" y="33" width="33" height="33" fill="#FF6600" /><rect x="33" y="33" width="33" height="33" fill="#FF6600" /><rect x="66" y="33" width="33" height="33" fill="#FF6600" /><rect x="99" y="33" width="33" height="33" fill="#FF6600" /><rect x="132" y="33" width="33" height="33" fill="#FF6600" /><rect x="165" y="33" width="33" height="33" fill="#FF6600" /><rect x="198" y="33" width="33" height="33" fill="#FF6600" /><rect x="231" y="33" width="33" height="33" fill="#FF6600" /><rect x="264" y="33" width="33" height="33" fill="#FF6600" /><rect x="297" y="33" width="33" height="33" fill="#FF6600" /><rect x="330" y="33" width="33" height="33" fill="#FF6600" /><rect x="363" y="33" width="33" height="33" fill="#FF6600" /><rect x="396" y="33" width="33" height="33" fill="#FF6600" /><rect x="429" y="33" width="33" height="33" fill="#FF6600" /><rect x="462" y="33" width="33" height="33" fill="#FF6600" /><rect x="495" y="33" width="33" height="33" fill="#FF6600" /><rect x="528" y="33" width="33" height="33" fill="#FF6600" /><rect x="561" y="33" width="33" height="33" fill="#FF6600" /><rect x="594" y="33" width="33" height="33" fill="#FF6600" /><rect x="627" y="33" width="33" height="33" fill="#FF6600" /><rect x="660" y="33" width="33" height="33" fill="#FF6600" /><rect x="693" y="33" width="33" height="33" fill="#FF6600" /><rect x="726" y="33" width="33" height="33" fill="#FF6600" /><rect x="759" y="33" width="33" height="33" fill="#FF6600" /><rect x="0" y="66" width="33" height="33" fill="#FF6600" /><rect x="33" y="66" width="33" height="33" fill="#FF6600" /><rect x="66" y="66" width="33" height="33" fill="#FF6600" /><rect x="99" y="66" width="33" height="33" fill="#FF6600" /><rect x="132" y="66" width="33" height="33" fill="#FF6600" /><rect x="165" y="66" width="33" height="33" fill="#FF6600" /><rect x="198" y="66" width="33" height="33" fill="#FF6600" /><rect x="231" y="66" width="33" height="33" fill="#FF6600" /><rect x="264" y="66" width="33" height="33" fill="#FF6600" /><rect x="297" y="66" width="33" height="33" fill="#FF6600" /><rect x="330" y="66" width="33" height="33" fill="#FF6600" /><rect x="363" y="66" width="33" height="33" fill="#FF6600" /><rect x="396" y="66" width="33" height="33" fill="#FF6600" /><rect x="429" y="66" width="33" height="33" fill="#FF6600" /><rect x="462" y="66" width="33" height="33" fill="#FF6600" /><rect x="495" y="66" width="33" height="33" fill="#FF6600" /><rect x="528" y="66" width="33" height="33" fill="#FF6600" /><rect x="561" y="66" width="33" height="33" fill="#FF6600" /><rect x="594" y="66" width="33" height="33" fill="#6666CC" /><rect x="627" y="66" width="33" height="33" fill="#6666CC" /><rect x="660" y="66" width="33" height="33" fill="#6666CC" /><rect x="693" y="66" width="33" height="33" fill="#6666CC" /><rect x="726" y="66" width="33" height="33" fill="#6666CC" /><rect x="759" y="66" width="33" height="33" fill="#6666CC" /><rect x="0" y="99" width="33" height="33" fill="#6666CC" /><rect x="33" y="99" width="33" height="33" fill="#6666CC" /><rect x="66" y="99" width="33" height="33" fill="#6666CC" /><rect x="99" y="99" width="33" height="33" fill="#6666CC" /><rect x="132" y="99" width="33" height="33" fill="#6666CC" /><rect x="165" y="99" width="33" height="33" fill="#6666CC" /><rect x="198" y="99" width="33" height="33" fill="#6666CC" /><rect x="231" y="99" width="33" height="33" fill="#6666CC" /><rect x="264" y="99" width="33" height="33" fill="#6666CC" /><rect x="297" y="99" width="33" height="33" fill="#6666CC" /><rect x="330" y="99" width="33" height="33" fill="#6666CC" /><rect x="363" y="99" width="33" height="33" fill="#6666CC" /><rect x="396" y="99" width="33" height="33" fill="#6666CC" /><rect x="429" y="99" width="33" height="33" fill="#6666CC" /><rect x="462" y="99" width="33" height="33" fill="#6666CC" /><rect x="495" y="99" width="33" height="33" fill="#6666CC" /><rect x="528" y="99" width="33" height="33" fill="#6666CC" /><rect x="561" y="99" width="33" height="33" fill="#6666CC" /><rect x="594" y="99" width="33" height="33" fill="#6666CC" /><rect x="627" y="99" width="33" height="33" fill="#6666CC" /><rect x="660" y="99" width="33" height="33" fill="#6666CC" /><rect x="693" y="99" width="33" height="33" fill="#6666CC" /><rect x="726" y="99" width="33" height="33" fill="#6666CC" /><rect x="759" y="99" width="33" height="33" fill="#6666CC" /><rect x="0" y="132" width="33" height="33" fill="#6666CC" /><rect x="33" y="132" width="33" height="33" fill="#6666CC" /><rect x="66" y="132" width="33" height="33" fill="#6666CC" /><rect x="99" y="132" width="33" height="33" fill="#6666CC" /><rect x="132" y="132" width="33" height="33" fill="#6666CC" /><rect x="165" y="132" width="33" height="33" fill="#6666CC" /><rect x="198" y="132" width="33" height="33" fill="#6666CC" /><rect x="231" y="132" width="33" height="33" fill="#6666CC" /><rect x="264" y="132" width="33" height="33" fill="#6666CC" /><rect x="297" y="132" width="33" height="33" fill="#6666CC" /><rect x="330" y="132" width="33" height="33" fill="#6666CC" /><rect x="363" y="132" width="33" height="33" fill="#6666CC" /><rect x="396" y="132" width="33" height="33" fill="#6666CC" /><rect x="429" y="132" width="33" height="33" fill="none" /><rect x="462" y="132" width="33" height="33" fill="#FFFF99" /><rect x="495" y="132" width="33" height="33" fill="#FFFF99" /><rect x="528" y="132" width="33" height="33" fill="#FFFF99" /><rect x="561" y="132" width="33" height="33" fill="#FFFF99" /><rect x="594" y="132" width="33" height="33" fill="#FFFF99" /><rect x="627" y="132" width="33" height="33" fill="#FFFF99" /><rect x="660" y="132" width="33" height="33" fill="#FFFF99" /><rect x="693" y="132" width="33" height="33" fill="#FFFF99" /><rect x="726" y="132" width="33" height="33" fill="#FFFF99" /><rect x="759" y="132" width="33" height="33" fill="#FFFF99" /><rect x="0" y="165" width="33" height="33" fill="#FFFF99" /><rect x="33" y="165" width="33" height="33" fill="#FFFF99" /><rect x="66" y="165" width="33" height="33" fill="#FFFF99" /><rect x="99" y="165" width="33" height="33" fill="#FFFF99" /><rect x="132" y="165" width="33" height="33" fill="#66FF66" /><rect x="165" y="165" width="33" height="33" fill="#66FF66" /><rect x="198" y="165" width="33" height="33" fill="#66FF66" /><rect x="231" y="165" width="33" height="33" fill="#66FF66" /><rect x="264" y="165" width="33" height="33" fill="#66FF66" /><rect x="297" y="165" width="33" height="33" fill="#66FF66" /><rect x="330" y="165" width="33" height="33" fill="#66FF66" /><rect x="363" y="165" width="33" height="33" fill="#66FF66" /><rect x="396" y="165" width="33" height="33" fill="#66FF66" /><rect x="429" y="165" width="33" height="33" fill="#66FF66" /><rect x="462" y="165" width="33" height="33" fill="#66FF66" /><rect x="495" y="165" width="33" height="33" fill="#66FF66" /><rect x="528" y="165" width="33" height="33" fill="#66FF66" /><rect x="561" y="165" width="33" height="33" fill="#66FF66" /><rect x="594" y="165" width="33" height="33" fill="#FF6600" /><rect x="627" y="165" width="33" height="33" fill="#FF6600" /><rect x="660" y="165" width="33" height="33" fill="#FF6600" /><rect x="693" y="165" width="33" height="33" fill="#FF6600" /><rect x="726" y="165" width="33" height="33" fill="#FF6600" /><rect x="759" y="165" width="33" height="33" fill="none" /><rect x="0" y="198" width="33" height="33" fill="none" /><rect x="33" y="198" width="33" height="33" fill="none" /><rect x="66" y="198" width="33" height="33" fill="none" /><rect x="99" y="198" width="33" height="33" fill="none" /><rect x="132" y="198" width="33" height="33" fill="none" /><rect x="165" y="198" width="33" height="33" fill="none" /><rect x="198" y="198" width="33" height="33" fill="none" /><rect x="231" y="198" width="33" height="33" fill="none" /><rect x="264" y="198" width="33" height="33" fill="none" /><rect x="297" y="198" width="33" height="33" fill="none" /><rect x="330" y="198" width="33" height="33" fill="#6666CC" /><rect x="363" y="198" width="33" height="33" fill="#6666CC" /><rect x="396" y="198" width="33" height="33" fill="#6666CC" /><rect x="429" y="198" width="33" height="33" fill="#6666CC" /><rect x="462" y="198" width="33" height="33" fill="#6666CC" /><rect x="495" y="198" width="33" height="33" fill="#6666CC" /><rect x="528" y="198" width="33" height="33" fill="#6666CC" /><rect x="561" y="198" width="33" height="33" fill="#6666CC" /><rect x="594" y="198" width="33" height="33" fill="#6666CC" /><rect x="627" y="198" width="33" height="33" fill="#6666CC" /><rect x="660" y="198" width="33" height="33" fill="#6666CC" /><rect x="693" y="198" width="33" height="33" fill="#6666CC" /><rect x="726" y="198" width="33" height="33" fill="#6666CC" /><rect x="759" y="198" width="33" height="33" fill="#6666CC" /><rect x="0" y="231" width="33" height="33" fill="#6666CC" /><rect x="33" y="231" width="33" height="33" fill="#6666CC" /><rect x="66" y="231" width="33" height="33" fill="#6666CC" /><rect x="99" y="231" width="33" height="33" fill="#6666CC" /><rect x="132" y="231" width="33" height="33" fill="#6666CC" /><rect x="165" y="231" width="33" height="33" fill="#6666CC" /><rect x="198" y="231" width="33" height="33" fill="#6666CC" /><rect x="231" y="231" width="33" height="33" fill="#6666CC" /><rect x="264" y="231" width="33" height="33" fill="#6666CC" /><rect x="297" y="231" width="33" height="33" fill="#6666CC" /><rect x="330" y="231" width="33" height="33" fill="#6666CC" /><rect x="363" y="231" width="33" height="33" fill="#6666CC" /><rect x="396" y="231" width="33" height="33" fill="#6666CC" /><rect x="429" y="231" width="33" height="33" fill="#6666CC" /><rect x="462" y="231" width="33" height="33" fill="#6666CC" /><rect x="495" y="231" width="33" height="33" fill="#6666CC" /><rect x="528" y="231" width="33" height="33" fill="#6666CC" /><rect x="561" y="231" width="33" height="33" fill="#6666CC" /><rect x="594" y="231" width="33" height="33" fill="#6666CC" /><rect x="627" y="231" width="33" height="33" fill="#6666CC" /><rect x="660" y="231" width="33" height="33" fill="#6666CC" /><rect x="693" y="231" width="33" height="33" fill="#6666CC" /><rect x="726" y="231" width="33" height="33" fill="#6666CC" /><rect x="759" y="231" width="33" height="33" fill="#6666CC" /><rect x="0" y="264" width="33" height="33" fill="#6666CC" /><rect x="33" y="264" width="33" height="33" fill="#6666CC" /><rect x="66" y="264" width="33" height="33" fill="#6666CC" /><rect x="99" y="264" width="33" height="33" fill="#6666CC" /><rect x="132" y="264" width="33" height="33" fill="#6666CC" /><rect x="165" y="264" width="33" height="33" fill="none" /><rect x="198" y="264" width="33" height="33" fill="#FFFF99" /><rect x="231" y="264" width="33" height="33" fill="#FFFF99" /><rect x="264" y="264" width="33" height="33" fill="#FFFF99" /><rect x="297" y="264" width="33" height="33" fill="#FFFF99" /><rect x="330" y="264" width="33" height="33" fill="#FFFF99" /><rect x="363" y="264" width="33" height="33" fill="#FFFF99" /><rect x="396" y="264" width="33" height="33" fill="#FFFF99" /><rect x="429" y="264" width="33" height="33" fill="#FFFF99" /><rect x="462" y="264" width="33" height="33" fill="#FFFF99" /><rect x="495" y="264" width="33" height="33" fill="#FFFF99" /><rect x="528" y="264" width="33" height="33" fill="#FFFF99" /><rect x="561" y="264" width="33" height="33" fill="#FFFF99" /><rect x="594" y="264" width="33" height="33" fill="#FFFF99" /><rect x="627" y="264" width="33" height="33" fill="#FFFF99" /><rect x="660" y="264" width="33" height="33" fill="#FFFF99" /><rect x="693" y="264" width="33" height="33" fill="#FFFF99" /><rect x="726" y="264" width="33" height="33" fill="#FFFF99" /><rect x="759" y="264" width="33" height="33" fill="#FFFF99" /><rect x="0" y="297" width="33" height="33" fill="#FFFF99" /><rect x="33" y="297" width="33" height="33" fill="#FFFF99" /><rect x="66" y="297" width="33" height="33" fill="#FFFF99" /><rect x="99" y="297" width="33" height="33" fill="#FFFF99" /><rect x="132" y="297" width="33" height="33" fill="#FFFF99" /><rect x="165" y="297" width="33" height="33" fill="#FFFF99" /><rect x="198" y="297" width="33" height="33" fill="#FFFF99" /><rect x="231" y="297" width="33" height="33" fill="#FFFF99" /><rect x="264" y="297" width="33" height="33" fill="#FFFF99" /><rect x="297" y="297" width="33" height="33" fill="#FFFF99" /><rect x="330" y="297" width="33" height="33" fill="#FFFF99" /><rect x="363" y="297" width="33" height="33" fill="#FFFF99" /><rect x="396" y="297" width="33" height="33" fill="#FFFF99" /><rect x="429" y="297" width="33" height="33" fill="#FFFF99" /><rect x="462" y="297" width="33" height="33" fill="#FFFF99" /><rect x="495" y="297" width="33" height="33" fill="#FFFF99" /><rect x="528" y="297" width="33" height="33" fill="#FFFF99" /><rect x="561" y="297" width="33" height="33" fill="#FFFF99" /><rect x="594" y="297" width="33" height="33" fill="#FFFF99" /><rect x="627" y="297" width="33" height="33" fill="#FFFF99" /><rect x="660" y="297" width="33" height="33" fill="#FFFF99" /><rect x="693" y="297" width="33" height="33" fill="#FFFF99" /><rect x="726" y="297" width="33" height="33" fill="#FFFF99" /><rect x="759" y="297" width="33" height="33" fill="#FFFF99" /><rect x="0" y="330" width="33" height="33" fill="#FFFF99" /><rect x="33" y="330" width="33" height="33" fill="#FFFF99" /><rect x="66" y="330" width="33" height="33" fill="#FFFF99" /><rect x="99" y="330" width="33" height="33" fill="#FFFF99" /><rect x="132" y="330" width="33" height="33" fill="#66FF66" /><rect x="165" y="330" width="33" height="33" fill="#66FF66" /><rect x="198" y="330" width="33" height="33" fill="#66FF66" /><rect x="231" y="330" width="33" height="33" fill="#66FF66" /><rect x="264" y="330" width="33" height="33" fill="#66FF66" /><rect x="297" y="330" width="33" height="33" fill="#66FF66" /><rect x="330" y="330" width="33" height="33" fill="#66FF66" /><rect x="363" y="330" width="33" height="33" fill="#66FF66" /><rect x="396" y="330" width="33" height="33" fill="#66FF66" /><rect x="429" y="330" width="33" height="33" fill="#66FF66" /><rect x="462" y="330" width="33" height="33" fill="#66FF66" /><rect x="495" y="330" width="33" height="33" fill="#66FF66" /><rect x="528" y="330" width="33" height="33" fill="#66FF66" /><rect x="561" y="330" width="33" height="33" fill="#66FF66" /><rect x="594" y="330" width="33" height="33" fill="#66FF66" /><rect x="627" y="330" width="33" height="33" fill="#66FF66" /><rect x="660" y="330" width="33" height="33" fill="#66FF66" /><rect x="693" y="330" width="33" height="33" fill="#66FF66" /><rect x="726" y="330" width="33" height="33" fill="#66FF66" /><rect x="759" y="330" width="33" height="33" fill="#66FF66" /><rect x="0" y="363" width="33" height="33" fill="#66FF66" /><rect x="33" y="363" width="33" height="33" fill="#66FF66" /><rect x="66" y="363" width="33" height="33" fill="#66FF66" /><rect x="99" y="363" width="33" height="33" fill="none" /><rect x="132" y="363" width="33" height="33" fill="none" /><rect x="165" y="363" width="33" height="33" fill="none" /><rect x="198" y="363" width="33" height="33" fill="none" /><rect x="231" y="363" width="33" height="33" fill="none" /><rect x="264" y="363" width="33" height="33" fill="none" /><rect x="297" y="363" width="33" height="33" fill="none" /><rect x="330" y="363" width="33" height="33" fill="#FF6600" /><rect x="363" y="363" width="33" height="33" fill="#FF6600" /><rect x="396" y="363" width="33" height="33" fill="none" /><rect x="429" y="363" width="33" height="33" fill="none" /><rect x="462" y="363" width="33" height="33" fill="none" /><rect x="495" y="363" width="33" height="33" fill="none" /><rect x="528" y="363" width="33" height="33" fill="none" /><rect x="561" y="363" width="33" height="33" fill="none" /><rect x="594" y="363" width="33" height="33" fill="#6666CC" /><rect x="627" y="363" width="33" height="33" fill="#6666CC" /><rect x="660" y="363" width="33" height="33" fill="#6666CC" /><rect x="693" y="363" width="33" height="33" fill="#6666CC" /><rect x="726" y="363" width="33" height="33" fill="#6666CC" /><rect x="759" y="363" width="33" height="33" fill="#6666CC" /><rect x="0" y="396" width="33" height="33" fill="#6666CC" /><rect x="33" y="396" width="33" height="33" fill="#6666CC" /><rect x="66" y="396" width="33" height="33" fill="#6666CC" /><rect x="99" y="396" width="33" height="33" fill="#6666CC" /><rect x="132" y="396" width="33" height="33" fill="#6666CC" /><rect x="165" y="396" width="33" height="33" fill="#6666CC" /><rect x="198" y="396" width="33" height="33" fill="#6666CC" /><rect x="231" y="396" width="33" height="33" fill="#6666CC" /><rect x="264" y="396" width="33" height="33" fill="#6666CC" /><rect x="297" y="396" width="33" height="33" fill="#6666CC" /><rect x="330" y="396" width="33" height="33" fill="#6666CC" /><rect x="363" y="396" width="33" height="33" fill="#6666CC" /><rect x="396" y="396" width="33" height="33" fill="#6666CC" /><rect x="429" y="396" width="33" height="33" fill="#6666CC" /><rect x="462" y="396" width="33" height="33" fill="#6666CC" /><rect x="495" y="396" width="33" height="33" fill="#6666CC" /><rect x="528" y="396" width="33" height="33" fill="#6666CC" /><rect x="561" y="396" width="33" height="33" fill="#6666CC" /><rect x="594" y="396" width="33" height="33" fill="#6666CC" /><rect x="627" y="396" width="33" height="33" fill="#6666CC" /><rect x="660" y="396" width="33" height="33" fill="#6666CC" /><rect x="693" y="396" width="33" height="33" fill="#6666CC" /><rect x="726" y="396" width="33" height="33" fill="#6666CC" /><rect x="759" y="396" width="33" height="33" fill="#6666CC" /><rect x="0" y="429" width="33" height="33" fill="#6666CC" /><rect x="33" y="429" width="33" height="33" fill="#6666CC" /><rect x="66" y="429" width="33" height="33" fill="#6666CC" /><rect x="99" y="429" width="33" height="33" fill="#6666CC" /><rect x="132" y="429" width="33" height="33" fill="#6666CC" /><rect x="165" y="429" width="33" height="33" fill="#6666CC" /><rect x="198" y="429" width="33" height="33" fill="#6666CC" /><rect x="231" y="429" width="33" height="33" fill="#6666CC" /><rect x="264" y="429" width="33" height="33" fill="#6666CC" /><rect x="297" y="429" width="33" height="33" fill="#6666CC" /><rect x="330" y="429" width="33" height="33" fill="#6666CC" /><rect x="363" y="429" width="33" height="33" fill="#6666CC" /><rect x="396" y="429" width="33" height="33" fill="#6666CC" /><rect x="429" y="429" width="33" height="33" fill="#6666CC" /><rect x="462" y="429" width="33" height="33" fill="#6666CC" /><rect x="495" y="429" width="33" height="33" fill="#6666CC" /><rect x="528" y="429" width="33" height="33" fill="#6666CC" /><rect x="561" y="429" width="33" height="33" fill="none" /><rect x="594" y="429" width="33" height="33" fill="none" /><rect x="627" y="429" width="33" height="33" fill="none" /><rect x="660" y="429" width="33" height="33" fill="none" /><rect x="693" y="429" width="33" height="33" fill="none" /><rect x="726" y="429" width="33" height="33" fill="none" /><rect x="759" y="429" width="33" height="33" fill="none" /><rect x="0" y="462" width="33" height="33" fill="none" /><rect x="33" y="462" width="33" height="33" fill="none" /><rect x="66" y="462" width="33" height="33" fill="none" /><rect x="99" y="462" width="33" height="33" fill="none" /><rect x="132" y="462" width="33" height="33" fill="none" /><rect x="165" y="462" width="33" height="33" fill="none" /><rect x="198" y="462" width="33" height="33" fill="none" /><rect x="231" y="462" width="33" height="33" fill="none" /><rect x="264" y="462" width="33" height="33" fill="none" /><rect x="297" y="462" width="33" height="33" fill="none" /><rect x="330" y="462" width="33" height="33" fill="none" /><rect x="363" y="462" width="33" height="33" fill="none" /><rect x="396" y="462" width="33" height="33" fill="none" /><rect x="429" y="462" width="33" height="33" fill="none" /><rect x="462" y="462" width="33" height="33" fill="none" /><rect x="495" y="462" width="33" height="33" fill="none" /><rect x="528" y="462" width="33" height="33" fill="none" /><rect x="561" y="462" width="33" height="33" fill="none" /><rect x="594" y="462" width="33" height="33" fill="none" /><rect x="627" y="462" width="33" height="33" fill="none" /><rect x="660" y="462" width="33" height="33" fill="none" /><rect x="693" y="462" width="33" height="33" fill="none" /><rect x="726" y="462" width="33" height="33" fill="#FFFF99" /><rect x="759" y="462" width="33" height="33" fill="#FFFF99" /><rect x="0" y="495" width="33" height="33" fill="#FFFF99" /><rect x="33" y="495" width="33" height="33" fill="#FFFF99" /><rect x="66" y="495" width="33" height="33" fill="#FFFF99" /><rect x="99" y="495" width="33" height="33" fill="#FFFF99" /><rect x="132" y="495" width="33" height="33" fill="#FFFF99" /><rect x="165" y="495" width="33" height="33" fill="#FFFF99" /><rect x="198" y="495" width="33" height="33" fill="#FFFF99" /><rect x="231" y="495" width="33" height="33" fill="#FFFF99" /><rect x="264" y="495" width="33" height="33" fill="#FFFF99" /><rect x="297" y="495" width="33" height="33" fill="#FFFF99" /><rect x="330" y="495" width="33" height="33" fill="#FFFF99" /><rect x="363" y="495" width="33" height="33" fill="#FFFF99" /><rect x="396" y="495" width="33" height="33" fill="#FFFF99" /><rect x="429" y="495" width="33" height="33" fill="#FFFF99" /><rect x="462" y="495" width="33" height="33" fill="#FFFF99" /><rect x="495" y="495" width="33" height="33" fill="#FFFF99" /><rect x="528" y="495" width="33" height="33" fill="#FFFF99" /><rect x="561" y="495" width="33" height="33" fill="#FFFF99" /><rect x="594" y="495" width="33" height="33" fill="#FFFF99" /><rect x="627" y="495" width="33" height="33" fill="#FFFF99" /><rect x="660" y="495" width="33" height="33" fill="#FFFF99" /><rect x="693" y="495" width="33" height="33" fill="#FFFF99" /><rect x="726" y="495" width="33" height="33" fill="#FFFF99" /><rect x="759" y="495" width="33" height="33" fill="#FFFF99" /><rect x="0" y="528" width="33" height="33" fill="#FFFF99" /><rect x="33" y="528" width="33" height="33" fill="#FFFF99" /><rect x="66" y="528" width="33" height="33" fill="#FFFF99" /><rect x="99" y="528" width="33" height="33" fill="#FFFF99" /><rect x="132" y="528" width="33" height="33" fill="none" /><rect x="165" y="528" width="33" height="33" fill="none" /><rect x="198" y="528" width="33" height="33" fill="none" /><rect x="231" y="528" width="33" height="33" fill="none" /><rect x="264" y="528" width="33" height="33" fill="none" /><rect x="297" y="528" width="33" height="33" fill="none" /><rect x="330" y="528" width="33" height="33" fill="none" /><rect x="363" y="528" width="33" height="33" fill="none" /><rect x="396" y="528" width="33" height="33" fill="none" /><rect x="429" y="528" width="33" height="33" fill="none" /><rect x="462" y="528" width="33" height="33" fill="#66FF66" /><rect x="495" y="528" width="33" height="33" fill="#66FF66" /><rect x="528" y="528" width="33" height="33" fill="#66FF66" /><rect x="561" y="528" width="33" height="33" fill="#66FF66" /><rect x="594" y="528" width="33" height="33" fill="#66FF66" /><rect x="627" y="528" width="33" height="33" fill="#66FF66" /><rect x="660" y="528" width="33" height="33" fill="#66FF66" /><rect x="693" y="528" width="33" height="33" fill="#66FF66" /><rect x="726" y="528" width="33" height="33" fill="#66FF66" /><rect x="759" y="528" width="33" height="33" fill="#66FF66" /><rect x="0" y="561" width="33" height="33" fill="#66FF66" /><rect x="33" y="561" width="33" height="33" fill="#66FF66" /><rect x="66" y="561" width="33" height="33" fill="#66FF66" /><rect x="99" y="561" width="33" height="33" fill="#66FF66" /><rect x="132" y="561" width="33" height="33" fill="#66FF66" /><rect x="165" y="561" width="33" height="33" fill="#66FF66" /><rect x="198" y="561" width="33" height="33" fill="#66FF66" /><rect x="231" y="561" width="33" height="33" fill="#66FF66" /><rect x="264" y="561" width="33" height="33" fill="#66FF66" /><rect x="297" y="561" width="33" height="33" fill="#66FF66" /><rect x="330" y="561" width="33" height="33" fill="#66FF66" /><rect x="363" y="561" width="33" height="33" fill="#66FF66" /><rect x="396" y="561" width="33" height="33" fill="#66FF66" /><rect x="429" y="561" width="33" height="33" fill="#66FF66" /><rect x="462" y="561" width="33" height="33" fill="#66FF66" /><rect x="495" y="561" width="33" height="33" fill="#66FF66" /><rect x="528" y="561" width="33" height="33" fill="#66FF66" /><rect x="561" y="561" width="33" height="33" fill="#66FF66" /><rect x="594" y="561" width="33" height="33" fill="#66FF66" /><rect x="627" y="561" width="33" height="33" fill="#66FF66" /><rect x="660" y="561" width="33" height="33" fill="#66FF66" /><rect x="693" y="561" width="33" height="33" fill="#66FF66" /><rect x="726" y="561" width="33" height="33" fill="#66FF66" /><rect x="759" y="561" width="33" height="33" fill="#66FF66" /><rect x="0" y="594" width="33" height="33" fill="#66FF66" /><rect x="33" y="594" width="33" height="33" fill="#66FF66" /><rect x="66" y="594" width="33" height="33" fill="#66FF66" /><rect x="99" y="594" width="33" height="33" fill="#66FF66" /><rect x="132" y="594" width="33" height="33" fill="#66FF66" /><rect x="165" y="594" width="33" height="33" fill="#66FF66" /><rect x="198" y="594" width="33" height="33" fill="#66FF66" /><rect x="231" y="594" width="33" height="33" fill="#66FF66" /><rect x="264" y="594" width="33" height="33" fill="#66FF66" /><rect x="297" y="594" width="33" height="33" fill="#66FF66" /><rect x="330" y="594" width="33" height="33" fill="#66FF66" /><rect x="363" y="594" width="33" height="33" fill="#66FF66" /><rect x="396" y="594" width="33" height="33" fill="#66FF66" /><rect x="429" y="594" width="33" height="33" fill="#66FF66" /><rect x="462" y="594" width="33" height="33" fill="#66FF66" /><rect x="495" y="594" width="33" height="33" fill="#66FF66" /><rect x="528" y="594" width="33" height="33" fill="#66FF66" /><rect x="561" y="594" width="33" height="33" fill="#66FF66" /><rect x="594" y="594" width="33" height="33" fill="#66FF66" /><rect x="627" y="594" width="33" height="33" fill="#66FF66" /><rect x="660" y="594" width="33" height="33" fill="#66FF66" /><rect x="693" y="594" width="33" height="33" fill="#66FF66" /><rect x="726" y="594" width="33" height="33" fill="#66FF66" /><rect x="759" y="594" width="33" height="33" fill="#66FF66" /><rect x="0" y="627" width="33" height="33" fill="#66FF66" /><rect x="33" y="627" width="33" height="33" fill="#66FF66" /><rect x="66" y="627" width="33" height="33" fill="#66FF66" /><rect x="99" y="627" width="33" height="33" fill="#66FF66" /><rect x="132" y="627" width="33" height="33" fill="#66FF66" /><rect x="165" y="627" width="33" height="33" fill="#66FF66" /><rect x="198" y="627" width="33" height="33" fill="#66FF66" /><rect x="231" y="627" width="33" height="33" fill="#66FF66" /><rect x="264" y="627" width="33" height="33" fill="#66FF66" /><rect x="297" y="627" width="33" height="33" fill="#66FF66" /><rect x="330" y="627" width="33" height="33" fill="#66FF66" /><rect x="363" y="627" width="33" height="33" fill="none" /><rect x="396" y="627" width="33" height="33" fill="#FF6600" /><rect x="429" y="627" width="33" height="33" fill="#FF6600" /><rect x="462" y="627" width="33" height="33" fill="#FF6600" /><rect x="495" y="627" width="33" height="33" fill="#FF6600" /><rect x="528" y="627" width="33" height="33" fill="#FF6600" /><rect x="561" y="627" width="33" height="33" fill="#FF6600" /><rect x="594" y="627" width="33" height="33" fill="#FF6600" /><rect x="627" y="627" width="33" height="33" fill="#FF6600" /><rect x="660" y="627" width="33" height="33" fill="#FF6600" /><rect x="693" y="627" width="33" height="33" fill="#FF6600" /><rect x="726" y="627" width="33" height="33" fill="#FF6600" /><rect x="759" y="627" width="33" height="33" fill="#FF6600" /><rect x="0" y="660" width="33" height="33" fill="#FF6600" /><rect x="33" y="660" width="33" height="33" fill="#FF6600" /><rect x="66" y="660" width="33" height="33" fill="#FF6600" /><rect x="99" y="660" width="33" height="33" fill="#FF6600" /><rect x="132" y="660" width="33" height="33" fill="#FF6600" /><rect x="165" y="660" width="33" height="33" fill="#FF6600" /><rect x="198" y="660" width="33" height="33" fill="#FF6600" /><rect x="231" y="660" width="33" height="33" fill="#FF6600" /><rect x="264" y="660" width="33" height="33" fill="#FF6600" /><rect x="297" y="660" width="33" height="33" fill="#FF6600" /><rect x="330" y="660" width="33" height="33" fill="#FF6600" /><rect x="363" y="660" width="33" height="33" fill="#FF6600" /><rect x="396" y="660" width="33" height="33" fill="#FF6600" /><rect x="429" y="660" width="33" height="33" fill="#FF6600" /><rect x="462" y="660" width="33" height="33" fill="#FF6600" /><rect x="495" y="660" width="33" height="33" fill="#FF6600" /><rect x="528" y="660" width="33" height="33" fill="#FF6600" /><rect x="561" y="660" width="33" height="33" fill="none" /><rect x="594" y="660" width="33" height="33" fill="#6666CC" /><rect x="627" y="660" width="33" height="33" fill="#6666CC" /><rect x="660" y="660" width="33" height="33" fill="#6666CC" /><rect x="693" y="660" width="33" height="33" fill="#6666CC" /><rect x="726" y="660" width="33" height="33" fill="#6666CC" /><rect x="759" y="660" width="33" height="33" fill="#6666CC" /><rect x="0" y="693" width="33" height="33" fill="#6666CC" /><rect x="33" y="693" width="33" height="33" fill="#6666CC" /><rect x="66" y="693" width="33" height="33" fill="#6666CC" /><rect x="99" y="693" width="33" height="33" fill="#6666CC" /><rect x="132" y="693" width="33" height="33" fill="#6666CC" /><rect x="165" y="693" width="33" height="33" fill="#6666CC" /><rect x="198" y="693" width="33" height="33" fill="#6666CC" /><rect x="231" y="693" width="33" height="33" fill="none" /><rect x="264" y="693" width="33" height="33" fill="#FFFF99" /><rect x="297" y="693" width="33" height="33" fill="#FFFF99" /><rect x="330" y="693" width="33" height="33" fill="#FFFF99" /><rect x="363" y="693" width="33" height="33" fill="#FFFF99" /><rect x="396" y="693" width="33" height="33" fill="#FFFF99" /><rect x="429" y="693" width="33" height="33" fill="#FFFF99" /><rect x="462" y="693" width="33" height="33" fill="#FFFF99" /><rect x="495" y="693" width="33" height="33" fill="#FFFF99" /><rect x="528" y="693" width="33" height="33" fill="none" /><rect x="561" y="693" width="33" height="33" fill="none" /><rect x="594" y="693" width="33" height="33" fill="none" /><rect x="627" y="693" width="33" height="33" fill="none" /><rect x="660" y="693" width="33" height="33" fill="none" /><rect x="693" y="693" width="33" height="33" fill="none" /><rect x="726" y="693" width="33" height="33" fill="none" /><rect x="759" y="693" width="33" height="33" fill="none" /><rect x="0" y="726" width="33" height="33" fill="none" /><rect x="33" y="726" width="33" height="33" fill="none" /><rect x="66" y="726" width="33" height="33" fill="none" /><rect x="99" y="726" width="33" height="33" fill="none" /><rect x="132" y="726" width="33" height="33" fill="none" /><rect x="165" y="726" width="33" height="33" fill="none" /><rect x="198" y="726" width="33" height="33" fill="none" /><rect x="231" y="726" width="33" height="33" fill="none" /><rect x="264" y="726" width="33" height="33" fill="none" /><rect x="297" y="726" width="33" height="33" fill="none" /><rect x="330" y="726" width="33" height="33" fill="none" /><rect x="363" y="726" width="33" height="33" fill="none" /><rect x="396" y="726" width="33" height="33" fill="none" /><rect x="429" y="726" width="33" height="33" fill="none" /><rect x="462" y="726" width="33" height="33" fill="none" /><rect x="495" y="726" width="33" height="33" fill="none" /><rect x="528" y="726" width="33" height="33" fill="none" /><rect x="561" y="726" width="33" height="33" fill="none" /><rect x="594" y="726" width="33" height="33" fill="none" /><rect x="627" y="726" width="33" height="33" fill="none" /></svg>