<?xml version="1.0" encoding="UTF-8"?>
<svg xmlns="http://www.w3.org/2000/svg" version="1.1" height="800" width="800"><rect x="0" y="0" width="800" height="800" fill="rgb(192,192,192)" /><rect x="0" y="0" width="27" height="27" fill="none" /><rect x="27" y="0" width="27" height="27" fill="none" /><rect x="54" y="0" width="27" height="27" fill="none" /><rect x="81" y="0" width="27" height="27" fill="none" /><rect x="108" y="0" width="27" height="27" fill="none" /><rect x="135" y="0" width="27" height="27" fill="none" /><rect x="162" y="0" width="27" height="27" fill="none" /><rect x="189" y="0" width="27" height="27" fill="none" /><rect x="216" y="0" width="27" height="27" fill="none" /><rect x="243" y="0" width="27" height="27" fill="none" /><rect x="270" y="0" width="27" height="27" fill="none" /><rect x="297" y="0" width="27" height="27" fill="none" /><rect x="324" y="0" width="27" height="27" fill="none" /><rect x="351" y="0" width="27" height="27" fill="none" /><rect x="378" y="0" width="27" height="27" fill="#FF6600" /><rect x="405" y="0" width="27" height="27" fill="#FF6600" /><rect x="432" y="0" width="27" height="27" fill="#FF6600" /><rect x="459" y="0" width="27" height="27" fill="#FF6600" /><rect x="486" y="0" width="27" height="27" fill="#FF6600" /><rect x="513" y="0" width="27" height="27" fill="#FF6600" /><rect x="540" y="0" width="27" height="27" fill="#FF6600" /><rect x="567" y="0" width="27" height="27" fill="#FF6600" /><rect x="594" y="0" width="27" height="27" fill="#FF6600" /><rect x="621" y="0" width="27" height="27" fill="#FF6600" /><rect x="648" y="0" width="27" height="27" fill="#FF6600" /><rect x="675" y="0" width="27" height="27" fill="#FF6600" /><rect x="702" y="0" width="27" height="27" fill="#FF6600" /><rect x="729" y="0" width="27" height="27" fill="#FF6600" /><rect x="756" y="0" width="27" height="27" fill="#FF6600" /><rect x="0" y="27" width="27" height="27" fill="#FF6600" /><rect x="27" y="27" width="27" height="27" fill="#FF6600" /><rect x="54" y="27" width="27" height="27" fill="#FF6600" /><rect x="81" y="27" width="27" height="27" fill="#FF6600" /><rect x="108" y="27" width="27" height="27" fill="#FF6600" /><rect x="135" y="27" width="27" height="27" fill="#FF6600" /><rect x="162" y="27" width="27" height="27" fill="#FF6600" /><rect x="189" y="27" width="27" height="27" fill="#FF6600" /><rect x="216" y="27" width="27" height="27" fill="#FF6600" /><rect x="243" y="27" width="27" height="27" fill="#FF6600" /><rect x="270" y="27" width="27" height="27" fill="#FF6600" /><rect x="297" y="27" width="27" height="27" fill="#FF6600" /><rect x="324" y="27" width="27" height="27" fill="#FF6600" /><rect x="351" y="27" width="27" height="27" fill="#FF6600" /><rect x="378" y="27" width="27" height="27" fill="#FF6600" /><rect x="405" y="27" width="27" height="27" fill="#FF6600" /><rect x="432" y="27" width="27" height="27" fill="#FF6600" /><rect x="459" y="27" width="27" height="27" fill="#FF6600" /><rect x="486" y="27" width="27" height="27" fill="#FF6600" /><rect x="513" y="27" width="27" height="27" fill="#FF6600" /><rect x="540" y="27" width="27" height="27" fill="#FF6600" /><rect x="567" y="27" width="27" height="27" fill="#FF6600" /><rect x="594" y="27" width="27" height="27" fill="#FF6600" /><rect x="621" y="27" width="27" height="27" fill="#FF6600" /><rect x="648" y="27" width="27" height="27" fill="#FF6600" /><rect x="675" y="27" width="27" height="27" fill="#FF6600" /><rect x="702" y="27" width="27" height="27" fill="#FF6600" /><rect x="729" y="27" width="27" height="27" fill="#FF6600" /><rect x="756" y="27" width="27" height="27" fill="#FF6600" /><rect x="0" y="54" width="27" height="27" fill="#FF6600" /><rect x="27" y="54" width="27" height="27" fill="#FF6600" /><rect x="54" y="54" width="27" height="27" fill="#FF6600" /><rect x="81" y="54" width="27" height="27" fill="#FF6600" /><rect x="108" y="54" width="27" height="27" fill="#FF6600" /><rect x="135" y="54" width="27" height="27" fill="#FF6600" /><rect x="162" y="54" width="27" height="27" fill="#FF6600" /><rect x="189" y="54" width="27" height="27" fill="#FF6600" /><rect x="216" y="54" width="27" height="27" fill="#FF6600" /><rect x="243" y="54" width="27" height="27" fill="#FF6600" /><rect x="270" y="54" width="27" height="27" fill="#FF6600" /><rect x="297" y="54" width="27" height="27" fill="#FF6600" /><rect x="324" y="54" width="27" height="27" fill="#FF6600" /><rect x="351" y="54" width="27" height="27" fill="#FF6600" /><rect x="378" y="54" width="27" height="27" fill="#FF6600" /><rect x="405" y="54" width="27" height="27" fill="#FF6600" /><rect x="432" y="54" width="27" height="27" fill="#FF6600" /><rect x="459" y="54" width="27" height="27" fill="#FF6600" /><rect x="486" y="54" width="27" height="27" fill="#FF6600" /><rect x="513" y="54" width="27" height="27" fill="#FF6600" /><rect x="540" y="54" width="27" height="27" fill="#FF6600" /><rect x="567" y="54" width="27" height="27" fill="#FF6600" /><rect x="594" y="54" width="27" height="27" fill="#FF6600" /><rect x="621" y="54" width="27" height="27" fill="#FF6600" /><rect x="648" y="54" width="27" height="27" fill="#FF6600" /><rect x="675" y="54" width="27" height="27" fill="#FF6600" /><rect x="702" y="54" width="27" height="27" fill="#FF6600" /><rect x="729" y="54" width="27" height="27" fill="#FF6600" /><rect x="756" y="54" width="27" height="27" fill="#FF6600" /><rect x="0" y="81" width="27" height="27" fill="#FF6600" /><rect x="27" y="81" width="27" height="27" fill="#FF6600" /><rect x="54" y="81" width="27" height="27" fill="#FF6600" /><rect x="81" y="81" width="27" height="27" fill="#FF6600" /><rect x="108" y="81" width="27" height="27" fill="#FF6600" /><rect x="135" y="81" width="27" height="27" fill="#FF6600" /><rect x="162" y="81" width="27" height="27" fill="#FF6600" /><rect x="189" y="81" width="27" height="27" fill="#FF6600" /><rect x="216" y="81" width="27" height="27" fill="#FF6600" /><rect x="243" y="81" width="27" height="27" fill="#FF6600" /><rect x="270" y="81" width="27" height="27" fill="#FF6600" /><rect x="297" y="81" width="27" height="27" fill="#FF6600" /><rect x="324" y="81" width="27" height="27" fill="#FF6600" /><rect x="351" y="81" width="27" height="27" fill="#FF6600" /><rect x="378" y="81" width="27" height="27" fill="#FF6600" /><rect x="405" y="81" width="27" height="27" fill="#FF6600" /><rect x="432" y="81" width="27" height="27" fill="#FF6600" /><rect x="459" y="81" width="27" height="27" fill="#FF6600" /><rect x="486" y="81" width="27" height="27" fill="#FF6600" /><rect x="513" y="81" width="27" height="27" fill="#FF6600" /><rect x="540" y="81" width="27" height="27" fill="#FF6600" /><rect x="567" y="81" width="27" height="27" fill="#FF6600" /><rect x="594" y="81" width="27" height="27" fill="#FF6600" /><rect x="621" y="81" width="27" height="27" fill="#FF6600" /><rect x="648" y="81" width="27" height="27" fill="#FF6600" /><rect x="675" y="81" width="27" height="27" fill="#FF6600" /><rect x="702" y="81" width="27" height="27" fill="#FF6600" /><rect x="729" y="81" width="27" height="27" fill="#FF6600" /><rect x="756" y="81" width="27" height="27" fill="#FF6600" /><rect x="0" y="108" width="27" height="27" fill="#FF6600" /><rect x="27" y="108" width="27" height="27" fill="#FF6600" /><rect x="54" y="108" width="27" height="27" fill="#FF6600" /><rect x="81" y="108" width="27" height="27" fill="#FF6600" /><rect x="108" y="108" width="27" height="27" fill="#FF6600" /><rect x="135" y="108" width="27" height="27" fill="#FF6600" /><rect x="162" y="108" width="27" height="27" fill="#FF6600" /><rect x="189" y="108" width="27" height="27" fill="#FF6600" /><rect x="216" y="108" width="27" height="27" fill="#FF6600" /><rect x="243" y="108" width="27" height="27" fill="#FF6600" /><rect x="270" y="108" width="27" height="27" fill="#FF6600" /><rect x="297" y="108" width="27" height="27" fill="#FF6600" /><rect x="324" y="108" width="27" height="27" fill="#FF6600" /><rect x="351" y="108" width="27" height="27" fill="#FF6600" /><rect x="378" y="108" width="27" height="27" fill="#FF6600" /><rect x="405" y="108" width="27" height="27" fill="#FF6600" /><rect x="432" y="108" width="27" height="27" fill="#FF6600" /><rect x="459" y="108" width="27" height="27" fill="#FF6600" /><rect x="486" y="108" width="27" height="27" fill="#FF6600" /><rect x="513" y="108" width="27" height="27" fill="#FF6600" /><rect x="540" y="108" width="27" height="27" fill="#FF6600" /><rect x="567" y="108" width="27" height="27" fill="#FF6600" /><rect x="594" y="108" width="27" height="27" fill="#FF6600" /><rect x="621" y="108" width="27" height="27" fill="#FF6600" /><rect x="648" y="108" width="27" height="27" fill="#FF6600" /><rect x="675" y="108" width="27" height="27" fill="#FF6600" /><rect x="702" y="108" width="27" height="27" fill="#FF6600" /><rect x="729" y="108" width="27" height="27" fill="#FF6600" /><rect x="756" y="108" width="27" height="27" fill="#FF6600" /><rect x="0" y="135" width="27" height="27" fill="#FF6600" /><rect x="27" y="135" width="27" height="27" fill="#FF6600" /><rect x="54" y="135" width="27" height="27" fill="#FF6600" /><rect x="81" y="135" width="27" height="27" fill="#FF6600" /><rect x="108" y="135" width="27" height="27" fill="#FF6600" /><rect x="135" y="135" width="27" height="27" fill="#FF6600" /><rect x="162" y="135" width="27" height="27" fill="#FF6600" /><rect x="189" y="135" width="27" height="27" fill="#FF6600" /><rect x="216" y="135" width="27" height="27" fill="#FF6600" /><rect x="243" y="135" width="27" height="27" fill="#FF6600" /><rect x="270" y="135" width="27" height="27" fill="#FF6600" /><rect x="297" y="135" width="27" height="27" fill="#FF6600" /><rect x="324" y="135" width="27" height="27" fill="#FF6600" /><rect x="351" y="135" width="27" height="27" fill="#FF6600" /><rect x="378" y="135" width="27" height="27" fill="#FF6600" /><rect x="405" y="135" width="27" height="27" fill="#FF6600" /><rect x="432" y="135" width="27" height="27" fill="#FF6600" /><rect x="459" y="135" width="27" height="27" fill="#FF6600" /><rect x="486" y="135" width="27" height="27" fill="#FF6600" /><rect x="513" y="135" width="27" height="27" fill="#FF6600" /><rect x="540" y="135" width="27" height="27" fill="#FF6600" /><rect x="567" y="135" width="27" height="27" fill="#FF6600" /><rect x="594" y="135" width="27" height="27" fill="#FF6600" /><rect x="621" y="135" width="27" height="27" fill="#FF6600" /><rect x="648" y="135" width="27" height="27" fill="#FF6600" /><rect x="675" y="135" width="27" height="27" fill="#FF6600" /><rect x="702" y="135" width="27" height="27" fill="#FF6600" /><rect x="729" y="135" width="27" height="27" fill="#FF6600" /><rect x="756" y="135" width="27" height="27" fill="#FF6600" /><rect x="0" y="162" width="27" height="27" fill="#FF6600" /><rect x="27" y="162" width="27" height="27" fill="#FF6600" /><rect x="54" y="162" width="27" height="27" fill="#FF6600" /><rect x="81" y="162" width="27" height="27" fill="#FF6600" /><rect x="108" y="162" width="27" height="27" fill="#FF6600" /><rect x="135" y="162" width="27" height="27" fill="#FF6600" /><rect x="162" y="162" width="27" height="27" fill="#FF6600" /><rect x="189" y="162" width="27" height="27" fill="#FF6600" /><rect x="216" y="162" width="27" height="27" fill="#FF6600" /><rect x="243" y="162" width="27" height="27" fill="#FF6600" /><rect x="270" y="162" width="27" height="27" fill="#FF6600" /><rect x="297" y="162" width="27" height="27" fill="#FF6600" /><rect x="324" y="162" width="27" height="27" fill="#FF6600" /><rect x="351" y="162" width="27" height="27" fill="#FF6600" /><rect x="378" y="162" width="27" height="27" fill="#FF6600" /><rect x="405" y="162" width="27" height="27" fill="#FF6600" /><rect x="432" y="162" width="27" height="27" fill="#FF6600" /><rect x="459" y="162" width="27" height="27" fill="#FF6600" /><rect x="486" y="162" width="27" height="27" fill="#FF6600" /><rect x="513" y="162" width="27" height="27" fill="#FF6600" /><rect x="540" y="162" width="27" height="27" fill="#FF6600" /><rect x="567" y="162" width="27" height="27" fill="#FF6600" /><rect x="594" y="162" width="27" height="27" fill="#FF6600" /><rect x="621" y="162" width="27" height="27" fill="none" /><rect x="648" y="162" width="27" height="27" fill="#6666CC" /><rect x="675" y="162" width="27" height="27" fill="#6666CC" /><rect x="702" y="162" width="27" height="27" fill="#6666CC" /><rect x="729" y="162" width="27" height="27" fill="#6666CC" /><rect x="756" y="162" width="27" height="27" fill="#6666CC" /><rect x="0" y="189" width="27" height="27" fill="#6666CC" /><rect x="27" y="189" width="27" height="27" fill="#6666CC" /><rect x="54" y="189" width="27" height="27" fill="#6666CC" /><rect x="81" y="189" width="27" height="27" fill="#6666CC" /><rect x="108" y="189" width="27" height="27" fill="#6666CC" /><rect x="135" y="189" width="27" height="27" fill="#FFFF99" /><rect x="162" y="189" width="27" height="27" fill="#FFFF99" /><rect x="189" y="189" width="27" height="27" fill="#FFFF99" /><rect x="216" y="189" width="27" height="27" fill="#FFFF99" /><rect x="243" y="189" width="27" height="27" fill="#FFFF99" /><rect x="270" y="189" width="27" height="27" fill="#FFFF99" /><rect x="297" y="189" width="27" height="27" fill="#FFFF99" /><rect x="324" y="189" width="27" height="27" fill="#FFFF99" /><rect x="351" y="189" width="27" height="27" fill="#FFFF99" /><rect x="378" y="189" width="27" height="27" fill="#FFFF99" /><rect x="405" y="189" width="27" height="27" fill="#FFFF99" /><rect x="432" y="189" width="27" height="27" fill="#FFFF99" /><rect x="459" y="189" width="27" height="27" fill="#FFFF99" /><rect x="486" y="189" width="27" height="27" fill="#FFFF99" /><rect x="513" y="189" width="27" height="27" fill="#FFFF99" /><rect x="540" y="189" width="27" height="27" fill="#FFFF99" /><rect x="567" y="189" width="27" height="27" fill="#FFFF99" /><rect x="594" y="189" width="27" height="27" fill="#FFFF99" /><rect x="621" y="189" width="27" height="27" fill="#FFFF99" /><rect x="648" y="189" width="27" height="27" fill="#FFFF99" /><rect x="675" y="189" width="27" height="27" fill="#FFFF99" /><rect x="702" y="189" width="27" height="27" fill="#FFFF99" /><rect x="729" y="189" width="27" height="27" fill="#FFFF99" /><rect x="756" y="189" width="27" height="27" fill="#FFFF99" /><rect x="0" y="216" width="27" height="27" fill="#FFFF99" /><rect x="27" y="216" width="27" height="27" fill="#FFFF99" /><rect x="54" y="216" width="27" height="27" fill="#FFFF99" /><rect x="81" y="216" width="27" height="27" fill="#FFFF99" /><rect x="108" y="216" width="27" height="27" fill="#FFFF99" /><rect x="135" y="216" width="27" height="27" fill="#FFFF99" /><rect x="162" y="216" width="27" height="27" fill="#FFFF99" /><rect x="189" y="216" width="27" height="27" fill="#FFFF99" /><rect x="216" y="216" width="27" height="27" fill="#FFFF99" /><rect x="243" y="216" width="27" height="27" fill="#FFFF99" /><rect x="270" y="216" width="27" height="27" fill="#FFFF99" /><rect x="297" y="216" width="27" height="27" fill="#FFFF99" /><rect x="324" y="216" width="27" height="27" fill="#FFFF99" /><rect x="351" y="216" width="27" height="27" fill="#FFFF99" /><rect x="378" y="216" width="27" height="27" fill="#FFFF99" /><rect x="405" y="216" width="27" height="27" fill="#FFFF99" /><rect x="432" y="216" width="27" height="27" fill="#FFFF99" /><rect x="459" y="216" width="27" height="27" fill="#FFFF99" /><rect x="486" y="216" width="27" height="27" fill="#FFFF99" /><rect x="513" y="216" width="27" height="27" fill="#FFFF99" /><rect x="540" y="216" width="27" height="27" fill="#FFFF99" /><rect x="567" y="216" width="27" height="27" fill="#FFFF99" /><rect x="594" y="216" width="27" height="27" fill="#FFFF99" /><rect x="621" y="216" width="27" height="27" fill="#FFFF99" /><rect x="648" y="216" width="27" height="27" fill="#FFFF99" /><rect x="675" y="216" width="27" height="27" fill="#FFFF99" /><rect x="702" y="216" width="27" height="27" fill="#FFFF99" /><rect x="729" y="216" width="27" height="27" fill="#FFFF99" /><rect x="756" y="216" width="27" height="27" fill="#FFFF99" /><rect x="0" y="243" width="27" height="27" fill="#FFFF99" /><rect x="27" y="243" width="27" height="27" fill="#FFFF99" /><rect x="54" y="243" width="27" height="27" fill="#FFFF99" /><rect x="81" y="243" width="27" height="27" fill="#FFFF99" /><rect x="108" y="243" width="27" height="27" fill="#FFFF99" /><rect x="135" y="243" width="27" height="27" fill="#FFFF99" /><rect x="162" y="243" width="27" height="27" fill="#FFFF99" /><rect x="189" y="243" width="27" height="27" fill="#FFFF99" /><rect x="216" y="243" width="27" height="27" fill="#FFFF99" /><rect x="243" y="243" width="27" height="27" fill="#FFFF99" /><rect x="270" y="243" width="27" height="27" fill="#FFFF99" /><rect x="297" y="243" width="27" height="27" fill="#FFFF99" /><rect x="324" y="243" width="27" height="27" fill="#FFFF99" /><rect x="351" y="243" width="27" height="27" fill="#FFFF99" /><rect x="378" y="243" width="27" height="27" fill="#FFFF99" /><rect x="405" y="243" width="27" height="27" fill="#FFFF99" /><rect x="432" y="243" width="27" height="27" fill="#FFFF99" /><rect x="459" y="243" width="27" height="27" fill="#FFFF99" /><rect x="486" y="243" width="27" height="27" fill="#FFFF99" /><rect x="513" y="243" width="27" height="27" fill="#FFFF99" /><rect x="540" y="243" width="27" height="27" fill="#FFFF99" /><rect x="567" y="243" width="27" height="27" fill="#FFFF99" /><rect x="594" y="243" width="27" height="27" fill="#FFFF99" /><rect x="621" y="243" width="27" height="27" fill="#FFFF99" /><rect x="648" y="243" width="27" height="27" fill="#FFFF99" /><rect x="675" y="243" width="27" height="27" fill="#FFFF99" /><rect x="702" y="243" width="27" height="27" fill="#FFFF99" /><rect x="729" y="243" width="27" height="27" fill="#FFFF99" /><rect x="756" y="243" width="27" height="27" fill="#FFFF99" /><rect x="0" y="270" width="27" height="27" fill="#FFFF99" /><rect x="27" y="270" width="27" height="27" fill="#FFFF99" /><rect x="54" y="270" width="27" height="27" fill="#FFFF99" /><rect x="81" y="270" width="27" height="27" fill="#FFFF99" /><rect x="108" y="270" width="27" height="27" fill="#FFFF99" /><rect x="135" y="270" width="27" height="27" fill="#FFFF99" /><rect x="162" y="270" width="27" height="27" fill="#FFFF99" /><rect x="189" y="270" width="27" height="27" fill="#FFFF99" /><rect x="216" y="270" width="27" height="27" fill="#FFFF99" /><rect x="243" y="270" width="27" height="27" fill="#FFFF99" /><rect x="270" y="270" width="27" height="27" fill="#FFFF99" /><rect x="297" y="270" width="27" height="27" fill="#FFFF99" /><rect x="324" y="270" width="27" height="27" fill="#FFFF99" /><rect x="351" y="270" width="27" height="27" fill="#FFFF99" /><rect x="378" y="270" width="27" height="27" fill="#FFFF99" /><rect x="405" y="270" width="27" height="27" fill="#FFFF99" /><rect x="432" y="270" width="27" height="27" fill="#FFFF99" /><rect x="459" y="270" width="27" height="27" fill="#FFFF99" /><rect x="486" y="270" width="27" height="27" fill="#FFFF99" /><rect x="513" y="270" width="27" height="27" fill="#FFFF99" /><rect x="540" y="270" width="27" height="27" fill="#FFFF99" /><rect x="567" y="270" width="27" height="27" fill="#FFFF99" /><rect x="594" y="270" width="27" height="27" fill="#FFFF99" /><rect x="621" y="270" width="27" height="27" fill="#FFFF99" /><rect x="648" y="270" width="27" height="27" fill="#FFFF99" /><rect x="675" y="270" width="27" height="27" fill="#FFFF99" /><rect x="702" y="270" width="27" height="27" fill="#FFFF99" /><rect x="729" y="270" width="27" height="27" fill="#FFFF99" /><rect x="756" y="270" width="27" height="27" fill="#FFFF99" /><rect x="0" y="297" width="27" height="27" fill="#FFFF99" /><rect x="27" y="297" width="27" height="27" fill="#FFFF99" /><rect x="54" y="297" width="27" height="27" fill="#FFFF99" /><rect x="81" y="297" width="27" height="27" fill="#FFFF99" /><rect x="108" y="297" width="27" height="27" fill="#FFFF99" /><rect x="135" y="297" width="27" height="27" fill="#FFFF99" /><rect x="162" y="297" width="27" height="27" fill="#FFFF99" /><rect x="189" y="297" width="27" height="27" fill="#FFFF99" /><rect x="216" y="297" width="27" height="27" fill="#FFFF99" /><rect x="243" y="297" width="27" height="27" fill="#FFFF99" /><rect x="270" y="297" width="27" height="27" fill="#FFFF99" /><rect x="297" y="297" width="27" height="27" fill="#FFFF99" /><rect x="324" y="297" width="27" height="27" fill="#FFFF99" /><rect x="351" y="297" width="27" height="27" fill="#FFFF99" /><rect x="378" y="297" width="27" height="27" fill="#FFFF99" /><rect x="405" y="297" width="27" height="27" fill="#FFFF99" /><rect x="432" y="297" width="27" height="27" fill="#FFFF99" /><rect x="459" y="297" width="27" height="27" fill="#FFFF99" /><rect x="486" y="297" width="27" height="27" fill="#FFFF99" /><rect x="513" y="297" width="27" height="27" fill="#FFFF99" /><rect x="540" y="297" width="27" height="27" fill="#FFFF99" /><rect x="567" y="297" width="27" height="27" fill="#FFFF99" /><rect x="594" y="297" width="27" height="27" fill="#FFFF99" /><rect x="621" y="297" width="27" height="27" fill="#FFFF99" /><rect x="648" y="297" width="27" height="27" fill="#FFFF99" /><rect x="675" y="297" width="27" height="27" fill="#FFFF99" /><rect x="702" y="297" width="27" height="27" fill="#FFFF99" /><rect x="729" y="297" width="27" height="27" fill="#FFFF99" /><rect x="756" y="297" width="27" height="27" fill="#FFFF99" /><rect x="0" y="324" width="27" height="27" fill="#FFFF99" /><rect x="27" y="324" width="27" height="27" fill="#FFFF99" /><rect x="54" y="324" width="27" height="27" fill="#FFFF99" /><rect x="81" y="324" width="27" height="27" fill="#FFFF99" /><rect x="108" y="324" width="27" height="27" fill="#FFFF99" /><rect x="135" y="324" width="27" height="27" fill="#FFFF99" /><rect x="162" y="324" width="27" height="27" fill="#FFFF99" /><rect x="189" y="324" width="27" height="27" fill="#FFFF99" /><rect x="216" y="324" width="27" height="27" fill="#FFFF99" /><rect x="243" y="324" width="27" height="27" fill="#FFFF99" /><rect x="270" y="324" width="27" height="27" fill="#FFFF99" /><rect x="297" y="324" width="27" height="27" fill="#FFFF99" /><rect x="324" y="324" width="27" height="27" fill="#FFFF99" /><rect x="351" y="324" width="27" height="27" fill="#FFFF99" /><rect x="378" y="324" width="27" height="27" fill="#FFFF99" /><rect x="405" y="324" width="27" height="27" fill="#FFFF99" /><rect x="432" y="324" width="27" height="27" fill="#FFFF99" /><rect x="459" y="324" width="27" height="27" fill="#FFFF99" /><rect x="486" y="324" width="27" height="27" fill="#FFFF99" /><rect x="513" y="324" width="27" height="27" fill="#FFFF99" /><rect x="540" y="324" width="27" height="27" fill="#FFFF99" /><rect x="567" y="324" width="27" height="27" fill="#FFFF99" /><rect x="594" y="324" width="27" height="27" fill="#FFFF99" /><rect x="621" y="324" width="27" height="27" fill="#FFFF99" /><rect x="648" y="324" width="27" height="27" fill="#FFFF99" /><rect x="675" y="324" width="27" height="27" fill="#FFFF99" /><rect x="702" y="324" width="27" height="27" fill="#FFFF99" /><rect x="729" y="324" width="27" height="27" fill="#FFFF99" /><rect x="756" y="324" width="27" height="27" fill="#FFFF99" /><rect x="0" y="351" width="27" height="27" fill="#FFFF99" /><rect x="27" y="351" width="27" height="27" fill="#FFFF99" /><rect x="54" y="351" width="27" height="27" fill="#FFFF99" /><rect x="81" y="351" width="27" height="27" fill="#FFFF99" /><rect x="108" y="351" width="27" height="27" fill="#FFFF99" /><rect x="135" y="351" width="27" height="27" fill="#FFFF99" /><rect x="162" y="351" width="27" height="27" fill="#FFFF99" /><rect x="189" y="351" width="27" height="27" fill="#FFFF99" /><rect x="216" y="351" width="27" height="27" fill="#FFFF99" /><rect x="243" y="351" width="27" height="27" fill="#FFFF99" /><rect x="270" y="351" width="27" height="27" fill="#FFFF99" /><rect x="297" y="351" width="27" height="27" fill="#FFFF99" /><rect x="324" y="351" width="27" height="27" fill="#FFFF99" /><rect x="351" y="351" width="27" height="27" fill="#FFFF99" /><rect x="378" y="351" width="27" height="27" fill="#FFFF99" /><rect x="405" y="351" width="27" height="27" fill="#FFFF99" /><rect x="432" y="351" width="27" height="27" fill="#FFFF99" /><rect x="459" y="351" width="27" height="27" fill="#FFFF99" /><rect x="486" y="351" width="27" height="27" fill="#FFFF99" /><rect x="513" y="351" width="27" height="27" fill="#FFFF99" /><rect x="540" y="351" width="27" height="27" fill="#FFFF99" /><rect x="567" y="351" width="27" height="27" fill="#FFFF99" /><rect x="594" y="351" width="27" height="27" fill="#FFFF99" /><rect x="621" y="351" width="27" height="27" fill="#FFFF99" /><rect x="648" y="351" width="27" height="27" fill="none" /><rect x="675" y="351" width="27" height="27" fill="#66FF66" /><rect x="702" y="351" width="27" height="27" fill="#66FF66" /><rect x="729" y="351" width="27" height="27" fill="#66FF66" /><rect x="756" y="351" width="27" height="27" fill="#66FF66" /><rect x="0" y="378" width="27" height="27" fill="#66FF66" /><rect x="27" y="378" width="27" height="27" fill="none" /><rect x="54" y="378" width="27" height="27" fill="#FF6600" /><rect x="81" y="378" width="27" height="27" fill="#FF6600" /><rect x="108" y="378" width="27" height="27" fill="#FF6600" /><rect x="135" y="378" width="27" height="27" fill="#FF6600" /><rect x="162" y="378" width="27" height="27" fill="#FF6600" /><rect x="189" y="378" width="27" height="27" fill="#FF6600" /><rect x="216" y="378" width="27" height="27" fill="#6666CC" /><rect x="243" y="378" width="27" height="27" fill="#6666CC" /><rect x="270" y="378" width="27" height="27" fill="#6666CC" /><rect x="297" y="378" width="27" height="27" fill="#6666CC" /><rect x="324" y="378" width="27" height="27" fill="#6666CC" /><rect x="351" y="378" width="27" height="27" fill="#6666CC" /><rect x="378" y="378" width="27" height="27" fill="#6666CC" /><rect x="405" y="378" width="27" height="27" fill="#6666CC" /><rect x="432" y="378" width="27" height="27" fill="#6666CC" /><rect x="459" y="378" width="27" height="27" fill="none" /><rect x="486" y="378" width="27" height="27" fill="none" /><rect x="513" y="378" width="27" height="27" fill="none" /><rect x="540" y="378" width="27" height="27" fill="none" /><rect x="567" y="378" width="27" height="27" fill="none" /><rect x="594" y="378" width="27" height="27" fill="none" /><rect x="621" y="378" width="27" height="27" fill="none" /><rect x="648" y="378" width="27" height="27" fill="none" /><rect x="675" y="378" width="27" height="27" fill="none" /><rect x="702" y="378" width="27" height="27" fill="none" /><rect x="729" y="378" width="27" height="27" fill="none" /><rect x="756" y="378" width="27" height="27" fill="none" /><rect x="0" y="405" width="27" height="27" fill="none" /><rect x="27" y="405" width="27" height="27" fill="none" /><rect x="54" y="405" width="27" height="27" fill="none" /><rect x="81" y="405" width="27" height="27" fill="none" /><rect x="108" y="405" width="27" height="27" fill="none" /><rect x="135" y="405" width="27" height="27" fill="none" /><rect x="162" y="405" width="27" height="27" fill="none" /><rect x="189" y="405" width="27" height="27" fill="none" /><rect x="216" y="405" width="27" height="27" fill="none" /><rect x="243" y="405" width="27" height="27" fill="none" /><rect x="270" y="405" width="27" height="27" fill="none" /><rect x="297" y="405" width="27" height="27" fill="none" /><rect x="324" y="405" width="27" height="27" fill="none" /><rect x="351" y="405" width="27" height="27" fill="none" /><rect x="378" y="405" width="27" height="27" fill="none" /><rect x="405" y="405" width="27" height="27" fill="none" /><rect x="432" y="405" width="27" height="27" fill="none" /><rect x="459" y="405" width="27" height="27" fill="none" /><rect x="486" y="405" width="27" height="27" fill="none" /><rect x="513" y="405" width="27" height="27" fill="none" /><rect x="540" y="405" width="27" height="27" fill="none" /><rect x="567" y="405" width="27" height="27" fill="none" /><rect x="594" y="405" width="27" height="27" fill="none" /><rect x="621" y="405" width="27" height="27" fill="none" /><rect x="648" y="405" width="27" height="27" fill="none" /><rect x="675" y="405" width="27" height="27" fill="none" /><rect x="702" y="405" width="27" height="27" fill="none" /><rect x="729" y="405" width="27" height="27" fill="none" /><rect x="756" y="405" width="27" height="27" fill="none" /><rect x="0" y="432" width="27" height="27" fill="none" /><rect x="27" y="432" width="27" height="27" fill="none" /><rect x="54" y="432" width="27" height="27" fill="none" /><rect x="81" y="432" width="27" height="27" fill="none" /><rect x="108" y="432" width="27" height="27" fill="none" /><rect x="135" y="432" width="27" height="27" fill="none" /><rect x="162" y="432" width="27" height="27" fill="none" /><rect x="189" y="432" width="27" height="27" fill="none" /><rect x="216" y="432" width="27" height="27" fill="none" /><rect x="243" y="432" width="27" height="27" fill="none" /><rect x="270" y="432" width="27" height="27" fill="none" /><rect x="297" y="432" width="27" height="27" fill="none" /><rect x="324" y="432" width="27" height="27" fill="none" /><rect x="351" y="432" width="27" height="27" fill="none" /><rect x="378" y="432" width="27" height="27" fill="none" /><rect x="405" y="432" width="27" height="27" fill="none" /><rect x="432" y="432" width="27" height="27" fill="none" /><rect x="459" y="432" width="27" height="27" fill="none" /><rect x="486" y="432" width="27" height="27" fill="none" /><rect x="513" y="432" width="27" height="27" fill="none" /><rect x="540" y="432" width="27" height="27" fill="none" /><rect x="567" y="432" width="27" height="27" fill="none" /><rect x="594" y="432" width="27" height="27" fill="none" /><rect x="621" y="432" width="27" height="27" fill="none" /><rect x="648" y="432" width="27" height="27" fill="none" /><rect x="675" y="432" width="27" height="27" fill="none" /><rect x="702" y="432" width="27" height="27" fill="none" /><rect x="729" y="432" width="27" height="27" fill="none" /><rect x="756" y="432" width="27" height="27" fill="none" /><rect x="0" y="459" width="27" height="27" fill="none" /><rect x="27" y="459" width="27" height="27" fill="none" /><rect x="54" y="459" width="27" height="27" fill="none" /><rect x="81" y="459" width="27" height="27" fill="none" /><rect x="108" y="459" width="27" height="27" fill="none" /><rect x="135" y="459" width="27" height="27" fill="none" /><rect x="162" y="459" width="27" height="27" fill="none" /><rect x="189" y="459" width="27" height="27" fill="none" /><rect x="216" y="459" width="27" height="27" fill="none" /><rect x="243" y="459" width="27" height="27" fill="none" /><rect x="270" y="459" width="27" height="27" fill="none" /><rect x="297" y="459" width="27" height="27" fill="none" /><rect x="324" y="459" width="27" height="27" fill="none" /><rect x="351" y="459" width="27" height="27" fill="none" /><rect x="378" y="459" width="27" height="27" fill="none" /><rect x="405" y="459" width="27" height="27" fill="none" /><rect x="432" y="459" width="27" height="27" fill="none" /><rect x="459" y="459" width="27" height="27" fill="none" /><rect x="486" y="459" width="27" height="27" fill="none" /><rect x="513" y="459" width="27" height="27" fill="none" /><rect x="540" y="459" width="27" height="27" fill="none" /><rect x="567" y="459" width="27" height="27" fill="none" /><rect x="594" y="459" width="27" height="27" fill="none" /><rect x="621" y="459" width="27" height="27" fill="none" /><rect x="648" y="459" width="27" height="27" fill="none" /><rect x="675" y="459" width="27" height="27" fill="none" /><rect x="702" y="459" width="27" height="27" fill="none" /><rect x="729" y="459" width="27" height="27" fill="#FFFF99" /><rect x="756" y="459" width="27" height="27" fill="#FFFF99" /><rect x="0" y="486" width="27" height="27" fill="#FFFF99" /><rect x="27" y="486" width="27" height="27" fill="#FFFF99" /><rect x="54" y="486" width="27" height="27" fill="#FFFF99" /><rect x="81" y="486" width="27" height="27" fill="#FFFF99" /><rect x="108" y="486" width="27" height="27" fill="#FFFF99" /><rect x="135" y="486" width="27" height="27" fill="#FFFF99" /><rect x="162" y="486" width="27" height="27" fill="#FFFF99" /><rect x="189" y="486" width="27" height="27" fill="#FFFF99" /><rect x="216" y="486" width="27" height="27" fill="#FFFF99" /><rect x="243" y="486" width="27" height="27" fill="#FFFF99" /><rect x="270" y="486" width="27" height="27" fill="#FFFF99" /><rect x="297" y="486" width="27" height="27" fill="#FFFF99" /><rect x="324" y="486" width="27" height="27" fill="#FFFF99" /><rect x="351" y="486" width="27" height="27" fill="#FFFF99" /><rect x="378" y="486" width="27" height="27" fill="#FFFF99" /><rect x="405" y="486" width="27" height="27" fill="#FFFF99" /><rect x="432" y="486" width="27" height="27" fill="#FFFF99" /><rect x="459" y="486" width="27" height="27" fill="#FFFF99" /><rect x="486" y="486" width="27" height="27" fill="#FFFF99" /><rect x="513" y="486" width="27" height="27" fill="#FFFF99" /><rect x="540" y="486" width="27" height="27" fill="#FFFF99" /><rect x="567" y="486" width="27" height="27" fill="#FFFF99" /><rect x="594" y="486" width="27" height="27" fill="#FFFF99" /><rect x="621" y="486" width="27" height="27" fill="#FFFF99" /><rect x="648" y="486" width="27" height="27" fill="#FFFF99" /><rect x="675" y="486" width="27" height="27" fill="#FFFF99" /><rect x="702" y="486" width="27" height="27" fill="#FFFF99" /><rect x="729" y="486" width="27" height="27" fill="#FFFF99" /><rect x="756" y="486" width="27" height="27" fill="#FFFF99" /><rect x="0" y="513" width="27" height="27" fill="#FFFF99" /><rect x="27" y="513" width="27" height="27" fill="#FFFF99" /><rect x="54" y="513" width="27" height="27" fill="#FFFF99" /><rect x="81" y="513" width="27" height="27" fill="#FFFF99" /><rect x="108" y="513" width="27" height="27" fill="#FFFF99" /><rect x="135" y="513" width="27" height="27" fill="#FFFF99" /><rect x="162" y="513" width="27" height="27" fill="#FFFF99" /><rect x="189" y="513" width="27" height="27" fill="#FFFF99" /><rect x="216" y="513" width="27" height="27" fill="#FFFF99" /><rect x="243" y="513" width="27" height="27" fill="#FFFF99" /><rect x="270" y="513" width="27" height="27" fill="#FFFF99" /><rect x="297" y="513" width="27" height="27" fill="#FFFF99" /><rect x="324" y="513" width="27" height="27" fill="#FFFF99" /><rect x="351" y="513" width="27" height="27" fill="#FFFF99" /><rect x="378" y="513" width="27" height="27" fill="#FFFF99" /><rect x="405" y="513" width="27" height="27" fill="#FFFF99" /><rect x="432" y="513" width="27" height="27" fill="#FFFF99" /><rect x="459" y="513" width="27" height="27" fill="#FFFF99" /><rect x="486" y="513" width="27" height="27" fill="#FFFF99" /><rect x="513" y="513" width="27" height="27" fill="#FFFF99" /><rect x="540" y="513" width="27" height="27" fill="#FFFF99" /><rect x="567" y="513" width="27" height="27" fill="#FFFF99" /><rect x="594" y="513" width="27" height="27" fill="#FFFF99" /><rect x="621" y="513" width="27" height="27" fill="#FFFF99" /><rect x="648" y="513" width="27" height="27" fill="#FFFF99" /><rect x="675" y="513" width="27" height="27" fill="#FFFF99" /><rect x="702" y="513" width="27" height="27" fill="#FFFF99" /><rect x="729" y="513" width="27" height="27" fill="#FFFF99" /><rect x="756" y="513" width="27" height="27" fill="#FFFF99" /><rect x="0" y="540" width="27" height="27" fill="#FFFF99" /><rect x="27" y="540" width="27" height="27" fill="#FFFF99" /><rect x="54" y="540" width="27" height="27" fill="#FFFF99" /><rect x="81" y="540" width="27" height="27" fill="#FFFF99" /><rect x="108" y="540" width="27" height="27" fill="#FFFF99" /><rect x="135" y="540" width="27" height="27" fill="#FFFF99" /><rect x="162" y="540" width="27" height="27" fill="#FFFF99" /><rect x="189" y="540" width="27" height="27" fill="#FFFF99" /><rect x="216" y="540" width="27" height="27" fill="#FFFF99" /><rect x="243" y="540" width="27" height="27" fill="#FFFF99" /><rect x="270" y="540" width="27" height="27" fill="#FFFF99" /><rect x="297" y="540" width="27" height="27" fill="#FFFF99" /><rect x="324" y="540" width="27" height="27" fill="#FFFF99" /><rect x="351" y="540" width="27" height="27" fill="#FFFF99" /><rect x="378" y="540" width="27" height="27" fill="#66FF66" /><rect x="405" y="540" width="27" height="27" fill="#66FF66" /><rect x="432" y="540" width="27" height="27" fill="#66FF66" /><rect x="459" y="540" width="27" height="27" fill="none" /><rect x="486" y="540" width="27" height="27" fill="#FF6600" /><rect x="513" y="540" width="27" height="27" fill="#FF6600" /><rect x="540" y="540" width="27" height="27" fill="#FF6600" /><rect x="567" y="540" width="27" height="27" fill="#FF6600" /><rect x="594" y="540" width="27" height="27" fill="#FF6600" /><rect x="621" y="540" width="27" height="27" fill="#FF6600" /><rect x="648" y="540" width="27" height="27" fill="#FF6600" /><rect x="675" y="540" width="27" height="27" fill="#FF6600" /><rect x="702" y="540" width="27" height="27" fill="#FF6600" /><rect x="729" y="540" width="27" height="27" fill="#FF6600" /><rect x="756" y="540" width="27" height="27" fill="#FF6600" /><rect x="0" y="567" width="27" height="27" fill="#FF6600" /><rect x="27" y="567" width="27" height="27" fill="#FF6600" /><rect x="54" y="567" width="27" height="27" fill="#FF6600" /><rect x="81" y="567" width="27" height="27" fill="#FF6600" /><rect x="108" y="567" width="27" height="27" fill="#FF6600" /><rect x="135" y="567" width="27" height="27" fill="#FF6600" /><rect x="162" y="567" width="27" height="27" fill="#FF6600" /><rect x="189" y="567" width="27" height="27" fill="#FF6600" /><rect x="216" y="567" width="27" height="27" fill="#FF6600" /><rect x="243" y="567" width="27" height="27" fill="#FF6600" /><rect x="270" y="567" width="27" height="27" fill="#FF6600" /><rect x="297" y="567" width="27" height="27" fill="#FF6600" /><rect x="324" y="567" width="27" height="27" fill="#FF6600" /><rect x="351" y="567" width="27" height="27" fill="#FF6600" /><rect x="378" y="567" width="27" height="27" fill="#FF6600" /><rect x="405" y="567" width="27" height="27" fill="#FF6600" /><rect x="432" y="567" width="27" height="27" fill="#FF6600" /><rect x="459" y="567" width="27" height="27" fill="#FF6600" /><rect x="486" y="567" width="27" height="27" fill="#FF6600" /><rect x="513" y="567" width="27" height="27" fill="#FF6600" /><rect x="540" y="567" width="27" height="27" fill="#FF6600" /><rect x="567" y="567" width="27" height="27" fill="#6666CC" /><rect x="594" y="567" width="27" height="27" fill="#6666CC" /><rect x="621" y="567" width="27" height="27" fill="#6666CC" /><rect x="648" y="567" width="27" height="27" fill="none" /><rect x="675" y="567" width="27" height="27" fill="none" /><rect x="702" y="567" width="27" height="27" fill="none" /><rect x="729" y="567" width="27" height="27" fill="none" /><rect x="756" y="567" width="27" height="27" fill="none" /><rect x="0" y="594" width="27" height="27" fill="none" /><rect x="27" y="594" width="27" height="27" fill="none" /><rect x="54" y="594" width="27" height="27" fill="none" /><rect x="81" y="594" width="27" height="27" fill="none" /><rect x="108" y="594" width="27" height="27" fill="none" /><rect x="135" y="594" width="27" height="27" fill="none" /><rect x="162" y="594" width="27" height="27" fill="none" /><rect x="189" y="594" width="27" height="27" fill="none" /><rect x="216" y="594" width="27" height="27" fill="none" /><rect x="243" y="594" width="27" height="27" fill="none" /><rect x="270" y="594" width="27" height="27" fill="none" /><rect x="297" y="594" width="27" height="27" fill="none" /><rect x="324" y="594" width="27" height="27" fill="none" /><rect x="351" y="594" width="27" height="27" fill="none" /><rect x="378" y="594" width="27" height="27" fill="none" /><rect x="405" y="594" width="27" height="27" fill="none" /><rect x="432" y="594" width="27" height="27" fill="none" /><rect x="459" y="594" width="27" height="27" fill="none" /><rect x="486" y="594" width="27" height="27" fill="none" /><rect x="513" y="594" width="27" height="27" fill="none" /><rect x="540" y="594" width="27" height="27" fill="none" /><rect x="567" y="594" width="27" height="27" fill="none" /><rect x="594" y="594" width="27" height="27" fill="none" /><rect x="621" y="594" width="27" height="27" fill="none" /><rect x="648" y="594" width="27" height="27" fill="none" /><rect x="675" y="594" width="27" height="27" fill="none" /><rect x="702" y="594" width="27" height="27" fill="none" /><rect x="729" y="594" width="27" height="27" fill="none" /><rect x="756" y="594" width="27" height="27" fill="none" /><rect x="0" y="621" width="27" height="27" fill="none" /><rect x="27" y="621" width="27" height="27" fill="none" /><rect x="54" y="621" width="27" height="27" fill="none" /><rect x="81" y="621" width="27" height="27" fill="none" /><rect x="108" y="621" width="27" height="27" fill="none" /><rect x="135" y="621" width="27" height="27" fill="none" /><rect x="162" y="621" width="27" height="27" fill="none" /><rect x="189" y="621" width="27" height="27" fill="none" /><rect x="216" y="621" width="27" height="27" fill="none" /><rect x="243" y="621" width="27" height="27" fill="none" /><rect x="270" y="621" width="27" height="27" fill="none" /><rect x="297" y="621" width="27" height="27" fill="none" /><rect x="324" y="621" width="27" height="27" fill="none" /><rect x="351" y="621" width="27" height="27" fill="none" /><rect x="378" y="621" width="27" height="27" fill="none" /><rect x="405" y="621" width="27" height="27" fill="none" /><rect x="432" y="621" width="27" height="27" fill="none" /><rect x="459" y="621" width="27" height="27" fill="none" /><rect x="486" y="621" width="27" height="27" fill="none" /><rect x="513" y="621" width="27" height="27" fill="none" /><rect x="540" y="621" width="27" height="27" fill="none" /><rect x="567" y="621" width="27" height="27" fill="none" /><rect x="594" y="621" width="27" height="27" fill="none" /><rect x="621" y="621" width="27" height="27" fill="none" /><rect x="648" y="621" width="27" height="27" fill="none" /><rect x="675" y="621" width="27" height="27" fill="#FFFF99" /><rect x="702" y="621" width="27" height="27" fill="#FFFF99" /><rect x="729" y="621" width="27" height="27" fill="#FFFF99" /><rect x="756" y="621" width="27" height="27" fill="#FFFF99" /><rect x="0" y="648" width="27" height="27" fill="#FFFF99" /><rect x="27" y="648" width="27" height="27" fill="#FFFF99" /><rect x="54" y="648" width="27" height="27" fill="#FFFF99" /><rect x="81" y="648" width="27" height="27" fill="#FFFF99" /><rect x="108" y="648" width="27" height="27" fill="#FFFF99" /><rect x="135" y="648" width="27" height="27" fill="#FFFF99" /><rect x="162" y="648" width="27" height="27" fill="#FFFF99" /><rect x="189" y="648" width="27" height="27" fill="#FFFF99" /><rect x="216" y="648" width="27" height="27" fill="#FFFF99" /><rect x="243" y="648" width="27" height="27" fill="#FFFF99" /><rect x="270" y="648" width="27" height="27" fill="#FFFF99" /><rect x="297" y="648" width="27" height="27" fill="#FFFF99" /><rect x="324" y="648" width="27" height="27" fill="#FFFF99" /><rect x="351" y="648" width="27" height="27" fill="#FFFF99" /><rect x="378" y="648" width="27" height="27" fill="#FFFF99" /><rect x="405" y="648" width="27" height="27" fill="#FFFF99" /><rect x="432" y="648" width="27" height="27" fill="#FFFF99" /><rect x="459" y="648" width="27" height="27" fill="#FFFF99" /><rect x="486" y="648" width="27" height="27" fill="#FFFF99" /><rect x="513" y="648" width="27" height="27" fill="#FFFF99" /><rect x="540" y="648" width="27" height="27" fill="#FFFF99" /><rect x="567" y="648" width="27" height="27" fill="#FFFF99" /><rect x="594" y="648" width="27" height="27" fill="#FFFF99" /><rect x="621" y="648" width="27" height="27" fill="#FFFF99" /><rect x="648" y="648" width="27" height="27" fill="none" /><rect x="675" y="648" width="27" height="27" fill="none" /><rect x="702" y="648" width="27" height="27" fill="none" /><rect x="729" y="648" width="27" height="27" fill="none" /><rect x="756" y="648" width="27" height="27" fill="none" /><rect x="0" y="675" width="27" height="27" fill="none" /><rect x="27" y="675" width="27" height="27" fill="none" /><rect x="54" y="675" width="27" height="27" fill="none" /><rect x="81" y="675" width="27" height="27" fill="none" /><rect x="108" y="675" width="27" height="27" fill="none" /><rect x="135" y="675" width="27" height="27" fill="none" /><rect x="162" y="675" width="27" height="27" fill="none" /><rect x="189" y="675" width="27" height="27" fill="none" /><rect x="216" y="675" width="27" height="27" fill="none" /><rect x="243" y="675" width="27" height="27" fill="none" /><rect x="270" y="675" width="27" height="27" fill="none" /><rect x="297" y="675" width="27" height="27" fill="none" /><rect x="324" y="675" width="27" height="27" fill="none" /><rect x="351" y="675" width="27" height="27" fill="none" /><rect x="378" y="675" width="27" height="27" fill="none" /><rect x="405" y="675" width="27" height="27" fill="none" /><rect x="432" y="675" width="27" height="27" fill="none" /><rect x="459" y="675" width="27" height="27" fill="none" /><rect x="486" y="675" width="27" height="27" fill="none" /><rect x="513" y="675" width="27" height="27" fill="none" /><rect x="540" y="675" width="27" height="27" fill="none" /><rect x="567" y="675" width="27" height="27" fill="none" /><rect x="594" y="675" width="27" height="27" fill="none" /><rect x="621" y="675" width="27" height="27" fill="none" /><rect x="648" y="675" width="27" height="27" fill="none" /><rect x="675" y="675" width="27" height="27" fill="none" /><rect x="702" y="675" width="27" height="27" fill="none" /><rect x="729" y="675" width="27" height="27" fill="none" /><rect x="756" y="675" width="27" height="27" fill="none" /><rect x="0" y="702" width="27" height="27" fill="none" /><rect x="27" y="702" width="27" height="27" fill="none" /><rect x="54" y="702" width="27" height="27" fill="none" /><rect x="81" y="702" width="27" height="27" fill="none" /><rect x="108" y="702" width="27" height="27" fill="none" /><rect x="135" y="702" width="27" height="27" fill="none" /><rect x="162" y="702" width="27" height="27" fill="none" /><rect x="189" y="702" width="27" height="27" fill="none" /><rect x="216" y="702" width="27" height="27" fill="none" /><rect x="243" y="702" width="27" height="27" fill="none" /><rect x="270" y="702" width="27" height="27" fill="none" /><rect x="297" y="702" width="27" height="27" fill="none" /><rect x="324" y="702" width="27" height="27" fill="none" /><rect x="351" y="702" width="27" height="27" fill="none" /><rect x="378" y="702" width="27" height="27" fill="none" /><rect x="405" y="702" width="27" height="27" fill="none" /><rect x="432" y="702" width="27" height="27" fill="none" /><rect x="459" y="702" width="27" height="27" fill="none" /><rect x="486" y="702" width="27" height="27" fill="none" /><rect x="513" y="702" width="27" height="27" fill="none" /><rect x="540" y="702" width="27" height="27" fill="none" /><rect x="567" y="702" width="27" height="27" fill="none" /><rect x="594" y="702" width="27" height="27" fill="none" /><rect x="621" y="702" width="27" height="27" fill="none" /><rect x="648" y="702" width="27" height="27" fill="none" /><rect x="675" y="702" width="27" height="27" fill="none" /><rect x="702" y="702" width="27" height="27" fill="none" /><rect x="729" y="702" width="27" height="27" fill="none" /><rect x="756" y="702" width="27" height="27" fill="none" /><rect x="0" y="729" width="27" height="27" fill="none" /><rect x="27" y="729" width="27" height="27" fill="none" /><rect x="54" y="729" width="27" height="27" fill="none" /><rect x="81" y="729" width="27" height="27" fill="none" /><rect x="108" y="729" width="27" height="27" fill="none" /><rect x="135" y="729" width="27" height="27" fill="none" /><rect x="162" y="729" width="27" height="27" fill="none" /><rect x="189" y="729" width="27" height="27" fill="#FF6600" /><rect x="216" y="729" width="27" height="27" fill="none" /><rect x="243" y="729" width="27" height="27" fill="none" /><rect x="270" y="729" width="27" height="27" fill="none" /><rect x="297" y="729" width="27" height="27" fill="none" /><rect x="324" y="729" width="27" height="27" fill="none" /><rect x="351" y="729" width="27" height="27" fill="#FF6600" /><rect x="378" y="729" width="27" height="27" fill="none" /><rect x="405" y="729" width="27" height="27" fill="none" /><rect x="432" y="729" width="27" height="27" fill="none" /><rect x="459" y="729" width="27" height="27" fill="none" /><rect x="486" y="729" width="27" height="27" fill="none" /><rect x="513" y="729" width="27" height="27" fill="none" /><rect x="540" y="729" width="27" height="27" fill="none" /><rect x="567" y="729" width="27" height="27" fill="none" /><rect x="594" y="729" width="27" height="27" fill="none" /><rect x="621" y="729" width="27" height="27" fill="none" /><rect x="648" y="729" width="27" height="27" fill="none" /><rect x="675" y="729" width="27" height="27" fill="none" /><rect x="702" y="729" width="27" height="27" fill="none" /><rect x="729" y="729" width="27" height="27" fill="none" /><rect x="756" y="729" width="27" height="27" fill="none" /></svg>