<?xml version="1.0" encoding="UTF-8"?>
<svg xmlns="http://www.w3.org/2000/svg" version="1.1" height="896" width="896"><rect x="0" y="0" width="896" height="896" fill="rgb(192,192,192)" /><image x="0" y="0" href="10009/40256.png" width="64" height="64" /><image x="64" y="0" href="10009/44881.png" width="64" height="64" /><image x="128" y="0" href="10009/43781.png" width="64" height="64" /><image x="192" y="0" href="10009/43743.png" width="64" height="64" /><image x="256" y="0" href="10009/43733.png" width="64" height="64" /><image x="320" y="0" href="10009/43746.png" width="64" height="64" /><image x="384" y="0" href="10009/43802.png" width="64" height="64" /><image x="448" y="0" href="10009/43805.png" width="64" height="64" /><image x="512" y="0" href="10009/43800.png" width="64" height="64" /><image x="576" y="0" href="10009/43740.png" width="64" height="64" /><image x="640" y="0" href="10009/43737.png" width="64" height="64" /><image x="704" y="0" href="10009/44212.png" width="64" height="64" /><image x="768" y="0" href="10009/43734.png" width="64" height="64" /><image x="832" y="0" href="10009/43731.png" width="64" height="64" /><image x="0" y="64" href="10009/43784.png" width="64" height="64" /><image x="64" y="64" href="10009/43744.png" width="64" height="64" /><image x="128" y="64" href="10009/43745.png" width="64" height="64" /><image x="192" y="64" href="10009/44217.png" width="64" height="64" /><image x="256" y="64" href="10009/43732.png" width="64" height="64" /><image x="320" y="64" href="10009/43747.png" width="64" height="64" /><image x="384" y="64" href="10009/43751.png" width="64" height="64" /><image x="448" y="64" href="10009/43738.png" width="64" height="64" /><image x="512" y="64" href="10009/44213.png" width="64" height="64" /><image x="576" y="64" href="10009/43739.png" width="64" height="64" /><image x="640" y="64" href="10009/43764.png" width="64" height="64" /><image x="704" y="64" href="10009/43786.png" width="64" height="64" /><image x="768" y="64" href="10009/43742.png" width="64" height="64" /><image x="832" y="64" href="10009/43735.png" width="64" height="64" /><image x="0" y="128" href="10009/43730.png" width="64" height="64" /><image x="64" y="128" href="10009/43923.png" width="64" height="64" /><image x="128" y="128" href="10009/88816.png" width="64" height="64" /><image x="192" y="128" href="10009/43911.png" width="64" height="64" /><image x="256" y="128" href="10009/43917.png" width="64" height="64" /><image x="320" y="128" href="10009/44064.png" width="64" height="64" /><image x="384" y="128" href="10009/44066.png" width="64" height="64" /><image x="448" y="128" href="10009/43916.png" width="64" height="64" /><image x="512" y="128" href="10009/43904.png" width="64" height="64" /><image x="576" y="128" href="10009/43912.png" width="64" height="64" /><image x="640" y="128" href="10009/43913.png" width="64" height="64" /><image x="704" y="128" href="10009/43921.png" width="64" height="64" /><image x="768" y="128" href="10009/43918.png" width="64" height="64" /><image x="832" y="128" href="10009/43922.png" width="64" height="64" /><image x="0" y="192" href="10009/43910.png" width="64" height="64" /><image x="64" y="192" href="10009/44063.png" width="64" height="64" /><image x="128" y="192" href="10009/44061.png" width="64" height="64" /><image x="192" y="192" href="10009/43750.png" width="64" height="64" /><image x="256" y="192" href="10009/43758.png" width="64" height="64" /><image x="320" y="192" href="10009/89272.png" width="64" height="64" /><image x="384" y="192" href="10009/44214.png" width="64" height="64" /><image x="448" y="192" href="10009/40594.png" width="64" height="64" /><image x="512" y="192" href="10009/40522.png" width="64" height="64" /><image x="576" y="192" href="10009/40497.png" width="64" height="64" /><image x="640" y="192" href="10009/40547.png" width="64" height="64" /><image x="704" y="192" href="10009/40507.png" width="64" height="64" /><image x="768" y="192" href="10009/40506.png" width="64" height="64" /><image x="832" y="192" href="10009/40512.png" width="64" height="64" /><image x="0" y="256" href="10009/40540.png" width="64" height="64" /><image x="64" y="256" href="10009/40510.png" width="64" height="64" /><image x="128" y="256" href="10009/40538.png" width="64" height="64" /><image x="192" y="256" href="10009/40548.png" width="64" height="64" /><image x="256" y="256" href="10009/40517.png" width="64" height="64" /><image x="320" y="256" href="10009/40568.png" width="64" height="64" /><image x="384" y="256" href="10009/40576.png" width="64" height="64" /><image x="448" y="256" href="10009/40575.png" width="64" height="64" /><image x="512" y="256" href="10009/40593.png" width="64" height="64" /><image x="576" y="256" href="10009/40583.png" width="64" height="64" /><image x="640" y="256" href="10009/40595.png" width="64" height="64" /><image x="704" y="256" href="10009/40287.png" width="64" height="64" /><image x="768" y="256" href="10009/40516.png" width="64" height="64" /><image x="832" y="256" href="10009/40559.png" width="64" height="64" /><image x="0" y="320" href="10009/40509.png" width="64" height="64" /><image x="64" y="320" href="10009/40521.png" width="64" height="64" /><image x="128" y="320" href="10009/40505.png" width="64" height="64" /><image x="192" y="320" href="10009/40496.png" width="64" height="64" /><image x="256" y="320" href="10009/40551.png" width="64" height="64" /><image x="320" y="320" href="10009/40333.png" width="64" height="64" /><image x="384" y="320" href="10009/40527.png" width="64" height="64" /><image x="448" y="320" href="10009/40632.png" width="64" height="64" /><image x="512" y="320" href="10009/40532.png" width="64" height="64" /><image x="576" y="320" href="10009/40528.png" width="64" height="64" /><image x="640" y="320" href="10009/40606.png" width="64" height="64" /><image x="704" y="320" href="10009/40530.png" width="64" height="64" /><image x="768" y="320" href="10009/40552.png" width="64" height="64" /><image x="832" y="320" href="10009/40301.png" width="64" height="64" /><image x="0" y="384" href="10009/40302.png" width="64" height="64" /><image x="64" y="384" href="10009/40303.png" width="64" height="64" /><image x="128" y="384" href="10009/40637.png" width="64" height="64" /><image x="192" y="384" href="10009/40633.png" width="64" height="64" /><image x="256" y="384" href="10009/40304.png" width="64" height="64" /><image x="320" y="384" href="10009/40309.png" width="64" height="64" /><image x="384" y="384" href="10009/40308.png" width="64" height="64" /><image x="448" y="384" href="10009/40307.png" width="64" height="64" /><image x="512" y="384" href="10009/40306.png" width="64" height="64" /><image x="576" y="384" href="10009/40305.png" width="64" height="64" /><image x="640" y="384" href="10009/40577.png" width="64" height="64" /><image x="704" y="384" href="10009/40581.png" width="64" height="64" /><image x="768" y="384" href="10009/40598.png" width="64" height="64" /><image x="832" y="384" href="10009/40613.png" width="64" height="64" /><image x="0" y="448" href="10009/89818.png" width="64" height="64" /><image x="64" y="448" href="10009/40591.png" width="64" height="64" /><image x="128" y="448" href="10009/44062.png" width="64" height="64" /><image x="192" y="448" href="10009/43903.png" width="64" height="64" /><image x="256" y="448" href="10009/44346.png" width="64" height="64" /><image x="320" y="448" href="10009/44344.png" width="64" height="64" /><image x="384" y="448" href="10009/44349.png" width="64" height="64" /><image x="448" y="448" href="10009/44347.png" width="64" height="64" /><image x="512" y="448" href="10009/44351.png" width="64" height="64" /><image x="576" y="448" href="10009/44348.png" width="64" height="64" /><image x="640" y="448" href="10009/44350.png" width="64" height="64" /><image x="704" y="448" href="10009/44611.png" width="64" height="64" /><image x="768" y="448" href="10009/44613.png" width="64" height="64" /><image x="832" y="448" href="10009/44615.png" width="64" height="64" /><image x="0" y="512" href="10009/44610.png" width="64" height="64" /><image x="64" y="512" href="10009/44608.png" width="64" height="64" /><image x="128" y="512" href="10009/44614.png" width="64" height="64" /><image x="192" y="512" href="10009/44612.png" width="64" height="64" /><image x="256" y="512" href="10009/44609.png" width="64" height="64" /><image x="320" y="512" href="10009/91647.png" width="64" height="64" /><image x="384" y="512" href="10009/91700.png" width="64" height="64" /><image x="448" y="512" href="10009/91586.png" width="64" height="64" /><image x="512" y="512" href="10009/91703.png" width="64" height="64" /><image x="576" y="512" href="10009/91587.png" width="64" height="64" /><image x="640" y="512" href="10009/91705.png" width="64" height="64" /><image x="704" y="512" href="10009/91707.png" width="64" height="64" /><image x="768" y="512" href="10009/91595.png" width="64" height="64" /><image x="832" y="512" href="10009/91596.png" width="64" height="64" /><image x="0" y="576" href="10009/91601.png" width="64" height="64" /><image x="64" y="576" href="10009/91712.png" width="64" height="64" /><image x="128" y="576" href="10009/91711.png" width="64" height="64" /><image x="192" y="576" href="10009/91604.png" width="64" height="64" /><image x="256" y="576" href="10009/91710.png" width="64" height="64" /><image x="320" y="576" href="10009/91605.png" width="64" height="64" /><image x="384" y="576" href="10009/91708.png" width="64" height="64" /><image x="448" y="576" href="10009/91597.png" width="64" height="64" /><image x="512" y="576" href="10009/91598.png" width="64" height="64" /><image x="576" y="576" href="10009/91599.png" width="64" height="64" /><image x="640" y="576" href="10009/91602.png" width="64" height="64" /><image x="704" y="576" href="10009/91603.png" width="64" height="64" /><image x="768" y="576" href="10009/91615.png" width="64" height="64" /><image x="832" y="576" href="10009/89130.png" width="64" height="64" /><image x="0" y="640" href="10009/88839.png" width="64" height="64" /><image x="64" y="640" href="10009/88845.png" width="64" height="64" /><image x="128" y="640" href="10009/88840.png" width="64" height="64" /><image x="192" y="640" href="10009/238748.png" width="64" height="64" /><image x="256" y="640" href="10009/88842.png" width="64" height="64" /><image x="320" y="640" href="10009/88841.png" width="64" height="64" /><image x="384" y="640" href="10009/89132.png" width="64" height="64" /><image x="448" y="640" href="10009/89129.png" width="64" height="64" /><image x="512" y="640" href="10009/89147.png" width="64" height="64" /><image x="576" y="640" href="10009/43540.png" width="64" height="64" /><image x="640" y="640" href="10009/89292.png" width="64" height="64" /><image x="704" y="640" href="10009/89294.png" width="64" height="64" /><image x="768" y="640" href="10009/89291.png" width="64" height="64" /><image x="832" y="640" href="10009/89297.png" width="64" height="64" /><image x="0" y="704" href="10009/89323.png" width="64" height="64" /><image x="64" y="704" href="10009/89258.png" width="64" height="64" /><image x="128" y="704" href="10009/89099.png" width="64" height="64" /><image x="192" y="704" href="10009/89298.png" width="64" height="64" /><image x="256" y="704" href="10009/89290.png" width="64" height="64" /><image x="320" y="704" href="10009/89315.png" width="64" height="64" /><image x="384" y="704" href="10009/89311.png" width="64" height="64" /><image x="448" y="704" href="10009/89112.png" width="64" height="64" /><image x="512" y="704" href="10009/89107.png" width="64" height="64" /><image x="576" y="704" href="10009/89148.png" width="64" height="64" /><image x="640" y="704" href="10009/89259.png" width="64" height="64" /><image x="704" y="704" href="10009/89131.png" width="64" height="64" /><image x="768" y="704" href="10009/89133.png" width="64" height="64" /><image x="832" y="704" href="10009/88800.png" width="64" height="64" /><image x="0" y="768" href="10009/89274.png" width="64" height="64" /><image x="64" y="768" href="10009/89134.png" width="64" height="64" /><image x="128" y="768" href="10009/106143.png" width="64" height="64" /><image x="192" y="768" href="10009/88799.png" width="64" height="64" /><image x="256" y="768" href="10009/88797.png" width="64" height="64" /><image x="320" y="768" href="10009/88813.png" width="64" height="64" /><image x="384" y="768" href="10009/88844.png" width="64" height="64" /><image x="448" y="768" href="10009/88810.png" width="64" height="64" /><image x="512" y="768" href="10009/88801.png" width="64" height="64" /><image x="576" y="768" href="10009/88995.png" width="64" height="64" /><image x="640" y="768" href="10009/88843.png" width="64" height="64" /><image x="704" y="768" href="10009/88796.png" width="64" height="64" /><image x="768" y="768" href="10009/88811.png" width="64" height="64" /><image x="832" y="768" href="10009/88812.png" width="64" height="64" /></svg>