<?xml version="1.0" encoding="UTF-8"?>
<svg xmlns="http://www.w3.org/2000/svg" version="1.1" height="832" width="832"><rect x="0" y="0" width="832" height="832" fill="rgb(192,192,192)" /><image x="0" y="0" href="10088/40955.png" width="64" height="64" /><image x="64" y="0" href="10088/87833.png" width="64" height="64" /><image x="128" y="0" href="10088/40932.png" width="64" height="64" /><image x="192" y="0" href="10088/40931.png" width="64" height="64" /><image x="256" y="0" href="10088/40941.png" width="64" height="64" /><image x="320" y="0" href="10088/40936.png" width="64" height="64" /><image x="384" y="0" href="10088/40942.png" width="64" height="64" /><image x="448" y="0" href="10088/87791.png" width="64" height="64" /><image x="512" y="0" href="10088/40945.png" width="64" height="64" /><image x="576" y="0" href="10088/40970.png" width="64" height="64" /><image x="640" y="0" href="10088/40949.png" width="64" height="64" /><image x="704" y="0" href="10088/40979.png" width="64" height="64" /><image x="768" y="0" href="10088/87808.png" width="64" height="64" /><image x="0" y="64" href="10088/40934.png" width="64" height="64" /><image x="64" y="64" href="10088/40939.png" width="64" height="64" /><image x="128" y="64" href="10088/40958.png" width="64" height="64" /><image x="192" y="64" href="10088/87820.png" width="64" height="64" /><image x="256" y="64" href="10088/181308.png" width="64" height="64" /><image x="320" y="64" href="10088/40951.png" width="64" height="64" /><image x="384" y="64" href="10088/41347.png" width="64" height="64" /><image x="448" y="64" href="10088/55006.png" width="64" height="64" /><image x="512" y="64" href="10088/40961.png" width="64" height="64" /><image x="576" y="64" href="10088/40943.png" width="64" height="64" /><image x="640" y="64" href="10088/40933.png" width="64" height="64" /><image x="704" y="64" href="10088/40959.png" width="64" height="64" /><image x="768" y="64" href="10088/40972.png" width="64" height="64" /><image x="0" y="128" href="10088/40935.png" width="64" height="64" /><image x="64" y="128" href="10088/88887.png" width="64" height="64" /><image x="128" y="128" href="10088/40952.png" width="64" height="64" /><image x="192" y="128" href="10088/40973.png" width="64" height="64" /><image x="256" y="128" href="10088/40971.png" width="64" height="64" /><image x="320" y="128" href="10088/40976.png" width="64" height="64" /><image x="384" y="128" href="10088/40990.png" width="64" height="64" /><image x="448" y="128" href="10088/88932.png" width="64" height="64" /><image x="512" y="128" href="10088/86014.png" width="64" height="64" /><image x="576" y="128" href="10088/41000.png" width="64" height="64" /><image x="640" y="128" href="10088/40389.png" width="64" height="64" /><image x="704" y="128" href="10088/40968.png" width="64" height="64" /><image x="768" y="128" href="10088/40965.png" width="64" height="64" /><image x="0" y="192" href="10088/40957.png" width="64" height="64" /><image x="64" y="192" href="10088/40975.png" width="64" height="64" /><image x="128" y="192" href="10088/40960.png" width="64" height="64" /><image x="192" y="192" href="10088/40938.png" width="64" height="64" /><image x="256" y="192" href="10088/40974.png" width="64" height="64" /><image x="320" y="192" href="10088/40969.png" width="64" height="64" /><image x="384" y="192" href="10088/40953.png" width="64" height="64" /><image x="448" y="192" href="10088/40950.png" width="64" height="64" /><image x="512" y="192" href="10088/41022.png" width="64" height="64" /><image x="576" y="192" href="10088/40948.png" width="64" height="64" /><image x="640" y="192" href="10088/88930.png" width="64" height="64" /><image x="704" y="192" href="10088/40981.png" width="64" height="64" /><image x="768" y="192" href="10088/40967.png" width="64" height="64" /><image x="0" y="256" href="10088/40995.png" width="64" height="64" /><image x="64" y="256" href="10088/40983.png" width="64" height="64" /><image x="128" y="256" href="10088/40984.png" width="64" height="64" /><image x="192" y="256" href="10088/40992.png" width="64" height="64" /><image x="256" y="256" href="10088/88934.png" width="64" height="64" /><image x="320" y="256" href="10088/40993.png" width="64" height="64" /><image x="384" y="256" href="10088/55136.png" width="64" height="64" /><image x="448" y="256" href="10088/41002.png" width="64" height="64" /><image x="512" y="256" href="10088/40982.png" width="64" height="64" /><image x="576" y="256" href="10088/40963.png" width="64" height="64" /><image x="640" y="256" href="10088/40988.png" width="64" height="64" /><image x="704" y="256" href="10088/40996.png" width="64" height="64" /><image x="768" y="256" href="10088/40987.png" width="64" height="64" /><image x="0" y="320" href="10088/40986.png" width="64" height="64" /><image x="64" y="320" href="10088/87816.png" width="64" height="64" /><image x="128" y="320" href="10088/87842.png" width="64" height="64" /><image x="192" y="320" href="10088/87830.png" width="64" height="64" /><image x="256" y="320" href="10088/87819.png" width="64" height="64" /><image x="320" y="320" href="10088/87809.png" width="64" height="64" /><image x="384" y="320" href="10088/87818.png" width="64" height="64" /><image x="448" y="320" href="10088/87817.png" width="64" height="64" /><image x="512" y="320" href="10088/87807.png" width="64" height="64" /><image x="576" y="320" href="10088/89680.png" width="64" height="64" /><image x="640" y="320" href="10088/89091.png" width="64" height="64" /><image x="704" y="320" href="10088/89430.png" width="64" height="64" /><image x="768" y="320" href="10088/89795.png" width="64" height="64" /><image x="0" y="384" href="10088/89045.png" width="64" height="64" /><image x="64" y="384" href="10088/89808.png" width="64" height="64" /><image x="128" y="384" href="10088/89090.png" width="64" height="64" /><image x="192" y="384" href="10088/89697.png" width="64" height="64" /><image x="256" y="384" href="10088/89039.png" width="64" height="64" /><image x="320" y="384" href="10088/89796.png" width="64" height="64" /><image x="384" y="384" href="10088/89814.png" width="64" height="64" /><image x="448" y="384" href="10088/89745.png" width="64" height="64" /><image x="512" y="384" href="10088/105943.png" width="64" height="64" /><image x="576" y="384" href="10088/90122.png" width="64" height="64" /><image x="640" y="384" href="10088/89769.png" width="64" height="64" /><image x="704" y="384" href="10088/119653.png" width="64" height="64" /><image x="768" y="384" href="10088/105897.png" width="64" height="64" /><image x="0" y="448" href="10088/120534.png" width="64" height="64" /><image x="64" y="448" href="10088/89185.png" width="64" height="64" /><image x="128" y="448" href="10088/89046.png" width="64" height="64" /><image x="192" y="448" href="10088/89428.png" width="64" height="64" /><image x="256" y="448" href="10088/89707.png" width="64" height="64" /><image x="320" y="448" href="10088/89660.png" width="64" height="64" /><image x="384" y="448" href="10088/89749.png" width="64" height="64" /><image x="448" y="448" href="10088/105996.png" width="64" height="64" /><image x="512" y="448" href="10088/90121.png" width="64" height="64" /><image x="576" y="448" href="10088/120422.png" width="64" height="64" /><image x="640" y="448" href="10088/89813.png" width="64" height="64" /><image x="704" y="448" href="10088/89708.png" width="64" height="64" /><image x="768" y="448" href="10088/89059.png" width="64" height="64" /><image x="0" y="512" href="10088/95649.png" width="64" height="64" /><image x="64" y="512" href="10088/89774.png" width="64" height="64" /><image x="128" y="512" href="10088/89665.png" width="64" height="64" /><image x="192" y="512" href="10088/89583.png" width="64" height="64" /><image x="256" y="512" href="10088/89790.png" width="64" height="64" /><image x="320" y="512" href="10088/89663.png" width="64" height="64" /><image x="384" y="512" href="10088/89792.png" width="64" height="64" /><image x="448" y="512" href="10088/89662.png" width="64" height="64" /><image x="512" y="512" href="10088/89791.png" width="64" height="64" /><image x="576" y="512" href="10088/89658.png" width="64" height="64" /><image x="640" y="512" href="10088/105919.png" width="64" height="64" /><image x="704" y="512" href="10088/89432.png" width="64" height="64" /><image x="768" y="512" href="10088/89667.png" width="64" height="64" /><image x="0" y="576" href="10088/89561.png" width="64" height="64" /><image x="64" y="576" href="10088/89587.png" width="64" height="64" /><image x="128" y="576" href="10088/94839.png" width="64" height="64" /><image x="192" y="576" href="10088/90120.png" width="64" height="64" /><image x="256" y="576" href="10088/89586.png" width="64" height="64" /><image x="320" y="576" href="10088/89568.png" width="64" height="64" /><image x="384" y="576" href="10088/89772.png" width="64" height="64" /><image x="448" y="576" href="10088/89559.png" width="64" height="64" /><image x="512" y="576" href="10088/89585.png" width="64" height="64" /><image x="576" y="576" href="10088/89666.png" width="64" height="64" /><image x="640" y="576" href="10088/95697.png" width="64" height="64" /><image x="704" y="576" href="10088/89715.png" width="64" height="64" /><image x="768" y="576" href="10088/89572.png" width="64" height="64" /><image x="0" y="640" href="10088/89570.png" width="64" height="64" /><image x="64" y="640" href="10088/137867.png" width="64" height="64" /><image x="128" y="640" href="10088/94910.png" width="64" height="64" /><image x="192" y="640" href="10088/95696.png" width="64" height="64" /><image x="256" y="640" href="10088/89699.png" width="64" height="64" /><image x="320" y="640" href="10088/89704.png" width="64" height="64" /><image x="384" y="640" href="10088/89703.png" width="64" height="64" /><image x="448" y="640" href="10088/89569.png" width="64" height="64" /><image x="512" y="640" href="10088/89705.png" width="64" height="64" /><image x="576" y="640" href="10088/89700.png" width="64" height="64" /><image x="640" y="640" href="10088/90033.png" width="64" height="64" /><image x="704" y="640" href="10088/119331.png" width="64" height="64" /><image x="768" y="640" href="10088/105942.png" width="64" height="64" /><image x="0" y="704" href="10088/89574.png" width="64" height="64" /><image x="64" y="704" href="10088/89566.png" width="64" height="64" /><image x="128" y="704" href="10088/89590.png" width="64" height="64" /><image x="192" y="704" href="10088/40944.png" width="64" height="64" /></svg>