<?xml version="1.0" encoding="UTF-8"?>
<svg xmlns="http://www.w3.org/2000/svg" version="1.1" height="768" width="768"><rect x="0" y="0" width="768" height="768" fill="rgb(192,192,192)" /><image x="0" y="0" href="102724/101092.png" width="64" height="64" /><image x="64" y="0" href="102724/206170.png" width="64" height="64" /><image x="128" y="0" href="102724/114181.png" width="64" height="64" /><image x="192" y="0" href="102724/100946.png" width="64" height="64" /><image x="256" y="0" href="102724/100926.png" width="64" height="64" /><image x="320" y="0" href="102724/34372.png" width="64" height="64" /><image x="384" y="0" href="102724/120095.png" width="64" height="64" /><image x="448" y="0" href="102724/100941.png" width="64" height="64" /><image x="512" y="0" href="102724/101309.png" width="64" height="64" /><image x="576" y="0" href="102724/100931.png" width="64" height="64" /><image x="640" y="0" href="102724/108252.png" width="64" height="64" /><image x="704" y="0" href="102724/177775.png" width="64" height="64" /><image x="0" y="64" href="102724/34382.png" width="64" height="64" /><image x="64" y="64" href="102724/101093.png" width="64" height="64" /><image x="128" y="64" href="102724/35185.png" width="64" height="64" /><image x="192" y="64" href="102724/100962.png" width="64" height="64" /><image x="256" y="64" href="102724/100942.png" width="64" height="64" /><image x="320" y="64" href="102724/100919.png" width="64" height="64" /><image x="384" y="64" href="102724/100930.png" width="64" height="64" /><image x="448" y="64" href="102724/125301.png" width="64" height="64" /><image x="512" y="64" href="102724/125299.png" width="64" height="64" /><image x="576" y="64" href="102724/125298.png" width="64" height="64" /><image x="640" y="64" href="102724/125300.png" width="64" height="64" /><image x="704" y="64" href="102724/125306.png" width="64" height="64" /><image x="0" y="128" href="102724/125305.png" width="64" height="64" /><image x="64" y="128" href="102724/125292.png" width="64" height="64" /><image x="128" y="128" href="102724/125341.png" width="64" height="64" /><image x="192" y="128" href="102724/125307.png" width="64" height="64" /><image x="256" y="128" href="102724/125340.png" width="64" height="64" /><image x="320" y="128" href="102724/125287.png" width="64" height="64" /><image x="384" y="128" href="102724/125291.png" width="64" height="64" /><image x="448" y="128" href="102724/125289.png" width="64" height="64" /><image x="512" y="128" href="102724/125290.png" width="64" height="64" /><image x="576" y="128" href="102724/125354.png" width="64" height="64" /><image x="640" y="128" href="102724/125355.png" width="64" height="64" /><image x="704" y="128" href="102724/125339.png" width="64" height="64" /><image x="0" y="192" href="102724/125593.png" width="64" height="64" /><image x="64" y="192" href="102724/125588.png" width="64" height="64" /><image x="128" y="192" href="102724/125660.png" width="64" height="64" /><image x="192" y="192" href="102724/125661.png" width="64" height="64" /><image x="256" y="192" href="102724/125662.png" width="64" height="64" /><image x="320" y="192" href="102724/125657.png" width="64" height="64" /><image x="384" y="192" href="102724/125663.png" width="64" height="64" /><image x="448" y="192" href="102724/125664.png" width="64" height="64" /><image x="512" y="192" href="102724/125666.png" width="64" height="64" /><image x="576" y="192" href="102724/125665.png" width="64" height="64" /><image x="640" y="192" href="102724/125675.png" width="64" height="64" /><image x="704" y="192" href="102724/125674.png" width="64" height="64" /><image x="0" y="256" href="102724/125678.png" width="64" height="64" /><image x="64" y="256" href="102724/125673.png" width="64" height="64" /><image x="128" y="256" href="102724/125531.png" width="64" height="64" /><image x="192" y="256" href="102724/125677.png" width="64" height="64" /><image x="256" y="256" href="102724/125530.png" width="64" height="64" /><image x="320" y="256" href="102724/125532.png" width="64" height="64" /><image x="384" y="256" href="102724/125676.png" width="64" height="64" /><image x="448" y="256" href="102724/125672.png" width="64" height="64" /><image x="512" y="256" href="102724/126872.png" width="64" height="64" /><image x="576" y="256" href="102724/126998.png" width="64" height="64" /><image x="640" y="256" href="102724/126838.png" width="64" height="64" /><image x="704" y="256" href="102724/126839.png" width="64" height="64" /><image x="0" y="320" href="102724/126842.png" width="64" height="64" /><image x="64" y="320" href="102724/126843.png" width="64" height="64" /><image x="128" y="320" href="102724/126845.png" width="64" height="64" /><image x="192" y="320" href="102724/126847.png" width="64" height="64" /><image x="256" y="320" href="102724/126873.png" width="64" height="64" /><image x="320" y="320" href="102724/126880.png" width="64" height="64" /><image x="384" y="320" href="102724/126874.png" width="64" height="64" /><image x="448" y="320" href="102724/126876.png" width="64" height="64" /><image x="512" y="320" href="102724/126875.png" width="64" height="64" /><image x="576" y="320" href="102724/126877.png" width="64" height="64" /><image x="640" y="320" href="102724/123798.png" width="64" height="64" /><image x="704" y="320" href="102724/123887.png" width="64" height="64" /><image x="0" y="384" href="102724/123885.png" width="64" height="64" /><image x="64" y="384" href="102724/123708.png" width="64" height="64" /><image x="128" y="384" href="102724/123709.png" width="64" height="64" /><image x="192" y="384" href="102724/131341.png" width="64" height="64" /><image x="256" y="384" href="102724/123710.png" width="64" height="64" /><image x="320" y="384" href="102724/123711.png" width="64" height="64" /><image x="384" y="384" href="102724/123804.png" width="64" height="64" /><image x="448" y="384" href="102724/123704.png" width="64" height="64" /><image x="512" y="384" href="102724/123705.png" width="64" height="64" /><image x="576" y="384" href="102724/123890.png" width="64" height="64" /><image x="640" y="384" href="102724/124974.png" width="64" height="64" /><image x="704" y="384" href="102724/124973.png" width="64" height="64" /><image x="0" y="448" href="102724/130382.png" width="64" height="64" /><image x="64" y="448" href="102724/131291.png" width="64" height="64" /><image x="128" y="448" href="102724/123799.png" width="64" height="64" /><image x="192" y="448" href="102724/127064.png" width="64" height="64" /><image x="256" y="448" href="102724/127046.png" width="64" height="64" /><image x="320" y="448" href="102724/127082.png" width="64" height="64" /><image x="384" y="448" href="102724/127047.png" width="64" height="64" /><image x="448" y="448" href="102724/131321.png" width="64" height="64" /><image x="512" y="448" href="102724/127045.png" width="64" height="64" /><image x="576" y="448" href="102724/127044.png" width="64" height="64" /><image x="640" y="448" href="102724/127048.png" width="64" height="64" /><image x="704" y="448" href="102724/127065.png" width="64" height="64" /><image x="0" y="512" href="102724/164184.png" width="64" height="64" /><image x="64" y="512" href="102724/182875.png" width="64" height="64" /><image x="128" y="512" href="102724/182902.png" width="64" height="64" /><image x="192" y="512" href="102724/206985.png" width="64" height="64" /><image x="256" y="512" href="102724/206244.png" width="64" height="64" /><image x="320" y="512" href="102724/206091.png" width="64" height="64" /><image x="384" y="512" href="102724/206245.png" width="64" height="64" /><image x="448" y="512" href="102724/229071.png" width="64" height="64" /><image x="512" y="512" href="102724/229101.png" width="64" height="64" /><image x="576" y="512" href="102724/229127.png" width="64" height="64" /><image x="640" y="512" href="102724/229128.png" width="64" height="64" /><image x="704" y="512" href="102724/252425.png" width="64" height="64" /><image x="0" y="576" href="102724/252426.png" width="64" height="64" /><image x="64" y="576" href="102724/252377.png" width="64" height="64" /><image x="128" y="576" href="102724/252378.png" width="64" height="64" /><image x="192" y="576" href="102724/252797.png" width="64" height="64" /><image x="256" y="576" href="102724/252691.png" width="64" height="64" /><image x="320" y="576" href="102724/252651.png" width="64" height="64" /><image x="384" y="576" href="102724/252483.png" width="64" height="64" /><image x="448" y="576" href="102724/252648.png" width="64" height="64" /><image x="512" y="576" href="102724/252650.png" width="64" height="64" /><image x="576" y="576" href="102724/252484.png" width="64" height="64" /><image x="640" y="576" href="102724/252643.png" width="64" height="64" /><image x="704" y="576" href="102724/252798.png" width="64" height="64" /><image x="0" y="640" href="102724/252407.png" width="64" height="64" /><image x="64" y="640" href="102724/252393.png" width="64" height="64" /><image x="128" y="640" href="102724/252645.png" width="64" height="64" /></svg>