<?xml version="1.0" encoding="UTF-8"?>
<svg xmlns="http://www.w3.org/2000/svg" version="1.1" height="384" width="384"><rect x="0" y="0" width="384" height="384" fill="rgb(192,192,192)" /><image x="0" y="0" href="109981/123000.png" width="64" height="64" /><image x="64" y="0" href="109981/246284.png" width="64" height="64" /><image x="128" y="0" href="109981/247234.png" width="64" height="64" /><image x="192" y="0" href="109981/247050.png" width="64" height="64" /><image x="256" y="0" href="109981/247237.png" width="64" height="64" /><image x="320" y="0" href="109981/192807.png" width="64" height="64" /><image x="0" y="64" href="109981/192829.png" width="64" height="64" /><image x="64" y="64" href="109981/192562.png" width="64" height="64" /><image x="128" y="64" href="109981/192517.png" width="64" height="64" /><image x="192" y="64" href="109981/192573.png" width="64" height="64" /><image x="256" y="64" href="109981/192518.png" width="64" height="64" /><image x="320" y="64" href="109981/192568.png" width="64" height="64" /><image x="0" y="128" href="109981/192547.png" width="64" height="64" /><image x="64" y="128" href="109981/192459.png" width="64" height="64" /><image x="128" y="128" href="109981/192546.png" width="64" height="64" /><image x="192" y="128" href="109981/192563.png" width="64" height="64" /><image x="256" y="128" href="109981/192477.png" width="64" height="64" /><image x="320" y="128" href="109981/192464.png" width="64" height="64" /><image x="0" y="192" href="109981/272993.png" width="64" height="64" /><image x="64" y="192" href="109981/273122.png" width="64" height="64" /><image x="128" y="192" href="109981/273130.png" width="64" height="64" /><image x="192" y="192" href="109981/273111.png" width="64" height="64" /><image x="256" y="192" href="109981/273350.png" width="64" height="64" /><image x="320" y="192" href="109981/273342.png" width="64" height="64" /><image x="0" y="256" href="109981/273336.png" width="64" height="64" /><image x="64" y="256" href="109981/273341.png" width="64" height="64" /><image x="128" y="256" href="109981/273364.png" width="64" height="64" /><image x="192" y="256" href="109981/273343.png" width="64" height="64" /></svg>