<?xml version="1.0" encoding="UTF-8"?>
<svg xmlns="http://www.w3.org/2000/svg" version="1.1" height="576" width="576"><rect x="0" y="0" width="576" height="576" fill="rgb(192,192,192)" /><image x="0" y="0" href="112965/197038.png" width="64" height="64" /><image x="64" y="0" href="112965/197826.png" width="64" height="64" /><image x="128" y="0" href="112965/199349.png" width="64" height="64" /><image x="192" y="0" href="112965/199619.png" width="64" height="64" /><image x="256" y="0" href="112965/197824.png" width="64" height="64" /><image x="320" y="0" href="112965/197750.png" width="64" height="64" /><image x="384" y="0" href="112965/197888.png" width="64" height="64" /><image x="448" y="0" href="112965/197890.png" width="64" height="64" /><image x="512" y="0" href="112965/199430.png" width="64" height="64" /><image x="0" y="64" href="112965/197954.png" width="64" height="64" /><image x="64" y="64" href="112965/197920.png" width="64" height="64" /><image x="128" y="64" href="112965/197889.png" width="64" height="64" /><image x="192" y="64" href="112965/197671.png" width="64" height="64" /><image x="256" y="64" href="112965/202229.png" width="64" height="64" /><image x="320" y="64" href="112965/199537.png" width="64" height="64" /><image x="384" y="64" href="112965/200713.png" width="64" height="64" /><image x="448" y="64" href="112965/209941.png" width="64" height="64" /><image x="512" y="64" href="112965/213395.png" width="64" height="64" /><image x="0" y="128" href="112965/207395.png" width="64" height="64" /><image x="64" y="128" href="112965/207429.png" width="64" height="64" /><image x="128" y="128" href="112965/197825.png" width="64" height="64" /><image x="192" y="128" href="112965/197962.png" width="64" height="64" /><image x="256" y="128" href="112965/204735.png" width="64" height="64" /><image x="320" y="128" href="112965/203206.png" width="64" height="64" /><image x="384" y="128" href="112965/209478.png" width="64" height="64" /><image x="448" y="128" href="112965/209458.png" width="64" height="64" /><image x="512" y="128" href="112965/209923.png" width="64" height="64" /><image x="0" y="192" href="112965/209968.png" width="64" height="64" /><image x="64" y="192" href="112965/209924.png" width="64" height="64" /><image x="128" y="192" href="112965/209435.png" width="64" height="64" /><image x="192" y="192" href="112965/209898.png" width="64" height="64" /><image x="256" y="192" href="112965/208938.png" width="64" height="64" /><image x="320" y="192" href="112965/207236.png" width="64" height="64" /><image x="384" y="192" href="112965/209922.png" width="64" height="64" /><image x="448" y="192" href="112965/208827.png" width="64" height="64" /><image x="512" y="192" href="112965/208804.png" width="64" height="64" /><image x="0" y="256" href="112965/207394.png" width="64" height="64" /><image x="64" y="256" href="112965/244289.png" width="64" height="64" /><image x="128" y="256" href="112965/244696.png" width="64" height="64" /><image x="192" y="256" href="112965/244636.png" width="64" height="64" /><image x="256" y="256" href="112965/277754.png" width="64" height="64" /><image x="320" y="256" href="112965/277724.png" width="64" height="64" /><image x="384" y="256" href="112965/278294.png" width="64" height="64" /><image x="448" y="256" href="112965/278244.png" width="64" height="64" /><image x="512" y="256" href="112965/278250.png" width="64" height="64" /><image x="0" y="320" href="112965/278293.png" width="64" height="64" /><image x="64" y="320" href="112965/279546.png" width="64" height="64" /><image x="128" y="320" href="112965/279918.png" width="64" height="64" /><image x="192" y="320" href="112965/280195.png" width="64" height="64" /><image x="256" y="320" href="112965/278219.png" width="64" height="64" /><image x="320" y="320" href="112965/278720.png" width="64" height="64" /><image x="384" y="320" href="112965/280187.png" width="64" height="64" /><image x="448" y="320" href="112965/279904.png" width="64" height="64" /><image x="512" y="320" href="112965/279905.png" width="64" height="64" /><image x="0" y="384" href="112965/279913.png" width="64" height="64" /><image x="64" y="384" href="112965/279545.png" width="64" height="64" /><image x="128" y="384" href="112965/279580.png" width="64" height="64" /><image x="192" y="384" href="112965/280461.png" width="64" height="64" /><image x="256" y="384" href="112965/280469.png" width="64" height="64" /><image x="320" y="384" href="112965/279581.png" width="64" height="64" /><image x="384" y="384" href="112965/279438.png" width="64" height="64" /><image x="448" y="384" href="112965/278719.png" width="64" height="64" /><image x="512" y="384" href="112965/278721.png" width="64" height="64" /><image x="0" y="448" href="112965/278672.png" width="64" height="64" /><image x="64" y="448" href="112965/281454.png" width="64" height="64" /></svg>