<?xml version="1.0" encoding="UTF-8"?>
<svg xmlns="http://www.w3.org/2000/svg" version="1.1" height="512" width="512"><rect x="0" y="0" width="512" height="512" fill="rgb(192,192,192)" /><image x="0" y="0" href="114382/214532.png" width="64" height="64" /><image x="64" y="0" href="114382/199622.png" width="64" height="64" /><image x="128" y="0" href="114382/199358.png" width="64" height="64" /><image x="192" y="0" href="114382/199493.png" width="64" height="64" /><image x="256" y="0" href="114382/214714.png" width="64" height="64" /><image x="320" y="0" href="114382/199216.png" width="64" height="64" /><image x="384" y="0" href="114382/214512.png" width="64" height="64" /><image x="448" y="0" href="114382/238952.png" width="64" height="64" /><image x="0" y="64" href="114382/199255.png" width="64" height="64" /><image x="64" y="64" href="114382/238949.png" width="64" height="64" /><image x="128" y="64" href="114382/199302.png" width="64" height="64" /><image x="192" y="64" href="114382/199431.png" width="64" height="64" /><image x="256" y="64" href="114382/199621.png" width="64" height="64" /><image x="320" y="64" href="114382/199356.png" width="64" height="64" /><image x="384" y="64" href="114382/238833.png" width="64" height="64" /><image x="448" y="64" href="114382/199357.png" width="64" height="64" /><image x="0" y="128" href="114382/207140.png" width="64" height="64" /><image x="64" y="128" href="114382/199256.png" width="64" height="64" /><image x="128" y="128" href="114382/208899.png" width="64" height="64" /><image x="192" y="128" href="114382/208895.png" width="64" height="64" /><image x="256" y="128" href="114382/208754.png" width="64" height="64" /><image x="320" y="128" href="114382/208753.png" width="64" height="64" /><image x="384" y="128" href="114382/208503.png" width="64" height="64" /><image x="448" y="128" href="114382/208747.png" width="64" height="64" /><image x="0" y="192" href="114382/208898.png" width="64" height="64" /><image x="64" y="192" href="114382/208749.png" width="64" height="64" /><image x="128" y="192" href="114382/208760.png" width="64" height="64" /><image x="192" y="192" href="114382/208750.png" width="64" height="64" /><image x="256" y="192" href="114382/208763.png" width="64" height="64" /><image x="320" y="192" href="114382/208752.png" width="64" height="64" /><image x="384" y="192" href="114382/200621.png" width="64" height="64" /><image x="448" y="192" href="114382/200682.png" width="64" height="64" /><image x="0" y="256" href="114382/200584.png" width="64" height="64" /><image x="64" y="256" href="114382/199355.png" width="64" height="64" /><image x="128" y="256" href="114382/199254.png" width="64" height="64" /><image x="192" y="256" href="114382/208454.png" width="64" height="64" /><image x="256" y="256" href="114382/208162.png" width="64" height="64" /><image x="320" y="256" href="114382/208504.png" width="64" height="64" /><image x="384" y="256" href="114382/208897.png" width="64" height="64" /><image x="448" y="256" href="114382/208896.png" width="64" height="64" /><image x="0" y="320" href="114382/208746.png" width="64" height="64" /><image x="64" y="320" href="114382/208748.png" width="64" height="64" /><image x="128" y="320" href="114382/208745.png" width="64" height="64" /><image x="192" y="320" href="114382/220873.png" width="64" height="64" /><image x="256" y="320" href="114382/220891.png" width="64" height="64" /><image x="320" y="320" href="114382/278512.png" width="64" height="64" /><image x="384" y="320" href="114382/278525.png" width="64" height="64" /><image x="448" y="320" href="114382/278546.png" width="64" height="64" /><image x="0" y="384" href="114382/278548.png" width="64" height="64" /><image x="64" y="384" href="114382/278584.png" width="64" height="64" /></svg>