<?xml version="1.0" encoding="UTF-8"?>
<svg xmlns="http://www.w3.org/2000/svg" version="1.1" height="320" width="320"><rect x="0" y="0" width="320" height="320" fill="rgb(192,192,192)" /><image x="0" y="0" href="119522/208946.png" width="64" height="64" /><image x="64" y="0" href="119522/208755.png" width="64" height="64" /><image x="128" y="0" href="119522/208744.png" width="64" height="64" /><image x="192" y="0" href="119522/208825.png" width="64" height="64" /><image x="256" y="0" href="119522/213472.png" width="64" height="64" /><image x="0" y="64" href="119522/213421.png" width="64" height="64" /><image x="64" y="64" href="119522/213444.png" width="64" height="64" /><image x="128" y="64" href="119522/213328.png" width="64" height="64" /><image x="192" y="64" href="119522/213440.png" width="64" height="64" /><image x="256" y="64" href="119522/208859.png" width="64" height="64" /><image x="0" y="128" href="119522/208860.png" width="64" height="64" /><image x="64" y="128" href="119522/208861.png" width="64" height="64" /><image x="128" y="128" href="119522/208809.png" width="64" height="64" /><image x="192" y="128" href="119522/209438.png" width="64" height="64" /><image x="256" y="128" href="119522/209360.png" width="64" height="64" /><image x="0" y="192" href="119522/208769.png" width="64" height="64" /><image x="64" y="192" href="119522/214047.png" width="64" height="64" /><image x="128" y="192" href="119522/208880.png" width="64" height="64" /><image x="192" y="192" href="119522/209444.png" width="64" height="64" /><image x="256" y="192" href="119522/208893.png" width="64" height="64" /><image x="0" y="256" href="119522/208911.png" width="64" height="64" /><image x="64" y="256" href="119522/213508.png" width="64" height="64" /></svg>