<?xml version="1.0" encoding="UTF-8"?>
<svg xmlns="http://www.w3.org/2000/svg" version="1.1" height="576" width="576"><rect x="0" y="0" width="576" height="576" fill="rgb(192,192,192)" /><image x="0" y="0" href="122512/214243.png" width="64" height="64" /><image x="64" y="0" href="122512/214352.png" width="64" height="64" /><image x="128" y="0" href="122512/213878.png" width="64" height="64" /><image x="192" y="0" href="122512/214393.png" width="64" height="64" /><image x="256" y="0" href="122512/213880.png" width="64" height="64" /><image x="320" y="0" href="122512/214322.png" width="64" height="64" /><image x="384" y="0" href="122512/214365.png" width="64" height="64" /><image x="448" y="0" href="122512/214353.png" width="64" height="64" /><image x="512" y="0" href="122512/214160.png" width="64" height="64" /><image x="0" y="64" href="122512/214605.png" width="64" height="64" /><image x="64" y="64" href="122512/216747.png" width="64" height="64" /><image x="128" y="64" href="122512/216718.png" width="64" height="64" /><image x="192" y="64" href="122512/214897.png" width="64" height="64" /><image x="256" y="64" href="122512/214896.png" width="64" height="64" /><image x="320" y="64" href="122512/214562.png" width="64" height="64" /><image x="384" y="64" href="122512/214890.png" width="64" height="64" /><image x="448" y="64" href="122512/214364.png" width="64" height="64" /><image x="512" y="64" href="122512/214807.png" width="64" height="64" /><image x="0" y="128" href="122512/214811.png" width="64" height="64" /><image x="64" y="128" href="122512/216792.png" width="64" height="64" /><image x="128" y="128" href="122512/216890.png" width="64" height="64" /><image x="192" y="128" href="122512/216974.png" width="64" height="64" /><image x="256" y="128" href="122512/218078.png" width="64" height="64" /><image x="320" y="128" href="122512/218202.png" width="64" height="64" /><image x="384" y="128" href="122512/218317.png" width="64" height="64" /><image x="448" y="128" href="122512/218275.png" width="64" height="64" /><image x="512" y="128" href="122512/218313.png" width="64" height="64" /><image x="0" y="192" href="122512/218269.png" width="64" height="64" /><image x="64" y="192" href="122512/238001.png" width="64" height="64" /><image x="128" y="192" href="122512/238038.png" width="64" height="64" /><image x="192" y="192" href="122512/238337.png" width="64" height="64" /><image x="256" y="192" href="122512/251276.png" width="64" height="64" /><image x="320" y="192" href="122512/238338.png" width="64" height="64" /><image x="384" y="192" href="122512/238415.png" width="64" height="64" /><image x="448" y="192" href="122512/238407.png" width="64" height="64" /><image x="512" y="192" href="122512/238887.png" width="64" height="64" /><image x="0" y="256" href="122512/238000.png" width="64" height="64" /><image x="64" y="256" href="122512/238843.png" width="64" height="64" /><image x="128" y="256" href="122512/238891.png" width="64" height="64" /><image x="192" y="256" href="122512/239308.png" width="64" height="64" /><image x="256" y="256" href="122512/239505.png" width="64" height="64" /><image x="320" y="256" href="122512/239510.png" width="64" height="64" /><image x="384" y="256" href="122512/239519.png" width="64" height="64" /><image x="448" y="256" href="122512/239485.png" width="64" height="64" /><image x="512" y="256" href="122512/240530.png" width="64" height="64" /><image x="0" y="320" href="122512/240510.png" width="64" height="64" /><image x="64" y="320" href="122512/247684.png" width="64" height="64" /><image x="128" y="320" href="122512/248276.png" width="64" height="64" /><image x="192" y="320" href="122512/248354.png" width="64" height="64" /><image x="256" y="320" href="122512/240447.png" width="64" height="64" /><image x="320" y="320" href="122512/240777.png" width="64" height="64" /><image x="384" y="320" href="122512/241109.png" width="64" height="64" /><image x="448" y="320" href="122512/241110.png" width="64" height="64" /><image x="512" y="320" href="122512/240465.png" width="64" height="64" /><image x="0" y="384" href="122512/240734.png" width="64" height="64" /><image x="64" y="384" href="122512/240933.png" width="64" height="64" /><image x="128" y="384" href="122512/240766.png" width="64" height="64" /><image x="192" y="384" href="122512/240528.png" width="64" height="64" /><image x="256" y="384" href="122512/237428.png" width="64" height="64" /><image x="320" y="384" href="122512/240934.png" width="64" height="64" /><image x="384" y="384" href="122512/242430.png" width="64" height="64" /><image x="448" y="384" href="122512/242398.png" width="64" height="64" /><image x="512" y="384" href="122512/241839.png" width="64" height="64" /><image x="0" y="448" href="122512/242464.png" width="64" height="64" /><image x="64" y="448" href="122512/242513.png" width="64" height="64" /><image x="128" y="448" href="122512/246691.png" width="64" height="64" /><image x="192" y="448" href="122512/246788.png" width="64" height="64" /><image x="256" y="448" href="122512/247268.png" width="64" height="64" /><image x="320" y="448" href="122512/247270.png" width="64" height="64" /><image x="384" y="448" href="122512/247149.png" width="64" height="64" /><image x="448" y="448" href="122512/243620.png" width="64" height="64" /></svg>