<?xml version="1.0" encoding="UTF-8"?>
<svg xmlns="http://www.w3.org/2000/svg" version="1.1" height="320" width="320"><rect x="0" y="0" width="320" height="320" fill="rgb(192,192,192)" /><image x="0" y="0" href="12268/109946.png" width="64" height="64" /><image x="64" y="0" href="12268/109945.png" width="64" height="64" /><image x="128" y="0" href="12268/45356.png" width="64" height="64" /><image x="192" y="0" href="12268/51476.png" width="64" height="64" /><image x="256" y="0" href="12268/46083.png" width="64" height="64" /><image x="0" y="64" href="12268/46069.png" width="64" height="64" /><image x="64" y="64" href="12268/99842.png" width="64" height="64" /><image x="128" y="64" href="12268/46082.png" width="64" height="64" /><image x="192" y="64" href="12268/46081.png" width="64" height="64" /><image x="256" y="64" href="12268/46080.png" width="64" height="64" /><image x="0" y="128" href="12268/45367.png" width="64" height="64" /><image x="64" y="128" href="12268/45360.png" width="64" height="64" /><image x="128" y="128" href="12268/46085.png" width="64" height="64" /><image x="192" y="128" href="12268/46053.png" width="64" height="64" /><image x="256" y="128" href="12268/46050.png" width="64" height="64" /><image x="0" y="192" href="12268/46044.png" width="64" height="64" /><image x="64" y="192" href="12268/46056.png" width="64" height="64" /><image x="128" y="192" href="12268/46318.png" width="64" height="64" /><image x="192" y="192" href="12268/45214.png" width="64" height="64" /><image x="256" y="192" href="12268/45216.png" width="64" height="64" /><image x="0" y="256" href="12268/45226.png" width="64" height="64" /><image x="64" y="256" href="12268/99841.png" width="64" height="64" /></svg>