<?xml version="1.0" encoding="UTF-8"?>
<svg xmlns="http://www.w3.org/2000/svg" version="1.1" height="640" width="640"><rect x="0" y="0" width="640" height="640" fill="rgb(192,192,192)" /><image x="0" y="0" href="122696/214421.png" width="64" height="64" /><image x="64" y="0" href="122696/214285.png" width="64" height="64" /><image x="128" y="0" href="122696/214248.png" width="64" height="64" /><image x="192" y="0" href="122696/214245.png" width="64" height="64" /><image x="256" y="0" href="122696/214326.png" width="64" height="64" /><image x="320" y="0" href="122696/214309.png" width="64" height="64" /><image x="384" y="0" href="122696/214280.png" width="64" height="64" /><image x="448" y="0" href="122696/214196.png" width="64" height="64" /><image x="512" y="0" href="122696/214111.png" width="64" height="64" /><image x="576" y="0" href="122696/214286.png" width="64" height="64" /><image x="0" y="64" href="122696/214197.png" width="64" height="64" /><image x="64" y="64" href="122696/215854.png" width="64" height="64" /><image x="128" y="64" href="122696/215822.png" width="64" height="64" /><image x="192" y="64" href="122696/215825.png" width="64" height="64" /><image x="256" y="64" href="122696/215863.png" width="64" height="64" /><image x="320" y="64" href="122696/215847.png" width="64" height="64" /><image x="384" y="64" href="122696/216083.png" width="64" height="64" /><image x="448" y="64" href="122696/216012.png" width="64" height="64" /><image x="512" y="64" href="122696/216098.png" width="64" height="64" /><image x="576" y="64" href="122696/216140.png" width="64" height="64" /><image x="0" y="128" href="122696/214346.png" width="64" height="64" /><image x="64" y="128" href="122696/214242.png" width="64" height="64" /><image x="128" y="128" href="122696/216139.png" width="64" height="64" /><image x="192" y="128" href="122696/214198.png" width="64" height="64" /><image x="256" y="128" href="122696/214347.png" width="64" height="64" /><image x="320" y="128" href="122696/214244.png" width="64" height="64" /><image x="384" y="128" href="122696/214419.png" width="64" height="64" /><image x="448" y="128" href="122696/214239.png" width="64" height="64" /><image x="512" y="128" href="122696/214422.png" width="64" height="64" /><image x="576" y="128" href="122696/214206.png" width="64" height="64" /><image x="0" y="192" href="122696/214372.png" width="64" height="64" /><image x="64" y="192" href="122696/214207.png" width="64" height="64" /><image x="128" y="192" href="122696/214269.png" width="64" height="64" /><image x="192" y="192" href="122696/216729.png" width="64" height="64" /><image x="256" y="192" href="122696/214423.png" width="64" height="64" /><image x="320" y="192" href="122696/214315.png" width="64" height="64" /><image x="384" y="192" href="122696/214314.png" width="64" height="64" /><image x="448" y="192" href="122696/214313.png" width="64" height="64" /><image x="512" y="192" href="122696/214307.png" width="64" height="64" /><image x="576" y="192" href="122696/214420.png" width="64" height="64" /><image x="0" y="256" href="122696/214306.png" width="64" height="64" /><image x="64" y="256" href="122696/214806.png" width="64" height="64" /><image x="128" y="256" href="122696/214337.png" width="64" height="64" /><image x="192" y="256" href="122696/214241.png" width="64" height="64" /><image x="256" y="256" href="122696/214113.png" width="64" height="64" /><image x="320" y="256" href="122696/214246.png" width="64" height="64" /><image x="384" y="256" href="122696/214380.png" width="64" height="64" /><image x="448" y="256" href="122696/215043.png" width="64" height="64" /><image x="512" y="256" href="122696/215050.png" width="64" height="64" /><image x="576" y="256" href="122696/215022.png" width="64" height="64" /><image x="0" y="320" href="122696/215013.png" width="64" height="64" /><image x="64" y="320" href="122696/215036.png" width="64" height="64" /><image x="128" y="320" href="122696/215105.png" width="64" height="64" /><image x="192" y="320" href="122696/215141.png" width="64" height="64" /><image x="256" y="320" href="122696/215065.png" width="64" height="64" /><image x="320" y="320" href="122696/215082.png" width="64" height="64" /><image x="384" y="320" href="122696/215145.png" width="64" height="64" /><image x="448" y="320" href="122696/215035.png" width="64" height="64" /><image x="512" y="320" href="122696/215051.png" width="64" height="64" /><image x="576" y="320" href="122696/215112.png" width="64" height="64" /><image x="0" y="384" href="122696/215025.png" width="64" height="64" /><image x="64" y="384" href="122696/215118.png" width="64" height="64" /><image x="128" y="384" href="122696/215040.png" width="64" height="64" /><image x="192" y="384" href="122696/214992.png" width="64" height="64" /><image x="256" y="384" href="122696/215056.png" width="64" height="64" /><image x="320" y="384" href="122696/215037.png" width="64" height="64" /><image x="384" y="384" href="122696/215002.png" width="64" height="64" /><image x="448" y="384" href="122696/215032.png" width="64" height="64" /><image x="512" y="384" href="122696/215033.png" width="64" height="64" /><image x="576" y="384" href="122696/215028.png" width="64" height="64" /><image x="0" y="448" href="122696/215842.png" width="64" height="64" /><image x="64" y="448" href="122696/215014.png" width="64" height="64" /><image x="128" y="448" href="122696/215003.png" width="64" height="64" /><image x="192" y="448" href="122696/215127.png" width="64" height="64" /><image x="256" y="448" href="122696/215052.png" width="64" height="64" /><image x="320" y="448" href="122696/215053.png" width="64" height="64" /><image x="384" y="448" href="122696/215817.png" width="64" height="64" /><image x="448" y="448" href="122696/215137.png" width="64" height="64" /><image x="512" y="448" href="122696/215857.png" width="64" height="64" /><image x="576" y="448" href="122696/215027.png" width="64" height="64" /><image x="0" y="512" href="122696/215846.png" width="64" height="64" /><image x="64" y="512" href="122696/254714.png" width="64" height="64" /><image x="128" y="512" href="122696/254648.png" width="64" height="64" /></svg>