<?xml version="1.0" encoding="UTF-8"?>
<svg xmlns="http://www.w3.org/2000/svg" version="1.1" height="640" width="640"><rect x="0" y="0" width="640" height="640" fill="rgb(192,192,192)" /><image x="0" y="0" href="122978/104430.png" width="64" height="64" /><image x="64" y="0" href="122978/33774.png" width="64" height="64" /><image x="128" y="0" href="122978/36362.png" width="64" height="64" /><image x="192" y="0" href="122978/36363.png" width="64" height="64" /><image x="256" y="0" href="122978/95773.png" width="64" height="64" /><image x="320" y="0" href="122978/36372.png" width="64" height="64" /><image x="384" y="0" href="122978/36364.png" width="64" height="64" /><image x="448" y="0" href="122978/34039.png" width="64" height="64" /><image x="512" y="0" href="122978/104432.png" width="64" height="64" /><image x="576" y="0" href="122978/36374.png" width="64" height="64" /><image x="0" y="64" href="122978/34038.png" width="64" height="64" /><image x="64" y="64" href="122978/33775.png" width="64" height="64" /><image x="128" y="64" href="122978/34022.png" width="64" height="64" /><image x="192" y="64" href="122978/34055.png" width="64" height="64" /><image x="256" y="64" href="122978/104433.png" width="64" height="64" /><image x="320" y="64" href="122978/34035.png" width="64" height="64" /><image x="384" y="64" href="122978/34023.png" width="64" height="64" /><image x="448" y="64" href="122978/34070.png" width="64" height="64" /><image x="512" y="64" href="122978/34032.png" width="64" height="64" /><image x="576" y="64" href="122978/36246.png" width="64" height="64" /><image x="0" y="128" href="122978/34021.png" width="64" height="64" /><image x="64" y="128" href="122978/34040.png" width="64" height="64" /><image x="128" y="128" href="122978/34012.png" width="64" height="64" /><image x="192" y="128" href="122978/36515.png" width="64" height="64" /><image x="256" y="128" href="122978/36509.png" width="64" height="64" /><image x="320" y="128" href="122978/34024.png" width="64" height="64" /><image x="384" y="128" href="122978/34025.png" width="64" height="64" /><image x="448" y="128" href="122978/34020.png" width="64" height="64" /><image x="512" y="128" href="122978/36375.png" width="64" height="64" /><image x="576" y="128" href="122978/206198.png" width="64" height="64" /><image x="0" y="192" href="122978/206255.png" width="64" height="64" /><image x="64" y="192" href="122978/206119.png" width="64" height="64" /><image x="128" y="192" href="122978/206307.png" width="64" height="64" /><image x="192" y="192" href="122978/208786.png" width="64" height="64" /><image x="256" y="192" href="122978/206199.png" width="64" height="64" /><image x="320" y="192" href="122978/206055.png" width="64" height="64" /><image x="384" y="192" href="122978/206060.png" width="64" height="64" /><image x="448" y="192" href="122978/205821.png" width="64" height="64" /><image x="512" y="192" href="122978/205822.png" width="64" height="64" /><image x="576" y="192" href="122978/205826.png" width="64" height="64" /><image x="0" y="256" href="122978/205825.png" width="64" height="64" /><image x="64" y="256" href="122978/205823.png" width="64" height="64" /><image x="128" y="256" href="122978/206053.png" width="64" height="64" /><image x="192" y="256" href="122978/205824.png" width="64" height="64" /><image x="256" y="256" href="122978/205819.png" width="64" height="64" /><image x="320" y="256" href="122978/205820.png" width="64" height="64" /><image x="384" y="256" href="122978/206025.png" width="64" height="64" /><image x="448" y="256" href="122978/206168.png" width="64" height="64" /><image x="512" y="256" href="122978/206436.png" width="64" height="64" /><image x="576" y="256" href="122978/206071.png" width="64" height="64" /><image x="0" y="320" href="122978/206058.png" width="64" height="64" /><image x="64" y="320" href="122978/206059.png" width="64" height="64" /><image x="128" y="320" href="122978/206072.png" width="64" height="64" /><image x="192" y="320" href="122978/206054.png" width="64" height="64" /><image x="256" y="320" href="122978/206061.png" width="64" height="64" /><image x="320" y="320" href="122978/206364.png" width="64" height="64" /><image x="384" y="320" href="122978/206365.png" width="64" height="64" /><image x="448" y="320" href="122978/206458.png" width="64" height="64" /><image x="512" y="320" href="122978/206599.png" width="64" height="64" /><image x="576" y="320" href="122978/206362.png" width="64" height="64" /><image x="0" y="384" href="122978/214734.png" width="64" height="64" /><image x="64" y="384" href="122978/214586.png" width="64" height="64" /><image x="128" y="384" href="122978/206594.png" width="64" height="64" /><image x="192" y="384" href="122978/206388.png" width="64" height="64" /><image x="256" y="384" href="122978/206435.png" width="64" height="64" /><image x="320" y="384" href="122978/206085.png" width="64" height="64" /><image x="384" y="384" href="122978/214680.png" width="64" height="64" /><image x="448" y="384" href="122978/214678.png" width="64" height="64" /><image x="512" y="384" href="122978/206070.png" width="64" height="64" /><image x="576" y="384" href="122978/206089.png" width="64" height="64" /><image x="0" y="448" href="122978/206056.png" width="64" height="64" /><image x="64" y="448" href="122978/206087.png" width="64" height="64" /><image x="128" y="448" href="122978/206073.png" width="64" height="64" /><image x="192" y="448" href="122978/206069.png" width="64" height="64" /><image x="256" y="448" href="122978/206057.png" width="64" height="64" /><image x="320" y="448" href="122978/206088.png" width="64" height="64" /><image x="384" y="448" href="122978/206441.png" width="64" height="64" /><image x="448" y="448" href="122978/206457.png" width="64" height="64" /><image x="512" y="448" href="122978/206437.png" width="64" height="64" /><image x="576" y="448" href="122978/206703.png" width="64" height="64" /><image x="0" y="512" href="122978/214679.png" width="64" height="64" /><image x="64" y="512" href="122978/214947.png" width="64" height="64" /><image x="128" y="512" href="122978/214588.png" width="64" height="64" /><image x="192" y="512" href="122978/214681.png" width="64" height="64" /><image x="256" y="512" href="122978/206351.png" width="64" height="64" /><image x="320" y="512" href="122978/206708.png" width="64" height="64" /><image x="384" y="512" href="122978/206640.png" width="64" height="64" /><image x="448" y="512" href="122978/206655.png" width="64" height="64" /><image x="512" y="512" href="122978/265961.png" width="64" height="64" /></svg>