<?xml version="1.0" encoding="UTF-8"?>
<svg xmlns="http://www.w3.org/2000/svg" version="1.1" height="384" width="384"><rect x="0" y="0" width="384" height="384" fill="rgb(192,192,192)" /><image x="0" y="0" href="12411/46240.png" width="64" height="64" /><image x="64" y="0" href="12411/46236.png" width="64" height="64" /><image x="128" y="0" href="12411/46241.png" width="64" height="64" /><image x="192" y="0" href="12411/46242.png" width="64" height="64" /><image x="256" y="0" href="12411/46243.png" width="64" height="64" /><image x="320" y="0" href="12411/46656.png" width="64" height="64" /><image x="0" y="64" href="12411/46239.png" width="64" height="64" /><image x="64" y="64" href="12411/46238.png" width="64" height="64" /><image x="128" y="64" href="12411/46237.png" width="64" height="64" /><image x="192" y="64" href="12411/45704.png" width="64" height="64" /><image x="256" y="64" href="12411/45700.png" width="64" height="64" /><image x="320" y="64" href="12411/45703.png" width="64" height="64" /><image x="0" y="128" href="12411/46657.png" width="64" height="64" /><image x="64" y="128" href="12411/45688.png" width="64" height="64" /><image x="128" y="128" href="12411/45696.png" width="64" height="64" /><image x="192" y="128" href="12411/46247.png" width="64" height="64" /><image x="256" y="128" href="12411/46246.png" width="64" height="64" /><image x="320" y="128" href="12411/46245.png" width="64" height="64" /><image x="0" y="192" href="12411/46251.png" width="64" height="64" /><image x="64" y="192" href="12411/46250.png" width="64" height="64" /><image x="128" y="192" href="12411/46249.png" width="64" height="64" /><image x="192" y="192" href="12411/45702.png" width="64" height="64" /><image x="256" y="192" href="12411/45698.png" width="64" height="64" /><image x="320" y="192" href="12411/45697.png" width="64" height="64" /><image x="0" y="256" href="12411/45699.png" width="64" height="64" /><image x="64" y="256" href="12411/45701.png" width="64" height="64" /></svg>