<?xml version="1.0" encoding="UTF-8"?>
<svg xmlns="http://www.w3.org/2000/svg" version="1.1" height="448" width="448"><rect x="0" y="0" width="448" height="448" fill="rgb(192,192,192)" /><image x="0" y="0" href="125400/220516.png" width="64" height="64" /><image x="64" y="0" href="125400/218355.png" width="64" height="64" /><image x="128" y="0" href="125400/219521.png" width="64" height="64" /><image x="192" y="0" href="125400/219652.png" width="64" height="64" /><image x="256" y="0" href="125400/219522.png" width="64" height="64" /><image x="320" y="0" href="125400/218076.png" width="64" height="64" /><image x="384" y="0" href="125400/219694.png" width="64" height="64" /><image x="0" y="64" href="125400/218033.png" width="64" height="64" /><image x="64" y="64" href="125400/218272.png" width="64" height="64" /><image x="128" y="64" href="125400/221631.png" width="64" height="64" /><image x="192" y="64" href="125400/222981.png" width="64" height="64" /><image x="256" y="64" href="125400/225691.png" width="64" height="64" /><image x="320" y="64" href="125400/226301.png" width="64" height="64" /><image x="384" y="64" href="125400/230472.png" width="64" height="64" /><image x="0" y="128" href="125400/239286.png" width="64" height="64" /><image x="64" y="128" href="125400/240512.png" width="64" height="64" /><image x="128" y="128" href="125400/247304.png" width="64" height="64" /><image x="192" y="128" href="125400/220748.png" width="64" height="64" /><image x="256" y="128" href="125400/220896.png" width="64" height="64" /><image x="320" y="128" href="125400/221298.png" width="64" height="64" /><image x="384" y="128" href="125400/221138.png" width="64" height="64" /><image x="0" y="192" href="125400/221299.png" width="64" height="64" /><image x="64" y="192" href="125400/221291.png" width="64" height="64" /><image x="128" y="192" href="125400/221305.png" width="64" height="64" /><image x="192" y="192" href="125400/221249.png" width="64" height="64" /><image x="256" y="192" href="125400/221714.png" width="64" height="64" /><image x="320" y="192" href="125400/221708.png" width="64" height="64" /><image x="384" y="192" href="125400/221632.png" width="64" height="64" /><image x="0" y="256" href="125400/221717.png" width="64" height="64" /><image x="64" y="256" href="125400/280808.png" width="64" height="64" /><image x="128" y="256" href="125400/280998.png" width="64" height="64" /><image x="192" y="256" href="125400/281028.png" width="64" height="64" /><image x="256" y="256" href="125400/281027.png" width="64" height="64" /><image x="320" y="256" href="125400/281032.png" width="64" height="64" /><image x="384" y="256" href="125400/281046.png" width="64" height="64" /><image x="0" y="320" href="125400/281042.png" width="64" height="64" /><image x="64" y="320" href="125400/281043.png" width="64" height="64" /><image x="128" y="320" href="125400/281020.png" width="64" height="64" /><image x="192" y="320" href="125400/281008.png" width="64" height="64" /><image x="256" y="320" href="125400/281025.png" width="64" height="64" /></svg>