<?xml version="1.0" encoding="UTF-8"?>
<svg xmlns="http://www.w3.org/2000/svg" version="1.1" height="1024" width="1024"><rect x="0" y="0" width="1024" height="1024" fill="rgb(192,192,192)" /><image x="0" y="0" href="12678/48981.png" width="64" height="64" /><image x="64" y="0" href="12678/47303.png" width="64" height="64" /><image x="128" y="0" href="12678/46705.png" width="64" height="64" /><image x="192" y="0" href="12678/47070.png" width="64" height="64" /><image x="256" y="0" href="12678/47042.png" width="64" height="64" /><image x="320" y="0" href="12678/46901.png" width="64" height="64" /><image x="384" y="0" href="12678/47462.png" width="64" height="64" /><image x="448" y="0" href="12678/50818.png" width="64" height="64" /><image x="512" y="0" href="12678/55371.png" width="64" height="64" /><image x="576" y="0" href="12678/46702.png" width="64" height="64" /><image x="640" y="0" href="12678/50235.png" width="64" height="64" /><image x="704" y="0" href="12678/50236.png" width="64" height="64" /><image x="768" y="0" href="12678/50642.png" width="64" height="64" /><image x="832" y="0" href="12678/51598.png" width="64" height="64" /><image x="896" y="0" href="12678/47065.png" width="64" height="64" /><image x="960" y="0" href="12678/46709.png" width="64" height="64" /><image x="0" y="64" href="12678/46703.png" width="64" height="64" /><image x="64" y="64" href="12678/46719.png" width="64" height="64" /><image x="128" y="64" href="12678/46981.png" width="64" height="64" /><image x="192" y="64" href="12678/47031.png" width="64" height="64" /><image x="256" y="64" href="12678/47413.png" width="64" height="64" /><image x="320" y="64" href="12678/48967.png" width="64" height="64" /><image x="384" y="64" href="12678/46349.png" width="64" height="64" /><image x="448" y="64" href="12678/47307.png" width="64" height="64" /><image x="512" y="64" href="12678/47048.png" width="64" height="64" /><image x="576" y="64" href="12678/47391.png" width="64" height="64" /><image x="640" y="64" href="12678/47027.png" width="64" height="64" /><image x="704" y="64" href="12678/47049.png" width="64" height="64" /><image x="768" y="64" href="12678/48965.png" width="64" height="64" /><image x="832" y="64" href="12678/48964.png" width="64" height="64" /><image x="896" y="64" href="12678/47028.png" width="64" height="64" /><image x="960" y="64" href="12678/46777.png" width="64" height="64" /><image x="0" y="128" href="12678/47086.png" width="64" height="64" /><image x="64" y="128" href="12678/46302.png" width="64" height="64" /><image x="128" y="128" href="12678/47393.png" width="64" height="64" /><image x="192" y="128" href="12678/48956.png" width="64" height="64" /><image x="256" y="128" href="12678/46294.png" width="64" height="64" /><image x="320" y="128" href="12678/47385.png" width="64" height="64" /><image x="384" y="128" href="12678/47392.png" width="64" height="64" /><image x="448" y="128" href="12678/46706.png" width="64" height="64" /><image x="512" y="128" href="12678/47696.png" width="64" height="64" /><image x="576" y="128" href="12678/46978.png" width="64" height="64" /><image x="640" y="128" href="12678/49718.png" width="64" height="64" /><image x="704" y="128" href="12678/47046.png" width="64" height="64" /><image x="768" y="128" href="12678/48954.png" width="64" height="64" /><image x="832" y="128" href="12678/47043.png" width="64" height="64" /><image x="896" y="128" href="12678/47388.png" width="64" height="64" /><image x="960" y="128" href="12678/47067.png" width="64" height="64" /><image x="0" y="192" href="12678/111297.png" width="64" height="64" /><image x="64" y="192" href="12678/46817.png" width="64" height="64" /><image x="128" y="192" href="12678/46846.png" width="64" height="64" /><image x="192" y="192" href="12678/47019.png" width="64" height="64" /><image x="256" y="192" href="12678/46828.png" width="64" height="64" /><image x="320" y="192" href="12678/46890.png" width="64" height="64" /><image x="384" y="192" href="12678/47386.png" width="64" height="64" /><image x="448" y="192" href="12678/47029.png" width="64" height="64" /><image x="512" y="192" href="12678/47384.png" width="64" height="64" /><image x="576" y="192" href="12678/46857.png" width="64" height="64" /><image x="640" y="192" href="12678/46826.png" width="64" height="64" /><image x="704" y="192" href="12678/46847.png" width="64" height="64" /><image x="768" y="192" href="12678/46840.png" width="64" height="64" /><image x="832" y="192" href="12678/46833.png" width="64" height="64" /><image x="896" y="192" href="12678/46852.png" width="64" height="64" /><image x="960" y="192" href="12678/46834.png" width="64" height="64" /><image x="0" y="256" href="12678/46790.png" width="64" height="64" /><image x="64" y="256" href="12678/46285.png" width="64" height="64" /><image x="128" y="256" href="12678/47412.png" width="64" height="64" /><image x="192" y="256" href="12678/47044.png" width="64" height="64" /><image x="256" y="256" href="12678/46881.png" width="64" height="64" /><image x="320" y="256" href="12678/46837.png" width="64" height="64" /><image x="384" y="256" href="12678/46870.png" width="64" height="64" /><image x="448" y="256" href="12678/46860.png" width="64" height="64" /><image x="512" y="256" href="12678/46841.png" width="64" height="64" /><image x="576" y="256" href="12678/46883.png" width="64" height="64" /><image x="640" y="256" href="12678/46865.png" width="64" height="64" /><image x="704" y="256" href="12678/47069.png" width="64" height="64" /><image x="768" y="256" href="12678/48955.png" width="64" height="64" /><image x="832" y="256" href="12678/47050.png" width="64" height="64" /><image x="896" y="256" href="12678/47368.png" width="64" height="64" /><image x="960" y="256" href="12678/47364.png" width="64" height="64" /><image x="0" y="320" href="12678/47365.png" width="64" height="64" /><image x="64" y="320" href="12678/48960.png" width="64" height="64" /><image x="128" y="320" href="12678/47366.png" width="64" height="64" /><image x="192" y="320" href="12678/48963.png" width="64" height="64" /><image x="256" y="320" href="12678/47378.png" width="64" height="64" /><image x="320" y="320" href="12678/48958.png" width="64" height="64" /><image x="384" y="320" href="12678/48959.png" width="64" height="64" /><image x="448" y="320" href="12678/48961.png" width="64" height="64" /><image x="512" y="320" href="12678/48962.png" width="64" height="64" /><image x="576" y="320" href="12678/48957.png" width="64" height="64" /><image x="640" y="320" href="12678/46855.png" width="64" height="64" /><image x="704" y="320" href="12678/46823.png" width="64" height="64" /><image x="768" y="320" href="12678/46821.png" width="64" height="64" /><image x="832" y="320" href="12678/46831.png" width="64" height="64" /><image x="896" y="320" href="12678/46809.png" width="64" height="64" /><image x="960" y="320" href="12678/46819.png" width="64" height="64" /><image x="0" y="384" href="12678/46836.png" width="64" height="64" /><image x="64" y="384" href="12678/47454.png" width="64" height="64" /><image x="128" y="384" href="12678/46814.png" width="64" height="64" /><image x="192" y="384" href="12678/47456.png" width="64" height="64" /><image x="256" y="384" href="12678/46830.png" width="64" height="64" /><image x="320" y="384" href="12678/48976.png" width="64" height="64" /><image x="384" y="384" href="12678/47408.png" width="64" height="64" /><image x="448" y="384" href="12678/47410.png" width="64" height="64" /><image x="512" y="384" href="12678/47409.png" width="64" height="64" /><image x="576" y="384" href="12678/47411.png" width="64" height="64" /><image x="640" y="384" href="12678/47405.png" width="64" height="64" /><image x="704" y="384" href="12678/47403.png" width="64" height="64" /><image x="768" y="384" href="12678/47407.png" width="64" height="64" /><image x="832" y="384" href="12678/47406.png" width="64" height="64" /><image x="896" y="384" href="12678/47404.png" width="64" height="64" /><image x="960" y="384" href="12678/47110.png" width="64" height="64" /><image x="0" y="448" href="12678/47091.png" width="64" height="64" /><image x="64" y="448" href="12678/47111.png" width="64" height="64" /><image x="128" y="448" href="12678/46309.png" width="64" height="64" /><image x="192" y="448" href="12678/46307.png" width="64" height="64" /><image x="256" y="448" href="12678/46308.png" width="64" height="64" /><image x="320" y="448" href="12678/47092.png" width="64" height="64" /><image x="384" y="448" href="12678/47153.png" width="64" height="64" /><image x="448" y="448" href="12678/47112.png" width="64" height="64" /><image x="512" y="448" href="12678/46835.png" width="64" height="64" /><image x="576" y="448" href="12678/46816.png" width="64" height="64" /><image x="640" y="448" href="12678/46808.png" width="64" height="64" /><image x="704" y="448" href="12678/46794.png" width="64" height="64" /><image x="768" y="448" href="12678/46798.png" width="64" height="64" /><image x="832" y="448" href="12678/46792.png" width="64" height="64" /><image x="896" y="448" href="12678/46800.png" width="64" height="64" /><image x="960" y="448" href="12678/46804.png" width="64" height="64" /><image x="0" y="512" href="12678/46811.png" width="64" height="64" /><image x="64" y="512" href="12678/46793.png" width="64" height="64" /><image x="128" y="512" href="12678/47399.png" width="64" height="64" /><image x="192" y="512" href="12678/47377.png" width="64" height="64" /><image x="256" y="512" href="12678/47375.png" width="64" height="64" /><image x="320" y="512" href="12678/47373.png" width="64" height="64" /><image x="384" y="512" href="12678/47376.png" width="64" height="64" /><image x="448" y="512" href="12678/47400.png" width="64" height="64" /><image x="512" y="512" href="12678/47402.png" width="64" height="64" /><image x="576" y="512" href="12678/47401.png" width="64" height="64" /><image x="640" y="512" href="12678/47374.png" width="64" height="64" /><image x="704" y="512" href="12678/47381.png" width="64" height="64" /><image x="768" y="512" href="12678/46854.png" width="64" height="64" /><image x="832" y="512" href="12678/46848.png" width="64" height="64" /><image x="896" y="512" href="12678/46827.png" width="64" height="64" /><image x="960" y="512" href="12678/46843.png" width="64" height="64" /><image x="0" y="576" href="12678/46832.png" width="64" height="64" /><image x="64" y="576" href="12678/46838.png" width="64" height="64" /><image x="128" y="576" href="12678/46861.png" width="64" height="64" /><image x="192" y="576" href="12678/48977.png" width="64" height="64" /><image x="256" y="576" href="12678/46839.png" width="64" height="64" /><image x="320" y="576" href="12678/46862.png" width="64" height="64" /><image x="384" y="576" href="12678/47126.png" width="64" height="64" /><image x="448" y="576" href="12678/47468.png" width="64" height="64" /><image x="512" y="576" href="12678/47121.png" width="64" height="64" /><image x="576" y="576" href="12678/47107.png" width="64" height="64" /><image x="640" y="576" href="12678/48982.png" width="64" height="64" /><image x="704" y="576" href="12678/47120.png" width="64" height="64" /><image x="768" y="576" href="12678/81265.png" width="64" height="64" /><image x="832" y="576" href="12678/47083.png" width="64" height="64" /><image x="896" y="576" href="12678/81266.png" width="64" height="64" /><image x="960" y="576" href="12678/48972.png" width="64" height="64" /><image x="0" y="640" href="12678/47148.png" width="64" height="64" /><image x="64" y="640" href="12678/47081.png" width="64" height="64" /><image x="128" y="640" href="12678/47134.png" width="64" height="64" /><image x="192" y="640" href="12678/47151.png" width="64" height="64" /><image x="256" y="640" href="12678/48999.png" width="64" height="64" /><image x="320" y="640" href="12678/47115.png" width="64" height="64" /><image x="384" y="640" href="12678/49000.png" width="64" height="64" /><image x="448" y="640" href="12678/46687.png" width="64" height="64" /><image x="512" y="640" href="12678/48971.png" width="64" height="64" /><image x="576" y="640" href="12678/47150.png" width="64" height="64" /><image x="640" y="640" href="12678/46740.png" width="64" height="64" /><image x="704" y="640" href="12678/48969.png" width="64" height="64" /><image x="768" y="640" href="12678/47116.png" width="64" height="64" /><image x="832" y="640" href="12678/47129.png" width="64" height="64" /><image x="896" y="640" href="12678/47435.png" width="64" height="64" /><image x="960" y="640" href="12678/47154.png" width="64" height="64" /><image x="0" y="704" href="12678/46842.png" width="64" height="64" /><image x="64" y="704" href="12678/203203.png" width="64" height="64" /><image x="128" y="704" href="12678/46845.png" width="64" height="64" /><image x="192" y="704" href="12678/46874.png" width="64" height="64" /><image x="256" y="704" href="12678/183041.png" width="64" height="64" /><image x="320" y="704" href="12678/46853.png" width="64" height="64" /><image x="384" y="704" href="12678/46871.png" width="64" height="64" /><image x="448" y="704" href="12678/46844.png" width="64" height="64" /><image x="512" y="704" href="12678/46796.png" width="64" height="64" /><image x="576" y="704" href="12678/46813.png" width="64" height="64" /><image x="640" y="704" href="12678/46812.png" width="64" height="64" /><image x="704" y="704" href="12678/46801.png" width="64" height="64" /><image x="768" y="704" href="12678/46805.png" width="64" height="64" /><image x="832" y="704" href="12678/47108.png" width="64" height="64" /><image x="896" y="704" href="12678/47114.png" width="64" height="64" /><image x="960" y="704" href="12678/47127.png" width="64" height="64" /><image x="0" y="768" href="12678/47166.png" width="64" height="64" /><image x="64" y="768" href="12678/46897.png" width="64" height="64" /><image x="128" y="768" href="12678/46905.png" width="64" height="64" /><image x="192" y="768" href="12678/47160.png" width="64" height="64" /><image x="256" y="768" href="12678/46902.png" width="64" height="64" /><image x="320" y="768" href="12678/46369.png" width="64" height="64" /><image x="384" y="768" href="12678/47163.png" width="64" height="64" /><image x="448" y="768" href="12678/46899.png" width="64" height="64" /><image x="512" y="768" href="12678/46934.png" width="64" height="64" /><image x="576" y="768" href="12678/47161.png" width="64" height="64" /><image x="640" y="768" href="12678/47466.png" width="64" height="64" /><image x="704" y="768" href="12678/46937.png" width="64" height="64" /><image x="768" y="768" href="12678/47470.png" width="64" height="64" /><image x="832" y="768" href="12678/47119.png" width="64" height="64" /><image x="896" y="768" href="12678/47471.png" width="64" height="64" /><image x="960" y="768" href="12678/47139.png" width="64" height="64" /><image x="0" y="832" href="12678/47467.png" width="64" height="64" /><image x="64" y="832" href="12678/47157.png" width="64" height="64" /><image x="128" y="832" href="12678/47469.png" width="64" height="64" /><image x="192" y="832" href="12678/47142.png" width="64" height="64" /><image x="256" y="832" href="12678/47453.png" width="64" height="64" /><image x="320" y="832" href="12678/46824.png" width="64" height="64" /><image x="384" y="832" href="12678/46795.png" width="64" height="64" /><image x="448" y="832" href="12678/47473.png" width="64" height="64" /><image x="512" y="832" href="12678/47162.png" width="64" height="64" /><image x="576" y="832" href="12678/47457.png" width="64" height="64" /><image x="640" y="832" href="12678/46903.png" width="64" height="64" /><image x="704" y="832" href="12678/47465.png" width="64" height="64" /><image x="768" y="832" href="12678/47137.png" width="64" height="64" /><image x="832" y="832" href="12678/48975.png" width="64" height="64" /><image x="896" y="832" href="12678/46859.png" width="64" height="64" /><image x="960" y="832" href="12678/126509.png" width="64" height="64" /><image x="0" y="896" href="12678/46799.png" width="64" height="64" /><image x="64" y="896" href="12678/47472.png" width="64" height="64" /><image x="128" y="896" href="12678/47159.png" width="64" height="64" /><image x="192" y="896" href="12678/46895.png" width="64" height="64" /><image x="256" y="896" href="12678/46936.png" width="64" height="64" /><image x="320" y="896" href="12678/48984.png" width="64" height="64" /><image x="384" y="896" href="12678/46856.png" width="64" height="64" /><image x="448" y="896" href="12678/47117.png" width="64" height="64" /><image x="512" y="896" href="12678/48983.png" width="64" height="64" /><image x="576" y="896" href="12678/47140.png" width="64" height="64" /><image x="640" y="896" href="12678/47118.png" width="64" height="64" /><image x="704" y="896" href="12678/46815.png" width="64" height="64" /><image x="768" y="896" href="12678/47146.png" width="64" height="64" /><image x="832" y="896" href="12678/90888.png" width="64" height="64" /><image x="896" y="896" href="12678/91351.png" width="64" height="64" /><image x="960" y="896" href="12678/90480.png" width="64" height="64" /><image x="0" y="960" href="12678/181559.png" width="64" height="64" /><image x="64" y="960" href="12678/181457.png" width="64" height="64" /><image x="128" y="960" href="12678/181560.png" width="64" height="64" /><image x="192" y="960" href="12678/207172.png" width="64" height="64" /><image x="256" y="960" href="12678/207160.png" width="64" height="64" /><image x="320" y="960" href="12678/201069.png" width="64" height="64" /><image x="384" y="960" href="12678/216787.png" width="64" height="64" /><image x="448" y="960" href="12678/216734.png" width="64" height="64" /><image x="512" y="960" href="12678/219688.png" width="64" height="64" /><image x="576" y="960" href="12678/216773.png" width="64" height="64" /><image x="640" y="960" href="12678/217567.png" width="64" height="64" /><image x="704" y="960" href="12678/256962.png" width="64" height="64" /><image x="768" y="960" href="12678/256920.png" width="64" height="64" /><image x="832" y="960" href="12678/256917.png" width="64" height="64" /></svg>