<?xml version="1.0" encoding="UTF-8"?>
<svg xmlns="http://www.w3.org/2000/svg" version="1.1" height="576" width="576"><rect x="0" y="0" width="576" height="576" fill="rgb(192,192,192)" /><image x="0" y="0" href="127489/148127.png" width="64" height="64" /><image x="64" y="0" href="127489/148175.png" width="64" height="64" /><image x="128" y="0" href="127489/148107.png" width="64" height="64" /><image x="192" y="0" href="127489/148155.png" width="64" height="64" /><image x="256" y="0" href="127489/148245.png" width="64" height="64" /><image x="320" y="0" href="127489/148108.png" width="64" height="64" /><image x="384" y="0" href="127489/148092.png" width="64" height="64" /><image x="448" y="0" href="127489/148313.png" width="64" height="64" /><image x="512" y="0" href="127489/239588.png" width="64" height="64" /><image x="0" y="64" href="127489/148431.png" width="64" height="64" /><image x="64" y="64" href="127489/148078.png" width="64" height="64" /><image x="128" y="64" href="127489/148283.png" width="64" height="64" /><image x="192" y="64" href="127489/148080.png" width="64" height="64" /><image x="256" y="64" href="127489/148356.png" width="64" height="64" /><image x="320" y="64" href="127489/148433.png" width="64" height="64" /><image x="384" y="64" href="127489/148220.png" width="64" height="64" /><image x="448" y="64" href="127489/148432.png" width="64" height="64" /><image x="512" y="64" href="127489/148317.png" width="64" height="64" /><image x="0" y="128" href="127489/148221.png" width="64" height="64" /><image x="64" y="128" href="127489/148109.png" width="64" height="64" /><image x="128" y="128" href="127489/148184.png" width="64" height="64" /><image x="192" y="128" href="127489/148236.png" width="64" height="64" /><image x="256" y="128" href="127489/148275.png" width="64" height="64" /><image x="320" y="128" href="127489/148203.png" width="64" height="64" /><image x="384" y="128" href="127489/148277.png" width="64" height="64" /><image x="448" y="128" href="127489/148065.png" width="64" height="64" /><image x="512" y="128" href="127489/148288.png" width="64" height="64" /><image x="0" y="192" href="127489/148248.png" width="64" height="64" /><image x="64" y="192" href="127489/148086.png" width="64" height="64" /><image x="128" y="192" href="127489/148125.png" width="64" height="64" /><image x="192" y="192" href="127489/148186.png" width="64" height="64" /><image x="256" y="192" href="127489/148251.png" width="64" height="64" /><image x="320" y="192" href="127489/148192.png" width="64" height="64" /><image x="384" y="192" href="127489/148193.png" width="64" height="64" /><image x="448" y="192" href="127489/148062.png" width="64" height="64" /><image x="512" y="192" href="127489/148156.png" width="64" height="64" /><image x="0" y="256" href="127489/148179.png" width="64" height="64" /><image x="64" y="256" href="127489/148187.png" width="64" height="64" /><image x="128" y="256" href="127489/148320.png" width="64" height="64" /><image x="192" y="256" href="127489/148316.png" width="64" height="64" /><image x="256" y="256" href="127489/148177.png" width="64" height="64" /><image x="320" y="256" href="127489/148318.png" width="64" height="64" /><image x="384" y="256" href="127489/148064.png" width="64" height="64" /><image x="448" y="256" href="127489/148074.png" width="64" height="64" /><image x="512" y="256" href="127489/148246.png" width="64" height="64" /><image x="0" y="320" href="127489/148077.png" width="64" height="64" /><image x="64" y="320" href="127489/148207.png" width="64" height="64" /><image x="128" y="320" href="127489/148128.png" width="64" height="64" /><image x="192" y="320" href="127489/148280.png" width="64" height="64" /><image x="256" y="320" href="127489/147981.png" width="64" height="64" /><image x="320" y="320" href="127489/148070.png" width="64" height="64" /><image x="384" y="320" href="127489/148284.png" width="64" height="64" /><image x="448" y="320" href="127489/148285.png" width="64" height="64" /><image x="512" y="320" href="127489/148249.png" width="64" height="64" /><image x="0" y="384" href="127489/148254.png" width="64" height="64" /><image x="64" y="384" href="127489/148225.png" width="64" height="64" /><image x="128" y="384" href="127489/148135.png" width="64" height="64" /><image x="192" y="384" href="127489/148253.png" width="64" height="64" /><image x="256" y="384" href="127489/148271.png" width="64" height="64" /><image x="320" y="384" href="127489/148088.png" width="64" height="64" /><image x="384" y="384" href="127489/148104.png" width="64" height="64" /><image x="448" y="384" href="127489/148255.png" width="64" height="64" /><image x="512" y="384" href="127489/220752.png" width="64" height="64" /><image x="0" y="448" href="127489/225837.png" width="64" height="64" /><image x="64" y="448" href="127489/220961.png" width="64" height="64" /><image x="128" y="448" href="127489/223239.png" width="64" height="64" /><image x="192" y="448" href="127489/223283.png" width="64" height="64" /><image x="256" y="448" href="127489/223140.png" width="64" height="64" /><image x="320" y="448" href="127489/223155.png" width="64" height="64" /><image x="384" y="448" href="127489/223196.png" width="64" height="64" /><image x="448" y="448" href="127489/256454.png" width="64" height="64" /><image x="512" y="448" href="127489/256568.png" width="64" height="64" /><image x="0" y="512" href="127489/256517.png" width="64" height="64" /></svg>