<?xml version="1.0" encoding="UTF-8"?>
<svg xmlns="http://www.w3.org/2000/svg" version="1.1" height="512" width="512"><rect x="0" y="0" width="512" height="512" fill="rgb(192,192,192)" /><image x="0" y="0" href="128759/223300.png" width="64" height="64" /><image x="64" y="0" href="128759/223158.png" width="64" height="64" /><image x="128" y="0" href="128759/223212.png" width="64" height="64" /><image x="192" y="0" href="128759/223201.png" width="64" height="64" /><image x="256" y="0" href="128759/223274.png" width="64" height="64" /><image x="320" y="0" href="128759/224116.png" width="64" height="64" /><image x="384" y="0" href="128759/223107.png" width="64" height="64" /><image x="448" y="0" href="128759/223198.png" width="64" height="64" /><image x="0" y="64" href="128759/223157.png" width="64" height="64" /><image x="64" y="64" href="128759/223111.png" width="64" height="64" /><image x="128" y="64" href="128759/223722.png" width="64" height="64" /><image x="192" y="64" href="128759/223299.png" width="64" height="64" /><image x="256" y="64" href="128759/223199.png" width="64" height="64" /><image x="320" y="64" href="128759/223763.png" width="64" height="64" /><image x="384" y="64" href="128759/223979.png" width="64" height="64" /><image x="448" y="64" href="128759/223765.png" width="64" height="64" /><image x="0" y="128" href="128759/223573.png" width="64" height="64" /><image x="64" y="128" href="128759/223585.png" width="64" height="64" /><image x="128" y="128" href="128759/223720.png" width="64" height="64" /><image x="192" y="128" href="128759/223651.png" width="64" height="64" /><image x="256" y="128" href="128759/223986.png" width="64" height="64" /><image x="320" y="128" href="128759/232337.png" width="64" height="64" /><image x="384" y="128" href="128759/223970.png" width="64" height="64" /><image x="448" y="128" href="128759/232338.png" width="64" height="64" /><image x="0" y="192" href="128759/233144.png" width="64" height="64" /><image x="64" y="192" href="128759/223762.png" width="64" height="64" /><image x="128" y="192" href="128759/223978.png" width="64" height="64" /><image x="192" y="192" href="128759/223974.png" width="64" height="64" /><image x="256" y="192" href="128759/224539.png" width="64" height="64" /><image x="320" y="192" href="128759/224512.png" width="64" height="64" /><image x="384" y="192" href="128759/224642.png" width="64" height="64" /><image x="448" y="192" href="128759/224505.png" width="64" height="64" /><image x="0" y="256" href="128759/224896.png" width="64" height="64" /><image x="64" y="256" href="128759/225398.png" width="64" height="64" /><image x="128" y="256" href="128759/224945.png" width="64" height="64" /><image x="192" y="256" href="128759/225336.png" width="64" height="64" /><image x="256" y="256" href="128759/224897.png" width="64" height="64" /><image x="320" y="256" href="128759/225409.png" width="64" height="64" /><image x="384" y="256" href="128759/224909.png" width="64" height="64" /><image x="448" y="256" href="128759/226456.png" width="64" height="64" /><image x="0" y="320" href="128759/224881.png" width="64" height="64" /><image x="64" y="320" href="128759/225337.png" width="64" height="64" /><image x="128" y="320" href="128759/225408.png" width="64" height="64" /><image x="192" y="320" href="128759/225810.png" width="64" height="64" /><image x="256" y="320" href="128759/224538.png" width="64" height="64" /><image x="320" y="320" href="128759/223971.png" width="64" height="64" /><image x="384" y="320" href="128759/282212.png" width="64" height="64" /><image x="448" y="320" href="128759/282227.png" width="64" height="64" /><image x="0" y="384" href="128759/282230.png" width="64" height="64" /><image x="64" y="384" href="128759/282456.png" width="64" height="64" /><image x="128" y="384" href="128759/282457.png" width="64" height="64" /><image x="192" y="384" href="128759/282455.png" width="64" height="64" /><image x="256" y="384" href="128759/282448.png" width="64" height="64" /><image x="320" y="384" href="128759/282441.png" width="64" height="64" /><image x="384" y="384" href="128759/282440.png" width="64" height="64" /></svg>