<?xml version="1.0" encoding="UTF-8"?>
<svg xmlns="http://www.w3.org/2000/svg" version="1.1" height="576" width="576"><rect x="0" y="0" width="576" height="576" fill="rgb(192,192,192)" /><image x="0" y="0" href="128832/148127.png" width="64" height="64" /><image x="64" y="0" href="128832/148175.png" width="64" height="64" /><image x="128" y="0" href="128832/148107.png" width="64" height="64" /><image x="192" y="0" href="128832/148155.png" width="64" height="64" /><image x="256" y="0" href="128832/148245.png" width="64" height="64" /><image x="320" y="0" href="128832/148108.png" width="64" height="64" /><image x="384" y="0" href="128832/148092.png" width="64" height="64" /><image x="448" y="0" href="128832/148313.png" width="64" height="64" /><image x="512" y="0" href="128832/239588.png" width="64" height="64" /><image x="0" y="64" href="128832/148431.png" width="64" height="64" /><image x="64" y="64" href="128832/148078.png" width="64" height="64" /><image x="128" y="64" href="128832/148283.png" width="64" height="64" /><image x="192" y="64" href="128832/148080.png" width="64" height="64" /><image x="256" y="64" href="128832/148356.png" width="64" height="64" /><image x="320" y="64" href="128832/148433.png" width="64" height="64" /><image x="384" y="64" href="128832/148220.png" width="64" height="64" /><image x="448" y="64" href="128832/148432.png" width="64" height="64" /><image x="512" y="64" href="128832/148317.png" width="64" height="64" /><image x="0" y="128" href="128832/148221.png" width="64" height="64" /><image x="64" y="128" href="128832/148109.png" width="64" height="64" /><image x="128" y="128" href="128832/148184.png" width="64" height="64" /><image x="192" y="128" href="128832/148236.png" width="64" height="64" /><image x="256" y="128" href="128832/148275.png" width="64" height="64" /><image x="320" y="128" href="128832/148203.png" width="64" height="64" /><image x="384" y="128" href="128832/148277.png" width="64" height="64" /><image x="448" y="128" href="128832/148065.png" width="64" height="64" /><image x="512" y="128" href="128832/148288.png" width="64" height="64" /><image x="0" y="192" href="128832/148248.png" width="64" height="64" /><image x="64" y="192" href="128832/148086.png" width="64" height="64" /><image x="128" y="192" href="128832/148125.png" width="64" height="64" /><image x="192" y="192" href="128832/148186.png" width="64" height="64" /><image x="256" y="192" href="128832/148251.png" width="64" height="64" /><image x="320" y="192" href="128832/148192.png" width="64" height="64" /><image x="384" y="192" href="128832/148193.png" width="64" height="64" /><image x="448" y="192" href="128832/148062.png" width="64" height="64" /><image x="512" y="192" href="128832/148156.png" width="64" height="64" /><image x="0" y="256" href="128832/148179.png" width="64" height="64" /><image x="64" y="256" href="128832/148187.png" width="64" height="64" /><image x="128" y="256" href="128832/148320.png" width="64" height="64" /><image x="192" y="256" href="128832/148316.png" width="64" height="64" /><image x="256" y="256" href="128832/148177.png" width="64" height="64" /><image x="320" y="256" href="128832/148318.png" width="64" height="64" /><image x="384" y="256" href="128832/148064.png" width="64" height="64" /><image x="448" y="256" href="128832/148074.png" width="64" height="64" /><image x="512" y="256" href="128832/148246.png" width="64" height="64" /><image x="0" y="320" href="128832/148077.png" width="64" height="64" /><image x="64" y="320" href="128832/148207.png" width="64" height="64" /><image x="128" y="320" href="128832/148128.png" width="64" height="64" /><image x="192" y="320" href="128832/148280.png" width="64" height="64" /><image x="256" y="320" href="128832/147981.png" width="64" height="64" /><image x="320" y="320" href="128832/148070.png" width="64" height="64" /><image x="384" y="320" href="128832/148284.png" width="64" height="64" /><image x="448" y="320" href="128832/148285.png" width="64" height="64" /><image x="512" y="320" href="128832/148249.png" width="64" height="64" /><image x="0" y="384" href="128832/148254.png" width="64" height="64" /><image x="64" y="384" href="128832/148225.png" width="64" height="64" /><image x="128" y="384" href="128832/148135.png" width="64" height="64" /><image x="192" y="384" href="128832/148253.png" width="64" height="64" /><image x="256" y="384" href="128832/148271.png" width="64" height="64" /><image x="320" y="384" href="128832/148088.png" width="64" height="64" /><image x="384" y="384" href="128832/148104.png" width="64" height="64" /><image x="448" y="384" href="128832/148255.png" width="64" height="64" /><image x="512" y="384" href="128832/220752.png" width="64" height="64" /><image x="0" y="448" href="128832/225837.png" width="64" height="64" /><image x="64" y="448" href="128832/220961.png" width="64" height="64" /><image x="128" y="448" href="128832/223239.png" width="64" height="64" /><image x="192" y="448" href="128832/223283.png" width="64" height="64" /><image x="256" y="448" href="128832/223140.png" width="64" height="64" /><image x="320" y="448" href="128832/223155.png" width="64" height="64" /><image x="384" y="448" href="128832/223196.png" width="64" height="64" /><image x="448" y="448" href="128832/256454.png" width="64" height="64" /><image x="512" y="448" href="128832/256568.png" width="64" height="64" /><image x="0" y="512" href="128832/256517.png" width="64" height="64" /></svg>