<?xml version="1.0" encoding="UTF-8"?>
<svg xmlns="http://www.w3.org/2000/svg" version="1.1" height="448" width="448"><rect x="0" y="0" width="448" height="448" fill="rgb(192,192,192)" /><image x="0" y="0" href="12920/47314.png" width="64" height="64" /><image x="64" y="0" href="12920/47249.png" width="64" height="64" /><image x="128" y="0" href="12920/47007.png" width="64" height="64" /><image x="192" y="0" href="12920/47354.png" width="64" height="64" /><image x="256" y="0" href="12920/47215.png" width="64" height="64" /><image x="320" y="0" href="12920/47351.png" width="64" height="64" /><image x="384" y="0" href="12920/47291.png" width="64" height="64" /><image x="0" y="64" href="12920/47216.png" width="64" height="64" /><image x="64" y="64" href="12920/47353.png" width="64" height="64" /><image x="128" y="64" href="12920/47355.png" width="64" height="64" /><image x="192" y="64" href="12920/47214.png" width="64" height="64" /><image x="256" y="64" href="12920/47250.png" width="64" height="64" /><image x="320" y="64" href="12920/47251.png" width="64" height="64" /><image x="384" y="64" href="12920/47219.png" width="64" height="64" /><image x="0" y="128" href="12920/47292.png" width="64" height="64" /><image x="64" y="128" href="12920/47323.png" width="64" height="64" /><image x="128" y="128" href="12920/47212.png" width="64" height="64" /><image x="192" y="128" href="12920/47217.png" width="64" height="64" /><image x="256" y="128" href="12920/46992.png" width="64" height="64" /><image x="320" y="128" href="12920/47357.png" width="64" height="64" /><image x="384" y="128" href="12920/47253.png" width="64" height="64" /><image x="0" y="192" href="12920/47326.png" width="64" height="64" /><image x="64" y="192" href="12920/47256.png" width="64" height="64" /><image x="128" y="192" href="12920/47247.png" width="64" height="64" /><image x="192" y="192" href="12920/47350.png" width="64" height="64" /><image x="256" y="192" href="12920/47334.png" width="64" height="64" /><image x="320" y="192" href="12920/47359.png" width="64" height="64" /><image x="384" y="192" href="12920/47000.png" width="64" height="64" /><image x="0" y="256" href="12920/81297.png" width="64" height="64" /><image x="64" y="256" href="12920/47004.png" width="64" height="64" /><image x="128" y="256" href="12920/47356.png" width="64" height="64" /><image x="192" y="256" href="12920/47352.png" width="64" height="64" /><image x="256" y="256" href="12920/47260.png" width="64" height="64" /><image x="320" y="256" href="12920/47317.png" width="64" height="64" /><image x="384" y="256" href="12920/47358.png" width="64" height="64" /><image x="0" y="320" href="12920/47248.png" width="64" height="64" /><image x="64" y="320" href="12920/47259.png" width="64" height="64" /><image x="128" y="320" href="12920/47262.png" width="64" height="64" /><image x="192" y="320" href="12920/47237.png" width="64" height="64" /><image x="256" y="320" href="12920/47255.png" width="64" height="64" /><image x="320" y="320" href="12920/47254.png" width="64" height="64" /><image x="384" y="320" href="12920/46688.png" width="64" height="64" /><image x="0" y="384" href="12920/47346.png" width="64" height="64" /><image x="64" y="384" href="12920/47347.png" width="64" height="64" /><image x="128" y="384" href="12920/81074.png" width="64" height="64" /><image x="192" y="384" href="12920/89329.png" width="64" height="64" /><image x="256" y="384" href="12920/81069.png" width="64" height="64" /><image x="320" y="384" href="12920/47264.png" width="64" height="64" /></svg>