<?xml version="1.0" encoding="UTF-8"?>
<svg xmlns="http://www.w3.org/2000/svg" version="1.1" height="384" width="384"><rect x="0" y="0" width="384" height="384" fill="rgb(192,192,192)" /><image x="0" y="0" href="129346/224453.png" width="64" height="64" /><image x="64" y="0" href="129346/223982.png" width="64" height="64" /><image x="128" y="0" href="129346/224093.png" width="64" height="64" /><image x="192" y="0" href="129346/223939.png" width="64" height="64" /><image x="256" y="0" href="129346/225309.png" width="64" height="64" /><image x="320" y="0" href="129346/225331.png" width="64" height="64" /><image x="0" y="64" href="129346/224092.png" width="64" height="64" /><image x="64" y="64" href="129346/230756.png" width="64" height="64" /><image x="128" y="64" href="129346/223940.png" width="64" height="64" /><image x="192" y="64" href="129346/225387.png" width="64" height="64" /><image x="256" y="64" href="129346/224426.png" width="64" height="64" /><image x="320" y="64" href="129346/224521.png" width="64" height="64" /><image x="0" y="128" href="129346/225327.png" width="64" height="64" /><image x="64" y="128" href="129346/225347.png" width="64" height="64" /><image x="128" y="128" href="129346/225301.png" width="64" height="64" /><image x="192" y="128" href="129346/224454.png" width="64" height="64" /><image x="256" y="128" href="129346/224921.png" width="64" height="64" /><image x="320" y="128" href="129346/224867.png" width="64" height="64" /><image x="0" y="192" href="129346/224924.png" width="64" height="64" /><image x="64" y="192" href="129346/224834.png" width="64" height="64" /><image x="128" y="192" href="129346/224904.png" width="64" height="64" /><image x="192" y="192" href="129346/225299.png" width="64" height="64" /><image x="256" y="192" href="129346/225662.png" width="64" height="64" /><image x="320" y="192" href="129346/225862.png" width="64" height="64" /><image x="0" y="256" href="129346/226032.png" width="64" height="64" /><image x="64" y="256" href="129346/226209.png" width="64" height="64" /></svg>