<?xml version="1.0" encoding="UTF-8"?>
<svg xmlns="http://www.w3.org/2000/svg" version="1.1" height="384" width="384"><rect x="0" y="0" width="384" height="384" fill="rgb(192,192,192)" /><image x="0" y="0" href="129988/225295.png" width="64" height="64" /><image x="64" y="0" href="129988/224901.png" width="64" height="64" /><image x="128" y="0" href="129988/225296.png" width="64" height="64" /><image x="192" y="0" href="129988/225389.png" width="64" height="64" /><image x="256" y="0" href="129988/224905.png" width="64" height="64" /><image x="320" y="0" href="129988/224946.png" width="64" height="64" /><image x="0" y="64" href="129988/225380.png" width="64" height="64" /><image x="64" y="64" href="129988/238345.png" width="64" height="64" /><image x="128" y="64" href="129988/238299.png" width="64" height="64" /><image x="192" y="64" href="129988/225379.png" width="64" height="64" /><image x="256" y="64" href="129988/225378.png" width="64" height="64" /><image x="320" y="64" href="129988/224770.png" width="64" height="64" /><image x="0" y="128" href="129988/224814.png" width="64" height="64" /><image x="64" y="128" href="129988/238256.png" width="64" height="64" /><image x="128" y="128" href="129988/238292.png" width="64" height="64" /><image x="192" y="128" href="129988/224813.png" width="64" height="64" /><image x="256" y="128" href="129988/224734.png" width="64" height="64" /><image x="320" y="128" href="129988/224895.png" width="64" height="64" /><image x="0" y="192" href="129988/224723.png" width="64" height="64" /><image x="64" y="192" href="129988/225395.png" width="64" height="64" /><image x="128" y="192" href="129988/225421.png" width="64" height="64" /><image x="192" y="192" href="129988/225317.png" width="64" height="64" /><image x="256" y="192" href="129988/225361.png" width="64" height="64" /><image x="320" y="192" href="129988/250274.png" width="64" height="64" /><image x="0" y="256" href="129988/250261.png" width="64" height="64" /><image x="64" y="256" href="129988/250247.png" width="64" height="64" /><image x="128" y="256" href="129988/250210.png" width="64" height="64" /><image x="192" y="256" href="129988/250256.png" width="64" height="64" /><image x="256" y="256" href="129988/250203.png" width="64" height="64" /><image x="320" y="256" href="129988/250204.png" width="64" height="64" /><image x="0" y="320" href="129988/250605.png" width="64" height="64" /><image x="64" y="320" href="129988/250172.png" width="64" height="64" /></svg>