<?xml version="1.0" encoding="UTF-8"?>
<svg xmlns="http://www.w3.org/2000/svg" version="1.1" height="640" width="640"><rect x="0" y="0" width="640" height="640" fill="rgb(192,192,192)" /><image x="0" y="0" href="130490/225366.png" width="64" height="64" /><image x="64" y="0" href="130490/258551.png" width="64" height="64" /><image x="128" y="0" href="130490/225365.png" width="64" height="64" /><image x="192" y="0" href="130490/225420.png" width="64" height="64" /><image x="256" y="0" href="130490/225360.png" width="64" height="64" /><image x="320" y="0" href="130490/225680.png" width="64" height="64" /><image x="384" y="0" href="130490/225394.png" width="64" height="64" /><image x="448" y="0" href="130490/225404.png" width="64" height="64" /><image x="512" y="0" href="130490/225362.png" width="64" height="64" /><image x="576" y="0" href="130490/225415.png" width="64" height="64" /><image x="0" y="64" href="130490/255096.png" width="64" height="64" /><image x="64" y="64" href="130490/225722.png" width="64" height="64" /><image x="128" y="64" href="130490/225639.png" width="64" height="64" /><image x="192" y="64" href="130490/225638.png" width="64" height="64" /><image x="256" y="64" href="130490/258574.png" width="64" height="64" /><image x="320" y="64" href="130490/225640.png" width="64" height="64" /><image x="384" y="64" href="130490/225850.png" width="64" height="64" /><image x="448" y="64" href="130490/225689.png" width="64" height="64" /><image x="512" y="64" href="130490/225730.png" width="64" height="64" /><image x="576" y="64" href="130490/225817.png" width="64" height="64" /><image x="0" y="128" href="130490/225864.png" width="64" height="64" /><image x="64" y="128" href="130490/225867.png" width="64" height="64" /><image x="128" y="128" href="130490/225916.png" width="64" height="64" /><image x="192" y="128" href="130490/225823.png" width="64" height="64" /><image x="256" y="128" href="130490/225822.png" width="64" height="64" /><image x="320" y="128" href="130490/225914.png" width="64" height="64" /><image x="384" y="128" href="130490/225915.png" width="64" height="64" /><image x="448" y="128" href="130490/254712.png" width="64" height="64" /><image x="512" y="128" href="130490/225863.png" width="64" height="64" /><image x="576" y="128" href="130490/225868.png" width="64" height="64" /><image x="0" y="192" href="130490/225814.png" width="64" height="64" /><image x="64" y="192" href="130490/254684.png" width="64" height="64" /><image x="128" y="192" href="130490/225911.png" width="64" height="64" /><image x="192" y="192" href="130490/254673.png" width="64" height="64" /><image x="256" y="192" href="130490/254713.png" width="64" height="64" /><image x="320" y="192" href="130490/225853.png" width="64" height="64" /><image x="384" y="192" href="130490/226307.png" width="64" height="64" /><image x="448" y="192" href="130490/226381.png" width="64" height="64" /><image x="512" y="192" href="130490/226167.png" width="64" height="64" /><image x="576" y="192" href="130490/226203.png" width="64" height="64" /><image x="0" y="256" href="130490/226308.png" width="64" height="64" /><image x="64" y="256" href="130490/226323.png" width="64" height="64" /><image x="128" y="256" href="130490/227569.png" width="64" height="64" /><image x="192" y="256" href="130490/227638.png" width="64" height="64" /><image x="256" y="256" href="130490/227891.png" width="64" height="64" /><image x="320" y="256" href="130490/228125.png" width="64" height="64" /><image x="384" y="256" href="130490/228338.png" width="64" height="64" /><image x="448" y="256" href="130490/254683.png" width="64" height="64" /><image x="512" y="256" href="130490/228350.png" width="64" height="64" /><image x="576" y="256" href="130490/229411.png" width="64" height="64" /><image x="0" y="320" href="130490/254618.png" width="64" height="64" /><image x="64" y="320" href="130490/230764.png" width="64" height="64" /><image x="128" y="320" href="130490/230845.png" width="64" height="64" /><image x="192" y="320" href="130490/251680.png" width="64" height="64" /><image x="256" y="320" href="130490/251571.png" width="64" height="64" /><image x="320" y="320" href="130490/251659.png" width="64" height="64" /><image x="384" y="320" href="130490/251679.png" width="64" height="64" /><image x="448" y="320" href="130490/251822.png" width="64" height="64" /><image x="512" y="320" href="130490/251750.png" width="64" height="64" /><image x="576" y="320" href="130490/251727.png" width="64" height="64" /><image x="0" y="384" href="130490/251758.png" width="64" height="64" /><image x="64" y="384" href="130490/251724.png" width="64" height="64" /><image x="128" y="384" href="130490/251700.png" width="64" height="64" /><image x="192" y="384" href="130490/251728.png" width="64" height="64" /><image x="256" y="384" href="130490/251821.png" width="64" height="64" /><image x="320" y="384" href="130490/251759.png" width="64" height="64" /><image x="384" y="384" href="130490/251823.png" width="64" height="64" /><image x="448" y="384" href="130490/251751.png" width="64" height="64" /><image x="512" y="384" href="130490/251701.png" width="64" height="64" /><image x="576" y="384" href="130490/251756.png" width="64" height="64" /><image x="0" y="448" href="130490/251755.png" width="64" height="64" /><image x="64" y="448" href="130490/251819.png" width="64" height="64" /><image x="128" y="448" href="130490/252418.png" width="64" height="64" /><image x="192" y="448" href="130490/252368.png" width="64" height="64" /><image x="256" y="448" href="130490/252371.png" width="64" height="64" /><image x="320" y="448" href="130490/252577.png" width="64" height="64" /><image x="384" y="448" href="130490/255100.png" width="64" height="64" /><image x="448" y="448" href="130490/252578.png" width="64" height="64" /><image x="512" y="448" href="130490/254756.png" width="64" height="64" /><image x="576" y="448" href="130490/252442.png" width="64" height="64" /><image x="0" y="512" href="130490/252170.png" width="64" height="64" /><image x="64" y="512" href="130490/252439.png" width="64" height="64" /><image x="128" y="512" href="130490/252465.png" width="64" height="64" /><image x="192" y="512" href="130490/252480.png" width="64" height="64" /><image x="256" y="512" href="130490/252440.png" width="64" height="64" /><image x="320" y="512" href="130490/252172.png" width="64" height="64" /><image x="384" y="512" href="130490/252494.png" width="64" height="64" /><image x="448" y="512" href="130490/252098.png" width="64" height="64" /><image x="512" y="512" href="130490/252169.png" width="64" height="64" /><image x="576" y="512" href="130490/252171.png" width="64" height="64" /><image x="0" y="576" href="130490/252168.png" width="64" height="64" /><image x="64" y="576" href="130490/252099.png" width="64" height="64" /><image x="128" y="576" href="130490/252137.png" width="64" height="64" /><image x="192" y="576" href="130490/252178.png" width="64" height="64" /><image x="256" y="576" href="130490/252121.png" width="64" height="64" /><image x="320" y="576" href="130490/252179.png" width="64" height="64" /><image x="384" y="576" href="130490/252138.png" width="64" height="64" /><image x="448" y="576" href="130490/252305.png" width="64" height="64" /></svg>