<?xml version="1.0" encoding="UTF-8"?>
<svg xmlns="http://www.w3.org/2000/svg" version="1.1" height="256" width="256"><rect x="0" y="0" width="256" height="256" fill="rgb(192,192,192)" /><image x="0" y="0" href="13041/212125.png" width="64" height="64" /><image x="64" y="0" href="13041/212126.png" width="64" height="64" /><image x="128" y="0" href="13041/214425.png" width="64" height="64" /><image x="192" y="0" href="13041/211380.png" width="64" height="64" /><image x="0" y="64" href="13041/212127.png" width="64" height="64" /><image x="64" y="64" href="13041/46948.png" width="64" height="64" /><image x="128" y="64" href="13041/216345.png" width="64" height="64" /><image x="192" y="64" href="13041/215860.png" width="64" height="64" /><image x="0" y="128" href="13041/214426.png" width="64" height="64" /><image x="64" y="128" href="13041/214164.png" width="64" height="64" /><image x="128" y="128" href="13041/216415.png" width="64" height="64" /><image x="192" y="128" href="13041/215248.png" width="64" height="64" /><image x="0" y="192" href="13041/215247.png" width="64" height="64" /><image x="64" y="192" href="13041/120032.png" width="64" height="64" /><image x="128" y="192" href="13041/216320.png" width="64" height="64" /></svg>