<?xml version="1.0" encoding="UTF-8"?>
<svg xmlns="http://www.w3.org/2000/svg" version="1.1" height="576" width="576"><rect x="0" y="0" width="576" height="576" fill="rgb(192,192,192)" /><image x="0" y="0" href="130872/148127.png" width="64" height="64" /><image x="64" y="0" href="130872/148175.png" width="64" height="64" /><image x="128" y="0" href="130872/148107.png" width="64" height="64" /><image x="192" y="0" href="130872/148155.png" width="64" height="64" /><image x="256" y="0" href="130872/148245.png" width="64" height="64" /><image x="320" y="0" href="130872/148108.png" width="64" height="64" /><image x="384" y="0" href="130872/148092.png" width="64" height="64" /><image x="448" y="0" href="130872/148313.png" width="64" height="64" /><image x="512" y="0" href="130872/239588.png" width="64" height="64" /><image x="0" y="64" href="130872/148431.png" width="64" height="64" /><image x="64" y="64" href="130872/148078.png" width="64" height="64" /><image x="128" y="64" href="130872/148283.png" width="64" height="64" /><image x="192" y="64" href="130872/148080.png" width="64" height="64" /><image x="256" y="64" href="130872/148356.png" width="64" height="64" /><image x="320" y="64" href="130872/148433.png" width="64" height="64" /><image x="384" y="64" href="130872/148220.png" width="64" height="64" /><image x="448" y="64" href="130872/148432.png" width="64" height="64" /><image x="512" y="64" href="130872/148317.png" width="64" height="64" /><image x="0" y="128" href="130872/148221.png" width="64" height="64" /><image x="64" y="128" href="130872/148109.png" width="64" height="64" /><image x="128" y="128" href="130872/148184.png" width="64" height="64" /><image x="192" y="128" href="130872/148236.png" width="64" height="64" /><image x="256" y="128" href="130872/148275.png" width="64" height="64" /><image x="320" y="128" href="130872/148203.png" width="64" height="64" /><image x="384" y="128" href="130872/148277.png" width="64" height="64" /><image x="448" y="128" href="130872/148065.png" width="64" height="64" /><image x="512" y="128" href="130872/148288.png" width="64" height="64" /><image x="0" y="192" href="130872/148248.png" width="64" height="64" /><image x="64" y="192" href="130872/148086.png" width="64" height="64" /><image x="128" y="192" href="130872/148125.png" width="64" height="64" /><image x="192" y="192" href="130872/148186.png" width="64" height="64" /><image x="256" y="192" href="130872/148251.png" width="64" height="64" /><image x="320" y="192" href="130872/148192.png" width="64" height="64" /><image x="384" y="192" href="130872/148193.png" width="64" height="64" /><image x="448" y="192" href="130872/148062.png" width="64" height="64" /><image x="512" y="192" href="130872/148156.png" width="64" height="64" /><image x="0" y="256" href="130872/148179.png" width="64" height="64" /><image x="64" y="256" href="130872/148187.png" width="64" height="64" /><image x="128" y="256" href="130872/148320.png" width="64" height="64" /><image x="192" y="256" href="130872/148316.png" width="64" height="64" /><image x="256" y="256" href="130872/148177.png" width="64" height="64" /><image x="320" y="256" href="130872/148318.png" width="64" height="64" /><image x="384" y="256" href="130872/148064.png" width="64" height="64" /><image x="448" y="256" href="130872/148074.png" width="64" height="64" /><image x="512" y="256" href="130872/148246.png" width="64" height="64" /><image x="0" y="320" href="130872/148077.png" width="64" height="64" /><image x="64" y="320" href="130872/148207.png" width="64" height="64" /><image x="128" y="320" href="130872/148128.png" width="64" height="64" /><image x="192" y="320" href="130872/148280.png" width="64" height="64" /><image x="256" y="320" href="130872/147981.png" width="64" height="64" /><image x="320" y="320" href="130872/148070.png" width="64" height="64" /><image x="384" y="320" href="130872/148284.png" width="64" height="64" /><image x="448" y="320" href="130872/148285.png" width="64" height="64" /><image x="512" y="320" href="130872/148249.png" width="64" height="64" /><image x="0" y="384" href="130872/148254.png" width="64" height="64" /><image x="64" y="384" href="130872/148225.png" width="64" height="64" /><image x="128" y="384" href="130872/148135.png" width="64" height="64" /><image x="192" y="384" href="130872/148253.png" width="64" height="64" /><image x="256" y="384" href="130872/148271.png" width="64" height="64" /><image x="320" y="384" href="130872/148088.png" width="64" height="64" /><image x="384" y="384" href="130872/148104.png" width="64" height="64" /><image x="448" y="384" href="130872/148255.png" width="64" height="64" /><image x="512" y="384" href="130872/220752.png" width="64" height="64" /><image x="0" y="448" href="130872/225837.png" width="64" height="64" /><image x="64" y="448" href="130872/220961.png" width="64" height="64" /><image x="128" y="448" href="130872/223239.png" width="64" height="64" /><image x="192" y="448" href="130872/223283.png" width="64" height="64" /><image x="256" y="448" href="130872/223140.png" width="64" height="64" /><image x="320" y="448" href="130872/223155.png" width="64" height="64" /><image x="384" y="448" href="130872/223196.png" width="64" height="64" /><image x="448" y="448" href="130872/256454.png" width="64" height="64" /><image x="512" y="448" href="130872/256568.png" width="64" height="64" /><image x="0" y="512" href="130872/256517.png" width="64" height="64" /></svg>