<?xml version="1.0" encoding="UTF-8"?>
<svg xmlns="http://www.w3.org/2000/svg" version="1.1" height="256" width="256"><rect x="0" y="0" width="256" height="256" fill="rgb(192,192,192)" /><image x="0" y="0" href="13264/49879.png" width="64" height="64" /><image x="64" y="0" href="13264/49979.png" width="64" height="64" /><image x="128" y="0" href="13264/50018.png" width="64" height="64" /><image x="192" y="0" href="13264/49972.png" width="64" height="64" /><image x="0" y="64" href="13264/49538.png" width="64" height="64" /><image x="64" y="64" href="13264/49976.png" width="64" height="64" /><image x="128" y="64" href="13264/50185.png" width="64" height="64" /><image x="192" y="64" href="13264/47505.png" width="64" height="64" /><image x="0" y="128" href="13264/49973.png" width="64" height="64" /><image x="64" y="128" href="13264/47519.png" width="64" height="64" /><image x="128" y="128" href="13264/47522.png" width="64" height="64" /><image x="192" y="128" href="13264/47521.png" width="64" height="64" /><image x="0" y="192" href="13264/47564.png" width="64" height="64" /><image x="64" y="192" href="13264/47555.png" width="64" height="64" /></svg>