<?xml version="1.0" encoding="UTF-8"?>
<svg xmlns="http://www.w3.org/2000/svg" version="1.1" height="448" width="448"><rect x="0" y="0" width="448" height="448" fill="rgb(192,192,192)" /><image x="0" y="0" href="136214/234820.png" width="64" height="64" /><image x="64" y="0" href="136214/235001.png" width="64" height="64" /><image x="128" y="0" href="136214/234953.png" width="64" height="64" /><image x="192" y="0" href="136214/234873.png" width="64" height="64" /><image x="256" y="0" href="136214/234952.png" width="64" height="64" /><image x="320" y="0" href="136214/234968.png" width="64" height="64" /><image x="384" y="0" href="136214/234874.png" width="64" height="64" /><image x="0" y="64" href="136214/233540.png" width="64" height="64" /><image x="64" y="64" href="136214/233478.png" width="64" height="64" /><image x="128" y="64" href="136214/235772.png" width="64" height="64" /><image x="192" y="64" href="136214/233542.png" width="64" height="64" /><image x="256" y="64" href="136214/233102.png" width="64" height="64" /><image x="320" y="64" href="136214/232524.png" width="64" height="64" /><image x="384" y="64" href="136214/238259.png" width="64" height="64" /><image x="0" y="128" href="136214/236929.png" width="64" height="64" /><image x="64" y="128" href="136214/233980.png" width="64" height="64" /><image x="128" y="128" href="136214/235015.png" width="64" height="64" /><image x="192" y="128" href="136214/234469.png" width="64" height="64" /><image x="256" y="128" href="136214/233541.png" width="64" height="64" /><image x="320" y="128" href="136214/234848.png" width="64" height="64" /><image x="384" y="128" href="136214/235747.png" width="64" height="64" /><image x="0" y="192" href="136214/232525.png" width="64" height="64" /><image x="64" y="192" href="136214/236540.png" width="64" height="64" /><image x="128" y="192" href="136214/262605.png" width="64" height="64" /><image x="192" y="192" href="136214/236971.png" width="64" height="64" /><image x="256" y="192" href="136214/239487.png" width="64" height="64" /><image x="320" y="192" href="136214/236773.png" width="64" height="64" /><image x="384" y="192" href="136214/236930.png" width="64" height="64" /><image x="0" y="256" href="136214/237410.png" width="64" height="64" /><image x="64" y="256" href="136214/236856.png" width="64" height="64" /><image x="128" y="256" href="136214/243629.png" width="64" height="64" /><image x="192" y="256" href="136214/237452.png" width="64" height="64" /><image x="256" y="256" href="136214/232813.png" width="64" height="64" /><image x="320" y="256" href="136214/238284.png" width="64" height="64" /><image x="384" y="256" href="136214/235681.png" width="64" height="64" /><image x="0" y="320" href="136214/236972.png" width="64" height="64" /><image x="64" y="320" href="136214/235780.png" width="64" height="64" /><image x="128" y="320" href="136214/234428.png" width="64" height="64" /><image x="192" y="320" href="136214/270686.png" width="64" height="64" /><image x="256" y="320" href="136214/233218.png" width="64" height="64" /><image x="320" y="320" href="136214/233287.png" width="64" height="64" /></svg>