<?xml version="1.0" encoding="UTF-8"?>
<svg xmlns="http://www.w3.org/2000/svg" version="1.1" height="320" width="320"><rect x="0" y="0" width="320" height="320" fill="rgb(192,192,192)" /><image x="0" y="0" href="138348/244725.png" width="64" height="64" /><image x="64" y="0" href="138348/235050.png" width="64" height="64" /><image x="128" y="0" href="138348/234891.png" width="64" height="64" /><image x="192" y="0" href="138348/235063.png" width="64" height="64" /><image x="256" y="0" href="138348/235479.png" width="64" height="64" /><image x="0" y="64" href="138348/235774.png" width="64" height="64" /><image x="64" y="64" href="138348/235065.png" width="64" height="64" /><image x="128" y="64" href="138348/235773.png" width="64" height="64" /><image x="192" y="64" href="138348/235582.png" width="64" height="64" /><image x="256" y="64" href="138348/235684.png" width="64" height="64" /><image x="0" y="128" href="138348/235013.png" width="64" height="64" /><image x="64" y="128" href="138348/235036.png" width="64" height="64" /><image x="128" y="128" href="138348/235018.png" width="64" height="64" /><image x="192" y="128" href="138348/235064.png" width="64" height="64" /><image x="256" y="128" href="138348/235606.png" width="64" height="64" /><image x="0" y="192" href="138348/235602.png" width="64" height="64" /><image x="64" y="192" href="138348/235706.png" width="64" height="64" /><image x="128" y="192" href="138348/235752.png" width="64" height="64" /><image x="192" y="192" href="138348/235037.png" width="64" height="64" /></svg>