<?xml version="1.0" encoding="UTF-8"?>
<svg xmlns="http://www.w3.org/2000/svg" version="1.1" height="384" width="384"><rect x="0" y="0" width="384" height="384" fill="rgb(192,192,192)" /><image x="0" y="0" href="14019/138530.png" width="64" height="64" /><image x="64" y="0" href="14019/49179.png" width="64" height="64" /><image x="128" y="0" href="14019/49308.png" width="64" height="64" /><image x="192" y="0" href="14019/148178.png" width="64" height="64" /><image x="256" y="0" href="14019/148132.png" width="64" height="64" /><image x="320" y="0" href="14019/49317.png" width="64" height="64" /><image x="0" y="64" href="14019/49205.png" width="64" height="64" /><image x="64" y="64" href="14019/49305.png" width="64" height="64" /><image x="128" y="64" href="14019/49181.png" width="64" height="64" /><image x="192" y="64" href="14019/49366.png" width="64" height="64" /><image x="256" y="64" href="14019/49286.png" width="64" height="64" /><image x="320" y="64" href="14019/49287.png" width="64" height="64" /><image x="0" y="128" href="14019/49281.png" width="64" height="64" /><image x="64" y="128" href="14019/49279.png" width="64" height="64" /><image x="128" y="128" href="14019/49266.png" width="64" height="64" /><image x="192" y="128" href="14019/49178.png" width="64" height="64" /><image x="256" y="128" href="14019/49288.png" width="64" height="64" /><image x="320" y="128" href="14019/49268.png" width="64" height="64" /><image x="0" y="192" href="14019/49272.png" width="64" height="64" /><image x="64" y="192" href="14019/49280.png" width="64" height="64" /><image x="128" y="192" href="14019/189459.png" width="64" height="64" /><image x="192" y="192" href="14019/189520.png" width="64" height="64" /><image x="256" y="192" href="14019/189708.png" width="64" height="64" /><image x="320" y="192" href="14019/189685.png" width="64" height="64" /><image x="0" y="256" href="14019/192520.png" width="64" height="64" /><image x="64" y="256" href="14019/189501.png" width="64" height="64" /><image x="128" y="256" href="14019/189461.png" width="64" height="64" /><image x="192" y="256" href="14019/192543.png" width="64" height="64" /><image x="256" y="256" href="14019/195751.png" width="64" height="64" /><image x="320" y="256" href="14019/195752.png" width="64" height="64" /><image x="0" y="320" href="14019/189521.png" width="64" height="64" /><image x="64" y="320" href="14019/189500.png" width="64" height="64" /><image x="128" y="320" href="14019/189460.png" width="64" height="64" /><image x="192" y="320" href="14019/214901.png" width="64" height="64" /></svg>