<?xml version="1.0" encoding="UTF-8"?>
<svg xmlns="http://www.w3.org/2000/svg" version="1.1" height="384" width="384"><rect x="0" y="0" width="384" height="384" fill="rgb(192,192,192)" /><image x="0" y="0" href="142573/241424.png" width="64" height="64" /><image x="64" y="0" href="142573/241395.png" width="64" height="64" /><image x="128" y="0" href="142573/241418.png" width="64" height="64" /><image x="192" y="0" href="142573/241544.png" width="64" height="64" /><image x="256" y="0" href="142573/241425.png" width="64" height="64" /><image x="320" y="0" href="142573/241786.png" width="64" height="64" /><image x="0" y="64" href="142573/241419.png" width="64" height="64" /><image x="64" y="64" href="142573/241954.png" width="64" height="64" /><image x="128" y="64" href="142573/241789.png" width="64" height="64" /><image x="192" y="64" href="142573/242005.png" width="64" height="64" /><image x="256" y="64" href="142573/241970.png" width="64" height="64" /><image x="320" y="64" href="142573/241971.png" width="64" height="64" /><image x="0" y="128" href="142573/242014.png" width="64" height="64" /><image x="64" y="128" href="142573/241401.png" width="64" height="64" /><image x="128" y="128" href="142573/247464.png" width="64" height="64" /><image x="192" y="128" href="142573/247463.png" width="64" height="64" /><image x="256" y="128" href="142573/247561.png" width="64" height="64" /><image x="320" y="128" href="142573/243522.png" width="64" height="64" /><image x="0" y="192" href="142573/247465.png" width="64" height="64" /><image x="64" y="192" href="142573/247696.png" width="64" height="64" /><image x="128" y="192" href="142573/245576.png" width="64" height="64" /><image x="192" y="192" href="142573/245130.png" width="64" height="64" /><image x="256" y="192" href="142573/252136.png" width="64" height="64" /><image x="320" y="192" href="142573/252157.png" width="64" height="64" /><image x="0" y="256" href="142573/252092.png" width="64" height="64" /><image x="64" y="256" href="142573/252163.png" width="64" height="64" /><image x="128" y="256" href="142573/252424.png" width="64" height="64" /></svg>