<?xml version="1.0" encoding="UTF-8"?>
<svg xmlns="http://www.w3.org/2000/svg" version="1.1" height="320" width="320"><rect x="0" y="0" width="320" height="320" fill="rgb(192,192,192)" /><image x="0" y="0" href="14373/182966.png" width="64" height="64" /><image x="64" y="0" href="14373/50384.png" width="64" height="64" /><image x="128" y="0" href="14373/50247.png" width="64" height="64" /><image x="192" y="0" href="14373/50379.png" width="64" height="64" /><image x="256" y="0" href="14373/50255.png" width="64" height="64" /><image x="0" y="64" href="14373/50248.png" width="64" height="64" /><image x="64" y="64" href="14373/182964.png" width="64" height="64" /><image x="128" y="64" href="14373/251796.png" width="64" height="64" /><image x="192" y="64" href="14373/183043.png" width="64" height="64" /><image x="256" y="64" href="14373/182962.png" width="64" height="64" /><image x="0" y="128" href="14373/182968.png" width="64" height="64" /><image x="64" y="128" href="14373/183046.png" width="64" height="64" /><image x="128" y="128" href="14373/251748.png" width="64" height="64" /><image x="192" y="128" href="14373/185628.png" width="64" height="64" /><image x="256" y="128" href="14373/246685.png" width="64" height="64" /><image x="0" y="192" href="14373/182963.png" width="64" height="64" /><image x="64" y="192" href="14373/183069.png" width="64" height="64" /><image x="128" y="192" href="14373/50903.png" width="64" height="64" /><image x="192" y="192" href="14373/50909.png" width="64" height="64" /></svg>