<?xml version="1.0" encoding="UTF-8"?>
<svg xmlns="http://www.w3.org/2000/svg" version="1.1" height="448" width="448"><rect x="0" y="0" width="448" height="448" fill="rgb(192,192,192)" /><image x="0" y="0" href="144396/244220.png" width="64" height="64" /><image x="64" y="0" href="144396/245848.png" width="64" height="64" /><image x="128" y="0" href="144396/245828.png" width="64" height="64" /><image x="192" y="0" href="144396/245868.png" width="64" height="64" /><image x="256" y="0" href="144396/245856.png" width="64" height="64" /><image x="320" y="0" href="144396/245911.png" width="64" height="64" /><image x="384" y="0" href="144396/245858.png" width="64" height="64" /><image x="0" y="64" href="144396/245859.png" width="64" height="64" /><image x="64" y="64" href="144396/245833.png" width="64" height="64" /><image x="128" y="64" href="144396/245830.png" width="64" height="64" /><image x="192" y="64" href="144396/246336.png" width="64" height="64" /><image x="256" y="64" href="144396/245829.png" width="64" height="64" /><image x="320" y="64" href="144396/245870.png" width="64" height="64" /><image x="384" y="64" href="144396/245855.png" width="64" height="64" /><image x="0" y="128" href="144396/247824.png" width="64" height="64" /><image x="64" y="128" href="144396/247768.png" width="64" height="64" /><image x="128" y="128" href="144396/247756.png" width="64" height="64" /><image x="192" y="128" href="144396/247736.png" width="64" height="64" /><image x="256" y="128" href="144396/247847.png" width="64" height="64" /><image x="320" y="128" href="144396/247905.png" width="64" height="64" /><image x="384" y="128" href="144396/247845.png" width="64" height="64" /><image x="0" y="192" href="144396/247851.png" width="64" height="64" /><image x="64" y="192" href="144396/248308.png" width="64" height="64" /><image x="128" y="192" href="144396/248280.png" width="64" height="64" /><image x="192" y="192" href="144396/249227.png" width="64" height="64" /><image x="256" y="192" href="144396/249858.png" width="64" height="64" /><image x="320" y="192" href="144396/249857.png" width="64" height="64" /><image x="384" y="192" href="144396/250572.png" width="64" height="64" /><image x="0" y="256" href="144396/250571.png" width="64" height="64" /><image x="64" y="256" href="144396/243985.png" width="64" height="64" /><image x="128" y="256" href="144396/269233.png" width="64" height="64" /><image x="192" y="256" href="144396/268890.png" width="64" height="64" /><image x="256" y="256" href="144396/269808.png" width="64" height="64" /><image x="320" y="256" href="144396/269805.png" width="64" height="64" /><image x="384" y="256" href="144396/270992.png" width="64" height="64" /><image x="0" y="320" href="144396/270922.png" width="64" height="64" /><image x="64" y="320" href="144396/270993.png" width="64" height="64" /><image x="128" y="320" href="144396/270965.png" width="64" height="64" /><image x="192" y="320" href="144396/270901.png" width="64" height="64" /><image x="256" y="320" href="144396/270898.png" width="64" height="64" /><image x="320" y="320" href="144396/271022.png" width="64" height="64" /></svg>