<?xml version="1.0" encoding="UTF-8"?>
<svg xmlns="http://www.w3.org/2000/svg" version="1.1" height="448" width="448"><rect x="0" y="0" width="448" height="448" fill="rgb(192,192,192)" /><image x="0" y="0" href="144635/242481.png" width="64" height="64" /><image x="64" y="0" href="144635/242554.png" width="64" height="64" /><image x="128" y="0" href="144635/246463.png" width="64" height="64" /><image x="192" y="0" href="144635/244275.png" width="64" height="64" /><image x="256" y="0" href="144635/244276.png" width="64" height="64" /><image x="320" y="0" href="144635/246889.png" width="64" height="64" /><image x="384" y="0" href="144635/245577.png" width="64" height="64" /><image x="0" y="64" href="144635/244265.png" width="64" height="64" /><image x="64" y="64" href="144635/245883.png" width="64" height="64" /><image x="128" y="64" href="144635/259920.png" width="64" height="64" /><image x="192" y="64" href="144635/260137.png" width="64" height="64" /><image x="256" y="64" href="144635/260842.png" width="64" height="64" /><image x="320" y="64" href="144635/260747.png" width="64" height="64" /><image x="384" y="64" href="144635/260811.png" width="64" height="64" /><image x="0" y="128" href="144635/260725.png" width="64" height="64" /><image x="64" y="128" href="144635/260839.png" width="64" height="64" /><image x="128" y="128" href="144635/260840.png" width="64" height="64" /><image x="192" y="128" href="144635/260737.png" width="64" height="64" /><image x="256" y="128" href="144635/262122.png" width="64" height="64" /><image x="320" y="128" href="144635/260722.png" width="64" height="64" /><image x="384" y="128" href="144635/260723.png" width="64" height="64" /><image x="0" y="192" href="144635/260748.png" width="64" height="64" /><image x="64" y="192" href="144635/261072.png" width="64" height="64" /><image x="128" y="192" href="144635/261063.png" width="64" height="64" /><image x="192" y="192" href="144635/261004.png" width="64" height="64" /><image x="256" y="192" href="144635/261005.png" width="64" height="64" /><image x="320" y="192" href="144635/261061.png" width="64" height="64" /><image x="384" y="192" href="144635/260975.png" width="64" height="64" /><image x="0" y="256" href="144635/261086.png" width="64" height="64" /><image x="64" y="256" href="144635/261085.png" width="64" height="64" /><image x="128" y="256" href="144635/270022.png" width="64" height="64" /><image x="192" y="256" href="144635/269926.png" width="64" height="64" /><image x="256" y="256" href="144635/269840.png" width="64" height="64" /><image x="320" y="256" href="144635/269995.png" width="64" height="64" /><image x="384" y="256" href="144635/270020.png" width="64" height="64" /><image x="0" y="320" href="144635/270019.png" width="64" height="64" /><image x="64" y="320" href="144635/262545.png" width="64" height="64" /><image x="128" y="320" href="144635/262568.png" width="64" height="64" /><image x="192" y="320" href="144635/262564.png" width="64" height="64" /><image x="256" y="320" href="144635/262549.png" width="64" height="64" /><image x="320" y="320" href="144635/262571.png" width="64" height="64" /><image x="384" y="320" href="144635/264193.png" width="64" height="64" /><image x="0" y="384" href="144635/262550.png" width="64" height="64" /><image x="64" y="384" href="144635/262570.png" width="64" height="64" /></svg>