<?xml version="1.0" encoding="UTF-8"?>
<svg xmlns="http://www.w3.org/2000/svg" version="1.1" height="576" width="576"><rect x="0" y="0" width="576" height="576" fill="rgb(192,192,192)" /><image x="0" y="0" href="145272/245029.png" width="64" height="64" /><image x="64" y="0" href="145272/246267.png" width="64" height="64" /><image x="128" y="0" href="145272/246230.png" width="64" height="64" /><image x="192" y="0" href="145272/246234.png" width="64" height="64" /><image x="256" y="0" href="145272/246189.png" width="64" height="64" /><image x="320" y="0" href="145272/246343.png" width="64" height="64" /><image x="384" y="0" href="145272/246268.png" width="64" height="64" /><image x="448" y="0" href="145272/246990.png" width="64" height="64" /><image x="512" y="0" href="145272/246344.png" width="64" height="64" /><image x="0" y="64" href="145272/246242.png" width="64" height="64" /><image x="64" y="64" href="145272/246265.png" width="64" height="64" /><image x="128" y="64" href="145272/247657.png" width="64" height="64" /><image x="192" y="64" href="145272/246340.png" width="64" height="64" /><image x="256" y="64" href="145272/249917.png" width="64" height="64" /><image x="320" y="64" href="145272/246339.png" width="64" height="64" /><image x="384" y="64" href="145272/246241.png" width="64" height="64" /><image x="448" y="64" href="145272/246244.png" width="64" height="64" /><image x="512" y="64" href="145272/246342.png" width="64" height="64" /><image x="0" y="128" href="145272/246187.png" width="64" height="64" /><image x="64" y="128" href="145272/246183.png" width="64" height="64" /><image x="128" y="128" href="145272/246186.png" width="64" height="64" /><image x="192" y="128" href="145272/246243.png" width="64" height="64" /><image x="256" y="128" href="145272/246227.png" width="64" height="64" /><image x="320" y="128" href="145272/246341.png" width="64" height="64" /><image x="384" y="128" href="145272/246229.png" width="64" height="64" /><image x="448" y="128" href="145272/246185.png" width="64" height="64" /><image x="512" y="128" href="145272/246184.png" width="64" height="64" /><image x="0" y="192" href="145272/246228.png" width="64" height="64" /><image x="64" y="192" href="145272/246266.png" width="64" height="64" /><image x="128" y="192" href="145272/246232.png" width="64" height="64" /><image x="192" y="192" href="145272/246188.png" width="64" height="64" /><image x="256" y="192" href="145272/246233.png" width="64" height="64" /><image x="320" y="192" href="145272/246356.png" width="64" height="64" /><image x="384" y="192" href="145272/246235.png" width="64" height="64" /><image x="448" y="192" href="145272/246236.png" width="64" height="64" /><image x="512" y="192" href="145272/246231.png" width="64" height="64" /><image x="0" y="256" href="145272/246355.png" width="64" height="64" /><image x="64" y="256" href="145272/246357.png" width="64" height="64" /><image x="128" y="256" href="145272/246345.png" width="64" height="64" /><image x="192" y="256" href="145272/246240.png" width="64" height="64" /><image x="256" y="256" href="145272/246392.png" width="64" height="64" /><image x="320" y="256" href="145272/246434.png" width="64" height="64" /><image x="384" y="256" href="145272/246298.png" width="64" height="64" /><image x="448" y="256" href="145272/246380.png" width="64" height="64" /><image x="512" y="256" href="145272/246448.png" width="64" height="64" /><image x="0" y="320" href="145272/246261.png" width="64" height="64" /><image x="64" y="320" href="145272/246207.png" width="64" height="64" /><image x="128" y="320" href="145272/246409.png" width="64" height="64" /><image x="192" y="320" href="145272/246287.png" width="64" height="64" /><image x="256" y="320" href="145272/246286.png" width="64" height="64" /><image x="320" y="320" href="145272/246442.png" width="64" height="64" /><image x="384" y="320" href="145272/246288.png" width="64" height="64" /><image x="448" y="320" href="145272/246419.png" width="64" height="64" /><image x="512" y="320" href="145272/246299.png" width="64" height="64" /><image x="0" y="384" href="145272/246212.png" width="64" height="64" /><image x="64" y="384" href="145272/246369.png" width="64" height="64" /><image x="128" y="384" href="145272/246421.png" width="64" height="64" /><image x="192" y="384" href="145272/246301.png" width="64" height="64" /><image x="256" y="384" href="145272/246313.png" width="64" height="64" /><image x="320" y="384" href="145272/246444.png" width="64" height="64" /><image x="384" y="384" href="145272/246420.png" width="64" height="64" /><image x="448" y="384" href="145272/246384.png" width="64" height="64" /><image x="512" y="384" href="145272/246447.png" width="64" height="64" /><image x="0" y="448" href="145272/246316.png" width="64" height="64" /><image x="64" y="448" href="145272/246456.png" width="64" height="64" /><image x="128" y="448" href="145272/246289.png" width="64" height="64" /><image x="192" y="448" href="145272/246294.png" width="64" height="64" /><image x="256" y="448" href="145272/246366.png" width="64" height="64" /><image x="320" y="448" href="145272/246399.png" width="64" height="64" /><image x="384" y="448" href="145272/246293.png" width="64" height="64" /></svg>