<?xml version="1.0" encoding="UTF-8"?>
<svg xmlns="http://www.w3.org/2000/svg" version="1.1" height="576" width="576"><rect x="0" y="0" width="576" height="576" fill="rgb(192,192,192)" /><image x="0" y="0" href="146497/214243.png" width="64" height="64" /><image x="64" y="0" href="146497/214352.png" width="64" height="64" /><image x="128" y="0" href="146497/213878.png" width="64" height="64" /><image x="192" y="0" href="146497/214393.png" width="64" height="64" /><image x="256" y="0" href="146497/213880.png" width="64" height="64" /><image x="320" y="0" href="146497/214322.png" width="64" height="64" /><image x="384" y="0" href="146497/214365.png" width="64" height="64" /><image x="448" y="0" href="146497/214353.png" width="64" height="64" /><image x="512" y="0" href="146497/214160.png" width="64" height="64" /><image x="0" y="64" href="146497/214605.png" width="64" height="64" /><image x="64" y="64" href="146497/216747.png" width="64" height="64" /><image x="128" y="64" href="146497/216718.png" width="64" height="64" /><image x="192" y="64" href="146497/214897.png" width="64" height="64" /><image x="256" y="64" href="146497/214896.png" width="64" height="64" /><image x="320" y="64" href="146497/214562.png" width="64" height="64" /><image x="384" y="64" href="146497/214890.png" width="64" height="64" /><image x="448" y="64" href="146497/214364.png" width="64" height="64" /><image x="512" y="64" href="146497/214807.png" width="64" height="64" /><image x="0" y="128" href="146497/214811.png" width="64" height="64" /><image x="64" y="128" href="146497/216792.png" width="64" height="64" /><image x="128" y="128" href="146497/216890.png" width="64" height="64" /><image x="192" y="128" href="146497/216974.png" width="64" height="64" /><image x="256" y="128" href="146497/218078.png" width="64" height="64" /><image x="320" y="128" href="146497/218202.png" width="64" height="64" /><image x="384" y="128" href="146497/218317.png" width="64" height="64" /><image x="448" y="128" href="146497/218275.png" width="64" height="64" /><image x="512" y="128" href="146497/218313.png" width="64" height="64" /><image x="0" y="192" href="146497/218269.png" width="64" height="64" /><image x="64" y="192" href="146497/238001.png" width="64" height="64" /><image x="128" y="192" href="146497/238038.png" width="64" height="64" /><image x="192" y="192" href="146497/238337.png" width="64" height="64" /><image x="256" y="192" href="146497/251276.png" width="64" height="64" /><image x="320" y="192" href="146497/238338.png" width="64" height="64" /><image x="384" y="192" href="146497/238415.png" width="64" height="64" /><image x="448" y="192" href="146497/238407.png" width="64" height="64" /><image x="512" y="192" href="146497/238887.png" width="64" height="64" /><image x="0" y="256" href="146497/238000.png" width="64" height="64" /><image x="64" y="256" href="146497/238843.png" width="64" height="64" /><image x="128" y="256" href="146497/238891.png" width="64" height="64" /><image x="192" y="256" href="146497/239308.png" width="64" height="64" /><image x="256" y="256" href="146497/239505.png" width="64" height="64" /><image x="320" y="256" href="146497/239510.png" width="64" height="64" /><image x="384" y="256" href="146497/239519.png" width="64" height="64" /><image x="448" y="256" href="146497/239485.png" width="64" height="64" /><image x="512" y="256" href="146497/240530.png" width="64" height="64" /><image x="0" y="320" href="146497/240510.png" width="64" height="64" /><image x="64" y="320" href="146497/247684.png" width="64" height="64" /><image x="128" y="320" href="146497/248276.png" width="64" height="64" /><image x="192" y="320" href="146497/248354.png" width="64" height="64" /><image x="256" y="320" href="146497/240447.png" width="64" height="64" /><image x="320" y="320" href="146497/240777.png" width="64" height="64" /><image x="384" y="320" href="146497/241109.png" width="64" height="64" /><image x="448" y="320" href="146497/241110.png" width="64" height="64" /><image x="512" y="320" href="146497/240465.png" width="64" height="64" /><image x="0" y="384" href="146497/240734.png" width="64" height="64" /><image x="64" y="384" href="146497/240933.png" width="64" height="64" /><image x="128" y="384" href="146497/240766.png" width="64" height="64" /><image x="192" y="384" href="146497/240528.png" width="64" height="64" /><image x="256" y="384" href="146497/237428.png" width="64" height="64" /><image x="320" y="384" href="146497/240934.png" width="64" height="64" /><image x="384" y="384" href="146497/242430.png" width="64" height="64" /><image x="448" y="384" href="146497/242398.png" width="64" height="64" /><image x="512" y="384" href="146497/241839.png" width="64" height="64" /><image x="0" y="448" href="146497/242464.png" width="64" height="64" /><image x="64" y="448" href="146497/242513.png" width="64" height="64" /><image x="128" y="448" href="146497/246691.png" width="64" height="64" /><image x="192" y="448" href="146497/246788.png" width="64" height="64" /><image x="256" y="448" href="146497/247268.png" width="64" height="64" /><image x="320" y="448" href="146497/247270.png" width="64" height="64" /><image x="384" y="448" href="146497/247149.png" width="64" height="64" /><image x="448" y="448" href="146497/243620.png" width="64" height="64" /></svg>