<?xml version="1.0" encoding="UTF-8"?>
<svg xmlns="http://www.w3.org/2000/svg" version="1.1" height="1216" width="1216"><rect x="0" y="0" width="1216" height="1216" fill="rgb(192,192,192)" /><image x="0" y="0" href="149559/251225.png" width="64" height="64" /><image x="64" y="0" href="149559/251224.png" width="64" height="64" /><image x="128" y="0" href="149559/251213.png" width="64" height="64" /><image x="192" y="0" href="149559/251212.png" width="64" height="64" /><image x="256" y="0" href="149559/251216.png" width="64" height="64" /><image x="320" y="0" href="149559/251211.png" width="64" height="64" /><image x="384" y="0" href="149559/251420.png" width="64" height="64" /><image x="448" y="0" href="149559/251409.png" width="64" height="64" /><image x="512" y="0" href="149559/251379.png" width="64" height="64" /><image x="576" y="0" href="149559/251377.png" width="64" height="64" /><image x="640" y="0" href="149559/251337.png" width="64" height="64" /><image x="704" y="0" href="149559/251413.png" width="64" height="64" /><image x="768" y="0" href="149559/251412.png" width="64" height="64" /><image x="832" y="0" href="149559/251384.png" width="64" height="64" /><image x="896" y="0" href="149559/251334.png" width="64" height="64" /><image x="960" y="0" href="149559/251525.png" width="64" height="64" /><image x="1024" y="0" href="149559/251726.png" width="64" height="64" /><image x="1088" y="0" href="149559/251719.png" width="64" height="64" /><image x="1152" y="0" href="149559/251710.png" width="64" height="64" /><image x="0" y="64" href="149559/251702.png" width="64" height="64" /><image x="64" y="64" href="149559/251711.png" width="64" height="64" /><image x="128" y="64" href="149559/251794.png" width="64" height="64" /><image x="192" y="64" href="149559/252297.png" width="64" height="64" /><image x="256" y="64" href="149559/252295.png" width="64" height="64" /><image x="320" y="64" href="149559/251720.png" width="64" height="64" /><image x="384" y="64" href="149559/251708.png" width="64" height="64" /><image x="448" y="64" href="149559/252181.png" width="64" height="64" /><image x="512" y="64" href="149559/252343.png" width="64" height="64" /><image x="576" y="64" href="149559/252350.png" width="64" height="64" /><image x="640" y="64" href="149559/252100.png" width="64" height="64" /><image x="704" y="64" href="149559/252133.png" width="64" height="64" /><image x="768" y="64" href="149559/252216.png" width="64" height="64" /><image x="832" y="64" href="149559/252101.png" width="64" height="64" /><image x="896" y="64" href="149559/252180.png" width="64" height="64" /><image x="960" y="64" href="149559/252211.png" width="64" height="64" /><image x="1024" y="64" href="149559/252139.png" width="64" height="64" /><image x="1088" y="64" href="149559/252485.png" width="64" height="64" /><image x="1152" y="64" href="149559/252668.png" width="64" height="64" /><image x="0" y="128" href="149559/252669.png" width="64" height="64" /><image x="64" y="128" href="149559/252710.png" width="64" height="64" /><image x="128" y="128" href="149559/252709.png" width="64" height="64" /><image x="192" y="128" href="149559/252694.png" width="64" height="64" /><image x="256" y="128" href="149559/252670.png" width="64" height="64" /><image x="320" y="128" href="149559/252661.png" width="64" height="64" /><image x="384" y="128" href="149559/252672.png" width="64" height="64" /><image x="448" y="128" href="149559/252662.png" width="64" height="64" /><image x="512" y="128" href="149559/252692.png" width="64" height="64" /><image x="576" y="128" href="149559/252693.png" width="64" height="64" /><image x="640" y="128" href="149559/252671.png" width="64" height="64" /><image x="704" y="128" href="149559/252644.png" width="64" height="64" /><image x="768" y="128" href="149559/252708.png" width="64" height="64" /><image x="832" y="128" href="149559/253573.png" width="64" height="64" /><image x="896" y="128" href="149559/253492.png" width="64" height="64" /><image x="960" y="128" href="149559/253586.png" width="64" height="64" /><image x="1024" y="128" href="149559/253530.png" width="64" height="64" /><image x="1088" y="128" href="149559/253695.png" width="64" height="64" /><image x="1152" y="128" href="149559/253635.png" width="64" height="64" /><image x="0" y="192" href="149559/253608.png" width="64" height="64" /><image x="64" y="192" href="149559/253694.png" width="64" height="64" /><image x="128" y="192" href="149559/253637.png" width="64" height="64" /><image x="192" y="192" href="149559/253786.png" width="64" height="64" /><image x="256" y="192" href="149559/253760.png" width="64" height="64" /><image x="320" y="192" href="149559/253745.png" width="64" height="64" /><image x="384" y="192" href="149559/253747.png" width="64" height="64" /><image x="448" y="192" href="149559/253724.png" width="64" height="64" /><image x="512" y="192" href="149559/253746.png" width="64" height="64" /><image x="576" y="192" href="149559/253749.png" width="64" height="64" /><image x="640" y="192" href="149559/253835.png" width="64" height="64" /><image x="704" y="192" href="149559/253771.png" width="64" height="64" /><image x="768" y="192" href="149559/253728.png" width="64" height="64" /><image x="832" y="192" href="149559/253788.png" width="64" height="64" /><image x="896" y="192" href="149559/253761.png" width="64" height="64" /><image x="960" y="192" href="149559/253748.png" width="64" height="64" /><image x="1024" y="192" href="149559/253833.png" width="64" height="64" /><image x="1088" y="192" href="149559/253727.png" width="64" height="64" /><image x="1152" y="192" href="149559/253741.png" width="64" height="64" /><image x="0" y="256" href="149559/253787.png" width="64" height="64" /><image x="64" y="256" href="149559/253834.png" width="64" height="64" /><image x="128" y="256" href="149559/253832.png" width="64" height="64" /><image x="192" y="256" href="149559/253789.png" width="64" height="64" /><image x="256" y="256" href="149559/253730.png" width="64" height="64" /><image x="320" y="256" href="149559/253726.png" width="64" height="64" /><image x="384" y="256" href="149559/253729.png" width="64" height="64" /><image x="448" y="256" href="149559/255326.png" width="64" height="64" /><image x="512" y="256" href="149559/255337.png" width="64" height="64" /><image x="576" y="256" href="149559/255354.png" width="64" height="64" /><image x="640" y="256" href="149559/255303.png" width="64" height="64" /><image x="704" y="256" href="149559/255277.png" width="64" height="64" /><image x="768" y="256" href="149559/255296.png" width="64" height="64" /><image x="832" y="256" href="149559/255499.png" width="64" height="64" /><image x="896" y="256" href="149559/255280.png" width="64" height="64" /><image x="960" y="256" href="149559/255361.png" width="64" height="64" /><image x="1024" y="256" href="149559/255325.png" width="64" height="64" /><image x="1088" y="256" href="149559/255336.png" width="64" height="64" /><image x="1152" y="256" href="149559/255259.png" width="64" height="64" /><image x="0" y="320" href="149559/255500.png" width="64" height="64" /><image x="64" y="320" href="149559/255258.png" width="64" height="64" /><image x="128" y="320" href="149559/255319.png" width="64" height="64" /><image x="192" y="320" href="149559/255279.png" width="64" height="64" /><image x="256" y="320" href="149559/255792.png" width="64" height="64" /><image x="320" y="320" href="149559/255793.png" width="64" height="64" /><image x="384" y="320" href="149559/255801.png" width="64" height="64" /><image x="448" y="320" href="149559/255652.png" width="64" height="64" /><image x="512" y="320" href="149559/255758.png" width="64" height="64" /><image x="576" y="320" href="149559/255761.png" width="64" height="64" /><image x="640" y="320" href="149559/255756.png" width="64" height="64" /><image x="704" y="320" href="149559/258579.png" width="64" height="64" /><image x="768" y="320" href="149559/258553.png" width="64" height="64" /><image x="832" y="320" href="149559/258578.png" width="64" height="64" /><image x="896" y="320" href="149559/258601.png" width="64" height="64" /><image x="960" y="320" href="149559/258572.png" width="64" height="64" /><image x="1024" y="320" href="149559/258571.png" width="64" height="64" /><image x="1088" y="320" href="149559/258616.png" width="64" height="64" /><image x="1152" y="320" href="149559/258505.png" width="64" height="64" /><image x="0" y="384" href="149559/258615.png" width="64" height="64" /><image x="64" y="384" href="149559/258580.png" width="64" height="64" /><image x="128" y="384" href="149559/258570.png" width="64" height="64" /><image x="192" y="384" href="149559/258617.png" width="64" height="64" /><image x="256" y="384" href="149559/258618.png" width="64" height="64" /><image x="320" y="384" href="149559/258241.png" width="64" height="64" /><image x="384" y="384" href="149559/258229.png" width="64" height="64" /><image x="448" y="384" href="149559/258242.png" width="64" height="64" /><image x="512" y="384" href="149559/258238.png" width="64" height="64" /><image x="576" y="384" href="149559/258237.png" width="64" height="64" /><image x="640" y="384" href="149559/258245.png" width="64" height="64" /><image x="704" y="384" href="149559/258244.png" width="64" height="64" /><image x="768" y="384" href="149559/258228.png" width="64" height="64" /><image x="832" y="384" href="149559/258224.png" width="64" height="64" /><image x="896" y="384" href="149559/258236.png" width="64" height="64" /><image x="960" y="384" href="149559/258260.png" width="64" height="64" /><image x="1024" y="384" href="149559/258223.png" width="64" height="64" /><image x="1088" y="384" href="149559/258227.png" width="64" height="64" /><image x="1152" y="384" href="149559/258798.png" width="64" height="64" /><image x="0" y="448" href="149559/258819.png" width="64" height="64" /><image x="64" y="448" href="149559/258818.png" width="64" height="64" /><image x="128" y="448" href="149559/258794.png" width="64" height="64" /><image x="192" y="448" href="149559/258880.png" width="64" height="64" /><image x="256" y="448" href="149559/258820.png" width="64" height="64" /><image x="320" y="448" href="149559/258803.png" width="64" height="64" /><image x="384" y="448" href="149559/258800.png" width="64" height="64" /><image x="448" y="448" href="149559/258799.png" width="64" height="64" /><image x="512" y="448" href="149559/258809.png" width="64" height="64" /><image x="576" y="448" href="149559/258834.png" width="64" height="64" /><image x="640" y="448" href="149559/258850.png" width="64" height="64" /><image x="704" y="448" href="149559/260037.png" width="64" height="64" /><image x="768" y="448" href="149559/260045.png" width="64" height="64" /><image x="832" y="448" href="149559/260071.png" width="64" height="64" /><image x="896" y="448" href="149559/260044.png" width="64" height="64" /><image x="960" y="448" href="149559/260005.png" width="64" height="64" /><image x="1024" y="448" href="149559/260043.png" width="64" height="64" /><image x="1088" y="448" href="149559/260070.png" width="64" height="64" /><image x="1152" y="448" href="149559/259953.png" width="64" height="64" /><image x="0" y="512" href="149559/259964.png" width="64" height="64" /><image x="64" y="512" href="149559/260065.png" width="64" height="64" /><image x="128" y="512" href="149559/260062.png" width="64" height="64" /><image x="192" y="512" href="149559/259985.png" width="64" height="64" /><image x="256" y="512" href="149559/260014.png" width="64" height="64" /><image x="320" y="512" href="149559/260012.png" width="64" height="64" /><image x="384" y="512" href="149559/260027.png" width="64" height="64" /><image x="448" y="512" href="149559/260408.png" width="64" height="64" /><image x="512" y="512" href="149559/260381.png" width="64" height="64" /><image x="576" y="512" href="149559/260380.png" width="64" height="64" /><image x="640" y="512" href="149559/260428.png" width="64" height="64" /><image x="704" y="512" href="149559/260499.png" width="64" height="64" /><image x="768" y="512" href="149559/260378.png" width="64" height="64" /><image x="832" y="512" href="149559/260363.png" width="64" height="64" /><image x="896" y="512" href="149559/260379.png" width="64" height="64" /><image x="960" y="512" href="149559/260364.png" width="64" height="64" /><image x="1024" y="512" href="149559/260675.png" width="64" height="64" /><image x="1088" y="512" href="149559/260799.png" width="64" height="64" /><image x="1152" y="512" href="149559/260676.png" width="64" height="64" /><image x="0" y="576" href="149559/260674.png" width="64" height="64" /><image x="64" y="576" href="149559/260785.png" width="64" height="64" /><image x="128" y="576" href="149559/260786.png" width="64" height="64" /><image x="192" y="576" href="149559/260783.png" width="64" height="64" /><image x="256" y="576" href="149559/260692.png" width="64" height="64" /><image x="320" y="576" href="149559/260691.png" width="64" height="64" /><image x="384" y="576" href="149559/261024.png" width="64" height="64" /><image x="448" y="576" href="149559/261078.png" width="64" height="64" /><image x="512" y="576" href="149559/261001.png" width="64" height="64" /><image x="576" y="576" href="149559/261027.png" width="64" height="64" /><image x="640" y="576" href="149559/261013.png" width="64" height="64" /><image x="704" y="576" href="149559/261079.png" width="64" height="64" /><image x="768" y="576" href="149559/261002.png" width="64" height="64" /><image x="832" y="576" href="149559/261032.png" width="64" height="64" /><image x="896" y="576" href="149559/260942.png" width="64" height="64" /><image x="960" y="576" href="149559/261028.png" width="64" height="64" /><image x="1024" y="576" href="149559/261355.png" width="64" height="64" /><image x="1088" y="576" href="149559/261383.png" width="64" height="64" /><image x="1152" y="576" href="149559/261431.png" width="64" height="64" /><image x="0" y="640" href="149559/261382.png" width="64" height="64" /><image x="64" y="640" href="149559/261357.png" width="64" height="64" /><image x="128" y="640" href="149559/261408.png" width="64" height="64" /><image x="192" y="640" href="149559/261305.png" width="64" height="64" /><image x="256" y="640" href="149559/261356.png" width="64" height="64" /><image x="320" y="640" href="149559/261394.png" width="64" height="64" /><image x="384" y="640" href="149559/261333.png" width="64" height="64" /><image x="448" y="640" href="149559/261429.png" width="64" height="64" /><image x="512" y="640" href="149559/261389.png" width="64" height="64" /><image x="576" y="640" href="149559/261520.png" width="64" height="64" /><image x="640" y="640" href="149559/261566.png" width="64" height="64" /><image x="704" y="640" href="149559/261510.png" width="64" height="64" /><image x="768" y="640" href="149559/261678.png" width="64" height="64" /><image x="832" y="640" href="149559/261756.png" width="64" height="64" /><image x="896" y="640" href="149559/261519.png" width="64" height="64" /><image x="960" y="640" href="149559/261823.png" width="64" height="64" /><image x="1024" y="640" href="149559/261685.png" width="64" height="64" /><image x="1088" y="640" href="149559/261691.png" width="64" height="64" /><image x="1152" y="640" href="149559/261825.png" width="64" height="64" /><image x="0" y="704" href="149559/262121.png" width="64" height="64" /><image x="64" y="704" href="149559/261940.png" width="64" height="64" /><image x="128" y="704" href="149559/261941.png" width="64" height="64" /><image x="192" y="704" href="149559/261830.png" width="64" height="64" /><image x="256" y="704" href="149559/261817.png" width="64" height="64" /><image x="320" y="704" href="149559/261773.png" width="64" height="64" /><image x="384" y="704" href="149559/262307.png" width="64" height="64" /><image x="448" y="704" href="149559/262329.png" width="64" height="64" /><image x="512" y="704" href="149559/262322.png" width="64" height="64" /><image x="576" y="704" href="149559/262330.png" width="64" height="64" /><image x="640" y="704" href="149559/262315.png" width="64" height="64" /><image x="704" y="704" href="149559/262308.png" width="64" height="64" /><image x="768" y="704" href="149559/262328.png" width="64" height="64" /><image x="832" y="704" href="149559/262326.png" width="64" height="64" /><image x="896" y="704" href="149559/262317.png" width="64" height="64" /><image x="960" y="704" href="149559/262300.png" width="64" height="64" /><image x="1024" y="704" href="149559/262316.png" width="64" height="64" /><image x="1088" y="704" href="149559/262301.png" width="64" height="64" /><image x="1152" y="704" href="149559/262320.png" width="64" height="64" /><image x="0" y="768" href="149559/262331.png" width="64" height="64" /><image x="64" y="768" href="149559/262310.png" width="64" height="64" /><image x="128" y="768" href="149559/262902.png" width="64" height="64" /><image x="192" y="768" href="149559/263154.png" width="64" height="64" /><image x="256" y="768" href="149559/263155.png" width="64" height="64" /><image x="320" y="768" href="149559/263180.png" width="64" height="64" /><image x="384" y="768" href="149559/262900.png" width="64" height="64" /><image x="448" y="768" href="149559/262922.png" width="64" height="64" /><image x="512" y="768" href="149559/262901.png" width="64" height="64" /><image x="576" y="768" href="149559/262817.png" width="64" height="64" /><image x="640" y="768" href="149559/262917.png" width="64" height="64" /><image x="704" y="768" href="149559/263176.png" width="64" height="64" /><image x="768" y="768" href="149559/263178.png" width="64" height="64" /><image x="832" y="768" href="149559/263145.png" width="64" height="64" /><image x="896" y="768" href="149559/263164.png" width="64" height="64" /><image x="960" y="768" href="149559/262921.png" width="64" height="64" /><image x="1024" y="768" href="149559/263163.png" width="64" height="64" /><image x="1088" y="768" href="149559/262781.png" width="64" height="64" /><image x="1152" y="768" href="149559/263157.png" width="64" height="64" /><image x="0" y="832" href="149559/263171.png" width="64" height="64" /><image x="64" y="832" href="149559/263166.png" width="64" height="64" /><image x="128" y="832" href="149559/262824.png" width="64" height="64" /><image x="192" y="832" href="149559/263158.png" width="64" height="64" /><image x="256" y="832" href="149559/263167.png" width="64" height="64" /><image x="320" y="832" href="149559/263161.png" width="64" height="64" /><image x="384" y="832" href="149559/263162.png" width="64" height="64" /><image x="448" y="832" href="149559/262841.png" width="64" height="64" /><image x="512" y="832" href="149559/264471.png" width="64" height="64" /><image x="576" y="832" href="149559/263150.png" width="64" height="64" /><image x="640" y="832" href="149559/262842.png" width="64" height="64" /><image x="704" y="832" href="149559/262732.png" width="64" height="64" /><image x="768" y="832" href="149559/263149.png" width="64" height="64" /><image x="832" y="832" href="149559/263173.png" width="64" height="64" /><image x="896" y="832" href="149559/263144.png" width="64" height="64" /><image x="960" y="832" href="149559/262831.png" width="64" height="64" /><image x="1024" y="832" href="149559/262870.png" width="64" height="64" /><image x="1088" y="832" href="149559/263177.png" width="64" height="64" /><image x="1152" y="832" href="149559/262890.png" width="64" height="64" /><image x="0" y="896" href="149559/263172.png" width="64" height="64" /><image x="64" y="896" href="149559/263293.png" width="64" height="64" /><image x="128" y="896" href="149559/263226.png" width="64" height="64" /><image x="192" y="896" href="149559/263207.png" width="64" height="64" /><image x="256" y="896" href="149559/263209.png" width="64" height="64" /><image x="320" y="896" href="149559/263206.png" width="64" height="64" /><image x="384" y="896" href="149559/263208.png" width="64" height="64" /><image x="448" y="896" href="149559/263297.png" width="64" height="64" /><image x="512" y="896" href="149559/263220.png" width="64" height="64" /><image x="576" y="896" href="149559/263312.png" width="64" height="64" /><image x="640" y="896" href="149559/263367.png" width="64" height="64" /><image x="704" y="896" href="149559/263296.png" width="64" height="64" /><image x="768" y="896" href="149559/263218.png" width="64" height="64" /><image x="832" y="896" href="149559/263313.png" width="64" height="64" /><image x="896" y="896" href="149559/263247.png" width="64" height="64" /><image x="960" y="896" href="149559/263219.png" width="64" height="64" /><image x="1024" y="896" href="149559/263217.png" width="64" height="64" /><image x="1088" y="896" href="149559/263248.png" width="64" height="64" /><image x="1152" y="896" href="149559/263295.png" width="64" height="64" /><image x="0" y="960" href="149559/263232.png" width="64" height="64" /><image x="64" y="960" href="149559/263366.png" width="64" height="64" /><image x="128" y="960" href="149559/264488.png" width="64" height="64" /><image x="192" y="960" href="149559/263194.png" width="64" height="64" /><image x="256" y="960" href="149559/264481.png" width="64" height="64" /><image x="320" y="960" href="149559/264373.png" width="64" height="64" /><image x="384" y="960" href="149559/264175.png" width="64" height="64" /><image x="448" y="960" href="149559/264247.png" width="64" height="64" /><image x="512" y="960" href="149559/264337.png" width="64" height="64" /><image x="576" y="960" href="149559/264215.png" width="64" height="64" /><image x="640" y="960" href="149559/264248.png" width="64" height="64" /><image x="704" y="960" href="149559/264216.png" width="64" height="64" /><image x="768" y="960" href="149559/264255.png" width="64" height="64" /><image x="832" y="960" href="149559/264344.png" width="64" height="64" /><image x="896" y="960" href="149559/264242.png" width="64" height="64" /><image x="960" y="960" href="149559/264254.png" width="64" height="64" /><image x="1024" y="960" href="149559/264360.png" width="64" height="64" /><image x="1088" y="960" href="149559/264345.png" width="64" height="64" /><image x="1152" y="960" href="149559/264241.png" width="64" height="64" /><image x="0" y="1024" href="149559/264361.png" width="64" height="64" /><image x="64" y="1024" href="149559/264240.png" width="64" height="64" /><image x="128" y="1024" href="149559/264339.png" width="64" height="64" /><image x="192" y="1024" href="149559/264374.png" width="64" height="64" /><image x="256" y="1024" href="149559/264338.png" width="64" height="64" /><image x="320" y="1024" href="149559/264335.png" width="64" height="64" /><image x="384" y="1024" href="149559/264659.png" width="64" height="64" /><image x="448" y="1024" href="149559/264791.png" width="64" height="64" /><image x="512" y="1024" href="149559/264855.png" width="64" height="64" /><image x="576" y="1024" href="149559/264600.png" width="64" height="64" /><image x="640" y="1024" href="149559/264947.png" width="64" height="64" /><image x="704" y="1024" href="149559/264856.png" width="64" height="64" /><image x="768" y="1024" href="149559/264793.png" width="64" height="64" /><image x="832" y="1024" href="149559/264692.png" width="64" height="64" /><image x="896" y="1024" href="149559/264720.png" width="64" height="64" /><image x="960" y="1024" href="149559/264601.png" width="64" height="64" /><image x="1024" y="1024" href="149559/264811.png" width="64" height="64" /><image x="1088" y="1024" href="149559/264810.png" width="64" height="64" /><image x="1152" y="1024" href="149559/264897.png" width="64" height="64" /><image x="0" y="1088" href="149559/264602.png" width="64" height="64" /><image x="64" y="1088" href="149559/264693.png" width="64" height="64" /><image x="128" y="1088" href="149559/264813.png" width="64" height="64" /><image x="192" y="1088" href="149559/264688.png" width="64" height="64" /><image x="256" y="1088" href="149559/264882.png" width="64" height="64" /><image x="320" y="1088" href="149559/264689.png" width="64" height="64" /><image x="384" y="1088" href="149559/264881.png" width="64" height="64" /><image x="448" y="1088" href="149559/265582.png" width="64" height="64" /><image x="512" y="1088" href="149559/265642.png" width="64" height="64" /><image x="576" y="1088" href="149559/265947.png" width="64" height="64" /><image x="640" y="1088" href="149559/265580.png" width="64" height="64" /><image x="704" y="1088" href="149559/265706.png" width="64" height="64" /><image x="768" y="1088" href="149559/265624.png" width="64" height="64" /><image x="832" y="1088" href="149559/265946.png" width="64" height="64" /><image x="896" y="1088" href="149559/265608.png" width="64" height="64" /><image x="960" y="1088" href="149559/265623.png" width="64" height="64" /><image x="1024" y="1088" href="149559/265620.png" width="64" height="64" /><image x="1088" y="1088" href="149559/265948.png" width="64" height="64" /><image x="1152" y="1088" href="149559/265581.png" width="64" height="64" /><image x="0" y="1152" href="149559/265577.png" width="64" height="64" /><image x="64" y="1152" href="149559/265648.png" width="64" height="64" /><image x="128" y="1152" href="149559/265621.png" width="64" height="64" /><image x="192" y="1152" href="149559/265647.png" width="64" height="64" /><image x="256" y="1152" href="149559/265622.png" width="64" height="64" /><image x="320" y="1152" href="149559/265950.png" width="64" height="64" /><image x="384" y="1152" href="149559/265951.png" width="64" height="64" /><image x="448" y="1152" href="149559/265609.png" width="64" height="64" /><image x="512" y="1152" href="149559/265955.png" width="64" height="64" /><image x="576" y="1152" href="149559/265949.png" width="64" height="64" /><image x="640" y="1152" href="149559/265578.png" width="64" height="64" /><image x="704" y="1152" href="149559/265953.png" width="64" height="64" /><image x="768" y="1152" href="149559/265607.png" width="64" height="64" /><image x="832" y="1152" href="149559/265954.png" width="64" height="64" /></svg>