<?xml version="1.0" encoding="UTF-8"?>
<svg xmlns="http://www.w3.org/2000/svg" version="1.1" height="1024" width="1024"><rect x="0" y="0" width="1024" height="1024" fill="rgb(192,192,192)" /><image x="0" y="0" href="155000/259952.png" width="64" height="64" /><image x="64" y="0" href="155000/259951.png" width="64" height="64" /><image x="128" y="0" href="155000/260472.png" width="64" height="64" /><image x="192" y="0" href="155000/260488.png" width="64" height="64" /><image x="256" y="0" href="155000/260443.png" width="64" height="64" /><image x="320" y="0" href="155000/260487.png" width="64" height="64" /><image x="384" y="0" href="155000/260474.png" width="64" height="64" /><image x="448" y="0" href="155000/260484.png" width="64" height="64" /><image x="512" y="0" href="155000/260416.png" width="64" height="64" /><image x="576" y="0" href="155000/260485.png" width="64" height="64" /><image x="640" y="0" href="155000/260483.png" width="64" height="64" /><image x="704" y="0" href="155000/260415.png" width="64" height="64" /><image x="768" y="0" href="155000/260471.png" width="64" height="64" /><image x="832" y="0" href="155000/260489.png" width="64" height="64" /><image x="896" y="0" href="155000/260414.png" width="64" height="64" /><image x="960" y="0" href="155000/260442.png" width="64" height="64" /><image x="0" y="64" href="155000/260846.png" width="64" height="64" /><image x="64" y="64" href="155000/260756.png" width="64" height="64" /><image x="128" y="64" href="155000/260757.png" width="64" height="64" /><image x="192" y="64" href="155000/260728.png" width="64" height="64" /><image x="256" y="64" href="155000/260847.png" width="64" height="64" /><image x="320" y="64" href="155000/260727.png" width="64" height="64" /><image x="384" y="64" href="155000/260751.png" width="64" height="64" /><image x="448" y="64" href="155000/260784.png" width="64" height="64" /><image x="512" y="64" href="155000/260709.png" width="64" height="64" /><image x="576" y="64" href="155000/260832.png" width="64" height="64" /><image x="640" y="64" href="155000/260825.png" width="64" height="64" /><image x="704" y="64" href="155000/260766.png" width="64" height="64" /><image x="768" y="64" href="155000/260773.png" width="64" height="64" /><image x="832" y="64" href="155000/260850.png" width="64" height="64" /><image x="896" y="64" href="155000/260854.png" width="64" height="64" /><image x="960" y="64" href="155000/260763.png" width="64" height="64" /><image x="0" y="128" href="155000/260972.png" width="64" height="64" /><image x="64" y="128" href="155000/261081.png" width="64" height="64" /><image x="128" y="128" href="155000/260983.png" width="64" height="64" /><image x="192" y="128" href="155000/261365.png" width="64" height="64" /><image x="256" y="128" href="155000/261366.png" width="64" height="64" /><image x="320" y="128" href="155000/261209.png" width="64" height="64" /><image x="384" y="128" href="155000/261330.png" width="64" height="64" /><image x="448" y="128" href="155000/261206.png" width="64" height="64" /><image x="512" y="128" href="155000/261208.png" width="64" height="64" /><image x="576" y="128" href="155000/261343.png" width="64" height="64" /><image x="640" y="128" href="155000/261367.png" width="64" height="64" /><image x="704" y="128" href="155000/261331.png" width="64" height="64" /><image x="768" y="128" href="155000/261659.png" width="64" height="64" /><image x="832" y="128" href="155000/261176.png" width="64" height="64" /><image x="896" y="128" href="155000/261342.png" width="64" height="64" /><image x="960" y="128" href="155000/261205.png" width="64" height="64" /><image x="0" y="192" href="155000/261381.png" width="64" height="64" /><image x="64" y="192" href="155000/261202.png" width="64" height="64" /><image x="128" y="192" href="155000/261174.png" width="64" height="64" /><image x="192" y="192" href="155000/261327.png" width="64" height="64" /><image x="256" y="192" href="155000/261385.png" width="64" height="64" /><image x="320" y="192" href="155000/261377.png" width="64" height="64" /><image x="384" y="192" href="155000/261411.png" width="64" height="64" /><image x="448" y="192" href="155000/261423.png" width="64" height="64" /><image x="512" y="192" href="155000/261660.png" width="64" height="64" /><image x="576" y="192" href="155000/267992.png" width="64" height="64" /><image x="640" y="192" href="155000/262127.png" width="64" height="64" /><image x="704" y="192" href="155000/262139.png" width="64" height="64" /><image x="768" y="192" href="155000/262132.png" width="64" height="64" /><image x="832" y="192" href="155000/262138.png" width="64" height="64" /><image x="896" y="192" href="155000/262142.png" width="64" height="64" /><image x="960" y="192" href="155000/262141.png" width="64" height="64" /><image x="0" y="256" href="155000/262131.png" width="64" height="64" /><image x="64" y="256" href="155000/262140.png" width="64" height="64" /><image x="128" y="256" href="155000/262200.png" width="64" height="64" /><image x="192" y="256" href="155000/262205.png" width="64" height="64" /><image x="256" y="256" href="155000/262204.png" width="64" height="64" /><image x="320" y="256" href="155000/262199.png" width="64" height="64" /><image x="384" y="256" href="155000/262192.png" width="64" height="64" /><image x="448" y="256" href="155000/262355.png" width="64" height="64" /><image x="512" y="256" href="155000/262371.png" width="64" height="64" /><image x="576" y="256" href="155000/262188.png" width="64" height="64" /><image x="640" y="256" href="155000/262203.png" width="64" height="64" /><image x="704" y="256" href="155000/262198.png" width="64" height="64" /><image x="768" y="256" href="155000/262194.png" width="64" height="64" /><image x="832" y="256" href="155000/262201.png" width="64" height="64" /><image x="896" y="256" href="155000/262202.png" width="64" height="64" /><image x="960" y="256" href="155000/262186.png" width="64" height="64" /><image x="0" y="320" href="155000/262190.png" width="64" height="64" /><image x="64" y="320" href="155000/262232.png" width="64" height="64" /><image x="128" y="320" href="155000/262311.png" width="64" height="64" /><image x="192" y="320" href="155000/262319.png" width="64" height="64" /><image x="256" y="320" href="155000/262474.png" width="64" height="64" /><image x="320" y="320" href="155000/262438.png" width="64" height="64" /><image x="384" y="320" href="155000/262437.png" width="64" height="64" /><image x="448" y="320" href="155000/262461.png" width="64" height="64" /><image x="512" y="320" href="155000/262478.png" width="64" height="64" /><image x="576" y="320" href="155000/262483.png" width="64" height="64" /><image x="640" y="320" href="155000/262477.png" width="64" height="64" /><image x="704" y="320" href="155000/262766.png" width="64" height="64" /><image x="768" y="320" href="155000/262782.png" width="64" height="64" /><image x="832" y="320" href="155000/262761.png" width="64" height="64" /><image x="896" y="320" href="155000/262736.png" width="64" height="64" /><image x="960" y="320" href="155000/262884.png" width="64" height="64" /><image x="0" y="384" href="155000/268120.png" width="64" height="64" /><image x="64" y="384" href="155000/262882.png" width="64" height="64" /><image x="128" y="384" href="155000/262734.png" width="64" height="64" /><image x="192" y="384" href="155000/262785.png" width="64" height="64" /><image x="256" y="384" href="155000/262767.png" width="64" height="64" /><image x="320" y="384" href="155000/262733.png" width="64" height="64" /><image x="384" y="384" href="155000/262768.png" width="64" height="64" /><image x="448" y="384" href="155000/262738.png" width="64" height="64" /><image x="512" y="384" href="155000/263147.png" width="64" height="64" /><image x="576" y="384" href="155000/262883.png" width="64" height="64" /><image x="640" y="384" href="155000/262737.png" width="64" height="64" /><image x="704" y="384" href="155000/268309.png" width="64" height="64" /><image x="768" y="384" href="155000/262759.png" width="64" height="64" /><image x="832" y="384" href="155000/262879.png" width="64" height="64" /><image x="896" y="384" href="155000/263279.png" width="64" height="64" /><image x="960" y="384" href="155000/263271.png" width="64" height="64" /><image x="0" y="448" href="155000/263243.png" width="64" height="64" /><image x="64" y="448" href="155000/263305.png" width="64" height="64" /><image x="128" y="448" href="155000/263216.png" width="64" height="64" /><image x="192" y="448" href="155000/263267.png" width="64" height="64" /><image x="256" y="448" href="155000/263199.png" width="64" height="64" /><image x="320" y="448" href="155000/263231.png" width="64" height="64" /><image x="384" y="448" href="155000/263272.png" width="64" height="64" /><image x="448" y="448" href="155000/263352.png" width="64" height="64" /><image x="512" y="448" href="155000/263400.png" width="64" height="64" /><image x="576" y="448" href="155000/263361.png" width="64" height="64" /><image x="640" y="448" href="155000/263203.png" width="64" height="64" /><image x="704" y="448" href="155000/263392.png" width="64" height="64" /><image x="768" y="448" href="155000/263266.png" width="64" height="64" /><image x="832" y="448" href="155000/263362.png" width="64" height="64" /><image x="896" y="448" href="155000/263399.png" width="64" height="64" /><image x="960" y="448" href="155000/263241.png" width="64" height="64" /><image x="0" y="512" href="155000/263383.png" width="64" height="64" /><image x="64" y="512" href="155000/263198.png" width="64" height="64" /><image x="128" y="512" href="155000/263401.png" width="64" height="64" /><image x="192" y="512" href="155000/263205.png" width="64" height="64" /><image x="256" y="512" href="155000/263275.png" width="64" height="64" /><image x="320" y="512" href="155000/263386.png" width="64" height="64" /><image x="384" y="512" href="155000/263325.png" width="64" height="64" /><image x="448" y="512" href="155000/264026.png" width="64" height="64" /><image x="512" y="512" href="155000/264024.png" width="64" height="64" /><image x="576" y="512" href="155000/263920.png" width="64" height="64" /><image x="640" y="512" href="155000/263632.png" width="64" height="64" /><image x="704" y="512" href="155000/263922.png" width="64" height="64" /><image x="768" y="512" href="155000/263900.png" width="64" height="64" /><image x="832" y="512" href="155000/268384.png" width="64" height="64" /><image x="896" y="512" href="155000/263921.png" width="64" height="64" /><image x="960" y="512" href="155000/263631.png" width="64" height="64" /><image x="0" y="576" href="155000/263562.png" width="64" height="64" /><image x="64" y="576" href="155000/263848.png" width="64" height="64" /><image x="128" y="576" href="155000/264108.png" width="64" height="64" /><image x="192" y="576" href="155000/268381.png" width="64" height="64" /><image x="256" y="576" href="155000/263833.png" width="64" height="64" /><image x="320" y="576" href="155000/264027.png" width="64" height="64" /><image x="384" y="576" href="155000/263651.png" width="64" height="64" /><image x="448" y="576" href="155000/264038.png" width="64" height="64" /><image x="512" y="576" href="155000/268286.png" width="64" height="64" /><image x="576" y="576" href="155000/264393.png" width="64" height="64" /><image x="640" y="576" href="155000/264250.png" width="64" height="64" /><image x="704" y="576" href="155000/264418.png" width="64" height="64" /><image x="768" y="576" href="155000/264383.png" width="64" height="64" /><image x="832" y="576" href="155000/264395.png" width="64" height="64" /><image x="896" y="576" href="155000/264384.png" width="64" height="64" /><image x="960" y="576" href="155000/264274.png" width="64" height="64" /><image x="0" y="640" href="155000/264411.png" width="64" height="64" /><image x="64" y="640" href="155000/264445.png" width="64" height="64" /><image x="128" y="640" href="155000/264412.png" width="64" height="64" /><image x="192" y="640" href="155000/264743.png" width="64" height="64" /><image x="256" y="640" href="155000/264786.png" width="64" height="64" /><image x="320" y="640" href="155000/264734.png" width="64" height="64" /><image x="384" y="640" href="155000/264626.png" width="64" height="64" /><image x="448" y="640" href="155000/264735.png" width="64" height="64" /><image x="512" y="640" href="155000/264808.png" width="64" height="64" /><image x="576" y="640" href="155000/264824.png" width="64" height="64" /><image x="640" y="640" href="155000/264847.png" width="64" height="64" /><image x="704" y="640" href="155000/264923.png" width="64" height="64" /><image x="768" y="640" href="155000/264952.png" width="64" height="64" /><image x="832" y="640" href="155000/264963.png" width="64" height="64" /><image x="896" y="640" href="155000/264922.png" width="64" height="64" /><image x="960" y="640" href="155000/264691.png" width="64" height="64" /><image x="0" y="704" href="155000/265127.png" width="64" height="64" /><image x="64" y="704" href="155000/265233.png" width="64" height="64" /><image x="128" y="704" href="155000/265150.png" width="64" height="64" /><image x="192" y="704" href="155000/265207.png" width="64" height="64" /><image x="256" y="704" href="155000/265213.png" width="64" height="64" /><image x="320" y="704" href="155000/265261.png" width="64" height="64" /><image x="384" y="704" href="155000/265387.png" width="64" height="64" /><image x="448" y="704" href="155000/265310.png" width="64" height="64" /><image x="512" y="704" href="155000/265366.png" width="64" height="64" /><image x="576" y="704" href="155000/265522.png" width="64" height="64" /><image x="640" y="704" href="155000/265446.png" width="64" height="64" /><image x="704" y="704" href="155000/265498.png" width="64" height="64" /><image x="768" y="704" href="155000/265499.png" width="64" height="64" /><image x="832" y="704" href="155000/265485.png" width="64" height="64" /><image x="896" y="704" href="155000/265501.png" width="64" height="64" /><image x="960" y="704" href="155000/265486.png" width="64" height="64" /><image x="0" y="768" href="155000/265429.png" width="64" height="64" /><image x="64" y="768" href="155000/265470.png" width="64" height="64" /><image x="128" y="768" href="155000/265427.png" width="64" height="64" /><image x="192" y="768" href="155000/265472.png" width="64" height="64" /><image x="256" y="768" href="155000/265651.png" width="64" height="64" /><image x="320" y="768" href="155000/265604.png" width="64" height="64" /><image x="384" y="768" href="155000/265603.png" width="64" height="64" /><image x="448" y="768" href="155000/265605.png" width="64" height="64" /><image x="512" y="768" href="155000/265634.png" width="64" height="64" /><image x="576" y="768" href="155000/265654.png" width="64" height="64" /><image x="640" y="768" href="155000/265615.png" width="64" height="64" /><image x="704" y="768" href="155000/265616.png" width="64" height="64" /><image x="768" y="768" href="155000/265613.png" width="64" height="64" /><image x="832" y="768" href="155000/265653.png" width="64" height="64" /><image x="896" y="768" href="155000/265783.png" width="64" height="64" /><image x="960" y="768" href="155000/265824.png" width="64" height="64" /><image x="0" y="832" href="155000/265825.png" width="64" height="64" /><image x="64" y="832" href="155000/265826.png" width="64" height="64" /><image x="128" y="832" href="155000/265784.png" width="64" height="64" /><image x="192" y="832" href="155000/265819.png" width="64" height="64" /><image x="256" y="832" href="155000/265785.png" width="64" height="64" /><image x="320" y="832" href="155000/265792.png" width="64" height="64" /><image x="384" y="832" href="155000/265798.png" width="64" height="64" /><image x="448" y="832" href="155000/265721.png" width="64" height="64" /><image x="512" y="832" href="155000/265770.png" width="64" height="64" /><image x="576" y="832" href="155000/265773.png" width="64" height="64" /><image x="640" y="832" href="155000/265856.png" width="64" height="64" /><image x="704" y="832" href="155000/265884.png" width="64" height="64" /><image x="768" y="832" href="155000/265855.png" width="64" height="64" /><image x="832" y="832" href="155000/265881.png" width="64" height="64" /><image x="896" y="832" href="155000/266012.png" width="64" height="64" /><image x="960" y="832" href="155000/266004.png" width="64" height="64" /><image x="0" y="896" href="155000/266011.png" width="64" height="64" /><image x="64" y="896" href="155000/266010.png" width="64" height="64" /><image x="128" y="896" href="155000/266000.png" width="64" height="64" /><image x="192" y="896" href="155000/265975.png" width="64" height="64" /></svg>