<?xml version="1.0" encoding="UTF-8"?>
<svg xmlns="http://www.w3.org/2000/svg" version="1.1" height="576" width="576"><rect x="0" y="0" width="576" height="576" fill="rgb(192,192,192)" /><image x="0" y="0" href="157010/264362.png" width="64" height="64" /><image x="64" y="0" href="157010/264394.png" width="64" height="64" /><image x="128" y="0" href="157010/264363.png" width="64" height="64" /><image x="192" y="0" href="157010/270859.png" width="64" height="64" /><image x="256" y="0" href="157010/264194.png" width="64" height="64" /><image x="320" y="0" href="157010/264273.png" width="64" height="64" /><image x="384" y="0" href="157010/269234.png" width="64" height="64" /><image x="448" y="0" href="157010/263406.png" width="64" height="64" /><image x="512" y="0" href="157010/264397.png" width="64" height="64" /><image x="0" y="64" href="157010/264396.png" width="64" height="64" /><image x="64" y="64" href="157010/265164.png" width="64" height="64" /><image x="128" y="64" href="157010/265285.png" width="64" height="64" /><image x="192" y="64" href="157010/266401.png" width="64" height="64" /><image x="256" y="64" href="157010/264398.png" width="64" height="64" /><image x="320" y="64" href="157010/265128.png" width="64" height="64" /><image x="384" y="64" href="157010/265389.png" width="64" height="64" /><image x="448" y="64" href="157010/264229.png" width="64" height="64" /><image x="512" y="64" href="157010/265516.png" width="64" height="64" /><image x="0" y="128" href="157010/264300.png" width="64" height="64" /><image x="64" y="128" href="157010/265614.png" width="64" height="64" /><image x="128" y="128" href="157010/264697.png" width="64" height="64" /><image x="192" y="128" href="157010/264699.png" width="64" height="64" /><image x="256" y="128" href="157010/264754.png" width="64" height="64" /><image x="320" y="128" href="157010/264633.png" width="64" height="64" /><image x="384" y="128" href="157010/265586.png" width="64" height="64" /><image x="448" y="128" href="157010/264631.png" width="64" height="64" /><image x="512" y="128" href="157010/264625.png" width="64" height="64" /><image x="0" y="192" href="157010/265589.png" width="64" height="64" /><image x="64" y="192" href="157010/265587.png" width="64" height="64" /><image x="128" y="192" href="157010/265354.png" width="64" height="64" /><image x="192" y="192" href="157010/264629.png" width="64" height="64" /><image x="256" y="192" href="157010/264674.png" width="64" height="64" /><image x="320" y="192" href="157010/264698.png" width="64" height="64" /><image x="384" y="192" href="157010/265649.png" width="64" height="64" /><image x="448" y="192" href="157010/264632.png" width="64" height="64" /><image x="512" y="192" href="157010/264822.png" width="64" height="64" /><image x="0" y="256" href="157010/264630.png" width="64" height="64" /><image x="64" y="256" href="157010/265569.png" width="64" height="64" /><image x="128" y="256" href="157010/265588.png" width="64" height="64" /><image x="192" y="256" href="157010/265495.png" width="64" height="64" /><image x="256" y="256" href="157010/265476.png" width="64" height="64" /><image x="320" y="256" href="157010/265523.png" width="64" height="64" /><image x="384" y="256" href="157010/266176.png" width="64" height="64" /><image x="448" y="256" href="157010/265572.png" width="64" height="64" /><image x="512" y="256" href="157010/265570.png" width="64" height="64" /><image x="0" y="320" href="157010/266934.png" width="64" height="64" /><image x="64" y="320" href="157010/266426.png" width="64" height="64" /><image x="128" y="320" href="157010/266381.png" width="64" height="64" /><image x="192" y="320" href="157010/270896.png" width="64" height="64" /><image x="256" y="320" href="157010/266865.png" width="64" height="64" /><image x="320" y="320" href="157010/266906.png" width="64" height="64" /><image x="384" y="320" href="157010/266345.png" width="64" height="64" /><image x="448" y="320" href="157010/266864.png" width="64" height="64" /><image x="512" y="320" href="157010/266848.png" width="64" height="64" /><image x="0" y="384" href="157010/266892.png" width="64" height="64" /><image x="64" y="384" href="157010/272768.png" width="64" height="64" /><image x="128" y="384" href="157010/266876.png" width="64" height="64" /><image x="192" y="384" href="157010/282074.png" width="64" height="64" /><image x="256" y="384" href="157010/282073.png" width="64" height="64" /><image x="320" y="384" href="157010/282070.png" width="64" height="64" /><image x="384" y="384" href="157010/282214.png" width="64" height="64" /><image x="448" y="384" href="157010/282217.png" width="64" height="64" /><image x="512" y="384" href="157010/282213.png" width="64" height="64" /><image x="0" y="448" href="157010/282222.png" width="64" height="64" /><image x="64" y="448" href="157010/282223.png" width="64" height="64" /><image x="128" y="448" href="157010/282232.png" width="64" height="64" /></svg>