<?xml version="1.0" encoding="UTF-8"?>
<svg xmlns="http://www.w3.org/2000/svg" version="1.1" height="896" width="896"><rect x="0" y="0" width="896" height="896" fill="rgb(192,192,192)" /><image x="0" y="0" href="157691/264381.png" width="64" height="64" /><image x="64" y="0" href="157691/264406.png" width="64" height="64" /><image x="128" y="0" href="157691/264334.png" width="64" height="64" /><image x="192" y="0" href="157691/264429.png" width="64" height="64" /><image x="256" y="0" href="157691/264272.png" width="64" height="64" /><image x="320" y="0" href="157691/264442.png" width="64" height="64" /><image x="384" y="0" href="157691/264441.png" width="64" height="64" /><image x="448" y="0" href="157691/264430.png" width="64" height="64" /><image x="512" y="0" href="157691/264431.png" width="64" height="64" /><image x="576" y="0" href="157691/264439.png" width="64" height="64" /><image x="640" y="0" href="157691/264410.png" width="64" height="64" /><image x="704" y="0" href="157691/264438.png" width="64" height="64" /><image x="768" y="0" href="157691/264301.png" width="64" height="64" /><image x="832" y="0" href="157691/264433.png" width="64" height="64" /><image x="0" y="64" href="157691/264444.png" width="64" height="64" /><image x="64" y="64" href="157691/264949.png" width="64" height="64" /><image x="128" y="64" href="157691/264869.png" width="64" height="64" /><image x="192" y="64" href="157691/264964.png" width="64" height="64" /><image x="256" y="64" href="157691/264921.png" width="64" height="64" /><image x="320" y="64" href="157691/264807.png" width="64" height="64" /><image x="384" y="64" href="157691/264895.png" width="64" height="64" /><image x="448" y="64" href="157691/264867.png" width="64" height="64" /><image x="512" y="64" href="157691/264896.png" width="64" height="64" /><image x="576" y="64" href="157691/264933.png" width="64" height="64" /><image x="640" y="64" href="157691/264909.png" width="64" height="64" /><image x="704" y="64" href="157691/265195.png" width="64" height="64" /><image x="768" y="64" href="157691/264880.png" width="64" height="64" /><image x="832" y="64" href="157691/264940.png" width="64" height="64" /><image x="0" y="128" href="157691/264910.png" width="64" height="64" /><image x="64" y="128" href="157691/264974.png" width="64" height="64" /><image x="128" y="128" href="157691/264848.png" width="64" height="64" /><image x="192" y="128" href="157691/264937.png" width="64" height="64" /><image x="256" y="128" href="157691/264938.png" width="64" height="64" /><image x="320" y="128" href="157691/264951.png" width="64" height="64" /><image x="384" y="128" href="157691/264815.png" width="64" height="64" /><image x="448" y="128" href="157691/264849.png" width="64" height="64" /><image x="512" y="128" href="157691/264814.png" width="64" height="64" /><image x="576" y="128" href="157691/264816.png" width="64" height="64" /><image x="640" y="128" href="157691/265326.png" width="64" height="64" /><image x="704" y="128" href="157691/264939.png" width="64" height="64" /><image x="768" y="128" href="157691/264683.png" width="64" height="64" /><image x="832" y="128" href="157691/264927.png" width="64" height="64" /><image x="0" y="192" href="157691/264812.png" width="64" height="64" /><image x="64" y="192" href="157691/265118.png" width="64" height="64" /><image x="128" y="192" href="157691/265315.png" width="64" height="64" /><image x="192" y="192" href="157691/265317.png" width="64" height="64" /><image x="256" y="192" href="157691/265303.png" width="64" height="64" /><image x="320" y="192" href="157691/265194.png" width="64" height="64" /><image x="384" y="192" href="157691/265259.png" width="64" height="64" /><image x="448" y="192" href="157691/265327.png" width="64" height="64" /><image x="512" y="192" href="157691/265302.png" width="64" height="64" /><image x="576" y="192" href="157691/265328.png" width="64" height="64" /><image x="640" y="192" href="157691/265319.png" width="64" height="64" /><image x="704" y="192" href="157691/265314.png" width="64" height="64" /><image x="768" y="192" href="157691/265311.png" width="64" height="64" /><image x="832" y="192" href="157691/265312.png" width="64" height="64" /><image x="0" y="256" href="157691/265318.png" width="64" height="64" /><image x="64" y="256" href="157691/265369.png" width="64" height="64" /><image x="128" y="256" href="157691/265380.png" width="64" height="64" /><image x="192" y="256" href="157691/265313.png" width="64" height="64" /><image x="256" y="256" href="157691/265352.png" width="64" height="64" /><image x="320" y="256" href="157691/265372.png" width="64" height="64" /><image x="384" y="256" href="157691/265386.png" width="64" height="64" /><image x="448" y="256" href="157691/265393.png" width="64" height="64" /><image x="512" y="256" href="157691/265381.png" width="64" height="64" /><image x="576" y="256" href="157691/265383.png" width="64" height="64" /><image x="640" y="256" href="157691/265370.png" width="64" height="64" /><image x="704" y="256" href="157691/265371.png" width="64" height="64" /><image x="768" y="256" href="157691/265382.png" width="64" height="64" /><image x="832" y="256" href="157691/265351.png" width="64" height="64" /><image x="0" y="320" href="157691/265390.png" width="64" height="64" /><image x="64" y="320" href="157691/265373.png" width="64" height="64" /><image x="128" y="320" href="157691/265391.png" width="64" height="64" /><image x="192" y="320" href="157691/265266.png" width="64" height="64" /><image x="256" y="320" href="157691/265392.png" width="64" height="64" /><image x="320" y="320" href="157691/265515.png" width="64" height="64" /><image x="384" y="320" href="157691/265525.png" width="64" height="64" /><image x="448" y="320" href="157691/265526.png" width="64" height="64" /><image x="512" y="320" href="157691/266126.png" width="64" height="64" /><image x="576" y="320" href="157691/265981.png" width="64" height="64" /><image x="640" y="320" href="157691/265876.png" width="64" height="64" /><image x="704" y="320" href="157691/265873.png" width="64" height="64" /><image x="768" y="320" href="157691/266006.png" width="64" height="64" /><image x="832" y="320" href="157691/265976.png" width="64" height="64" /><image x="0" y="384" href="157691/266125.png" width="64" height="64" /><image x="64" y="384" href="157691/265982.png" width="64" height="64" /><image x="128" y="384" href="157691/265972.png" width="64" height="64" /><image x="192" y="384" href="157691/266173.png" width="64" height="64" /><image x="256" y="384" href="157691/266156.png" width="64" height="64" /><image x="320" y="384" href="157691/265996.png" width="64" height="64" /><image x="384" y="384" href="157691/265994.png" width="64" height="64" /><image x="448" y="384" href="157691/265984.png" width="64" height="64" /><image x="512" y="384" href="157691/265979.png" width="64" height="64" /><image x="576" y="384" href="157691/265980.png" width="64" height="64" /><image x="640" y="384" href="157691/266013.png" width="64" height="64" /><image x="704" y="384" href="157691/266108.png" width="64" height="64" /><image x="768" y="384" href="157691/266200.png" width="64" height="64" /><image x="832" y="384" href="157691/266192.png" width="64" height="64" /><image x="0" y="448" href="157691/266140.png" width="64" height="64" /><image x="64" y="448" href="157691/265983.png" width="64" height="64" /><image x="128" y="448" href="157691/266005.png" width="64" height="64" /><image x="192" y="448" href="157691/266110.png" width="64" height="64" /><image x="256" y="448" href="157691/266123.png" width="64" height="64" /><image x="320" y="448" href="157691/266080.png" width="64" height="64" /><image x="384" y="448" href="157691/266182.png" width="64" height="64" /><image x="448" y="448" href="157691/266581.png" width="64" height="64" /><image x="512" y="448" href="157691/266113.png" width="64" height="64" /><image x="576" y="448" href="157691/266863.png" width="64" height="64" /><image x="640" y="448" href="157691/266150.png" width="64" height="64" /><image x="704" y="448" href="157691/266187.png" width="64" height="64" /><image x="768" y="448" href="157691/266026.png" width="64" height="64" /><image x="832" y="448" href="157691/266636.png" width="64" height="64" /><image x="0" y="512" href="157691/266167.png" width="64" height="64" /><image x="64" y="512" href="157691/266105.png" width="64" height="64" /><image x="128" y="512" href="157691/266189.png" width="64" height="64" /><image x="192" y="512" href="157691/266198.png" width="64" height="64" /><image x="256" y="512" href="157691/266197.png" width="64" height="64" /><image x="320" y="512" href="157691/266175.png" width="64" height="64" /><image x="384" y="512" href="157691/266199.png" width="64" height="64" /><image x="448" y="512" href="157691/266114.png" width="64" height="64" /><image x="512" y="512" href="157691/266144.png" width="64" height="64" /><image x="576" y="512" href="157691/266178.png" width="64" height="64" /><image x="640" y="512" href="157691/266128.png" width="64" height="64" /><image x="704" y="512" href="157691/266681.png" width="64" height="64" /><image x="768" y="512" href="157691/266138.png" width="64" height="64" /><image x="832" y="512" href="157691/266109.png" width="64" height="64" /><image x="0" y="576" href="157691/266179.png" width="64" height="64" /><image x="64" y="576" href="157691/266630.png" width="64" height="64" /><image x="128" y="576" href="157691/266145.png" width="64" height="64" /><image x="192" y="576" href="157691/266180.png" width="64" height="64" /><image x="256" y="576" href="157691/266181.png" width="64" height="64" /><image x="320" y="576" href="157691/266675.png" width="64" height="64" /><image x="384" y="576" href="157691/266188.png" width="64" height="64" /><image x="448" y="576" href="157691/266190.png" width="64" height="64" /><image x="512" y="576" href="157691/266112.png" width="64" height="64" /><image x="576" y="576" href="157691/266640.png" width="64" height="64" /><image x="640" y="576" href="157691/266569.png" width="64" height="64" /><image x="704" y="576" href="157691/266880.png" width="64" height="64" /><image x="768" y="576" href="157691/267699.png" width="64" height="64" /><image x="832" y="576" href="157691/266679.png" width="64" height="64" /><image x="0" y="640" href="157691/266654.png" width="64" height="64" /><image x="64" y="640" href="157691/266663.png" width="64" height="64" /><image x="128" y="640" href="157691/266595.png" width="64" height="64" /><image x="192" y="640" href="157691/266611.png" width="64" height="64" /><image x="256" y="640" href="157691/266853.png" width="64" height="64" /><image x="320" y="640" href="157691/266935.png" width="64" height="64" /><image x="384" y="640" href="157691/266895.png" width="64" height="64" /><image x="448" y="640" href="157691/267096.png" width="64" height="64" /><image x="512" y="640" href="157691/266871.png" width="64" height="64" /><image x="576" y="640" href="157691/266903.png" width="64" height="64" /><image x="640" y="640" href="157691/266840.png" width="64" height="64" /><image x="704" y="640" href="157691/266908.png" width="64" height="64" /><image x="768" y="640" href="157691/266932.png" width="64" height="64" /><image x="832" y="640" href="157691/267031.png" width="64" height="64" /><image x="0" y="704" href="157691/266933.png" width="64" height="64" /><image x="64" y="704" href="157691/267584.png" width="64" height="64" /><image x="128" y="704" href="157691/267082.png" width="64" height="64" /><image x="192" y="704" href="157691/267581.png" width="64" height="64" /><image x="256" y="704" href="157691/266927.png" width="64" height="64" /><image x="320" y="704" href="157691/267048.png" width="64" height="64" /><image x="384" y="704" href="157691/266843.png" width="64" height="64" /><image x="448" y="704" href="157691/267076.png" width="64" height="64" /><image x="512" y="704" href="157691/268561.png" width="64" height="64" /><image x="576" y="704" href="157691/268563.png" width="64" height="64" /><image x="640" y="704" href="157691/268500.png" width="64" height="64" /><image x="704" y="704" href="157691/268570.png" width="64" height="64" /><image x="768" y="704" href="157691/268560.png" width="64" height="64" /><image x="832" y="704" href="157691/268639.png" width="64" height="64" /><image x="0" y="768" href="157691/268737.png" width="64" height="64" /><image x="64" y="768" href="157691/268654.png" width="64" height="64" /><image x="128" y="768" href="157691/268663.png" width="64" height="64" /><image x="192" y="768" href="157691/268665.png" width="64" height="64" /><image x="256" y="768" href="157691/268664.png" width="64" height="64" /><image x="320" y="768" href="157691/268744.png" width="64" height="64" /><image x="384" y="768" href="157691/268745.png" width="64" height="64" /><image x="448" y="768" href="157691/268736.png" width="64" height="64" /><image x="512" y="768" href="157691/268746.png" width="64" height="64" /><image x="576" y="768" href="157691/268658.png" width="64" height="64" /><image x="640" y="768" href="157691/269606.png" width="64" height="64" /><image x="704" y="768" href="157691/268739.png" width="64" height="64" /><image x="768" y="768" href="157691/268743.png" width="64" height="64" /><image x="832" y="768" href="157691/268657.png" width="64" height="64" /><image x="0" y="832" href="157691/268668.png" width="64" height="64" /><image x="64" y="832" href="157691/268651.png" width="64" height="64" /></svg>