<?xml version="1.0" encoding="UTF-8"?>
<svg xmlns="http://www.w3.org/2000/svg" version="1.1" height="576" width="576"><rect x="0" y="0" width="576" height="576" fill="rgb(192,192,192)" /><image x="0" y="0" href="158834/266029.png" width="64" height="64" /><image x="64" y="0" href="158834/266101.png" width="64" height="64" /><image x="128" y="0" href="158834/266106.png" width="64" height="64" /><image x="192" y="0" href="158834/266124.png" width="64" height="64" /><image x="256" y="0" href="158834/266154.png" width="64" height="64" /><image x="320" y="0" href="158834/267049.png" width="64" height="64" /><image x="384" y="0" href="158834/267059.png" width="64" height="64" /><image x="448" y="0" href="158834/267809.png" width="64" height="64" /><image x="512" y="0" href="158834/267840.png" width="64" height="64" /><image x="0" y="64" href="158834/267967.png" width="64" height="64" /><image x="64" y="64" href="158834/267975.png" width="64" height="64" /><image x="128" y="64" href="158834/267988.png" width="64" height="64" /><image x="192" y="64" href="158834/268009.png" width="64" height="64" /><image x="256" y="64" href="158834/268012.png" width="64" height="64" /><image x="320" y="64" href="158834/268027.png" width="64" height="64" /><image x="384" y="64" href="158834/268279.png" width="64" height="64" /><image x="448" y="64" href="158834/268299.png" width="64" height="64" /><image x="512" y="64" href="158834/268302.png" width="64" height="64" /><image x="0" y="128" href="158834/268308.png" width="64" height="64" /><image x="64" y="128" href="158834/268634.png" width="64" height="64" /><image x="128" y="128" href="158834/268640.png" width="64" height="64" /><image x="192" y="128" href="158834/268643.png" width="64" height="64" /><image x="256" y="128" href="158834/268656.png" width="64" height="64" /><image x="320" y="128" href="158834/268661.png" width="64" height="64" /><image x="384" y="128" href="158834/268669.png" width="64" height="64" /><image x="448" y="128" href="158834/268777.png" width="64" height="64" /><image x="512" y="128" href="158834/268781.png" width="64" height="64" /><image x="0" y="192" href="158834/268786.png" width="64" height="64" /><image x="64" y="192" href="158834/268797.png" width="64" height="64" /><image x="128" y="192" href="158834/268809.png" width="64" height="64" /><image x="192" y="192" href="158834/268823.png" width="64" height="64" /><image x="256" y="192" href="158834/270834.png" width="64" height="64" /><image x="320" y="192" href="158834/270866.png" width="64" height="64" /><image x="384" y="192" href="158834/270871.png" width="64" height="64" /><image x="448" y="192" href="158834/270960.png" width="64" height="64" /><image x="512" y="192" href="158834/270964.png" width="64" height="64" /><image x="0" y="256" href="158834/270994.png" width="64" height="64" /><image x="64" y="256" href="158834/270999.png" width="64" height="64" /><image x="128" y="256" href="158834/271013.png" width="64" height="64" /><image x="192" y="256" href="158834/271017.png" width="64" height="64" /><image x="256" y="256" href="158834/271045.png" width="64" height="64" /><image x="320" y="256" href="158834/271095.png" width="64" height="64" /><image x="384" y="256" href="158834/271096.png" width="64" height="64" /><image x="448" y="256" href="158834/271128.png" width="64" height="64" /><image x="512" y="256" href="158834/271213.png" width="64" height="64" /><image x="0" y="320" href="158834/271215.png" width="64" height="64" /><image x="64" y="320" href="158834/271249.png" width="64" height="64" /><image x="128" y="320" href="158834/272457.png" width="64" height="64" /><image x="192" y="320" href="158834/272459.png" width="64" height="64" /><image x="256" y="320" href="158834/272496.png" width="64" height="64" /><image x="320" y="320" href="158834/272497.png" width="64" height="64" /><image x="384" y="320" href="158834/272501.png" width="64" height="64" /><image x="448" y="320" href="158834/272508.png" width="64" height="64" /><image x="512" y="320" href="158834/272965.png" width="64" height="64" /><image x="0" y="384" href="158834/273056.png" width="64" height="64" /><image x="64" y="384" href="158834/273132.png" width="64" height="64" /><image x="128" y="384" href="158834/273134.png" width="64" height="64" /><image x="192" y="384" href="158834/273162.png" width="64" height="64" /><image x="256" y="384" href="158834/274068.png" width="64" height="64" /><image x="320" y="384" href="158834/274326.png" width="64" height="64" /><image x="384" y="384" href="158834/274721.png" width="64" height="64" /><image x="448" y="384" href="158834/275434.png" width="64" height="64" /><image x="512" y="384" href="158834/275482.png" width="64" height="64" /><image x="0" y="448" href="158834/275489.png" width="64" height="64" /><image x="64" y="448" href="158834/275572.png" width="64" height="64" /><image x="128" y="448" href="158834/276509.png" width="64" height="64" /><image x="192" y="448" href="158834/276606.png" width="64" height="64" /><image x="256" y="448" href="158834/276610.png" width="64" height="64" /><image x="320" y="448" href="158834/279162.png" width="64" height="64" /></svg>