<?xml version="1.0" encoding="UTF-8"?>
<svg xmlns="http://www.w3.org/2000/svg" version="1.1" height="448" width="448"><rect x="0" y="0" width="448" height="448" fill="rgb(192,192,192)" /><image x="0" y="0" href="158815/265974.png" width="64" height="64" /><image x="64" y="0" href="158815/265989.png" width="64" height="64" /><image x="128" y="0" href="158815/265988.png" width="64" height="64" /><image x="192" y="0" href="158815/266007.png" width="64" height="64" /><image x="256" y="0" href="158815/265999.png" width="64" height="64" /><image x="320" y="0" href="158815/265995.png" width="64" height="64" /><image x="384" y="0" href="158815/266153.png" width="64" height="64" /><image x="0" y="64" href="158815/266009.png" width="64" height="64" /><image x="64" y="64" href="158815/266186.png" width="64" height="64" /><image x="128" y="64" href="158815/266183.png" width="64" height="64" /><image x="192" y="64" href="158815/266130.png" width="64" height="64" /><image x="256" y="64" href="158815/266168.png" width="64" height="64" /><image x="320" y="64" href="158815/266115.png" width="64" height="64" /><image x="384" y="64" href="158815/266184.png" width="64" height="64" /><image x="0" y="128" href="158815/266152.png" width="64" height="64" /><image x="64" y="128" href="158815/266121.png" width="64" height="64" /><image x="128" y="128" href="158815/266164.png" width="64" height="64" /><image x="192" y="128" href="158815/266436.png" width="64" height="64" /><image x="256" y="128" href="158815/266444.png" width="64" height="64" /><image x="320" y="128" href="158815/266433.png" width="64" height="64" /><image x="384" y="128" href="158815/266424.png" width="64" height="64" /><image x="0" y="192" href="158815/266405.png" width="64" height="64" /><image x="64" y="192" href="158815/266437.png" width="64" height="64" /><image x="128" y="192" href="158815/266434.png" width="64" height="64" /><image x="192" y="192" href="158815/266399.png" width="64" height="64" /><image x="256" y="192" href="158815/266435.png" width="64" height="64" /><image x="320" y="192" href="158815/266653.png" width="64" height="64" /><image x="384" y="192" href="158815/266678.png" width="64" height="64" /><image x="0" y="256" href="158815/268112.png" width="64" height="64" /><image x="64" y="256" href="158815/266697.png" width="64" height="64" /><image x="128" y="256" href="158815/266666.png" width="64" height="64" /><image x="192" y="256" href="158815/266609.png" width="64" height="64" /><image x="256" y="256" href="158815/268135.png" width="64" height="64" /><image x="320" y="256" href="158815/266926.png" width="64" height="64" /><image x="384" y="256" href="158815/268295.png" width="64" height="64" /><image x="0" y="320" href="158815/266858.png" width="64" height="64" /><image x="64" y="320" href="158815/266857.png" width="64" height="64" /><image x="128" y="320" href="158815/266844.png" width="64" height="64" /><image x="192" y="320" href="158815/276803.png" width="64" height="64" /></svg>