<?xml version="1.0" encoding="UTF-8"?>
<svg xmlns="http://www.w3.org/2000/svg" version="1.1" height="384" width="384"><rect x="0" y="0" width="384" height="384" fill="rgb(192,192,192)" /><image x="0" y="0" href="16059/54429.png" width="64" height="64" /><image x="64" y="0" href="16059/54428.png" width="64" height="64" /><image x="128" y="0" href="16059/54427.png" width="64" height="64" /><image x="192" y="0" href="16059/54439.png" width="64" height="64" /><image x="256" y="0" href="16059/54440.png" width="64" height="64" /><image x="320" y="0" href="16059/54715.png" width="64" height="64" /><image x="0" y="64" href="16059/54430.png" width="64" height="64" /><image x="64" y="64" href="16059/54917.png" width="64" height="64" /><image x="128" y="64" href="16059/54431.png" width="64" height="64" /><image x="192" y="64" href="16059/54255.png" width="64" height="64" /><image x="256" y="64" href="16059/54432.png" width="64" height="64" /><image x="320" y="64" href="16059/54251.png" width="64" height="64" /><image x="0" y="128" href="16059/54716.png" width="64" height="64" /><image x="64" y="128" href="16059/54737.png" width="64" height="64" /><image x="128" y="128" href="16059/54442.png" width="64" height="64" /><image x="192" y="128" href="16059/54739.png" width="64" height="64" /><image x="256" y="128" href="16059/54740.png" width="64" height="64" /><image x="320" y="128" href="16059/54915.png" width="64" height="64" /><image x="0" y="192" href="16059/54445.png" width="64" height="64" /><image x="64" y="192" href="16059/54912.png" width="64" height="64" /><image x="128" y="192" href="16059/54914.png" width="64" height="64" /><image x="192" y="192" href="16059/54911.png" width="64" height="64" /><image x="256" y="192" href="16059/54918.png" width="64" height="64" /><image x="320" y="192" href="16059/54738.png" width="64" height="64" /><image x="0" y="256" href="16059/55637.png" width="64" height="64" /><image x="64" y="256" href="16059/54441.png" width="64" height="64" /><image x="128" y="256" href="16059/55643.png" width="64" height="64" /><image x="192" y="256" href="16059/54718.png" width="64" height="64" /><image x="256" y="256" href="16059/54252.png" width="64" height="64" /><image x="320" y="256" href="16059/54254.png" width="64" height="64" /><image x="0" y="320" href="16059/263143.png" width="64" height="64" /><image x="64" y="320" href="16059/265388.png" width="64" height="64" /></svg>