<?xml version="1.0" encoding="UTF-8"?>
<svg xmlns="http://www.w3.org/2000/svg" version="1.1" height="320" width="320"><rect x="0" y="0" width="320" height="320" fill="rgb(192,192,192)" /><image x="0" y="0" href="16197/107428.png" width="64" height="64" /><image x="64" y="0" href="16197/136784.png" width="64" height="64" /><image x="128" y="0" href="16197/81367.png" width="64" height="64" /><image x="192" y="0" href="16197/54843.png" width="64" height="64" /><image x="256" y="0" href="16197/137957.png" width="64" height="64" /><image x="0" y="64" href="16197/54842.png" width="64" height="64" /><image x="64" y="64" href="16197/136824.png" width="64" height="64" /><image x="128" y="64" href="16197/85284.png" width="64" height="64" /><image x="192" y="64" href="16197/136826.png" width="64" height="64" /><image x="256" y="64" href="16197/84666.png" width="64" height="64" /><image x="0" y="128" href="16197/136816.png" width="64" height="64" /><image x="64" y="128" href="16197/84667.png" width="64" height="64" /><image x="128" y="128" href="16197/54676.png" width="64" height="64" /><image x="192" y="128" href="16197/84663.png" width="64" height="64" /><image x="256" y="128" href="16197/136783.png" width="64" height="64" /><image x="0" y="192" href="16197/84664.png" width="64" height="64" /><image x="64" y="192" href="16197/136815.png" width="64" height="64" /></svg>