<?xml version="1.0" encoding="UTF-8"?>
<svg xmlns="http://www.w3.org/2000/svg" version="1.1" height="384" width="384"><rect x="0" y="0" width="384" height="384" fill="rgb(192,192,192)" /><image x="0" y="0" href="162187/271293.png" width="64" height="64" /><image x="64" y="0" href="162187/271342.png" width="64" height="64" /><image x="128" y="0" href="162187/271371.png" width="64" height="64" /><image x="192" y="0" href="162187/271506.png" width="64" height="64" /><image x="256" y="0" href="162187/271436.png" width="64" height="64" /><image x="320" y="0" href="162187/271497.png" width="64" height="64" /><image x="0" y="64" href="162187/271511.png" width="64" height="64" /><image x="64" y="64" href="162187/276577.png" width="64" height="64" /><image x="128" y="64" href="162187/272161.png" width="64" height="64" /><image x="192" y="64" href="162187/272162.png" width="64" height="64" /><image x="256" y="64" href="162187/272202.png" width="64" height="64" /><image x="320" y="64" href="162187/272194.png" width="64" height="64" /><image x="0" y="128" href="162187/272279.png" width="64" height="64" /><image x="64" y="128" href="162187/272290.png" width="64" height="64" /><image x="128" y="128" href="162187/272291.png" width="64" height="64" /><image x="192" y="128" href="162187/272276.png" width="64" height="64" /><image x="256" y="128" href="162187/272498.png" width="64" height="64" /><image x="320" y="128" href="162187/272450.png" width="64" height="64" /><image x="0" y="192" href="162187/272489.png" width="64" height="64" /><image x="64" y="192" href="162187/272490.png" width="64" height="64" /><image x="128" y="192" href="162187/272460.png" width="64" height="64" /><image x="192" y="192" href="162187/272701.png" width="64" height="64" /><image x="256" y="192" href="162187/273136.png" width="64" height="64" /><image x="320" y="192" href="162187/272738.png" width="64" height="64" /><image x="0" y="256" href="162187/273383.png" width="64" height="64" /><image x="64" y="256" href="162187/273717.png" width="64" height="64" /><image x="128" y="256" href="162187/273782.png" width="64" height="64" /><image x="192" y="256" href="162187/273785.png" width="64" height="64" /><image x="256" y="256" href="162187/273770.png" width="64" height="64" /><image x="320" y="256" href="162187/273771.png" width="64" height="64" /></svg>