<?xml version="1.0" encoding="UTF-8"?>
<svg xmlns="http://www.w3.org/2000/svg" version="1.1" height="320" width="320"><rect x="0" y="0" width="320" height="320" fill="rgb(192,192,192)" /><image x="0" y="0" href="16211/97309.png" width="64" height="64" /><image x="64" y="0" href="16211/95742.png" width="64" height="64" /><image x="128" y="0" href="16211/95676.png" width="64" height="64" /><image x="192" y="0" href="16211/95652.png" width="64" height="64" /><image x="256" y="0" href="16211/95656.png" width="64" height="64" /><image x="0" y="64" href="16211/95653.png" width="64" height="64" /><image x="64" y="64" href="16211/97308.png" width="64" height="64" /><image x="128" y="64" href="16211/204892.png" width="64" height="64" /><image x="192" y="64" href="16211/204927.png" width="64" height="64" /><image x="256" y="64" href="16211/204849.png" width="64" height="64" /><image x="0" y="128" href="16211/204905.png" width="64" height="64" /><image x="64" y="128" href="16211/204928.png" width="64" height="64" /><image x="128" y="128" href="16211/54766.png" width="64" height="64" /><image x="192" y="128" href="16211/204880.png" width="64" height="64" /><image x="256" y="128" href="16211/204881.png" width="64" height="64" /><image x="0" y="192" href="16211/204893.png" width="64" height="64" /><image x="64" y="192" href="16211/204850.png" width="64" height="64" /><image x="128" y="192" href="16211/204847.png" width="64" height="64" /><image x="192" y="192" href="16211/204848.png" width="64" height="64" /><image x="256" y="192" href="16211/204894.png" width="64" height="64" /><image x="0" y="256" href="16211/204896.png" width="64" height="64" /><image x="64" y="256" href="16211/204925.png" width="64" height="64" /><image x="128" y="256" href="16211/204901.png" width="64" height="64" /><image x="192" y="256" href="16211/204904.png" width="64" height="64" /></svg>