<?xml version="1.0" encoding="UTF-8"?>
<svg xmlns="http://www.w3.org/2000/svg" version="1.1" height="320" width="320"><rect x="0" y="0" width="320" height="320" fill="rgb(192,192,192)" /><image x="0" y="0" href="16255/39506.png" width="64" height="64" /><image x="64" y="0" href="16255/54926.png" width="64" height="64" /><image x="128" y="0" href="16255/84527.png" width="64" height="64" /><image x="192" y="0" href="16255/39491.png" width="64" height="64" /><image x="256" y="0" href="16255/39449.png" width="64" height="64" /><image x="0" y="64" href="16255/85043.png" width="64" height="64" /><image x="64" y="64" href="16255/108732.png" width="64" height="64" /><image x="128" y="64" href="16255/85042.png" width="64" height="64" /><image x="192" y="64" href="16255/54927.png" width="64" height="64" /><image x="256" y="64" href="16255/84529.png" width="64" height="64" /><image x="0" y="128" href="16255/42617.png" width="64" height="64" /><image x="64" y="128" href="16255/39489.png" width="64" height="64" /><image x="128" y="128" href="16255/39505.png" width="64" height="64" /><image x="192" y="128" href="16255/39495.png" width="64" height="64" /><image x="256" y="128" href="16255/39498.png" width="64" height="64" /><image x="0" y="192" href="16255/39564.png" width="64" height="64" /><image x="64" y="192" href="16255/39453.png" width="64" height="64" /><image x="128" y="192" href="16255/39482.png" width="64" height="64" /></svg>