<?xml version="1.0" encoding="UTF-8"?>
<svg xmlns="http://www.w3.org/2000/svg" version="1.1" height="512" width="512"><rect x="0" y="0" width="512" height="512" fill="rgb(192,192,192)" /><image x="0" y="0" href="163263/272756.png" width="64" height="64" /><image x="64" y="0" href="163263/275113.png" width="64" height="64" /><image x="128" y="0" href="163263/273335.png" width="64" height="64" /><image x="192" y="0" href="163263/273730.png" width="64" height="64" /><image x="256" y="0" href="163263/274794.png" width="64" height="64" /><image x="320" y="0" href="163263/276655.png" width="64" height="64" /><image x="384" y="0" href="163263/274038.png" width="64" height="64" /><image x="448" y="0" href="163263/273375.png" width="64" height="64" /><image x="0" y="64" href="163263/273338.png" width="64" height="64" /><image x="64" y="64" href="163263/274050.png" width="64" height="64" /><image x="128" y="64" href="163263/275547.png" width="64" height="64" /><image x="192" y="64" href="163263/274446.png" width="64" height="64" /><image x="256" y="64" href="163263/274458.png" width="64" height="64" /><image x="320" y="64" href="163263/274046.png" width="64" height="64" /><image x="384" y="64" href="163263/274459.png" width="64" height="64" /><image x="448" y="64" href="163263/274045.png" width="64" height="64" /><image x="0" y="128" href="163263/274066.png" width="64" height="64" /><image x="64" y="128" href="163263/274047.png" width="64" height="64" /><image x="128" y="128" href="163263/274461.png" width="64" height="64" /><image x="192" y="128" href="163263/274455.png" width="64" height="64" /><image x="256" y="128" href="163263/274449.png" width="64" height="64" /><image x="320" y="128" href="163263/274460.png" width="64" height="64" /><image x="384" y="128" href="163263/274779.png" width="64" height="64" /><image x="448" y="128" href="163263/274780.png" width="64" height="64" /><image x="0" y="192" href="163263/274719.png" width="64" height="64" /><image x="64" y="192" href="163263/274789.png" width="64" height="64" /><image x="128" y="192" href="163263/275051.png" width="64" height="64" /><image x="192" y="192" href="163263/275071.png" width="64" height="64" /><image x="256" y="192" href="163263/275015.png" width="64" height="64" /><image x="320" y="192" href="163263/275070.png" width="64" height="64" /><image x="384" y="192" href="163263/274767.png" width="64" height="64" /><image x="448" y="192" href="163263/275089.png" width="64" height="64" /><image x="0" y="256" href="163263/275122.png" width="64" height="64" /><image x="64" y="256" href="163263/275026.png" width="64" height="64" /><image x="128" y="256" href="163263/275014.png" width="64" height="64" /><image x="192" y="256" href="163263/275515.png" width="64" height="64" /><image x="256" y="256" href="163263/275037.png" width="64" height="64" /><image x="320" y="256" href="163263/275036.png" width="64" height="64" /><image x="384" y="256" href="163263/275012.png" width="64" height="64" /><image x="448" y="256" href="163263/275521.png" width="64" height="64" /><image x="0" y="320" href="163263/275069.png" width="64" height="64" /><image x="64" y="320" href="163263/275119.png" width="64" height="64" /><image x="128" y="320" href="163263/275068.png" width="64" height="64" /><image x="192" y="320" href="163263/275019.png" width="64" height="64" /><image x="256" y="320" href="163263/276501.png" width="64" height="64" /><image x="320" y="320" href="163263/278228.png" width="64" height="64" /><image x="384" y="320" href="163263/278292.png" width="64" height="64" /><image x="448" y="320" href="163263/278216.png" width="64" height="64" /><image x="0" y="384" href="163263/278226.png" width="64" height="64" /><image x="64" y="384" href="163263/278225.png" width="64" height="64" /><image x="128" y="384" href="163263/278263.png" width="64" height="64" /><image x="192" y="384" href="163263/278227.png" width="64" height="64" /><image x="256" y="384" href="163263/281635.png" width="64" height="64" /><image x="320" y="384" href="163263/281804.png" width="64" height="64" /><image x="384" y="384" href="163263/278246.png" width="64" height="64" /><image x="448" y="384" href="163263/279071.png" width="64" height="64" /></svg>