<?xml version="1.0" encoding="UTF-8"?>
<svg xmlns="http://www.w3.org/2000/svg" version="1.1" height="320" width="320"><rect x="0" y="0" width="320" height="320" fill="rgb(192,192,192)" /><image x="0" y="0" href="16355/183569.png" width="64" height="64" /><image x="64" y="0" href="16355/36302.png" width="64" height="64" /><image x="128" y="0" href="16355/36066.png" width="64" height="64" /><image x="192" y="0" href="16355/38293.png" width="64" height="64" /><image x="256" y="0" href="16355/34189.png" width="64" height="64" /><image x="0" y="64" href="16355/34190.png" width="64" height="64" /><image x="64" y="64" href="16355/34860.png" width="64" height="64" /><image x="128" y="64" href="16355/88007.png" width="64" height="64" /><image x="192" y="64" href="16355/55266.png" width="64" height="64" /><image x="256" y="64" href="16355/84566.png" width="64" height="64" /><image x="0" y="128" href="16355/35756.png" width="64" height="64" /><image x="64" y="128" href="16355/81122.png" width="64" height="64" /><image x="128" y="128" href="16355/55265.png" width="64" height="64" /><image x="192" y="128" href="16355/81388.png" width="64" height="64" /><image x="256" y="128" href="16355/35754.png" width="64" height="64" /><image x="0" y="192" href="16355/80972.png" width="64" height="64" /><image x="64" y="192" href="16355/55264.png" width="64" height="64" /><image x="128" y="192" href="16355/33871.png" width="64" height="64" /><image x="192" y="192" href="16355/35944.png" width="64" height="64" /><image x="256" y="192" href="16355/35247.png" width="64" height="64" /><image x="0" y="256" href="16355/35943.png" width="64" height="64" /><image x="64" y="256" href="16355/35198.png" width="64" height="64" /></svg>