<?xml version="1.0" encoding="UTF-8"?>
<svg xmlns="http://www.w3.org/2000/svg" version="1.1" height="384" width="384"><rect x="0" y="0" width="384" height="384" fill="rgb(192,192,192)" /><image x="0" y="0" href="166349/276814.png" width="64" height="64" /><image x="64" y="0" href="166349/276795.png" width="64" height="64" /><image x="128" y="0" href="166349/276755.png" width="64" height="64" /><image x="192" y="0" href="166349/276698.png" width="64" height="64" /><image x="256" y="0" href="166349/276802.png" width="64" height="64" /><image x="320" y="0" href="166349/276798.png" width="64" height="64" /><image x="0" y="64" href="166349/276781.png" width="64" height="64" /><image x="64" y="64" href="166349/276760.png" width="64" height="64" /><image x="128" y="64" href="166349/277852.png" width="64" height="64" /><image x="192" y="64" href="166349/277837.png" width="64" height="64" /><image x="256" y="64" href="166349/278211.png" width="64" height="64" /><image x="320" y="64" href="166349/278296.png" width="64" height="64" /><image x="0" y="128" href="166349/279164.png" width="64" height="64" /><image x="64" y="128" href="166349/278372.png" width="64" height="64" /><image x="128" y="128" href="166349/278364.png" width="64" height="64" /><image x="192" y="128" href="166349/278643.png" width="64" height="64" /><image x="256" y="128" href="166349/278642.png" width="64" height="64" /><image x="320" y="128" href="166349/278785.png" width="64" height="64" /><image x="0" y="192" href="166349/278732.png" width="64" height="64" /><image x="64" y="192" href="166349/278730.png" width="64" height="64" /><image x="128" y="192" href="166349/279843.png" width="64" height="64" /><image x="192" y="192" href="166349/279875.png" width="64" height="64" /><image x="256" y="192" href="166349/279833.png" width="64" height="64" /><image x="320" y="192" href="166349/279835.png" width="64" height="64" /><image x="0" y="256" href="166349/279852.png" width="64" height="64" /><image x="64" y="256" href="166349/279853.png" width="64" height="64" /><image x="128" y="256" href="166349/279881.png" width="64" height="64" /></svg>