<?xml version="1.0" encoding="UTF-8"?>
<svg xmlns="http://www.w3.org/2000/svg" version="1.1" height="256" width="256"><rect x="0" y="0" width="256" height="256" fill="rgb(192,192,192)" /><image x="0" y="0" href="168317/136804.png" width="64" height="64" /><image x="64" y="0" href="168317/108744.png" width="64" height="64" /><image x="128" y="0" href="168317/54649.png" width="64" height="64" /><image x="192" y="0" href="168317/136778.png" width="64" height="64" /><image x="0" y="64" href="168317/54643.png" width="64" height="64" /><image x="64" y="64" href="168317/54644.png" width="64" height="64" /><image x="128" y="64" href="168317/137122.png" width="64" height="64" /><image x="192" y="64" href="168317/84665.png" width="64" height="64" /><image x="0" y="128" href="168317/109500.png" width="64" height="64" /><image x="64" y="128" href="168317/136781.png" width="64" height="64" /><image x="128" y="128" href="168317/109511.png" width="64" height="64" /><image x="192" y="128" href="168317/113419.png" width="64" height="64" /><image x="0" y="192" href="168317/137121.png" width="64" height="64" /><image x="64" y="192" href="168317/111300.png" width="64" height="64" /></svg>