<?xml version="1.0" encoding="UTF-8"?>
<svg xmlns="http://www.w3.org/2000/svg" version="1.1" height="384" width="384"><rect x="0" y="0" width="384" height="384" fill="rgb(192,192,192)" /><image x="0" y="0" href="168318/137121.png" width="64" height="64" /><image x="64" y="0" href="168318/120123.png" width="64" height="64" /><image x="128" y="0" href="168318/137325.png" width="64" height="64" /><image x="192" y="0" href="168318/111907.png" width="64" height="64" /><image x="256" y="0" href="168318/113401.png" width="64" height="64" /><image x="320" y="0" href="168318/136812.png" width="64" height="64" /><image x="0" y="64" href="168318/109513.png" width="64" height="64" /><image x="64" y="64" href="168318/137120.png" width="64" height="64" /><image x="128" y="64" href="168318/109654.png" width="64" height="64" /><image x="192" y="64" href="168318/137980.png" width="64" height="64" /><image x="256" y="64" href="168318/109628.png" width="64" height="64" /><image x="320" y="64" href="168318/113409.png" width="64" height="64" /><image x="0" y="128" href="168318/136814.png" width="64" height="64" /><image x="64" y="128" href="168318/114230.png" width="64" height="64" /><image x="128" y="128" href="168318/113614.png" width="64" height="64" /><image x="192" y="128" href="168318/111685.png" width="64" height="64" /><image x="256" y="128" href="168318/136805.png" width="64" height="64" /><image x="320" y="128" href="168318/114267.png" width="64" height="64" /><image x="0" y="192" href="168318/109617.png" width="64" height="64" /><image x="64" y="192" href="168318/108497.png" width="64" height="64" /><image x="128" y="192" href="168318/129841.png" width="64" height="64" /><image x="192" y="192" href="168318/129840.png" width="64" height="64" /><image x="256" y="192" href="168318/129842.png" width="64" height="64" /><image x="320" y="192" href="168318/129843.png" width="64" height="64" /><image x="0" y="256" href="168318/129838.png" width="64" height="64" /><image x="64" y="256" href="168318/129845.png" width="64" height="64" /><image x="128" y="256" href="168318/129828.png" width="64" height="64" /><image x="192" y="256" href="168318/129827.png" width="64" height="64" /><image x="256" y="256" href="168318/129826.png" width="64" height="64" /><image x="320" y="256" href="168318/129836.png" width="64" height="64" /><image x="0" y="320" href="168318/129835.png" width="64" height="64" /><image x="64" y="320" href="168318/129833.png" width="64" height="64" /><image x="128" y="320" href="168318/129824.png" width="64" height="64" /><image x="192" y="320" href="168318/129822.png" width="64" height="64" /><image x="256" y="320" href="168318/111300.png" width="64" height="64" /></svg>