<?xml version="1.0" encoding="UTF-8"?>
<svg xmlns="http://www.w3.org/2000/svg" version="1.1" height="320" width="320"><rect x="0" y="0" width="320" height="320" fill="rgb(192,192,192)" /><image x="0" y="0" href="168316/84659.png" width="64" height="64" /><image x="64" y="0" href="168316/84660.png" width="64" height="64" /><image x="128" y="0" href="168316/54689.png" width="64" height="64" /><image x="192" y="0" href="168316/110683.png" width="64" height="64" /><image x="256" y="0" href="168316/54642.png" width="64" height="64" /><image x="0" y="64" href="168316/136782.png" width="64" height="64" /><image x="64" y="64" href="168316/54686.png" width="64" height="64" /><image x="128" y="64" href="168316/54671.png" width="64" height="64" /><image x="192" y="64" href="168316/84661.png" width="64" height="64" /><image x="256" y="64" href="168316/136780.png" width="64" height="64" /><image x="0" y="128" href="168316/54680.png" width="64" height="64" /><image x="64" y="128" href="168316/54670.png" width="64" height="64" /><image x="128" y="128" href="168316/54633.png" width="64" height="64" /><image x="192" y="128" href="168316/136779.png" width="64" height="64" /><image x="256" y="128" href="168316/113934.png" width="64" height="64" /><image x="0" y="192" href="168316/113695.png" width="64" height="64" /><image x="64" y="192" href="168316/54682.png" width="64" height="64" /><image x="128" y="192" href="168316/84662.png" width="64" height="64" /><image x="192" y="192" href="168316/136804.png" width="64" height="64" /><image x="256" y="192" href="168316/54687.png" width="64" height="64" /><image x="0" y="256" href="168316/136815.png" width="64" height="64" /><image x="64" y="256" href="168316/111300.png" width="64" height="64" /></svg>