<?xml version="1.0" encoding="UTF-8"?>
<svg xmlns="http://www.w3.org/2000/svg" version="1.1" height="576" width="576"><rect x="0" y="0" width="576" height="576" fill="rgb(192,192,192)" /><image x="0" y="0" href="168319/129831.png" width="64" height="64" /><image x="64" y="0" href="168319/129823.png" width="64" height="64" /><image x="128" y="0" href="168319/129844.png" width="64" height="64" /><image x="192" y="0" href="168319/129818.png" width="64" height="64" /><image x="256" y="0" href="168319/129834.png" width="64" height="64" /><image x="320" y="0" href="168319/129832.png" width="64" height="64" /><image x="384" y="0" href="168319/129820.png" width="64" height="64" /><image x="448" y="0" href="168319/129821.png" width="64" height="64" /><image x="512" y="0" href="168319/129819.png" width="64" height="64" /><image x="0" y="64" href="168319/128949.png" width="64" height="64" /><image x="64" y="64" href="168319/129116.png" width="64" height="64" /><image x="128" y="64" href="168319/129115.png" width="64" height="64" /><image x="192" y="64" href="168319/128927.png" width="64" height="64" /><image x="256" y="64" href="168319/128924.png" width="64" height="64" /><image x="320" y="64" href="168319/128923.png" width="64" height="64" /><image x="384" y="64" href="168319/128922.png" width="64" height="64" /><image x="448" y="64" href="168319/128921.png" width="64" height="64" /><image x="512" y="64" href="168319/128920.png" width="64" height="64" /><image x="0" y="128" href="168319/127465.png" width="64" height="64" /><image x="64" y="128" href="168319/127466.png" width="64" height="64" /><image x="128" y="128" href="168319/127470.png" width="64" height="64" /><image x="192" y="128" href="168319/127468.png" width="64" height="64" /><image x="256" y="128" href="168319/127469.png" width="64" height="64" /><image x="320" y="128" href="168319/127586.png" width="64" height="64" /><image x="384" y="128" href="168319/127585.png" width="64" height="64" /><image x="448" y="128" href="168319/127608.png" width="64" height="64" /><image x="512" y="128" href="168319/127587.png" width="64" height="64" /><image x="0" y="192" href="168319/127591.png" width="64" height="64" /><image x="64" y="192" href="168319/127589.png" width="64" height="64" /><image x="128" y="192" href="168319/127592.png" width="64" height="64" /><image x="192" y="192" href="168319/127590.png" width="64" height="64" /><image x="256" y="192" href="168319/127593.png" width="64" height="64" /><image x="320" y="192" href="168319/127752.png" width="64" height="64" /><image x="384" y="192" href="168319/127776.png" width="64" height="64" /><image x="448" y="192" href="168319/127753.png" width="64" height="64" /><image x="512" y="192" href="168319/127780.png" width="64" height="64" /><image x="0" y="256" href="168319/127779.png" width="64" height="64" /><image x="64" y="256" href="168319/127751.png" width="64" height="64" /><image x="128" y="256" href="168319/127774.png" width="64" height="64" /><image x="192" y="256" href="168319/127754.png" width="64" height="64" /><image x="256" y="256" href="168319/127777.png" width="64" height="64" /><image x="320" y="256" href="168319/127775.png" width="64" height="64" /><image x="384" y="256" href="168319/127778.png" width="64" height="64" /><image x="448" y="256" href="168319/127755.png" width="64" height="64" /><image x="512" y="256" href="168319/127756.png" width="64" height="64" /><image x="0" y="320" href="168319/128034.png" width="64" height="64" /><image x="64" y="320" href="168319/128035.png" width="64" height="64" /><image x="128" y="320" href="168319/128033.png" width="64" height="64" /><image x="192" y="320" href="168319/128036.png" width="64" height="64" /><image x="256" y="320" href="168319/128038.png" width="64" height="64" /><image x="320" y="320" href="168319/128037.png" width="64" height="64" /><image x="384" y="320" href="168319/128039.png" width="64" height="64" /><image x="448" y="320" href="168319/128053.png" width="64" height="64" /><image x="512" y="320" href="168319/128096.png" width="64" height="64" /><image x="0" y="384" href="168319/128099.png" width="64" height="64" /><image x="64" y="384" href="168319/128619.png" width="64" height="64" /><image x="128" y="384" href="168319/128623.png" width="64" height="64" /><image x="192" y="384" href="168319/128638.png" width="64" height="64" /><image x="256" y="384" href="168319/128846.png" width="64" height="64" /><image x="320" y="384" href="168319/128847.png" width="64" height="64" /><image x="384" y="384" href="168319/128848.png" width="64" height="64" /><image x="448" y="384" href="168319/128849.png" width="64" height="64" /><image x="512" y="384" href="168319/128851.png" width="64" height="64" /><image x="0" y="448" href="168319/128852.png" width="64" height="64" /><image x="64" y="448" href="168319/128850.png" width="64" height="64" /><image x="128" y="448" href="168319/128817.png" width="64" height="64" /><image x="192" y="448" href="168319/129837.png" width="64" height="64" /><image x="256" y="448" href="168319/129830.png" width="64" height="64" /></svg>