<?xml version="1.0" encoding="UTF-8"?>
<svg xmlns="http://www.w3.org/2000/svg" version="1.1" height="576" width="576"><rect x="0" y="0" width="576" height="576" fill="rgb(192,192,192)" /><image x="0" y="0" href="169110/280986.png" width="64" height="64" /><image x="64" y="0" href="169110/280932.png" width="64" height="64" /><image x="128" y="0" href="169110/281389.png" width="64" height="64" /><image x="192" y="0" href="169110/280957.png" width="64" height="64" /><image x="256" y="0" href="169110/280968.png" width="64" height="64" /><image x="320" y="0" href="169110/280979.png" width="64" height="64" /><image x="384" y="0" href="169110/280958.png" width="64" height="64" /><image x="448" y="0" href="169110/280974.png" width="64" height="64" /><image x="512" y="0" href="169110/280984.png" width="64" height="64" /><image x="0" y="64" href="169110/281057.png" width="64" height="64" /><image x="64" y="64" href="169110/280963.png" width="64" height="64" /><image x="128" y="64" href="169110/281284.png" width="64" height="64" /><image x="192" y="64" href="169110/281397.png" width="64" height="64" /><image x="256" y="64" href="169110/281378.png" width="64" height="64" /><image x="320" y="64" href="169110/280951.png" width="64" height="64" /><image x="384" y="64" href="169110/280985.png" width="64" height="64" /><image x="448" y="64" href="169110/280988.png" width="64" height="64" /><image x="512" y="64" href="169110/281066.png" width="64" height="64" /><image x="0" y="128" href="169110/281054.png" width="64" height="64" /><image x="64" y="128" href="169110/281058.png" width="64" height="64" /><image x="128" y="128" href="169110/281011.png" width="64" height="64" /><image x="192" y="128" href="169110/281053.png" width="64" height="64" /><image x="256" y="128" href="169110/281056.png" width="64" height="64" /><image x="320" y="128" href="169110/281010.png" width="64" height="64" /><image x="384" y="128" href="169110/281033.png" width="64" height="64" /><image x="448" y="128" href="169110/281041.png" width="64" height="64" /><image x="512" y="128" href="169110/281040.png" width="64" height="64" /><image x="0" y="192" href="169110/281055.png" width="64" height="64" /><image x="64" y="192" href="169110/281065.png" width="64" height="64" /><image x="128" y="192" href="169110/281031.png" width="64" height="64" /><image x="192" y="192" href="169110/281034.png" width="64" height="64" /><image x="256" y="192" href="169110/281009.png" width="64" height="64" /><image x="320" y="192" href="169110/281052.png" width="64" height="64" /><image x="384" y="192" href="169110/281006.png" width="64" height="64" /><image x="448" y="192" href="169110/281039.png" width="64" height="64" /><image x="512" y="192" href="169110/281084.png" width="64" height="64" /><image x="0" y="256" href="169110/281021.png" width="64" height="64" /><image x="64" y="256" href="169110/281015.png" width="64" height="64" /><image x="128" y="256" href="169110/281071.png" width="64" height="64" /><image x="192" y="256" href="169110/281072.png" width="64" height="64" /><image x="256" y="256" href="169110/281014.png" width="64" height="64" /><image x="320" y="256" href="169110/281070.png" width="64" height="64" /><image x="384" y="256" href="169110/281082.png" width="64" height="64" /><image x="448" y="256" href="169110/281076.png" width="64" height="64" /><image x="512" y="256" href="169110/281023.png" width="64" height="64" /><image x="0" y="320" href="169110/281085.png" width="64" height="64" /><image x="64" y="320" href="169110/281077.png" width="64" height="64" /><image x="128" y="320" href="169110/281063.png" width="64" height="64" /><image x="192" y="320" href="169110/281016.png" width="64" height="64" /><image x="256" y="320" href="169110/281151.png" width="64" height="64" /><image x="320" y="320" href="169110/281165.png" width="64" height="64" /><image x="384" y="320" href="169110/281166.png" width="64" height="64" /><image x="448" y="320" href="169110/281158.png" width="64" height="64" /><image x="512" y="320" href="169110/281189.png" width="64" height="64" /><image x="0" y="384" href="169110/281148.png" width="64" height="64" /><image x="64" y="384" href="169110/281147.png" width="64" height="64" /><image x="128" y="384" href="169110/281159.png" width="64" height="64" /><image x="192" y="384" href="169110/281162.png" width="64" height="64" /><image x="256" y="384" href="169110/281154.png" width="64" height="64" /><image x="320" y="384" href="169110/281182.png" width="64" height="64" /><image x="384" y="384" href="169110/281163.png" width="64" height="64" /><image x="448" y="384" href="169110/281181.png" width="64" height="64" /><image x="512" y="384" href="169110/281185.png" width="64" height="64" /><image x="0" y="448" href="169110/281196.png" width="64" height="64" /><image x="64" y="448" href="169110/281186.png" width="64" height="64" /><image x="128" y="448" href="169110/281175.png" width="64" height="64" /><image x="192" y="448" href="169110/281187.png" width="64" height="64" /><image x="256" y="448" href="169110/281171.png" width="64" height="64" /><image x="320" y="448" href="169110/281197.png" width="64" height="64" /><image x="384" y="448" href="169110/281377.png" width="64" height="64" /><image x="448" y="448" href="169110/281172.png" width="64" height="64" /><image x="512" y="448" href="169110/281176.png" width="64" height="64" /><image x="0" y="512" href="169110/281198.png" width="64" height="64" /></svg>