<?xml version="1.0" encoding="UTF-8"?>
<svg xmlns="http://www.w3.org/2000/svg" version="1.1" height="576" width="576"><rect x="0" y="0" width="576" height="576" fill="rgb(192,192,192)" /><image x="0" y="0" href="169282/281280.png" width="64" height="64" /><image x="64" y="0" href="169282/281390.png" width="64" height="64" /><image x="128" y="0" href="169282/281394.png" width="64" height="64" /><image x="192" y="0" href="169282/281396.png" width="64" height="64" /><image x="256" y="0" href="169282/281384.png" width="64" height="64" /><image x="320" y="0" href="169282/281381.png" width="64" height="64" /><image x="384" y="0" href="169282/281371.png" width="64" height="64" /><image x="448" y="0" href="169282/281362.png" width="64" height="64" /><image x="512" y="0" href="169282/281360.png" width="64" height="64" /><image x="0" y="64" href="169282/281361.png" width="64" height="64" /><image x="64" y="64" href="169282/281375.png" width="64" height="64" /><image x="128" y="64" href="169282/281372.png" width="64" height="64" /><image x="192" y="64" href="169282/281366.png" width="64" height="64" /><image x="256" y="64" href="169282/281383.png" width="64" height="64" /><image x="320" y="64" href="169282/281410.png" width="64" height="64" /><image x="384" y="64" href="169282/281393.png" width="64" height="64" /><image x="448" y="64" href="169282/281399.png" width="64" height="64" /><image x="512" y="64" href="169282/281369.png" width="64" height="64" /><image x="0" y="128" href="169282/281411.png" width="64" height="64" /><image x="64" y="128" href="169282/281391.png" width="64" height="64" /><image x="128" y="128" href="169282/281398.png" width="64" height="64" /><image x="192" y="128" href="169282/281367.png" width="64" height="64" /><image x="256" y="128" href="169282/281412.png" width="64" height="64" /><image x="320" y="128" href="169282/281401.png" width="64" height="64" /><image x="384" y="128" href="169282/281363.png" width="64" height="64" /><image x="448" y="128" href="169282/281382.png" width="64" height="64" /><image x="512" y="128" href="169282/281368.png" width="64" height="64" /><image x="0" y="192" href="169282/281407.png" width="64" height="64" /><image x="64" y="192" href="169282/281370.png" width="64" height="64" /><image x="128" y="192" href="169282/281364.png" width="64" height="64" /><image x="192" y="192" href="169282/281395.png" width="64" height="64" /><image x="256" y="192" href="169282/281392.png" width="64" height="64" /><image x="320" y="192" href="169282/281531.png" width="64" height="64" /><image x="384" y="192" href="169282/281365.png" width="64" height="64" /><image x="448" y="192" href="169282/281408.png" width="64" height="64" /><image x="512" y="192" href="169282/281400.png" width="64" height="64" /><image x="0" y="256" href="169282/281376.png" width="64" height="64" /><image x="64" y="256" href="169282/281385.png" width="64" height="64" /><image x="128" y="256" href="169282/281423.png" width="64" height="64" /><image x="192" y="256" href="169282/281388.png" width="64" height="64" /><image x="256" y="256" href="169282/281416.png" width="64" height="64" /><image x="320" y="256" href="169282/281431.png" width="64" height="64" /><image x="384" y="256" href="169282/281485.png" width="64" height="64" /><image x="448" y="256" href="169282/281486.png" width="64" height="64" /><image x="512" y="256" href="169282/281474.png" width="64" height="64" /><image x="0" y="320" href="169282/281455.png" width="64" height="64" /><image x="64" y="320" href="169282/281483.png" width="64" height="64" /><image x="128" y="320" href="169282/281461.png" width="64" height="64" /><image x="192" y="320" href="169282/281469.png" width="64" height="64" /><image x="256" y="320" href="169282/281484.png" width="64" height="64" /><image x="320" y="320" href="169282/281468.png" width="64" height="64" /><image x="384" y="320" href="169282/281429.png" width="64" height="64" /><image x="448" y="320" href="169282/281480.png" width="64" height="64" /><image x="512" y="320" href="169282/281440.png" width="64" height="64" /><image x="0" y="384" href="169282/281427.png" width="64" height="64" /><image x="64" y="384" href="169282/281448.png" width="64" height="64" /><image x="128" y="384" href="169282/281445.png" width="64" height="64" /><image x="192" y="384" href="169282/281465.png" width="64" height="64" /><image x="256" y="384" href="169282/281441.png" width="64" height="64" /><image x="320" y="384" href="169282/281456.png" width="64" height="64" /><image x="384" y="384" href="169282/281430.png" width="64" height="64" /><image x="448" y="384" href="169282/281428.png" width="64" height="64" /><image x="512" y="384" href="169282/281482.png" width="64" height="64" /><image x="0" y="448" href="169282/281442.png" width="64" height="64" /><image x="64" y="448" href="169282/281481.png" width="64" height="64" /><image x="128" y="448" href="169282/281449.png" width="64" height="64" /><image x="192" y="448" href="169282/281464.png" width="64" height="64" /><image x="256" y="448" href="169282/281466.png" width="64" height="64" /><image x="320" y="448" href="169282/281450.png" width="64" height="64" /><image x="384" y="448" href="169282/299037.png" width="64" height="64" /></svg>