<?xml version="1.0" encoding="UTF-8"?>
<svg xmlns="http://www.w3.org/2000/svg" version="1.1" height="320" width="320"><rect x="0" y="0" width="320" height="320" fill="rgb(192,192,192)" /><image x="0" y="0" href="169356/281446.png" width="64" height="64" /><image x="64" y="0" href="169356/281489.png" width="64" height="64" /><image x="128" y="0" href="169356/281435.png" width="64" height="64" /><image x="192" y="0" href="169356/281467.png" width="64" height="64" /><image x="256" y="0" href="169356/281479.png" width="64" height="64" /><image x="0" y="64" href="169356/281433.png" width="64" height="64" /><image x="64" y="64" href="169356/281425.png" width="64" height="64" /><image x="128" y="64" href="169356/281492.png" width="64" height="64" /><image x="192" y="64" href="169356/281457.png" width="64" height="64" /><image x="256" y="64" href="169356/281458.png" width="64" height="64" /><image x="0" y="128" href="169356/281462.png" width="64" height="64" /><image x="64" y="128" href="169356/281478.png" width="64" height="64" /><image x="128" y="128" href="169356/281473.png" width="64" height="64" /><image x="192" y="128" href="169356/281477.png" width="64" height="64" /><image x="256" y="128" href="169356/281488.png" width="64" height="64" /><image x="0" y="192" href="169356/281472.png" width="64" height="64" /><image x="64" y="192" href="169356/281434.png" width="64" height="64" /><image x="128" y="192" href="169356/281459.png" width="64" height="64" /><image x="192" y="192" href="169356/281476.png" width="64" height="64" /><image x="256" y="192" href="169356/281487.png" width="64" height="64" /><image x="0" y="256" href="169356/281490.png" width="64" height="64" /><image x="64" y="256" href="169356/281475.png" width="64" height="64" /></svg>