<?xml version="1.0" encoding="UTF-8"?>
<svg xmlns="http://www.w3.org/2000/svg" version="1.1" height="704" width="704"><rect x="0" y="0" width="704" height="704" fill="rgb(192,192,192)" /><image x="0" y="0" href="169397/281620.png" width="64" height="64" /><image x="64" y="0" href="169397/281618.png" width="64" height="64" /><image x="128" y="0" href="169397/281650.png" width="64" height="64" /><image x="192" y="0" href="169397/281657.png" width="64" height="64" /><image x="256" y="0" href="169397/281662.png" width="64" height="64" /><image x="320" y="0" href="169397/281638.png" width="64" height="64" /><image x="384" y="0" href="169397/281649.png" width="64" height="64" /><image x="448" y="0" href="169397/281660.png" width="64" height="64" /><image x="512" y="0" href="169397/281633.png" width="64" height="64" /><image x="576" y="0" href="169397/281656.png" width="64" height="64" /><image x="640" y="0" href="169397/281630.png" width="64" height="64" /><image x="0" y="64" href="169397/281637.png" width="64" height="64" /><image x="64" y="64" href="169397/281655.png" width="64" height="64" /><image x="128" y="64" href="169397/281634.png" width="64" height="64" /><image x="192" y="64" href="169397/281625.png" width="64" height="64" /><image x="256" y="64" href="169397/281670.png" width="64" height="64" /><image x="320" y="64" href="169397/281663.png" width="64" height="64" /><image x="384" y="64" href="169397/281648.png" width="64" height="64" /><image x="448" y="64" href="169397/281669.png" width="64" height="64" /><image x="512" y="64" href="169397/281653.png" width="64" height="64" /><image x="576" y="64" href="169397/281784.png" width="64" height="64" /><image x="640" y="64" href="169397/281759.png" width="64" height="64" /><image x="0" y="128" href="169397/281770.png" width="64" height="64" /><image x="64" y="128" href="169397/281774.png" width="64" height="64" /><image x="128" y="128" href="169397/281792.png" width="64" height="64" /><image x="192" y="128" href="169397/281781.png" width="64" height="64" /><image x="256" y="128" href="169397/281769.png" width="64" height="64" /><image x="320" y="128" href="169397/281785.png" width="64" height="64" /><image x="384" y="128" href="169397/281824.png" width="64" height="64" /><image x="448" y="128" href="169397/281777.png" width="64" height="64" /><image x="512" y="128" href="169397/281758.png" width="64" height="64" /><image x="576" y="128" href="169397/281775.png" width="64" height="64" /><image x="640" y="128" href="169397/281651.png" width="64" height="64" /><image x="0" y="192" href="169397/281665.png" width="64" height="64" /><image x="64" y="192" href="169397/281645.png" width="64" height="64" /><image x="128" y="192" href="169397/281673.png" width="64" height="64" /><image x="192" y="192" href="169397/281671.png" width="64" height="64" /><image x="256" y="192" href="169397/281652.png" width="64" height="64" /><image x="320" y="192" href="169397/281793.png" width="64" height="64" /><image x="384" y="192" href="169397/281786.png" width="64" height="64" /><image x="448" y="192" href="169397/281782.png" width="64" height="64" /><image x="512" y="192" href="169397/281783.png" width="64" height="64" /><image x="576" y="192" href="169397/281780.png" width="64" height="64" /><image x="640" y="192" href="169397/281762.png" width="64" height="64" /><image x="0" y="256" href="169397/281761.png" width="64" height="64" /><image x="64" y="256" href="169397/281776.png" width="64" height="64" /><image x="128" y="256" href="169397/281772.png" width="64" height="64" /><image x="192" y="256" href="169397/281771.png" width="64" height="64" /><image x="256" y="256" href="169397/281773.png" width="64" height="64" /><image x="320" y="256" href="169397/281768.png" width="64" height="64" /><image x="384" y="256" href="169397/281807.png" width="64" height="64" /><image x="448" y="256" href="169397/281803.png" width="64" height="64" /><image x="512" y="256" href="169397/281763.png" width="64" height="64" /><image x="576" y="256" href="169397/281760.png" width="64" height="64" /><image x="640" y="256" href="169397/281808.png" width="64" height="64" /><image x="0" y="320" href="169397/281767.png" width="64" height="64" /><image x="64" y="320" href="169397/281766.png" width="64" height="64" /><image x="128" y="320" href="169397/281789.png" width="64" height="64" /><image x="192" y="320" href="169397/281764.png" width="64" height="64" /><image x="256" y="320" href="169397/281787.png" width="64" height="64" /><image x="320" y="320" href="169397/281765.png" width="64" height="64" /><image x="384" y="320" href="169397/281788.png" width="64" height="64" /><image x="448" y="320" href="169397/281805.png" width="64" height="64" /><image x="512" y="320" href="169397/281790.png" width="64" height="64" /><image x="576" y="320" href="169397/281794.png" width="64" height="64" /><image x="640" y="320" href="169397/281800.png" width="64" height="64" /><image x="0" y="384" href="169397/281806.png" width="64" height="64" /><image x="64" y="384" href="169397/281811.png" width="64" height="64" /><image x="128" y="384" href="169397/281795.png" width="64" height="64" /><image x="192" y="384" href="169397/281809.png" width="64" height="64" /><image x="256" y="384" href="169397/281799.png" width="64" height="64" /><image x="320" y="384" href="169397/281847.png" width="64" height="64" /><image x="384" y="384" href="169397/281832.png" width="64" height="64" /><image x="448" y="384" href="169397/281829.png" width="64" height="64" /><image x="512" y="384" href="169397/281848.png" width="64" height="64" /><image x="576" y="384" href="169397/281843.png" width="64" height="64" /><image x="640" y="384" href="169397/281841.png" width="64" height="64" /><image x="0" y="448" href="169397/281839.png" width="64" height="64" /><image x="64" y="448" href="169397/281851.png" width="64" height="64" /><image x="128" y="448" href="169397/281844.png" width="64" height="64" /><image x="192" y="448" href="169397/281842.png" width="64" height="64" /><image x="256" y="448" href="169397/281854.png" width="64" height="64" /><image x="320" y="448" href="169397/281846.png" width="64" height="64" /><image x="384" y="448" href="169397/281850.png" width="64" height="64" /><image x="448" y="448" href="169397/281827.png" width="64" height="64" /><image x="512" y="448" href="169397/281831.png" width="64" height="64" /><image x="576" y="448" href="169397/281833.png" width="64" height="64" /><image x="640" y="448" href="169397/281830.png" width="64" height="64" /><image x="0" y="512" href="169397/281869.png" width="64" height="64" /><image x="64" y="512" href="169397/281889.png" width="64" height="64" /><image x="128" y="512" href="169397/281871.png" width="64" height="64" /><image x="192" y="512" href="169397/281870.png" width="64" height="64" /><image x="256" y="512" href="169397/281885.png" width="64" height="64" /><image x="320" y="512" href="169397/281879.png" width="64" height="64" /><image x="384" y="512" href="169397/281901.png" width="64" height="64" /><image x="448" y="512" href="169397/281882.png" width="64" height="64" /><image x="512" y="512" href="169397/281878.png" width="64" height="64" /><image x="576" y="512" href="169397/281893.png" width="64" height="64" /><image x="640" y="512" href="169397/281902.png" width="64" height="64" /><image x="0" y="576" href="169397/281899.png" width="64" height="64" /><image x="64" y="576" href="169397/281894.png" width="64" height="64" /><image x="128" y="576" href="169397/281888.png" width="64" height="64" /><image x="192" y="576" href="169397/281905.png" width="64" height="64" /><image x="256" y="576" href="169397/281904.png" width="64" height="64" /><image x="320" y="576" href="169397/281898.png" width="64" height="64" /><image x="384" y="576" href="169397/281903.png" width="64" height="64" /><image x="448" y="576" href="169397/282459.png" width="64" height="64" /><image x="512" y="576" href="169397/282458.png" width="64" height="64" /><image x="576" y="576" href="169397/282454.png" width="64" height="64" /><image x="640" y="576" href="169397/282445.png" width="64" height="64" /><image x="0" y="640" href="169397/282444.png" width="64" height="64" /><image x="64" y="640" href="169397/282452.png" width="64" height="64" /><image x="128" y="640" href="169397/282443.png" width="64" height="64" /><image x="192" y="640" href="169397/282453.png" width="64" height="64" /><image x="256" y="640" href="169397/282442.png" width="64" height="64" /><image x="320" y="640" href="169397/282449.png" width="64" height="64" /><image x="384" y="640" href="169397/282450.png" width="64" height="64" /><image x="448" y="640" href="169397/282447.png" width="64" height="64" /></svg>