<?xml version="1.0" encoding="UTF-8"?>
<svg xmlns="http://www.w3.org/2000/svg" version="1.1" height="448" width="448"><rect x="0" y="0" width="448" height="448" fill="rgb(192,192,192)" /><image x="0" y="0" href="169357/281443.png" width="64" height="64" /><image x="64" y="0" href="169357/281426.png" width="64" height="64" /><image x="128" y="0" href="169357/281453.png" width="64" height="64" /><image x="192" y="0" href="169357/281470.png" width="64" height="64" /><image x="256" y="0" href="169357/281437.png" width="64" height="64" /><image x="320" y="0" href="169357/281518.png" width="64" height="64" /><image x="384" y="0" href="169357/281515.png" width="64" height="64" /><image x="0" y="64" href="169357/281512.png" width="64" height="64" /><image x="64" y="64" href="169357/281544.png" width="64" height="64" /><image x="128" y="64" href="169357/281517.png" width="64" height="64" /><image x="192" y="64" href="169357/281501.png" width="64" height="64" /><image x="256" y="64" href="169357/281516.png" width="64" height="64" /><image x="320" y="64" href="169357/281500.png" width="64" height="64" /><image x="384" y="64" href="169357/281513.png" width="64" height="64" /><image x="0" y="128" href="169357/281547.png" width="64" height="64" /><image x="64" y="128" href="169357/281545.png" width="64" height="64" /><image x="128" y="128" href="169357/281506.png" width="64" height="64" /><image x="192" y="128" href="169357/281539.png" width="64" height="64" /><image x="256" y="128" href="169357/281538.png" width="64" height="64" /><image x="320" y="128" href="169357/281543.png" width="64" height="64" /><image x="384" y="128" href="169357/281529.png" width="64" height="64" /><image x="0" y="192" href="169357/281522.png" width="64" height="64" /><image x="64" y="192" href="169357/281532.png" width="64" height="64" /><image x="128" y="192" href="169357/281530.png" width="64" height="64" /><image x="192" y="192" href="169357/281503.png" width="64" height="64" /><image x="256" y="192" href="169357/281510.png" width="64" height="64" /><image x="320" y="192" href="169357/281511.png" width="64" height="64" /><image x="384" y="192" href="169357/281551.png" width="64" height="64" /><image x="0" y="256" href="169357/281552.png" width="64" height="64" /><image x="64" y="256" href="169357/281571.png" width="64" height="64" /><image x="128" y="256" href="169357/281549.png" width="64" height="64" /><image x="192" y="256" href="169357/281608.png" width="64" height="64" /><image x="256" y="256" href="169357/281605.png" width="64" height="64" /><image x="320" y="256" href="169357/281572.png" width="64" height="64" /><image x="384" y="256" href="169357/281588.png" width="64" height="64" /><image x="0" y="320" href="169357/281607.png" width="64" height="64" /><image x="64" y="320" href="169357/281597.png" width="64" height="64" /><image x="128" y="320" href="169357/281602.png" width="64" height="64" /><image x="192" y="320" href="169357/281591.png" width="64" height="64" /><image x="256" y="320" href="169357/281567.png" width="64" height="64" /><image x="320" y="320" href="169357/281569.png" width="64" height="64" /><image x="384" y="320" href="169357/281573.png" width="64" height="64" /><image x="0" y="384" href="169357/295898.png" width="64" height="64" /></svg>