<?xml version="1.0" encoding="UTF-8"?>
<svg xmlns="http://www.w3.org/2000/svg" version="1.1" height="576" width="576"><rect x="0" y="0" width="576" height="576" fill="rgb(192,192,192)" /><image x="0" y="0" href="174750/288146.png" width="64" height="64" /><image x="64" y="0" href="174750/288147.png" width="64" height="64" /><image x="128" y="0" href="174750/288148.png" width="64" height="64" /><image x="192" y="0" href="174750/288150.png" width="64" height="64" /><image x="256" y="0" href="174750/288151.png" width="64" height="64" /><image x="320" y="0" href="174750/288153.png" width="64" height="64" /><image x="384" y="0" href="174750/288154.png" width="64" height="64" /><image x="448" y="0" href="174750/288155.png" width="64" height="64" /><image x="512" y="0" href="174750/288158.png" width="64" height="64" /><image x="0" y="64" href="174750/288159.png" width="64" height="64" /><image x="64" y="64" href="174750/288160.png" width="64" height="64" /><image x="128" y="64" href="174750/288161.png" width="64" height="64" /><image x="192" y="64" href="174750/288162.png" width="64" height="64" /><image x="256" y="64" href="174750/288163.png" width="64" height="64" /><image x="320" y="64" href="174750/288164.png" width="64" height="64" /><image x="384" y="64" href="174750/288165.png" width="64" height="64" /><image x="448" y="64" href="174750/288166.png" width="64" height="64" /><image x="512" y="64" href="174750/288327.png" width="64" height="64" /><image x="0" y="128" href="174750/288340.png" width="64" height="64" /><image x="64" y="128" href="174750/288345.png" width="64" height="64" /><image x="128" y="128" href="174750/288357.png" width="64" height="64" /><image x="192" y="128" href="174750/288367.png" width="64" height="64" /><image x="256" y="128" href="174750/288368.png" width="64" height="64" /><image x="320" y="128" href="174750/288370.png" width="64" height="64" /><image x="384" y="128" href="174750/288372.png" width="64" height="64" /><image x="448" y="128" href="174750/288373.png" width="64" height="64" /><image x="512" y="128" href="174750/288377.png" width="64" height="64" /><image x="0" y="192" href="174750/288378.png" width="64" height="64" /><image x="64" y="192" href="174750/288379.png" width="64" height="64" /><image x="128" y="192" href="174750/288390.png" width="64" height="64" /><image x="192" y="192" href="174750/288392.png" width="64" height="64" /><image x="256" y="192" href="174750/288399.png" width="64" height="64" /><image x="320" y="192" href="174750/288572.png" width="64" height="64" /><image x="384" y="192" href="174750/288573.png" width="64" height="64" /><image x="448" y="192" href="174750/288574.png" width="64" height="64" /><image x="512" y="192" href="174750/288575.png" width="64" height="64" /><image x="0" y="256" href="174750/288577.png" width="64" height="64" /><image x="64" y="256" href="174750/288579.png" width="64" height="64" /><image x="128" y="256" href="174750/288580.png" width="64" height="64" /><image x="192" y="256" href="174750/288581.png" width="64" height="64" /><image x="256" y="256" href="174750/288582.png" width="64" height="64" /><image x="320" y="256" href="174750/288583.png" width="64" height="64" /><image x="384" y="256" href="174750/288584.png" width="64" height="64" /><image x="448" y="256" href="174750/288670.png" width="64" height="64" /><image x="512" y="256" href="174750/288701.png" width="64" height="64" /><image x="0" y="320" href="174750/288702.png" width="64" height="64" /><image x="64" y="320" href="174750/288703.png" width="64" height="64" /><image x="128" y="320" href="174750/288704.png" width="64" height="64" /><image x="192" y="320" href="174750/288705.png" width="64" height="64" /><image x="256" y="320" href="174750/288706.png" width="64" height="64" /><image x="320" y="320" href="174750/288707.png" width="64" height="64" /><image x="384" y="320" href="174750/288708.png" width="64" height="64" /><image x="448" y="320" href="174750/288709.png" width="64" height="64" /><image x="512" y="320" href="174750/288710.png" width="64" height="64" /><image x="0" y="384" href="174750/288711.png" width="64" height="64" /><image x="64" y="384" href="174750/288712.png" width="64" height="64" /><image x="128" y="384" href="174750/288713.png" width="64" height="64" /><image x="192" y="384" href="174750/288714.png" width="64" height="64" /><image x="256" y="384" href="174750/288888.png" width="64" height="64" /><image x="320" y="384" href="174750/288891.png" width="64" height="64" /><image x="384" y="384" href="174750/288892.png" width="64" height="64" /><image x="448" y="384" href="174750/288893.png" width="64" height="64" /><image x="512" y="384" href="174750/288900.png" width="64" height="64" /><image x="0" y="448" href="174750/288904.png" width="64" height="64" /><image x="64" y="448" href="174750/288905.png" width="64" height="64" /><image x="128" y="448" href="174750/288906.png" width="64" height="64" /><image x="192" y="448" href="174750/288907.png" width="64" height="64" /><image x="256" y="448" href="174750/288913.png" width="64" height="64" /><image x="320" y="448" href="174750/289258.png" width="64" height="64" /><image x="384" y="448" href="174750/289278.png" width="64" height="64" /></svg>