<?xml version="1.0" encoding="UTF-8"?>
<svg xmlns="http://www.w3.org/2000/svg" version="1.1" height="576" width="576"><rect x="0" y="0" width="576" height="576" fill="rgb(192,192,192)" /><image x="0" y="0" href="175306/288898.png" width="64" height="64" /><image x="64" y="0" href="175306/288914.png" width="64" height="64" /><image x="128" y="0" href="175306/288894.png" width="64" height="64" /><image x="192" y="0" href="175306/289010.png" width="64" height="64" /><image x="256" y="0" href="175306/289011.png" width="64" height="64" /><image x="320" y="0" href="175306/289019.png" width="64" height="64" /><image x="384" y="0" href="175306/289017.png" width="64" height="64" /><image x="448" y="0" href="175306/289014.png" width="64" height="64" /><image x="512" y="0" href="175306/289018.png" width="64" height="64" /><image x="0" y="64" href="175306/289024.png" width="64" height="64" /><image x="64" y="64" href="175306/289009.png" width="64" height="64" /><image x="128" y="64" href="175306/289092.png" width="64" height="64" /><image x="192" y="64" href="175306/289148.png" width="64" height="64" /><image x="256" y="64" href="175306/289141.png" width="64" height="64" /><image x="320" y="64" href="175306/289126.png" width="64" height="64" /><image x="384" y="64" href="175306/289131.png" width="64" height="64" /><image x="448" y="64" href="175306/289091.png" width="64" height="64" /><image x="512" y="64" href="175306/289062.png" width="64" height="64" /><image x="0" y="128" href="175306/289088.png" width="64" height="64" /><image x="64" y="128" href="175306/289149.png" width="64" height="64" /><image x="128" y="128" href="175306/289150.png" width="64" height="64" /><image x="192" y="128" href="175306/289119.png" width="64" height="64" /><image x="256" y="128" href="175306/289073.png" width="64" height="64" /><image x="320" y="128" href="175306/289162.png" width="64" height="64" /><image x="384" y="128" href="175306/289074.png" width="64" height="64" /><image x="448" y="128" href="175306/289213.png" width="64" height="64" /><image x="512" y="128" href="175306/289093.png" width="64" height="64" /><image x="0" y="192" href="175306/289154.png" width="64" height="64" /><image x="64" y="192" href="175306/289170.png" width="64" height="64" /><image x="128" y="192" href="175306/289153.png" width="64" height="64" /><image x="192" y="192" href="175306/289259.png" width="64" height="64" /><image x="256" y="192" href="175306/289433.png" width="64" height="64" /><image x="320" y="192" href="175306/289432.png" width="64" height="64" /><image x="384" y="192" href="175306/289442.png" width="64" height="64" /><image x="448" y="192" href="175306/289486.png" width="64" height="64" /><image x="512" y="192" href="175306/289396.png" width="64" height="64" /><image x="0" y="256" href="175306/289379.png" width="64" height="64" /><image x="64" y="256" href="175306/289257.png" width="64" height="64" /><image x="128" y="256" href="175306/289276.png" width="64" height="64" /><image x="192" y="256" href="175306/289434.png" width="64" height="64" /><image x="256" y="256" href="175306/289574.png" width="64" height="64" /><image x="320" y="256" href="175306/289564.png" width="64" height="64" /><image x="384" y="256" href="175306/289549.png" width="64" height="64" /><image x="448" y="256" href="175306/289550.png" width="64" height="64" /><image x="512" y="256" href="175306/289503.png" width="64" height="64" /><image x="0" y="320" href="175306/289539.png" width="64" height="64" /><image x="64" y="320" href="175306/289541.png" width="64" height="64" /><image x="128" y="320" href="175306/289551.png" width="64" height="64" /><image x="192" y="320" href="175306/289557.png" width="64" height="64" /><image x="256" y="320" href="175306/289571.png" width="64" height="64" /><image x="320" y="320" href="175306/289509.png" width="64" height="64" /><image x="384" y="320" href="175306/289567.png" width="64" height="64" /><image x="448" y="320" href="175306/289542.png" width="64" height="64" /><image x="512" y="320" href="175306/289552.png" width="64" height="64" /><image x="0" y="384" href="175306/289524.png" width="64" height="64" /><image x="64" y="384" href="175306/289528.png" width="64" height="64" /><image x="128" y="384" href="175306/289543.png" width="64" height="64" /><image x="192" y="384" href="175306/289508.png" width="64" height="64" /><image x="256" y="384" href="175306/289560.png" width="64" height="64" /><image x="320" y="384" href="175306/289558.png" width="64" height="64" /><image x="384" y="384" href="175306/289553.png" width="64" height="64" /><image x="448" y="384" href="175306/289504.png" width="64" height="64" /><image x="512" y="384" href="175306/290172.png" width="64" height="64" /><image x="0" y="448" href="175306/290170.png" width="64" height="64" /><image x="64" y="448" href="175306/290165.png" width="64" height="64" /><image x="128" y="448" href="175306/290162.png" width="64" height="64" /><image x="192" y="448" href="175306/290164.png" width="64" height="64" /><image x="256" y="448" href="175306/290166.png" width="64" height="64" /><image x="320" y="448" href="175306/290167.png" width="64" height="64" /><image x="384" y="448" href="175306/290183.png" width="64" height="64" /></svg>