<?xml version="1.0" encoding="UTF-8"?>
<svg xmlns="http://www.w3.org/2000/svg" version="1.1" height="576" width="576"><rect x="0" y="0" width="576" height="576" fill="rgb(192,192,192)" /><image x="0" y="0" href="176213/290168.png" width="64" height="64" /><image x="64" y="0" href="176213/290180.png" width="64" height="64" /><image x="128" y="0" href="176213/290174.png" width="64" height="64" /><image x="192" y="0" href="176213/290175.png" width="64" height="64" /><image x="256" y="0" href="176213/290182.png" width="64" height="64" /><image x="320" y="0" href="176213/290184.png" width="64" height="64" /><image x="384" y="0" href="176213/290173.png" width="64" height="64" /><image x="448" y="0" href="176213/290161.png" width="64" height="64" /><image x="512" y="0" href="176213/290176.png" width="64" height="64" /><image x="0" y="64" href="176213/290181.png" width="64" height="64" /><image x="64" y="64" href="176213/290169.png" width="64" height="64" /><image x="128" y="64" href="176213/290178.png" width="64" height="64" /><image x="192" y="64" href="176213/290163.png" width="64" height="64" /><image x="256" y="64" href="176213/290489.png" width="64" height="64" /><image x="320" y="64" href="176213/290488.png" width="64" height="64" /><image x="384" y="64" href="176213/290490.png" width="64" height="64" /><image x="448" y="64" href="176213/290486.png" width="64" height="64" /><image x="512" y="64" href="176213/290485.png" width="64" height="64" /><image x="0" y="128" href="176213/290496.png" width="64" height="64" /><image x="64" y="128" href="176213/290958.png" width="64" height="64" /><image x="128" y="128" href="176213/290960.png" width="64" height="64" /><image x="192" y="128" href="176213/290951.png" width="64" height="64" /><image x="256" y="128" href="176213/291108.png" width="64" height="64" /><image x="320" y="128" href="176213/291101.png" width="64" height="64" /><image x="384" y="128" href="176213/291103.png" width="64" height="64" /><image x="448" y="128" href="176213/291104.png" width="64" height="64" /><image x="512" y="128" href="176213/291107.png" width="64" height="64" /><image x="0" y="192" href="176213/291115.png" width="64" height="64" /><image x="64" y="192" href="176213/291102.png" width="64" height="64" /><image x="128" y="192" href="176213/291123.png" width="64" height="64" /><image x="192" y="192" href="176213/291126.png" width="64" height="64" /><image x="256" y="192" href="176213/291140.png" width="64" height="64" /><image x="320" y="192" href="176213/291138.png" width="64" height="64" /><image x="384" y="192" href="176213/291133.png" width="64" height="64" /><image x="448" y="192" href="176213/291132.png" width="64" height="64" /><image x="512" y="192" href="176213/291141.png" width="64" height="64" /><image x="0" y="256" href="176213/291136.png" width="64" height="64" /><image x="64" y="256" href="176213/291135.png" width="64" height="64" /><image x="128" y="256" href="176213/291122.png" width="64" height="64" /><image x="192" y="256" href="176213/291137.png" width="64" height="64" /><image x="256" y="256" href="176213/291128.png" width="64" height="64" /><image x="320" y="256" href="176213/291119.png" width="64" height="64" /><image x="384" y="256" href="176213/291428.png" width="64" height="64" /><image x="448" y="256" href="176213/291546.png" width="64" height="64" /><image x="512" y="256" href="176213/291547.png" width="64" height="64" /><image x="0" y="320" href="176213/291548.png" width="64" height="64" /><image x="64" y="320" href="176213/291549.png" width="64" height="64" /><image x="128" y="320" href="176213/291550.png" width="64" height="64" /><image x="192" y="320" href="176213/291551.png" width="64" height="64" /><image x="256" y="320" href="176213/291552.png" width="64" height="64" /><image x="320" y="320" href="176213/291553.png" width="64" height="64" /><image x="384" y="320" href="176213/291554.png" width="64" height="64" /><image x="448" y="320" href="176213/291555.png" width="64" height="64" /><image x="512" y="320" href="176213/291556.png" width="64" height="64" /><image x="0" y="384" href="176213/291557.png" width="64" height="64" /><image x="64" y="384" href="176213/291560.png" width="64" height="64" /><image x="128" y="384" href="176213/291561.png" width="64" height="64" /><image x="192" y="384" href="176213/291562.png" width="64" height="64" /><image x="256" y="384" href="176213/291563.png" width="64" height="64" /><image x="320" y="384" href="176213/291564.png" width="64" height="64" /><image x="384" y="384" href="176213/291566.png" width="64" height="64" /><image x="448" y="384" href="176213/291568.png" width="64" height="64" /><image x="512" y="384" href="176213/291570.png" width="64" height="64" /><image x="0" y="448" href="176213/291571.png" width="64" height="64" /><image x="64" y="448" href="176213/291575.png" width="64" height="64" /><image x="128" y="448" href="176213/291576.png" width="64" height="64" /><image x="192" y="448" href="176213/291577.png" width="64" height="64" /><image x="256" y="448" href="176213/291578.png" width="64" height="64" /><image x="320" y="448" href="176213/291582.png" width="64" height="64" /><image x="384" y="448" href="176213/291585.png" width="64" height="64" /><image x="448" y="448" href="176213/291586.png" width="64" height="64" /><image x="512" y="448" href="176213/291587.png" width="64" height="64" /><image x="0" y="512" href="176213/291596.png" width="64" height="64" /><image x="64" y="512" href="176213/291597.png" width="64" height="64" /><image x="128" y="512" href="176213/291691.png" width="64" height="64" /></svg>