<?xml version="1.0" encoding="UTF-8"?>
<svg xmlns="http://www.w3.org/2000/svg" version="1.1" height="640" width="640"><rect x="0" y="0" width="640" height="640" fill="rgb(192,192,192)" /><image x="0" y="0" href="2087/18356.png" width="64" height="64" /><image x="64" y="0" href="2087/18375.png" width="64" height="64" /><image x="128" y="0" href="2087/18358.png" width="64" height="64" /><image x="192" y="0" href="2087/18408.png" width="64" height="64" /><image x="256" y="0" href="2087/18382.png" width="64" height="64" /><image x="320" y="0" href="2087/18393.png" width="64" height="64" /><image x="384" y="0" href="2087/18415.png" width="64" height="64" /><image x="448" y="0" href="2087/18452.png" width="64" height="64" /><image x="512" y="0" href="2087/18926.png" width="64" height="64" /><image x="576" y="0" href="2087/28031.png" width="64" height="64" /><image x="0" y="64" href="2087/18850.png" width="64" height="64" /><image x="64" y="64" href="2087/27999.png" width="64" height="64" /><image x="128" y="64" href="2087/45083.png" width="64" height="64" /><image x="192" y="64" href="2087/122711.png" width="64" height="64" /><image x="256" y="64" href="2087/123269.png" width="64" height="64" /><image x="320" y="64" href="2087/123331.png" width="64" height="64" /><image x="384" y="64" href="2087/123316.png" width="64" height="64" /><image x="448" y="64" href="2087/123329.png" width="64" height="64" /><image x="512" y="64" href="2087/122705.png" width="64" height="64" /><image x="576" y="64" href="2087/123330.png" width="64" height="64" /><image x="0" y="128" href="2087/123317.png" width="64" height="64" /><image x="64" y="128" href="2087/123322.png" width="64" height="64" /><image x="128" y="128" href="2087/123321.png" width="64" height="64" /><image x="192" y="128" href="2087/123323.png" width="64" height="64" /><image x="256" y="128" href="2087/123165.png" width="64" height="64" /><image x="320" y="128" href="2087/123166.png" width="64" height="64" /><image x="384" y="128" href="2087/122710.png" width="64" height="64" /><image x="448" y="128" href="2087/122685.png" width="64" height="64" /><image x="512" y="128" href="2087/122706.png" width="64" height="64" /><image x="576" y="128" href="2087/122707.png" width="64" height="64" /><image x="0" y="192" href="2087/122688.png" width="64" height="64" /><image x="64" y="192" href="2087/122709.png" width="64" height="64" /><image x="128" y="192" href="2087/122683.png" width="64" height="64" /><image x="192" y="192" href="2087/122682.png" width="64" height="64" /><image x="256" y="192" href="2087/122708.png" width="64" height="64" /><image x="320" y="192" href="2087/122704.png" width="64" height="64" /><image x="384" y="192" href="2087/122712.png" width="64" height="64" /><image x="448" y="192" href="2087/122713.png" width="64" height="64" /><image x="512" y="192" href="2087/122703.png" width="64" height="64" /><image x="576" y="192" href="2087/122834.png" width="64" height="64" /><image x="0" y="256" href="2087/122838.png" width="64" height="64" /><image x="64" y="256" href="2087/122839.png" width="64" height="64" /><image x="128" y="256" href="2087/122693.png" width="64" height="64" /><image x="192" y="256" href="2087/122855.png" width="64" height="64" /><image x="256" y="256" href="2087/122833.png" width="64" height="64" /><image x="320" y="256" href="2087/122694.png" width="64" height="64" /><image x="384" y="256" href="2087/188071.png" width="64" height="64" /><image x="448" y="256" href="2087/188069.png" width="64" height="64" /><image x="512" y="256" href="2087/187467.png" width="64" height="64" /><image x="576" y="256" href="2087/188077.png" width="64" height="64" /><image x="0" y="320" href="2087/123020.png" width="64" height="64" /><image x="64" y="320" href="2087/123022.png" width="64" height="64" /><image x="128" y="320" href="2087/122983.png" width="64" height="64" /><image x="192" y="320" href="2087/122961.png" width="64" height="64" /><image x="256" y="320" href="2087/123027.png" width="64" height="64" /><image x="320" y="320" href="2087/123168.png" width="64" height="64" /><image x="384" y="320" href="2087/123028.png" width="64" height="64" /><image x="448" y="320" href="2087/123025.png" width="64" height="64" /><image x="512" y="320" href="2087/123021.png" width="64" height="64" /><image x="576" y="320" href="2087/123167.png" width="64" height="64" /><image x="0" y="384" href="2087/123007.png" width="64" height="64" /><image x="64" y="384" href="2087/123008.png" width="64" height="64" /><image x="128" y="384" href="2087/122841.png" width="64" height="64" /><image x="192" y="384" href="2087/122842.png" width="64" height="64" /><image x="256" y="384" href="2087/122843.png" width="64" height="64" /><image x="320" y="384" href="2087/187455.png" width="64" height="64" /><image x="384" y="384" href="2087/122866.png" width="64" height="64" /><image x="448" y="384" href="2087/122844.png" width="64" height="64" /><image x="512" y="384" href="2087/187458.png" width="64" height="64" /><image x="576" y="384" href="2087/122865.png" width="64" height="64" /><image x="0" y="448" href="2087/122845.png" width="64" height="64" /><image x="64" y="448" href="2087/186069.png" width="64" height="64" /><image x="128" y="448" href="2087/122846.png" width="64" height="64" /><image x="192" y="448" href="2087/122857.png" width="64" height="64" /><image x="256" y="448" href="2087/123019.png" width="64" height="64" /><image x="320" y="448" href="2087/122997.png" width="64" height="64" /><image x="384" y="448" href="2087/122962.png" width="64" height="64" /><image x="448" y="448" href="2087/122840.png" width="64" height="64" /><image x="512" y="448" href="2087/122867.png" width="64" height="64" /><image x="576" y="448" href="2087/123026.png" width="64" height="64" /><image x="0" y="512" href="2087/220353.png" width="64" height="64" /><image x="64" y="512" href="2087/219900.png" width="64" height="64" /><image x="128" y="512" href="2087/220160.png" width="64" height="64" /><image x="192" y="512" href="2087/220591.png" width="64" height="64" /><image x="256" y="512" href="2087/220527.png" width="64" height="64" /><image x="320" y="512" href="2087/229677.png" width="64" height="64" /><image x="384" y="512" href="2087/219905.png" width="64" height="64" /><image x="448" y="512" href="2087/220994.png" width="64" height="64" /><image x="512" y="512" href="2087/229679.png" width="64" height="64" /><image x="576" y="512" href="2087/229684.png" width="64" height="64" /><image x="0" y="576" href="2087/229709.png" width="64" height="64" /></svg>