<?xml version="1.0" encoding="UTF-8"?>
<svg xmlns="http://www.w3.org/2000/svg" version="1.1" height="512" width="512"><rect x="0" y="0" width="512" height="512" fill="rgb(192,192,192)" /><image x="0" y="0" href="2197/112075.png" width="64" height="64" /><image x="64" y="0" href="2197/19469.png" width="64" height="64" /><image x="128" y="0" href="2197/19493.png" width="64" height="64" /><image x="192" y="0" href="2197/112051.png" width="64" height="64" /><image x="256" y="0" href="2197/112079.png" width="64" height="64" /><image x="320" y="0" href="2197/112076.png" width="64" height="64" /><image x="384" y="0" href="2197/19567.png" width="64" height="64" /><image x="448" y="0" href="2197/19531.png" width="64" height="64" /><image x="0" y="64" href="2197/112081.png" width="64" height="64" /><image x="64" y="64" href="2197/112080.png" width="64" height="64" /><image x="128" y="64" href="2197/112052.png" width="64" height="64" /><image x="192" y="64" href="2197/112920.png" width="64" height="64" /><image x="256" y="64" href="2197/112903.png" width="64" height="64" /><image x="320" y="64" href="2197/19481.png" width="64" height="64" /><image x="384" y="64" href="2197/112077.png" width="64" height="64" /><image x="448" y="64" href="2197/112466.png" width="64" height="64" /><image x="0" y="128" href="2197/19441.png" width="64" height="64" /><image x="64" y="128" href="2197/19528.png" width="64" height="64" /><image x="128" y="128" href="2197/112467.png" width="64" height="64" /><image x="192" y="128" href="2197/113714.png" width="64" height="64" /><image x="256" y="128" href="2197/113715.png" width="64" height="64" /><image x="320" y="128" href="2197/113716.png" width="64" height="64" /><image x="384" y="128" href="2197/113711.png" width="64" height="64" /><image x="448" y="128" href="2197/113709.png" width="64" height="64" /><image x="0" y="192" href="2197/19382.png" width="64" height="64" /><image x="64" y="192" href="2197/19375.png" width="64" height="64" /><image x="128" y="192" href="2197/112468.png" width="64" height="64" /><image x="192" y="192" href="2197/111683.png" width="64" height="64" /><image x="256" y="192" href="2197/19406.png" width="64" height="64" /><image x="320" y="192" href="2197/112788.png" width="64" height="64" /><image x="384" y="192" href="2197/113702.png" width="64" height="64" /><image x="448" y="192" href="2197/112469.png" width="64" height="64" /><image x="0" y="256" href="2197/19461.png" width="64" height="64" /><image x="64" y="256" href="2197/112050.png" width="64" height="64" /><image x="128" y="256" href="2197/19657.png" width="64" height="64" /><image x="192" y="256" href="2197/104358.png" width="64" height="64" /><image x="256" y="256" href="2197/19650.png" width="64" height="64" /><image x="320" y="256" href="2197/19638.png" width="64" height="64" /><image x="384" y="256" href="2197/19451.png" width="64" height="64" /><image x="448" y="256" href="2197/112470.png" width="64" height="64" /><image x="0" y="320" href="2197/19568.png" width="64" height="64" /><image x="64" y="320" href="2197/113707.png" width="64" height="64" /><image x="128" y="320" href="2197/113705.png" width="64" height="64" /><image x="192" y="320" href="2197/113706.png" width="64" height="64" /><image x="256" y="320" href="2197/113718.png" width="64" height="64" /><image x="320" y="320" href="2197/113725.png" width="64" height="64" /><image x="384" y="320" href="2197/113721.png" width="64" height="64" /><image x="448" y="320" href="2197/113722.png" width="64" height="64" /><image x="0" y="384" href="2197/163151.png" width="64" height="64" /><image x="64" y="384" href="2197/163117.png" width="64" height="64" /><image x="128" y="384" href="2197/163143.png" width="64" height="64" /><image x="192" y="384" href="2197/163148.png" width="64" height="64" /><image x="256" y="384" href="2197/112791.png" width="64" height="64" /></svg>