<?xml version="1.0" encoding="UTF-8"?>
<svg xmlns="http://www.w3.org/2000/svg" version="1.1" height="384" width="384"><rect x="0" y="0" width="384" height="384" fill="rgb(192,192,192)" /><image x="0" y="0" href="2198/96683.png" width="64" height="64" /><image x="64" y="0" href="2198/19388.png" width="64" height="64" /><image x="128" y="0" href="2198/19380.png" width="64" height="64" /><image x="192" y="0" href="2198/19459.png" width="64" height="64" /><image x="256" y="0" href="2198/19512.png" width="64" height="64" /><image x="320" y="0" href="2198/127062.png" width="64" height="64" /><image x="0" y="64" href="2198/19525.png" width="64" height="64" /><image x="64" y="64" href="2198/127063.png" width="64" height="64" /><image x="128" y="64" href="2198/20334.png" width="64" height="64" /><image x="192" y="64" href="2198/19540.png" width="64" height="64" /><image x="256" y="64" href="2198/19404.png" width="64" height="64" /><image x="320" y="64" href="2198/127083.png" width="64" height="64" /><image x="0" y="128" href="2198/19617.png" width="64" height="64" /><image x="64" y="128" href="2198/19463.png" width="64" height="64" /><image x="128" y="128" href="2198/19378.png" width="64" height="64" /><image x="192" y="128" href="2198/19379.png" width="64" height="64" /><image x="256" y="128" href="2198/19618.png" width="64" height="64" /><image x="320" y="128" href="2198/20341.png" width="64" height="64" /><image x="0" y="192" href="2198/19454.png" width="64" height="64" /><image x="64" y="192" href="2198/19399.png" width="64" height="64" /><image x="128" y="192" href="2198/19506.png" width="64" height="64" /><image x="192" y="192" href="2198/19619.png" width="64" height="64" /><image x="256" y="192" href="2198/19403.png" width="64" height="64" /><image x="320" y="192" href="2198/19484.png" width="64" height="64" /><image x="0" y="256" href="2198/19494.png" width="64" height="64" /><image x="64" y="256" href="2198/19376.png" width="64" height="64" /><image x="128" y="256" href="2198/19490.png" width="64" height="64" /><image x="192" y="256" href="2198/19389.png" width="64" height="64" /><image x="256" y="256" href="2198/19495.png" width="64" height="64" /><image x="320" y="256" href="2198/19587.png" width="64" height="64" /></svg>