<?xml version="1.0" encoding="UTF-8"?>
<svg xmlns="http://www.w3.org/2000/svg" version="1.1" height="512" width="512"><rect x="0" y="0" width="512" height="512" fill="rgb(192,192,192)" /><image x="0" y="0" href="2202/19429.png" width="64" height="64" /><image x="64" y="0" href="2202/84546.png" width="64" height="64" /><image x="128" y="0" href="2202/19386.png" width="64" height="64" /><image x="192" y="0" href="2202/84547.png" width="64" height="64" /><image x="256" y="0" href="2202/19601.png" width="64" height="64" /><image x="320" y="0" href="2202/19530.png" width="64" height="64" /><image x="384" y="0" href="2202/88480.png" width="64" height="64" /><image x="448" y="0" href="2202/84548.png" width="64" height="64" /><image x="0" y="64" href="2202/19417.png" width="64" height="64" /><image x="64" y="64" href="2202/19408.png" width="64" height="64" /><image x="128" y="64" href="2202/19599.png" width="64" height="64" /><image x="192" y="64" href="2202/19573.png" width="64" height="64" /><image x="256" y="64" href="2202/19612.png" width="64" height="64" /><image x="320" y="64" href="2202/178653.png" width="64" height="64" /><image x="384" y="64" href="2202/125591.png" width="64" height="64" /><image x="448" y="64" href="2202/19591.png" width="64" height="64" /><image x="0" y="128" href="2202/84549.png" width="64" height="64" /><image x="64" y="128" href="2202/19623.png" width="64" height="64" /><image x="128" y="128" href="2202/20348.png" width="64" height="64" /><image x="192" y="128" href="2202/19529.png" width="64" height="64" /><image x="256" y="128" href="2202/19607.png" width="64" height="64" /><image x="320" y="128" href="2202/19475.png" width="64" height="64" /><image x="384" y="128" href="2202/85288.png" width="64" height="64" /><image x="448" y="128" href="2202/85291.png" width="64" height="64" /><image x="0" y="192" href="2202/85292.png" width="64" height="64" /><image x="64" y="192" href="2202/85287.png" width="64" height="64" /><image x="128" y="192" href="2202/19502.png" width="64" height="64" /><image x="192" y="192" href="2202/19426.png" width="64" height="64" /><image x="256" y="192" href="2202/19514.png" width="64" height="64" /><image x="320" y="192" href="2202/19532.png" width="64" height="64" /><image x="384" y="192" href="2202/19510.png" width="64" height="64" /><image x="448" y="192" href="2202/20336.png" width="64" height="64" /><image x="0" y="256" href="2202/85289.png" width="64" height="64" /><image x="64" y="256" href="2202/19387.png" width="64" height="64" /><image x="128" y="256" href="2202/19428.png" width="64" height="64" /><image x="192" y="256" href="2202/19586.png" width="64" height="64" /><image x="256" y="256" href="2202/19577.png" width="64" height="64" /><image x="320" y="256" href="2202/19367.png" width="64" height="64" /><image x="384" y="256" href="2202/19470.png" width="64" height="64" /><image x="448" y="256" href="2202/19503.png" width="64" height="64" /><image x="0" y="320" href="2202/19635.png" width="64" height="64" /><image x="64" y="320" href="2202/19653.png" width="64" height="64" /><image x="128" y="320" href="2202/19453.png" width="64" height="64" /><image x="192" y="320" href="2202/19424.png" width="64" height="64" /><image x="256" y="320" href="2202/19499.png" width="64" height="64" /><image x="320" y="320" href="2202/19634.png" width="64" height="64" /><image x="384" y="320" href="2202/20337.png" width="64" height="64" /><image x="448" y="320" href="2202/19472.png" width="64" height="64" /><image x="0" y="384" href="2202/19651.png" width="64" height="64" /><image x="64" y="384" href="2202/19452.png" width="64" height="64" /><image x="128" y="384" href="2202/19368.png" width="64" height="64" /><image x="192" y="384" href="2202/19468.png" width="64" height="64" /><image x="256" y="384" href="2202/19520.png" width="64" height="64" /><image x="320" y="384" href="2202/20338.png" width="64" height="64" /><image x="384" y="384" href="2202/19500.png" width="64" height="64" /><image x="448" y="384" href="2202/125484.png" width="64" height="64" /><image x="0" y="448" href="2202/125642.png" width="64" height="64" /></svg>