<?xml version="1.0" encoding="UTF-8"?>
<svg xmlns="http://www.w3.org/2000/svg" version="1.1" height="704" width="704"><rect x="0" y="0" width="704" height="704" fill="rgb(192,192,192)" /><image x="0" y="0" href="2359/79333.png" width="64" height="64" /><image x="64" y="0" href="2359/20197.png" width="64" height="64" /><image x="128" y="0" href="2359/20183.png" width="64" height="64" /><image x="192" y="0" href="2359/79408.png" width="64" height="64" /><image x="256" y="0" href="2359/79353.png" width="64" height="64" /><image x="320" y="0" href="2359/79349.png" width="64" height="64" /><image x="384" y="0" href="2359/20320.png" width="64" height="64" /><image x="448" y="0" href="2359/79332.png" width="64" height="64" /><image x="512" y="0" href="2359/20232.png" width="64" height="64" /><image x="576" y="0" href="2359/79350.png" width="64" height="64" /><image x="640" y="0" href="2359/20228.png" width="64" height="64" /><image x="0" y="64" href="2359/79289.png" width="64" height="64" /><image x="64" y="64" href="2359/20274.png" width="64" height="64" /><image x="128" y="64" href="2359/79351.png" width="64" height="64" /><image x="192" y="64" href="2359/20285.png" width="64" height="64" /><image x="256" y="64" href="2359/79406.png" width="64" height="64" /><image x="320" y="64" href="2359/20210.png" width="64" height="64" /><image x="384" y="64" href="2359/79281.png" width="64" height="64" /><image x="448" y="64" href="2359/20244.png" width="64" height="64" /><image x="512" y="64" href="2359/79388.png" width="64" height="64" /><image x="576" y="64" href="2359/20196.png" width="64" height="64" /><image x="640" y="64" href="2359/79278.png" width="64" height="64" /><image x="0" y="128" href="2359/20202.png" width="64" height="64" /><image x="64" y="128" href="2359/79282.png" width="64" height="64" /><image x="128" y="128" href="2359/26378.png" width="64" height="64" /><image x="192" y="128" href="2359/79435.png" width="64" height="64" /><image x="256" y="128" href="2359/19812.png" width="64" height="64" /><image x="320" y="128" href="2359/79379.png" width="64" height="64" /><image x="384" y="128" href="2359/20200.png" width="64" height="64" /><image x="448" y="128" href="2359/79392.png" width="64" height="64" /><image x="512" y="128" href="2359/20191.png" width="64" height="64" /><image x="576" y="128" href="2359/84871.png" width="64" height="64" /><image x="640" y="128" href="2359/20297.png" width="64" height="64" /><image x="0" y="192" href="2359/84800.png" width="64" height="64" /><image x="64" y="192" href="2359/20252.png" width="64" height="64" /><image x="128" y="192" href="2359/20250.png" width="64" height="64" /><image x="192" y="192" href="2359/20253.png" width="64" height="64" /><image x="256" y="192" href="2359/20277.png" width="64" height="64" /><image x="320" y="192" href="2359/84795.png" width="64" height="64" /><image x="384" y="192" href="2359/84930.png" width="64" height="64" /><image x="448" y="192" href="2359/84937.png" width="64" height="64" /><image x="512" y="192" href="2359/84925.png" width="64" height="64" /><image x="576" y="192" href="2359/84975.png" width="64" height="64" /><image x="640" y="192" href="2359/84923.png" width="64" height="64" /><image x="0" y="256" href="2359/84796.png" width="64" height="64" /><image x="64" y="256" href="2359/84981.png" width="64" height="64" /><image x="128" y="256" href="2359/84973.png" width="64" height="64" /><image x="192" y="256" href="2359/20184.png" width="64" height="64" /><image x="256" y="256" href="2359/84970.png" width="64" height="64" /><image x="320" y="256" href="2359/84934.png" width="64" height="64" /><image x="384" y="256" href="2359/84933.png" width="64" height="64" /><image x="448" y="256" href="2359/84966.png" width="64" height="64" /><image x="512" y="256" href="2359/84935.png" width="64" height="64" /><image x="576" y="256" href="2359/84976.png" width="64" height="64" /><image x="640" y="256" href="2359/84972.png" width="64" height="64" /><image x="0" y="320" href="2359/84964.png" width="64" height="64" /><image x="64" y="320" href="2359/20237.png" width="64" height="64" /><image x="128" y="320" href="2359/84928.png" width="64" height="64" /><image x="192" y="320" href="2359/84927.png" width="64" height="64" /><image x="256" y="320" href="2359/84917.png" width="64" height="64" /><image x="320" y="320" href="2359/84986.png" width="64" height="64" /><image x="384" y="320" href="2359/84691.png" width="64" height="64" /><image x="448" y="320" href="2359/84915.png" width="64" height="64" /><image x="512" y="320" href="2359/20329.png" width="64" height="64" /><image x="576" y="320" href="2359/84921.png" width="64" height="64" /><image x="640" y="320" href="2359/84920.png" width="64" height="64" /><image x="0" y="384" href="2359/84936.png" width="64" height="64" /><image x="64" y="384" href="2359/84932.png" width="64" height="64" /><image x="128" y="384" href="2359/84918.png" width="64" height="64" /><image x="192" y="384" href="2359/84977.png" width="64" height="64" /><image x="256" y="384" href="2359/84926.png" width="64" height="64" /><image x="320" y="384" href="2359/84938.png" width="64" height="64" /><image x="384" y="384" href="2359/84799.png" width="64" height="64" /><image x="448" y="384" href="2359/20205.png" width="64" height="64" /><image x="512" y="384" href="2359/20187.png" width="64" height="64" /><image x="576" y="384" href="2359/84830.png" width="64" height="64" /><image x="640" y="384" href="2359/84919.png" width="64" height="64" /><image x="0" y="448" href="2359/84913.png" width="64" height="64" /><image x="64" y="448" href="2359/84922.png" width="64" height="64" /><image x="128" y="448" href="2359/84929.png" width="64" height="64" /><image x="192" y="448" href="2359/20201.png" width="64" height="64" /><image x="256" y="448" href="2359/84985.png" width="64" height="64" /><image x="320" y="448" href="2359/84980.png" width="64" height="64" /><image x="384" y="448" href="2359/84924.png" width="64" height="64" /><image x="448" y="448" href="2359/84914.png" width="64" height="64" /><image x="512" y="448" href="2359/84974.png" width="64" height="64" /><image x="576" y="448" href="2359/84983.png" width="64" height="64" /><image x="640" y="448" href="2359/84912.png" width="64" height="64" /><image x="0" y="512" href="2359/20206.png" width="64" height="64" /><image x="64" y="512" href="2359/84794.png" width="64" height="64" /><image x="128" y="512" href="2359/84916.png" width="64" height="64" /><image x="192" y="512" href="2359/84931.png" width="64" height="64" /><image x="256" y="512" href="2359/84690.png" width="64" height="64" /><image x="320" y="512" href="2359/84689.png" width="64" height="64" /><image x="384" y="512" href="2359/84968.png" width="64" height="64" /><image x="448" y="512" href="2359/84955.png" width="64" height="64" /><image x="512" y="512" href="2359/84962.png" width="64" height="64" /><image x="576" y="512" href="2359/84747.png" width="64" height="64" /><image x="640" y="512" href="2359/20180.png" width="64" height="64" /><image x="0" y="576" href="2359/20198.png" width="64" height="64" /><image x="64" y="576" href="2359/84971.png" width="64" height="64" /><image x="128" y="576" href="2359/84969.png" width="64" height="64" /><image x="192" y="576" href="2359/84967.png" width="64" height="64" /><image x="256" y="576" href="2359/84965.png" width="64" height="64" /><image x="320" y="576" href="2359/84978.png" width="64" height="64" /><image x="384" y="576" href="2359/84984.png" width="64" height="64" /><image x="448" y="576" href="2359/84979.png" width="64" height="64" /><image x="512" y="576" href="2359/84953.png" width="64" height="64" /><image x="576" y="576" href="2359/84959.png" width="64" height="64" /><image x="640" y="576" href="2359/20245.png" width="64" height="64" /><image x="0" y="640" href="2359/20294.png" width="64" height="64" /><image x="64" y="640" href="2359/20314.png" width="64" height="64" /><image x="128" y="640" href="2359/20269.png" width="64" height="64" /></svg>