<?xml version="1.0" encoding="UTF-8"?>
<svg xmlns="http://www.w3.org/2000/svg" version="1.1" height="640" width="640"><rect x="0" y="0" width="640" height="640" fill="rgb(192,192,192)" /><image x="0" y="0" href="2510/19508.png" width="64" height="64" /><image x="64" y="0" href="2510/19593.png" width="64" height="64" /><image x="128" y="0" href="2510/19642.png" width="64" height="64" /><image x="192" y="0" href="2510/19516.png" width="64" height="64" /><image x="256" y="0" href="2510/19613.png" width="64" height="64" /><image x="320" y="0" href="2510/19610.png" width="64" height="64" /><image x="384" y="0" href="2510/19615.png" width="64" height="64" /><image x="448" y="0" href="2510/19608.png" width="64" height="64" /><image x="512" y="0" href="2510/54606.png" width="64" height="64" /><image x="576" y="0" href="2510/20220.png" width="64" height="64" /><image x="0" y="64" href="2510/20213.png" width="64" height="64" /><image x="64" y="64" href="2510/20247.png" width="64" height="64" /><image x="128" y="64" href="2510/20330.png" width="64" height="64" /><image x="192" y="64" href="2510/20238.png" width="64" height="64" /><image x="256" y="64" href="2510/20279.png" width="64" height="64" /><image x="320" y="64" href="2510/20262.png" width="64" height="64" /><image x="384" y="64" href="2510/20189.png" width="64" height="64" /><image x="448" y="64" href="2510/20207.png" width="64" height="64" /><image x="512" y="64" href="2510/20251.png" width="64" height="64" /><image x="576" y="64" href="2510/20240.png" width="64" height="64" /><image x="0" y="128" href="2510/20190.png" width="64" height="64" /><image x="64" y="128" href="2510/54667.png" width="64" height="64" /><image x="128" y="128" href="2510/54672.png" width="64" height="64" /><image x="192" y="128" href="2510/54668.png" width="64" height="64" /><image x="256" y="128" href="2510/54669.png" width="64" height="64" /><image x="320" y="128" href="2510/54812.png" width="64" height="64" /><image x="384" y="128" href="2510/54697.png" width="64" height="64" /><image x="448" y="128" href="2510/54695.png" width="64" height="64" /><image x="512" y="128" href="2510/81133.png" width="64" height="64" /><image x="576" y="128" href="2510/54698.png" width="64" height="64" /><image x="0" y="192" href="2510/259150.png" width="64" height="64" /><image x="64" y="192" href="2510/259151.png" width="64" height="64" /><image x="128" y="192" href="2510/54651.png" width="64" height="64" /><image x="192" y="192" href="2510/54655.png" width="64" height="64" /><image x="256" y="192" href="2510/54899.png" width="64" height="64" /><image x="320" y="192" href="2510/54654.png" width="64" height="64" /><image x="384" y="192" href="2510/81132.png" width="64" height="64" /><image x="448" y="192" href="2510/54666.png" width="64" height="64" /><image x="512" y="192" href="2510/54979.png" width="64" height="64" /><image x="576" y="192" href="2510/54777.png" width="64" height="64" /><image x="0" y="256" href="2510/54813.png" width="64" height="64" /><image x="64" y="256" href="2510/84616.png" width="64" height="64" /><image x="128" y="256" href="2510/54859.png" width="64" height="64" /><image x="192" y="256" href="2510/55154.png" width="64" height="64" /><image x="256" y="256" href="2510/54814.png" width="64" height="64" /><image x="320" y="256" href="2510/84949.png" width="64" height="64" /><image x="384" y="256" href="2510/54980.png" width="64" height="64" /><image x="448" y="256" href="2510/55015.png" width="64" height="64" /><image x="512" y="256" href="2510/54938.png" width="64" height="64" /><image x="576" y="256" href="2510/55043.png" width="64" height="64" /><image x="0" y="320" href="2510/55199.png" width="64" height="64" /><image x="64" y="320" href="2510/55083.png" width="64" height="64" /><image x="128" y="320" href="2510/54955.png" width="64" height="64" /><image x="192" y="320" href="2510/55068.png" width="64" height="64" /><image x="256" y="320" href="2510/55252.png" width="64" height="64" /><image x="320" y="320" href="2510/81298.png" width="64" height="64" /><image x="384" y="320" href="2510/54962.png" width="64" height="64" /><image x="448" y="320" href="2510/55215.png" width="64" height="64" /><image x="512" y="320" href="2510/55205.png" width="64" height="64" /><image x="576" y="320" href="2510/54778.png" width="64" height="64" /><image x="0" y="384" href="2510/55207.png" width="64" height="64" /><image x="64" y="384" href="2510/54866.png" width="64" height="64" /><image x="128" y="384" href="2510/54986.png" width="64" height="64" /><image x="192" y="384" href="2510/54981.png" width="64" height="64" /><image x="256" y="384" href="2510/54696.png" width="64" height="64" /><image x="320" y="384" href="2510/54663.png" width="64" height="64" /><image x="384" y="384" href="2510/84617.png" width="64" height="64" /><image x="448" y="384" href="2510/54815.png" width="64" height="64" /><image x="512" y="384" href="2510/54937.png" width="64" height="64" /><image x="576" y="384" href="2510/54710.png" width="64" height="64" /><image x="0" y="448" href="2510/54711.png" width="64" height="64" /><image x="64" y="448" href="2510/54712.png" width="64" height="64" /><image x="128" y="448" href="2510/89742.png" width="64" height="64" /><image x="192" y="448" href="2510/54855.png" width="64" height="64" /><image x="256" y="448" href="2510/54709.png" width="64" height="64" /><image x="320" y="448" href="2510/54810.png" width="64" height="64" /><image x="384" y="448" href="2510/54792.png" width="64" height="64" /><image x="448" y="448" href="2510/54765.png" width="64" height="64" /><image x="512" y="448" href="2510/55017.png" width="64" height="64" /><image x="576" y="448" href="2510/54775.png" width="64" height="64" /><image x="0" y="512" href="2510/54767.png" width="64" height="64" /><image x="64" y="512" href="2510/54793.png" width="64" height="64" /><image x="128" y="512" href="2510/54811.png" width="64" height="64" /><image x="192" y="512" href="2510/54854.png" width="64" height="64" /><image x="256" y="512" href="2510/95279.png" width="64" height="64" /><image x="320" y="512" href="2510/100258.png" width="64" height="64" /><image x="384" y="512" href="2510/95531.png" width="64" height="64" /><image x="448" y="512" href="2510/97365.png" width="64" height="64" /></svg>