<?xml version="1.0" encoding="UTF-8"?>
<svg xmlns="http://www.w3.org/2000/svg" version="1.1" height="320" width="320"><rect x="0" y="0" width="320" height="320" fill="rgb(192,192,192)" /><image x="0" y="0" href="2680/26140.png" width="64" height="64" /><image x="64" y="0" href="2680/21624.png" width="64" height="64" /><image x="128" y="0" href="2680/22978.png" width="64" height="64" /><image x="192" y="0" href="2680/26143.png" width="64" height="64" /><image x="256" y="0" href="2680/26141.png" width="64" height="64" /><image x="0" y="64" href="2680/21556.png" width="64" height="64" /><image x="64" y="64" href="2680/21557.png" width="64" height="64" /><image x="128" y="64" href="2680/21558.png" width="64" height="64" /><image x="192" y="64" href="2680/21356.png" width="64" height="64" /><image x="256" y="64" href="2680/21412.png" width="64" height="64" /><image x="0" y="128" href="2680/20827.png" width="64" height="64" /><image x="64" y="128" href="2680/21201.png" width="64" height="64" /><image x="128" y="128" href="2680/21200.png" width="64" height="64" /><image x="192" y="128" href="2680/20828.png" width="64" height="64" /><image x="256" y="128" href="2680/20511.png" width="64" height="64" /><image x="0" y="192" href="2680/21358.png" width="64" height="64" /><image x="64" y="192" href="2680/20513.png" width="64" height="64" /><image x="128" y="192" href="2680/109365.png" width="64" height="64" /><image x="192" y="192" href="2680/109442.png" width="64" height="64" /><image x="256" y="192" href="2680/109446.png" width="64" height="64" /><image x="0" y="256" href="2680/109510.png" width="64" height="64" /><image x="64" y="256" href="2680/109570.png" width="64" height="64" /><image x="128" y="256" href="2680/109445.png" width="64" height="64" /></svg>