<?xml version="1.0" encoding="UTF-8"?>
<svg xmlns="http://www.w3.org/2000/svg" version="1.1" height="256" width="256"><rect x="0" y="0" width="256" height="256" fill="rgb(192,192,192)" /><image x="0" y="0" href="3119/21172.png" width="64" height="64" /><image x="64" y="0" href="3119/21104.png" width="64" height="64" /><image x="128" y="0" href="3119/21173.png" width="64" height="64" /><image x="192" y="0" href="3119/28994.png" width="64" height="64" /><image x="0" y="64" href="3119/29714.png" width="64" height="64" /><image x="64" y="64" href="3119/25339.png" width="64" height="64" /><image x="128" y="64" href="3119/25389.png" width="64" height="64" /><image x="192" y="64" href="3119/25462.png" width="64" height="64" /><image x="0" y="128" href="3119/28548.png" width="64" height="64" /><image x="64" y="128" href="3119/28522.png" width="64" height="64" /><image x="128" y="128" href="3119/40802.png" width="64" height="64" /><image x="192" y="128" href="3119/50982.png" width="64" height="64" /><image x="0" y="192" href="3119/30443.png" width="64" height="64" /><image x="64" y="192" href="3119/30425.png" width="64" height="64" /></svg>