<?xml version="1.0" encoding="UTF-8"?>
<svg xmlns="http://www.w3.org/2000/svg" version="1.1" height="448" width="448"><rect x="0" y="0" width="448" height="448" fill="rgb(192,192,192)" /><image x="0" y="0" href="3882/24179.png" width="64" height="64" /><image x="64" y="0" href="3882/24182.png" width="64" height="64" /><image x="128" y="0" href="3882/22554.png" width="64" height="64" /><image x="192" y="0" href="3882/22555.png" width="64" height="64" /><image x="256" y="0" href="3882/22556.png" width="64" height="64" /><image x="320" y="0" href="3882/22632.png" width="64" height="64" /><image x="384" y="0" href="3882/22656.png" width="64" height="64" /><image x="0" y="64" href="3882/22660.png" width="64" height="64" /><image x="64" y="64" href="3882/22662.png" width="64" height="64" /><image x="128" y="64" href="3882/53816.png" width="64" height="64" /><image x="192" y="64" href="3882/22692.png" width="64" height="64" /><image x="256" y="64" href="3882/53699.png" width="64" height="64" /><image x="320" y="64" href="3882/24181.png" width="64" height="64" /><image x="384" y="64" href="3882/23228.png" width="64" height="64" /><image x="0" y="128" href="3882/21926.png" width="64" height="64" /><image x="64" y="128" href="3882/21973.png" width="64" height="64" /><image x="128" y="128" href="3882/21970.png" width="64" height="64" /><image x="192" y="128" href="3882/21989.png" width="64" height="64" /><image x="256" y="128" href="3882/22248.png" width="64" height="64" /><image x="320" y="128" href="3882/22250.png" width="64" height="64" /><image x="384" y="128" href="3882/22249.png" width="64" height="64" /><image x="0" y="192" href="3882/53817.png" width="64" height="64" /><image x="64" y="192" href="3882/21971.png" width="64" height="64" /><image x="128" y="192" href="3882/22360.png" width="64" height="64" /><image x="192" y="192" href="3882/105188.png" width="64" height="64" /><image x="256" y="192" href="3882/22361.png" width="64" height="64" /><image x="320" y="192" href="3882/24178.png" width="64" height="64" /><image x="384" y="192" href="3882/24180.png" width="64" height="64" /><image x="0" y="256" href="3882/22600.png" width="64" height="64" /><image x="64" y="256" href="3882/22362.png" width="64" height="64" /><image x="128" y="256" href="3882/53894.png" width="64" height="64" /><image x="192" y="256" href="3882/22599.png" width="64" height="64" /><image x="256" y="256" href="3882/105790.png" width="64" height="64" /><image x="320" y="256" href="3882/22601.png" width="64" height="64" /><image x="384" y="256" href="3882/22616.png" width="64" height="64" /><image x="0" y="320" href="3882/23229.png" width="64" height="64" /><image x="64" y="320" href="3882/22617.png" width="64" height="64" /><image x="128" y="320" href="3882/23084.png" width="64" height="64" /><image x="192" y="320" href="3882/182502.png" width="64" height="64" /><image x="256" y="320" href="3882/22933.png" width="64" height="64" /><image x="320" y="320" href="3882/22934.png" width="64" height="64" /><image x="384" y="320" href="3882/53891.png" width="64" height="64" /><image x="0" y="384" href="3882/22863.png" width="64" height="64" /><image x="64" y="384" href="3882/106287.png" width="64" height="64" /><image x="128" y="384" href="3882/22864.png" width="64" height="64" /></svg>