<?xml version="1.0" encoding="UTF-8"?>
<svg xmlns="http://www.w3.org/2000/svg" version="1.1" height="640" width="640"><rect x="0" y="0" width="640" height="640" fill="rgb(192,192,192)" /><image x="0" y="0" href="3943/87047.png" width="64" height="64" /><image x="64" y="0" href="3943/98588.png" width="64" height="64" /><image x="128" y="0" href="3943/98660.png" width="64" height="64" /><image x="192" y="0" href="3943/87083.png" width="64" height="64" /><image x="256" y="0" href="3943/87051.png" width="64" height="64" /><image x="320" y="0" href="3943/97652.png" width="64" height="64" /><image x="384" y="0" href="3943/98465.png" width="64" height="64" /><image x="448" y="0" href="3943/86991.png" width="64" height="64" /><image x="512" y="0" href="3943/86990.png" width="64" height="64" /><image x="576" y="0" href="3943/99189.png" width="64" height="64" /><image x="0" y="64" href="3943/22344.png" width="64" height="64" /><image x="64" y="64" href="3943/55159.png" width="64" height="64" /><image x="128" y="64" href="3943/86989.png" width="64" height="64" /><image x="192" y="64" href="3943/55160.png" width="64" height="64" /><image x="256" y="64" href="3943/87050.png" width="64" height="64" /><image x="320" y="64" href="3943/85251.png" width="64" height="64" /><image x="384" y="64" href="3943/87068.png" width="64" height="64" /><image x="448" y="64" href="3943/85194.png" width="64" height="64" /><image x="512" y="64" href="3943/87072.png" width="64" height="64" /><image x="576" y="64" href="3943/22314.png" width="64" height="64" /><image x="0" y="128" href="3943/87037.png" width="64" height="64" /><image x="64" y="128" href="3943/85250.png" width="64" height="64" /><image x="128" y="128" href="3943/86997.png" width="64" height="64" /><image x="192" y="128" href="3943/86392.png" width="64" height="64" /><image x="256" y="128" href="3943/54212.png" width="64" height="64" /><image x="320" y="128" href="3943/103002.png" width="64" height="64" /><image x="384" y="128" href="3943/22315.png" width="64" height="64" /><image x="448" y="128" href="3943/22408.png" width="64" height="64" /><image x="512" y="128" href="3943/22335.png" width="64" height="64" /><image x="576" y="128" href="3943/22445.png" width="64" height="64" /><image x="0" y="192" href="3943/22289.png" width="64" height="64" /><image x="64" y="192" href="3943/24051.png" width="64" height="64" /><image x="128" y="192" href="3943/22350.png" width="64" height="64" /><image x="192" y="192" href="3943/22488.png" width="64" height="64" /><image x="256" y="192" href="3943/54208.png" width="64" height="64" /><image x="320" y="192" href="3943/22479.png" width="64" height="64" /><image x="384" y="192" href="3943/22493.png" width="64" height="64" /><image x="448" y="192" href="3943/22485.png" width="64" height="64" /><image x="512" y="192" href="3943/22482.png" width="64" height="64" /><image x="576" y="192" href="3943/53420.png" width="64" height="64" /><image x="0" y="256" href="3943/53700.png" width="64" height="64" /><image x="64" y="256" href="3943/53421.png" width="64" height="64" /><image x="128" y="256" href="3943/53422.png" width="64" height="64" /><image x="192" y="256" href="3943/53701.png" width="64" height="64" /><image x="256" y="256" href="3943/53423.png" width="64" height="64" /><image x="320" y="256" href="3943/53702.png" width="64" height="64" /><image x="384" y="256" href="3943/84615.png" width="64" height="64" /><image x="448" y="256" href="3943/53858.png" width="64" height="64" /><image x="512" y="256" href="3943/53859.png" width="64" height="64" /><image x="576" y="256" href="3943/53424.png" width="64" height="64" /><image x="0" y="320" href="3943/53860.png" width="64" height="64" /><image x="64" y="320" href="3943/53425.png" width="64" height="64" /><image x="128" y="320" href="3943/53703.png" width="64" height="64" /><image x="192" y="320" href="3943/53704.png" width="64" height="64" /><image x="256" y="320" href="3943/53482.png" width="64" height="64" /><image x="320" y="320" href="3943/53705.png" width="64" height="64" /><image x="384" y="320" href="3943/63409.png" width="64" height="64" /><image x="448" y="320" href="3943/53706.png" width="64" height="64" /><image x="512" y="320" href="3943/63410.png" width="64" height="64" /><image x="576" y="320" href="3943/54291.png" width="64" height="64" /><image x="0" y="384" href="3943/63411.png" width="64" height="64" /><image x="64" y="384" href="3943/53707.png" width="64" height="64" /><image x="128" y="384" href="3943/63408.png" width="64" height="64" /><image x="192" y="384" href="3943/54415.png" width="64" height="64" /><image x="256" y="384" href="3943/63412.png" width="64" height="64" /><image x="320" y="384" href="3943/53708.png" width="64" height="64" /><image x="384" y="384" href="3943/53709.png" width="64" height="64" /><image x="448" y="384" href="3943/53710.png" width="64" height="64" /><image x="512" y="384" href="3943/53426.png" width="64" height="64" /><image x="576" y="384" href="3943/53711.png" width="64" height="64" /><image x="0" y="448" href="3943/53712.png" width="64" height="64" /><image x="64" y="448" href="3943/53713.png" width="64" height="64" /><image x="128" y="448" href="3943/126405.png" width="64" height="64" /><image x="192" y="448" href="3943/126260.png" width="64" height="64" /><image x="256" y="448" href="3943/126494.png" width="64" height="64" /><image x="320" y="448" href="3943/126256.png" width="64" height="64" /><image x="384" y="448" href="3943/126257.png" width="64" height="64" /><image x="448" y="448" href="3943/126261.png" width="64" height="64" /><image x="512" y="448" href="3943/126211.png" width="64" height="64" /><image x="576" y="448" href="3943/126486.png" width="64" height="64" /><image x="0" y="512" href="3943/126251.png" width="64" height="64" /><image x="64" y="512" href="3943/126513.png" width="64" height="64" /><image x="128" y="512" href="3943/126227.png" width="64" height="64" /><image x="192" y="512" href="3943/126495.png" width="64" height="64" /><image x="256" y="512" href="3943/126213.png" width="64" height="64" /><image x="320" y="512" href="3943/126212.png" width="64" height="64" /><image x="384" y="512" href="3943/126496.png" width="64" height="64" /><image x="448" y="512" href="3943/126505.png" width="64" height="64" /><image x="512" y="512" href="3943/126214.png" width="64" height="64" /><image x="576" y="512" href="3943/126252.png" width="64" height="64" /><image x="0" y="576" href="3943/126225.png" width="64" height="64" /><image x="64" y="576" href="3943/254199.png" width="64" height="64" /><image x="128" y="576" href="3943/254261.png" width="64" height="64" /><image x="192" y="576" href="3943/254322.png" width="64" height="64" /><image x="256" y="576" href="3943/253722.png" width="64" height="64" /><image x="320" y="576" href="3943/255264.png" width="64" height="64" /><image x="384" y="576" href="3943/254192.png" width="64" height="64" /><image x="448" y="576" href="3943/253837.png" width="64" height="64" /></svg>