<?xml version="1.0" encoding="UTF-8"?>
<svg xmlns="http://www.w3.org/2000/svg" version="1.1" height="320" width="320"><rect x="0" y="0" width="320" height="320" fill="rgb(192,192,192)" /><image x="0" y="0" href="39684/91510.png" width="64" height="64" /><image x="64" y="0" href="39684/89805.png" width="64" height="64" /><image x="128" y="0" href="39684/89360.png" width="64" height="64" /><image x="192" y="0" href="39684/89196.png" width="64" height="64" /><image x="256" y="0" href="39684/93370.png" width="64" height="64" /><image x="0" y="64" href="39684/89803.png" width="64" height="64" /><image x="64" y="64" href="39684/89194.png" width="64" height="64" /><image x="128" y="64" href="39684/89249.png" width="64" height="64" /><image x="192" y="64" href="39684/89114.png" width="64" height="64" /><image x="256" y="64" href="39684/89116.png" width="64" height="64" /><image x="0" y="128" href="39684/89069.png" width="64" height="64" /><image x="64" y="128" href="39684/90466.png" width="64" height="64" /><image x="128" y="128" href="39684/89435.png" width="64" height="64" /><image x="192" y="128" href="39684/89118.png" width="64" height="64" /><image x="256" y="128" href="39684/89362.png" width="64" height="64" /><image x="0" y="192" href="39684/91714.png" width="64" height="64" /><image x="64" y="192" href="39684/89079.png" width="64" height="64" /><image x="128" y="192" href="39684/92577.png" width="64" height="64" /><image x="192" y="192" href="39684/88244.png" width="64" height="64" /><image x="256" y="192" href="39684/97528.png" width="64" height="64" /><image x="0" y="256" href="39684/92578.png" width="64" height="64" /><image x="64" y="256" href="39684/97327.png" width="64" height="64" /><image x="128" y="256" href="39684/89068.png" width="64" height="64" /><image x="192" y="256" href="39684/89804.png" width="64" height="64" /></svg>