<?xml version="1.0" encoding="UTF-8"?>
<svg xmlns="http://www.w3.org/2000/svg" version="1.1" height="384" width="384"><rect x="0" y="0" width="384" height="384" fill="rgb(192,192,192)" /><image x="0" y="0" href="40214/89589.png" width="64" height="64" /><image x="64" y="0" href="40214/89584.png" width="64" height="64" /><image x="128" y="0" href="40214/89727.png" width="64" height="64" /><image x="192" y="0" href="40214/89743.png" width="64" height="64" /><image x="256" y="0" href="40214/89565.png" width="64" height="64" /><image x="320" y="0" href="40214/89750.png" width="64" height="64" /><image x="0" y="64" href="40214/89812.png" width="64" height="64" /><image x="64" y="64" href="40214/89706.png" width="64" height="64" /><image x="128" y="64" href="40214/89747.png" width="64" height="64" /><image x="192" y="64" href="40214/89768.png" width="64" height="64" /><image x="256" y="64" href="40214/89562.png" width="64" height="64" /><image x="320" y="64" href="40214/89811.png" width="64" height="64" /><image x="0" y="128" href="40214/89701.png" width="64" height="64" /><image x="64" y="128" href="40214/102858.png" width="64" height="64" /><image x="128" y="128" href="40214/89575.png" width="64" height="64" /><image x="192" y="128" href="40214/89560.png" width="64" height="64" /><image x="256" y="128" href="40214/89588.png" width="64" height="64" /><image x="320" y="128" href="40214/89573.png" width="64" height="64" /><image x="0" y="192" href="40214/89558.png" width="64" height="64" /><image x="64" y="192" href="40214/89815.png" width="64" height="64" /><image x="128" y="192" href="40214/89582.png" width="64" height="64" /><image x="192" y="192" href="40214/89816.png" width="64" height="64" /><image x="256" y="192" href="40214/89716.png" width="64" height="64" /><image x="320" y="192" href="40214/89571.png" width="64" height="64" /><image x="0" y="256" href="40214/89773.png" width="64" height="64" /><image x="64" y="256" href="40214/103982.png" width="64" height="64" /><image x="128" y="256" href="40214/103976.png" width="64" height="64" /><image x="192" y="256" href="40214/103983.png" width="64" height="64" /><image x="256" y="256" href="40214/103978.png" width="64" height="64" /><image x="320" y="256" href="40214/103977.png" width="64" height="64" /><image x="0" y="320" href="40214/103975.png" width="64" height="64" /><image x="64" y="320" href="40214/89557.png" width="64" height="64" /><image x="128" y="320" href="40214/89567.png" width="64" height="64" /></svg>