<?xml version="1.0" encoding="UTF-8"?>
<svg xmlns="http://www.w3.org/2000/svg" version="1.1" height="384" width="384"><rect x="0" y="0" width="384" height="384" fill="rgb(192,192,192)" /><image x="0" y="0" href="40896/91551.png" width="64" height="64" /><image x="64" y="0" href="40896/91366.png" width="64" height="64" /><image x="128" y="0" href="40896/91414.png" width="64" height="64" /><image x="192" y="0" href="40896/91280.png" width="64" height="64" /><image x="256" y="0" href="40896/91316.png" width="64" height="64" /><image x="320" y="0" href="40896/91156.png" width="64" height="64" /><image x="0" y="64" href="40896/91285.png" width="64" height="64" /><image x="64" y="64" href="40896/91140.png" width="64" height="64" /><image x="128" y="64" href="40896/91367.png" width="64" height="64" /><image x="192" y="64" href="40896/91184.png" width="64" height="64" /><image x="256" y="64" href="40896/91151.png" width="64" height="64" /><image x="320" y="64" href="40896/91150.png" width="64" height="64" /><image x="0" y="128" href="40896/91356.png" width="64" height="64" /><image x="64" y="128" href="40896/91175.png" width="64" height="64" /><image x="128" y="128" href="40896/91178.png" width="64" height="64" /><image x="192" y="128" href="40896/91153.png" width="64" height="64" /><image x="256" y="128" href="40896/91141.png" width="64" height="64" /><image x="320" y="128" href="40896/91353.png" width="64" height="64" /><image x="0" y="192" href="40896/91355.png" width="64" height="64" /><image x="64" y="192" href="40896/90943.png" width="64" height="64" /><image x="128" y="192" href="40896/91364.png" width="64" height="64" /><image x="192" y="192" href="40896/90644.png" width="64" height="64" /><image x="256" y="192" href="40896/91363.png" width="64" height="64" /><image x="320" y="192" href="40896/94473.png" width="64" height="64" /><image x="0" y="256" href="40896/94875.png" width="64" height="64" /><image x="64" y="256" href="40896/94445.png" width="64" height="64" /><image x="128" y="256" href="40896/94508.png" width="64" height="64" /><image x="192" y="256" href="40896/94446.png" width="64" height="64" /><image x="256" y="256" href="40896/94509.png" width="64" height="64" /><image x="320" y="256" href="40896/94486.png" width="64" height="64" /><image x="0" y="320" href="40896/94447.png" width="64" height="64" /></svg>