<?xml version="1.0" encoding="UTF-8"?>
<svg xmlns="http://www.w3.org/2000/svg" version="1.1" height="576" width="576"><rect x="0" y="0" width="576" height="576" fill="rgb(192,192,192)" /><image x="0" y="0" href="42204/95704.png" width="64" height="64" /><image x="64" y="0" href="42204/28712.png" width="64" height="64" /><image x="128" y="0" href="42204/28719.png" width="64" height="64" /><image x="192" y="0" href="42204/84901.png" width="64" height="64" /><image x="256" y="0" href="42204/28731.png" width="64" height="64" /><image x="320" y="0" href="42204/28714.png" width="64" height="64" /><image x="384" y="0" href="42204/101319.png" width="64" height="64" /><image x="448" y="0" href="42204/28718.png" width="64" height="64" /><image x="512" y="0" href="42204/26216.png" width="64" height="64" /><image x="0" y="64" href="42204/84721.png" width="64" height="64" /><image x="64" y="64" href="42204/28725.png" width="64" height="64" /><image x="128" y="64" href="42204/26093.png" width="64" height="64" /><image x="192" y="64" href="42204/79414.png" width="64" height="64" /><image x="256" y="64" href="42204/21789.png" width="64" height="64" /><image x="320" y="64" href="42204/29712.png" width="64" height="64" /><image x="384" y="64" href="42204/84728.png" width="64" height="64" /><image x="448" y="64" href="42204/26098.png" width="64" height="64" /><image x="512" y="64" href="42204/28519.png" width="64" height="64" /><image x="0" y="128" href="42204/84710.png" width="64" height="64" /><image x="64" y="128" href="42204/26083.png" width="64" height="64" /><image x="128" y="128" href="42204/28723.png" width="64" height="64" /><image x="192" y="128" href="42204/84714.png" width="64" height="64" /><image x="256" y="128" href="42204/84882.png" width="64" height="64" /><image x="320" y="128" href="42204/28514.png" width="64" height="64" /><image x="384" y="128" href="42204/28520.png" width="64" height="64" /><image x="448" y="128" href="42204/21783.png" width="64" height="64" /><image x="512" y="128" href="42204/84869.png" width="64" height="64" /><image x="0" y="192" href="42204/21773.png" width="64" height="64" /><image x="64" y="192" href="42204/28515.png" width="64" height="64" /><image x="128" y="192" href="42204/84877.png" width="64" height="64" /><image x="192" y="192" href="42204/101671.png" width="64" height="64" /><image x="256" y="192" href="42204/26094.png" width="64" height="64" /><image x="320" y="192" href="42204/28544.png" width="64" height="64" /><image x="384" y="192" href="42204/84720.png" width="64" height="64" /><image x="448" y="192" href="42204/23251.png" width="64" height="64" /><image x="512" y="192" href="42204/29724.png" width="64" height="64" /><image x="0" y="256" href="42204/84868.png" width="64" height="64" /><image x="64" y="256" href="42204/26087.png" width="64" height="64" /><image x="128" y="256" href="42204/28639.png" width="64" height="64" /><image x="192" y="256" href="42204/84716.png" width="64" height="64" /><image x="256" y="256" href="42204/29711.png" width="64" height="64" /><image x="320" y="256" href="42204/21784.png" width="64" height="64" /><image x="384" y="256" href="42204/84748.png" width="64" height="64" /><image x="448" y="256" href="42204/26077.png" width="64" height="64" /><image x="512" y="256" href="42204/29718.png" width="64" height="64" /><image x="0" y="320" href="42204/84888.png" width="64" height="64" /><image x="64" y="320" href="42204/28962.png" width="64" height="64" /><image x="128" y="320" href="42204/26085.png" width="64" height="64" /><image x="192" y="320" href="42204/79355.png" width="64" height="64" /><image x="256" y="320" href="42204/21772.png" width="64" height="64" /><image x="320" y="320" href="42204/28960.png" width="64" height="64" /><image x="384" y="320" href="42204/84752.png" width="64" height="64" /><image x="448" y="320" href="42204/28959.png" width="64" height="64" /><image x="512" y="320" href="42204/21778.png" width="64" height="64" /><image x="0" y="384" href="42204/84764.png" width="64" height="64" /><image x="64" y="384" href="42204/92465.png" width="64" height="64" /><image x="128" y="384" href="42204/26097.png" width="64" height="64" /><image x="192" y="384" href="42204/79312.png" width="64" height="64" /><image x="256" y="384" href="42204/101324.png" width="64" height="64" /><image x="320" y="384" href="42204/101326.png" width="64" height="64" /><image x="384" y="384" href="42204/101148.png" width="64" height="64" /><image x="448" y="384" href="42204/101476.png" width="64" height="64" /><image x="512" y="384" href="42204/106705.png" width="64" height="64" /><image x="0" y="448" href="42204/103040.png" width="64" height="64" /><image x="64" y="448" href="42204/101668.png" width="64" height="64" /><image x="128" y="448" href="42204/101669.png" width="64" height="64" /></svg>