<?xml version="1.0" encoding="UTF-8"?>
<svg xmlns="http://www.w3.org/2000/svg" version="1.1" height="512" width="512"><rect x="0" y="0" width="512" height="512" fill="rgb(192,192,192)" /><image x="0" y="0" href="42254/20481.png" width="64" height="64" /><image x="64" y="0" href="42254/20405.png" width="64" height="64" /><image x="128" y="0" href="42254/30676.png" width="64" height="64" /><image x="192" y="0" href="42254/20474.png" width="64" height="64" /><image x="256" y="0" href="42254/20370.png" width="64" height="64" /><image x="320" y="0" href="42254/30755.png" width="64" height="64" /><image x="384" y="0" href="42254/20398.png" width="64" height="64" /><image x="448" y="0" href="42254/20435.png" width="64" height="64" /><image x="0" y="64" href="42254/20465.png" width="64" height="64" /><image x="64" y="64" href="42254/20473.png" width="64" height="64" /><image x="128" y="64" href="42254/20482.png" width="64" height="64" /><image x="192" y="64" href="42254/20444.png" width="64" height="64" /><image x="256" y="64" href="42254/20462.png" width="64" height="64" /><image x="320" y="64" href="42254/20373.png" width="64" height="64" /><image x="384" y="64" href="42254/20413.png" width="64" height="64" /><image x="448" y="64" href="42254/20453.png" width="64" height="64" /><image x="0" y="128" href="42254/20386.png" width="64" height="64" /><image x="64" y="128" href="42254/20485.png" width="64" height="64" /><image x="128" y="128" href="42254/30754.png" width="64" height="64" /><image x="192" y="128" href="42254/20385.png" width="64" height="64" /><image x="256" y="128" href="42254/30753.png" width="64" height="64" /><image x="320" y="128" href="42254/20490.png" width="64" height="64" /><image x="384" y="128" href="42254/20353.png" width="64" height="64" /><image x="448" y="128" href="42254/20417.png" width="64" height="64" /><image x="0" y="192" href="42254/30745.png" width="64" height="64" /><image x="64" y="192" href="42254/20489.png" width="64" height="64" /><image x="128" y="192" href="42254/20403.png" width="64" height="64" /><image x="192" y="192" href="42254/20468.png" width="64" height="64" /><image x="256" y="192" href="42254/20470.png" width="64" height="64" /><image x="320" y="192" href="42254/20352.png" width="64" height="64" /><image x="384" y="192" href="42254/20354.png" width="64" height="64" /><image x="448" y="192" href="42254/30744.png" width="64" height="64" /><image x="0" y="256" href="42254/20409.png" width="64" height="64" /><image x="64" y="256" href="42254/20467.png" width="64" height="64" /><image x="128" y="256" href="42254/20436.png" width="64" height="64" /><image x="192" y="256" href="42254/30743.png" width="64" height="64" /><image x="256" y="256" href="42254/53035.png" width="64" height="64" /><image x="320" y="256" href="42254/20441.png" width="64" height="64" /><image x="384" y="256" href="42254/88145.png" width="64" height="64" /><image x="448" y="256" href="42254/53036.png" width="64" height="64" /><image x="0" y="320" href="42254/88152.png" width="64" height="64" /><image x="64" y="320" href="42254/20437.png" width="64" height="64" /><image x="128" y="320" href="42254/19658.png" width="64" height="64" /><image x="192" y="320" href="42254/88144.png" width="64" height="64" /><image x="256" y="320" href="42254/25995.png" width="64" height="64" /><image x="320" y="320" href="42254/88150.png" width="64" height="64" /><image x="384" y="320" href="42254/20466.png" width="64" height="64" /><image x="448" y="320" href="42254/20414.png" width="64" height="64" /><image x="0" y="384" href="42254/20429.png" width="64" height="64" /><image x="64" y="384" href="42254/20421.png" width="64" height="64" /><image x="128" y="384" href="42254/20361.png" width="64" height="64" /><image x="192" y="384" href="42254/20406.png" width="64" height="64" /><image x="256" y="384" href="42254/20380.png" width="64" height="64" /></svg>