<?xml version="1.0" encoding="UTF-8"?>
<svg xmlns="http://www.w3.org/2000/svg" version="1.1" height="960" width="960"><rect x="0" y="0" width="960" height="960" fill="rgb(192,192,192)" /><image x="0" y="0" href="42255/20408.png" width="64" height="64" /><image x="64" y="0" href="42255/48527.png" width="64" height="64" /><image x="128" y="0" href="42255/20420.png" width="64" height="64" /><image x="192" y="0" href="42255/20356.png" width="64" height="64" /><image x="256" y="0" href="42255/20381.png" width="64" height="64" /><image x="320" y="0" href="42255/20396.png" width="64" height="64" /><image x="384" y="0" href="42255/20366.png" width="64" height="64" /><image x="448" y="0" href="42255/88143.png" width="64" height="64" /><image x="512" y="0" href="42255/88146.png" width="64" height="64" /><image x="576" y="0" href="42255/20355.png" width="64" height="64" /><image x="640" y="0" href="42255/25970.png" width="64" height="64" /><image x="704" y="0" href="42255/25967.png" width="64" height="64" /><image x="768" y="0" href="42255/20422.png" width="64" height="64" /><image x="832" y="0" href="42255/20475.png" width="64" height="64" /><image x="896" y="0" href="42255/249356.png" width="64" height="64" /><image x="0" y="64" href="42255/25997.png" width="64" height="64" /><image x="64" y="64" href="42255/25987.png" width="64" height="64" /><image x="128" y="64" href="42255/25988.png" width="64" height="64" /><image x="192" y="64" href="42255/25990.png" width="64" height="64" /><image x="256" y="64" href="42255/25989.png" width="64" height="64" /><image x="320" y="64" href="42255/20423.png" width="64" height="64" /><image x="384" y="64" href="42255/20379.png" width="64" height="64" /><image x="448" y="64" href="42255/20460.png" width="64" height="64" /><image x="512" y="64" href="42255/20401.png" width="64" height="64" /><image x="576" y="64" href="42255/25966.png" width="64" height="64" /><image x="640" y="64" href="42255/20410.png" width="64" height="64" /><image x="704" y="64" href="42255/88142.png" width="64" height="64" /><image x="768" y="64" href="42255/21294.png" width="64" height="64" /><image x="832" y="64" href="42255/21051.png" width="64" height="64" /><image x="896" y="64" href="42255/25994.png" width="64" height="64" /><image x="0" y="128" href="42255/25991.png" width="64" height="64" /><image x="64" y="128" href="42255/25993.png" width="64" height="64" /><image x="128" y="128" href="42255/21239.png" width="64" height="64" /><image x="192" y="128" href="42255/20784.png" width="64" height="64" /><image x="256" y="128" href="42255/20390.png" width="64" height="64" /><image x="320" y="128" href="42255/20559.png" width="64" height="64" /><image x="384" y="128" href="42255/20746.png" width="64" height="64" /><image x="448" y="128" href="42255/21266.png" width="64" height="64" /><image x="512" y="128" href="42255/20733.png" width="64" height="64" /><image x="576" y="128" href="42255/20556.png" width="64" height="64" /><image x="640" y="128" href="42255/20978.png" width="64" height="64" /><image x="704" y="128" href="42255/21245.png" width="64" height="64" /><image x="768" y="128" href="42255/21025.png" width="64" height="64" /><image x="832" y="128" href="42255/30772.png" width="64" height="64" /><image x="896" y="128" href="42255/30791.png" width="64" height="64" /><image x="0" y="192" href="42255/20368.png" width="64" height="64" /><image x="64" y="192" href="42255/25983.png" width="64" height="64" /><image x="128" y="192" href="42255/20759.png" width="64" height="64" /><image x="192" y="192" href="42255/20854.png" width="64" height="64" /><image x="256" y="192" href="42255/137303.png" width="64" height="64" /><image x="320" y="192" href="42255/20806.png" width="64" height="64" /><image x="384" y="192" href="42255/15559.png" width="64" height="64" /><image x="448" y="192" href="42255/88149.png" width="64" height="64" /><image x="512" y="192" href="42255/15560.png" width="64" height="64" /><image x="576" y="192" href="42255/88153.png" width="64" height="64" /><image x="640" y="192" href="42255/20769.png" width="64" height="64" /><image x="704" y="192" href="42255/20942.png" width="64" height="64" /><image x="768" y="192" href="42255/21258.png" width="64" height="64" /><image x="832" y="192" href="42255/20765.png" width="64" height="64" /><image x="896" y="192" href="42255/20926.png" width="64" height="64" /><image x="0" y="256" href="42255/20952.png" width="64" height="64" /><image x="64" y="256" href="42255/21244.png" width="64" height="64" /><image x="128" y="256" href="42255/20557.png" width="64" height="64" /><image x="192" y="256" href="42255/20831.png" width="64" height="64" /><image x="256" y="256" href="42255/137266.png" width="64" height="64" /><image x="320" y="256" href="42255/20562.png" width="64" height="64" /><image x="384" y="256" href="42255/20921.png" width="64" height="64" /><image x="448" y="256" href="42255/20947.png" width="64" height="64" /><image x="512" y="256" href="42255/20850.png" width="64" height="64" /><image x="576" y="256" href="42255/88141.png" width="64" height="64" /><image x="640" y="256" href="42255/26383.png" width="64" height="64" /><image x="704" y="256" href="42255/20786.png" width="64" height="64" /><image x="768" y="256" href="42255/111637.png" width="64" height="64" /><image x="832" y="256" href="42255/111886.png" width="64" height="64" /><image x="896" y="256" href="42255/21064.png" width="64" height="64" /><image x="0" y="320" href="42255/20999.png" width="64" height="64" /><image x="64" y="320" href="42255/21260.png" width="64" height="64" /><image x="128" y="320" href="42255/21301.png" width="64" height="64" /><image x="192" y="320" href="42255/21010.png" width="64" height="64" /><image x="256" y="320" href="42255/20927.png" width="64" height="64" /><image x="320" y="320" href="42255/20932.png" width="64" height="64" /><image x="384" y="320" href="42255/20787.png" width="64" height="64" /><image x="448" y="320" href="42255/20764.png" width="64" height="64" /><image x="512" y="320" href="42255/21053.png" width="64" height="64" /><image x="576" y="320" href="42255/21061.png" width="64" height="64" /><image x="640" y="320" href="42255/21241.png" width="64" height="64" /><image x="704" y="320" href="42255/21005.png" width="64" height="64" /><image x="768" y="320" href="42255/20941.png" width="64" height="64" /><image x="832" y="320" href="42255/20849.png" width="64" height="64" /><image x="896" y="320" href="42255/21210.png" width="64" height="64" /><image x="0" y="384" href="42255/20750.png" width="64" height="64" /><image x="64" y="384" href="42255/21236.png" width="64" height="64" /><image x="128" y="384" href="42255/20974.png" width="64" height="64" /><image x="192" y="384" href="42255/20866.png" width="64" height="64" /><image x="256" y="384" href="42255/21017.png" width="64" height="64" /><image x="320" y="384" href="42255/21264.png" width="64" height="64" /><image x="384" y="384" href="42255/21079.png" width="64" height="64" /><image x="448" y="384" href="42255/20878.png" width="64" height="64" /><image x="512" y="384" href="42255/21296.png" width="64" height="64" /><image x="576" y="384" href="42255/21084.png" width="64" height="64" /><image x="640" y="384" href="42255/20980.png" width="64" height="64" /><image x="704" y="384" href="42255/20889.png" width="64" height="64" /><image x="768" y="384" href="42255/20740.png" width="64" height="64" /><image x="832" y="384" href="42255/21035.png" width="64" height="64" /><image x="896" y="384" href="42255/20960.png" width="64" height="64" /><image x="0" y="448" href="42255/21118.png" width="64" height="64" /><image x="64" y="448" href="42255/20940.png" width="64" height="64" /><image x="128" y="448" href="42255/21261.png" width="64" height="64" /><image x="192" y="448" href="42255/21071.png" width="64" height="64" /><image x="256" y="448" href="42255/20874.png" width="64" height="64" /><image x="320" y="448" href="42255/20968.png" width="64" height="64" /><image x="384" y="448" href="42255/21276.png" width="64" height="64" /><image x="448" y="448" href="42255/21278.png" width="64" height="64" /><image x="512" y="448" href="42255/20872.png" width="64" height="64" /><image x="576" y="448" href="42255/21029.png" width="64" height="64" /><image x="640" y="448" href="42255/20832.png" width="64" height="64" /><image x="704" y="448" href="42255/20981.png" width="64" height="64" /><image x="768" y="448" href="42255/21281.png" width="64" height="64" /><image x="832" y="448" href="42255/21277.png" width="64" height="64" /><image x="896" y="448" href="42255/21297.png" width="64" height="64" /><image x="0" y="512" href="42255/20934.png" width="64" height="64" /><image x="64" y="512" href="42255/21012.png" width="64" height="64" /><image x="128" y="512" href="42255/20761.png" width="64" height="64" /><image x="192" y="512" href="42255/21030.png" width="64" height="64" /><image x="256" y="512" href="42255/20995.png" width="64" height="64" /><image x="320" y="512" href="42255/20955.png" width="64" height="64" /><image x="384" y="512" href="42255/20742.png" width="64" height="64" /><image x="448" y="512" href="42255/20929.png" width="64" height="64" /><image x="512" y="512" href="42255/20975.png" width="64" height="64" /><image x="576" y="512" href="42255/20912.png" width="64" height="64" /><image x="640" y="512" href="42255/21083.png" width="64" height="64" /><image x="704" y="512" href="42255/20563.png" width="64" height="64" /><image x="768" y="512" href="42255/21047.png" width="64" height="64" /><image x="832" y="512" href="42255/21240.png" width="64" height="64" /><image x="896" y="512" href="42255/20561.png" width="64" height="64" /><image x="0" y="576" href="42255/20936.png" width="64" height="64" /><image x="64" y="576" href="42255/21308.png" width="64" height="64" /><image x="128" y="576" href="42255/21090.png" width="64" height="64" /><image x="192" y="576" href="42255/20979.png" width="64" height="64" /><image x="256" y="576" href="42255/20930.png" width="64" height="64" /><image x="320" y="576" href="42255/20741.png" width="64" height="64" /><image x="384" y="576" href="42255/21046.png" width="64" height="64" /><image x="448" y="576" href="42255/20877.png" width="64" height="64" /><image x="512" y="576" href="42255/21289.png" width="64" height="64" /><image x="576" y="576" href="42255/21049.png" width="64" height="64" /><image x="640" y="576" href="42255/20976.png" width="64" height="64" /><image x="704" y="576" href="42255/20729.png" width="64" height="64" /><image x="768" y="576" href="42255/20977.png" width="64" height="64" /><image x="832" y="576" href="42255/21299.png" width="64" height="64" /><image x="896" y="576" href="42255/20972.png" width="64" height="64" /><image x="0" y="640" href="42255/21305.png" width="64" height="64" /><image x="64" y="640" href="42255/21028.png" width="64" height="64" /><image x="128" y="640" href="42255/20963.png" width="64" height="64" /><image x="192" y="640" href="42255/21309.png" width="64" height="64" /><image x="256" y="640" href="42255/21298.png" width="64" height="64" /><image x="320" y="640" href="42255/20894.png" width="64" height="64" /><image x="384" y="640" href="42255/21098.png" width="64" height="64" /><image x="448" y="640" href="42255/20731.png" width="64" height="64" /><image x="512" y="640" href="42255/21286.png" width="64" height="64" /><image x="576" y="640" href="42255/20838.png" width="64" height="64" /><image x="640" y="640" href="42255/20959.png" width="64" height="64" /><image x="704" y="640" href="42255/20951.png" width="64" height="64" /><image x="768" y="640" href="42255/20987.png" width="64" height="64" /><image x="832" y="640" href="42255/20867.png" width="64" height="64" /><image x="896" y="640" href="42255/20766.png" width="64" height="64" /><image x="0" y="704" href="42255/20982.png" width="64" height="64" /><image x="64" y="704" href="42255/20855.png" width="64" height="64" /><image x="128" y="704" href="42255/21119.png" width="64" height="64" /><image x="192" y="704" href="42255/21044.png" width="64" height="64" /><image x="256" y="704" href="42255/20879.png" width="64" height="64" /><image x="320" y="704" href="42255/21284.png" width="64" height="64" /><image x="384" y="704" href="42255/21093.png" width="64" height="64" /><image x="448" y="704" href="42255/21121.png" width="64" height="64" /><image x="512" y="704" href="42255/21031.png" width="64" height="64" /><image x="576" y="704" href="42255/20821.png" width="64" height="64" /><image x="640" y="704" href="42255/21699.png" width="64" height="64" /><image x="704" y="704" href="42255/21701.png" width="64" height="64" /><image x="768" y="704" href="42255/21700.png" width="64" height="64" /><image x="832" y="704" href="42255/21702.png" width="64" height="64" /><image x="896" y="704" href="42255/20857.png" width="64" height="64" /><image x="0" y="768" href="42255/20961.png" width="64" height="64" /><image x="64" y="768" href="42255/20891.png" width="64" height="64" /><image x="128" y="768" href="42255/21015.png" width="64" height="64" /><image x="192" y="768" href="42255/20844.png" width="64" height="64" /><image x="256" y="768" href="42255/21081.png" width="64" height="64" /><image x="320" y="768" href="42255/21048.png" width="64" height="64" /><image x="384" y="768" href="42255/21036.png" width="64" height="64" /><image x="448" y="768" href="42255/20825.png" width="64" height="64" /><image x="512" y="768" href="42255/20935.png" width="64" height="64" /><image x="576" y="768" href="42255/20922.png" width="64" height="64" /><image x="640" y="768" href="42255/20890.png" width="64" height="64" /><image x="704" y="768" href="42255/20818.png" width="64" height="64" /><image x="768" y="768" href="42255/20953.png" width="64" height="64" /><image x="832" y="768" href="42255/20836.png" width="64" height="64" /><image x="896" y="768" href="42255/20861.png" width="64" height="64" /><image x="0" y="832" href="42255/21166.png" width="64" height="64" /><image x="64" y="832" href="42255/20791.png" width="64" height="64" /><image x="128" y="832" href="42255/21050.png" width="64" height="64" /><image x="192" y="832" href="42255/20859.png" width="64" height="64" /><image x="256" y="832" href="42255/21270.png" width="64" height="64" /><image x="320" y="832" href="42255/21027.png" width="64" height="64" /></svg>