<?xml version="1.0" encoding="UTF-8"?>
<svg xmlns="http://www.w3.org/2000/svg" version="1.1" height="1408" width="1408"><rect x="0" y="0" width="1408" height="1408" fill="rgb(192,192,192)" /><image x="0" y="0" href="42256/25057.png" width="64" height="64" /><image x="64" y="0" href="42256/21078.png" width="64" height="64" /><image x="128" y="0" href="42256/20885.png" width="64" height="64" /><image x="192" y="0" href="42256/25982.png" width="64" height="64" /><image x="256" y="0" href="42256/25980.png" width="64" height="64" /><image x="320" y="0" href="42256/25978.png" width="64" height="64" /><image x="384" y="0" href="42256/25979.png" width="64" height="64" /><image x="448" y="0" href="42256/21307.png" width="64" height="64" /><image x="512" y="0" href="42256/20730.png" width="64" height="64" /><image x="576" y="0" href="42256/25059.png" width="64" height="64" /><image x="640" y="0" href="42256/20950.png" width="64" height="64" /><image x="704" y="0" href="42256/20778.png" width="64" height="64" /><image x="768" y="0" href="42256/21054.png" width="64" height="64" /><image x="832" y="0" href="42256/20931.png" width="64" height="64" /><image x="896" y="0" href="42256/21243.png" width="64" height="64" /><image x="960" y="0" href="42256/21023.png" width="64" height="64" /><image x="1024" y="0" href="42256/20814.png" width="64" height="64" /><image x="1088" y="0" href="42256/20919.png" width="64" height="64" /><image x="1152" y="0" href="42256/20863.png" width="64" height="64" /><image x="1216" y="0" href="42256/25052.png" width="64" height="64" /><image x="1280" y="0" href="42256/21602.png" width="64" height="64" /><image x="1344" y="0" href="42256/24870.png" width="64" height="64" /><image x="0" y="64" href="42256/21615.png" width="64" height="64" /><image x="64" y="64" href="42256/21644.png" width="64" height="64" /><image x="128" y="64" href="42256/21567.png" width="64" height="64" /><image x="192" y="64" href="42256/21418.png" width="64" height="64" /><image x="256" y="64" href="42256/21663.png" width="64" height="64" /><image x="320" y="64" href="42256/21459.png" width="64" height="64" /><image x="384" y="64" href="42256/24866.png" width="64" height="64" /><image x="448" y="64" href="42256/20914.png" width="64" height="64" /><image x="512" y="64" href="42256/21231.png" width="64" height="64" /><image x="576" y="64" href="42256/20852.png" width="64" height="64" /><image x="640" y="64" href="42256/20848.png" width="64" height="64" /><image x="704" y="64" href="42256/16137.png" width="64" height="64" /><image x="768" y="64" href="42256/21116.png" width="64" height="64" /><image x="832" y="64" href="42256/20881.png" width="64" height="64" /><image x="896" y="64" href="42256/21250.png" width="64" height="64" /><image x="960" y="64" href="42256/21247.png" width="64" height="64" /><image x="1024" y="64" href="42256/20992.png" width="64" height="64" /><image x="1088" y="64" href="42256/21230.png" width="64" height="64" /><image x="1152" y="64" href="42256/21288.png" width="64" height="64" /><image x="1216" y="64" href="42256/21242.png" width="64" height="64" /><image x="1280" y="64" href="42256/21234.png" width="64" height="64" /><image x="1344" y="64" href="42256/20880.png" width="64" height="64" /><image x="0" y="128" href="42256/21315.png" width="64" height="64" /><image x="64" y="128" href="42256/21076.png" width="64" height="64" /><image x="128" y="128" href="42256/20846.png" width="64" height="64" /><image x="192" y="128" href="42256/20840.png" width="64" height="64" /><image x="256" y="128" href="42256/21022.png" width="64" height="64" /><image x="320" y="128" href="42256/21275.png" width="64" height="64" /><image x="384" y="128" href="42256/20908.png" width="64" height="64" /><image x="448" y="128" href="42256/21092.png" width="64" height="64" /><image x="512" y="128" href="42256/20804.png" width="64" height="64" /><image x="576" y="128" href="42256/21057.png" width="64" height="64" /><image x="640" y="128" href="42256/21304.png" width="64" height="64" /><image x="704" y="128" href="42256/21077.png" width="64" height="64" /><image x="768" y="128" href="42256/20805.png" width="64" height="64" /><image x="832" y="128" href="42256/21285.png" width="64" height="64" /><image x="896" y="128" href="42256/20957.png" width="64" height="64" /><image x="960" y="128" href="42256/21032.png" width="64" height="64" /><image x="1024" y="128" href="42256/20735.png" width="64" height="64" /><image x="1088" y="128" href="42256/21282.png" width="64" height="64" /><image x="1152" y="128" href="42256/20882.png" width="64" height="64" /><image x="1216" y="128" href="42256/20770.png" width="64" height="64" /><image x="1280" y="128" href="42256/24859.png" width="64" height="64" /><image x="1344" y="128" href="42256/21102.png" width="64" height="64" /><image x="0" y="192" href="42256/25061.png" width="64" height="64" /><image x="64" y="192" href="42256/25985.png" width="64" height="64" /><image x="128" y="192" href="42256/20564.png" width="64" height="64" /><image x="192" y="192" href="42256/21091.png" width="64" height="64" /><image x="256" y="192" href="42256/20768.png" width="64" height="64" /><image x="320" y="192" href="42256/21127.png" width="64" height="64" /><image x="384" y="192" href="42256/20771.png" width="64" height="64" /><image x="448" y="192" href="42256/20819.png" width="64" height="64" /><image x="512" y="192" href="42256/20792.png" width="64" height="64" /><image x="576" y="192" href="42256/21306.png" width="64" height="64" /><image x="640" y="192" href="42256/21026.png" width="64" height="64" /><image x="704" y="192" href="42256/20841.png" width="64" height="64" /><image x="768" y="192" href="42256/20767.png" width="64" height="64" /><image x="832" y="192" href="42256/20749.png" width="64" height="64" /><image x="896" y="192" href="42256/20788.png" width="64" height="64" /><image x="960" y="192" href="42256/20869.png" width="64" height="64" /><image x="1024" y="192" href="42256/20883.png" width="64" height="64" /><image x="1088" y="192" href="42256/21072.png" width="64" height="64" /><image x="1152" y="192" href="42256/21237.png" width="64" height="64" /><image x="1216" y="192" href="42256/20870.png" width="64" height="64" /><image x="1280" y="192" href="42256/20823.png" width="64" height="64" /><image x="1344" y="192" href="42256/20839.png" width="64" height="64" /><image x="0" y="256" href="42256/20817.png" width="64" height="64" /><image x="64" y="256" href="42256/21211.png" width="64" height="64" /><image x="128" y="256" href="42256/20973.png" width="64" height="64" /><image x="192" y="256" href="42256/20754.png" width="64" height="64" /><image x="256" y="256" href="42256/21262.png" width="64" height="64" /><image x="320" y="256" href="42256/20958.png" width="64" height="64" /><image x="384" y="256" href="42256/21238.png" width="64" height="64" /><image x="448" y="256" href="42256/21052.png" width="64" height="64" /><image x="512" y="256" href="42256/20956.png" width="64" height="64" /><image x="576" y="256" href="42256/21259.png" width="64" height="64" /><image x="640" y="256" href="42256/21008.png" width="64" height="64" /><image x="704" y="256" href="42256/20842.png" width="64" height="64" /><image x="768" y="256" href="42256/20782.png" width="64" height="64" /><image x="832" y="256" href="42256/20860.png" width="64" height="64" /><image x="896" y="256" href="42256/20913.png" width="64" height="64" /><image x="960" y="256" href="42256/21013.png" width="64" height="64" /><image x="1024" y="256" href="42256/20822.png" width="64" height="64" /><image x="1088" y="256" href="42256/20965.png" width="64" height="64" /><image x="1152" y="256" href="42256/20985.png" width="64" height="64" /><image x="1216" y="256" href="42256/21000.png" width="64" height="64" /><image x="1280" y="256" href="42256/21290.png" width="64" height="64" /><image x="1344" y="256" href="42256/21265.png" width="64" height="64" /><image x="0" y="320" href="42256/21055.png" width="64" height="64" /><image x="64" y="320" href="42256/20996.png" width="64" height="64" /><image x="128" y="320" href="42256/21303.png" width="64" height="64" /><image x="192" y="320" href="42256/20943.png" width="64" height="64" /><image x="256" y="320" href="42256/21227.png" width="64" height="64" /><image x="320" y="320" href="42256/21095.png" width="64" height="64" /><image x="384" y="320" href="42256/21037.png" width="64" height="64" /><image x="448" y="320" href="42256/21256.png" width="64" height="64" /><image x="512" y="320" href="42256/21145.png" width="64" height="64" /><image x="576" y="320" href="42256/20790.png" width="64" height="64" /><image x="640" y="320" href="42256/20902.png" width="64" height="64" /><image x="704" y="320" href="42256/21222.png" width="64" height="64" /><image x="768" y="320" href="42256/20909.png" width="64" height="64" /><image x="832" y="320" href="42256/20739.png" width="64" height="64" /><image x="896" y="320" href="42256/21038.png" width="64" height="64" /><image x="960" y="320" href="42256/21006.png" width="64" height="64" /><image x="1024" y="320" href="42256/30789.png" width="64" height="64" /><image x="1088" y="320" href="42256/20971.png" width="64" height="64" /><image x="1152" y="320" href="42256/20925.png" width="64" height="64" /><image x="1216" y="320" href="42256/21059.png" width="64" height="64" /><image x="1280" y="320" href="42256/20763.png" width="64" height="64" /><image x="1344" y="320" href="42256/21101.png" width="64" height="64" /><image x="0" y="384" href="42256/20939.png" width="64" height="64" /><image x="64" y="384" href="42256/20904.png" width="64" height="64" /><image x="128" y="384" href="42256/21202.png" width="64" height="64" /><image x="192" y="384" href="42256/21099.png" width="64" height="64" /><image x="256" y="384" href="42256/21007.png" width="64" height="64" /><image x="320" y="384" href="42256/20845.png" width="64" height="64" /><image x="384" y="384" href="42256/21235.png" width="64" height="64" /><image x="448" y="384" href="42256/21207.png" width="64" height="64" /><image x="512" y="384" href="42256/21287.png" width="64" height="64" /><image x="576" y="384" href="42256/20797.png" width="64" height="64" /><image x="640" y="384" href="42256/21120.png" width="64" height="64" /><image x="704" y="384" href="42256/21213.png" width="64" height="64" /><image x="768" y="384" href="42256/20911.png" width="64" height="64" /><image x="832" y="384" href="42256/26390.png" width="64" height="64" /><image x="896" y="384" href="42256/20734.png" width="64" height="64" /><image x="960" y="384" href="42256/21204.png" width="64" height="64" /><image x="1024" y="384" href="42256/20892.png" width="64" height="64" /><image x="1088" y="384" href="42256/21097.png" width="64" height="64" /><image x="1152" y="384" href="42256/20858.png" width="64" height="64" /><image x="1216" y="384" href="42256/20743.png" width="64" height="64" /><image x="1280" y="384" href="42256/20865.png" width="64" height="64" /><image x="1344" y="384" href="42256/21216.png" width="64" height="64" /><image x="0" y="448" href="42256/20989.png" width="64" height="64" /><image x="64" y="448" href="42256/21311.png" width="64" height="64" /><image x="128" y="448" href="42256/21310.png" width="64" height="64" /><image x="192" y="448" href="42256/21075.png" width="64" height="64" /><image x="256" y="448" href="42256/20837.png" width="64" height="64" /><image x="320" y="448" href="42256/21073.png" width="64" height="64" /><image x="384" y="448" href="42256/20888.png" width="64" height="64" /><image x="448" y="448" href="42256/20916.png" width="64" height="64" /><image x="512" y="448" href="42256/21034.png" width="64" height="64" /><image x="576" y="448" href="42256/21041.png" width="64" height="64" /><image x="640" y="448" href="42256/180274.png" width="64" height="64" /><image x="704" y="448" href="42256/21536.png" width="64" height="64" /><image x="768" y="448" href="42256/21464.png" width="64" height="64" /><image x="832" y="448" href="42256/20549.png" width="64" height="64" /><image x="896" y="448" href="42256/21514.png" width="64" height="64" /><image x="960" y="448" href="42256/24053.png" width="64" height="64" /><image x="1024" y="448" href="42256/21552.png" width="64" height="64" /><image x="1088" y="448" href="42256/21388.png" width="64" height="64" /><image x="1152" y="448" href="42256/21449.png" width="64" height="64" /><image x="1216" y="448" href="42256/21425.png" width="64" height="64" /><image x="1280" y="448" href="42256/21633.png" width="64" height="64" /><image x="1344" y="448" href="42256/20533.png" width="64" height="64" /><image x="0" y="512" href="42256/21182.png" width="64" height="64" /><image x="64" y="512" href="42256/21371.png" width="64" height="64" /><image x="128" y="512" href="42256/20548.png" width="64" height="64" /><image x="192" y="512" href="42256/21427.png" width="64" height="64" /><image x="256" y="512" href="42256/21634.png" width="64" height="64" /><image x="320" y="512" href="42256/25213.png" width="64" height="64" /><image x="384" y="512" href="42256/21588.png" width="64" height="64" /><image x="448" y="512" href="42256/21492.png" width="64" height="64" /><image x="512" y="512" href="42256/21618.png" width="64" height="64" /><image x="576" y="512" href="42256/30773.png" width="64" height="64" /><image x="640" y="512" href="42256/21563.png" width="64" height="64" /><image x="704" y="512" href="42256/21530.png" width="64" height="64" /><image x="768" y="512" href="42256/21362.png" width="64" height="64" /><image x="832" y="512" href="42256/20535.png" width="64" height="64" /><image x="896" y="512" href="42256/21450.png" width="64" height="64" /><image x="960" y="512" href="42256/21441.png" width="64" height="64" /><image x="1024" y="512" href="42256/96944.png" width="64" height="64" /><image x="1088" y="512" href="42256/21649.png" width="64" height="64" /><image x="1152" y="512" href="42256/21415.png" width="64" height="64" /><image x="1216" y="512" href="42256/21318.png" width="64" height="64" /><image x="1280" y="512" href="42256/21434.png" width="64" height="64" /><image x="1344" y="512" href="42256/20517.png" width="64" height="64" /><image x="0" y="576" href="42256/20529.png" width="64" height="64" /><image x="64" y="576" href="42256/89314.png" width="64" height="64" /><image x="128" y="576" href="42256/21370.png" width="64" height="64" /><image x="192" y="576" href="42256/21442.png" width="64" height="64" /><image x="256" y="576" href="42256/21457.png" width="64" height="64" /><image x="320" y="576" href="42256/21354.png" width="64" height="64" /><image x="384" y="576" href="42256/21502.png" width="64" height="64" /><image x="448" y="576" href="42256/21600.png" width="64" height="64" /><image x="512" y="576" href="42256/21456.png" width="64" height="64" /><image x="576" y="576" href="42256/21620.png" width="64" height="64" /><image x="640" y="576" href="42256/21410.png" width="64" height="64" /><image x="704" y="576" href="42256/21473.png" width="64" height="64" /><image x="768" y="576" href="42256/21647.png" width="64" height="64" /><image x="832" y="576" href="42256/21614.png" width="64" height="64" /><image x="896" y="576" href="42256/20923.png" width="64" height="64" /><image x="960" y="576" href="42256/24863.png" width="64" height="64" /><image x="1024" y="576" href="42256/29599.png" width="64" height="64" /><image x="1088" y="576" href="42256/20907.png" width="64" height="64" /><image x="1152" y="576" href="42256/20789.png" width="64" height="64" /><image x="1216" y="576" href="42256/21089.png" width="64" height="64" /><image x="1280" y="576" href="42256/20886.png" width="64" height="64" /><image x="1344" y="576" href="42256/21295.png" width="64" height="64" /><image x="0" y="640" href="42256/24438.png" width="64" height="64" /><image x="64" y="640" href="42256/20946.png" width="64" height="64" /><image x="128" y="640" href="42256/21228.png" width="64" height="64" /><image x="192" y="640" href="42256/20830.png" width="64" height="64" /><image x="256" y="640" href="42256/20809.png" width="64" height="64" /><image x="320" y="640" href="42256/20990.png" width="64" height="64" /><image x="384" y="640" href="42256/21313.png" width="64" height="64" /><image x="448" y="640" href="42256/20983.png" width="64" height="64" /><image x="512" y="640" href="42256/21248.png" width="64" height="64" /><image x="576" y="640" href="42256/20560.png" width="64" height="64" /><image x="640" y="640" href="42256/21217.png" width="64" height="64" /><image x="704" y="640" href="42256/20864.png" width="64" height="64" /><image x="768" y="640" href="42256/21246.png" width="64" height="64" /><image x="832" y="640" href="42256/20893.png" width="64" height="64" /><image x="896" y="640" href="42256/21283.png" width="64" height="64" /><image x="960" y="640" href="42256/20997.png" width="64" height="64" /><image x="1024" y="640" href="42256/21269.png" width="64" height="64" /><image x="1088" y="640" href="42256/21280.png" width="64" height="64" /><image x="1152" y="640" href="42256/20937.png" width="64" height="64" /><image x="1216" y="640" href="42256/20783.png" width="64" height="64" /><image x="1280" y="640" href="42256/21221.png" width="64" height="64" /><image x="1344" y="640" href="42256/21268.png" width="64" height="64" /><image x="0" y="704" href="42256/21040.png" width="64" height="64" /><image x="64" y="704" href="42256/20833.png" width="64" height="64" /><image x="128" y="704" href="42256/21314.png" width="64" height="64" /><image x="192" y="704" href="42256/21209.png" width="64" height="64" /><image x="256" y="704" href="42256/21110.png" width="64" height="64" /><image x="320" y="704" href="42256/20843.png" width="64" height="64" /><image x="384" y="704" href="42256/20920.png" width="64" height="64" /><image x="448" y="704" href="42256/20811.png" width="64" height="64" /><image x="512" y="704" href="42256/21018.png" width="64" height="64" /><image x="576" y="704" href="42256/20871.png" width="64" height="64" /><image x="640" y="704" href="42256/20847.png" width="64" height="64" /><image x="704" y="704" href="42256/21088.png" width="64" height="64" /><image x="768" y="704" href="42256/20924.png" width="64" height="64" /><image x="832" y="704" href="42256/20732.png" width="64" height="64" /><image x="896" y="704" href="42256/21224.png" width="64" height="64" /><image x="960" y="704" href="42256/21039.png" width="64" height="64" /><image x="1024" y="704" href="42256/20884.png" width="64" height="64" /><image x="1088" y="704" href="42256/124673.png" width="64" height="64" /><image x="1152" y="704" href="42256/21063.png" width="64" height="64" /><image x="1216" y="704" href="42256/21105.png" width="64" height="64" /><image x="1280" y="704" href="42256/20966.png" width="64" height="64" /><image x="1344" y="704" href="42256/20895.png" width="64" height="64" /><image x="0" y="768" href="42256/20798.png" width="64" height="64" /><image x="64" y="768" href="42256/21096.png" width="64" height="64" /><image x="128" y="768" href="42256/21087.png" width="64" height="64" /><image x="192" y="768" href="42256/20962.png" width="64" height="64" /><image x="256" y="768" href="42256/21056.png" width="64" height="64" /><image x="320" y="768" href="42256/21066.png" width="64" height="64" /><image x="384" y="768" href="42256/20760.png" width="64" height="64" /><image x="448" y="768" href="42256/21019.png" width="64" height="64" /><image x="512" y="768" href="42256/21058.png" width="64" height="64" /><image x="576" y="768" href="42256/20901.png" width="64" height="64" /><image x="640" y="768" href="42256/20745.png" width="64" height="64" /><image x="704" y="768" href="42256/21208.png" width="64" height="64" /><image x="768" y="768" href="42256/20862.png" width="64" height="64" /><image x="832" y="768" href="42256/21183.png" width="64" height="64" /><image x="896" y="768" href="42256/20744.png" width="64" height="64" /><image x="960" y="768" href="42256/20964.png" width="64" height="64" /><image x="1024" y="768" href="42256/20558.png" width="64" height="64" /><image x="1088" y="768" href="42256/20868.png" width="64" height="64" /><image x="1152" y="768" href="42256/20928.png" width="64" height="64" /><image x="1216" y="768" href="42256/25063.png" width="64" height="64" /><image x="1280" y="768" href="42256/21060.png" width="64" height="64" /><image x="1344" y="768" href="42256/20905.png" width="64" height="64" /><image x="0" y="832" href="42256/25080.png" width="64" height="64" /><image x="64" y="832" href="42256/21011.png" width="64" height="64" /><image x="128" y="832" href="42256/30775.png" width="64" height="64" /><image x="192" y="832" href="42256/20986.png" width="64" height="64" /><image x="256" y="832" href="42256/20779.png" width="64" height="64" /><image x="320" y="832" href="42256/20900.png" width="64" height="64" /><image x="384" y="832" href="42256/21045.png" width="64" height="64" /><image x="448" y="832" href="42256/20772.png" width="64" height="64" /><image x="512" y="832" href="42256/20752.png" width="64" height="64" /><image x="576" y="832" href="42256/21226.png" width="64" height="64" /><image x="640" y="832" href="42256/20915.png" width="64" height="64" /><image x="704" y="832" href="42256/21312.png" width="64" height="64" /><image x="768" y="832" href="42256/21042.png" width="64" height="64" /><image x="832" y="832" href="42256/20785.png" width="64" height="64" /><image x="896" y="832" href="42256/20903.png" width="64" height="64" /><image x="960" y="832" href="42256/20993.png" width="64" height="64" /><image x="1024" y="832" href="42256/20970.png" width="64" height="64" /><image x="1088" y="832" href="42256/21067.png" width="64" height="64" /><image x="1152" y="832" href="42256/21214.png" width="64" height="64" /><image x="1216" y="832" href="42256/20948.png" width="64" height="64" /><image x="1280" y="832" href="42256/21086.png" width="64" height="64" /><image x="1344" y="832" href="42256/20887.png" width="64" height="64" /><image x="0" y="896" href="42256/20807.png" width="64" height="64" /><image x="64" y="896" href="42256/20906.png" width="64" height="64" /><image x="128" y="896" href="42256/21203.png" width="64" height="64" /><image x="192" y="896" href="42256/20954.png" width="64" height="64" /><image x="256" y="896" href="42256/148136.png" width="64" height="64" /><image x="320" y="896" href="42256/21263.png" width="64" height="64" /><image x="384" y="896" href="42256/21074.png" width="64" height="64" /><image x="448" y="896" href="42256/23885.png" width="64" height="64" /><image x="512" y="896" href="42256/20748.png" width="64" height="64" /><image x="576" y="896" href="42256/21279.png" width="64" height="64" /><image x="640" y="896" href="42256/20984.png" width="64" height="64" /><image x="704" y="896" href="42256/20773.png" width="64" height="64" /><image x="768" y="896" href="42256/20945.png" width="64" height="64" /><image x="832" y="896" href="42256/21212.png" width="64" height="64" /><image x="896" y="896" href="42256/20751.png" width="64" height="64" /><image x="960" y="896" href="42256/20873.png" width="64" height="64" /><image x="1024" y="896" href="42256/21021.png" width="64" height="64" /><image x="1088" y="896" href="42256/30787.png" width="64" height="64" /><image x="1152" y="896" href="42256/21123.png" width="64" height="64" /><image x="1216" y="896" href="42256/20820.png" width="64" height="64" /><image x="1280" y="896" href="42256/25056.png" width="64" height="64" /><image x="1344" y="896" href="42256/25079.png" width="64" height="64" /><image x="0" y="960" href="42256/21107.png" width="64" height="64" /><image x="64" y="960" href="42256/21302.png" width="64" height="64" /><image x="128" y="960" href="42256/21033.png" width="64" height="64" /><image x="192" y="960" href="42256/21122.png" width="64" height="64" /><image x="256" y="960" href="42256/21300.png" width="64" height="64" /><image x="320" y="960" href="42256/20994.png" width="64" height="64" /><image x="384" y="960" href="42256/20815.png" width="64" height="64" /><image x="448" y="960" href="42256/21009.png" width="64" height="64" /><image x="512" y="960" href="42256/26384.png" width="64" height="64" /><image x="576" y="960" href="42256/21233.png" width="64" height="64" /><image x="640" y="960" href="42256/21251.png" width="64" height="64" /><image x="704" y="960" href="42256/20753.png" width="64" height="64" /><image x="768" y="960" href="42256/21232.png" width="64" height="64" /><image x="832" y="960" href="42256/21114.png" width="64" height="64" /><image x="896" y="960" href="42256/20853.png" width="64" height="64" /><image x="960" y="960" href="42256/21109.png" width="64" height="64" /><image x="1024" y="960" href="42256/21062.png" width="64" height="64" /><image x="1088" y="960" href="42256/24864.png" width="64" height="64" /><image x="1152" y="960" href="42256/25062.png" width="64" height="64" /><image x="1216" y="960" href="42256/20896.png" width="64" height="64" /><image x="1280" y="960" href="42256/21215.png" width="64" height="64" /><image x="1344" y="960" href="42256/20762.png" width="64" height="64" /><image x="0" y="1024" href="42256/21080.png" width="64" height="64" /><image x="64" y="1024" href="42256/20988.png" width="64" height="64" /><image x="128" y="1024" href="42256/21117.png" width="64" height="64" /><image x="192" y="1024" href="42256/26386.png" width="64" height="64" /><image x="256" y="1024" href="42256/21113.png" width="64" height="64" /><image x="320" y="1024" href="42256/21205.png" width="64" height="64" /><image x="384" y="1024" href="42256/20808.png" width="64" height="64" /><image x="448" y="1024" href="42256/20856.png" width="64" height="64" /><image x="512" y="1024" href="42256/21394.png" width="64" height="64" /><image x="576" y="1024" href="42256/21564.png" width="64" height="64" /><image x="640" y="1024" href="42256/21478.png" width="64" height="64" /><image x="704" y="1024" href="42256/21475.png" width="64" height="64" /><image x="768" y="1024" href="42256/21483.png" width="64" height="64" /><image x="832" y="1024" href="42256/20910.png" width="64" height="64" /><image x="896" y="1024" href="42256/21108.png" width="64" height="64" /><image x="960" y="1024" href="42256/20803.png" width="64" height="64" /><image x="1024" y="1024" href="42256/21065.png" width="64" height="64" /><image x="1088" y="1024" href="42256/20834.png" width="64" height="64" /><image x="1152" y="1024" href="42256/20810.png" width="64" height="64" /><image x="1216" y="1024" href="42256/20967.png" width="64" height="64" /><image x="1280" y="1024" href="42256/20998.png" width="64" height="64" /><image x="1344" y="1024" href="42256/20780.png" width="64" height="64" /><image x="0" y="1088" href="42256/20898.png" width="64" height="64" /><image x="64" y="1088" href="42256/25992.png" width="64" height="64" /><image x="128" y="1088" href="42256/20933.png" width="64" height="64" /><image x="192" y="1088" href="42256/21229.png" width="64" height="64" /><image x="256" y="1088" href="42256/20969.png" width="64" height="64" /><image x="320" y="1088" href="42256/20816.png" width="64" height="64" /><image x="384" y="1088" href="42256/21016.png" width="64" height="64" /><image x="448" y="1088" href="42256/20800.png" width="64" height="64" /><image x="512" y="1088" href="42256/20917.png" width="64" height="64" /><image x="576" y="1088" href="42256/20949.png" width="64" height="64" /><image x="640" y="1088" href="42256/21223.png" width="64" height="64" /><image x="704" y="1088" href="42256/21115.png" width="64" height="64" /><image x="768" y="1088" href="42256/20835.png" width="64" height="64" /><image x="832" y="1088" href="42256/21111.png" width="64" height="64" /><image x="896" y="1088" href="42256/21267.png" width="64" height="64" /><image x="960" y="1088" href="42256/21257.png" width="64" height="64" /><image x="1024" y="1088" href="42256/21014.png" width="64" height="64" /><image x="1088" y="1088" href="42256/20802.png" width="64" height="64" /><image x="1152" y="1088" href="42256/21094.png" width="64" height="64" /><image x="1216" y="1088" href="42256/21124.png" width="64" height="64" /><image x="1280" y="1088" href="42256/21112.png" width="64" height="64" /><image x="1344" y="1088" href="42256/21206.png" width="64" height="64" /><image x="0" y="1152" href="42256/89287.png" width="64" height="64" /><image x="64" y="1152" href="42256/49390.png" width="64" height="64" /><image x="128" y="1152" href="42256/21082.png" width="64" height="64" /><image x="192" y="1152" href="42256/21249.png" width="64" height="64" /><image x="256" y="1152" href="42256/20813.png" width="64" height="64" /><image x="320" y="1152" href="42256/20824.png" width="64" height="64" /><image x="384" y="1152" href="42256/21024.png" width="64" height="64" /><image x="448" y="1152" href="42256/21638.png" width="64" height="64" /><image x="512" y="1152" href="42256/21629.png" width="64" height="64" /><image x="576" y="1152" href="42256/20524.png" width="64" height="64" /><image x="640" y="1152" href="42256/21586.png" width="64" height="64" /><image x="704" y="1152" href="42256/21604.png" width="64" height="64" /><image x="768" y="1152" href="42256/21484.png" width="64" height="64" /><image x="832" y="1152" href="42256/21188.png" width="64" height="64" /><image x="896" y="1152" href="42256/21325.png" width="64" height="64" /><image x="960" y="1152" href="42256/21662.png" width="64" height="64" /><image x="1024" y="1152" href="42256/21439.png" width="64" height="64" /><image x="1088" y="1152" href="42256/21400.png" width="64" height="64" /><image x="1152" y="1152" href="42256/21617.png" width="64" height="64" /><image x="1216" y="1152" href="42256/21560.png" width="64" height="64" /><image x="1280" y="1152" href="42256/21419.png" width="64" height="64" /><image x="1344" y="1152" href="42256/21401.png" width="64" height="64" /><image x="0" y="1216" href="42256/21532.png" width="64" height="64" /><image x="64" y="1216" href="42256/21609.png" width="64" height="64" /><image x="128" y="1216" href="42256/25996.png" width="64" height="64" /><image x="192" y="1216" href="42256/25293.png" width="64" height="64" /><image x="256" y="1216" href="42256/21534.png" width="64" height="64" /><image x="320" y="1216" href="42256/21181.png" width="64" height="64" /><image x="384" y="1216" href="42256/21490.png" width="64" height="64" /><image x="448" y="1216" href="42256/21494.png" width="64" height="64" /><image x="512" y="1216" href="42256/30774.png" width="64" height="64" /><image x="576" y="1216" href="42256/21184.png" width="64" height="64" /><image x="640" y="1216" href="42256/20500.png" width="64" height="64" /><image x="704" y="1216" href="42256/21555.png" width="64" height="64" /><image x="768" y="1216" href="42256/21319.png" width="64" height="64" /><image x="832" y="1216" href="42256/21528.png" width="64" height="64" /><image x="896" y="1216" href="42256/21438.png" width="64" height="64" /><image x="960" y="1216" href="42256/30778.png" width="64" height="64" /><image x="1024" y="1216" href="42256/21336.png" width="64" height="64" /><image x="1088" y="1216" href="42256/21516.png" width="64" height="64" /><image x="1152" y="1216" href="42256/21642.png" width="64" height="64" /><image x="1216" y="1216" href="42256/20497.png" width="64" height="64" /><image x="1280" y="1216" href="42256/21612.png" width="64" height="64" /><image x="1344" y="1216" href="42256/21485.png" width="64" height="64" /><image x="0" y="1280" href="42256/21437.png" width="64" height="64" /><image x="64" y="1280" href="42256/21582.png" width="64" height="64" /><image x="128" y="1280" href="42256/20521.png" width="64" height="64" /><image x="192" y="1280" href="42256/21513.png" width="64" height="64" /><image x="256" y="1280" href="42256/21668.png" width="64" height="64" /><image x="320" y="1280" href="42256/21462.png" width="64" height="64" /><image x="384" y="1280" href="42256/21496.png" width="64" height="64" /><image x="448" y="1280" href="42256/20540.png" width="64" height="64" /><image x="512" y="1280" href="42256/21445.png" width="64" height="64" /><image x="576" y="1280" href="42256/21470.png" width="64" height="64" /><image x="640" y="1280" href="42256/49777.png" width="64" height="64" /><image x="704" y="1280" href="42256/49404.png" width="64" height="64" /></svg>