<?xml version="1.0" encoding="UTF-8"?>
<svg xmlns="http://www.w3.org/2000/svg" version="1.1" height="512" width="512"><rect x="0" y="0" width="512" height="512" fill="rgb(192,192,192)" /><image x="0" y="0" href="42858/97326.png" width="64" height="64" /><image x="64" y="0" href="42858/93726.png" width="64" height="64" /><image x="128" y="0" href="42858/95469.png" width="64" height="64" /><image x="192" y="0" href="42858/207905.png" width="64" height="64" /><image x="256" y="0" href="42858/207991.png" width="64" height="64" /><image x="320" y="0" href="42858/207691.png" width="64" height="64" /><image x="384" y="0" href="42858/207688.png" width="64" height="64" /><image x="448" y="0" href="42858/208079.png" width="64" height="64" /><image x="0" y="64" href="42858/207852.png" width="64" height="64" /><image x="64" y="64" href="42858/208062.png" width="64" height="64" /><image x="128" y="64" href="42858/207883.png" width="64" height="64" /><image x="192" y="64" href="42858/208808.png" width="64" height="64" /><image x="256" y="64" href="42858/208061.png" width="64" height="64" /><image x="320" y="64" href="42858/207462.png" width="64" height="64" /><image x="384" y="64" href="42858/207581.png" width="64" height="64" /><image x="448" y="64" href="42858/207506.png" width="64" height="64" /><image x="0" y="128" href="42858/207511.png" width="64" height="64" /><image x="64" y="128" href="42858/207505.png" width="64" height="64" /><image x="128" y="128" href="42858/207643.png" width="64" height="64" /><image x="192" y="128" href="42858/215764.png" width="64" height="64" /><image x="256" y="128" href="42858/207510.png" width="64" height="64" /><image x="320" y="128" href="42858/214533.png" width="64" height="64" /><image x="384" y="128" href="42858/207467.png" width="64" height="64" /><image x="448" y="128" href="42858/214159.png" width="64" height="64" /><image x="0" y="192" href="42858/207509.png" width="64" height="64" /><image x="64" y="192" href="42858/207463.png" width="64" height="64" /><image x="128" y="192" href="42858/207465.png" width="64" height="64" /><image x="192" y="192" href="42858/207512.png" width="64" height="64" /><image x="256" y="192" href="42858/208269.png" width="64" height="64" /><image x="320" y="192" href="42858/208548.png" width="64" height="64" /><image x="384" y="192" href="42858/208198.png" width="64" height="64" /><image x="448" y="192" href="42858/208517.png" width="64" height="64" /><image x="0" y="256" href="42858/208199.png" width="64" height="64" /><image x="64" y="256" href="42858/208282.png" width="64" height="64" /><image x="128" y="256" href="42858/208290.png" width="64" height="64" /><image x="192" y="256" href="42858/208147.png" width="64" height="64" /><image x="256" y="256" href="42858/208144.png" width="64" height="64" /><image x="320" y="256" href="42858/208451.png" width="64" height="64" /><image x="384" y="256" href="42858/208153.png" width="64" height="64" /><image x="448" y="256" href="42858/208152.png" width="64" height="64" /><image x="0" y="320" href="42858/208149.png" width="64" height="64" /><image x="64" y="320" href="42858/207597.png" width="64" height="64" /><image x="128" y="320" href="42858/207759.png" width="64" height="64" /><image x="192" y="320" href="42858/207592.png" width="64" height="64" /><image x="256" y="320" href="42858/207535.png" width="64" height="64" /><image x="320" y="320" href="42858/208492.png" width="64" height="64" /><image x="384" y="320" href="42858/208709.png" width="64" height="64" /><image x="448" y="320" href="42858/207540.png" width="64" height="64" /><image x="0" y="384" href="42858/207598.png" width="64" height="64" /><image x="64" y="384" href="42858/207515.png" width="64" height="64" /></svg>