<?xml version="1.0" encoding="UTF-8"?>
<svg xmlns="http://www.w3.org/2000/svg" version="1.1" height="960" width="960"><rect x="0" y="0" width="960" height="960" fill="rgb(192,192,192)" /><image x="0" y="0" href="43746/94916.png" width="64" height="64" /><image x="64" y="0" href="43746/95143.png" width="64" height="64" /><image x="128" y="0" href="43746/94973.png" width="64" height="64" /><image x="192" y="0" href="43746/94972.png" width="64" height="64" /><image x="256" y="0" href="43746/95017.png" width="64" height="64" /><image x="320" y="0" href="43746/95004.png" width="64" height="64" /><image x="384" y="0" href="43746/95005.png" width="64" height="64" /><image x="448" y="0" href="43746/95019.png" width="64" height="64" /><image x="512" y="0" href="43746/36916.png" width="64" height="64" /><image x="576" y="0" href="43746/94957.png" width="64" height="64" /><image x="640" y="0" href="43746/36921.png" width="64" height="64" /><image x="704" y="0" href="43746/36917.png" width="64" height="64" /><image x="768" y="0" href="43746/36924.png" width="64" height="64" /><image x="832" y="0" href="43746/36920.png" width="64" height="64" /><image x="896" y="0" href="43746/37550.png" width="64" height="64" /><image x="0" y="64" href="43746/94958.png" width="64" height="64" /><image x="64" y="64" href="43746/95020.png" width="64" height="64" /><image x="128" y="64" href="43746/37552.png" width="64" height="64" /><image x="192" y="64" href="43746/37546.png" width="64" height="64" /><image x="256" y="64" href="43746/36918.png" width="64" height="64" /><image x="320" y="64" href="43746/37551.png" width="64" height="64" /><image x="384" y="64" href="43746/37547.png" width="64" height="64" /><image x="448" y="64" href="43746/95003.png" width="64" height="64" /><image x="512" y="64" href="43746/37545.png" width="64" height="64" /><image x="576" y="64" href="43746/37556.png" width="64" height="64" /><image x="640" y="64" href="43746/37553.png" width="64" height="64" /><image x="704" y="64" href="43746/37970.png" width="64" height="64" /><image x="768" y="64" href="43746/36965.png" width="64" height="64" /><image x="832" y="64" href="43746/38346.png" width="64" height="64" /><image x="896" y="64" href="43746/38532.png" width="64" height="64" /><image x="0" y="128" href="43746/38353.png" width="64" height="64" /><image x="64" y="128" href="43746/38540.png" width="64" height="64" /><image x="128" y="128" href="43746/38348.png" width="64" height="64" /><image x="192" y="128" href="43746/24667.png" width="64" height="64" /><image x="256" y="128" href="43746/38351.png" width="64" height="64" /><image x="320" y="128" href="43746/38345.png" width="64" height="64" /><image x="384" y="128" href="43746/24603.png" width="64" height="64" /><image x="448" y="128" href="43746/38555.png" width="64" height="64" /><image x="512" y="128" href="43746/38541.png" width="64" height="64" /><image x="576" y="128" href="43746/267046.png" width="64" height="64" /><image x="640" y="128" href="43746/124621.png" width="64" height="64" /><image x="704" y="128" href="43746/124622.png" width="64" height="64" /><image x="768" y="128" href="43746/267045.png" width="64" height="64" /><image x="832" y="128" href="43746/124623.png" width="64" height="64" /><image x="896" y="128" href="43746/124624.png" width="64" height="64" /><image x="0" y="192" href="43746/124682.png" width="64" height="64" /><image x="64" y="192" href="43746/124680.png" width="64" height="64" /><image x="128" y="192" href="43746/124681.png" width="64" height="64" /><image x="192" y="192" href="43746/124931.png" width="64" height="64" /><image x="256" y="192" href="43746/125179.png" width="64" height="64" /><image x="320" y="192" href="43746/125178.png" width="64" height="64" /><image x="384" y="192" href="43746/125544.png" width="64" height="64" /><image x="448" y="192" href="43746/125545.png" width="64" height="64" /><image x="512" y="192" href="43746/125184.png" width="64" height="64" /><image x="576" y="192" href="43746/125728.png" width="64" height="64" /><image x="640" y="192" href="43746/125789.png" width="64" height="64" /><image x="704" y="192" href="43746/125745.png" width="64" height="64" /><image x="768" y="192" href="43746/125788.png" width="64" height="64" /><image x="832" y="192" href="43746/126029.png" width="64" height="64" /><image x="896" y="192" href="43746/126466.png" width="64" height="64" /><image x="0" y="256" href="43746/139541.png" width="64" height="64" /><image x="64" y="256" href="43746/125726.png" width="64" height="64" /><image x="128" y="256" href="43746/126528.png" width="64" height="64" /><image x="192" y="256" href="43746/126529.png" width="64" height="64" /><image x="256" y="256" href="43746/126879.png" width="64" height="64" /><image x="320" y="256" href="43746/127328.png" width="64" height="64" /><image x="384" y="256" href="43746/126813.png" width="64" height="64" /><image x="448" y="256" href="43746/127329.png" width="64" height="64" /><image x="512" y="256" href="43746/126815.png" width="64" height="64" /><image x="576" y="256" href="43746/127169.png" width="64" height="64" /><image x="640" y="256" href="43746/127325.png" width="64" height="64" /><image x="704" y="256" href="43746/127164.png" width="64" height="64" /><image x="768" y="256" href="43746/127167.png" width="64" height="64" /><image x="832" y="256" href="43746/127313.png" width="64" height="64" /><image x="896" y="256" href="43746/127025.png" width="64" height="64" /><image x="0" y="320" href="43746/127327.png" width="64" height="64" /><image x="64" y="320" href="43746/127326.png" width="64" height="64" /><image x="128" y="320" href="43746/127024.png" width="64" height="64" /><image x="192" y="320" href="43746/127168.png" width="64" height="64" /><image x="256" y="320" href="43746/127166.png" width="64" height="64" /><image x="320" y="320" href="43746/127174.png" width="64" height="64" /><image x="384" y="320" href="43746/127171.png" width="64" height="64" /><image x="448" y="320" href="43746/127173.png" width="64" height="64" /><image x="512" y="320" href="43746/127188.png" width="64" height="64" /><image x="576" y="320" href="43746/139313.png" width="64" height="64" /><image x="640" y="320" href="43746/178977.png" width="64" height="64" /><image x="704" y="320" href="43746/139551.png" width="64" height="64" /><image x="768" y="320" href="43746/180266.png" width="64" height="64" /><image x="832" y="320" href="43746/180269.png" width="64" height="64" /><image x="896" y="320" href="43746/180264.png" width="64" height="64" /><image x="0" y="384" href="43746/180262.png" width="64" height="64" /><image x="64" y="384" href="43746/180082.png" width="64" height="64" /><image x="128" y="384" href="43746/180116.png" width="64" height="64" /><image x="192" y="384" href="43746/196101.png" width="64" height="64" /><image x="256" y="384" href="43746/180244.png" width="64" height="64" /><image x="320" y="384" href="43746/180265.png" width="64" height="64" /><image x="384" y="384" href="43746/180263.png" width="64" height="64" /><image x="448" y="384" href="43746/180255.png" width="64" height="64" /><image x="512" y="384" href="43746/180232.png" width="64" height="64" /><image x="576" y="384" href="43746/139554.png" width="64" height="64" /><image x="640" y="384" href="43746/158986.png" width="64" height="64" /><image x="704" y="384" href="43746/123894.png" width="64" height="64" /><image x="768" y="384" href="43746/163257.png" width="64" height="64" /><image x="832" y="384" href="43746/139550.png" width="64" height="64" /><image x="896" y="384" href="43746/123290.png" width="64" height="64" /><image x="0" y="448" href="43746/123291.png" width="64" height="64" /><image x="64" y="448" href="43746/123295.png" width="64" height="64" /><image x="128" y="448" href="43746/123296.png" width="64" height="64" /><image x="192" y="448" href="43746/123292.png" width="64" height="64" /><image x="256" y="448" href="43746/123293.png" width="64" height="64" /><image x="320" y="448" href="43746/123452.png" width="64" height="64" /><image x="384" y="448" href="43746/123451.png" width="64" height="64" /><image x="448" y="448" href="43746/123453.png" width="64" height="64" /><image x="512" y="448" href="43746/123342.png" width="64" height="64" /><image x="576" y="448" href="43746/123450.png" width="64" height="64" /><image x="640" y="448" href="43746/123454.png" width="64" height="64" /><image x="704" y="448" href="43746/123640.png" width="64" height="64" /><image x="768" y="448" href="43746/123642.png" width="64" height="64" /><image x="832" y="448" href="43746/123641.png" width="64" height="64" /><image x="896" y="448" href="43746/123651.png" width="64" height="64" /><image x="0" y="512" href="43746/123643.png" width="64" height="64" /><image x="64" y="512" href="43746/123653.png" width="64" height="64" /><image x="128" y="512" href="43746/123692.png" width="64" height="64" /><image x="192" y="512" href="43746/123655.png" width="64" height="64" /><image x="256" y="512" href="43746/123707.png" width="64" height="64" /><image x="320" y="512" href="43746/123721.png" width="64" height="64" /><image x="384" y="512" href="43746/139549.png" width="64" height="64" /><image x="448" y="512" href="43746/123989.png" width="64" height="64" /><image x="512" y="512" href="43746/124536.png" width="64" height="64" /><image x="576" y="512" href="43746/124069.png" width="64" height="64" /><image x="640" y="512" href="43746/124537.png" width="64" height="64" /><image x="704" y="512" href="43746/215358.png" width="64" height="64" /><image x="768" y="512" href="43746/216355.png" width="64" height="64" /><image x="832" y="512" href="43746/209002.png" width="64" height="64" /><image x="896" y="512" href="43746/208966.png" width="64" height="64" /><image x="0" y="576" href="43746/208976.png" width="64" height="64" /><image x="64" y="576" href="43746/208942.png" width="64" height="64" /><image x="128" y="576" href="43746/209003.png" width="64" height="64" /><image x="192" y="576" href="43746/208831.png" width="64" height="64" /><image x="256" y="576" href="43746/208876.png" width="64" height="64" /><image x="320" y="576" href="43746/210758.png" width="64" height="64" /><image x="384" y="576" href="43746/208858.png" width="64" height="64" /><image x="448" y="576" href="43746/208857.png" width="64" height="64" /><image x="512" y="576" href="43746/208826.png" width="64" height="64" /><image x="576" y="576" href="43746/208877.png" width="64" height="64" /><image x="640" y="576" href="43746/209004.png" width="64" height="64" /><image x="704" y="576" href="43746/209005.png" width="64" height="64" /><image x="768" y="576" href="43746/208973.png" width="64" height="64" /><image x="832" y="576" href="43746/210976.png" width="64" height="64" /><image x="896" y="576" href="43746/210856.png" width="64" height="64" /><image x="0" y="640" href="43746/211500.png" width="64" height="64" /><image x="64" y="640" href="43746/210264.png" width="64" height="64" /><image x="128" y="640" href="43746/210265.png" width="64" height="64" /><image x="192" y="640" href="43746/210241.png" width="64" height="64" /><image x="256" y="640" href="43746/210266.png" width="64" height="64" /><image x="320" y="640" href="43746/216414.png" width="64" height="64" /><image x="384" y="640" href="43746/216886.png" width="64" height="64" /><image x="448" y="640" href="43746/209971.png" width="64" height="64" /><image x="512" y="640" href="43746/209978.png" width="64" height="64" /><image x="576" y="640" href="43746/210309.png" width="64" height="64" /><image x="640" y="640" href="43746/210210.png" width="64" height="64" /><image x="704" y="640" href="43746/209943.png" width="64" height="64" /><image x="768" y="640" href="43746/212262.png" width="64" height="64" /><image x="832" y="640" href="43746/210211.png" width="64" height="64" /><image x="896" y="640" href="43746/210235.png" width="64" height="64" /><image x="0" y="704" href="43746/210197.png" width="64" height="64" /><image x="64" y="704" href="43746/210627.png" width="64" height="64" /><image x="128" y="704" href="43746/210721.png" width="64" height="64" /><image x="192" y="704" href="43746/210542.png" width="64" height="64" /><image x="256" y="704" href="43746/210792.png" width="64" height="64" /><image x="320" y="704" href="43746/210805.png" width="64" height="64" /><image x="384" y="704" href="43746/210819.png" width="64" height="64" /><image x="448" y="704" href="43746/211097.png" width="64" height="64" /><image x="512" y="704" href="43746/210820.png" width="64" height="64" /><image x="576" y="704" href="43746/211393.png" width="64" height="64" /><image x="640" y="704" href="43746/212717.png" width="64" height="64" /><image x="704" y="704" href="43746/211288.png" width="64" height="64" /><image x="768" y="704" href="43746/211501.png" width="64" height="64" /><image x="832" y="704" href="43746/211303.png" width="64" height="64" /><image x="896" y="704" href="43746/211332.png" width="64" height="64" /><image x="0" y="768" href="43746/211333.png" width="64" height="64" /><image x="64" y="768" href="43746/251174.png" width="64" height="64" /><image x="128" y="768" href="43746/251256.png" width="64" height="64" /><image x="192" y="768" href="43746/281491.png" width="64" height="64" /><image x="256" y="768" href="43746/247537.png" width="64" height="64" /><image x="320" y="768" href="43746/249804.png" width="64" height="64" /><image x="384" y="768" href="43746/247530.png" width="64" height="64" /><image x="448" y="768" href="43746/276660.png" width="64" height="64" /><image x="512" y="768" href="43746/276651.png" width="64" height="64" /><image x="576" y="768" href="43746/276621.png" width="64" height="64" /><image x="640" y="768" href="43746/276652.png" width="64" height="64" /><image x="704" y="768" href="43746/276576.png" width="64" height="64" /><image x="768" y="768" href="43746/276526.png" width="64" height="64" /><image x="832" y="768" href="43746/276622.png" width="64" height="64" /><image x="896" y="768" href="43746/276654.png" width="64" height="64" /><image x="0" y="832" href="43746/276653.png" width="64" height="64" /><image x="64" y="832" href="43746/276708.png" width="64" height="64" /><image x="128" y="832" href="43746/276737.png" width="64" height="64" /><image x="192" y="832" href="43746/276748.png" width="64" height="64" /></svg>