<?xml version="1.0" encoding="UTF-8"?>
<svg xmlns="http://www.w3.org/2000/svg" version="1.1" height="448" width="448"><rect x="0" y="0" width="448" height="448" fill="rgb(192,192,192)" /><image x="0" y="0" href="43750/95321.png" width="64" height="64" /><image x="64" y="0" href="43750/106131.png" width="64" height="64" /><image x="128" y="0" href="43750/103367.png" width="64" height="64" /><image x="192" y="0" href="43750/103341.png" width="64" height="64" /><image x="256" y="0" href="43750/103342.png" width="64" height="64" /><image x="320" y="0" href="43750/103353.png" width="64" height="64" /><image x="384" y="0" href="43750/103356.png" width="64" height="64" /><image x="0" y="64" href="43750/103368.png" width="64" height="64" /><image x="64" y="64" href="43750/103273.png" width="64" height="64" /><image x="128" y="64" href="43750/103284.png" width="64" height="64" /><image x="192" y="64" href="43750/103286.png" width="64" height="64" /><image x="256" y="64" href="43750/103558.png" width="64" height="64" /><image x="320" y="64" href="43750/103271.png" width="64" height="64" /><image x="384" y="64" href="43750/95548.png" width="64" height="64" /><image x="0" y="128" href="43750/95540.png" width="64" height="64" /><image x="64" y="128" href="43750/103285.png" width="64" height="64" /><image x="128" y="128" href="43750/95131.png" width="64" height="64" /><image x="192" y="128" href="43750/95120.png" width="64" height="64" /><image x="256" y="128" href="43750/95136.png" width="64" height="64" /><image x="320" y="128" href="43750/94930.png" width="64" height="64" /><image x="384" y="128" href="43750/95117.png" width="64" height="64" /><image x="0" y="192" href="43750/95113.png" width="64" height="64" /><image x="64" y="192" href="43750/95149.png" width="64" height="64" /><image x="128" y="192" href="43750/103658.png" width="64" height="64" /><image x="192" y="192" href="43750/95112.png" width="64" height="64" /><image x="256" y="192" href="43750/95111.png" width="64" height="64" /><image x="320" y="192" href="43750/95148.png" width="64" height="64" /><image x="384" y="192" href="43750/95114.png" width="64" height="64" /><image x="0" y="256" href="43750/95115.png" width="64" height="64" /><image x="64" y="256" href="43750/95116.png" width="64" height="64" /><image x="128" y="256" href="43750/95091.png" width="64" height="64" /><image x="192" y="256" href="43750/95139.png" width="64" height="64" /><image x="256" y="256" href="43750/94989.png" width="64" height="64" /><image x="320" y="256" href="43750/95086.png" width="64" height="64" /><image x="384" y="256" href="43750/95128.png" width="64" height="64" /><image x="0" y="320" href="43750/95090.png" width="64" height="64" /><image x="64" y="320" href="43750/95129.png" width="64" height="64" /><image x="128" y="320" href="43750/94940.png" width="64" height="64" /><image x="192" y="320" href="43750/95542.png" width="64" height="64" /><image x="256" y="320" href="43750/95137.png" width="64" height="64" /><image x="320" y="320" href="43750/278993.png" width="64" height="64" /><image x="384" y="320" href="43750/280630.png" width="64" height="64" /><image x="0" y="384" href="43750/280632.png" width="64" height="64" /><image x="64" y="384" href="43750/280619.png" width="64" height="64" /><image x="128" y="384" href="43750/280631.png" width="64" height="64" /><image x="192" y="384" href="43750/280613.png" width="64" height="64" /></svg>