<?xml version="1.0" encoding="UTF-8"?>
<svg xmlns="http://www.w3.org/2000/svg" version="1.1" height="448" width="448"><rect x="0" y="0" width="448" height="448" fill="rgb(192,192,192)" /><image x="0" y="0" href="44720/98700.png" width="64" height="64" /><image x="64" y="0" href="44720/99179.png" width="64" height="64" /><image x="128" y="0" href="44720/98520.png" width="64" height="64" /><image x="192" y="0" href="44720/98521.png" width="64" height="64" /><image x="256" y="0" href="44720/98469.png" width="64" height="64" /><image x="320" y="0" href="44720/97600.png" width="64" height="64" /><image x="384" y="0" href="44720/98499.png" width="64" height="64" /><image x="0" y="64" href="44720/99183.png" width="64" height="64" /><image x="64" y="64" href="44720/99174.png" width="64" height="64" /><image x="128" y="64" href="44720/99176.png" width="64" height="64" /><image x="192" y="64" href="44720/99175.png" width="64" height="64" /><image x="256" y="64" href="44720/99177.png" width="64" height="64" /><image x="320" y="64" href="44720/99178.png" width="64" height="64" /><image x="384" y="64" href="44720/99379.png" width="64" height="64" /><image x="0" y="128" href="44720/97517.png" width="64" height="64" /><image x="64" y="128" href="44720/97153.png" width="64" height="64" /><image x="128" y="128" href="44720/97154.png" width="64" height="64" /><image x="192" y="128" href="44720/98491.png" width="64" height="64" /><image x="256" y="128" href="44720/99380.png" width="64" height="64" /><image x="320" y="128" href="44720/97495.png" width="64" height="64" /><image x="384" y="128" href="44720/98534.png" width="64" height="64" /><image x="0" y="192" href="44720/98671.png" width="64" height="64" /><image x="64" y="192" href="44720/97131.png" width="64" height="64" /><image x="128" y="192" href="44720/99644.png" width="64" height="64" /><image x="192" y="192" href="44720/98677.png" width="64" height="64" /><image x="256" y="192" href="44720/97520.png" width="64" height="64" /><image x="320" y="192" href="44720/99806.png" width="64" height="64" /><image x="384" y="192" href="44720/97488.png" width="64" height="64" /><image x="0" y="256" href="44720/98476.png" width="64" height="64" /><image x="64" y="256" href="44720/103192.png" width="64" height="64" /><image x="128" y="256" href="44720/103190.png" width="64" height="64" /><image x="192" y="256" href="44720/99182.png" width="64" height="64" /><image x="256" y="256" href="44720/98472.png" width="64" height="64" /><image x="320" y="256" href="44720/98514.png" width="64" height="64" /><image x="384" y="256" href="44720/99188.png" width="64" height="64" /><image x="0" y="320" href="44720/98455.png" width="64" height="64" /><image x="64" y="320" href="44720/98561.png" width="64" height="64" /></svg>