<?xml version="1.0" encoding="UTF-8"?>
<svg xmlns="http://www.w3.org/2000/svg" version="1.1" height="320" width="320"><rect x="0" y="0" width="320" height="320" fill="rgb(192,192,192)" /><image x="0" y="0" href="45466/208866.png" width="64" height="64" /><image x="64" y="0" href="45466/209116.png" width="64" height="64" /><image x="128" y="0" href="45466/209616.png" width="64" height="64" /><image x="192" y="0" href="45466/209696.png" width="64" height="64" /><image x="256" y="0" href="45466/111065.png" width="64" height="64" /><image x="0" y="64" href="45466/208143.png" width="64" height="64" /><image x="64" y="64" href="45466/121195.png" width="64" height="64" /><image x="128" y="64" href="45466/214567.png" width="64" height="64" /><image x="192" y="64" href="45466/98626.png" width="64" height="64" /><image x="256" y="64" href="45466/207855.png" width="64" height="64" /><image x="0" y="128" href="45466/121911.png" width="64" height="64" /><image x="64" y="128" href="45466/207856.png" width="64" height="64" /><image x="128" y="128" href="45466/208051.png" width="64" height="64" /><image x="192" y="128" href="45466/214946.png" width="64" height="64" /><image x="256" y="128" href="45466/111063.png" width="64" height="64" /><image x="0" y="192" href="45466/111054.png" width="64" height="64" /><image x="64" y="192" href="45466/100439.png" width="64" height="64" /><image x="128" y="192" href="45466/121912.png" width="64" height="64" /></svg>