<?xml version="1.0" encoding="UTF-8"?>
<svg xmlns="http://www.w3.org/2000/svg" version="1.1" height="320" width="320"><rect x="0" y="0" width="320" height="320" fill="rgb(192,192,192)" /><image x="0" y="0" href="46370/100308.png" width="64" height="64" /><image x="64" y="0" href="46370/100434.png" width="64" height="64" /><image x="128" y="0" href="46370/100437.png" width="64" height="64" /><image x="192" y="0" href="46370/101335.png" width="64" height="64" /><image x="256" y="0" href="46370/100326.png" width="64" height="64" /><image x="0" y="64" href="46370/100310.png" width="64" height="64" /><image x="64" y="64" href="46370/100320.png" width="64" height="64" /><image x="128" y="64" href="46370/100309.png" width="64" height="64" /><image x="192" y="64" href="46370/103363.png" width="64" height="64" /><image x="256" y="64" href="46370/103365.png" width="64" height="64" /><image x="0" y="128" href="46370/103322.png" width="64" height="64" /><image x="64" y="128" href="46370/103339.png" width="64" height="64" /><image x="128" y="128" href="46370/103527.png" width="64" height="64" /><image x="192" y="128" href="46370/103351.png" width="64" height="64" /><image x="256" y="128" href="46370/103354.png" width="64" height="64" /><image x="0" y="192" href="46370/103352.png" width="64" height="64" /><image x="64" y="192" href="46370/103931.png" width="64" height="64" /><image x="128" y="192" href="46370/103346.png" width="64" height="64" /><image x="192" y="192" href="46370/103347.png" width="64" height="64" /><image x="256" y="192" href="46370/103355.png" width="64" height="64" /><image x="0" y="256" href="46370/103364.png" width="64" height="64" /></svg>