<?xml version="1.0" encoding="UTF-8"?>
<svg xmlns="http://www.w3.org/2000/svg" version="1.1" height="768" width="768"><rect x="0" y="0" width="768" height="768" fill="rgb(192,192,192)" /><image x="0" y="0" href="46639/101092.png" width="64" height="64" /><image x="64" y="0" href="46639/206170.png" width="64" height="64" /><image x="128" y="0" href="46639/114181.png" width="64" height="64" /><image x="192" y="0" href="46639/100946.png" width="64" height="64" /><image x="256" y="0" href="46639/100926.png" width="64" height="64" /><image x="320" y="0" href="46639/34372.png" width="64" height="64" /><image x="384" y="0" href="46639/120095.png" width="64" height="64" /><image x="448" y="0" href="46639/100941.png" width="64" height="64" /><image x="512" y="0" href="46639/101309.png" width="64" height="64" /><image x="576" y="0" href="46639/100931.png" width="64" height="64" /><image x="640" y="0" href="46639/108252.png" width="64" height="64" /><image x="704" y="0" href="46639/177775.png" width="64" height="64" /><image x="0" y="64" href="46639/34382.png" width="64" height="64" /><image x="64" y="64" href="46639/101093.png" width="64" height="64" /><image x="128" y="64" href="46639/35185.png" width="64" height="64" /><image x="192" y="64" href="46639/100962.png" width="64" height="64" /><image x="256" y="64" href="46639/100942.png" width="64" height="64" /><image x="320" y="64" href="46639/100919.png" width="64" height="64" /><image x="384" y="64" href="46639/100930.png" width="64" height="64" /><image x="448" y="64" href="46639/125301.png" width="64" height="64" /><image x="512" y="64" href="46639/125299.png" width="64" height="64" /><image x="576" y="64" href="46639/125298.png" width="64" height="64" /><image x="640" y="64" href="46639/125300.png" width="64" height="64" /><image x="704" y="64" href="46639/125306.png" width="64" height="64" /><image x="0" y="128" href="46639/125305.png" width="64" height="64" /><image x="64" y="128" href="46639/125292.png" width="64" height="64" /><image x="128" y="128" href="46639/125341.png" width="64" height="64" /><image x="192" y="128" href="46639/125307.png" width="64" height="64" /><image x="256" y="128" href="46639/125340.png" width="64" height="64" /><image x="320" y="128" href="46639/125287.png" width="64" height="64" /><image x="384" y="128" href="46639/125291.png" width="64" height="64" /><image x="448" y="128" href="46639/125289.png" width="64" height="64" /><image x="512" y="128" href="46639/125290.png" width="64" height="64" /><image x="576" y="128" href="46639/125354.png" width="64" height="64" /><image x="640" y="128" href="46639/125355.png" width="64" height="64" /><image x="704" y="128" href="46639/125339.png" width="64" height="64" /><image x="0" y="192" href="46639/125593.png" width="64" height="64" /><image x="64" y="192" href="46639/125588.png" width="64" height="64" /><image x="128" y="192" href="46639/125660.png" width="64" height="64" /><image x="192" y="192" href="46639/125661.png" width="64" height="64" /><image x="256" y="192" href="46639/125662.png" width="64" height="64" /><image x="320" y="192" href="46639/125657.png" width="64" height="64" /><image x="384" y="192" href="46639/125663.png" width="64" height="64" /><image x="448" y="192" href="46639/125664.png" width="64" height="64" /><image x="512" y="192" href="46639/125666.png" width="64" height="64" /><image x="576" y="192" href="46639/125665.png" width="64" height="64" /><image x="640" y="192" href="46639/125675.png" width="64" height="64" /><image x="704" y="192" href="46639/125674.png" width="64" height="64" /><image x="0" y="256" href="46639/125678.png" width="64" height="64" /><image x="64" y="256" href="46639/125673.png" width="64" height="64" /><image x="128" y="256" href="46639/125531.png" width="64" height="64" /><image x="192" y="256" href="46639/125677.png" width="64" height="64" /><image x="256" y="256" href="46639/125530.png" width="64" height="64" /><image x="320" y="256" href="46639/125532.png" width="64" height="64" /><image x="384" y="256" href="46639/125676.png" width="64" height="64" /><image x="448" y="256" href="46639/125672.png" width="64" height="64" /><image x="512" y="256" href="46639/126872.png" width="64" height="64" /><image x="576" y="256" href="46639/126998.png" width="64" height="64" /><image x="640" y="256" href="46639/126838.png" width="64" height="64" /><image x="704" y="256" href="46639/126839.png" width="64" height="64" /><image x="0" y="320" href="46639/126842.png" width="64" height="64" /><image x="64" y="320" href="46639/126843.png" width="64" height="64" /><image x="128" y="320" href="46639/126845.png" width="64" height="64" /><image x="192" y="320" href="46639/126847.png" width="64" height="64" /><image x="256" y="320" href="46639/126873.png" width="64" height="64" /><image x="320" y="320" href="46639/126880.png" width="64" height="64" /><image x="384" y="320" href="46639/126874.png" width="64" height="64" /><image x="448" y="320" href="46639/126876.png" width="64" height="64" /><image x="512" y="320" href="46639/126875.png" width="64" height="64" /><image x="576" y="320" href="46639/126877.png" width="64" height="64" /><image x="640" y="320" href="46639/123798.png" width="64" height="64" /><image x="704" y="320" href="46639/123887.png" width="64" height="64" /><image x="0" y="384" href="46639/123885.png" width="64" height="64" /><image x="64" y="384" href="46639/123708.png" width="64" height="64" /><image x="128" y="384" href="46639/123709.png" width="64" height="64" /><image x="192" y="384" href="46639/131341.png" width="64" height="64" /><image x="256" y="384" href="46639/123710.png" width="64" height="64" /><image x="320" y="384" href="46639/123711.png" width="64" height="64" /><image x="384" y="384" href="46639/123804.png" width="64" height="64" /><image x="448" y="384" href="46639/123704.png" width="64" height="64" /><image x="512" y="384" href="46639/123705.png" width="64" height="64" /><image x="576" y="384" href="46639/123890.png" width="64" height="64" /><image x="640" y="384" href="46639/124974.png" width="64" height="64" /><image x="704" y="384" href="46639/124973.png" width="64" height="64" /><image x="0" y="448" href="46639/130382.png" width="64" height="64" /><image x="64" y="448" href="46639/131291.png" width="64" height="64" /><image x="128" y="448" href="46639/123799.png" width="64" height="64" /><image x="192" y="448" href="46639/127064.png" width="64" height="64" /><image x="256" y="448" href="46639/127046.png" width="64" height="64" /><image x="320" y="448" href="46639/127082.png" width="64" height="64" /><image x="384" y="448" href="46639/127047.png" width="64" height="64" /><image x="448" y="448" href="46639/131321.png" width="64" height="64" /><image x="512" y="448" href="46639/127045.png" width="64" height="64" /><image x="576" y="448" href="46639/127044.png" width="64" height="64" /><image x="640" y="448" href="46639/127048.png" width="64" height="64" /><image x="704" y="448" href="46639/127065.png" width="64" height="64" /><image x="0" y="512" href="46639/164184.png" width="64" height="64" /><image x="64" y="512" href="46639/182875.png" width="64" height="64" /><image x="128" y="512" href="46639/182902.png" width="64" height="64" /><image x="192" y="512" href="46639/206985.png" width="64" height="64" /><image x="256" y="512" href="46639/206244.png" width="64" height="64" /><image x="320" y="512" href="46639/206091.png" width="64" height="64" /><image x="384" y="512" href="46639/206245.png" width="64" height="64" /><image x="448" y="512" href="46639/229071.png" width="64" height="64" /><image x="512" y="512" href="46639/229101.png" width="64" height="64" /><image x="576" y="512" href="46639/229127.png" width="64" height="64" /><image x="640" y="512" href="46639/229128.png" width="64" height="64" /><image x="704" y="512" href="46639/252425.png" width="64" height="64" /><image x="0" y="576" href="46639/252426.png" width="64" height="64" /><image x="64" y="576" href="46639/252377.png" width="64" height="64" /><image x="128" y="576" href="46639/252378.png" width="64" height="64" /><image x="192" y="576" href="46639/252797.png" width="64" height="64" /><image x="256" y="576" href="46639/252691.png" width="64" height="64" /><image x="320" y="576" href="46639/252651.png" width="64" height="64" /><image x="384" y="576" href="46639/252483.png" width="64" height="64" /><image x="448" y="576" href="46639/252648.png" width="64" height="64" /><image x="512" y="576" href="46639/252650.png" width="64" height="64" /><image x="576" y="576" href="46639/252484.png" width="64" height="64" /><image x="640" y="576" href="46639/252643.png" width="64" height="64" /><image x="704" y="576" href="46639/252798.png" width="64" height="64" /><image x="0" y="640" href="46639/252407.png" width="64" height="64" /><image x="64" y="640" href="46639/252393.png" width="64" height="64" /><image x="128" y="640" href="46639/252645.png" width="64" height="64" /></svg>