<?xml version="1.0" encoding="UTF-8"?>
<svg xmlns="http://www.w3.org/2000/svg" version="1.1" height="320" width="320"><rect x="0" y="0" width="320" height="320" fill="rgb(192,192,192)" /><image x="0" y="0" href="47024/105324.png" width="64" height="64" /><image x="64" y="0" href="47024/100278.png" width="64" height="64" /><image x="128" y="0" href="47024/98371.png" width="64" height="64" /><image x="192" y="0" href="47024/98768.png" width="64" height="64" /><image x="256" y="0" href="47024/99245.png" width="64" height="64" /><image x="0" y="64" href="47024/98646.png" width="64" height="64" /><image x="64" y="64" href="47024/99256.png" width="64" height="64" /><image x="128" y="64" href="47024/99248.png" width="64" height="64" /><image x="192" y="64" href="47024/99254.png" width="64" height="64" /><image x="256" y="64" href="47024/98645.png" width="64" height="64" /><image x="0" y="128" href="47024/98942.png" width="64" height="64" /><image x="64" y="128" href="47024/98644.png" width="64" height="64" /><image x="128" y="128" href="47024/99242.png" width="64" height="64" /><image x="192" y="128" href="47024/99449.png" width="64" height="64" /><image x="256" y="128" href="47024/99244.png" width="64" height="64" /><image x="0" y="192" href="47024/97552.png" width="64" height="64" /><image x="64" y="192" href="47024/97553.png" width="64" height="64" /><image x="128" y="192" href="47024/97555.png" width="64" height="64" /><image x="192" y="192" href="47024/99255.png" width="64" height="64" /><image x="256" y="192" href="47024/99247.png" width="64" height="64" /></svg>