<?xml version="1.0" encoding="UTF-8"?>
<svg xmlns="http://www.w3.org/2000/svg" version="1.1" height="576" width="576"><rect x="0" y="0" width="576" height="576" fill="rgb(192,192,192)" /><image x="0" y="0" href="480/33583.png" width="64" height="64" /><image x="64" y="0" href="480/33584.png" width="64" height="64" /><image x="128" y="0" href="480/33585.png" width="64" height="64" /><image x="192" y="0" href="480/33586.png" width="64" height="64" /><image x="256" y="0" href="480/33587.png" width="64" height="64" /><image x="320" y="0" href="480/33588.png" width="64" height="64" /><image x="384" y="0" href="480/33589.png" width="64" height="64" /><image x="448" y="0" href="480/33590.png" width="64" height="64" /><image x="512" y="0" href="480/33591.png" width="64" height="64" /><image x="0" y="64" href="480/33592.png" width="64" height="64" /><image x="64" y="64" href="480/33593.png" width="64" height="64" /><image x="128" y="64" href="480/33594.png" width="64" height="64" /><image x="192" y="64" href="480/33595.png" width="64" height="64" /><image x="256" y="64" href="480/33596.png" width="64" height="64" /><image x="320" y="64" href="480/33597.png" width="64" height="64" /><image x="384" y="64" href="480/33598.png" width="64" height="64" /><image x="448" y="64" href="480/33599.png" width="64" height="64" /><image x="512" y="64" href="480/33600.png" width="64" height="64" /><image x="0" y="128" href="480/33601.png" width="64" height="64" /><image x="64" y="128" href="480/33602.png" width="64" height="64" /><image x="128" y="128" href="480/33603.png" width="64" height="64" /><image x="192" y="128" href="480/33604.png" width="64" height="64" /><image x="256" y="128" href="480/33605.png" width="64" height="64" /><image x="320" y="128" href="480/33606.png" width="64" height="64" /><image x="384" y="128" href="480/33607.png" width="64" height="64" /><image x="448" y="128" href="480/33608.png" width="64" height="64" /><image x="512" y="128" href="480/33609.png" width="64" height="64" /><image x="0" y="192" href="480/33610.png" width="64" height="64" /><image x="64" y="192" href="480/33611.png" width="64" height="64" /><image x="128" y="192" href="480/33612.png" width="64" height="64" /><image x="192" y="192" href="480/33613.png" width="64" height="64" /><image x="256" y="192" href="480/33614.png" width="64" height="64" /><image x="320" y="192" href="480/33615.png" width="64" height="64" /><image x="384" y="192" href="480/33616.png" width="64" height="64" /><image x="448" y="192" href="480/33617.png" width="64" height="64" /><image x="512" y="192" href="480/33618.png" width="64" height="64" /><image x="0" y="256" href="480/33619.png" width="64" height="64" /><image x="64" y="256" href="480/33620.png" width="64" height="64" /><image x="128" y="256" href="480/33621.png" width="64" height="64" /><image x="192" y="256" href="480/39781.png" width="64" height="64" /><image x="256" y="256" href="480/40427.png" width="64" height="64" /><image x="320" y="256" href="480/92595.png" width="64" height="64" /><image x="384" y="256" href="480/40867.png" width="64" height="64" /><image x="448" y="256" href="480/41799.png" width="64" height="64" /><image x="512" y="256" href="480/41431.png" width="64" height="64" /><image x="0" y="320" href="480/41808.png" width="64" height="64" /><image x="64" y="320" href="480/55396.png" width="64" height="64" /><image x="128" y="320" href="480/41242.png" width="64" height="64" /><image x="192" y="320" href="480/90519.png" width="64" height="64" /><image x="256" y="320" href="480/41081.png" width="64" height="64" /><image x="320" y="320" href="480/41448.png" width="64" height="64" /><image x="384" y="320" href="480/41082.png" width="64" height="64" /><image x="448" y="320" href="480/33622.png" width="64" height="64" /><image x="512" y="320" href="480/33623.png" width="64" height="64" /><image x="0" y="384" href="480/33624.png" width="64" height="64" /><image x="64" y="384" href="480/33625.png" width="64" height="64" /><image x="128" y="384" href="480/33626.png" width="64" height="64" /><image x="192" y="384" href="480/33627.png" width="64" height="64" /><image x="256" y="384" href="480/33628.png" width="64" height="64" /><image x="320" y="384" href="480/33629.png" width="64" height="64" /><image x="384" y="384" href="480/33630.png" width="64" height="64" /><image x="448" y="384" href="480/33631.png" width="64" height="64" /><image x="512" y="384" href="480/33632.png" width="64" height="64" /><image x="0" y="448" href="480/33633.png" width="64" height="64" /><image x="64" y="448" href="480/33634.png" width="64" height="64" /></svg>