<?xml version="1.0" encoding="UTF-8"?>
<svg xmlns="http://www.w3.org/2000/svg" version="1.1" height="384" width="384"><rect x="0" y="0" width="384" height="384" fill="rgb(192,192,192)" /><image x="0" y="0" href="49174/106165.png" width="64" height="64" /><image x="64" y="0" href="49174/104922.png" width="64" height="64" /><image x="128" y="0" href="49174/104365.png" width="64" height="64" /><image x="192" y="0" href="49174/104106.png" width="64" height="64" /><image x="256" y="0" href="49174/107496.png" width="64" height="64" /><image x="320" y="0" href="49174/104392.png" width="64" height="64" /><image x="0" y="64" href="49174/104209.png" width="64" height="64" /><image x="64" y="64" href="49174/104925.png" width="64" height="64" /><image x="128" y="64" href="49174/104208.png" width="64" height="64" /><image x="192" y="64" href="49174/104387.png" width="64" height="64" /><image x="256" y="64" href="49174/104386.png" width="64" height="64" /><image x="320" y="64" href="49174/104609.png" width="64" height="64" /><image x="0" y="128" href="49174/104210.png" width="64" height="64" /><image x="64" y="128" href="49174/105240.png" width="64" height="64" /><image x="128" y="128" href="49174/104393.png" width="64" height="64" /><image x="192" y="128" href="49174/104856.png" width="64" height="64" /><image x="256" y="128" href="49174/104854.png" width="64" height="64" /><image x="320" y="128" href="49174/110325.png" width="64" height="64" /><image x="0" y="192" href="49174/104857.png" width="64" height="64" /><image x="64" y="192" href="49174/104852.png" width="64" height="64" /><image x="128" y="192" href="49174/104849.png" width="64" height="64" /><image x="192" y="192" href="49174/104848.png" width="64" height="64" /><image x="256" y="192" href="49174/105011.png" width="64" height="64" /><image x="320" y="192" href="49174/104853.png" width="64" height="64" /><image x="0" y="256" href="49174/104851.png" width="64" height="64" /><image x="64" y="256" href="49174/104855.png" width="64" height="64" /><image x="128" y="256" href="49174/104394.png" width="64" height="64" /><image x="192" y="256" href="49174/104596.png" width="64" height="64" /><image x="256" y="256" href="49174/104638.png" width="64" height="64" /><image x="320" y="256" href="49174/104926.png" width="64" height="64" /><image x="0" y="320" href="49174/104639.png" width="64" height="64" /><image x="64" y="320" href="49174/104635.png" width="64" height="64" /></svg>