<?xml version="1.0" encoding="UTF-8"?>
<svg xmlns="http://www.w3.org/2000/svg" version="1.1" height="320" width="320"><rect x="0" y="0" width="320" height="320" fill="rgb(192,192,192)" /><image x="0" y="0" href="49392/110335.png" width="64" height="64" /><image x="64" y="0" href="49392/106177.png" width="64" height="64" /><image x="128" y="0" href="49392/104391.png" width="64" height="64" /><image x="192" y="0" href="49392/104640.png" width="64" height="64" /><image x="256" y="0" href="49392/104930.png" width="64" height="64" /><image x="0" y="64" href="49392/114022.png" width="64" height="64" /><image x="64" y="64" href="49392/104558.png" width="64" height="64" /><image x="128" y="64" href="49392/104610.png" width="64" height="64" /><image x="192" y="64" href="49392/104637.png" width="64" height="64" /><image x="256" y="64" href="49392/104636.png" width="64" height="64" /><image x="0" y="128" href="49392/110329.png" width="64" height="64" /><image x="64" y="128" href="49392/110340.png" width="64" height="64" /><image x="128" y="128" href="49392/110388.png" width="64" height="64" /><image x="192" y="128" href="49392/110395.png" width="64" height="64" /><image x="256" y="128" href="49392/110330.png" width="64" height="64" /><image x="0" y="192" href="49392/110399.png" width="64" height="64" /><image x="64" y="192" href="49392/110394.png" width="64" height="64" /><image x="128" y="192" href="49392/110400.png" width="64" height="64" /><image x="192" y="192" href="49392/104634.png" width="64" height="64" /><image x="256" y="192" href="49392/106312.png" width="64" height="64" /><image x="0" y="256" href="49392/114023.png" width="64" height="64" /><image x="64" y="256" href="49392/104643.png" width="64" height="64" /><image x="128" y="256" href="49392/114024.png" width="64" height="64" /><image x="192" y="256" href="49392/105236.png" width="64" height="64" /></svg>