<?xml version="1.0" encoding="UTF-8"?>
<svg xmlns="http://www.w3.org/2000/svg" version="1.1" height="320" width="320"><rect x="0" y="0" width="320" height="320" fill="rgb(192,192,192)" /><image x="0" y="0" href="4949/106484.png" width="64" height="64" /><image x="64" y="0" href="4949/106494.png" width="64" height="64" /><image x="128" y="0" href="4949/24412.png" width="64" height="64" /><image x="192" y="0" href="4949/24411.png" width="64" height="64" /><image x="256" y="0" href="4949/107015.png" width="64" height="64" /><image x="0" y="64" href="4949/106508.png" width="64" height="64" /><image x="64" y="64" href="4949/106533.png" width="64" height="64" /><image x="128" y="64" href="4949/106921.png" width="64" height="64" /><image x="192" y="64" href="4949/106656.png" width="64" height="64" /><image x="256" y="64" href="4949/106675.png" width="64" height="64" /><image x="0" y="128" href="4949/106539.png" width="64" height="64" /><image x="64" y="128" href="4949/106658.png" width="64" height="64" /><image x="128" y="128" href="4949/106674.png" width="64" height="64" /><image x="192" y="128" href="4949/106670.png" width="64" height="64" /><image x="256" y="128" href="4949/106507.png" width="64" height="64" /><image x="0" y="192" href="4949/106522.png" width="64" height="64" /><image x="64" y="192" href="4949/106512.png" width="64" height="64" /><image x="128" y="192" href="4949/106511.png" width="64" height="64" /><image x="192" y="192" href="4949/106883.png" width="64" height="64" /><image x="256" y="192" href="4949/106681.png" width="64" height="64" /><image x="0" y="256" href="4949/106892.png" width="64" height="64" /><image x="64" y="256" href="4949/106499.png" width="64" height="64" /><image x="128" y="256" href="4949/106607.png" width="64" height="64" /><image x="192" y="256" href="4949/106542.png" width="64" height="64" /><image x="256" y="256" href="4949/192866.png" width="64" height="64" /></svg>