<?xml version="1.0" encoding="UTF-8"?>
<svg xmlns="http://www.w3.org/2000/svg" version="1.1" height="384" width="384"><rect x="0" y="0" width="384" height="384" fill="rgb(192,192,192)" /><image x="0" y="0" href="49914/102268.png" width="64" height="64" /><image x="64" y="0" href="49914/102990.png" width="64" height="64" /><image x="128" y="0" href="49914/101811.png" width="64" height="64" /><image x="192" y="0" href="49914/111990.png" width="64" height="64" /><image x="256" y="0" href="49914/101520.png" width="64" height="64" /><image x="320" y="0" href="49914/101684.png" width="64" height="64" /><image x="0" y="64" href="49914/101509.png" width="64" height="64" /><image x="64" y="64" href="49914/109625.png" width="64" height="64" /><image x="128" y="64" href="49914/109472.png" width="64" height="64" /><image x="192" y="64" href="49914/101510.png" width="64" height="64" /><image x="256" y="64" href="49914/110310.png" width="64" height="64" /><image x="320" y="64" href="49914/101689.png" width="64" height="64" /><image x="0" y="128" href="49914/133919.png" width="64" height="64" /><image x="64" y="128" href="49914/105278.png" width="64" height="64" /><image x="128" y="128" href="49914/133921.png" width="64" height="64" /><image x="192" y="128" href="49914/106875.png" width="64" height="64" /><image x="256" y="128" href="49914/107048.png" width="64" height="64" /><image x="320" y="128" href="49914/133918.png" width="64" height="64" /><image x="0" y="192" href="49914/133917.png" width="64" height="64" /><image x="64" y="192" href="49914/133920.png" width="64" height="64" /><image x="128" y="192" href="49914/133983.png" width="64" height="64" /><image x="192" y="192" href="49914/133981.png" width="64" height="64" /><image x="256" y="192" href="49914/203231.png" width="64" height="64" /><image x="320" y="192" href="49914/221112.png" width="64" height="64" /><image x="0" y="256" href="49914/266393.png" width="64" height="64" /><image x="64" y="256" href="49914/266425.png" width="64" height="64" /><image x="128" y="256" href="49914/101516.png" width="64" height="64" /><image x="192" y="256" href="49914/133982.png" width="64" height="64" /><image x="256" y="256" href="49914/275669.png" width="64" height="64" /></svg>