<?xml version="1.0" encoding="UTF-8"?>
<svg xmlns="http://www.w3.org/2000/svg" version="1.1" height="320" width="320"><rect x="0" y="0" width="320" height="320" fill="rgb(192,192,192)" /><image x="0" y="0" href="50012/177276.png" width="64" height="64" /><image x="64" y="0" href="50012/177279.png" width="64" height="64" /><image x="128" y="0" href="50012/191634.png" width="64" height="64" /><image x="192" y="0" href="50012/177259.png" width="64" height="64" /><image x="256" y="0" href="50012/177750.png" width="64" height="64" /><image x="0" y="64" href="50012/177269.png" width="64" height="64" /><image x="64" y="64" href="50012/177271.png" width="64" height="64" /><image x="128" y="64" href="50012/177288.png" width="64" height="64" /><image x="192" y="64" href="50012/177268.png" width="64" height="64" /><image x="256" y="64" href="50012/105967.png" width="64" height="64" /><image x="0" y="128" href="50012/177260.png" width="64" height="64" /><image x="64" y="128" href="50012/105966.png" width="64" height="64" /><image x="128" y="128" href="50012/105588.png" width="64" height="64" /><image x="192" y="128" href="50012/105875.png" width="64" height="64" /><image x="256" y="128" href="50012/105961.png" width="64" height="64" /><image x="0" y="192" href="50012/106215.png" width="64" height="64" /><image x="64" y="192" href="50012/268776.png" width="64" height="64" /><image x="128" y="192" href="50012/176865.png" width="64" height="64" /></svg>