<?xml version="1.0" encoding="UTF-8"?>
<svg xmlns="http://www.w3.org/2000/svg" version="1.1" height="384" width="384"><rect x="0" y="0" width="384" height="384" fill="rgb(192,192,192)" /><image x="0" y="0" href="50067/105672.png" width="64" height="64" /><image x="64" y="0" href="50067/106156.png" width="64" height="64" /><image x="128" y="0" href="50067/108211.png" width="64" height="64" /><image x="192" y="0" href="50067/108209.png" width="64" height="64" /><image x="256" y="0" href="50067/108213.png" width="64" height="64" /><image x="320" y="0" href="50067/85128.png" width="64" height="64" /><image x="0" y="64" href="50067/108217.png" width="64" height="64" /><image x="64" y="64" href="50067/85088.png" width="64" height="64" /><image x="128" y="64" href="50067/108221.png" width="64" height="64" /><image x="192" y="64" href="50067/108220.png" width="64" height="64" /><image x="256" y="64" href="50067/85105.png" width="64" height="64" /><image x="320" y="64" href="50067/108246.png" width="64" height="64" /><image x="0" y="128" href="50067/23443.png" width="64" height="64" /><image x="64" y="128" href="50067/108253.png" width="64" height="64" /><image x="128" y="128" href="50067/85106.png" width="64" height="64" /><image x="192" y="128" href="50067/108780.png" width="64" height="64" /><image x="256" y="128" href="50067/23423.png" width="64" height="64" /><image x="320" y="128" href="50067/108782.png" width="64" height="64" /><image x="0" y="192" href="50067/114228.png" width="64" height="64" /><image x="64" y="192" href="50067/84591.png" width="64" height="64" /><image x="128" y="192" href="50067/108849.png" width="64" height="64" /><image x="192" y="192" href="50067/88481.png" width="64" height="64" /><image x="256" y="192" href="50067/108850.png" width="64" height="64" /><image x="320" y="192" href="50067/84592.png" width="64" height="64" /><image x="0" y="256" href="50067/108789.png" width="64" height="64" /><image x="64" y="256" href="50067/84593.png" width="64" height="64" /><image x="128" y="256" href="50067/108790.png" width="64" height="64" /><image x="192" y="256" href="50067/84594.png" width="64" height="64" /><image x="256" y="256" href="50067/108846.png" width="64" height="64" /><image x="320" y="256" href="50067/23444.png" width="64" height="64" /><image x="0" y="320" href="50067/108864.png" width="64" height="64" /><image x="64" y="320" href="50067/84595.png" width="64" height="64" /><image x="128" y="320" href="50067/108847.png" width="64" height="64" /><image x="192" y="320" href="50067/23523.png" width="64" height="64" /></svg>