<?xml version="1.0" encoding="UTF-8"?>
<svg xmlns="http://www.w3.org/2000/svg" version="1.1" height="320" width="320"><rect x="0" y="0" width="320" height="320" fill="rgb(192,192,192)" /><image x="0" y="0" href="50228/107738.png" width="64" height="64" /><image x="64" y="0" href="50228/106577.png" width="64" height="64" /><image x="128" y="0" href="50228/106911.png" width="64" height="64" /><image x="192" y="0" href="50228/108335.png" width="64" height="64" /><image x="256" y="0" href="50228/106286.png" width="64" height="64" /><image x="0" y="64" href="50228/106278.png" width="64" height="64" /><image x="64" y="64" href="50228/107517.png" width="64" height="64" /><image x="128" y="64" href="50228/105973.png" width="64" height="64" /><image x="192" y="64" href="50228/105970.png" width="64" height="64" /><image x="256" y="64" href="50228/106479.png" width="64" height="64" /><image x="0" y="128" href="50228/106994.png" width="64" height="64" /><image x="64" y="128" href="50228/107308.png" width="64" height="64" /><image x="128" y="128" href="50228/106579.png" width="64" height="64" /><image x="192" y="128" href="50228/109985.png" width="64" height="64" /><image x="256" y="128" href="50228/107266.png" width="64" height="64" /><image x="0" y="192" href="50228/106571.png" width="64" height="64" /><image x="64" y="192" href="50228/107267.png" width="64" height="64" /><image x="128" y="192" href="50228/108012.png" width="64" height="64" /></svg>