<?xml version="1.0" encoding="UTF-8"?>
<svg xmlns="http://www.w3.org/2000/svg" version="1.1" height="640" width="640"><rect x="0" y="0" width="640" height="640" fill="rgb(192,192,192)" /><image x="0" y="0" href="50446/106891.png" width="64" height="64" /><image x="64" y="0" href="50446/106678.png" width="64" height="64" /><image x="128" y="0" href="50446/106676.png" width="64" height="64" /><image x="192" y="0" href="50446/107117.png" width="64" height="64" /><image x="256" y="0" href="50446/106575.png" width="64" height="64" /><image x="320" y="0" href="50446/106553.png" width="64" height="64" /><image x="384" y="0" href="50446/106535.png" width="64" height="64" /><image x="448" y="0" href="50446/106620.png" width="64" height="64" /><image x="512" y="0" href="50446/106677.png" width="64" height="64" /><image x="576" y="0" href="50446/106598.png" width="64" height="64" /><image x="0" y="64" href="50446/106554.png" width="64" height="64" /><image x="64" y="64" href="50446/106518.png" width="64" height="64" /><image x="128" y="64" href="50446/106527.png" width="64" height="64" /><image x="192" y="64" href="50446/106621.png" width="64" height="64" /><image x="256" y="64" href="50446/106516.png" width="64" height="64" /><image x="320" y="64" href="50446/106547.png" width="64" height="64" /><image x="384" y="64" href="50446/106686.png" width="64" height="64" /><image x="448" y="64" href="50446/106524.png" width="64" height="64" /><image x="512" y="64" href="50446/106537.png" width="64" height="64" /><image x="576" y="64" href="50446/106536.png" width="64" height="64" /><image x="0" y="128" href="50446/106526.png" width="64" height="64" /><image x="64" y="128" href="50446/106608.png" width="64" height="64" /><image x="128" y="128" href="50446/106513.png" width="64" height="64" /><image x="192" y="128" href="50446/106520.png" width="64" height="64" /><image x="256" y="128" href="50446/106523.png" width="64" height="64" /><image x="320" y="128" href="50446/106538.png" width="64" height="64" /><image x="384" y="128" href="50446/106587.png" width="64" height="64" /><image x="448" y="128" href="50446/106671.png" width="64" height="64" /><image x="512" y="128" href="50446/106563.png" width="64" height="64" /><image x="576" y="128" href="50446/106555.png" width="64" height="64" /><image x="0" y="192" href="50446/106618.png" width="64" height="64" /><image x="64" y="192" href="50446/106531.png" width="64" height="64" /><image x="128" y="192" href="50446/106551.png" width="64" height="64" /><image x="192" y="192" href="50446/106514.png" width="64" height="64" /><image x="256" y="192" href="50446/106668.png" width="64" height="64" /><image x="320" y="192" href="50446/106622.png" width="64" height="64" /><image x="384" y="192" href="50446/106623.png" width="64" height="64" /><image x="448" y="192" href="50446/106519.png" width="64" height="64" /><image x="512" y="192" href="50446/106521.png" width="64" height="64" /><image x="576" y="192" href="50446/106502.png" width="64" height="64" /><image x="0" y="256" href="50446/123044.png" width="64" height="64" /><image x="64" y="256" href="50446/123216.png" width="64" height="64" /><image x="128" y="256" href="50446/123218.png" width="64" height="64" /><image x="192" y="256" href="50446/123199.png" width="64" height="64" /><image x="256" y="256" href="50446/123200.png" width="64" height="64" /><image x="320" y="256" href="50446/123212.png" width="64" height="64" /><image x="384" y="256" href="50446/123213.png" width="64" height="64" /><image x="448" y="256" href="50446/123071.png" width="64" height="64" /><image x="512" y="256" href="50446/123045.png" width="64" height="64" /><image x="576" y="256" href="50446/123065.png" width="64" height="64" /><image x="0" y="320" href="50446/123217.png" width="64" height="64" /><image x="64" y="320" href="50446/123214.png" width="64" height="64" /><image x="128" y="320" href="50446/123069.png" width="64" height="64" /><image x="192" y="320" href="50446/134413.png" width="64" height="64" /><image x="256" y="320" href="50446/134252.png" width="64" height="64" /><image x="320" y="320" href="50446/134414.png" width="64" height="64" /><image x="384" y="320" href="50446/134253.png" width="64" height="64" /><image x="448" y="320" href="50446/134418.png" width="64" height="64" /><image x="512" y="320" href="50446/134254.png" width="64" height="64" /><image x="576" y="320" href="50446/134680.png" width="64" height="64" /><image x="0" y="384" href="50446/134480.png" width="64" height="64" /><image x="64" y="384" href="50446/134416.png" width="64" height="64" /><image x="128" y="384" href="50446/134371.png" width="64" height="64" /><image x="192" y="384" href="50446/134417.png" width="64" height="64" /><image x="256" y="384" href="50446/134481.png" width="64" height="64" /><image x="320" y="384" href="50446/134415.png" width="64" height="64" /><image x="384" y="384" href="50446/189530.png" width="64" height="64" /><image x="448" y="384" href="50446/189519.png" width="64" height="64" /><image x="512" y="384" href="50446/189529.png" width="64" height="64" /><image x="576" y="384" href="50446/187974.png" width="64" height="64" /><image x="0" y="448" href="50446/202909.png" width="64" height="64" /><image x="64" y="448" href="50446/202864.png" width="64" height="64" /><image x="128" y="448" href="50446/226285.png" width="64" height="64" /><image x="192" y="448" href="50446/226562.png" width="64" height="64" /><image x="256" y="448" href="50446/226563.png" width="64" height="64" /><image x="320" y="448" href="50446/274793.png" width="64" height="64" /><image x="384" y="448" href="50446/274784.png" width="64" height="64" /><image x="448" y="448" href="50446/274728.png" width="64" height="64" /><image x="512" y="448" href="50446/274785.png" width="64" height="64" /><image x="576" y="448" href="50446/274765.png" width="64" height="64" /><image x="0" y="512" href="50446/274727.png" width="64" height="64" /><image x="64" y="512" href="50446/278547.png" width="64" height="64" /><image x="128" y="512" href="50446/278586.png" width="64" height="64" /></svg>