<?xml version="1.0" encoding="UTF-8"?>
<svg xmlns="http://www.w3.org/2000/svg" version="1.1" height="256" width="256"><rect x="0" y="0" width="256" height="256" fill="rgb(192,192,192)" /><image x="0" y="0" href="50899/108018.png" width="64" height="64" /><image x="64" y="0" href="50899/105877.png" width="64" height="64" /><image x="128" y="0" href="50899/105882.png" width="64" height="64" /><image x="192" y="0" href="50899/108168.png" width="64" height="64" /><image x="0" y="64" href="50899/105917.png" width="64" height="64" /><image x="64" y="64" href="50899/105881.png" width="64" height="64" /><image x="128" y="64" href="50899/105904.png" width="64" height="64" /><image x="192" y="64" href="50899/105899.png" width="64" height="64" /><image x="0" y="128" href="50899/105874.png" width="64" height="64" /><image x="64" y="128" href="50899/105533.png" width="64" height="64" /><image x="128" y="128" href="50899/106184.png" width="64" height="64" /><image x="192" y="128" href="50899/105962.png" width="64" height="64" /><image x="0" y="192" href="50899/105876.png" width="64" height="64" /><image x="64" y="192" href="50899/105896.png" width="64" height="64" /></svg>