<?xml version="1.0" encoding="UTF-8"?>
<svg xmlns="http://www.w3.org/2000/svg" version="1.1" height="256" width="256"><rect x="0" y="0" width="256" height="256" fill="rgb(192,192,192)" /><image x="0" y="0" href="514/10012.png" width="64" height="64" /><image x="64" y="0" href="514/10015.png" width="64" height="64" /><image x="128" y="0" href="514/10016.png" width="64" height="64" /><image x="192" y="0" href="514/10017.png" width="64" height="64" /><image x="0" y="64" href="514/10018.png" width="64" height="64" /><image x="64" y="64" href="514/10019.png" width="64" height="64" /><image x="128" y="64" href="514/10020.png" width="64" height="64" /><image x="192" y="64" href="514/10021.png" width="64" height="64" /><image x="0" y="128" href="514/10022.png" width="64" height="64" /><image x="64" y="128" href="514/10023.png" width="64" height="64" /><image x="128" y="128" href="514/10039.png" width="64" height="64" /><image x="192" y="128" href="514/10024.png" width="64" height="64" /><image x="0" y="192" href="514/10025.png" width="64" height="64" /><image x="64" y="192" href="514/10026.png" width="64" height="64" /><image x="128" y="192" href="514/10027.png" width="64" height="64" /></svg>