<?xml version="1.0" encoding="UTF-8"?>
<svg xmlns="http://www.w3.org/2000/svg" version="1.1" height="256" width="256"><rect x="0" y="0" width="256" height="256" fill="rgb(192,192,192)" /><image x="0" y="0" href="51984/112008.png" width="64" height="64" /><image x="64" y="0" href="51984/112143.png" width="64" height="64" /><image x="128" y="0" href="51984/111845.png" width="64" height="64" /><image x="192" y="0" href="51984/112142.png" width="64" height="64" /><image x="0" y="64" href="51984/112009.png" width="64" height="64" /><image x="64" y="64" href="51984/112007.png" width="64" height="64" /><image x="128" y="64" href="51984/112003.png" width="64" height="64" /><image x="192" y="64" href="51984/112149.png" width="64" height="64" /><image x="0" y="128" href="51984/111957.png" width="64" height="64" /><image x="64" y="128" href="51984/111835.png" width="64" height="64" /><image x="128" y="128" href="51984/111461.png" width="64" height="64" /><image x="192" y="128" href="51984/112144.png" width="64" height="64" /><image x="0" y="192" href="51984/111112.png" width="64" height="64" /><image x="64" y="192" href="51984/111106.png" width="64" height="64" /><image x="128" y="192" href="51984/137459.png" width="64" height="64" /></svg>