<?xml version="1.0" encoding="UTF-8"?>
<svg xmlns="http://www.w3.org/2000/svg" version="1.1" height="320" width="320"><rect x="0" y="0" width="320" height="320" fill="rgb(192,192,192)" /><image x="0" y="0" href="5361/25491.png" width="64" height="64" /><image x="64" y="0" href="5361/26704.png" width="64" height="64" /><image x="128" y="0" href="5361/25407.png" width="64" height="64" /><image x="192" y="0" href="5361/25458.png" width="64" height="64" /><image x="256" y="0" href="5361/25390.png" width="64" height="64" /><image x="0" y="64" href="5361/25306.png" width="64" height="64" /><image x="64" y="64" href="5361/25371.png" width="64" height="64" /><image x="128" y="64" href="5361/25511.png" width="64" height="64" /><image x="192" y="64" href="5361/30378.png" width="64" height="64" /><image x="256" y="64" href="5361/29811.png" width="64" height="64" /><image x="0" y="128" href="5361/25492.png" width="64" height="64" /><image x="64" y="128" href="5361/25441.png" width="64" height="64" /><image x="128" y="128" href="5361/25479.png" width="64" height="64" /><image x="192" y="128" href="5361/25295.png" width="64" height="64" /><image x="256" y="128" href="5361/25337.png" width="64" height="64" /><image x="0" y="192" href="5361/25340.png" width="64" height="64" /><image x="64" y="192" href="5361/181845.png" width="64" height="64" /><image x="128" y="192" href="5361/256621.png" width="64" height="64" /></svg>