<?xml version="1.0" encoding="UTF-8"?>
<svg xmlns="http://www.w3.org/2000/svg" version="1.1" height="320" width="320"><rect x="0" y="0" width="320" height="320" fill="rgb(192,192,192)" /><image x="0" y="0" href="53883/19373.png" width="64" height="64" /><image x="64" y="0" href="53883/19562.png" width="64" height="64" /><image x="128" y="0" href="53883/19381.png" width="64" height="64" /><image x="192" y="0" href="53883/19427.png" width="64" height="64" /><image x="256" y="0" href="53883/128057.png" width="64" height="64" /><image x="0" y="64" href="53883/19392.png" width="64" height="64" /><image x="64" y="64" href="53883/19504.png" width="64" height="64" /><image x="128" y="64" href="53883/19621.png" width="64" height="64" /><image x="192" y="64" href="53883/19369.png" width="64" height="64" /><image x="256" y="64" href="53883/19579.png" width="64" height="64" /><image x="0" y="128" href="53883/19640.png" width="64" height="64" /><image x="64" y="128" href="53883/20342.png" width="64" height="64" /><image x="128" y="128" href="53883/19420.png" width="64" height="64" /><image x="192" y="128" href="53883/128047.png" width="64" height="64" /><image x="256" y="128" href="53883/19467.png" width="64" height="64" /><image x="0" y="192" href="53883/19492.png" width="64" height="64" /><image x="64" y="192" href="53883/19374.png" width="64" height="64" /><image x="128" y="192" href="53883/20343.png" width="64" height="64" /><image x="192" y="192" href="53883/19485.png" width="64" height="64" /><image x="256" y="192" href="53883/19460.png" width="64" height="64" /></svg>