<?xml version="1.0" encoding="UTF-8"?>
<svg xmlns="http://www.w3.org/2000/svg" version="1.1" height="576" width="576"><rect x="0" y="0" width="576" height="576" fill="rgb(192,192,192)" /><image x="0" y="0" href="53882/19418.png" width="64" height="64" /><image x="64" y="0" href="53882/19497.png" width="64" height="64" /><image x="128" y="0" href="53882/19620.png" width="64" height="64" /><image x="192" y="0" href="53882/20345.png" width="64" height="64" /><image x="256" y="0" href="53882/19644.png" width="64" height="64" /><image x="320" y="0" href="53882/19419.png" width="64" height="64" /><image x="384" y="0" href="53882/19466.png" width="64" height="64" /><image x="448" y="0" href="53882/19390.png" width="64" height="64" /><image x="512" y="0" href="53882/19507.png" width="64" height="64" /><image x="0" y="64" href="53882/19383.png" width="64" height="64" /><image x="64" y="64" href="53882/19423.png" width="64" height="64" /><image x="128" y="64" href="53882/19513.png" width="64" height="64" /><image x="192" y="64" href="53882/102952.png" width="64" height="64" /><image x="256" y="64" href="53882/19401.png" width="64" height="64" /><image x="320" y="64" href="53882/19371.png" width="64" height="64" /><image x="384" y="64" href="53882/19409.png" width="64" height="64" /><image x="448" y="64" href="53882/19366.png" width="64" height="64" /><image x="512" y="64" href="53882/19523.png" width="64" height="64" /><image x="0" y="128" href="53882/19552.png" width="64" height="64" /><image x="64" y="128" href="53882/19425.png" width="64" height="64" /><image x="128" y="128" href="53882/19405.png" width="64" height="64" /><image x="192" y="128" href="53882/19410.png" width="64" height="64" /><image x="256" y="128" href="53882/19545.png" width="64" height="64" /><image x="320" y="128" href="53882/19546.png" width="64" height="64" /><image x="384" y="128" href="53882/19402.png" width="64" height="64" /><image x="448" y="128" href="53882/19576.png" width="64" height="64" /><image x="512" y="128" href="53882/127337.png" width="64" height="64" /><image x="0" y="192" href="53882/19407.png" width="64" height="64" /><image x="64" y="192" href="53882/127336.png" width="64" height="64" /><image x="128" y="192" href="53882/19430.png" width="64" height="64" /><image x="192" y="192" href="53882/19631.png" width="64" height="64" /><image x="256" y="192" href="53882/177709.png" width="64" height="64" /><image x="320" y="192" href="53882/127432.png" width="64" height="64" /><image x="384" y="192" href="53882/127492.png" width="64" height="64" /><image x="448" y="192" href="53882/127476.png" width="64" height="64" /><image x="512" y="192" href="53882/19462.png" width="64" height="64" /><image x="0" y="256" href="53882/19533.png" width="64" height="64" /><image x="64" y="256" href="53882/19384.png" width="64" height="64" /><image x="128" y="256" href="53882/19491.png" width="64" height="64" /><image x="192" y="256" href="53882/19524.png" width="64" height="64" /><image x="256" y="256" href="53882/19578.png" width="64" height="64" /><image x="320" y="256" href="53882/19496.png" width="64" height="64" /><image x="384" y="256" href="53882/19395.png" width="64" height="64" /><image x="448" y="256" href="53882/19580.png" width="64" height="64" /><image x="512" y="256" href="53882/19639.png" width="64" height="64" /><image x="0" y="320" href="53882/19526.png" width="64" height="64" /><image x="64" y="320" href="53882/19632.png" width="64" height="64" /><image x="128" y="320" href="53882/19449.png" width="64" height="64" /><image x="192" y="320" href="53882/19487.png" width="64" height="64" /><image x="256" y="320" href="53882/19486.png" width="64" height="64" /><image x="320" y="320" href="53882/19569.png" width="64" height="64" /><image x="384" y="320" href="53882/20344.png" width="64" height="64" /><image x="448" y="320" href="53882/19436.png" width="64" height="64" /><image x="512" y="320" href="53882/19385.png" width="64" height="64" /><image x="0" y="384" href="53882/127598.png" width="64" height="64" /><image x="64" y="384" href="53882/127597.png" width="64" height="64" /><image x="128" y="384" href="53882/127596.png" width="64" height="64" /><image x="192" y="384" href="53882/127738.png" width="64" height="64" /><image x="256" y="384" href="53882/127740.png" width="64" height="64" /><image x="320" y="384" href="53882/130257.png" width="64" height="64" /><image x="384" y="384" href="53882/127781.png" width="64" height="64" /><image x="448" y="384" href="53882/127739.png" width="64" height="64" /><image x="512" y="384" href="53882/127745.png" width="64" height="64" /><image x="0" y="448" href="53882/127741.png" width="64" height="64" /><image x="64" y="448" href="53882/127713.png" width="64" height="64" /><image x="128" y="448" href="53882/127714.png" width="64" height="64" /><image x="192" y="448" href="53882/127742.png" width="64" height="64" /><image x="256" y="448" href="53882/127716.png" width="64" height="64" /><image x="320" y="448" href="53882/127715.png" width="64" height="64" /><image x="384" y="448" href="53882/127743.png" width="64" height="64" /><image x="448" y="448" href="53882/127744.png" width="64" height="64" /></svg>