<?xml version="1.0" encoding="UTF-8"?>
<svg xmlns="http://www.w3.org/2000/svg" version="1.1" height="320" width="320"><rect x="0" y="0" width="320" height="320" fill="rgb(192,192,192)" /><image x="0" y="0" href="57946/119055.png" width="64" height="64" /><image x="64" y="0" href="57946/119054.png" width="64" height="64" /><image x="128" y="0" href="57946/119358.png" width="64" height="64" /><image x="192" y="0" href="57946/119325.png" width="64" height="64" /><image x="256" y="0" href="57946/119323.png" width="64" height="64" /><image x="0" y="64" href="57946/119326.png" width="64" height="64" /><image x="64" y="64" href="57946/119322.png" width="64" height="64" /><image x="128" y="64" href="57946/119324.png" width="64" height="64" /><image x="192" y="64" href="57946/120124.png" width="64" height="64" /><image x="256" y="64" href="57946/123198.png" width="64" height="64" /><image x="0" y="128" href="57946/121701.png" width="64" height="64" /><image x="64" y="128" href="57946/121700.png" width="64" height="64" /><image x="128" y="128" href="57946/120627.png" width="64" height="64" /><image x="192" y="128" href="57946/120089.png" width="64" height="64" /><image x="256" y="128" href="57946/119448.png" width="64" height="64" /><image x="0" y="192" href="57946/119449.png" width="64" height="64" /><image x="64" y="192" href="57946/121400.png" width="64" height="64" /><image x="128" y="192" href="57946/119458.png" width="64" height="64" /><image x="192" y="192" href="57946/119459.png" width="64" height="64" /><image x="256" y="192" href="57946/121829.png" width="64" height="64" /><image x="0" y="256" href="57946/119460.png" width="64" height="64" /><image x="64" y="256" href="57946/120250.png" width="64" height="64" /><image x="128" y="256" href="57946/120553.png" width="64" height="64" /></svg>