<?xml version="1.0" encoding="UTF-8"?>
<svg xmlns="http://www.w3.org/2000/svg" version="1.1" height="448" width="448"><rect x="0" y="0" width="448" height="448" fill="rgb(192,192,192)" /><image x="0" y="0" href="58640/215356.png" width="64" height="64" /><image x="64" y="0" href="58640/120131.png" width="64" height="64" /><image x="128" y="0" href="58640/120132.png" width="64" height="64" /><image x="192" y="0" href="58640/120262.png" width="64" height="64" /><image x="256" y="0" href="58640/120098.png" width="64" height="64" /><image x="320" y="0" href="58640/120263.png" width="64" height="64" /><image x="384" y="0" href="58640/120264.png" width="64" height="64" /><image x="0" y="64" href="58640/120265.png" width="64" height="64" /><image x="64" y="64" href="58640/120260.png" width="64" height="64" /><image x="128" y="64" href="58640/120261.png" width="64" height="64" /><image x="192" y="64" href="58640/120266.png" width="64" height="64" /><image x="256" y="64" href="58640/120199.png" width="64" height="64" /><image x="320" y="64" href="58640/120202.png" width="64" height="64" /><image x="384" y="64" href="58640/120257.png" width="64" height="64" /><image x="0" y="128" href="58640/120258.png" width="64" height="64" /><image x="64" y="128" href="58640/120201.png" width="64" height="64" /><image x="128" y="128" href="58640/120259.png" width="64" height="64" /><image x="192" y="128" href="58640/120200.png" width="64" height="64" /><image x="256" y="128" href="58640/120267.png" width="64" height="64" /><image x="320" y="128" href="58640/120198.png" width="64" height="64" /><image x="384" y="128" href="58640/120188.png" width="64" height="64" /><image x="0" y="192" href="58640/120445.png" width="64" height="64" /><image x="64" y="192" href="58640/120610.png" width="64" height="64" /><image x="128" y="192" href="58640/120446.png" width="64" height="64" /><image x="192" y="192" href="58640/120452.png" width="64" height="64" /><image x="256" y="192" href="58640/120624.png" width="64" height="64" /><image x="320" y="192" href="58640/121119.png" width="64" height="64" /><image x="384" y="192" href="58640/121122.png" width="64" height="64" /><image x="0" y="256" href="58640/120609.png" width="64" height="64" /><image x="64" y="256" href="58640/120625.png" width="64" height="64" /><image x="128" y="256" href="58640/120608.png" width="64" height="64" /><image x="192" y="256" href="58640/121120.png" width="64" height="64" /><image x="256" y="256" href="58640/121121.png" width="64" height="64" /><image x="320" y="256" href="58640/121136.png" width="64" height="64" /><image x="384" y="256" href="58640/121937.png" width="64" height="64" /><image x="0" y="320" href="58640/122131.png" width="64" height="64" /><image x="64" y="320" href="58640/122129.png" width="64" height="64" /><image x="128" y="320" href="58640/122130.png" width="64" height="64" /><image x="192" y="320" href="58640/122667.png" width="64" height="64" /><image x="256" y="320" href="58640/130017.png" width="64" height="64" /></svg>