<?xml version="1.0" encoding="UTF-8"?>
<svg xmlns="http://www.w3.org/2000/svg" version="1.1" height="640" width="640"><rect x="0" y="0" width="640" height="640" fill="rgb(192,192,192)" /><image x="0" y="0" href="5943/27212.png" width="64" height="64" /><image x="64" y="0" href="5943/27194.png" width="64" height="64" /><image x="128" y="0" href="5943/137599.png" width="64" height="64" /><image x="192" y="0" href="5943/27198.png" width="64" height="64" /><image x="256" y="0" href="5943/137440.png" width="64" height="64" /><image x="320" y="0" href="5943/27184.png" width="64" height="64" /><image x="384" y="0" href="5943/137434.png" width="64" height="64" /><image x="448" y="0" href="5943/106649.png" width="64" height="64" /><image x="512" y="0" href="5943/137433.png" width="64" height="64" /><image x="576" y="0" href="5943/106493.png" width="64" height="64" /><image x="0" y="64" href="5943/137431.png" width="64" height="64" /><image x="64" y="64" href="5943/27226.png" width="64" height="64" /><image x="128" y="64" href="5943/137426.png" width="64" height="64" /><image x="192" y="64" href="5943/106496.png" width="64" height="64" /><image x="256" y="64" href="5943/136893.png" width="64" height="64" /><image x="320" y="64" href="5943/27185.png" width="64" height="64" /><image x="384" y="64" href="5943/137435.png" width="64" height="64" /><image x="448" y="64" href="5943/27188.png" width="64" height="64" /><image x="512" y="64" href="5943/137436.png" width="64" height="64" /><image x="576" y="64" href="5943/27203.png" width="64" height="64" /><image x="0" y="128" href="5943/137432.png" width="64" height="64" /><image x="64" y="128" href="5943/27205.png" width="64" height="64" /><image x="128" y="128" href="5943/137427.png" width="64" height="64" /><image x="192" y="128" href="5943/27186.png" width="64" height="64" /><image x="256" y="128" href="5943/137454.png" width="64" height="64" /><image x="320" y="128" href="5943/27200.png" width="64" height="64" /><image x="384" y="128" href="5943/137428.png" width="64" height="64" /><image x="448" y="128" href="5943/27554.png" width="64" height="64" /><image x="512" y="128" href="5943/137451.png" width="64" height="64" /><image x="576" y="128" href="5943/106546.png" width="64" height="64" /><image x="0" y="192" href="5943/137425.png" width="64" height="64" /><image x="64" y="192" href="5943/213221.png" width="64" height="64" /><image x="128" y="192" href="5943/213222.png" width="64" height="64" /><image x="192" y="192" href="5943/212974.png" width="64" height="64" /><image x="256" y="192" href="5943/212975.png" width="64" height="64" /><image x="320" y="192" href="5943/213956.png" width="64" height="64" /><image x="384" y="192" href="5943/213840.png" width="64" height="64" /><image x="448" y="192" href="5943/244612.png" width="64" height="64" /><image x="512" y="192" href="5943/214042.png" width="64" height="64" /><image x="576" y="192" href="5943/244728.png" width="64" height="64" /><image x="0" y="256" href="5943/213700.png" width="64" height="64" /><image x="64" y="256" href="5943/213983.png" width="64" height="64" /><image x="128" y="256" href="5943/213935.png" width="64" height="64" /><image x="192" y="256" href="5943/214800.png" width="64" height="64" /><image x="256" y="256" href="5943/214591.png" width="64" height="64" /><image x="320" y="256" href="5943/216333.png" width="64" height="64" /><image x="384" y="256" href="5943/216867.png" width="64" height="64" /><image x="448" y="256" href="5943/216893.png" width="64" height="64" /><image x="512" y="256" href="5943/217367.png" width="64" height="64" /><image x="576" y="256" href="5943/237816.png" width="64" height="64" /><image x="0" y="320" href="5943/252663.png" width="64" height="64" /><image x="64" y="320" href="5943/219074.png" width="64" height="64" /><image x="128" y="320" href="5943/220796.png" width="64" height="64" /><image x="192" y="320" href="5943/233774.png" width="64" height="64" /><image x="256" y="320" href="5943/230738.png" width="64" height="64" /><image x="320" y="320" href="5943/229446.png" width="64" height="64" /><image x="384" y="320" href="5943/232285.png" width="64" height="64" /><image x="448" y="320" href="5943/235567.png" width="64" height="64" /><image x="512" y="320" href="5943/235813.png" width="64" height="64" /><image x="576" y="320" href="5943/237339.png" width="64" height="64" /><image x="0" y="384" href="5943/237300.png" width="64" height="64" /><image x="64" y="384" href="5943/237712.png" width="64" height="64" /><image x="128" y="384" href="5943/238386.png" width="64" height="64" /><image x="192" y="384" href="5943/239914.png" width="64" height="64" /><image x="256" y="384" href="5943/239535.png" width="64" height="64" /><image x="320" y="384" href="5943/239950.png" width="64" height="64" /><image x="384" y="384" href="5943/240164.png" width="64" height="64" /><image x="448" y="384" href="5943/240169.png" width="64" height="64" /><image x="512" y="384" href="5943/240445.png" width="64" height="64" /><image x="576" y="384" href="5943/240473.png" width="64" height="64" /><image x="0" y="448" href="5943/240925.png" width="64" height="64" /><image x="64" y="448" href="5943/241023.png" width="64" height="64" /><image x="128" y="448" href="5943/241901.png" width="64" height="64" /><image x="192" y="448" href="5943/241902.png" width="64" height="64" /><image x="256" y="448" href="5943/242455.png" width="64" height="64" /><image x="320" y="448" href="5943/242583.png" width="64" height="64" /><image x="384" y="448" href="5943/242405.png" width="64" height="64" /><image x="448" y="448" href="5943/244736.png" width="64" height="64" /><image x="512" y="448" href="5943/247209.png" width="64" height="64" /><image x="576" y="448" href="5943/251385.png" width="64" height="64" /><image x="0" y="512" href="5943/259961.png" width="64" height="64" /><image x="64" y="512" href="5943/259987.png" width="64" height="64" /><image x="128" y="512" href="5943/260069.png" width="64" height="64" /></svg>