<?xml version="1.0" encoding="UTF-8"?>
<svg xmlns="http://www.w3.org/2000/svg" version="1.1" height="320" width="320"><rect x="0" y="0" width="320" height="320" fill="rgb(192,192,192)" /><image x="0" y="0" href="600/10556.png" width="64" height="64" /><image x="64" y="0" href="600/10557.png" width="64" height="64" /><image x="128" y="0" href="600/10558.png" width="64" height="64" /><image x="192" y="0" href="600/10559.png" width="64" height="64" /><image x="256" y="0" href="600/10560.png" width="64" height="64" /><image x="0" y="64" href="600/26180.png" width="64" height="64" /><image x="64" y="64" href="600/26189.png" width="64" height="64" /><image x="128" y="64" href="600/10561.png" width="64" height="64" /><image x="192" y="64" href="600/25767.png" width="64" height="64" /><image x="256" y="64" href="600/10562.png" width="64" height="64" /><image x="0" y="128" href="600/10563.png" width="64" height="64" /><image x="64" y="128" href="600/25867.png" width="64" height="64" /><image x="128" y="128" href="600/10564.png" width="64" height="64" /><image x="192" y="128" href="600/26190.png" width="64" height="64" /><image x="256" y="128" href="600/10565.png" width="64" height="64" /><image x="0" y="192" href="600/10566.png" width="64" height="64" /><image x="64" y="192" href="600/26068.png" width="64" height="64" /><image x="128" y="192" href="600/25865.png" width="64" height="64" /></svg>