<?xml version="1.0" encoding="UTF-8"?>
<svg xmlns="http://www.w3.org/2000/svg" version="1.1" height="384" width="384"><rect x="0" y="0" width="384" height="384" fill="rgb(192,192,192)" /><image x="0" y="0" href="60455/207987.png" width="64" height="64" /><image x="64" y="0" href="60455/207884.png" width="64" height="64" /><image x="128" y="0" href="60455/84526.png" width="64" height="64" /><image x="192" y="0" href="60455/84528.png" width="64" height="64" /><image x="256" y="0" href="60455/54772.png" width="64" height="64" /><image x="320" y="0" href="60455/123039.png" width="64" height="64" /><image x="0" y="64" href="60455/40865.png" width="64" height="64" /><image x="64" y="64" href="60455/40862.png" width="64" height="64" /><image x="128" y="64" href="60455/123042.png" width="64" height="64" /><image x="192" y="64" href="60455/123041.png" width="64" height="64" /><image x="256" y="64" href="60455/123077.png" width="64" height="64" /><image x="320" y="64" href="60455/39499.png" width="64" height="64" /><image x="0" y="128" href="60455/84524.png" width="64" height="64" /><image x="64" y="128" href="60455/39493.png" width="64" height="64" /><image x="128" y="128" href="60455/123066.png" width="64" height="64" /><image x="192" y="128" href="60455/39575.png" width="64" height="64" /><image x="256" y="128" href="60455/123079.png" width="64" height="64" /><image x="320" y="128" href="60455/84525.png" width="64" height="64" /><image x="0" y="192" href="60455/39486.png" width="64" height="64" /><image x="64" y="192" href="60455/123080.png" width="64" height="64" /><image x="128" y="192" href="60455/123078.png" width="64" height="64" /><image x="192" y="192" href="60455/123304.png" width="64" height="64" /><image x="256" y="192" href="60455/123040.png" width="64" height="64" /><image x="320" y="192" href="60455/123068.png" width="64" height="64" /><image x="0" y="256" href="60455/123064.png" width="64" height="64" /><image x="64" y="256" href="60455/203518.png" width="64" height="64" /><image x="128" y="256" href="60455/54923.png" width="64" height="64" /><image x="192" y="256" href="60455/123067.png" width="64" height="64" /><image x="256" y="256" href="60455/209112.png" width="64" height="64" /><image x="320" y="256" href="60455/39437.png" width="64" height="64" /><image x="0" y="320" href="60455/39471.png" width="64" height="64" /><image x="64" y="320" href="60455/39478.png" width="64" height="64" /></svg>