<?xml version="1.0" encoding="UTF-8"?>
<svg xmlns="http://www.w3.org/2000/svg" version="1.1" height="640" width="640"><rect x="0" y="0" width="640" height="640" fill="rgb(192,192,192)" /><image x="0" y="0" href="60982/113466.png" width="64" height="64" /><image x="64" y="0" href="60982/120270.png" width="64" height="64" /><image x="128" y="0" href="60982/120110.png" width="64" height="64" /><image x="192" y="0" href="60982/120106.png" width="64" height="64" /><image x="256" y="0" href="60982/120108.png" width="64" height="64" /><image x="320" y="0" href="60982/120105.png" width="64" height="64" /><image x="384" y="0" href="60982/120104.png" width="64" height="64" /><image x="448" y="0" href="60982/120103.png" width="64" height="64" /><image x="512" y="0" href="60982/119555.png" width="64" height="64" /><image x="576" y="0" href="60982/120272.png" width="64" height="64" /><image x="0" y="64" href="60982/114326.png" width="64" height="64" /><image x="64" y="64" href="60982/124436.png" width="64" height="64" /><image x="128" y="64" href="60982/124426.png" width="64" height="64" /><image x="192" y="64" href="60982/124169.png" width="64" height="64" /><image x="256" y="64" href="60982/129178.png" width="64" height="64" /><image x="320" y="64" href="60982/124427.png" width="64" height="64" /><image x="384" y="64" href="60982/124438.png" width="64" height="64" /><image x="448" y="64" href="60982/124084.png" width="64" height="64" /><image x="512" y="64" href="60982/124428.png" width="64" height="64" /><image x="576" y="64" href="60982/124429.png" width="64" height="64" /><image x="0" y="128" href="60982/124784.png" width="64" height="64" /><image x="64" y="128" href="60982/124439.png" width="64" height="64" /><image x="128" y="128" href="60982/124082.png" width="64" height="64" /><image x="192" y="128" href="60982/124699.png" width="64" height="64" /><image x="256" y="128" href="60982/124431.png" width="64" height="64" /><image x="320" y="128" href="60982/124364.png" width="64" height="64" /><image x="384" y="128" href="60982/124430.png" width="64" height="64" /><image x="448" y="128" href="60982/124105.png" width="64" height="64" /><image x="512" y="128" href="60982/124374.png" width="64" height="64" /><image x="576" y="128" href="60982/124437.png" width="64" height="64" /><image x="0" y="192" href="60982/124163.png" width="64" height="64" /><image x="64" y="192" href="60982/124106.png" width="64" height="64" /><image x="128" y="192" href="60982/124697.png" width="64" height="64" /><image x="192" y="192" href="60982/124735.png" width="64" height="64" /><image x="256" y="192" href="60982/124754.png" width="64" height="64" /><image x="320" y="192" href="60982/124736.png" width="64" height="64" /><image x="384" y="192" href="60982/124698.png" width="64" height="64" /><image x="448" y="192" href="60982/124686.png" width="64" height="64" /><image x="512" y="192" href="60982/124441.png" width="64" height="64" /><image x="576" y="192" href="60982/124424.png" width="64" height="64" /><image x="0" y="256" href="60982/124446.png" width="64" height="64" /><image x="64" y="256" href="60982/124362.png" width="64" height="64" /><image x="128" y="256" href="60982/124440.png" width="64" height="64" /><image x="192" y="256" href="60982/124415.png" width="64" height="64" /><image x="256" y="256" href="60982/124416.png" width="64" height="64" /><image x="320" y="256" href="60982/126199.png" width="64" height="64" /><image x="384" y="256" href="60982/125389.png" width="64" height="64" /><image x="448" y="256" href="60982/126198.png" width="64" height="64" /><image x="512" y="256" href="60982/124461.png" width="64" height="64" /><image x="576" y="256" href="60982/124453.png" width="64" height="64" /><image x="0" y="320" href="60982/124425.png" width="64" height="64" /><image x="64" y="320" href="60982/124417.png" width="64" height="64" /><image x="128" y="320" href="60982/124363.png" width="64" height="64" /><image x="192" y="320" href="60982/124447.png" width="64" height="64" /><image x="256" y="320" href="60982/124365.png" width="64" height="64" /><image x="320" y="320" href="60982/124432.png" width="64" height="64" /><image x="384" y="320" href="60982/124366.png" width="64" height="64" /><image x="448" y="320" href="60982/124418.png" width="64" height="64" /><image x="512" y="320" href="60982/124422.png" width="64" height="64" /><image x="576" y="320" href="60982/124423.png" width="64" height="64" /><image x="0" y="384" href="60982/124454.png" width="64" height="64" /><image x="64" y="384" href="60982/124843.png" width="64" height="64" /><image x="128" y="384" href="60982/124855.png" width="64" height="64" /><image x="192" y="384" href="60982/124844.png" width="64" height="64" /><image x="256" y="384" href="60982/124900.png" width="64" height="64" /><image x="320" y="384" href="60982/124851.png" width="64" height="64" /><image x="384" y="384" href="60982/124903.png" width="64" height="64" /><image x="448" y="384" href="60982/124899.png" width="64" height="64" /><image x="512" y="384" href="60982/124433.png" width="64" height="64" /><image x="576" y="384" href="60982/124846.png" width="64" height="64" /><image x="0" y="448" href="60982/124986.png" width="64" height="64" /><image x="64" y="448" href="60982/124850.png" width="64" height="64" /><image x="128" y="448" href="60982/124434.png" width="64" height="64" /><image x="192" y="448" href="60982/124987.png" width="64" height="64" /><image x="256" y="448" href="60982/124902.png" width="64" height="64" /><image x="320" y="448" href="60982/124901.png" width="64" height="64" /><image x="384" y="448" href="60982/124852.png" width="64" height="64" /><image x="448" y="448" href="60982/124887.png" width="64" height="64" /><image x="512" y="448" href="60982/124849.png" width="64" height="64" /><image x="576" y="448" href="60982/124853.png" width="64" height="64" /><image x="0" y="512" href="60982/124907.png" width="64" height="64" /><image x="64" y="512" href="60982/124848.png" width="64" height="64" /><image x="128" y="512" href="60982/124845.png" width="64" height="64" /><image x="192" y="512" href="60982/124854.png" width="64" height="64" /><image x="256" y="512" href="60982/125066.png" width="64" height="64" /><image x="320" y="512" href="60982/125065.png" width="64" height="64" /><image x="384" y="512" href="60982/125361.png" width="64" height="64" /><image x="448" y="512" href="60982/124847.png" width="64" height="64" /></svg>