<?xml version="1.0" encoding="UTF-8"?>
<svg xmlns="http://www.w3.org/2000/svg" version="1.1" height="768" width="768"><rect x="0" y="0" width="768" height="768" fill="rgb(192,192,192)" /><image x="0" y="0" href="61449/186990.png" width="64" height="64" /><image x="64" y="0" href="61449/213414.png" width="64" height="64" /><image x="128" y="0" href="61449/217476.png" width="64" height="64" /><image x="192" y="0" href="61449/47525.png" width="64" height="64" /><image x="256" y="0" href="61449/47530.png" width="64" height="64" /><image x="320" y="0" href="61449/49161.png" width="64" height="64" /><image x="384" y="0" href="61449/47577.png" width="64" height="64" /><image x="448" y="0" href="61449/46661.png" width="64" height="64" /><image x="512" y="0" href="61449/189989.png" width="64" height="64" /><image x="576" y="0" href="61449/181058.png" width="64" height="64" /><image x="640" y="0" href="61449/181050.png" width="64" height="64" /><image x="704" y="0" href="61449/181041.png" width="64" height="64" /><image x="0" y="64" href="61449/181138.png" width="64" height="64" /><image x="64" y="64" href="61449/216802.png" width="64" height="64" /><image x="128" y="64" href="61449/214363.png" width="64" height="64" /><image x="192" y="64" href="61449/214382.png" width="64" height="64" /><image x="256" y="64" href="61449/214374.png" width="64" height="64" /><image x="320" y="64" href="61449/208830.png" width="64" height="64" /><image x="384" y="64" href="61449/208856.png" width="64" height="64" /><image x="448" y="64" href="61449/186975.png" width="64" height="64" /><image x="512" y="64" href="61449/216720.png" width="64" height="64" /><image x="576" y="64" href="61449/187058.png" width="64" height="64" /><image x="640" y="64" href="61449/189697.png" width="64" height="64" /><image x="704" y="64" href="61449/186983.png" width="64" height="64" /><image x="0" y="128" href="61449/205689.png" width="64" height="64" /><image x="64" y="128" href="61449/186984.png" width="64" height="64" /><image x="128" y="128" href="61449/189931.png" width="64" height="64" /><image x="192" y="128" href="61449/191545.png" width="64" height="64" /><image x="256" y="128" href="61449/191488.png" width="64" height="64" /><image x="320" y="128" href="61449/181135.png" width="64" height="64" /><image x="384" y="128" href="61449/181134.png" width="64" height="64" /><image x="448" y="128" href="61449/191354.png" width="64" height="64" /><image x="512" y="128" href="61449/191514.png" width="64" height="64" /><image x="576" y="128" href="61449/191542.png" width="64" height="64" /><image x="640" y="128" href="61449/191515.png" width="64" height="64" /><image x="704" y="128" href="61449/191544.png" width="64" height="64" /><image x="0" y="192" href="61449/191539.png" width="64" height="64" /><image x="64" y="192" href="61449/186547.png" width="64" height="64" /><image x="128" y="192" href="61449/186235.png" width="64" height="64" /><image x="192" y="192" href="61449/186548.png" width="64" height="64" /><image x="256" y="192" href="61449/181475.png" width="64" height="64" /><image x="320" y="192" href="61449/191509.png" width="64" height="64" /><image x="384" y="192" href="61449/191511.png" width="64" height="64" /><image x="448" y="192" href="61449/191973.png" width="64" height="64" /><image x="512" y="192" href="61449/191833.png" width="64" height="64" /><image x="576" y="192" href="61449/191681.png" width="64" height="64" /><image x="640" y="192" href="61449/191947.png" width="64" height="64" /><image x="704" y="192" href="61449/191536.png" width="64" height="64" /><image x="0" y="256" href="61449/234433.png" width="64" height="64" /><image x="64" y="256" href="61449/191520.png" width="64" height="64" /><image x="128" y="256" href="61449/189932.png" width="64" height="64" /><image x="192" y="256" href="61449/216693.png" width="64" height="64" /><image x="256" y="256" href="61449/189659.png" width="64" height="64" /><image x="320" y="256" href="61449/188348.png" width="64" height="64" /><image x="384" y="256" href="61449/218055.png" width="64" height="64" /><image x="448" y="256" href="61449/125543.png" width="64" height="64" /><image x="512" y="256" href="61449/220510.png" width="64" height="64" /><image x="576" y="256" href="61449/126533.png" width="64" height="64" /><image x="640" y="256" href="61449/125724.png" width="64" height="64" /><image x="704" y="256" href="61449/138499.png" width="64" height="64" /><image x="0" y="320" href="61449/125730.png" width="64" height="64" /><image x="64" y="320" href="61449/126028.png" width="64" height="64" /><image x="128" y="320" href="61449/126532.png" width="64" height="64" /><image x="192" y="320" href="61449/126031.png" width="64" height="64" /><image x="256" y="320" href="61449/138500.png" width="64" height="64" /><image x="320" y="320" href="61449/217512.png" width="64" height="64" /><image x="384" y="320" href="61449/125725.png" width="64" height="64" /><image x="448" y="320" href="61449/126057.png" width="64" height="64" /><image x="512" y="320" href="61449/126027.png" width="64" height="64" /><image x="576" y="320" href="61449/126035.png" width="64" height="64" /><image x="640" y="320" href="61449/125729.png" width="64" height="64" /><image x="704" y="320" href="61449/126034.png" width="64" height="64" /><image x="0" y="384" href="61449/125727.png" width="64" height="64" /><image x="64" y="384" href="61449/126534.png" width="64" height="64" /><image x="128" y="384" href="61449/216801.png" width="64" height="64" /><image x="192" y="384" href="61449/126881.png" width="64" height="64" /><image x="256" y="384" href="61449/125183.png" width="64" height="64" /><image x="320" y="384" href="61449/125181.png" width="64" height="64" /><image x="384" y="384" href="61449/125185.png" width="64" height="64" /><image x="448" y="384" href="61449/125180.png" width="64" height="64" /><image x="512" y="384" href="61449/216892.png" width="64" height="64" /><image x="576" y="384" href="61449/125114.png" width="64" height="64" /><image x="640" y="384" href="61449/125176.png" width="64" height="64" /><image x="704" y="384" href="61449/123567.png" width="64" height="64" /><image x="0" y="448" href="61449/123644.png" width="64" height="64" /><image x="64" y="448" href="61449/123732.png" width="64" height="64" /><image x="128" y="448" href="61449/123740.png" width="64" height="64" /><image x="192" y="448" href="61449/123998.png" width="64" height="64" /><image x="256" y="448" href="61449/123802.png" width="64" height="64" /><image x="320" y="448" href="61449/123808.png" width="64" height="64" /><image x="384" y="448" href="61449/123809.png" width="64" height="64" /><image x="448" y="448" href="61449/123807.png" width="64" height="64" /><image x="512" y="448" href="61449/123906.png" width="64" height="64" /><image x="576" y="448" href="61449/123909.png" width="64" height="64" /><image x="640" y="448" href="61449/123914.png" width="64" height="64" /><image x="704" y="448" href="61449/123907.png" width="64" height="64" /><image x="0" y="512" href="61449/123908.png" width="64" height="64" /><image x="64" y="512" href="61449/123910.png" width="64" height="64" /><image x="128" y="512" href="61449/123913.png" width="64" height="64" /><image x="192" y="512" href="61449/216965.png" width="64" height="64" /><image x="256" y="512" href="61449/123990.png" width="64" height="64" /><image x="320" y="512" href="61449/124162.png" width="64" height="64" /><image x="384" y="512" href="61449/124460.png" width="64" height="64" /><image x="448" y="512" href="61449/124898.png" width="64" height="64" /><image x="512" y="512" href="61449/125117.png" width="64" height="64" /><image x="576" y="512" href="61449/124942.png" width="64" height="64" /><image x="640" y="512" href="61449/125118.png" width="64" height="64" /><image x="704" y="512" href="61449/125113.png" width="64" height="64" /><image x="0" y="576" href="61449/125115.png" width="64" height="64" /><image x="64" y="576" href="61449/125112.png" width="64" height="64" /><image x="128" y="576" href="61449/221139.png" width="64" height="64" /><image x="192" y="576" href="61449/235723.png" width="64" height="64" /><image x="256" y="576" href="61449/225856.png" width="64" height="64" /><image x="320" y="576" href="61449/233107.png" width="64" height="64" /><image x="384" y="576" href="61449/232883.png" width="64" height="64" /><image x="448" y="576" href="61449/249124.png" width="64" height="64" /><image x="512" y="576" href="61449/236119.png" width="64" height="64" /><image x="576" y="576" href="61449/237687.png" width="64" height="64" /><image x="640" y="576" href="61449/238009.png" width="64" height="64" /><image x="704" y="576" href="61449/235868.png" width="64" height="64" /><image x="0" y="640" href="61449/247303.png" width="64" height="64" /><image x="64" y="640" href="61449/238278.png" width="64" height="64" /><image x="128" y="640" href="61449/240501.png" width="64" height="64" /><image x="192" y="640" href="61449/235724.png" width="64" height="64" /><image x="256" y="640" href="61449/249746.png" width="64" height="64" /><image x="320" y="640" href="61449/249745.png" width="64" height="64" /><image x="384" y="640" href="61449/241169.png" width="64" height="64" /><image x="448" y="640" href="61449/236069.png" width="64" height="64" /><image x="512" y="640" href="61449/240526.png" width="64" height="64" /><image x="576" y="640" href="61449/282460.png" width="64" height="64" /><image x="640" y="640" href="61449/281798.png" width="64" height="64" /><image x="704" y="640" href="61449/281229.png" width="64" height="64" /></svg>