<?xml version="1.0" encoding="UTF-8"?>
<svg xmlns="http://www.w3.org/2000/svg" version="1.1" height="1536" width="1536"><rect x="0" y="0" width="1536" height="1536" fill="rgb(192,192,192)" /><image x="0" y="0" href="61654/125940.png" width="64" height="64" /><image x="64" y="0" href="61654/125797.png" width="64" height="64" /><image x="128" y="0" href="61654/125798.png" width="64" height="64" /><image x="192" y="0" href="61654/125793.png" width="64" height="64" /><image x="256" y="0" href="61654/125794.png" width="64" height="64" /><image x="320" y="0" href="61654/125795.png" width="64" height="64" /><image x="384" y="0" href="61654/125796.png" width="64" height="64" /><image x="448" y="0" href="61654/125800.png" width="64" height="64" /><image x="512" y="0" href="61654/125799.png" width="64" height="64" /><image x="576" y="0" href="61654/125898.png" width="64" height="64" /><image x="640" y="0" href="61654/125895.png" width="64" height="64" /><image x="704" y="0" href="61654/125896.png" width="64" height="64" /><image x="768" y="0" href="61654/125899.png" width="64" height="64" /><image x="832" y="0" href="61654/125897.png" width="64" height="64" /><image x="896" y="0" href="61654/125893.png" width="64" height="64" /><image x="960" y="0" href="61654/125894.png" width="64" height="64" /><image x="1024" y="0" href="61654/125900.png" width="64" height="64" /><image x="1088" y="0" href="61654/125903.png" width="64" height="64" /><image x="1152" y="0" href="61654/125906.png" width="64" height="64" /><image x="1216" y="0" href="61654/125908.png" width="64" height="64" /><image x="1280" y="0" href="61654/125904.png" width="64" height="64" /><image x="1344" y="0" href="61654/125907.png" width="64" height="64" /><image x="1408" y="0" href="61654/125905.png" width="64" height="64" /><image x="1472" y="0" href="61654/125901.png" width="64" height="64" /><image x="0" y="64" href="61654/125902.png" width="64" height="64" /><image x="64" y="64" href="61654/125892.png" width="64" height="64" /><image x="128" y="64" href="61654/125911.png" width="64" height="64" /><image x="192" y="64" href="61654/125912.png" width="64" height="64" /><image x="256" y="64" href="61654/125909.png" width="64" height="64" /><image x="320" y="64" href="61654/125910.png" width="64" height="64" /><image x="384" y="64" href="61654/125913.png" width="64" height="64" /><image x="448" y="64" href="61654/125914.png" width="64" height="64" /><image x="512" y="64" href="61654/125915.png" width="64" height="64" /><image x="576" y="64" href="61654/125916.png" width="64" height="64" /><image x="640" y="64" href="61654/125923.png" width="64" height="64" /><image x="704" y="64" href="61654/125917.png" width="64" height="64" /><image x="768" y="64" href="61654/125918.png" width="64" height="64" /><image x="832" y="64" href="61654/125920.png" width="64" height="64" /><image x="896" y="64" href="61654/125921.png" width="64" height="64" /><image x="960" y="64" href="61654/125919.png" width="64" height="64" /><image x="1024" y="64" href="61654/125926.png" width="64" height="64" /><image x="1088" y="64" href="61654/125924.png" width="64" height="64" /><image x="1152" y="64" href="61654/125927.png" width="64" height="64" /><image x="1216" y="64" href="61654/125929.png" width="64" height="64" /><image x="1280" y="64" href="61654/125922.png" width="64" height="64" /><image x="1344" y="64" href="61654/125931.png" width="64" height="64" /><image x="1408" y="64" href="61654/125925.png" width="64" height="64" /><image x="1472" y="64" href="61654/125928.png" width="64" height="64" /><image x="0" y="128" href="61654/125932.png" width="64" height="64" /><image x="64" y="128" href="61654/125933.png" width="64" height="64" /><image x="128" y="128" href="61654/125937.png" width="64" height="64" /><image x="192" y="128" href="61654/125930.png" width="64" height="64" /><image x="256" y="128" href="61654/125936.png" width="64" height="64" /><image x="320" y="128" href="61654/125934.png" width="64" height="64" /><image x="384" y="128" href="61654/125935.png" width="64" height="64" /><image x="448" y="128" href="61654/125942.png" width="64" height="64" /><image x="512" y="128" href="61654/125941.png" width="64" height="64" /><image x="576" y="128" href="61654/125578.png" width="64" height="64" /><image x="640" y="128" href="61654/125579.png" width="64" height="64" /><image x="704" y="128" href="61654/125580.png" width="64" height="64" /><image x="768" y="128" href="61654/125581.png" width="64" height="64" /><image x="832" y="128" href="61654/125582.png" width="64" height="64" /><image x="896" y="128" href="61654/125584.png" width="64" height="64" /><image x="960" y="128" href="61654/125583.png" width="64" height="64" /><image x="1024" y="128" href="61654/125586.png" width="64" height="64" /><image x="1088" y="128" href="61654/125585.png" width="64" height="64" /><image x="1152" y="128" href="61654/125595.png" width="64" height="64" /><image x="1216" y="128" href="61654/125596.png" width="64" height="64" /><image x="1280" y="128" href="61654/125598.png" width="64" height="64" /><image x="1344" y="128" href="61654/125599.png" width="64" height="64" /><image x="1408" y="128" href="61654/125597.png" width="64" height="64" /><image x="1472" y="128" href="61654/125600.png" width="64" height="64" /><image x="0" y="192" href="61654/125605.png" width="64" height="64" /><image x="64" y="192" href="61654/125602.png" width="64" height="64" /><image x="128" y="192" href="61654/125601.png" width="64" height="64" /><image x="192" y="192" href="61654/125603.png" width="64" height="64" /><image x="256" y="192" href="61654/125604.png" width="64" height="64" /><image x="320" y="192" href="61654/125606.png" width="64" height="64" /><image x="384" y="192" href="61654/125607.png" width="64" height="64" /><image x="448" y="192" href="61654/125608.png" width="64" height="64" /><image x="512" y="192" href="61654/125612.png" width="64" height="64" /><image x="576" y="192" href="61654/125609.png" width="64" height="64" /><image x="640" y="192" href="61654/125611.png" width="64" height="64" /><image x="704" y="192" href="61654/125610.png" width="64" height="64" /><image x="768" y="192" href="61654/126006.png" width="64" height="64" /><image x="832" y="192" href="61654/125939.png" width="64" height="64" /><image x="896" y="192" href="61654/125801.png" width="64" height="64" /><image x="960" y="192" href="61654/125943.png" width="64" height="64" /><image x="1024" y="192" href="61654/125938.png" width="64" height="64" /><image x="1088" y="192" href="61654/125944.png" width="64" height="64" /><image x="1152" y="192" href="61654/125802.png" width="64" height="64" /><image x="1216" y="192" href="61654/125804.png" width="64" height="64" /><image x="1280" y="192" href="61654/125807.png" width="64" height="64" /><image x="1344" y="192" href="61654/125805.png" width="64" height="64" /><image x="1408" y="192" href="61654/125810.png" width="64" height="64" /><image x="1472" y="192" href="61654/125806.png" width="64" height="64" /><image x="0" y="256" href="61654/125808.png" width="64" height="64" /><image x="64" y="256" href="61654/125803.png" width="64" height="64" /><image x="128" y="256" href="61654/125816.png" width="64" height="64" /><image x="192" y="256" href="61654/125813.png" width="64" height="64" /><image x="256" y="256" href="61654/125814.png" width="64" height="64" /><image x="320" y="256" href="61654/125817.png" width="64" height="64" /><image x="384" y="256" href="61654/125809.png" width="64" height="64" /><image x="448" y="256" href="61654/125811.png" width="64" height="64" /><image x="512" y="256" href="61654/125815.png" width="64" height="64" /><image x="576" y="256" href="61654/125812.png" width="64" height="64" /><image x="640" y="256" href="61654/125821.png" width="64" height="64" /><image x="704" y="256" href="61654/125820.png" width="64" height="64" /><image x="768" y="256" href="61654/125822.png" width="64" height="64" /><image x="832" y="256" href="61654/125824.png" width="64" height="64" /><image x="896" y="256" href="61654/125819.png" width="64" height="64" /><image x="960" y="256" href="61654/125818.png" width="64" height="64" /><image x="1024" y="256" href="61654/125823.png" width="64" height="64" /><image x="1088" y="256" href="61654/125825.png" width="64" height="64" /><image x="1152" y="256" href="61654/125828.png" width="64" height="64" /><image x="1216" y="256" href="61654/125830.png" width="64" height="64" /><image x="1280" y="256" href="61654/125831.png" width="64" height="64" /><image x="1344" y="256" href="61654/125826.png" width="64" height="64" /><image x="1408" y="256" href="61654/125827.png" width="64" height="64" /><image x="1472" y="256" href="61654/125829.png" width="64" height="64" /><image x="0" y="320" href="61654/125835.png" width="64" height="64" /><image x="64" y="320" href="61654/125836.png" width="64" height="64" /><image x="128" y="320" href="61654/125840.png" width="64" height="64" /><image x="192" y="320" href="61654/125837.png" width="64" height="64" /><image x="256" y="320" href="61654/125838.png" width="64" height="64" /><image x="320" y="320" href="61654/125832.png" width="64" height="64" /><image x="384" y="320" href="61654/125833.png" width="64" height="64" /><image x="448" y="320" href="61654/125834.png" width="64" height="64" /><image x="512" y="320" href="61654/125839.png" width="64" height="64" /><image x="576" y="320" href="61654/125846.png" width="64" height="64" /><image x="640" y="320" href="61654/125842.png" width="64" height="64" /><image x="704" y="320" href="61654/125843.png" width="64" height="64" /><image x="768" y="320" href="61654/125853.png" width="64" height="64" /><image x="832" y="320" href="61654/125847.png" width="64" height="64" /><image x="896" y="320" href="61654/125844.png" width="64" height="64" /><image x="960" y="320" href="61654/125845.png" width="64" height="64" /><image x="1024" y="320" href="61654/125852.png" width="64" height="64" /><image x="1088" y="320" href="61654/125851.png" width="64" height="64" /><image x="1152" y="320" href="61654/125850.png" width="64" height="64" /><image x="1216" y="320" href="61654/125848.png" width="64" height="64" /><image x="1280" y="320" href="61654/125841.png" width="64" height="64" /><image x="1344" y="320" href="61654/125849.png" width="64" height="64" /><image x="1408" y="320" href="61654/125854.png" width="64" height="64" /><image x="1472" y="320" href="61654/125856.png" width="64" height="64" /><image x="0" y="384" href="61654/125855.png" width="64" height="64" /><image x="64" y="384" href="61654/125858.png" width="64" height="64" /><image x="128" y="384" href="61654/125857.png" width="64" height="64" /><image x="192" y="384" href="61654/125217.png" width="64" height="64" /><image x="256" y="384" href="61654/125216.png" width="64" height="64" /><image x="320" y="384" href="61654/125221.png" width="64" height="64" /><image x="384" y="384" href="61654/125213.png" width="64" height="64" /><image x="448" y="384" href="61654/125211.png" width="64" height="64" /><image x="512" y="384" href="61654/125212.png" width="64" height="64" /><image x="576" y="384" href="61654/125219.png" width="64" height="64" /><image x="640" y="384" href="61654/125215.png" width="64" height="64" /><image x="704" y="384" href="61654/125218.png" width="64" height="64" /><image x="768" y="384" href="61654/125209.png" width="64" height="64" /><image x="832" y="384" href="61654/125208.png" width="64" height="64" /><image x="896" y="384" href="61654/125220.png" width="64" height="64" /><image x="960" y="384" href="61654/125207.png" width="64" height="64" /><image x="1024" y="384" href="61654/125210.png" width="64" height="64" /><image x="1088" y="384" href="61654/125214.png" width="64" height="64" /><image x="1152" y="384" href="61654/125206.png" width="64" height="64" /><image x="1216" y="384" href="61654/125205.png" width="64" height="64" /><image x="1280" y="384" href="61654/125203.png" width="64" height="64" /><image x="1344" y="384" href="61654/125353.png" width="64" height="64" /><image x="1408" y="384" href="61654/125204.png" width="64" height="64" /><image x="1472" y="384" href="61654/125352.png" width="64" height="64" /><image x="0" y="448" href="61654/125348.png" width="64" height="64" /><image x="64" y="448" href="61654/125351.png" width="64" height="64" /><image x="128" y="448" href="61654/125347.png" width="64" height="64" /><image x="192" y="448" href="61654/125349.png" width="64" height="64" /><image x="256" y="448" href="61654/125346.png" width="64" height="64" /><image x="320" y="448" href="61654/125345.png" width="64" height="64" /><image x="384" y="448" href="61654/125344.png" width="64" height="64" /><image x="448" y="448" href="61654/125343.png" width="64" height="64" /><image x="512" y="448" href="61654/125200.png" width="64" height="64" /><image x="576" y="448" href="61654/125198.png" width="64" height="64" /><image x="640" y="448" href="61654/125350.png" width="64" height="64" /><image x="704" y="448" href="61654/125197.png" width="64" height="64" /><image x="768" y="448" href="61654/125196.png" width="64" height="64" /><image x="832" y="448" href="61654/125202.png" width="64" height="64" /><image x="896" y="448" href="61654/125201.png" width="64" height="64" /><image x="960" y="448" href="61654/125199.png" width="64" height="64" /><image x="1024" y="448" href="61654/125860.png" width="64" height="64" /><image x="1088" y="448" href="61654/125861.png" width="64" height="64" /><image x="1152" y="448" href="61654/125862.png" width="64" height="64" /><image x="1216" y="448" href="61654/125867.png" width="64" height="64" /><image x="1280" y="448" href="61654/125864.png" width="64" height="64" /><image x="1344" y="448" href="61654/125866.png" width="64" height="64" /><image x="1408" y="448" href="61654/125863.png" width="64" height="64" /><image x="1472" y="448" href="61654/125869.png" width="64" height="64" /><image x="0" y="512" href="61654/125865.png" width="64" height="64" /><image x="64" y="512" href="61654/125870.png" width="64" height="64" /><image x="128" y="512" href="61654/125868.png" width="64" height="64" /><image x="192" y="512" href="61654/125872.png" width="64" height="64" /><image x="256" y="512" href="61654/125871.png" width="64" height="64" /><image x="320" y="512" href="61654/125873.png" width="64" height="64" /><image x="384" y="512" href="61654/125874.png" width="64" height="64" /><image x="448" y="512" href="61654/125878.png" width="64" height="64" /><image x="512" y="512" href="61654/125876.png" width="64" height="64" /><image x="576" y="512" href="61654/125875.png" width="64" height="64" /><image x="640" y="512" href="61654/125884.png" width="64" height="64" /><image x="704" y="512" href="61654/125877.png" width="64" height="64" /><image x="768" y="512" href="61654/125879.png" width="64" height="64" /><image x="832" y="512" href="61654/125880.png" width="64" height="64" /><image x="896" y="512" href="61654/125882.png" width="64" height="64" /><image x="960" y="512" href="61654/125883.png" width="64" height="64" /><image x="1024" y="512" href="61654/125886.png" width="64" height="64" /><image x="1088" y="512" href="61654/125881.png" width="64" height="64" /><image x="1152" y="512" href="61654/125885.png" width="64" height="64" /><image x="1216" y="512" href="61654/125887.png" width="64" height="64" /><image x="1280" y="512" href="61654/127071.png" width="64" height="64" /><image x="1344" y="512" href="61654/127072.png" width="64" height="64" /><image x="1408" y="512" href="61654/127073.png" width="64" height="64" /><image x="1472" y="512" href="61654/127074.png" width="64" height="64" /><image x="0" y="576" href="61654/127075.png" width="64" height="64" /><image x="64" y="576" href="61654/127066.png" width="64" height="64" /><image x="128" y="576" href="61654/127067.png" width="64" height="64" /><image x="192" y="576" href="61654/127069.png" width="64" height="64" /><image x="256" y="576" href="61654/127070.png" width="64" height="64" /><image x="320" y="576" href="61654/127068.png" width="64" height="64" /><image x="384" y="576" href="61654/128792.png" width="64" height="64" /><image x="448" y="576" href="61654/128807.png" width="64" height="64" /><image x="512" y="576" href="61654/128793.png" width="64" height="64" /><image x="576" y="576" href="61654/128808.png" width="64" height="64" /><image x="640" y="576" href="61654/128810.png" width="64" height="64" /><image x="704" y="576" href="61654/128809.png" width="64" height="64" /><image x="768" y="576" href="61654/128811.png" width="64" height="64" /><image x="832" y="576" href="61654/128812.png" width="64" height="64" /><image x="896" y="576" href="61654/128804.png" width="64" height="64" /><image x="960" y="576" href="61654/128803.png" width="64" height="64" /><image x="1024" y="576" href="61654/128805.png" width="64" height="64" /><image x="1088" y="576" href="61654/128806.png" width="64" height="64" /><image x="1152" y="576" href="61654/128842.png" width="64" height="64" /><image x="1216" y="576" href="61654/128823.png" width="64" height="64" /><image x="1280" y="576" href="61654/128824.png" width="64" height="64" /><image x="1344" y="576" href="61654/128802.png" width="64" height="64" /><image x="1408" y="576" href="61654/128801.png" width="64" height="64" /><image x="1472" y="576" href="61654/130056.png" width="64" height="64" /><image x="0" y="640" href="61654/130042.png" width="64" height="64" /><image x="64" y="640" href="61654/130055.png" width="64" height="64" /><image x="128" y="640" href="61654/130045.png" width="64" height="64" /><image x="192" y="640" href="61654/130057.png" width="64" height="64" /><image x="256" y="640" href="61654/130043.png" width="64" height="64" /><image x="320" y="640" href="61654/130044.png" width="64" height="64" /><image x="384" y="640" href="61654/130046.png" width="64" height="64" /><image x="448" y="640" href="61654/130047.png" width="64" height="64" /><image x="512" y="640" href="61654/130048.png" width="64" height="64" /><image x="576" y="640" href="61654/130049.png" width="64" height="64" /><image x="640" y="640" href="61654/130050.png" width="64" height="64" /><image x="704" y="640" href="61654/130051.png" width="64" height="64" /><image x="768" y="640" href="61654/130052.png" width="64" height="64" /><image x="832" y="640" href="61654/130053.png" width="64" height="64" /><image x="896" y="640" href="61654/130054.png" width="64" height="64" /><image x="960" y="640" href="61654/131535.png" width="64" height="64" /><image x="1024" y="640" href="61654/136390.png" width="64" height="64" /><image x="1088" y="640" href="61654/136038.png" width="64" height="64" /><image x="1152" y="640" href="61654/136036.png" width="64" height="64" /><image x="1216" y="640" href="61654/136058.png" width="64" height="64" /><image x="1280" y="640" href="61654/136391.png" width="64" height="64" /><image x="1344" y="640" href="61654/136037.png" width="64" height="64" /><image x="1408" y="640" href="61654/136034.png" width="64" height="64" /><image x="1472" y="640" href="61654/136035.png" width="64" height="64" /><image x="0" y="704" href="61654/136389.png" width="64" height="64" /><image x="64" y="704" href="61654/136340.png" width="64" height="64" /><image x="128" y="704" href="61654/136041.png" width="64" height="64" /><image x="192" y="704" href="61654/136033.png" width="64" height="64" /><image x="256" y="704" href="61654/136059.png" width="64" height="64" /><image x="320" y="704" href="61654/136061.png" width="64" height="64" /><image x="384" y="704" href="61654/136341.png" width="64" height="64" /><image x="448" y="704" href="61654/136056.png" width="64" height="64" /><image x="512" y="704" href="61654/136060.png" width="64" height="64" /><image x="576" y="704" href="61654/136042.png" width="64" height="64" /><image x="640" y="704" href="61654/136053.png" width="64" height="64" /><image x="704" y="704" href="61654/136055.png" width="64" height="64" /><image x="768" y="704" href="61654/136519.png" width="64" height="64" /><image x="832" y="704" href="61654/136054.png" width="64" height="64" /><image x="896" y="704" href="61654/136520.png" width="64" height="64" /><image x="960" y="704" href="61654/136057.png" width="64" height="64" /><image x="1024" y="704" href="61654/136518.png" width="64" height="64" /><image x="1088" y="704" href="61654/136342.png" width="64" height="64" /><image x="1152" y="704" href="61654/136039.png" width="64" height="64" /><image x="1216" y="704" href="61654/136040.png" width="64" height="64" /><image x="1280" y="704" href="61654/136338.png" width="64" height="64" /><image x="1344" y="704" href="61654/136332.png" width="64" height="64" /><image x="1408" y="704" href="61654/136331.png" width="64" height="64" /><image x="1472" y="704" href="61654/136333.png" width="64" height="64" /><image x="0" y="768" href="61654/136335.png" width="64" height="64" /><image x="64" y="768" href="61654/136334.png" width="64" height="64" /><image x="128" y="768" href="61654/136330.png" width="64" height="64" /><image x="192" y="768" href="61654/136387.png" width="64" height="64" /><image x="256" y="768" href="61654/136386.png" width="64" height="64" /><image x="320" y="768" href="61654/136339.png" width="64" height="64" /><image x="384" y="768" href="61654/136343.png" width="64" height="64" /><image x="448" y="768" href="61654/136388.png" width="64" height="64" /><image x="512" y="768" href="61654/136337.png" width="64" height="64" /><image x="576" y="768" href="61654/136336.png" width="64" height="64" /><image x="640" y="768" href="61654/139491.png" width="64" height="64" /><image x="704" y="768" href="61654/139481.png" width="64" height="64" /><image x="768" y="768" href="61654/139455.png" width="64" height="64" /><image x="832" y="768" href="61654/139456.png" width="64" height="64" /><image x="896" y="768" href="61654/139314.png" width="64" height="64" /><image x="960" y="768" href="61654/139318.png" width="64" height="64" /><image x="1024" y="768" href="61654/139346.png" width="64" height="64" /><image x="1088" y="768" href="61654/139484.png" width="64" height="64" /><image x="1152" y="768" href="61654/139347.png" width="64" height="64" /><image x="1216" y="768" href="61654/139316.png" width="64" height="64" /><image x="1280" y="768" href="61654/139480.png" width="64" height="64" /><image x="1344" y="768" href="61654/139557.png" width="64" height="64" /><image x="1408" y="768" href="61654/139486.png" width="64" height="64" /><image x="1472" y="768" href="61654/139457.png" width="64" height="64" /><image x="0" y="832" href="61654/139490.png" width="64" height="64" /><image x="64" y="832" href="61654/139348.png" width="64" height="64" /><image x="128" y="832" href="61654/139482.png" width="64" height="64" /><image x="192" y="832" href="61654/139485.png" width="64" height="64" /><image x="256" y="832" href="61654/139339.png" width="64" height="64" /><image x="320" y="832" href="61654/182906.png" width="64" height="64" /><image x="384" y="832" href="61654/139341.png" width="64" height="64" /><image x="448" y="832" href="61654/139315.png" width="64" height="64" /><image x="512" y="832" href="61654/139483.png" width="64" height="64" /><image x="576" y="832" href="61654/139322.png" width="64" height="64" /><image x="640" y="832" href="61654/139345.png" width="64" height="64" /><image x="704" y="832" href="61654/139492.png" width="64" height="64" /><image x="768" y="832" href="61654/139493.png" width="64" height="64" /><image x="832" y="832" href="61654/139320.png" width="64" height="64" /><image x="896" y="832" href="61654/139317.png" width="64" height="64" /><image x="960" y="832" href="61654/139458.png" width="64" height="64" /><image x="1024" y="832" href="61654/139488.png" width="64" height="64" /><image x="1088" y="832" href="61654/139489.png" width="64" height="64" /><image x="1152" y="832" href="61654/159049.png" width="64" height="64" /><image x="1216" y="832" href="61654/159050.png" width="64" height="64" /><image x="1280" y="832" href="61654/159051.png" width="64" height="64" /><image x="1344" y="832" href="61654/159048.png" width="64" height="64" /><image x="1408" y="832" href="61654/159047.png" width="64" height="64" /><image x="1472" y="832" href="61654/158920.png" width="64" height="64" /><image x="0" y="896" href="61654/158982.png" width="64" height="64" /><image x="64" y="896" href="61654/158940.png" width="64" height="64" /><image x="128" y="896" href="61654/158974.png" width="64" height="64" /><image x="192" y="896" href="61654/158928.png" width="64" height="64" /><image x="256" y="896" href="61654/158936.png" width="64" height="64" /><image x="320" y="896" href="61654/158971.png" width="64" height="64" /><image x="384" y="896" href="61654/158978.png" width="64" height="64" /><image x="448" y="896" href="61654/158934.png" width="64" height="64" /><image x="512" y="896" href="61654/158981.png" width="64" height="64" /><image x="576" y="896" href="61654/158966.png" width="64" height="64" /><image x="640" y="896" href="61654/158932.png" width="64" height="64" /><image x="704" y="896" href="61654/158925.png" width="64" height="64" /><image x="768" y="896" href="61654/158921.png" width="64" height="64" /><image x="832" y="896" href="61654/158927.png" width="64" height="64" /><image x="896" y="896" href="61654/158967.png" width="64" height="64" /><image x="960" y="896" href="61654/158946.png" width="64" height="64" /><image x="1024" y="896" href="61654/158939.png" width="64" height="64" /><image x="1088" y="896" href="61654/158937.png" width="64" height="64" /><image x="1152" y="896" href="61654/158963.png" width="64" height="64" /><image x="1216" y="896" href="61654/158970.png" width="64" height="64" /><image x="1280" y="896" href="61654/158952.png" width="64" height="64" /><image x="1344" y="896" href="61654/158941.png" width="64" height="64" /><image x="1408" y="896" href="61654/158979.png" width="64" height="64" /><image x="1472" y="896" href="61654/158975.png" width="64" height="64" /><image x="0" y="960" href="61654/158924.png" width="64" height="64" /><image x="64" y="960" href="61654/158935.png" width="64" height="64" /><image x="128" y="960" href="61654/158929.png" width="64" height="64" /><image x="192" y="960" href="61654/158947.png" width="64" height="64" /><image x="256" y="960" href="61654/158919.png" width="64" height="64" /><image x="320" y="960" href="61654/158951.png" width="64" height="64" /><image x="384" y="960" href="61654/158961.png" width="64" height="64" /><image x="448" y="960" href="61654/158969.png" width="64" height="64" /><image x="512" y="960" href="61654/158943.png" width="64" height="64" /><image x="576" y="960" href="61654/158942.png" width="64" height="64" /><image x="640" y="960" href="61654/158977.png" width="64" height="64" /><image x="704" y="960" href="61654/158922.png" width="64" height="64" /><image x="768" y="960" href="61654/158949.png" width="64" height="64" /><image x="832" y="960" href="61654/158973.png" width="64" height="64" /><image x="896" y="960" href="61654/158968.png" width="64" height="64" /><image x="960" y="960" href="61654/158962.png" width="64" height="64" /><image x="1024" y="960" href="61654/158944.png" width="64" height="64" /><image x="1088" y="960" href="61654/158917.png" width="64" height="64" /><image x="1152" y="960" href="61654/158965.png" width="64" height="64" /><image x="1216" y="960" href="61654/158923.png" width="64" height="64" /><image x="1280" y="960" href="61654/158918.png" width="64" height="64" /><image x="1344" y="960" href="61654/158930.png" width="64" height="64" /><image x="1408" y="960" href="61654/177125.png" width="64" height="64" /><image x="1472" y="960" href="61654/177101.png" width="64" height="64" /><image x="0" y="1024" href="61654/177342.png" width="64" height="64" /><image x="64" y="1024" href="61654/177070.png" width="64" height="64" /><image x="128" y="1024" href="61654/177359.png" width="64" height="64" /><image x="192" y="1024" href="61654/177067.png" width="64" height="64" /><image x="256" y="1024" href="61654/177372.png" width="64" height="64" /><image x="320" y="1024" href="61654/177128.png" width="64" height="64" /><image x="384" y="1024" href="61654/177361.png" width="64" height="64" /><image x="448" y="1024" href="61654/177069.png" width="64" height="64" /><image x="512" y="1024" href="61654/177358.png" width="64" height="64" /><image x="576" y="1024" href="61654/177357.png" width="64" height="64" /><image x="640" y="1024" href="61654/177344.png" width="64" height="64" /><image x="704" y="1024" href="61654/177134.png" width="64" height="64" /><image x="768" y="1024" href="61654/177096.png" width="64" height="64" /><image x="832" y="1024" href="61654/177360.png" width="64" height="64" /><image x="896" y="1024" href="61654/177102.png" width="64" height="64" /><image x="960" y="1024" href="61654/177098.png" width="64" height="64" /><image x="1024" y="1024" href="61654/177131.png" width="64" height="64" /><image x="1088" y="1024" href="61654/177075.png" width="64" height="64" /><image x="1152" y="1024" href="61654/177369.png" width="64" height="64" /><image x="1216" y="1024" href="61654/177370.png" width="64" height="64" /><image x="1280" y="1024" href="61654/177078.png" width="64" height="64" /><image x="1344" y="1024" href="61654/177130.png" width="64" height="64" /><image x="1408" y="1024" href="61654/177064.png" width="64" height="64" /><image x="1472" y="1024" href="61654/177129.png" width="64" height="64" /><image x="0" y="1088" href="61654/177364.png" width="64" height="64" /><image x="64" y="1088" href="61654/177071.png" width="64" height="64" /><image x="128" y="1088" href="61654/177126.png" width="64" height="64" /><image x="192" y="1088" href="61654/177371.png" width="64" height="64" /><image x="256" y="1088" href="61654/177355.png" width="64" height="64" /><image x="320" y="1088" href="61654/177367.png" width="64" height="64" /><image x="384" y="1088" href="61654/177336.png" width="64" height="64" /><image x="448" y="1088" href="61654/177106.png" width="64" height="64" /><image x="512" y="1088" href="61654/177107.png" width="64" height="64" /><image x="576" y="1088" href="61654/177076.png" width="64" height="64" /><image x="640" y="1088" href="61654/177337.png" width="64" height="64" /><image x="704" y="1088" href="61654/177340.png" width="64" height="64" /><image x="768" y="1088" href="61654/177339.png" width="64" height="64" /><image x="832" y="1088" href="61654/177338.png" width="64" height="64" /><image x="896" y="1088" href="61654/177079.png" width="64" height="64" /><image x="960" y="1088" href="61654/177122.png" width="64" height="64" /><image x="1024" y="1088" href="61654/177065.png" width="64" height="64" /><image x="1088" y="1088" href="61654/177068.png" width="64" height="64" /><image x="1152" y="1088" href="61654/177343.png" width="64" height="64" /><image x="1216" y="1088" href="61654/177073.png" width="64" height="64" /><image x="1280" y="1088" href="61654/177127.png" width="64" height="64" /><image x="1344" y="1088" href="61654/177362.png" width="64" height="64" /><image x="1408" y="1088" href="61654/177365.png" width="64" height="64" /><image x="1472" y="1088" href="61654/177363.png" width="64" height="64" /><image x="0" y="1152" href="61654/177074.png" width="64" height="64" /><image x="64" y="1152" href="61654/177094.png" width="64" height="64" /><image x="128" y="1152" href="61654/177097.png" width="64" height="64" /><image x="192" y="1152" href="61654/177066.png" width="64" height="64" /><image x="256" y="1152" href="61654/177100.png" width="64" height="64" /><image x="320" y="1152" href="61654/177366.png" width="64" height="64" /><image x="384" y="1152" href="61654/177132.png" width="64" height="64" /><image x="448" y="1152" href="61654/177093.png" width="64" height="64" /><image x="512" y="1152" href="61654/177135.png" width="64" height="64" /><image x="576" y="1152" href="61654/177124.png" width="64" height="64" /><image x="640" y="1152" href="61654/177368.png" width="64" height="64" /><image x="704" y="1152" href="61654/177077.png" width="64" height="64" /><image x="768" y="1152" href="61654/177335.png" width="64" height="64" /><image x="832" y="1152" href="61654/177095.png" width="64" height="64" /><image x="896" y="1152" href="61654/177341.png" width="64" height="64" /><image x="960" y="1152" href="61654/177103.png" width="64" height="64" /><image x="1024" y="1152" href="61654/177356.png" width="64" height="64" /><image x="1088" y="1152" href="61654/177072.png" width="64" height="64" /><image x="1152" y="1152" href="61654/177108.png" width="64" height="64" /><image x="1216" y="1152" href="61654/177133.png" width="64" height="64" /><image x="1280" y="1152" href="61654/185314.png" width="64" height="64" /><image x="1344" y="1152" href="61654/185317.png" width="64" height="64" /><image x="1408" y="1152" href="61654/185315.png" width="64" height="64" /><image x="1472" y="1152" href="61654/185316.png" width="64" height="64" /><image x="0" y="1216" href="61654/185229.png" width="64" height="64" /><image x="64" y="1216" href="61654/185232.png" width="64" height="64" /><image x="128" y="1216" href="61654/185230.png" width="64" height="64" /><image x="192" y="1216" href="61654/185234.png" width="64" height="64" /><image x="256" y="1216" href="61654/185328.png" width="64" height="64" /><image x="320" y="1216" href="61654/185309.png" width="64" height="64" /><image x="384" y="1216" href="61654/185329.png" width="64" height="64" /><image x="448" y="1216" href="61654/185310.png" width="64" height="64" /><image x="512" y="1216" href="61654/185318.png" width="64" height="64" /><image x="576" y="1216" href="61654/185319.png" width="64" height="64" /><image x="640" y="1216" href="61654/185235.png" width="64" height="64" /><image x="704" y="1216" href="61654/185330.png" width="64" height="64" /><image x="768" y="1216" href="61654/185238.png" width="64" height="64" /><image x="832" y="1216" href="61654/185236.png" width="64" height="64" /><image x="896" y="1216" href="61654/185311.png" width="64" height="64" /><image x="960" y="1216" href="61654/185237.png" width="64" height="64" /><image x="1024" y="1216" href="61654/185312.png" width="64" height="64" /><image x="1088" y="1216" href="61654/185306.png" width="64" height="64" /><image x="1152" y="1216" href="61654/185313.png" width="64" height="64" /><image x="1216" y="1216" href="61654/185305.png" width="64" height="64" /><image x="1280" y="1216" href="61654/185304.png" width="64" height="64" /><image x="1344" y="1216" href="61654/185307.png" width="64" height="64" /><image x="1408" y="1216" href="61654/185239.png" width="64" height="64" /><image x="1472" y="1216" href="61654/185308.png" width="64" height="64" /><image x="0" y="1280" href="61654/185240.png" width="64" height="64" /><image x="64" y="1280" href="61654/185241.png" width="64" height="64" /><image x="128" y="1280" href="61654/195234.png" width="64" height="64" /><image x="192" y="1280" href="61654/195222.png" width="64" height="64" /><image x="256" y="1280" href="61654/195256.png" width="64" height="64" /><image x="320" y="1280" href="61654/195225.png" width="64" height="64" /><image x="384" y="1280" href="61654/195257.png" width="64" height="64" /><image x="448" y="1280" href="61654/195228.png" width="64" height="64" /><image x="512" y="1280" href="61654/195260.png" width="64" height="64" /><image x="576" y="1280" href="61654/195238.png" width="64" height="64" /><image x="640" y="1280" href="61654/195223.png" width="64" height="64" /><image x="704" y="1280" href="61654/195252.png" width="64" height="64" /><image x="768" y="1280" href="61654/195231.png" width="64" height="64" /><image x="832" y="1280" href="61654/195262.png" width="64" height="64" /><image x="896" y="1280" href="61654/195235.png" width="64" height="64" /><image x="960" y="1280" href="61654/195263.png" width="64" height="64" /><image x="1024" y="1280" href="61654/195239.png" width="64" height="64" /><image x="1088" y="1280" href="61654/195226.png" width="64" height="64" /><image x="1152" y="1280" href="61654/195253.png" width="64" height="64" /><image x="1216" y="1280" href="61654/195232.png" width="64" height="64" /><image x="1280" y="1280" href="61654/195264.png" width="64" height="64" /><image x="1344" y="1280" href="61654/195250.png" width="64" height="64" /><image x="1408" y="1280" href="61654/195224.png" width="64" height="64" /><image x="1472" y="1280" href="61654/195254.png" width="64" height="64" /><image x="0" y="1344" href="61654/195229.png" width="64" height="64" /><image x="64" y="1344" href="61654/195258.png" width="64" height="64" /><image x="128" y="1344" href="61654/195230.png" width="64" height="64" /><image x="192" y="1344" href="61654/195261.png" width="64" height="64" /><image x="256" y="1344" href="61654/195236.png" width="64" height="64" /><image x="320" y="1344" href="61654/195227.png" width="64" height="64" /><image x="384" y="1344" href="61654/195255.png" width="64" height="64" /><image x="448" y="1344" href="61654/195233.png" width="64" height="64" /><image x="512" y="1344" href="61654/195265.png" width="64" height="64" /><image x="576" y="1344" href="61654/195251.png" width="64" height="64" /><image x="640" y="1344" href="61654/271966.png" width="64" height="64" /><image x="704" y="1344" href="61654/271967.png" width="64" height="64" /><image x="768" y="1344" href="61654/271968.png" width="64" height="64" /><image x="832" y="1344" href="61654/271969.png" width="64" height="64" /><image x="896" y="1344" href="61654/271970.png" width="64" height="64" /><image x="960" y="1344" href="61654/271971.png" width="64" height="64" /><image x="1024" y="1344" href="61654/271972.png" width="64" height="64" /><image x="1088" y="1344" href="61654/271973.png" width="64" height="64" /><image x="1152" y="1344" href="61654/271974.png" width="64" height="64" /><image x="1216" y="1344" href="61654/271975.png" width="64" height="64" /><image x="1280" y="1344" href="61654/271976.png" width="64" height="64" /><image x="1344" y="1344" href="61654/271977.png" width="64" height="64" /><image x="1408" y="1344" href="61654/271978.png" width="64" height="64" /><image x="1472" y="1344" href="61654/271979.png" width="64" height="64" /><image x="0" y="1408" href="61654/271980.png" width="64" height="64" /><image x="64" y="1408" href="61654/271981.png" width="64" height="64" /><image x="128" y="1408" href="61654/271982.png" width="64" height="64" /><image x="192" y="1408" href="61654/271983.png" width="64" height="64" /><image x="256" y="1408" href="61654/271984.png" width="64" height="64" /><image x="320" y="1408" href="61654/276488.png" width="64" height="64" /><image x="384" y="1408" href="61654/276489.png" width="64" height="64" /><image x="448" y="1408" href="61654/276844.png" width="64" height="64" /><image x="512" y="1408" href="61654/276848.png" width="64" height="64" /></svg>