<?xml version="1.0" encoding="UTF-8"?>
<svg xmlns="http://www.w3.org/2000/svg" version="1.1" height="896" width="896"><rect x="0" y="0" width="896" height="896" fill="rgb(192,192,192)" /><image x="0" y="0" href="6170/45403.png" width="64" height="64" /><image x="64" y="0" href="6170/86828.png" width="64" height="64" /><image x="128" y="0" href="6170/45404.png" width="64" height="64" /><image x="192" y="0" href="6170/136785.png" width="64" height="64" /><image x="256" y="0" href="6170/45405.png" width="64" height="64" /><image x="320" y="0" href="6170/137761.png" width="64" height="64" /><image x="384" y="0" href="6170/86832.png" width="64" height="64" /><image x="448" y="0" href="6170/45320.png" width="64" height="64" /><image x="512" y="0" href="6170/45406.png" width="64" height="64" /><image x="576" y="0" href="6170/17799.png" width="64" height="64" /><image x="640" y="0" href="6170/136789.png" width="64" height="64" /><image x="704" y="0" href="6170/17980.png" width="64" height="64" /><image x="768" y="0" href="6170/86834.png" width="64" height="64" /><image x="832" y="0" href="6170/136808.png" width="64" height="64" /><image x="0" y="64" href="6170/17877.png" width="64" height="64" /><image x="64" y="64" href="6170/17827.png" width="64" height="64" /><image x="128" y="64" href="6170/136810.png" width="64" height="64" /><image x="192" y="64" href="6170/86835.png" width="64" height="64" /><image x="256" y="64" href="6170/23847.png" width="64" height="64" /><image x="320" y="64" href="6170/17800.png" width="64" height="64" /><image x="384" y="64" href="6170/17814.png" width="64" height="64" /><image x="448" y="64" href="6170/136797.png" width="64" height="64" /><image x="512" y="64" href="6170/17842.png" width="64" height="64" /><image x="576" y="64" href="6170/86829.png" width="64" height="64" /><image x="640" y="64" href="6170/17791.png" width="64" height="64" /><image x="704" y="64" href="6170/136786.png" width="64" height="64" /><image x="768" y="64" href="6170/17975.png" width="64" height="64" /><image x="832" y="64" href="6170/17845.png" width="64" height="64" /><image x="0" y="128" href="6170/136787.png" width="64" height="64" /><image x="64" y="128" href="6170/86824.png" width="64" height="64" /><image x="128" y="128" href="6170/17849.png" width="64" height="64" /><image x="192" y="128" href="6170/23677.png" width="64" height="64" /><image x="256" y="128" href="6170/136788.png" width="64" height="64" /><image x="320" y="128" href="6170/17821.png" width="64" height="64" /><image x="384" y="128" href="6170/86818.png" width="64" height="64" /><image x="448" y="128" href="6170/27764.png" width="64" height="64" /><image x="512" y="128" href="6170/136813.png" width="64" height="64" /><image x="576" y="128" href="6170/17855.png" width="64" height="64" /><image x="640" y="128" href="6170/86827.png" width="64" height="64" /><image x="704" y="128" href="6170/17978.png" width="64" height="64" /><image x="768" y="128" href="6170/84905.png" width="64" height="64" /><image x="832" y="128" href="6170/136796.png" width="64" height="64" /><image x="0" y="192" href="6170/17813.png" width="64" height="64" /><image x="64" y="192" href="6170/17838.png" width="64" height="64" /><image x="128" y="192" href="6170/136799.png" width="64" height="64" /><image x="192" y="192" href="6170/17834.png" width="64" height="64" /><image x="256" y="192" href="6170/17971.png" width="64" height="64" /><image x="320" y="192" href="6170/86826.png" width="64" height="64" /><image x="384" y="192" href="6170/136794.png" width="64" height="64" /><image x="448" y="192" href="6170/17830.png" width="64" height="64" /><image x="512" y="192" href="6170/136809.png" width="64" height="64" /><image x="576" y="192" href="6170/165342.png" width="64" height="64" /><image x="640" y="192" href="6170/86830.png" width="64" height="64" /><image x="704" y="192" href="6170/17871.png" width="64" height="64" /><image x="768" y="192" href="6170/136792.png" width="64" height="64" /><image x="832" y="192" href="6170/17823.png" width="64" height="64" /><image x="0" y="256" href="6170/86840.png" width="64" height="64" /><image x="64" y="256" href="6170/136835.png" width="64" height="64" /><image x="128" y="256" href="6170/17803.png" width="64" height="64" /><image x="192" y="256" href="6170/17765.png" width="64" height="64" /><image x="256" y="256" href="6170/136798.png" width="64" height="64" /><image x="320" y="256" href="6170/86831.png" width="64" height="64" /><image x="384" y="256" href="6170/34244.png" width="64" height="64" /><image x="448" y="256" href="6170/34888.png" width="64" height="64" /><image x="512" y="256" href="6170/34893.png" width="64" height="64" /><image x="576" y="256" href="6170/34891.png" width="64" height="64" /><image x="640" y="256" href="6170/34883.png" width="64" height="64" /><image x="704" y="256" href="6170/34868.png" width="64" height="64" /><image x="768" y="256" href="6170/34863.png" width="64" height="64" /><image x="832" y="256" href="6170/34845.png" width="64" height="64" /><image x="0" y="320" href="6170/34844.png" width="64" height="64" /><image x="64" y="320" href="6170/34901.png" width="64" height="64" /><image x="128" y="320" href="6170/34866.png" width="64" height="64" /><image x="192" y="320" href="6170/34881.png" width="64" height="64" /><image x="256" y="320" href="6170/34874.png" width="64" height="64" /><image x="320" y="320" href="6170/34900.png" width="64" height="64" /><image x="384" y="320" href="6170/34890.png" width="64" height="64" /><image x="448" y="320" href="6170/36383.png" width="64" height="64" /><image x="512" y="320" href="6170/34259.png" width="64" height="64" /><image x="576" y="320" href="6170/34852.png" width="64" height="64" /><image x="640" y="320" href="6170/34865.png" width="64" height="64" /><image x="704" y="320" href="6170/34869.png" width="64" height="64" /><image x="768" y="320" href="6170/34870.png" width="64" height="64" /><image x="832" y="320" href="6170/34848.png" width="64" height="64" /><image x="0" y="384" href="6170/34857.png" width="64" height="64" /><image x="64" y="384" href="6170/34885.png" width="64" height="64" /><image x="128" y="384" href="6170/34886.png" width="64" height="64" /><image x="192" y="384" href="6170/34260.png" width="64" height="64" /><image x="256" y="384" href="6170/34867.png" width="64" height="64" /><image x="320" y="384" href="6170/34872.png" width="64" height="64" /><image x="384" y="384" href="6170/34889.png" width="64" height="64" /><image x="448" y="384" href="6170/34892.png" width="64" height="64" /><image x="512" y="384" href="6170/34884.png" width="64" height="64" /><image x="576" y="384" href="6170/34842.png" width="64" height="64" /><image x="640" y="384" href="6170/34853.png" width="64" height="64" /><image x="704" y="384" href="6170/34894.png" width="64" height="64" /><image x="768" y="384" href="6170/34873.png" width="64" height="64" /><image x="832" y="384" href="6170/34864.png" width="64" height="64" /><image x="0" y="448" href="6170/34875.png" width="64" height="64" /><image x="64" y="448" href="6170/34849.png" width="64" height="64" /><image x="128" y="448" href="6170/34887.png" width="64" height="64" /><image x="192" y="448" href="6170/34252.png" width="64" height="64" /><image x="256" y="448" href="6170/34841.png" width="64" height="64" /><image x="320" y="448" href="6170/34871.png" width="64" height="64" /><image x="384" y="448" href="6170/34877.png" width="64" height="64" /><image x="448" y="448" href="6170/34858.png" width="64" height="64" /><image x="512" y="448" href="6170/196056.png" width="64" height="64" /><image x="576" y="448" href="6170/34862.png" width="64" height="64" /><image x="640" y="448" href="6170/34902.png" width="64" height="64" /><image x="704" y="448" href="6170/34856.png" width="64" height="64" /><image x="768" y="448" href="6170/34847.png" width="64" height="64" /><image x="832" y="448" href="6170/34854.png" width="64" height="64" /><image x="0" y="512" href="6170/34851.png" width="64" height="64" /><image x="64" y="512" href="6170/34827.png" width="64" height="64" /><image x="128" y="512" href="6170/34829.png" width="64" height="64" /><image x="192" y="512" href="6170/33812.png" width="64" height="64" /><image x="256" y="512" href="6170/55104.png" width="64" height="64" /><image x="320" y="512" href="6170/34228.png" width="64" height="64" /><image x="384" y="512" href="6170/34214.png" width="64" height="64" /><image x="448" y="512" href="6170/34218.png" width="64" height="64" /><image x="512" y="512" href="6170/34226.png" width="64" height="64" /><image x="576" y="512" href="6170/34223.png" width="64" height="64" /><image x="640" y="512" href="6170/34791.png" width="64" height="64" /><image x="704" y="512" href="6170/34793.png" width="64" height="64" /><image x="768" y="512" href="6170/34224.png" width="64" height="64" /><image x="832" y="512" href="6170/34232.png" width="64" height="64" /><image x="0" y="576" href="6170/34230.png" width="64" height="64" /><image x="64" y="576" href="6170/34233.png" width="64" height="64" /><image x="128" y="576" href="6170/33813.png" width="64" height="64" /><image x="192" y="576" href="6170/34231.png" width="64" height="64" /><image x="256" y="576" href="6170/34236.png" width="64" height="64" /><image x="320" y="576" href="6170/34802.png" width="64" height="64" /><image x="384" y="576" href="6170/34203.png" width="64" height="64" /><image x="448" y="576" href="6170/34204.png" width="64" height="64" /><image x="512" y="576" href="6170/34790.png" width="64" height="64" /><image x="576" y="576" href="6170/34212.png" width="64" height="64" /><image x="640" y="576" href="6170/113674.png" width="64" height="64" /><image x="704" y="576" href="6170/34220.png" width="64" height="64" /><image x="768" y="576" href="6170/34222.png" width="64" height="64" /><image x="832" y="576" href="6170/34216.png" width="64" height="64" /><image x="0" y="640" href="6170/34210.png" width="64" height="64" /><image x="64" y="640" href="6170/34202.png" width="64" height="64" /><image x="128" y="640" href="6170/34206.png" width="64" height="64" /><image x="192" y="640" href="6170/33811.png" width="64" height="64" /><image x="256" y="640" href="6170/34200.png" width="64" height="64" /><image x="320" y="640" href="6170/120187.png" width="64" height="64" /><image x="384" y="640" href="6170/34895.png" width="64" height="64" /><image x="448" y="640" href="6170/107824.png" width="64" height="64" /><image x="512" y="640" href="6170/109336.png" width="64" height="64" /><image x="576" y="640" href="6170/109334.png" width="64" height="64" /><image x="640" y="640" href="6170/109335.png" width="64" height="64" /><image x="704" y="640" href="6170/109337.png" width="64" height="64" /><image x="768" y="640" href="6170/203169.png" width="64" height="64" /><image x="832" y="640" href="6170/203168.png" width="64" height="64" /><image x="0" y="704" href="6170/203167.png" width="64" height="64" /><image x="64" y="704" href="6170/220793.png" width="64" height="64" /><image x="128" y="704" href="6170/220795.png" width="64" height="64" /><image x="192" y="704" href="6170/220914.png" width="64" height="64" /><image x="256" y="704" href="6170/220794.png" width="64" height="64" /><image x="320" y="704" href="6170/274716.png" width="64" height="64" /><image x="384" y="704" href="6170/274715.png" width="64" height="64" /><image x="448" y="704" href="6170/274744.png" width="64" height="64" /><image x="512" y="704" href="6170/279363.png" width="64" height="64" /><image x="576" y="704" href="6170/279209.png" width="64" height="64" /><image x="640" y="704" href="6170/276623.png" width="64" height="64" /><image x="704" y="704" href="6170/276658.png" width="64" height="64" /><image x="768" y="704" href="6170/278587.png" width="64" height="64" /><image x="832" y="704" href="6170/278074.png" width="64" height="64" /><image x="0" y="768" href="6170/137126.png" width="64" height="64" /><image x="64" y="768" href="6170/136811.png" width="64" height="64" /><image x="128" y="768" href="6170/34850.png" width="64" height="64" /><image x="192" y="768" href="6170/34899.png" width="64" height="64" /><image x="256" y="768" href="6170/34253.png" width="64" height="64" /><image x="320" y="768" href="6170/86833.png" width="64" height="64" /><image x="384" y="768" href="6170/34264.png" width="64" height="64" /></svg>