<?xml version="1.0" encoding="UTF-8"?>
<svg xmlns="http://www.w3.org/2000/svg" version="1.1" height="448" width="448"><rect x="0" y="0" width="448" height="448" fill="rgb(192,192,192)" /><image x="0" y="0" href="61893/92797.png" width="64" height="64" /><image x="64" y="0" href="61893/49300.png" width="64" height="64" /><image x="128" y="0" href="61893/127560.png" width="64" height="64" /><image x="192" y="0" href="61893/127562.png" width="64" height="64" /><image x="256" y="0" href="61893/127416.png" width="64" height="64" /><image x="320" y="0" href="61893/127561.png" width="64" height="64" /><image x="384" y="0" href="61893/127369.png" width="64" height="64" /><image x="0" y="64" href="61893/127414.png" width="64" height="64" /><image x="64" y="64" href="61893/127415.png" width="64" height="64" /><image x="128" y="64" href="61893/127058.png" width="64" height="64" /><image x="192" y="64" href="61893/127056.png" width="64" height="64" /><image x="256" y="64" href="61893/126147.png" width="64" height="64" /><image x="320" y="64" href="61893/127008.png" width="64" height="64" /><image x="384" y="64" href="61893/127007.png" width="64" height="64" /><image x="0" y="128" href="61893/129582.png" width="64" height="64" /><image x="64" y="128" href="61893/127009.png" width="64" height="64" /><image x="128" y="128" href="61893/127057.png" width="64" height="64" /><image x="192" y="128" href="61893/127010.png" width="64" height="64" /><image x="256" y="128" href="61893/126851.png" width="64" height="64" /><image x="320" y="128" href="61893/126684.png" width="64" height="64" /><image x="384" y="128" href="61893/126685.png" width="64" height="64" /><image x="0" y="192" href="61893/126850.png" width="64" height="64" /><image x="64" y="192" href="61893/129803.png" width="64" height="64" /><image x="128" y="192" href="61893/126849.png" width="64" height="64" /><image x="192" y="192" href="61893/126407.png" width="64" height="64" /><image x="256" y="192" href="61893/126366.png" width="64" height="64" /><image x="320" y="192" href="61893/126360.png" width="64" height="64" /><image x="384" y="192" href="61893/130253.png" width="64" height="64" /><image x="0" y="256" href="61893/179342.png" width="64" height="64" /><image x="64" y="256" href="61893/126381.png" width="64" height="64" /><image x="128" y="256" href="61893/126428.png" width="64" height="64" /><image x="192" y="256" href="61893/126052.png" width="64" height="64" /><image x="256" y="256" href="61893/126146.png" width="64" height="64" /><image x="320" y="256" href="61893/126145.png" width="64" height="64" /><image x="384" y="256" href="61893/126201.png" width="64" height="64" /><image x="0" y="320" href="61893/125986.png" width="64" height="64" /><image x="64" y="320" href="61893/125955.png" width="64" height="64" /></svg>