<?xml version="1.0" encoding="UTF-8"?>
<svg xmlns="http://www.w3.org/2000/svg" version="1.1" height="512" width="512"><rect x="0" y="0" width="512" height="512" fill="rgb(192,192,192)" /><image x="0" y="0" href="62169/128337.png" width="64" height="64" /><image x="64" y="0" href="62169/128838.png" width="64" height="64" /><image x="128" y="0" href="62169/128429.png" width="64" height="64" /><image x="192" y="0" href="62169/126966.png" width="64" height="64" /><image x="256" y="0" href="62169/127030.png" width="64" height="64" /><image x="320" y="0" href="62169/129185.png" width="64" height="64" /><image x="384" y="0" href="62169/127615.png" width="64" height="64" /><image x="448" y="0" href="62169/129226.png" width="64" height="64" /><image x="0" y="64" href="62169/151386.png" width="64" height="64" /><image x="64" y="64" href="62169/126821.png" width="64" height="64" /><image x="128" y="64" href="62169/127761.png" width="64" height="64" /><image x="192" y="64" href="62169/128840.png" width="64" height="64" /><image x="256" y="64" href="62169/127616.png" width="64" height="64" /><image x="320" y="64" href="62169/127617.png" width="64" height="64" /><image x="384" y="64" href="62169/129370.png" width="64" height="64" /><image x="448" y="64" href="62169/128882.png" width="64" height="64" /><image x="0" y="128" href="62169/130062.png" width="64" height="64" /><image x="64" y="128" href="62169/130575.png" width="64" height="64" /><image x="128" y="128" href="62169/130058.png" width="64" height="64" /><image x="192" y="128" href="62169/131388.png" width="64" height="64" /><image x="256" y="128" href="62169/129742.png" width="64" height="64" /><image x="320" y="128" href="62169/129691.png" width="64" height="64" /><image x="384" y="128" href="62169/129743.png" width="64" height="64" /><image x="448" y="128" href="62169/130060.png" width="64" height="64" /><image x="0" y="192" href="62169/128430.png" width="64" height="64" /><image x="64" y="192" href="62169/129409.png" width="64" height="64" /><image x="128" y="192" href="62169/129574.png" width="64" height="64" /><image x="192" y="192" href="62169/128431.png" width="64" height="64" /><image x="256" y="192" href="62169/127888.png" width="64" height="64" /><image x="320" y="192" href="62169/129412.png" width="64" height="64" /><image x="384" y="192" href="62169/129518.png" width="64" height="64" /><image x="448" y="192" href="62169/129552.png" width="64" height="64" /><image x="0" y="256" href="62169/129745.png" width="64" height="64" /><image x="64" y="256" href="62169/130573.png" width="64" height="64" /><image x="128" y="256" href="62169/129413.png" width="64" height="64" /><image x="192" y="256" href="62169/129692.png" width="64" height="64" /><image x="256" y="256" href="62169/129414.png" width="64" height="64" /><image x="320" y="256" href="62169/129411.png" width="64" height="64" /><image x="384" y="256" href="62169/129415.png" width="64" height="64" /><image x="448" y="256" href="62169/129195.png" width="64" height="64" /><image x="0" y="320" href="62169/126967.png" width="64" height="64" /><image x="64" y="320" href="62169/126476.png" width="64" height="64" /><image x="128" y="320" href="62169/135045.png" width="64" height="64" /><image x="192" y="320" href="62169/135794.png" width="64" height="64" /><image x="256" y="320" href="62169/141247.png" width="64" height="64" /><image x="320" y="320" href="62169/136329.png" width="64" height="64" /><image x="384" y="320" href="62169/135768.png" width="64" height="64" /><image x="448" y="320" href="62169/137850.png" width="64" height="64" /><image x="0" y="384" href="62169/137945.png" width="64" height="64" /><image x="64" y="384" href="62169/138030.png" width="64" height="64" /><image x="128" y="384" href="62169/138631.png" width="64" height="64" /><image x="192" y="384" href="62169/138887.png" width="64" height="64" /><image x="256" y="384" href="62169/139262.png" width="64" height="64" /><image x="320" y="384" href="62169/139847.png" width="64" height="64" /><image x="384" y="384" href="62169/139845.png" width="64" height="64" /><image x="448" y="384" href="62169/140651.png" width="64" height="64" /><image x="0" y="448" href="62169/141488.png" width="64" height="64" /><image x="64" y="448" href="62169/141489.png" width="64" height="64" /><image x="128" y="448" href="62169/138632.png" width="64" height="64" /><image x="192" y="448" href="62169/139243.png" width="64" height="64" /><image x="256" y="448" href="62169/138633.png" width="64" height="64" /><image x="320" y="448" href="62169/138520.png" width="64" height="64" /><image x="384" y="448" href="62169/138519.png" width="64" height="64" /><image x="448" y="448" href="62169/138029.png" width="64" height="64" /></svg>