<?xml version="1.0" encoding="UTF-8"?>
<svg xmlns="http://www.w3.org/2000/svg" version="1.1" height="256" width="256"><rect x="0" y="0" width="256" height="256" fill="rgb(192,192,192)" /><image x="0" y="0" href="62492/127034.png" width="64" height="64" /><image x="64" y="0" href="62492/127035.png" width="64" height="64" /><image x="128" y="0" href="62492/127036.png" width="64" height="64" /><image x="192" y="0" href="62492/127039.png" width="64" height="64" /><image x="0" y="64" href="62492/127038.png" width="64" height="64" /><image x="64" y="64" href="62492/127107.png" width="64" height="64" /><image x="128" y="64" href="62492/127040.png" width="64" height="64" /><image x="192" y="64" href="62492/127043.png" width="64" height="64" /><image x="0" y="128" href="62492/127042.png" width="64" height="64" /><image x="64" y="128" href="62492/127097.png" width="64" height="64" /><image x="128" y="128" href="62492/127041.png" width="64" height="64" /><image x="192" y="128" href="62492/127315.png" width="64" height="64" /><image x="0" y="192" href="62492/127316.png" width="64" height="64" /><image x="64" y="192" href="62492/127317.png" width="64" height="64" /></svg>