<?xml version="1.0" encoding="UTF-8"?>
<svg xmlns="http://www.w3.org/2000/svg" version="1.1" height="320" width="320"><rect x="0" y="0" width="320" height="320" fill="rgb(192,192,192)" /><image x="0" y="0" href="62642/128102.png" width="64" height="64" /><image x="64" y="0" href="62642/127493.png" width="64" height="64" /><image x="128" y="0" href="62642/128104.png" width="64" height="64" /><image x="192" y="0" href="62642/128106.png" width="64" height="64" /><image x="256" y="0" href="62642/127494.png" width="64" height="64" /><image x="0" y="64" href="62642/127496.png" width="64" height="64" /><image x="64" y="64" href="62642/128103.png" width="64" height="64" /><image x="128" y="64" href="62642/127475.png" width="64" height="64" /><image x="192" y="64" href="62642/128105.png" width="64" height="64" /><image x="256" y="64" href="62642/127497.png" width="64" height="64" /><image x="0" y="128" href="62642/127498.png" width="64" height="64" /><image x="64" y="128" href="62642/127499.png" width="64" height="64" /><image x="128" y="128" href="62642/127502.png" width="64" height="64" /><image x="192" y="128" href="62642/127504.png" width="64" height="64" /><image x="256" y="128" href="62642/127500.png" width="64" height="64" /><image x="0" y="192" href="62642/127505.png" width="64" height="64" /><image x="64" y="192" href="62642/127478.png" width="64" height="64" /><image x="128" y="192" href="62642/127501.png" width="64" height="64" /><image x="192" y="192" href="62642/128950.png" width="64" height="64" /><image x="256" y="192" href="62642/127495.png" width="64" height="64" /><image x="0" y="256" href="62642/127503.png" width="64" height="64" /></svg>