<?xml version="1.0" encoding="UTF-8"?>
<svg xmlns="http://www.w3.org/2000/svg" version="1.1" height="512" width="512"><rect x="0" y="0" width="512" height="512" fill="rgb(192,192,192)" /><image x="0" y="0" href="62643/128073.png" width="64" height="64" /><image x="64" y="0" href="62643/127762.png" width="64" height="64" /><image x="128" y="0" href="62643/128076.png" width="64" height="64" /><image x="192" y="0" href="62643/127718.png" width="64" height="64" /><image x="256" y="0" href="62643/127736.png" width="64" height="64" /><image x="320" y="0" href="62643/127735.png" width="64" height="64" /><image x="384" y="0" href="62643/127734.png" width="64" height="64" /><image x="448" y="0" href="62643/128068.png" width="64" height="64" /><image x="0" y="64" href="62643/128428.png" width="64" height="64" /><image x="64" y="64" href="62643/128488.png" width="64" height="64" /><image x="128" y="64" href="62643/128080.png" width="64" height="64" /><image x="192" y="64" href="62643/128065.png" width="64" height="64" /><image x="256" y="64" href="62643/128066.png" width="64" height="64" /><image x="320" y="64" href="62643/128070.png" width="64" height="64" /><image x="384" y="64" href="62643/127509.png" width="64" height="64" /><image x="448" y="64" href="62643/128071.png" width="64" height="64" /><image x="0" y="128" href="62643/128069.png" width="64" height="64" /><image x="64" y="128" href="62643/128075.png" width="64" height="64" /><image x="128" y="128" href="62643/128074.png" width="64" height="64" /><image x="192" y="128" href="62643/128081.png" width="64" height="64" /><image x="256" y="128" href="62643/128072.png" width="64" height="64" /><image x="320" y="128" href="62643/128078.png" width="64" height="64" /><image x="384" y="128" href="62643/128067.png" width="64" height="64" /><image x="448" y="128" href="62643/128077.png" width="64" height="64" /><image x="0" y="192" href="62643/128118.png" width="64" height="64" /><image x="64" y="192" href="62643/128079.png" width="64" height="64" /><image x="128" y="192" href="62643/127884.png" width="64" height="64" /><image x="192" y="192" href="62643/127481.png" width="64" height="64" /><image x="256" y="192" href="62643/127480.png" width="64" height="64" /><image x="320" y="192" href="62643/127479.png" width="64" height="64" /><image x="384" y="192" href="62643/127554.png" width="64" height="64" /><image x="448" y="192" href="62643/127482.png" width="64" height="64" /><image x="0" y="256" href="62643/127555.png" width="64" height="64" /><image x="64" y="256" href="62643/127487.png" width="64" height="64" /><image x="128" y="256" href="62643/127558.png" width="64" height="64" /><image x="192" y="256" href="62643/127556.png" width="64" height="64" /><image x="256" y="256" href="62643/127483.png" width="64" height="64" /><image x="320" y="256" href="62643/127484.png" width="64" height="64" /><image x="384" y="256" href="62643/127557.png" width="64" height="64" /><image x="448" y="256" href="62643/127486.png" width="64" height="64" /><image x="0" y="320" href="62643/127489.png" width="64" height="64" /><image x="64" y="320" href="62643/129896.png" width="64" height="64" /><image x="128" y="320" href="62643/127488.png" width="64" height="64" /><image x="192" y="320" href="62643/203166.png" width="64" height="64" /><image x="256" y="320" href="62643/202862.png" width="64" height="64" /><image x="320" y="320" href="62643/202846.png" width="64" height="64" /><image x="384" y="320" href="62643/202847.png" width="64" height="64" /><image x="448" y="320" href="62643/204924.png" width="64" height="64" /><image x="0" y="384" href="62643/205353.png" width="64" height="64" /><image x="64" y="384" href="62643/247154.png" width="64" height="64" /><image x="128" y="384" href="62643/247160.png" width="64" height="64" /><image x="192" y="384" href="62643/247194.png" width="64" height="64" /><image x="256" y="384" href="62643/247195.png" width="64" height="64" /></svg>