<?xml version="1.0" encoding="UTF-8"?>
<svg xmlns="http://www.w3.org/2000/svg" version="1.1" height="896" width="896"><rect x="0" y="0" width="896" height="896" fill="rgb(192,192,192)" /><image x="0" y="0" href="62815/17257.png" width="64" height="64" /><image x="64" y="0" href="62815/95039.png" width="64" height="64" /><image x="128" y="0" href="62815/17221.png" width="64" height="64" /><image x="192" y="0" href="62815/30235.png" width="64" height="64" /><image x="256" y="0" href="62815/30489.png" width="64" height="64" /><image x="320" y="0" href="62815/17222.png" width="64" height="64" /><image x="384" y="0" href="62815/17374.png" width="64" height="64" /><image x="448" y="0" href="62815/30236.png" width="64" height="64" /><image x="512" y="0" href="62815/30178.png" width="64" height="64" /><image x="576" y="0" href="62815/17383.png" width="64" height="64" /><image x="640" y="0" href="62815/17263.png" width="64" height="64" /><image x="704" y="0" href="62815/17243.png" width="64" height="64" /><image x="768" y="0" href="62815/17335.png" width="64" height="64" /><image x="832" y="0" href="62815/120552.png" width="64" height="64" /><image x="0" y="64" href="62815/17375.png" width="64" height="64" /><image x="64" y="64" href="62815/17158.png" width="64" height="64" /><image x="128" y="64" href="62815/17258.png" width="64" height="64" /><image x="192" y="64" href="62815/17333.png" width="64" height="64" /><image x="256" y="64" href="62815/126150.png" width="64" height="64" /><image x="320" y="64" href="62815/126022.png" width="64" height="64" /><image x="384" y="64" href="62815/126053.png" width="64" height="64" /><image x="448" y="64" href="62815/127236.png" width="64" height="64" /><image x="512" y="64" href="62815/126184.png" width="64" height="64" /><image x="576" y="64" href="62815/133968.png" width="64" height="64" /><image x="640" y="64" href="62815/126191.png" width="64" height="64" /><image x="704" y="64" href="62815/126046.png" width="64" height="64" /><image x="768" y="64" href="62815/126016.png" width="64" height="64" /><image x="832" y="64" href="62815/127022.png" width="64" height="64" /><image x="0" y="128" href="62815/126862.png" width="64" height="64" /><image x="64" y="128" href="62815/127106.png" width="64" height="64" /><image x="128" y="128" href="62815/126995.png" width="64" height="64" /><image x="192" y="128" href="62815/127104.png" width="64" height="64" /><image x="256" y="128" href="62815/127105.png" width="64" height="64" /><image x="320" y="128" href="62815/127019.png" width="64" height="64" /><image x="384" y="128" href="62815/126965.png" width="64" height="64" /><image x="448" y="128" href="62815/126964.png" width="64" height="64" /><image x="512" y="128" href="62815/127101.png" width="64" height="64" /><image x="576" y="128" href="62815/127013.png" width="64" height="64" /><image x="640" y="128" href="62815/126992.png" width="64" height="64" /><image x="704" y="128" href="62815/127018.png" width="64" height="64" /><image x="768" y="128" href="62815/127016.png" width="64" height="64" /><image x="832" y="128" href="62815/127017.png" width="64" height="64" /><image x="0" y="192" href="62815/127102.png" width="64" height="64" /><image x="64" y="192" href="62815/127015.png" width="64" height="64" /><image x="128" y="192" href="62815/127012.png" width="64" height="64" /><image x="192" y="192" href="62815/127020.png" width="64" height="64" /><image x="256" y="192" href="62815/127021.png" width="64" height="64" /><image x="320" y="192" href="62815/126993.png" width="64" height="64" /><image x="384" y="192" href="62815/128292.png" width="64" height="64" /><image x="448" y="192" href="62815/126444.png" width="64" height="64" /><image x="512" y="192" href="62815/126379.png" width="64" height="64" /><image x="576" y="192" href="62815/126385.png" width="64" height="64" /><image x="640" y="192" href="62815/126426.png" width="64" height="64" /><image x="704" y="192" href="62815/126383.png" width="64" height="64" /><image x="768" y="192" href="62815/126384.png" width="64" height="64" /><image x="832" y="192" href="62815/126390.png" width="64" height="64" /><image x="0" y="256" href="62815/126438.png" width="64" height="64" /><image x="64" y="256" href="62815/126387.png" width="64" height="64" /><image x="128" y="256" href="62815/126378.png" width="64" height="64" /><image x="192" y="256" href="62815/126442.png" width="64" height="64" /><image x="256" y="256" href="62815/126440.png" width="64" height="64" /><image x="320" y="256" href="62815/126439.png" width="64" height="64" /><image x="384" y="256" href="62815/126516.png" width="64" height="64" /><image x="448" y="256" href="62815/126445.png" width="64" height="64" /><image x="512" y="256" href="62815/126451.png" width="64" height="64" /><image x="576" y="256" href="62815/126388.png" width="64" height="64" /><image x="640" y="256" href="62815/126389.png" width="64" height="64" /><image x="704" y="256" href="62815/126386.png" width="64" height="64" /><image x="768" y="256" href="62815/126427.png" width="64" height="64" /><image x="832" y="256" href="62815/127242.png" width="64" height="64" /><image x="0" y="320" href="62815/127146.png" width="64" height="64" /><image x="64" y="320" href="62815/126403.png" width="64" height="64" /><image x="128" y="320" href="62815/127258.png" width="64" height="64" /><image x="192" y="320" href="62815/126404.png" width="64" height="64" /><image x="256" y="320" href="62815/126464.png" width="64" height="64" /><image x="320" y="320" href="62815/126406.png" width="64" height="64" /><image x="384" y="320" href="62815/127148.png" width="64" height="64" /><image x="448" y="320" href="62815/126392.png" width="64" height="64" /><image x="512" y="320" href="62815/126391.png" width="64" height="64" /><image x="576" y="320" href="62815/126443.png" width="64" height="64" /><image x="640" y="320" href="62815/126446.png" width="64" height="64" /><image x="704" y="320" href="62815/126453.png" width="64" height="64" /><image x="768" y="320" href="62815/126449.png" width="64" height="64" /><image x="832" y="320" href="62815/127149.png" width="64" height="64" /><image x="0" y="384" href="62815/127257.png" width="64" height="64" /><image x="64" y="384" href="62815/127151.png" width="64" height="64" /><image x="128" y="384" href="62815/127243.png" width="64" height="64" /><image x="192" y="384" href="62815/127256.png" width="64" height="64" /><image x="256" y="384" href="62815/127145.png" width="64" height="64" /><image x="320" y="384" href="62815/127237.png" width="64" height="64" /><image x="384" y="384" href="62815/127150.png" width="64" height="64" /><image x="448" y="384" href="62815/127217.png" width="64" height="64" /><image x="512" y="384" href="62815/127147.png" width="64" height="64" /><image x="576" y="384" href="62815/127193.png" width="64" height="64" /><image x="640" y="384" href="62815/127191.png" width="64" height="64" /><image x="704" y="384" href="62815/127837.png" width="64" height="64" /><image x="768" y="384" href="62815/126441.png" width="64" height="64" /><image x="832" y="384" href="62815/126365.png" width="64" height="64" /><image x="0" y="448" href="62815/126363.png" width="64" height="64" /><image x="64" y="448" href="62815/126408.png" width="64" height="64" /><image x="128" y="448" href="62815/126362.png" width="64" height="64" /><image x="192" y="448" href="62815/126364.png" width="64" height="64" /><image x="256" y="448" href="62815/126454.png" width="64" height="64" /><image x="320" y="448" href="62815/126458.png" width="64" height="64" /><image x="384" y="448" href="62815/126460.png" width="64" height="64" /><image x="448" y="448" href="62815/126462.png" width="64" height="64" /><image x="512" y="448" href="62815/126463.png" width="64" height="64" /><image x="576" y="448" href="62815/126452.png" width="64" height="64" /><image x="640" y="448" href="62815/126456.png" width="64" height="64" /><image x="704" y="448" href="62815/126450.png" width="64" height="64" /><image x="768" y="448" href="62815/126447.png" width="64" height="64" /><image x="832" y="448" href="62815/127218.png" width="64" height="64" /><image x="0" y="512" href="62815/126448.png" width="64" height="64" /><image x="64" y="512" href="62815/126455.png" width="64" height="64" /><image x="128" y="512" href="62815/126459.png" width="64" height="64" /><image x="192" y="512" href="62815/126465.png" width="64" height="64" /><image x="256" y="512" href="62815/126457.png" width="64" height="64" /><image x="320" y="512" href="62815/126394.png" width="64" height="64" /><image x="384" y="512" href="62815/126395.png" width="64" height="64" /><image x="448" y="512" href="62815/126393.png" width="64" height="64" /><image x="512" y="512" href="62815/126399.png" width="64" height="64" /><image x="576" y="512" href="62815/126397.png" width="64" height="64" /><image x="640" y="512" href="62815/126400.png" width="64" height="64" /><image x="704" y="512" href="62815/126398.png" width="64" height="64" /><image x="768" y="512" href="62815/126401.png" width="64" height="64" /><image x="832" y="512" href="62815/126396.png" width="64" height="64" /><image x="0" y="576" href="62815/127190.png" width="64" height="64" /><image x="64" y="576" href="62815/128445.png" width="64" height="64" /><image x="128" y="576" href="62815/126192.png" width="64" height="64" /><image x="192" y="576" href="62815/126250.png" width="64" height="64" /><image x="256" y="576" href="62815/128843.png" width="64" height="64" /><image x="320" y="576" href="62815/126156.png" width="64" height="64" /><image x="384" y="576" href="62815/126060.png" width="64" height="64" /><image x="448" y="576" href="62815/126168.png" width="64" height="64" /><image x="512" y="576" href="62815/126167.png" width="64" height="64" /><image x="576" y="576" href="62815/126171.png" width="64" height="64" /><image x="640" y="576" href="62815/126165.png" width="64" height="64" /><image x="704" y="576" href="62815/126169.png" width="64" height="64" /><image x="768" y="576" href="62815/126174.png" width="64" height="64" /><image x="832" y="576" href="62815/126155.png" width="64" height="64" /><image x="0" y="640" href="62815/126194.png" width="64" height="64" /><image x="64" y="640" href="62815/126255.png" width="64" height="64" /><image x="128" y="640" href="62815/126195.png" width="64" height="64" /><image x="192" y="640" href="62815/126520.png" width="64" height="64" /><image x="256" y="640" href="62815/126521.png" width="64" height="64" /><image x="320" y="640" href="62815/126526.png" width="64" height="64" /><image x="384" y="640" href="62815/126056.png" width="64" height="64" /><image x="448" y="640" href="62815/133955.png" width="64" height="64" /><image x="512" y="640" href="62815/126994.png" width="64" height="64" /><image x="576" y="640" href="62815/184141.png" width="64" height="64" /><image x="640" y="640" href="62815/126062.png" width="64" height="64" /><image x="704" y="640" href="62815/126247.png" width="64" height="64" /><image x="768" y="640" href="62815/126158.png" width="64" height="64" /><image x="832" y="640" href="62815/126170.png" width="64" height="64" /><image x="0" y="704" href="62815/126159.png" width="64" height="64" /><image x="64" y="704" href="62815/126157.png" width="64" height="64" /><image x="128" y="704" href="62815/126582.png" width="64" height="64" /><image x="192" y="704" href="62815/126186.png" width="64" height="64" /><image x="256" y="704" href="62815/126189.png" width="64" height="64" /><image x="320" y="704" href="62815/126228.png" width="64" height="64" /><image x="384" y="704" href="62815/126179.png" width="64" height="64" /><image x="448" y="704" href="62815/126181.png" width="64" height="64" /><image x="512" y="704" href="62815/126054.png" width="64" height="64" /><image x="576" y="704" href="62815/126049.png" width="64" height="64" /><image x="640" y="704" href="62815/126197.png" width="64" height="64" /><image x="704" y="704" href="62815/126014.png" width="64" height="64" /><image x="768" y="704" href="62815/186605.png" width="64" height="64" /><image x="832" y="704" href="62815/126185.png" width="64" height="64" /><image x="0" y="768" href="62815/126514.png" width="64" height="64" /><image x="64" y="768" href="62815/127883.png" width="64" height="64" /><image x="128" y="768" href="62815/126183.png" width="64" height="64" /><image x="192" y="768" href="62815/126518.png" width="64" height="64" /><image x="256" y="768" href="62815/126180.png" width="64" height="64" /><image x="320" y="768" href="62815/126166.png" width="64" height="64" /><image x="384" y="768" href="62815/126162.png" width="64" height="64" /><image x="448" y="768" href="62815/126058.png" width="64" height="64" /><image x="512" y="768" href="62815/126173.png" width="64" height="64" /><image x="576" y="768" href="62815/126249.png" width="64" height="64" /><image x="640" y="768" href="62815/126178.png" width="64" height="64" /><image x="704" y="768" href="62815/126163.png" width="64" height="64" /><image x="768" y="768" href="62815/126160.png" width="64" height="64" /><image x="832" y="768" href="62815/126164.png" width="64" height="64" /><image x="0" y="832" href="62815/126161.png" width="64" height="64" /><image x="64" y="832" href="62815/126172.png" width="64" height="64" /><image x="128" y="832" href="62815/126248.png" width="64" height="64" /><image x="192" y="832" href="62815/126177.png" width="64" height="64" /><image x="256" y="832" href="62815/126196.png" width="64" height="64" /><image x="320" y="832" href="62815/126026.png" width="64" height="64" /><image x="384" y="832" href="62815/126040.png" width="64" height="64" /><image x="448" y="832" href="62815/126061.png" width="64" height="64" /><image x="512" y="832" href="62815/126038.png" width="64" height="64" /><image x="576" y="832" href="62815/126015.png" width="64" height="64" /><image x="640" y="832" href="62815/177247.png" width="64" height="64" /><image x="704" y="832" href="62815/126190.png" width="64" height="64" /><image x="768" y="832" href="62815/127133.png" width="64" height="64" /><image x="832" y="832" href="62815/127219.png" width="64" height="64" /></svg>