<?xml version="1.0" encoding="UTF-8"?>
<svg xmlns="http://www.w3.org/2000/svg" version="1.1" height="256" width="256"><rect x="0" y="0" width="256" height="256" fill="rgb(192,192,192)" /><image x="0" y="0" href="62896/128040.png" width="64" height="64" /><image x="64" y="0" href="62896/128041.png" width="64" height="64" /><image x="128" y="0" href="62896/128042.png" width="64" height="64" /><image x="192" y="0" href="62896/128059.png" width="64" height="64" /><image x="0" y="64" href="62896/128060.png" width="64" height="64" /><image x="64" y="64" href="62896/128043.png" width="64" height="64" /><image x="128" y="64" href="62896/128044.png" width="64" height="64" /><image x="192" y="64" href="62896/128045.png" width="64" height="64" /><image x="0" y="128" href="62896/128046.png" width="64" height="64" /><image x="64" y="128" href="62896/128056.png" width="64" height="64" /><image x="128" y="128" href="62896/128058.png" width="64" height="64" /><image x="192" y="128" href="62896/128061.png" width="64" height="64" /><image x="0" y="192" href="62896/128048.png" width="64" height="64" /><image x="64" y="192" href="62896/128049.png" width="64" height="64" /></svg>