<?xml version="1.0" encoding="UTF-8"?>
<svg xmlns="http://www.w3.org/2000/svg" version="1.1" height="448" width="448"><rect x="0" y="0" width="448" height="448" fill="rgb(192,192,192)" /><image x="0" y="0" href="64180/131536.png" width="64" height="64" /><image x="64" y="0" href="64180/130371.png" width="64" height="64" /><image x="128" y="0" href="64180/130393.png" width="64" height="64" /><image x="192" y="0" href="64180/130375.png" width="64" height="64" /><image x="256" y="0" href="64180/130377.png" width="64" height="64" /><image x="320" y="0" href="64180/130370.png" width="64" height="64" /><image x="384" y="0" href="64180/130391.png" width="64" height="64" /><image x="0" y="64" href="64180/130550.png" width="64" height="64" /><image x="64" y="64" href="64180/130389.png" width="64" height="64" /><image x="128" y="64" href="64180/130311.png" width="64" height="64" /><image x="192" y="64" href="64180/130312.png" width="64" height="64" /><image x="256" y="64" href="64180/130652.png" width="64" height="64" /><image x="320" y="64" href="64180/130313.png" width="64" height="64" /><image x="384" y="64" href="64180/133377.png" width="64" height="64" /><image x="0" y="128" href="64180/130396.png" width="64" height="64" /><image x="64" y="128" href="64180/100483.png" width="64" height="64" /><image x="128" y="128" href="64180/130372.png" width="64" height="64" /><image x="192" y="128" href="64180/130378.png" width="64" height="64" /><image x="256" y="128" href="64180/130392.png" width="64" height="64" /><image x="320" y="128" href="64180/130374.png" width="64" height="64" /><image x="384" y="128" href="64180/130369.png" width="64" height="64" /><image x="0" y="192" href="64180/130379.png" width="64" height="64" /><image x="64" y="192" href="64180/130373.png" width="64" height="64" /><image x="128" y="192" href="64180/130376.png" width="64" height="64" /><image x="192" y="192" href="64180/130727.png" width="64" height="64" /><image x="256" y="192" href="64180/130394.png" width="64" height="64" /><image x="320" y="192" href="64180/130395.png" width="64" height="64" /><image x="384" y="192" href="64180/130611.png" width="64" height="64" /><image x="0" y="256" href="64180/130613.png" width="64" height="64" /><image x="64" y="256" href="64180/130749.png" width="64" height="64" /><image x="128" y="256" href="64180/132559.png" width="64" height="64" /><image x="192" y="256" href="64180/151017.png" width="64" height="64" /><image x="256" y="256" href="64180/151581.png" width="64" height="64" /><image x="320" y="256" href="64180/130712.png" width="64" height="64" /><image x="384" y="256" href="64180/130627.png" width="64" height="64" /><image x="0" y="320" href="64180/130752.png" width="64" height="64" /><image x="64" y="320" href="64180/130633.png" width="64" height="64" /><image x="128" y="320" href="64180/192177.png" width="64" height="64" /><image x="192" y="320" href="64180/156098.png" width="64" height="64" /><image x="256" y="320" href="64180/130751.png" width="64" height="64" /></svg>