<?xml version="1.0" encoding="UTF-8"?>
<svg xmlns="http://www.w3.org/2000/svg" version="1.1" height="640" width="640"><rect x="0" y="0" width="640" height="640" fill="rgb(192,192,192)" /><image x="0" y="0" href="6440/29931.png" width="64" height="64" /><image x="64" y="0" href="6440/29994.png" width="64" height="64" /><image x="128" y="0" href="6440/29951.png" width="64" height="64" /><image x="192" y="0" href="6440/29992.png" width="64" height="64" /><image x="256" y="0" href="6440/92741.png" width="64" height="64" /><image x="320" y="0" href="6440/29993.png" width="64" height="64" /><image x="384" y="0" href="6440/30731.png" width="64" height="64" /><image x="448" y="0" href="6440/121945.png" width="64" height="64" /><image x="512" y="0" href="6440/100442.png" width="64" height="64" /><image x="576" y="0" href="6440/276537.png" width="64" height="64" /><image x="0" y="64" href="6440/29996.png" width="64" height="64" /><image x="64" y="64" href="6440/29092.png" width="64" height="64" /><image x="128" y="64" href="6440/29991.png" width="64" height="64" /><image x="192" y="64" href="6440/93163.png" width="64" height="64" /><image x="256" y="64" href="6440/29735.png" width="64" height="64" /><image x="320" y="64" href="6440/29947.png" width="64" height="64" /><image x="384" y="64" href="6440/29087.png" width="64" height="64" /><image x="448" y="64" href="6440/93739.png" width="64" height="64" /><image x="512" y="64" href="6440/95547.png" width="64" height="64" /><image x="576" y="64" href="6440/94884.png" width="64" height="64" /><image x="0" y="128" href="6440/29958.png" width="64" height="64" /><image x="64" y="128" href="6440/29736.png" width="64" height="64" /><image x="128" y="128" href="6440/29742.png" width="64" height="64" /><image x="192" y="128" href="6440/29990.png" width="64" height="64" /><image x="256" y="128" href="6440/29069.png" width="64" height="64" /><image x="320" y="128" href="6440/29140.png" width="64" height="64" /><image x="384" y="128" href="6440/29138.png" width="64" height="64" /><image x="448" y="128" href="6440/29137.png" width="64" height="64" /><image x="512" y="128" href="6440/29110.png" width="64" height="64" /><image x="576" y="128" href="6440/29136.png" width="64" height="64" /><image x="0" y="192" href="6440/28842.png" width="64" height="64" /><image x="64" y="192" href="6440/29111.png" width="64" height="64" /><image x="128" y="192" href="6440/29109.png" width="64" height="64" /><image x="192" y="192" href="6440/28924.png" width="64" height="64" /><image x="256" y="192" href="6440/257279.png" width="64" height="64" /><image x="320" y="192" href="6440/255271.png" width="64" height="64" /><image x="384" y="192" href="6440/258637.png" width="64" height="64" /><image x="448" y="192" href="6440/255033.png" width="64" height="64" /><image x="512" y="192" href="6440/255037.png" width="64" height="64" /><image x="576" y="192" href="6440/254973.png" width="64" height="64" /><image x="0" y="256" href="6440/254965.png" width="64" height="64" /><image x="64" y="256" href="6440/255047.png" width="64" height="64" /><image x="128" y="256" href="6440/254997.png" width="64" height="64" /><image x="192" y="256" href="6440/255030.png" width="64" height="64" /><image x="256" y="256" href="6440/255006.png" width="64" height="64" /><image x="320" y="256" href="6440/255312.png" width="64" height="64" /><image x="384" y="256" href="6440/256550.png" width="64" height="64" /><image x="448" y="256" href="6440/256618.png" width="64" height="64" /><image x="512" y="256" href="6440/255019.png" width="64" height="64" /><image x="576" y="256" href="6440/254974.png" width="64" height="64" /><image x="0" y="320" href="6440/255009.png" width="64" height="64" /><image x="64" y="320" href="6440/254989.png" width="64" height="64" /><image x="128" y="320" href="6440/256570.png" width="64" height="64" /><image x="192" y="320" href="6440/256015.png" width="64" height="64" /><image x="256" y="320" href="6440/257451.png" width="64" height="64" /><image x="320" y="320" href="6440/256623.png" width="64" height="64" /><image x="384" y="320" href="6440/256626.png" width="64" height="64" /><image x="448" y="320" href="6440/256062.png" width="64" height="64" /><image x="512" y="320" href="6440/256102.png" width="64" height="64" /><image x="576" y="320" href="6440/257349.png" width="64" height="64" /><image x="0" y="384" href="6440/256090.png" width="64" height="64" /><image x="64" y="384" href="6440/256554.png" width="64" height="64" /><image x="128" y="384" href="6440/257285.png" width="64" height="64" /><image x="192" y="384" href="6440/257359.png" width="64" height="64" /><image x="256" y="384" href="6440/267775.png" width="64" height="64" /><image x="320" y="384" href="6440/255292.png" width="64" height="64" /><image x="384" y="384" href="6440/255323.png" width="64" height="64" /><image x="448" y="384" href="6440/271046.png" width="64" height="64" /><image x="512" y="384" href="6440/257492.png" width="64" height="64" /><image x="576" y="384" href="6440/256533.png" width="64" height="64" /><image x="0" y="448" href="6440/258612.png" width="64" height="64" /><image x="64" y="448" href="6440/256614.png" width="64" height="64" /><image x="128" y="448" href="6440/255284.png" width="64" height="64" /><image x="192" y="448" href="6440/257876.png" width="64" height="64" /><image x="256" y="448" href="6440/257358.png" width="64" height="64" /><image x="320" y="448" href="6440/255297.png" width="64" height="64" /><image x="384" y="448" href="6440/255317.png" width="64" height="64" /><image x="448" y="448" href="6440/255313.png" width="64" height="64" /><image x="512" y="448" href="6440/254983.png" width="64" height="64" /><image x="576" y="448" href="6440/255283.png" width="64" height="64" /><image x="0" y="512" href="6440/255315.png" width="64" height="64" /><image x="64" y="512" href="6440/255612.png" width="64" height="64" /><image x="128" y="512" href="6440/255611.png" width="64" height="64" /></svg>