<?xml version="1.0" encoding="UTF-8"?>
<svg xmlns="http://www.w3.org/2000/svg" version="1.1" height="640" width="640"><rect x="0" y="0" width="640" height="640" fill="rgb(192,192,192)" /><image x="0" y="0" href="6524/27310.png" width="64" height="64" /><image x="64" y="0" href="6524/264419.png" width="64" height="64" /><image x="128" y="0" href="6524/27317.png" width="64" height="64" /><image x="192" y="0" href="6524/27094.png" width="64" height="64" /><image x="256" y="0" href="6524/27061.png" width="64" height="64" /><image x="320" y="0" href="6524/87049.png" width="64" height="64" /><image x="384" y="0" href="6524/109992.png" width="64" height="64" /><image x="448" y="0" href="6524/29014.png" width="64" height="64" /><image x="512" y="0" href="6524/29086.png" width="64" height="64" /><image x="576" y="0" href="6524/87058.png" width="64" height="64" /><image x="0" y="64" href="6524/87432.png" width="64" height="64" /><image x="64" y="64" href="6524/264302.png" width="64" height="64" /><image x="128" y="64" href="6524/87044.png" width="64" height="64" /><image x="192" y="64" href="6524/264576.png" width="64" height="64" /><image x="256" y="64" href="6524/108519.png" width="64" height="64" /><image x="320" y="64" href="6524/29089.png" width="64" height="64" /><image x="384" y="64" href="6524/264304.png" width="64" height="64" /><image x="448" y="64" href="6524/109221.png" width="64" height="64" /><image x="512" y="64" href="6524/262920.png" width="64" height="64" /><image x="576" y="64" href="6524/264379.png" width="64" height="64" /><image x="0" y="128" href="6524/109456.png" width="64" height="64" /><image x="64" y="128" href="6524/263179.png" width="64" height="64" /><image x="128" y="128" href="6524/97749.png" width="64" height="64" /><image x="192" y="128" href="6524/87059.png" width="64" height="64" /><image x="256" y="128" href="6524/262294.png" width="64" height="64" /><image x="320" y="128" href="6524/109876.png" width="64" height="64" /><image x="384" y="128" href="6524/256487.png" width="64" height="64" /><image x="448" y="128" href="6524/260015.png" width="64" height="64" /><image x="512" y="128" href="6524/260731.png" width="64" height="64" /><image x="576" y="128" href="6524/261616.png" width="64" height="64" /><image x="0" y="192" href="6524/261657.png" width="64" height="64" /><image x="64" y="192" href="6524/262295.png" width="64" height="64" /><image x="128" y="192" href="6524/265305.png" width="64" height="64" /><image x="192" y="192" href="6524/262249.png" width="64" height="64" /><image x="256" y="192" href="6524/262325.png" width="64" height="64" /><image x="320" y="192" href="6524/261812.png" width="64" height="64" /><image x="384" y="192" href="6524/260851.png" width="64" height="64" /><image x="448" y="192" href="6524/260772.png" width="64" height="64" /><image x="512" y="192" href="6524/262248.png" width="64" height="64" /><image x="576" y="192" href="6524/261599.png" width="64" height="64" /><image x="0" y="256" href="6524/262241.png" width="64" height="64" /><image x="64" y="256" href="6524/261093.png" width="64" height="64" /><image x="128" y="256" href="6524/262242.png" width="64" height="64" /><image x="192" y="256" href="6524/262250.png" width="64" height="64" /><image x="256" y="256" href="6524/262219.png" width="64" height="64" /><image x="320" y="256" href="6524/262220.png" width="64" height="64" /><image x="384" y="256" href="6524/261065.png" width="64" height="64" /><image x="448" y="256" href="6524/261069.png" width="64" height="64" /><image x="512" y="256" href="6524/262129.png" width="64" height="64" /><image x="576" y="256" href="6524/261590.png" width="64" height="64" /><image x="0" y="320" href="6524/262128.png" width="64" height="64" /><image x="64" y="320" href="6524/261802.png" width="64" height="64" /><image x="128" y="320" href="6524/261652.png" width="64" height="64" /><image x="192" y="320" href="6524/261667.png" width="64" height="64" /><image x="256" y="320" href="6524/261653.png" width="64" height="64" /><image x="320" y="320" href="6524/261656.png" width="64" height="64" /><image x="384" y="320" href="6524/261832.png" width="64" height="64" /><image x="448" y="320" href="6524/261831.png" width="64" height="64" /><image x="512" y="320" href="6524/260827.png" width="64" height="64" /><image x="576" y="320" href="6524/260844.png" width="64" height="64" /><image x="0" y="384" href="6524/260824.png" width="64" height="64" /><image x="64" y="384" href="6524/260771.png" width="64" height="64" /><image x="128" y="384" href="6524/260826.png" width="64" height="64" /><image x="192" y="384" href="6524/260959.png" width="64" height="64" /><image x="256" y="384" href="6524/261006.png" width="64" height="64" /><image x="320" y="384" href="6524/261011.png" width="64" height="64" /><image x="384" y="384" href="6524/260981.png" width="64" height="64" /><image x="448" y="384" href="6524/261003.png" width="64" height="64" /><image x="512" y="384" href="6524/260775.png" width="64" height="64" /><image x="576" y="384" href="6524/261090.png" width="64" height="64" /><image x="0" y="448" href="6524/261075.png" width="64" height="64" /><image x="64" y="448" href="6524/261341.png" width="64" height="64" /><image x="128" y="448" href="6524/261428.png" width="64" height="64" /><image x="192" y="448" href="6524/261402.png" width="64" height="64" /><image x="256" y="448" href="6524/261445.png" width="64" height="64" /><image x="320" y="448" href="6524/261662.png" width="64" height="64" /><image x="384" y="448" href="6524/261047.png" width="64" height="64" /><image x="448" y="448" href="6524/262120.png" width="64" height="64" /><image x="512" y="448" href="6524/260947.png" width="64" height="64" /><image x="576" y="448" href="6524/264468.png" width="64" height="64" /><image x="0" y="512" href="6524/261591.png" width="64" height="64" /><image x="64" y="512" href="6524/261048.png" width="64" height="64" /><image x="128" y="512" href="6524/261937.png" width="64" height="64" /><image x="192" y="512" href="6524/261600.png" width="64" height="64" /><image x="256" y="512" href="6524/261663.png" width="64" height="64" /><image x="320" y="512" href="6524/261601.png" width="64" height="64" /><image x="384" y="512" href="6524/261553.png" width="64" height="64" /><image x="448" y="512" href="6524/261733.png" width="64" height="64" /><image x="512" y="512" href="6524/261592.png" width="64" height="64" /><image x="576" y="512" href="6524/261743.png" width="64" height="64" /><image x="0" y="576" href="6524/261029.png" width="64" height="64" /></svg>