<?xml version="1.0" encoding="UTF-8"?>
<svg xmlns="http://www.w3.org/2000/svg" version="1.1" height="384" width="384"><rect x="0" y="0" width="384" height="384" fill="rgb(192,192,192)" /><image x="0" y="0" href="66573/133752.png" width="64" height="64" /><image x="64" y="0" href="66573/133749.png" width="64" height="64" /><image x="128" y="0" href="66573/133748.png" width="64" height="64" /><image x="192" y="0" href="66573/133747.png" width="64" height="64" /><image x="256" y="0" href="66573/133701.png" width="64" height="64" /><image x="320" y="0" href="66573/133742.png" width="64" height="64" /><image x="0" y="64" href="66573/133702.png" width="64" height="64" /><image x="64" y="64" href="66573/151935.png" width="64" height="64" /><image x="128" y="64" href="66573/133882.png" width="64" height="64" /><image x="192" y="64" href="66573/133755.png" width="64" height="64" /><image x="256" y="64" href="66573/133887.png" width="64" height="64" /><image x="320" y="64" href="66573/133883.png" width="64" height="64" /><image x="0" y="128" href="66573/133888.png" width="64" height="64" /><image x="64" y="128" href="66573/133948.png" width="64" height="64" /><image x="128" y="128" href="66573/133754.png" width="64" height="64" /><image x="192" y="128" href="66573/133753.png" width="64" height="64" /><image x="256" y="128" href="66573/133750.png" width="64" height="64" /><image x="320" y="128" href="66573/133744.png" width="64" height="64" /><image x="0" y="192" href="66573/134370.png" width="64" height="64" /><image x="64" y="192" href="66573/133885.png" width="64" height="64" /><image x="128" y="192" href="66573/133743.png" width="64" height="64" /><image x="192" y="192" href="66573/133751.png" width="64" height="64" /><image x="256" y="192" href="66573/151932.png" width="64" height="64" /><image x="320" y="192" href="66573/201647.png" width="64" height="64" /><image x="0" y="256" href="66573/201610.png" width="64" height="64" /><image x="64" y="256" href="66573/260092.png" width="64" height="64" /><image x="128" y="256" href="66573/266883.png" width="64" height="64" /></svg>