<?xml version="1.0" encoding="UTF-8"?>
<svg xmlns="http://www.w3.org/2000/svg" version="1.1" height="512" width="512"><rect x="0" y="0" width="512" height="512" fill="rgb(192,192,192)" /><image x="0" y="0" href="66841/134248.png" width="64" height="64" /><image x="64" y="0" href="66841/134668.png" width="64" height="64" /><image x="128" y="0" href="66841/134683.png" width="64" height="64" /><image x="192" y="0" href="66841/134129.png" width="64" height="64" /><image x="256" y="0" href="66841/134153.png" width="64" height="64" /><image x="320" y="0" href="66841/134249.png" width="64" height="64" /><image x="384" y="0" href="66841/134669.png" width="64" height="64" /><image x="448" y="0" href="66841/134685.png" width="64" height="64" /><image x="0" y="64" href="66841/134958.png" width="64" height="64" /><image x="64" y="64" href="66841/134168.png" width="64" height="64" /><image x="128" y="64" href="66841/134126.png" width="64" height="64" /><image x="192" y="64" href="66841/134682.png" width="64" height="64" /><image x="256" y="64" href="66841/134935.png" width="64" height="64" /><image x="320" y="64" href="66841/134687.png" width="64" height="64" /><image x="384" y="64" href="66841/134167.png" width="64" height="64" /><image x="448" y="64" href="66841/134671.png" width="64" height="64" /><image x="0" y="128" href="66841/134124.png" width="64" height="64" /><image x="64" y="128" href="66841/134670.png" width="64" height="64" /><image x="128" y="128" href="66841/134247.png" width="64" height="64" /><image x="192" y="128" href="66841/134686.png" width="64" height="64" /><image x="256" y="128" href="66841/134953.png" width="64" height="64" /><image x="320" y="128" href="66841/137755.png" width="64" height="64" /><image x="384" y="128" href="66841/134154.png" width="64" height="64" /><image x="448" y="128" href="66841/134250.png" width="64" height="64" /><image x="0" y="192" href="66841/134933.png" width="64" height="64" /><image x="64" y="192" href="66841/134937.png" width="64" height="64" /><image x="128" y="192" href="66841/134165.png" width="64" height="64" /><image x="192" y="192" href="66841/134152.png" width="64" height="64" /><image x="256" y="192" href="66841/134936.png" width="64" height="64" /><image x="320" y="192" href="66841/134166.png" width="64" height="64" /><image x="384" y="192" href="66841/134487.png" width="64" height="64" /><image x="448" y="192" href="66841/134485.png" width="64" height="64" /><image x="0" y="256" href="66841/137821.png" width="64" height="64" /><image x="64" y="256" href="66841/134379.png" width="64" height="64" /><image x="128" y="256" href="66841/137809.png" width="64" height="64" /><image x="192" y="256" href="66841/137792.png" width="64" height="64" /><image x="256" y="256" href="66841/134373.png" width="64" height="64" /><image x="320" y="256" href="66841/204106.png" width="64" height="64" /><image x="384" y="256" href="66841/134482.png" width="64" height="64" /><image x="448" y="256" href="66841/134377.png" width="64" height="64" /><image x="0" y="320" href="66841/134374.png" width="64" height="64" /><image x="64" y="320" href="66841/134372.png" width="64" height="64" /><image x="128" y="320" href="66841/134376.png" width="64" height="64" /><image x="192" y="320" href="66841/134688.png" width="64" height="64" /><image x="256" y="320" href="66841/134483.png" width="64" height="64" /><image x="320" y="320" href="66841/134378.png" width="64" height="64" /><image x="384" y="320" href="66841/134364.png" width="64" height="64" /><image x="448" y="320" href="66841/134363.png" width="64" height="64" /><image x="0" y="384" href="66841/134672.png" width="64" height="64" /><image x="64" y="384" href="66841/134673.png" width="64" height="64" /><image x="128" y="384" href="66841/134674.png" width="64" height="64" /><image x="192" y="384" href="66841/134576.png" width="64" height="64" /><image x="256" y="384" href="66841/134577.png" width="64" height="64" /><image x="320" y="384" href="66841/134578.png" width="64" height="64" /><image x="384" y="384" href="66841/204017.png" width="64" height="64" /><image x="448" y="384" href="66841/134679.png" width="64" height="64" /><image x="0" y="448" href="66841/134678.png" width="64" height="64" /><image x="64" y="448" href="66841/134676.png" width="64" height="64" /><image x="128" y="448" href="66841/134675.png" width="64" height="64" /><image x="192" y="448" href="66841/134939.png" width="64" height="64" /><image x="256" y="448" href="66841/195837.png" width="64" height="64" /></svg>