<?xml version="1.0" encoding="UTF-8"?>
<svg xmlns="http://www.w3.org/2000/svg" version="1.1" height="448" width="448"><rect x="0" y="0" width="448" height="448" fill="rgb(192,192,192)" /><image x="0" y="0" href="68618/220680.png" width="64" height="64" /><image x="64" y="0" href="68618/148364.png" width="64" height="64" /><image x="128" y="0" href="68618/148366.png" width="64" height="64" /><image x="192" y="0" href="68618/220696.png" width="64" height="64" /><image x="256" y="0" href="68618/220674.png" width="64" height="64" /><image x="320" y="0" href="68618/156182.png" width="64" height="64" /><image x="384" y="0" href="68618/156183.png" width="64" height="64" /><image x="0" y="64" href="68618/150449.png" width="64" height="64" /><image x="64" y="64" href="68618/220675.png" width="64" height="64" /><image x="128" y="64" href="68618/220689.png" width="64" height="64" /><image x="192" y="64" href="68618/220693.png" width="64" height="64" /><image x="256" y="64" href="68618/220681.png" width="64" height="64" /><image x="320" y="64" href="68618/220690.png" width="64" height="64" /><image x="384" y="64" href="68618/148373.png" width="64" height="64" /><image x="0" y="128" href="68618/148374.png" width="64" height="64" /><image x="64" y="128" href="68618/220687.png" width="64" height="64" /><image x="128" y="128" href="68618/220694.png" width="64" height="64" /><image x="192" y="128" href="68618/148360.png" width="64" height="64" /><image x="256" y="128" href="68618/220671.png" width="64" height="64" /><image x="320" y="128" href="68618/148442.png" width="64" height="64" /><image x="384" y="128" href="68618/220684.png" width="64" height="64" /><image x="0" y="192" href="68618/220695.png" width="64" height="64" /><image x="64" y="192" href="68618/148453.png" width="64" height="64" /><image x="128" y="192" href="68618/148379.png" width="64" height="64" /><image x="192" y="192" href="68618/148438.png" width="64" height="64" /><image x="256" y="192" href="68618/148325.png" width="64" height="64" /><image x="320" y="192" href="68618/220672.png" width="64" height="64" /><image x="384" y="192" href="68618/148441.png" width="64" height="64" /><image x="0" y="256" href="68618/220670.png" width="64" height="64" /><image x="64" y="256" href="68618/220683.png" width="64" height="64" /><image x="128" y="256" href="68618/220699.png" width="64" height="64" /><image x="192" y="256" href="68618/148639.png" width="64" height="64" /><image x="256" y="256" href="68618/148640.png" width="64" height="64" /><image x="320" y="256" href="68618/213816.png" width="64" height="64" /><image x="384" y="256" href="68618/214055.png" width="64" height="64" /><image x="0" y="320" href="68618/149154.png" width="64" height="64" /><image x="64" y="320" href="68618/213692.png" width="64" height="64" /><image x="128" y="320" href="68618/150083.png" width="64" height="64" /><image x="192" y="320" href="68618/149280.png" width="64" height="64" /><image x="256" y="320" href="68618/149153.png" width="64" height="64" /><image x="320" y="320" href="68618/149281.png" width="64" height="64" /><image x="384" y="320" href="68618/149175.png" width="64" height="64" /></svg>