<?xml version="1.0" encoding="UTF-8"?>
<svg xmlns="http://www.w3.org/2000/svg" version="1.1" height="384" width="384"><rect x="0" y="0" width="384" height="384" fill="rgb(192,192,192)" /><image x="0" y="0" href="68619/136740.png" width="64" height="64" /><image x="64" y="0" href="68619/137691.png" width="64" height="64" /><image x="128" y="0" href="68619/137719.png" width="64" height="64" /><image x="192" y="0" href="68619/137722.png" width="64" height="64" /><image x="256" y="0" href="68619/137725.png" width="64" height="64" /><image x="320" y="0" href="68619/137726.png" width="64" height="64" /><image x="0" y="64" href="68619/137723.png" width="64" height="64" /><image x="64" y="64" href="68619/137921.png" width="64" height="64" /><image x="128" y="64" href="68619/137920.png" width="64" height="64" /><image x="192" y="64" href="68619/138513.png" width="64" height="64" /><image x="256" y="64" href="68619/137934.png" width="64" height="64" /><image x="320" y="64" href="68619/138514.png" width="64" height="64" /><image x="0" y="128" href="68619/138515.png" width="64" height="64" /><image x="64" y="128" href="68619/138516.png" width="64" height="64" /><image x="128" y="128" href="68619/138610.png" width="64" height="64" /><image x="192" y="128" href="68619/138618.png" width="64" height="64" /><image x="256" y="128" href="68619/138553.png" width="64" height="64" /><image x="320" y="128" href="68619/137720.png" width="64" height="64" /><image x="0" y="192" href="68619/138623.png" width="64" height="64" /><image x="64" y="192" href="68619/138555.png" width="64" height="64" /><image x="128" y="192" href="68619/137724.png" width="64" height="64" /><image x="192" y="192" href="68619/148215.png" width="64" height="64" /><image x="256" y="192" href="68619/138556.png" width="64" height="64" /><image x="320" y="192" href="68619/138622.png" width="64" height="64" /><image x="0" y="256" href="68619/138604.png" width="64" height="64" /><image x="64" y="256" href="68619/138627.png" width="64" height="64" /><image x="128" y="256" href="68619/138605.png" width="64" height="64" /><image x="192" y="256" href="68619/138606.png" width="64" height="64" /><image x="256" y="256" href="68619/138626.png" width="64" height="64" /><image x="320" y="256" href="68619/148209.png" width="64" height="64" /><image x="0" y="320" href="68619/138607.png" width="64" height="64" /><image x="64" y="320" href="68619/138624.png" width="64" height="64" /><image x="128" y="320" href="68619/138608.png" width="64" height="64" /><image x="192" y="320" href="68619/138617.png" width="64" height="64" /><image x="256" y="320" href="68619/138621.png" width="64" height="64" /></svg>