<?xml version="1.0" encoding="UTF-8"?>
<svg xmlns="http://www.w3.org/2000/svg" version="1.1" height="320" width="320"><rect x="0" y="0" width="320" height="320" fill="rgb(192,192,192)" /><image x="0" y="0" href="68686/136886.png" width="64" height="64" /><image x="64" y="0" href="68686/27187.png" width="64" height="64" /><image x="128" y="0" href="68686/137047.png" width="64" height="64" /><image x="192" y="0" href="68686/106682.png" width="64" height="64" /><image x="256" y="0" href="68686/137048.png" width="64" height="64" /><image x="0" y="64" href="68686/27170.png" width="64" height="64" /><image x="64" y="64" href="68686/137045.png" width="64" height="64" /><image x="128" y="64" href="68686/27197.png" width="64" height="64" /><image x="192" y="64" href="68686/137043.png" width="64" height="64" /><image x="256" y="64" href="68686/27191.png" width="64" height="64" /><image x="0" y="128" href="68686/137049.png" width="64" height="64" /><image x="64" y="128" href="68686/27174.png" width="64" height="64" /><image x="128" y="128" href="68686/137054.png" width="64" height="64" /><image x="192" y="128" href="68686/27190.png" width="64" height="64" /><image x="256" y="128" href="68686/137051.png" width="64" height="64" /><image x="0" y="192" href="68686/106593.png" width="64" height="64" /><image x="64" y="192" href="68686/137046.png" width="64" height="64" /><image x="128" y="192" href="68686/27181.png" width="64" height="64" /><image x="192" y="192" href="68686/137056.png" width="64" height="64" /><image x="256" y="192" href="68686/27180.png" width="64" height="64" /><image x="0" y="256" href="68686/137053.png" width="64" height="64" /><image x="64" y="256" href="68686/27199.png" width="64" height="64" /><image x="128" y="256" href="68686/137042.png" width="64" height="64" /><image x="192" y="256" href="68686/27175.png" width="64" height="64" /><image x="256" y="256" href="68686/137057.png" width="64" height="64" /></svg>