<?xml version="1.0" encoding="UTF-8"?>
<svg xmlns="http://www.w3.org/2000/svg" version="1.1" height="512" width="512"><rect x="0" y="0" width="512" height="512" fill="rgb(192,192,192)" /><image x="0" y="0" href="687/13761.png" width="64" height="64" /><image x="64" y="0" href="687/13762.png" width="64" height="64" /><image x="128" y="0" href="687/13763.png" width="64" height="64" /><image x="192" y="0" href="687/13764.png" width="64" height="64" /><image x="256" y="0" href="687/13765.png" width="64" height="64" /><image x="320" y="0" href="687/13766.png" width="64" height="64" /><image x="384" y="0" href="687/13767.png" width="64" height="64" /><image x="448" y="0" href="687/13768.png" width="64" height="64" /><image x="0" y="64" href="687/13769.png" width="64" height="64" /><image x="64" y="64" href="687/130411.png" width="64" height="64" /><image x="128" y="64" href="687/13770.png" width="64" height="64" /><image x="192" y="64" href="687/13771.png" width="64" height="64" /><image x="256" y="64" href="687/13772.png" width="64" height="64" /><image x="320" y="64" href="687/13773.png" width="64" height="64" /><image x="384" y="64" href="687/13774.png" width="64" height="64" /><image x="448" y="64" href="687/113894.png" width="64" height="64" /><image x="0" y="128" href="687/13775.png" width="64" height="64" /><image x="64" y="128" href="687/13776.png" width="64" height="64" /><image x="128" y="128" href="687/13777.png" width="64" height="64" /><image x="192" y="128" href="687/13778.png" width="64" height="64" /><image x="256" y="128" href="687/13779.png" width="64" height="64" /><image x="320" y="128" href="687/13780.png" width="64" height="64" /><image x="384" y="128" href="687/13781.png" width="64" height="64" /><image x="448" y="128" href="687/13782.png" width="64" height="64" /><image x="0" y="192" href="687/13783.png" width="64" height="64" /><image x="64" y="192" href="687/13784.png" width="64" height="64" /><image x="128" y="192" href="687/13785.png" width="64" height="64" /><image x="192" y="192" href="687/13786.png" width="64" height="64" /><image x="256" y="192" href="687/13787.png" width="64" height="64" /><image x="320" y="192" href="687/13788.png" width="64" height="64" /><image x="384" y="192" href="687/13789.png" width="64" height="64" /><image x="448" y="192" href="687/13790.png" width="64" height="64" /><image x="0" y="256" href="687/13791.png" width="64" height="64" /><image x="64" y="256" href="687/13792.png" width="64" height="64" /><image x="128" y="256" href="687/13793.png" width="64" height="64" /><image x="192" y="256" href="687/13794.png" width="64" height="64" /><image x="256" y="256" href="687/13795.png" width="64" height="64" /><image x="320" y="256" href="687/13796.png" width="64" height="64" /><image x="384" y="256" href="687/13797.png" width="64" height="64" /><image x="448" y="256" href="687/13798.png" width="64" height="64" /><image x="0" y="320" href="687/13799.png" width="64" height="64" /><image x="64" y="320" href="687/13800.png" width="64" height="64" /><image x="128" y="320" href="687/13801.png" width="64" height="64" /><image x="192" y="320" href="687/13802.png" width="64" height="64" /><image x="256" y="320" href="687/13803.png" width="64" height="64" /><image x="320" y="320" href="687/13804.png" width="64" height="64" /><image x="384" y="320" href="687/13805.png" width="64" height="64" /><image x="448" y="320" href="687/13806.png" width="64" height="64" /><image x="0" y="384" href="687/13807.png" width="64" height="64" /><image x="64" y="384" href="687/13808.png" width="64" height="64" /><image x="128" y="384" href="687/13809.png" width="64" height="64" /><image x="192" y="384" href="687/13810.png" width="64" height="64" /><image x="256" y="384" href="687/13811.png" width="64" height="64" /><image x="320" y="384" href="687/13812.png" width="64" height="64" /><image x="384" y="384" href="687/13813.png" width="64" height="64" /><image x="448" y="384" href="687/125617.png" width="64" height="64" /><image x="0" y="448" href="687/125618.png" width="64" height="64" /><image x="64" y="448" href="687/125571.png" width="64" height="64" /><image x="128" y="448" href="687/125572.png" width="64" height="64" /></svg>