<?xml version="1.0" encoding="UTF-8"?>
<svg xmlns="http://www.w3.org/2000/svg" version="1.1" height="896" width="896"><rect x="0" y="0" width="896" height="896" fill="rgb(192,192,192)" /><image x="0" y="0" href="6928/17257.png" width="64" height="64" /><image x="64" y="0" href="6928/95039.png" width="64" height="64" /><image x="128" y="0" href="6928/17221.png" width="64" height="64" /><image x="192" y="0" href="6928/30235.png" width="64" height="64" /><image x="256" y="0" href="6928/30489.png" width="64" height="64" /><image x="320" y="0" href="6928/17222.png" width="64" height="64" /><image x="384" y="0" href="6928/17374.png" width="64" height="64" /><image x="448" y="0" href="6928/30236.png" width="64" height="64" /><image x="512" y="0" href="6928/30178.png" width="64" height="64" /><image x="576" y="0" href="6928/17383.png" width="64" height="64" /><image x="640" y="0" href="6928/17263.png" width="64" height="64" /><image x="704" y="0" href="6928/17243.png" width="64" height="64" /><image x="768" y="0" href="6928/17335.png" width="64" height="64" /><image x="832" y="0" href="6928/120552.png" width="64" height="64" /><image x="0" y="64" href="6928/17375.png" width="64" height="64" /><image x="64" y="64" href="6928/17158.png" width="64" height="64" /><image x="128" y="64" href="6928/17258.png" width="64" height="64" /><image x="192" y="64" href="6928/17333.png" width="64" height="64" /><image x="256" y="64" href="6928/126150.png" width="64" height="64" /><image x="320" y="64" href="6928/126022.png" width="64" height="64" /><image x="384" y="64" href="6928/126053.png" width="64" height="64" /><image x="448" y="64" href="6928/127236.png" width="64" height="64" /><image x="512" y="64" href="6928/126184.png" width="64" height="64" /><image x="576" y="64" href="6928/133968.png" width="64" height="64" /><image x="640" y="64" href="6928/126191.png" width="64" height="64" /><image x="704" y="64" href="6928/126046.png" width="64" height="64" /><image x="768" y="64" href="6928/126016.png" width="64" height="64" /><image x="832" y="64" href="6928/127022.png" width="64" height="64" /><image x="0" y="128" href="6928/126862.png" width="64" height="64" /><image x="64" y="128" href="6928/127106.png" width="64" height="64" /><image x="128" y="128" href="6928/126995.png" width="64" height="64" /><image x="192" y="128" href="6928/127104.png" width="64" height="64" /><image x="256" y="128" href="6928/127105.png" width="64" height="64" /><image x="320" y="128" href="6928/127019.png" width="64" height="64" /><image x="384" y="128" href="6928/126965.png" width="64" height="64" /><image x="448" y="128" href="6928/126964.png" width="64" height="64" /><image x="512" y="128" href="6928/127101.png" width="64" height="64" /><image x="576" y="128" href="6928/127013.png" width="64" height="64" /><image x="640" y="128" href="6928/126992.png" width="64" height="64" /><image x="704" y="128" href="6928/127018.png" width="64" height="64" /><image x="768" y="128" href="6928/127016.png" width="64" height="64" /><image x="832" y="128" href="6928/127017.png" width="64" height="64" /><image x="0" y="192" href="6928/127102.png" width="64" height="64" /><image x="64" y="192" href="6928/127015.png" width="64" height="64" /><image x="128" y="192" href="6928/127012.png" width="64" height="64" /><image x="192" y="192" href="6928/127020.png" width="64" height="64" /><image x="256" y="192" href="6928/127021.png" width="64" height="64" /><image x="320" y="192" href="6928/126993.png" width="64" height="64" /><image x="384" y="192" href="6928/128292.png" width="64" height="64" /><image x="448" y="192" href="6928/126444.png" width="64" height="64" /><image x="512" y="192" href="6928/126379.png" width="64" height="64" /><image x="576" y="192" href="6928/126385.png" width="64" height="64" /><image x="640" y="192" href="6928/126426.png" width="64" height="64" /><image x="704" y="192" href="6928/126383.png" width="64" height="64" /><image x="768" y="192" href="6928/126384.png" width="64" height="64" /><image x="832" y="192" href="6928/126390.png" width="64" height="64" /><image x="0" y="256" href="6928/126438.png" width="64" height="64" /><image x="64" y="256" href="6928/126387.png" width="64" height="64" /><image x="128" y="256" href="6928/126378.png" width="64" height="64" /><image x="192" y="256" href="6928/126442.png" width="64" height="64" /><image x="256" y="256" href="6928/126440.png" width="64" height="64" /><image x="320" y="256" href="6928/126439.png" width="64" height="64" /><image x="384" y="256" href="6928/126516.png" width="64" height="64" /><image x="448" y="256" href="6928/126445.png" width="64" height="64" /><image x="512" y="256" href="6928/126451.png" width="64" height="64" /><image x="576" y="256" href="6928/126388.png" width="64" height="64" /><image x="640" y="256" href="6928/126389.png" width="64" height="64" /><image x="704" y="256" href="6928/126386.png" width="64" height="64" /><image x="768" y="256" href="6928/126427.png" width="64" height="64" /><image x="832" y="256" href="6928/127242.png" width="64" height="64" /><image x="0" y="320" href="6928/127146.png" width="64" height="64" /><image x="64" y="320" href="6928/126403.png" width="64" height="64" /><image x="128" y="320" href="6928/127258.png" width="64" height="64" /><image x="192" y="320" href="6928/126404.png" width="64" height="64" /><image x="256" y="320" href="6928/126464.png" width="64" height="64" /><image x="320" y="320" href="6928/126406.png" width="64" height="64" /><image x="384" y="320" href="6928/127148.png" width="64" height="64" /><image x="448" y="320" href="6928/126392.png" width="64" height="64" /><image x="512" y="320" href="6928/126391.png" width="64" height="64" /><image x="576" y="320" href="6928/126443.png" width="64" height="64" /><image x="640" y="320" href="6928/126446.png" width="64" height="64" /><image x="704" y="320" href="6928/126453.png" width="64" height="64" /><image x="768" y="320" href="6928/126449.png" width="64" height="64" /><image x="832" y="320" href="6928/127149.png" width="64" height="64" /><image x="0" y="384" href="6928/127257.png" width="64" height="64" /><image x="64" y="384" href="6928/127151.png" width="64" height="64" /><image x="128" y="384" href="6928/127243.png" width="64" height="64" /><image x="192" y="384" href="6928/127256.png" width="64" height="64" /><image x="256" y="384" href="6928/127145.png" width="64" height="64" /><image x="320" y="384" href="6928/127237.png" width="64" height="64" /><image x="384" y="384" href="6928/127150.png" width="64" height="64" /><image x="448" y="384" href="6928/127217.png" width="64" height="64" /><image x="512" y="384" href="6928/127147.png" width="64" height="64" /><image x="576" y="384" href="6928/127193.png" width="64" height="64" /><image x="640" y="384" href="6928/127191.png" width="64" height="64" /><image x="704" y="384" href="6928/127837.png" width="64" height="64" /><image x="768" y="384" href="6928/126441.png" width="64" height="64" /><image x="832" y="384" href="6928/126365.png" width="64" height="64" /><image x="0" y="448" href="6928/126363.png" width="64" height="64" /><image x="64" y="448" href="6928/126408.png" width="64" height="64" /><image x="128" y="448" href="6928/126362.png" width="64" height="64" /><image x="192" y="448" href="6928/126364.png" width="64" height="64" /><image x="256" y="448" href="6928/126454.png" width="64" height="64" /><image x="320" y="448" href="6928/126458.png" width="64" height="64" /><image x="384" y="448" href="6928/126460.png" width="64" height="64" /><image x="448" y="448" href="6928/126462.png" width="64" height="64" /><image x="512" y="448" href="6928/126463.png" width="64" height="64" /><image x="576" y="448" href="6928/126452.png" width="64" height="64" /><image x="640" y="448" href="6928/126456.png" width="64" height="64" /><image x="704" y="448" href="6928/126450.png" width="64" height="64" /><image x="768" y="448" href="6928/126447.png" width="64" height="64" /><image x="832" y="448" href="6928/127218.png" width="64" height="64" /><image x="0" y="512" href="6928/126448.png" width="64" height="64" /><image x="64" y="512" href="6928/126455.png" width="64" height="64" /><image x="128" y="512" href="6928/126459.png" width="64" height="64" /><image x="192" y="512" href="6928/126465.png" width="64" height="64" /><image x="256" y="512" href="6928/126457.png" width="64" height="64" /><image x="320" y="512" href="6928/126394.png" width="64" height="64" /><image x="384" y="512" href="6928/126395.png" width="64" height="64" /><image x="448" y="512" href="6928/126393.png" width="64" height="64" /><image x="512" y="512" href="6928/126399.png" width="64" height="64" /><image x="576" y="512" href="6928/126397.png" width="64" height="64" /><image x="640" y="512" href="6928/126400.png" width="64" height="64" /><image x="704" y="512" href="6928/126398.png" width="64" height="64" /><image x="768" y="512" href="6928/126401.png" width="64" height="64" /><image x="832" y="512" href="6928/126396.png" width="64" height="64" /><image x="0" y="576" href="6928/127190.png" width="64" height="64" /><image x="64" y="576" href="6928/128445.png" width="64" height="64" /><image x="128" y="576" href="6928/126192.png" width="64" height="64" /><image x="192" y="576" href="6928/126250.png" width="64" height="64" /><image x="256" y="576" href="6928/128843.png" width="64" height="64" /><image x="320" y="576" href="6928/126156.png" width="64" height="64" /><image x="384" y="576" href="6928/126060.png" width="64" height="64" /><image x="448" y="576" href="6928/126168.png" width="64" height="64" /><image x="512" y="576" href="6928/126167.png" width="64" height="64" /><image x="576" y="576" href="6928/126171.png" width="64" height="64" /><image x="640" y="576" href="6928/126165.png" width="64" height="64" /><image x="704" y="576" href="6928/126169.png" width="64" height="64" /><image x="768" y="576" href="6928/126174.png" width="64" height="64" /><image x="832" y="576" href="6928/126155.png" width="64" height="64" /><image x="0" y="640" href="6928/126194.png" width="64" height="64" /><image x="64" y="640" href="6928/126255.png" width="64" height="64" /><image x="128" y="640" href="6928/126195.png" width="64" height="64" /><image x="192" y="640" href="6928/126520.png" width="64" height="64" /><image x="256" y="640" href="6928/126521.png" width="64" height="64" /><image x="320" y="640" href="6928/126526.png" width="64" height="64" /><image x="384" y="640" href="6928/126056.png" width="64" height="64" /><image x="448" y="640" href="6928/133955.png" width="64" height="64" /><image x="512" y="640" href="6928/126994.png" width="64" height="64" /><image x="576" y="640" href="6928/184141.png" width="64" height="64" /><image x="640" y="640" href="6928/126062.png" width="64" height="64" /><image x="704" y="640" href="6928/126247.png" width="64" height="64" /><image x="768" y="640" href="6928/126158.png" width="64" height="64" /><image x="832" y="640" href="6928/126170.png" width="64" height="64" /><image x="0" y="704" href="6928/126159.png" width="64" height="64" /><image x="64" y="704" href="6928/126157.png" width="64" height="64" /><image x="128" y="704" href="6928/126582.png" width="64" height="64" /><image x="192" y="704" href="6928/126186.png" width="64" height="64" /><image x="256" y="704" href="6928/126189.png" width="64" height="64" /><image x="320" y="704" href="6928/126228.png" width="64" height="64" /><image x="384" y="704" href="6928/126179.png" width="64" height="64" /><image x="448" y="704" href="6928/126181.png" width="64" height="64" /><image x="512" y="704" href="6928/126054.png" width="64" height="64" /><image x="576" y="704" href="6928/126049.png" width="64" height="64" /><image x="640" y="704" href="6928/126197.png" width="64" height="64" /><image x="704" y="704" href="6928/126014.png" width="64" height="64" /><image x="768" y="704" href="6928/186605.png" width="64" height="64" /><image x="832" y="704" href="6928/126185.png" width="64" height="64" /><image x="0" y="768" href="6928/126514.png" width="64" height="64" /><image x="64" y="768" href="6928/127883.png" width="64" height="64" /><image x="128" y="768" href="6928/126183.png" width="64" height="64" /><image x="192" y="768" href="6928/126518.png" width="64" height="64" /><image x="256" y="768" href="6928/126180.png" width="64" height="64" /><image x="320" y="768" href="6928/126166.png" width="64" height="64" /><image x="384" y="768" href="6928/126162.png" width="64" height="64" /><image x="448" y="768" href="6928/126058.png" width="64" height="64" /><image x="512" y="768" href="6928/126173.png" width="64" height="64" /><image x="576" y="768" href="6928/126249.png" width="64" height="64" /><image x="640" y="768" href="6928/126178.png" width="64" height="64" /><image x="704" y="768" href="6928/126163.png" width="64" height="64" /><image x="768" y="768" href="6928/126160.png" width="64" height="64" /><image x="832" y="768" href="6928/126164.png" width="64" height="64" /><image x="0" y="832" href="6928/126161.png" width="64" height="64" /><image x="64" y="832" href="6928/126172.png" width="64" height="64" /><image x="128" y="832" href="6928/126248.png" width="64" height="64" /><image x="192" y="832" href="6928/126177.png" width="64" height="64" /><image x="256" y="832" href="6928/126196.png" width="64" height="64" /><image x="320" y="832" href="6928/126026.png" width="64" height="64" /><image x="384" y="832" href="6928/126040.png" width="64" height="64" /><image x="448" y="832" href="6928/126061.png" width="64" height="64" /><image x="512" y="832" href="6928/126038.png" width="64" height="64" /><image x="576" y="832" href="6928/126015.png" width="64" height="64" /><image x="640" y="832" href="6928/177247.png" width="64" height="64" /><image x="704" y="832" href="6928/126190.png" width="64" height="64" /><image x="768" y="832" href="6928/127133.png" width="64" height="64" /><image x="832" y="832" href="6928/127219.png" width="64" height="64" /></svg>