<?xml version="1.0" encoding="UTF-8"?>
<svg xmlns="http://www.w3.org/2000/svg" version="1.1" height="384" width="384"><rect x="0" y="0" width="384" height="384" fill="rgb(192,192,192)" /><image x="0" y="0" href="69296/43006.png" width="64" height="64" /><image x="64" y="0" href="69296/43007.png" width="64" height="64" /><image x="128" y="0" href="69296/43008.png" width="64" height="64" /><image x="192" y="0" href="69296/42975.png" width="64" height="64" /><image x="256" y="0" href="69296/43009.png" width="64" height="64" /><image x="320" y="0" href="69296/43029.png" width="64" height="64" /><image x="0" y="64" href="69296/43010.png" width="64" height="64" /><image x="64" y="64" href="69296/42761.png" width="64" height="64" /><image x="128" y="64" href="69296/41990.png" width="64" height="64" /><image x="192" y="64" href="69296/137837.png" width="64" height="64" /><image x="256" y="64" href="69296/43005.png" width="64" height="64" /><image x="320" y="64" href="69296/43370.png" width="64" height="64" /><image x="0" y="128" href="69296/42045.png" width="64" height="64" /><image x="64" y="128" href="69296/43047.png" width="64" height="64" /><image x="128" y="128" href="69296/43398.png" width="64" height="64" /><image x="192" y="128" href="69296/43058.png" width="64" height="64" /><image x="256" y="128" href="69296/43033.png" width="64" height="64" /><image x="320" y="128" href="69296/226531.png" width="64" height="64" /><image x="0" y="192" href="69296/43415.png" width="64" height="64" /><image x="64" y="192" href="69296/43368.png" width="64" height="64" /><image x="128" y="192" href="69296/43046.png" width="64" height="64" /><image x="192" y="192" href="69296/43468.png" width="64" height="64" /><image x="256" y="192" href="69296/43024.png" width="64" height="64" /><image x="320" y="192" href="69296/51281.png" width="64" height="64" /><image x="0" y="256" href="69296/51282.png" width="64" height="64" /><image x="64" y="256" href="69296/50963.png" width="64" height="64" /><image x="128" y="256" href="69296/51166.png" width="64" height="64" /><image x="192" y="256" href="69296/50964.png" width="64" height="64" /><image x="256" y="256" href="69296/51175.png" width="64" height="64" /><image x="320" y="256" href="69296/50976.png" width="64" height="64" /><image x="0" y="320" href="69296/51275.png" width="64" height="64" /><image x="64" y="320" href="69296/51276.png" width="64" height="64" /><image x="128" y="320" href="69296/51167.png" width="64" height="64" /><image x="192" y="320" href="69296/52759.png" width="64" height="64" /></svg>