<?xml version="1.0" encoding="UTF-8"?>
<svg xmlns="http://www.w3.org/2000/svg" version="1.1" height="576" width="576"><rect x="0" y="0" width="576" height="576" fill="rgb(192,192,192)" /><image x="0" y="0" href="730/14587.png" width="64" height="64" /><image x="64" y="0" href="730/14588.png" width="64" height="64" /><image x="128" y="0" href="730/14589.png" width="64" height="64" /><image x="192" y="0" href="730/14590.png" width="64" height="64" /><image x="256" y="0" href="730/14591.png" width="64" height="64" /><image x="320" y="0" href="730/14592.png" width="64" height="64" /><image x="384" y="0" href="730/14593.png" width="64" height="64" /><image x="448" y="0" href="730/14594.png" width="64" height="64" /><image x="512" y="0" href="730/14595.png" width="64" height="64" /><image x="0" y="64" href="730/14643.png" width="64" height="64" /><image x="64" y="64" href="730/14597.png" width="64" height="64" /><image x="128" y="64" href="730/14598.png" width="64" height="64" /><image x="192" y="64" href="730/14596.png" width="64" height="64" /><image x="256" y="64" href="730/14599.png" width="64" height="64" /><image x="320" y="64" href="730/14600.png" width="64" height="64" /><image x="384" y="64" href="730/14601.png" width="64" height="64" /><image x="448" y="64" href="730/14602.png" width="64" height="64" /><image x="512" y="64" href="730/135502.png" width="64" height="64" /><image x="0" y="128" href="730/14604.png" width="64" height="64" /><image x="64" y="128" href="730/14605.png" width="64" height="64" /><image x="128" y="128" href="730/14606.png" width="64" height="64" /><image x="192" y="128" href="730/14607.png" width="64" height="64" /><image x="256" y="128" href="730/14608.png" width="64" height="64" /><image x="320" y="128" href="730/14609.png" width="64" height="64" /><image x="384" y="128" href="730/14610.png" width="64" height="64" /><image x="448" y="128" href="730/14611.png" width="64" height="64" /><image x="512" y="128" href="730/14612.png" width="64" height="64" /><image x="0" y="192" href="730/14613.png" width="64" height="64" /><image x="64" y="192" href="730/14614.png" width="64" height="64" /><image x="128" y="192" href="730/14615.png" width="64" height="64" /><image x="192" y="192" href="730/14616.png" width="64" height="64" /><image x="256" y="192" href="730/14617.png" width="64" height="64" /><image x="320" y="192" href="730/14618.png" width="64" height="64" /><image x="384" y="192" href="730/14619.png" width="64" height="64" /><image x="448" y="192" href="730/14620.png" width="64" height="64" /><image x="512" y="192" href="730/14621.png" width="64" height="64" /><image x="0" y="256" href="730/14622.png" width="64" height="64" /><image x="64" y="256" href="730/14623.png" width="64" height="64" /><image x="128" y="256" href="730/14624.png" width="64" height="64" /><image x="192" y="256" href="730/14625.png" width="64" height="64" /><image x="256" y="256" href="730/14626.png" width="64" height="64" /><image x="320" y="256" href="730/14644.png" width="64" height="64" /><image x="384" y="256" href="730/14627.png" width="64" height="64" /><image x="448" y="256" href="730/14628.png" width="64" height="64" /><image x="512" y="256" href="730/141382.png" width="64" height="64" /><image x="0" y="320" href="730/14630.png" width="64" height="64" /><image x="64" y="320" href="730/14631.png" width="64" height="64" /><image x="128" y="320" href="730/14632.png" width="64" height="64" /><image x="192" y="320" href="730/14633.png" width="64" height="64" /><image x="256" y="320" href="730/14634.png" width="64" height="64" /><image x="320" y="320" href="730/14636.png" width="64" height="64" /><image x="384" y="320" href="730/14637.png" width="64" height="64" /><image x="448" y="320" href="730/14635.png" width="64" height="64" /><image x="512" y="320" href="730/14638.png" width="64" height="64" /><image x="0" y="384" href="730/14639.png" width="64" height="64" /><image x="64" y="384" href="730/14640.png" width="64" height="64" /><image x="128" y="384" href="730/14641.png" width="64" height="64" /><image x="192" y="384" href="730/14645.png" width="64" height="64" /><image x="256" y="384" href="730/105791.png" width="64" height="64" /><image x="320" y="384" href="730/106364.png" width="64" height="64" /><image x="384" y="384" href="730/105794.png" width="64" height="64" /><image x="448" y="384" href="730/106393.png" width="64" height="64" /><image x="512" y="384" href="730/105793.png" width="64" height="64" /><image x="0" y="448" href="730/106394.png" width="64" height="64" /><image x="64" y="448" href="730/106365.png" width="64" height="64" /></svg>