<?xml version="1.0" encoding="UTF-8"?>
<svg xmlns="http://www.w3.org/2000/svg" version="1.1" height="768" width="768"><rect x="0" y="0" width="768" height="768" fill="rgb(192,192,192)" /><image x="0" y="0" href="7414/18505.png" width="64" height="64" /><image x="64" y="0" href="7414/53945.png" width="64" height="64" /><image x="128" y="0" href="7414/112235.png" width="64" height="64" /><image x="192" y="0" href="7414/18525.png" width="64" height="64" /><image x="256" y="0" href="7414/18553.png" width="64" height="64" /><image x="320" y="0" href="7414/18535.png" width="64" height="64" /><image x="384" y="0" href="7414/95456.png" width="64" height="64" /><image x="448" y="0" href="7414/95824.png" width="64" height="64" /><image x="512" y="0" href="7414/96941.png" width="64" height="64" /><image x="576" y="0" href="7414/95532.png" width="64" height="64" /><image x="640" y="0" href="7414/95309.png" width="64" height="64" /><image x="704" y="0" href="7414/31495.png" width="64" height="64" /><image x="0" y="64" href="7414/95330.png" width="64" height="64" /><image x="64" y="64" href="7414/95311.png" width="64" height="64" /><image x="128" y="64" href="7414/18581.png" width="64" height="64" /><image x="192" y="64" href="7414/28579.png" width="64" height="64" /><image x="256" y="64" href="7414/95250.png" width="64" height="64" /><image x="320" y="64" href="7414/18938.png" width="64" height="64" /><image x="384" y="64" href="7414/28012.png" width="64" height="64" /><image x="448" y="64" href="7414/95328.png" width="64" height="64" /><image x="512" y="64" href="7414/95301.png" width="64" height="64" /><image x="576" y="64" href="7414/95460.png" width="64" height="64" /><image x="640" y="64" href="7414/95307.png" width="64" height="64" /><image x="704" y="64" href="7414/95912.png" width="64" height="64" /><image x="0" y="128" href="7414/95302.png" width="64" height="64" /><image x="64" y="128" href="7414/28019.png" width="64" height="64" /><image x="128" y="128" href="7414/18480.png" width="64" height="64" /><image x="192" y="128" href="7414/95740.png" width="64" height="64" /><image x="256" y="128" href="7414/95242.png" width="64" height="64" /><image x="320" y="128" href="7414/214677.png" width="64" height="64" /><image x="384" y="128" href="7414/185258.png" width="64" height="64" /><image x="448" y="128" href="7414/183167.png" width="64" height="64" /><image x="512" y="128" href="7414/183166.png" width="64" height="64" /><image x="576" y="128" href="7414/185227.png" width="64" height="64" /><image x="640" y="128" href="7414/185601.png" width="64" height="64" /><image x="704" y="128" href="7414/185226.png" width="64" height="64" /><image x="0" y="192" href="7414/185224.png" width="64" height="64" /><image x="64" y="192" href="7414/183088.png" width="64" height="64" /><image x="128" y="192" href="7414/187323.png" width="64" height="64" /><image x="192" y="192" href="7414/187796.png" width="64" height="64" /><image x="256" y="192" href="7414/185225.png" width="64" height="64" /><image x="320" y="192" href="7414/182873.png" width="64" height="64" /><image x="384" y="192" href="7414/188015.png" width="64" height="64" /><image x="448" y="192" href="7414/188012.png" width="64" height="64" /><image x="512" y="192" href="7414/183054.png" width="64" height="64" /><image x="576" y="192" href="7414/185223.png" width="64" height="64" /><image x="640" y="192" href="7414/187059.png" width="64" height="64" /><image x="704" y="192" href="7414/186989.png" width="64" height="64" /><image x="0" y="256" href="7414/191487.png" width="64" height="64" /><image x="64" y="256" href="7414/183165.png" width="64" height="64" /><image x="128" y="256" href="7414/183345.png" width="64" height="64" /><image x="192" y="256" href="7414/183343.png" width="64" height="64" /><image x="256" y="256" href="7414/188001.png" width="64" height="64" /><image x="320" y="256" href="7414/183294.png" width="64" height="64" /><image x="384" y="256" href="7414/183344.png" width="64" height="64" /><image x="448" y="256" href="7414/183295.png" width="64" height="64" /><image x="512" y="256" href="7414/185324.png" width="64" height="64" /><image x="576" y="256" href="7414/185053.png" width="64" height="64" /><image x="640" y="256" href="7414/185323.png" width="64" height="64" /><image x="704" y="256" href="7414/185222.png" width="64" height="64" /><image x="0" y="320" href="7414/187325.png" width="64" height="64" /><image x="64" y="320" href="7414/188013.png" width="64" height="64" /><image x="128" y="320" href="7414/186574.png" width="64" height="64" /><image x="192" y="320" href="7414/187060.png" width="64" height="64" /><image x="256" y="320" href="7414/187063.png" width="64" height="64" /><image x="320" y="320" href="7414/191485.png" width="64" height="64" /><image x="384" y="320" href="7414/187798.png" width="64" height="64" /><image x="448" y="320" href="7414/186982.png" width="64" height="64" /><image x="512" y="320" href="7414/186193.png" width="64" height="64" /><image x="576" y="320" href="7414/187064.png" width="64" height="64" /><image x="640" y="320" href="7414/186987.png" width="64" height="64" /><image x="704" y="320" href="7414/186980.png" width="64" height="64" /><image x="0" y="384" href="7414/186985.png" width="64" height="64" /><image x="64" y="384" href="7414/186219.png" width="64" height="64" /><image x="128" y="384" href="7414/186225.png" width="64" height="64" /><image x="192" y="384" href="7414/182247.png" width="64" height="64" /><image x="256" y="384" href="7414/183056.png" width="64" height="64" /><image x="320" y="384" href="7414/183055.png" width="64" height="64" /><image x="384" y="384" href="7414/185216.png" width="64" height="64" /><image x="448" y="384" href="7414/186190.png" width="64" height="64" /><image x="512" y="384" href="7414/187399.png" width="64" height="64" /><image x="576" y="384" href="7414/186236.png" width="64" height="64" /><image x="640" y="384" href="7414/185617.png" width="64" height="64" /><image x="704" y="384" href="7414/185606.png" width="64" height="64" /><image x="0" y="448" href="7414/186228.png" width="64" height="64" /><image x="64" y="448" href="7414/186224.png" width="64" height="64" /><image x="128" y="448" href="7414/185635.png" width="64" height="64" /><image x="192" y="448" href="7414/185054.png" width="64" height="64" /><image x="256" y="448" href="7414/188616.png" width="64" height="64" /><image x="320" y="448" href="7414/187992.png" width="64" height="64" /><image x="384" y="448" href="7414/187997.png" width="64" height="64" /><image x="448" y="448" href="7414/187977.png" width="64" height="64" /><image x="512" y="448" href="7414/187982.png" width="64" height="64" /><image x="576" y="448" href="7414/188009.png" width="64" height="64" /><image x="640" y="448" href="7414/187442.png" width="64" height="64" /><image x="704" y="448" href="7414/187443.png" width="64" height="64" /><image x="0" y="512" href="7414/188023.png" width="64" height="64" /><image x="64" y="512" href="7414/187445.png" width="64" height="64" /><image x="128" y="512" href="7414/156167.png" width="64" height="64" /><image x="192" y="512" href="7414/187326.png" width="64" height="64" /><image x="256" y="512" href="7414/191543.png" width="64" height="64" /><image x="320" y="512" href="7414/191541.png" width="64" height="64" /><image x="384" y="512" href="7414/192261.png" width="64" height="64" /><image x="448" y="512" href="7414/202512.png" width="64" height="64" /><image x="512" y="512" href="7414/191627.png" width="64" height="64" /><image x="576" y="512" href="7414/191684.png" width="64" height="64" /><image x="640" y="512" href="7414/193053.png" width="64" height="64" /><image x="704" y="512" href="7414/191948.png" width="64" height="64" /><image x="0" y="576" href="7414/191352.png" width="64" height="64" /><image x="64" y="576" href="7414/191953.png" width="64" height="64" /><image x="128" y="576" href="7414/190685.png" width="64" height="64" /><image x="192" y="576" href="7414/191486.png" width="64" height="64" /><image x="256" y="576" href="7414/189705.png" width="64" height="64" /><image x="320" y="576" href="7414/188019.png" width="64" height="64" /><image x="384" y="576" href="7414/188384.png" width="64" height="64" /><image x="448" y="576" href="7414/189744.png" width="64" height="64" /><image x="512" y="576" href="7414/189680.png" width="64" height="64" /><image x="576" y="576" href="7414/189674.png" width="64" height="64" /><image x="640" y="576" href="7414/189682.png" width="64" height="64" /><image x="704" y="576" href="7414/189533.png" width="64" height="64" /><image x="0" y="640" href="7414/189503.png" width="64" height="64" /><image x="64" y="640" href="7414/189534.png" width="64" height="64" /><image x="128" y="640" href="7414/189681.png" width="64" height="64" /><image x="192" y="640" href="7414/189679.png" width="64" height="64" /><image x="256" y="640" href="7414/189504.png" width="64" height="64" /><image x="320" y="640" href="7414/188383.png" width="64" height="64" /><image x="384" y="640" href="7414/188389.png" width="64" height="64" /><image x="448" y="640" href="7414/188368.png" width="64" height="64" /><image x="512" y="640" href="7414/188396.png" width="64" height="64" /><image x="576" y="640" href="7414/188391.png" width="64" height="64" /><image x="640" y="640" href="7414/188336.png" width="64" height="64" /><image x="704" y="640" href="7414/188347.png" width="64" height="64" /><image x="0" y="704" href="7414/188385.png" width="64" height="64" /><image x="64" y="704" href="7414/188346.png" width="64" height="64" /><image x="128" y="704" href="7414/188343.png" width="64" height="64" /><image x="192" y="704" href="7414/188386.png" width="64" height="64" /><image x="256" y="704" href="7414/211139.png" width="64" height="64" /><image x="320" y="704" href="7414/238344.png" width="64" height="64" /><image x="384" y="704" href="7414/274732.png" width="64" height="64" /></svg>