<?xml version="1.0" encoding="UTF-8"?>
<svg xmlns="http://www.w3.org/2000/svg" version="1.1" height="768" width="768"><rect x="0" y="0" width="768" height="768" fill="rgb(192,192,192)" /><image x="0" y="0" href="7519/148290.png" width="64" height="64" /><image x="64" y="0" href="7519/32626.png" width="64" height="64" /><image x="128" y="0" href="7519/31794.png" width="64" height="64" /><image x="192" y="0" href="7519/51639.png" width="64" height="64" /><image x="256" y="0" href="7519/53433.png" width="64" height="64" /><image x="320" y="0" href="7519/31825.png" width="64" height="64" /><image x="384" y="0" href="7519/53527.png" width="64" height="64" /><image x="448" y="0" href="7519/31798.png" width="64" height="64" /><image x="512" y="0" href="7519/52770.png" width="64" height="64" /><image x="576" y="0" href="7519/32555.png" width="64" height="64" /><image x="640" y="0" href="7519/32314.png" width="64" height="64" /><image x="704" y="0" href="7519/32566.png" width="64" height="64" /><image x="0" y="64" href="7519/53609.png" width="64" height="64" /><image x="64" y="64" href="7519/53445.png" width="64" height="64" /><image x="128" y="64" href="7519/32426.png" width="64" height="64" /><image x="192" y="64" href="7519/53607.png" width="64" height="64" /><image x="256" y="64" href="7519/53716.png" width="64" height="64" /><image x="320" y="64" href="7519/53454.png" width="64" height="64" /><image x="384" y="64" href="7519/32799.png" width="64" height="64" /><image x="448" y="64" href="7519/31780.png" width="64" height="64" /><image x="512" y="64" href="7519/53812.png" width="64" height="64" /><image x="576" y="64" href="7519/53529.png" width="64" height="64" /><image x="640" y="64" href="7519/99942.png" width="64" height="64" /><image x="704" y="64" href="7519/32360.png" width="64" height="64" /><image x="0" y="128" href="7519/53718.png" width="64" height="64" /><image x="64" y="128" href="7519/32399.png" width="64" height="64" /><image x="128" y="128" href="7519/32571.png" width="64" height="64" /><image x="192" y="128" href="7519/32794.png" width="64" height="64" /><image x="256" y="128" href="7519/52788.png" width="64" height="64" /><image x="320" y="128" href="7519/53438.png" width="64" height="64" /><image x="384" y="128" href="7519/53722.png" width="64" height="64" /><image x="448" y="128" href="7519/32804.png" width="64" height="64" /><image x="512" y="128" href="7519/53434.png" width="64" height="64" /><image x="576" y="128" href="7519/53442.png" width="64" height="64" /><image x="640" y="128" href="7519/53517.png" width="64" height="64" /><image x="704" y="128" href="7519/32327.png" width="64" height="64" /><image x="0" y="192" href="7519/53526.png" width="64" height="64" /><image x="64" y="192" href="7519/53183.png" width="64" height="64" /><image x="128" y="192" href="7519/32576.png" width="64" height="64" /><image x="192" y="192" href="7519/53443.png" width="64" height="64" /><image x="256" y="192" href="7519/53820.png" width="64" height="64" /><image x="320" y="192" href="7519/94484.png" width="64" height="64" /><image x="384" y="192" href="7519/32500.png" width="64" height="64" /><image x="448" y="192" href="7519/32782.png" width="64" height="64" /><image x="512" y="192" href="7519/53514.png" width="64" height="64" /><image x="576" y="192" href="7519/31799.png" width="64" height="64" /><image x="640" y="192" href="7519/32859.png" width="64" height="64" /><image x="704" y="192" href="7519/32860.png" width="64" height="64" /><image x="0" y="256" href="7519/32861.png" width="64" height="64" /><image x="64" y="256" href="7519/110977.png" width="64" height="64" /><image x="128" y="256" href="7519/53483.png" width="64" height="64" /><image x="192" y="256" href="7519/32427.png" width="64" height="64" /><image x="256" y="256" href="7519/32862.png" width="64" height="64" /><image x="320" y="256" href="7519/32863.png" width="64" height="64" /><image x="384" y="256" href="7519/32465.png" width="64" height="64" /><image x="448" y="256" href="7519/53568.png" width="64" height="64" /><image x="512" y="256" href="7519/32554.png" width="64" height="64" /><image x="576" y="256" href="7519/32864.png" width="64" height="64" /><image x="640" y="256" href="7519/32735.png" width="64" height="64" /><image x="704" y="256" href="7519/31770.png" width="64" height="64" /><image x="0" y="320" href="7519/32485.png" width="64" height="64" /><image x="64" y="320" href="7519/32390.png" width="64" height="64" /><image x="128" y="320" href="7519/31797.png" width="64" height="64" /><image x="192" y="320" href="7519/54629.png" width="64" height="64" /><image x="256" y="320" href="7519/32760.png" width="64" height="64" /><image x="320" y="320" href="7519/32410.png" width="64" height="64" /><image x="384" y="320" href="7519/32865.png" width="64" height="64" /><image x="448" y="320" href="7519/32809.png" width="64" height="64" /><image x="512" y="320" href="7519/32634.png" width="64" height="64" /><image x="576" y="320" href="7519/32569.png" width="64" height="64" /><image x="640" y="320" href="7519/52772.png" width="64" height="64" /><image x="704" y="320" href="7519/53444.png" width="64" height="64" /><image x="0" y="384" href="7519/32439.png" width="64" height="64" /><image x="64" y="384" href="7519/100797.png" width="64" height="64" /><image x="128" y="384" href="7519/53485.png" width="64" height="64" /><image x="192" y="384" href="7519/32497.png" width="64" height="64" /><image x="256" y="384" href="7519/32391.png" width="64" height="64" /><image x="320" y="384" href="7519/88912.png" width="64" height="64" /><image x="384" y="384" href="7519/100823.png" width="64" height="64" /><image x="448" y="384" href="7519/32389.png" width="64" height="64" /><image x="512" y="384" href="7519/32383.png" width="64" height="64" /><image x="576" y="384" href="7519/32574.png" width="64" height="64" /><image x="640" y="384" href="7519/32577.png" width="64" height="64" /><image x="704" y="384" href="7519/32567.png" width="64" height="64" /><image x="0" y="448" href="7519/32866.png" width="64" height="64" /><image x="64" y="448" href="7519/32837.png" width="64" height="64" /><image x="128" y="448" href="7519/32776.png" width="64" height="64" /><image x="192" y="448" href="7519/32496.png" width="64" height="64" /><image x="256" y="448" href="7519/54275.png" width="64" height="64" /><image x="320" y="448" href="7519/32771.png" width="64" height="64" /><image x="384" y="448" href="7519/32570.png" width="64" height="64" /><image x="448" y="448" href="7519/32375.png" width="64" height="64" /><image x="512" y="448" href="7519/32533.png" width="64" height="64" /><image x="576" y="448" href="7519/53694.png" width="64" height="64" /><image x="640" y="448" href="7519/31779.png" width="64" height="64" /><image x="704" y="448" href="7519/31778.png" width="64" height="64" /><image x="0" y="512" href="7519/32802.png" width="64" height="64" /><image x="64" y="512" href="7519/31809.png" width="64" height="64" /><image x="128" y="512" href="7519/53540.png" width="64" height="64" /><image x="192" y="512" href="7519/53488.png" width="64" height="64" /><image x="256" y="512" href="7519/32791.png" width="64" height="64" /><image x="320" y="512" href="7519/53452.png" width="64" height="64" /><image x="384" y="512" href="7519/31795.png" width="64" height="64" /><image x="448" y="512" href="7519/53447.png" width="64" height="64" /><image x="512" y="512" href="7519/53494.png" width="64" height="64" /><image x="576" y="512" href="7519/52773.png" width="64" height="64" /><image x="640" y="512" href="7519/53512.png" width="64" height="64" /><image x="704" y="512" href="7519/32319.png" width="64" height="64" /><image x="0" y="576" href="7519/114064.png" width="64" height="64" /><image x="64" y="576" href="7519/32559.png" width="64" height="64" /><image x="128" y="576" href="7519/32759.png" width="64" height="64" /><image x="192" y="576" href="7519/53298.png" width="64" height="64" /><image x="256" y="576" href="7519/31796.png" width="64" height="64" /><image x="320" y="576" href="7519/32761.png" width="64" height="64" /><image x="384" y="576" href="7519/53428.png" width="64" height="64" /><image x="448" y="576" href="7519/32853.png" width="64" height="64" /><image x="512" y="576" href="7519/53489.png" width="64" height="64" /><image x="576" y="576" href="7519/32854.png" width="64" height="64" /><image x="640" y="576" href="7519/32855.png" width="64" height="64" /><image x="704" y="576" href="7519/32856.png" width="64" height="64" /><image x="0" y="640" href="7519/32857.png" width="64" height="64" /><image x="64" y="640" href="7519/53446.png" width="64" height="64" /><image x="128" y="640" href="7519/32858.png" width="64" height="64" /><image x="192" y="640" href="7519/32408.png" width="64" height="64" /><image x="256" y="640" href="7519/32575.png" width="64" height="64" /><image x="320" y="640" href="7519/32359.png" width="64" height="64" /><image x="384" y="640" href="7519/52774.png" width="64" height="64" /></svg>