<?xml version="1.0" encoding="UTF-8"?>
<svg xmlns="http://www.w3.org/2000/svg" version="1.1" height="384" width="384"><rect x="0" y="0" width="384" height="384" fill="rgb(192,192,192)" /><image x="0" y="0" href="7542/31878.png" width="64" height="64" /><image x="64" y="0" href="7542/31879.png" width="64" height="64" /><image x="128" y="0" href="7542/31880.png" width="64" height="64" /><image x="192" y="0" href="7542/31893.png" width="64" height="64" /><image x="256" y="0" href="7542/32872.png" width="64" height="64" /><image x="320" y="0" href="7542/32873.png" width="64" height="64" /><image x="0" y="64" href="7542/31894.png" width="64" height="64" /><image x="64" y="64" href="7542/32874.png" width="64" height="64" /><image x="128" y="64" href="7542/31895.png" width="64" height="64" /><image x="192" y="64" href="7542/32875.png" width="64" height="64" /><image x="256" y="64" href="7542/31898.png" width="64" height="64" /><image x="320" y="64" href="7542/32876.png" width="64" height="64" /><image x="0" y="128" href="7542/31900.png" width="64" height="64" /><image x="64" y="128" href="7542/31901.png" width="64" height="64" /><image x="128" y="128" href="7542/31881.png" width="64" height="64" /><image x="192" y="128" href="7542/31882.png" width="64" height="64" /><image x="256" y="128" href="7542/31863.png" width="64" height="64" /><image x="320" y="128" href="7542/31905.png" width="64" height="64" /><image x="0" y="192" href="7542/31906.png" width="64" height="64" /><image x="64" y="192" href="7542/31867.png" width="64" height="64" /><image x="128" y="192" href="7542/31868.png" width="64" height="64" /><image x="192" y="192" href="7542/31869.png" width="64" height="64" /><image x="256" y="192" href="7542/31872.png" width="64" height="64" /><image x="320" y="192" href="7542/31873.png" width="64" height="64" /><image x="0" y="256" href="7542/31874.png" width="64" height="64" /><image x="64" y="256" href="7542/31870.png" width="64" height="64" /><image x="128" y="256" href="7542/31871.png" width="64" height="64" /><image x="192" y="256" href="7542/31875.png" width="64" height="64" /><image x="256" y="256" href="7542/31876.png" width="64" height="64" /><image x="320" y="256" href="7542/31877.png" width="64" height="64" /></svg>