<?xml version="1.0" encoding="UTF-8"?>
<svg xmlns="http://www.w3.org/2000/svg" version="1.1" height="832" width="832"><rect x="0" y="0" width="832" height="832" fill="rgb(192,192,192)" /><image x="0" y="0" href="77508/201768.png" width="64" height="64" /><image x="64" y="0" href="77508/216973.png" width="64" height="64" /><image x="128" y="0" href="77508/172166.png" width="64" height="64" /><image x="192" y="0" href="77508/148607.png" width="64" height="64" /><image x="256" y="0" href="77508/213481.png" width="64" height="64" /><image x="320" y="0" href="77508/173669.png" width="64" height="64" /><image x="384" y="0" href="77508/173702.png" width="64" height="64" /><image x="448" y="0" href="77508/189945.png" width="64" height="64" /><image x="512" y="0" href="77508/173677.png" width="64" height="64" /><image x="576" y="0" href="77508/173675.png" width="64" height="64" /><image x="640" y="0" href="77508/176773.png" width="64" height="64" /><image x="704" y="0" href="77508/176937.png" width="64" height="64" /><image x="768" y="0" href="77508/201421.png" width="64" height="64" /><image x="0" y="64" href="77508/148629.png" width="64" height="64" /><image x="64" y="64" href="77508/151094.png" width="64" height="64" /><image x="128" y="64" href="77508/173678.png" width="64" height="64" /><image x="192" y="64" href="77508/173673.png" width="64" height="64" /><image x="256" y="64" href="77508/148606.png" width="64" height="64" /><image x="320" y="64" href="77508/151111.png" width="64" height="64" /><image x="384" y="64" href="77508/148599.png" width="64" height="64" /><image x="448" y="64" href="77508/151103.png" width="64" height="64" /><image x="512" y="64" href="77508/148608.png" width="64" height="64" /><image x="576" y="64" href="77508/187446.png" width="64" height="64" /><image x="640" y="64" href="77508/148624.png" width="64" height="64" /><image x="704" y="64" href="77508/150458.png" width="64" height="64" /><image x="768" y="64" href="77508/150456.png" width="64" height="64" /><image x="0" y="128" href="77508/150445.png" width="64" height="64" /><image x="64" y="128" href="77508/218104.png" width="64" height="64" /><image x="128" y="128" href="77508/208813.png" width="64" height="64" /><image x="192" y="128" href="77508/150454.png" width="64" height="64" /><image x="256" y="128" href="77508/201167.png" width="64" height="64" /><image x="320" y="128" href="77508/173672.png" width="64" height="64" /><image x="384" y="128" href="77508/221686.png" width="64" height="64" /><image x="448" y="128" href="77508/150766.png" width="64" height="64" /><image x="512" y="128" href="77508/151108.png" width="64" height="64" /><image x="576" y="128" href="77508/173704.png" width="64" height="64" /><image x="640" y="128" href="77508/173686.png" width="64" height="64" /><image x="704" y="128" href="77508/151104.png" width="64" height="64" /><image x="768" y="128" href="77508/187322.png" width="64" height="64" /><image x="0" y="192" href="77508/225913.png" width="64" height="64" /><image x="64" y="192" href="77508/192799.png" width="64" height="64" /><image x="128" y="192" href="77508/221687.png" width="64" height="64" /><image x="192" y="192" href="77508/192822.png" width="64" height="64" /><image x="256" y="192" href="77508/201408.png" width="64" height="64" /><image x="320" y="192" href="77508/192800.png" width="64" height="64" /><image x="384" y="192" href="77508/225894.png" width="64" height="64" /><image x="448" y="192" href="77508/192815.png" width="64" height="64" /><image x="512" y="192" href="77508/201321.png" width="64" height="64" /><image x="576" y="192" href="77508/192796.png" width="64" height="64" /><image x="640" y="192" href="77508/230736.png" width="64" height="64" /><image x="704" y="192" href="77508/173701.png" width="64" height="64" /><image x="768" y="192" href="77508/173676.png" width="64" height="64" /><image x="0" y="256" href="77508/192823.png" width="64" height="64" /><image x="64" y="256" href="77508/226168.png" width="64" height="64" /><image x="128" y="256" href="77508/194867.png" width="64" height="64" /><image x="192" y="256" href="77508/201917.png" width="64" height="64" /><image x="256" y="256" href="77508/201187.png" width="64" height="64" /><image x="320" y="256" href="77508/194616.png" width="64" height="64" /><image x="384" y="256" href="77508/206148.png" width="64" height="64" /><image x="448" y="256" href="77508/206107.png" width="64" height="64" /><image x="512" y="256" href="77508/206123.png" width="64" height="64" /><image x="576" y="256" href="77508/173694.png" width="64" height="64" /><image x="640" y="256" href="77508/173680.png" width="64" height="64" /><image x="704" y="256" href="77508/173671.png" width="64" height="64" /><image x="768" y="256" href="77508/173691.png" width="64" height="64" /><image x="0" y="320" href="77508/173687.png" width="64" height="64" /><image x="64" y="320" href="77508/173670.png" width="64" height="64" /><image x="128" y="320" href="77508/173705.png" width="64" height="64" /><image x="192" y="320" href="77508/194617.png" width="64" height="64" /><image x="256" y="320" href="77508/226186.png" width="64" height="64" /><image x="320" y="320" href="77508/214663.png" width="64" height="64" /><image x="384" y="320" href="77508/226295.png" width="64" height="64" /><image x="448" y="320" href="77508/214687.png" width="64" height="64" /><image x="512" y="320" href="77508/193355.png" width="64" height="64" /><image x="576" y="320" href="77508/193332.png" width="64" height="64" /><image x="640" y="320" href="77508/193360.png" width="64" height="64" /><image x="704" y="320" href="77508/192797.png" width="64" height="64" /><image x="768" y="320" href="77508/221634.png" width="64" height="64" /><image x="0" y="384" href="77508/209332.png" width="64" height="64" /><image x="64" y="384" href="77508/209333.png" width="64" height="64" /><image x="128" y="384" href="77508/209460.png" width="64" height="64" /><image x="192" y="384" href="77508/207073.png" width="64" height="64" /><image x="256" y="384" href="77508/207208.png" width="64" height="64" /><image x="320" y="384" href="77508/206149.png" width="64" height="64" /><image x="384" y="384" href="77508/206409.png" width="64" height="64" /><image x="448" y="384" href="77508/206124.png" width="64" height="64" /><image x="512" y="384" href="77508/228757.png" width="64" height="64" /><image x="576" y="384" href="77508/225893.png" width="64" height="64" /><image x="640" y="384" href="77508/209313.png" width="64" height="64" /><image x="704" y="384" href="77508/209314.png" width="64" height="64" /><image x="768" y="384" href="77508/225749.png" width="64" height="64" /><image x="0" y="448" href="77508/209267.png" width="64" height="64" /><image x="64" y="448" href="77508/209255.png" width="64" height="64" /><image x="128" y="448" href="77508/209268.png" width="64" height="64" /><image x="192" y="448" href="77508/208875.png" width="64" height="64" /><image x="256" y="448" href="77508/206239.png" width="64" height="64" /><image x="320" y="448" href="77508/209490.png" width="64" height="64" /><image x="384" y="448" href="77508/209459.png" width="64" height="64" /><image x="448" y="448" href="77508/209488.png" width="64" height="64" /><image x="512" y="448" href="77508/225855.png" width="64" height="64" /><image x="576" y="448" href="77508/206420.png" width="64" height="64" /><image x="640" y="448" href="77508/222562.png" width="64" height="64" /><image x="704" y="448" href="77508/206401.png" width="64" height="64" /><image x="768" y="448" href="77508/222418.png" width="64" height="64" /><image x="0" y="512" href="77508/214606.png" width="64" height="64" /><image x="64" y="512" href="77508/245535.png" width="64" height="64" /><image x="128" y="512" href="77508/228458.png" width="64" height="64" /><image x="192" y="512" href="77508/214902.png" width="64" height="64" /><image x="256" y="512" href="77508/214892.png" width="64" height="64" /><image x="320" y="512" href="77508/214905.png" width="64" height="64" /><image x="384" y="512" href="77508/226238.png" width="64" height="64" /><image x="448" y="512" href="77508/214686.png" width="64" height="64" /><image x="512" y="512" href="77508/214903.png" width="64" height="64" /><image x="576" y="512" href="77508/207047.png" width="64" height="64" /><image x="640" y="512" href="77508/208848.png" width="64" height="64" /><image x="704" y="512" href="77508/226252.png" width="64" height="64" /><image x="768" y="512" href="77508/208812.png" width="64" height="64" /><image x="0" y="576" href="77508/259938.png" width="64" height="64" /><image x="64" y="576" href="77508/257904.png" width="64" height="64" /><image x="128" y="576" href="77508/270902.png" width="64" height="64" /><image x="192" y="576" href="77508/256956.png" width="64" height="64" /><image x="256" y="576" href="77508/257517.png" width="64" height="64" /><image x="320" y="576" href="77508/257518.png" width="64" height="64" /><image x="384" y="576" href="77508/267079.png" width="64" height="64" /><image x="448" y="576" href="77508/265627.png" width="64" height="64" /><image x="512" y="576" href="77508/265497.png" width="64" height="64" /><image x="576" y="576" href="77508/270854.png" width="64" height="64" /><image x="640" y="576" href="77508/267486.png" width="64" height="64" /><image x="704" y="576" href="77508/265521.png" width="64" height="64" /><image x="768" y="576" href="77508/265490.png" width="64" height="64" /><image x="0" y="640" href="77508/265496.png" width="64" height="64" /><image x="64" y="640" href="77508/265424.png" width="64" height="64" /><image x="128" y="640" href="77508/265491.png" width="64" height="64" /><image x="192" y="640" href="77508/266162.png" width="64" height="64" /><image x="256" y="640" href="77508/265473.png" width="64" height="64" /><image x="320" y="640" href="77508/265492.png" width="64" height="64" /><image x="384" y="640" href="77508/265425.png" width="64" height="64" /><image x="448" y="640" href="77508/265517.png" width="64" height="64" /><image x="512" y="640" href="77508/265518.png" width="64" height="64" /><image x="576" y="640" href="77508/265484.png" width="64" height="64" /><image x="640" y="640" href="77508/266149.png" width="64" height="64" /><image x="704" y="640" href="77508/265619.png" width="64" height="64" /><image x="768" y="640" href="77508/265573.png" width="64" height="64" /><image x="0" y="704" href="77508/265571.png" width="64" height="64" /><image x="64" y="704" href="77508/266099.png" width="64" height="64" /><image x="128" y="704" href="77508/266077.png" width="64" height="64" /><image x="192" y="704" href="77508/266085.png" width="64" height="64" /><image x="256" y="704" href="77508/266090.png" width="64" height="64" /><image x="320" y="704" href="77508/266355.png" width="64" height="64" /><image x="384" y="704" href="77508/266334.png" width="64" height="64" /><image x="448" y="704" href="77508/266356.png" width="64" height="64" /><image x="512" y="704" href="77508/266845.png" width="64" height="64" /><image x="576" y="704" href="77508/266408.png" width="64" height="64" /><image x="640" y="704" href="77508/266409.png" width="64" height="64" /><image x="704" y="704" href="77508/267094.png" width="64" height="64" /><image x="768" y="704" href="77508/266335.png" width="64" height="64" /><image x="0" y="768" href="77508/266373.png" width="64" height="64" /><image x="64" y="768" href="77508/266357.png" width="64" height="64" /><image x="128" y="768" href="77508/281241.png" width="64" height="64" /><image x="192" y="768" href="77508/281242.png" width="64" height="64" /><image x="256" y="768" href="77508/281243.png" width="64" height="64" /><image x="320" y="768" href="77508/281227.png" width="64" height="64" /><image x="384" y="768" href="77508/281295.png" width="64" height="64" /><image x="448" y="768" href="77508/281285.png" width="64" height="64" /><image x="512" y="768" href="77508/281564.png" width="64" height="64" /></svg>