<?xml version="1.0" encoding="UTF-8"?>
<svg xmlns="http://www.w3.org/2000/svg" version="1.1" height="320" width="320"><rect x="0" y="0" width="320" height="320" fill="rgb(192,192,192)" /><image x="0" y="0" href="79640/152485.png" width="64" height="64" /><image x="64" y="0" href="79640/151903.png" width="64" height="64" /><image x="128" y="0" href="79640/152469.png" width="64" height="64" /><image x="192" y="0" href="79640/151963.png" width="64" height="64" /><image x="256" y="0" href="79640/152471.png" width="64" height="64" /><image x="0" y="64" href="79640/152470.png" width="64" height="64" /><image x="64" y="64" href="79640/152474.png" width="64" height="64" /><image x="128" y="64" href="79640/151959.png" width="64" height="64" /><image x="192" y="64" href="79640/152480.png" width="64" height="64" /><image x="256" y="64" href="79640/152472.png" width="64" height="64" /><image x="0" y="128" href="79640/152473.png" width="64" height="64" /><image x="64" y="128" href="79640/152465.png" width="64" height="64" /><image x="128" y="128" href="79640/152468.png" width="64" height="64" /><image x="192" y="128" href="79640/152484.png" width="64" height="64" /><image x="256" y="128" href="79640/152493.png" width="64" height="64" /><image x="0" y="192" href="79640/152478.png" width="64" height="64" /><image x="64" y="192" href="79640/151964.png" width="64" height="64" /><image x="128" y="192" href="79640/152481.png" width="64" height="64" /><image x="192" y="192" href="79640/152476.png" width="64" height="64" /><image x="256" y="192" href="79640/151971.png" width="64" height="64" /></svg>