<?xml version="1.0" encoding="UTF-8"?>
<svg xmlns="http://www.w3.org/2000/svg" version="1.1" height="256" width="256"><rect x="0" y="0" width="256" height="256" fill="rgb(192,192,192)" /><image x="0" y="0" href="8074/35744.png" width="64" height="64" /><image x="64" y="0" href="8074/35745.png" width="64" height="64" /><image x="128" y="0" href="8074/35746.png" width="64" height="64" /><image x="192" y="0" href="8074/81277.png" width="64" height="64" /><image x="0" y="64" href="8074/35272.png" width="64" height="64" /><image x="64" y="64" href="8074/33718.png" width="64" height="64" /><image x="128" y="64" href="8074/35747.png" width="64" height="64" /><image x="192" y="64" href="8074/35748.png" width="64" height="64" /><image x="0" y="128" href="8074/35749.png" width="64" height="64" /><image x="64" y="128" href="8074/33719.png" width="64" height="64" /><image x="128" y="128" href="8074/33720.png" width="64" height="64" /><image x="192" y="128" href="8074/35750.png" width="64" height="64" /><image x="0" y="192" href="8074/35751.png" width="64" height="64" /><image x="64" y="192" href="8074/35752.png" width="64" height="64" /></svg>