<?xml version="1.0" encoding="UTF-8"?>
<svg xmlns="http://www.w3.org/2000/svg" version="1.1" height="640" width="640"><rect x="0" y="0" width="640" height="640" fill="rgb(192,192,192)" /><image x="0" y="0" href="8089/104430.png" width="64" height="64" /><image x="64" y="0" href="8089/33774.png" width="64" height="64" /><image x="128" y="0" href="8089/36362.png" width="64" height="64" /><image x="192" y="0" href="8089/36363.png" width="64" height="64" /><image x="256" y="0" href="8089/95773.png" width="64" height="64" /><image x="320" y="0" href="8089/36372.png" width="64" height="64" /><image x="384" y="0" href="8089/36364.png" width="64" height="64" /><image x="448" y="0" href="8089/34039.png" width="64" height="64" /><image x="512" y="0" href="8089/104432.png" width="64" height="64" /><image x="576" y="0" href="8089/36374.png" width="64" height="64" /><image x="0" y="64" href="8089/34038.png" width="64" height="64" /><image x="64" y="64" href="8089/33775.png" width="64" height="64" /><image x="128" y="64" href="8089/34022.png" width="64" height="64" /><image x="192" y="64" href="8089/34055.png" width="64" height="64" /><image x="256" y="64" href="8089/104433.png" width="64" height="64" /><image x="320" y="64" href="8089/34035.png" width="64" height="64" /><image x="384" y="64" href="8089/34023.png" width="64" height="64" /><image x="448" y="64" href="8089/34070.png" width="64" height="64" /><image x="512" y="64" href="8089/34032.png" width="64" height="64" /><image x="576" y="64" href="8089/36246.png" width="64" height="64" /><image x="0" y="128" href="8089/34021.png" width="64" height="64" /><image x="64" y="128" href="8089/34040.png" width="64" height="64" /><image x="128" y="128" href="8089/34012.png" width="64" height="64" /><image x="192" y="128" href="8089/36515.png" width="64" height="64" /><image x="256" y="128" href="8089/36509.png" width="64" height="64" /><image x="320" y="128" href="8089/34024.png" width="64" height="64" /><image x="384" y="128" href="8089/34025.png" width="64" height="64" /><image x="448" y="128" href="8089/34020.png" width="64" height="64" /><image x="512" y="128" href="8089/36375.png" width="64" height="64" /><image x="576" y="128" href="8089/206198.png" width="64" height="64" /><image x="0" y="192" href="8089/206255.png" width="64" height="64" /><image x="64" y="192" href="8089/206119.png" width="64" height="64" /><image x="128" y="192" href="8089/206307.png" width="64" height="64" /><image x="192" y="192" href="8089/208786.png" width="64" height="64" /><image x="256" y="192" href="8089/206199.png" width="64" height="64" /><image x="320" y="192" href="8089/206055.png" width="64" height="64" /><image x="384" y="192" href="8089/206060.png" width="64" height="64" /><image x="448" y="192" href="8089/205821.png" width="64" height="64" /><image x="512" y="192" href="8089/205822.png" width="64" height="64" /><image x="576" y="192" href="8089/205826.png" width="64" height="64" /><image x="0" y="256" href="8089/205825.png" width="64" height="64" /><image x="64" y="256" href="8089/205823.png" width="64" height="64" /><image x="128" y="256" href="8089/206053.png" width="64" height="64" /><image x="192" y="256" href="8089/205824.png" width="64" height="64" /><image x="256" y="256" href="8089/205819.png" width="64" height="64" /><image x="320" y="256" href="8089/205820.png" width="64" height="64" /><image x="384" y="256" href="8089/206025.png" width="64" height="64" /><image x="448" y="256" href="8089/206168.png" width="64" height="64" /><image x="512" y="256" href="8089/206436.png" width="64" height="64" /><image x="576" y="256" href="8089/206071.png" width="64" height="64" /><image x="0" y="320" href="8089/206058.png" width="64" height="64" /><image x="64" y="320" href="8089/206059.png" width="64" height="64" /><image x="128" y="320" href="8089/206072.png" width="64" height="64" /><image x="192" y="320" href="8089/206054.png" width="64" height="64" /><image x="256" y="320" href="8089/206061.png" width="64" height="64" /><image x="320" y="320" href="8089/206364.png" width="64" height="64" /><image x="384" y="320" href="8089/206365.png" width="64" height="64" /><image x="448" y="320" href="8089/206458.png" width="64" height="64" /><image x="512" y="320" href="8089/206599.png" width="64" height="64" /><image x="576" y="320" href="8089/206362.png" width="64" height="64" /><image x="0" y="384" href="8089/214734.png" width="64" height="64" /><image x="64" y="384" href="8089/214586.png" width="64" height="64" /><image x="128" y="384" href="8089/206594.png" width="64" height="64" /><image x="192" y="384" href="8089/206388.png" width="64" height="64" /><image x="256" y="384" href="8089/206435.png" width="64" height="64" /><image x="320" y="384" href="8089/206085.png" width="64" height="64" /><image x="384" y="384" href="8089/214680.png" width="64" height="64" /><image x="448" y="384" href="8089/214678.png" width="64" height="64" /><image x="512" y="384" href="8089/206070.png" width="64" height="64" /><image x="576" y="384" href="8089/206089.png" width="64" height="64" /><image x="0" y="448" href="8089/206056.png" width="64" height="64" /><image x="64" y="448" href="8089/206087.png" width="64" height="64" /><image x="128" y="448" href="8089/206073.png" width="64" height="64" /><image x="192" y="448" href="8089/206069.png" width="64" height="64" /><image x="256" y="448" href="8089/206057.png" width="64" height="64" /><image x="320" y="448" href="8089/206088.png" width="64" height="64" /><image x="384" y="448" href="8089/206441.png" width="64" height="64" /><image x="448" y="448" href="8089/206457.png" width="64" height="64" /><image x="512" y="448" href="8089/206437.png" width="64" height="64" /><image x="576" y="448" href="8089/206703.png" width="64" height="64" /><image x="0" y="512" href="8089/214679.png" width="64" height="64" /><image x="64" y="512" href="8089/214947.png" width="64" height="64" /><image x="128" y="512" href="8089/214588.png" width="64" height="64" /><image x="192" y="512" href="8089/214681.png" width="64" height="64" /><image x="256" y="512" href="8089/206351.png" width="64" height="64" /><image x="320" y="512" href="8089/206708.png" width="64" height="64" /><image x="384" y="512" href="8089/206640.png" width="64" height="64" /><image x="448" y="512" href="8089/206655.png" width="64" height="64" /><image x="512" y="512" href="8089/265961.png" width="64" height="64" /></svg>