<?xml version="1.0" encoding="UTF-8"?>
<svg xmlns="http://www.w3.org/2000/svg" version="1.1" height="320" width="320"><rect x="0" y="0" width="320" height="320" fill="rgb(192,192,192)" /><image x="0" y="0" href="8113/38228.png" width="64" height="64" /><image x="64" y="0" href="8113/38229.png" width="64" height="64" /><image x="128" y="0" href="8113/38230.png" width="64" height="64" /><image x="192" y="0" href="8113/38231.png" width="64" height="64" /><image x="256" y="0" href="8113/38232.png" width="64" height="64" /><image x="0" y="64" href="8113/38233.png" width="64" height="64" /><image x="64" y="64" href="8113/38209.png" width="64" height="64" /><image x="128" y="64" href="8113/38210.png" width="64" height="64" /><image x="192" y="64" href="8113/38211.png" width="64" height="64" /><image x="256" y="64" href="8113/38212.png" width="64" height="64" /><image x="0" y="128" href="8113/38226.png" width="64" height="64" /><image x="64" y="128" href="8113/38227.png" width="64" height="64" /><image x="128" y="128" href="8113/34595.png" width="64" height="64" /><image x="192" y="128" href="8113/34596.png" width="64" height="64" /><image x="256" y="128" href="8113/34597.png" width="64" height="64" /><image x="0" y="192" href="8113/34587.png" width="64" height="64" /><image x="64" y="192" href="8113/34588.png" width="64" height="64" /><image x="128" y="192" href="8113/34589.png" width="64" height="64" /><image x="192" y="192" href="8113/36567.png" width="64" height="64" /><image x="256" y="192" href="8113/34584.png" width="64" height="64" /><image x="0" y="256" href="8113/34585.png" width="64" height="64" /><image x="64" y="256" href="8113/34586.png" width="64" height="64" /></svg>