<?xml version="1.0" encoding="UTF-8"?>
<svg xmlns="http://www.w3.org/2000/svg" version="1.1" height="640" width="640"><rect x="0" y="0" width="640" height="640" fill="rgb(192,192,192)" /><image x="0" y="0" href="8115/239981.png" width="64" height="64" /><image x="64" y="0" href="8115/35129.png" width="64" height="64" /><image x="128" y="0" href="8115/35081.png" width="64" height="64" /><image x="192" y="0" href="8115/258389.png" width="64" height="64" /><image x="256" y="0" href="8115/35144.png" width="64" height="64" /><image x="320" y="0" href="8115/34369.png" width="64" height="64" /><image x="384" y="0" href="8115/240123.png" width="64" height="64" /><image x="448" y="0" href="8115/35130.png" width="64" height="64" /><image x="512" y="0" href="8115/33870.png" width="64" height="64" /><image x="576" y="0" href="8115/97523.png" width="64" height="64" /><image x="0" y="64" href="8115/258424.png" width="64" height="64" /><image x="64" y="64" href="8115/34617.png" width="64" height="64" /><image x="128" y="64" href="8115/34616.png" width="64" height="64" /><image x="192" y="64" href="8115/55161.png" width="64" height="64" /><image x="256" y="64" href="8115/35145.png" width="64" height="64" /><image x="320" y="64" href="8115/54796.png" width="64" height="64" /><image x="384" y="64" href="8115/35065.png" width="64" height="64" /><image x="448" y="64" href="8115/35143.png" width="64" height="64" /><image x="512" y="64" href="8115/55640.png" width="64" height="64" /><image x="576" y="64" href="8115/258463.png" width="64" height="64" /><image x="0" y="128" href="8115/35141.png" width="64" height="64" /><image x="64" y="128" href="8115/35133.png" width="64" height="64" /><image x="128" y="128" href="8115/269437.png" width="64" height="64" /><image x="192" y="128" href="8115/35122.png" width="64" height="64" /><image x="256" y="128" href="8115/269558.png" width="64" height="64" /><image x="320" y="128" href="8115/35613.png" width="64" height="64" /><image x="384" y="128" href="8115/268978.png" width="64" height="64" /><image x="448" y="128" href="8115/34861.png" width="64" height="64" /><image x="512" y="128" href="8115/35127.png" width="64" height="64" /><image x="576" y="128" href="8115/97642.png" width="64" height="64" /><image x="0" y="192" href="8115/54947.png" width="64" height="64" /><image x="64" y="192" href="8115/35128.png" width="64" height="64" /><image x="128" y="192" href="8115/54933.png" width="64" height="64" /><image x="192" y="192" href="8115/34897.png" width="64" height="64" /><image x="256" y="192" href="8115/35137.png" width="64" height="64" /><image x="320" y="192" href="8115/271312.png" width="64" height="64" /><image x="384" y="192" href="8115/34990.png" width="64" height="64" /><image x="448" y="192" href="8115/34878.png" width="64" height="64" /><image x="512" y="192" href="8115/55018.png" width="64" height="64" /><image x="576" y="192" href="8115/55019.png" width="64" height="64" /><image x="0" y="256" href="8115/55016.png" width="64" height="64" /><image x="64" y="256" href="8115/55012.png" width="64" height="64" /><image x="128" y="256" href="8115/54799.png" width="64" height="64" /><image x="192" y="256" href="8115/85192.png" width="64" height="64" /><image x="256" y="256" href="8115/55022.png" width="64" height="64" /><image x="320" y="256" href="8115/35387.png" width="64" height="64" /><image x="384" y="256" href="8115/55020.png" width="64" height="64" /><image x="448" y="256" href="8115/54800.png" width="64" height="64" /><image x="512" y="256" href="8115/35515.png" width="64" height="64" /><image x="576" y="256" href="8115/36067.png" width="64" height="64" /><image x="0" y="320" href="8115/269662.png" width="64" height="64" /><image x="64" y="320" href="8115/35162.png" width="64" height="64" /><image x="128" y="320" href="8115/35405.png" width="64" height="64" /><image x="192" y="320" href="8115/110610.png" width="64" height="64" /><image x="256" y="320" href="8115/35406.png" width="64" height="64" /><image x="320" y="320" href="8115/54774.png" width="64" height="64" /><image x="384" y="320" href="8115/81301.png" width="64" height="64" /><image x="448" y="320" href="8115/35519.png" width="64" height="64" /><image x="512" y="320" href="8115/85253.png" width="64" height="64" /><image x="576" y="320" href="8115/86740.png" width="64" height="64" /><image x="0" y="384" href="8115/35543.png" width="64" height="64" /><image x="64" y="384" href="8115/35485.png" width="64" height="64" /><image x="128" y="384" href="8115/269806.png" width="64" height="64" /><image x="192" y="384" href="8115/35490.png" width="64" height="64" /><image x="256" y="384" href="8115/270950.png" width="64" height="64" /><image x="320" y="384" href="8115/35508.png" width="64" height="64" /><image x="384" y="384" href="8115/258423.png" width="64" height="64" /><image x="448" y="384" href="8115/84579.png" width="64" height="64" /><image x="512" y="384" href="8115/85124.png" width="64" height="64" /><image x="576" y="384" href="8115/85342.png" width="64" height="64" /><image x="0" y="448" href="8115/100092.png" width="64" height="64" /><image x="64" y="448" href="8115/100945.png" width="64" height="64" /><image x="128" y="448" href="8115/35484.png" width="64" height="64" /><image x="192" y="448" href="8115/54801.png" width="64" height="64" /><image x="256" y="448" href="8115/35521.png" width="64" height="64" /><image x="320" y="448" href="8115/55021.png" width="64" height="64" /><image x="384" y="448" href="8115/55162.png" width="64" height="64" /><image x="448" y="448" href="8115/85249.png" width="64" height="64" /><image x="512" y="448" href="8115/270008.png" width="64" height="64" /><image x="576" y="448" href="8115/35511.png" width="64" height="64" /><image x="0" y="512" href="8115/55203.png" width="64" height="64" /><image x="64" y="512" href="8115/35053.png" width="64" height="64" /><image x="128" y="512" href="8115/34989.png" width="64" height="64" /><image x="192" y="512" href="8115/34756.png" width="64" height="64" /></svg>