<?xml version="1.0" encoding="UTF-8"?>
<svg xmlns="http://www.w3.org/2000/svg" version="1.1" height="896" width="896"><rect x="0" y="0" width="896" height="896" fill="rgb(192,192,192)" /><image x="0" y="0" href="8128/36099.png" width="64" height="64" /><image x="64" y="0" href="8128/36112.png" width="64" height="64" /><image x="128" y="0" href="8128/36159.png" width="64" height="64" /><image x="192" y="0" href="8128/36167.png" width="64" height="64" /><image x="256" y="0" href="8128/35826.png" width="64" height="64" /><image x="320" y="0" href="8128/35638.png" width="64" height="64" /><image x="384" y="0" href="8128/35640.png" width="64" height="64" /><image x="448" y="0" href="8128/35642.png" width="64" height="64" /><image x="512" y="0" href="8128/35840.png" width="64" height="64" /><image x="576" y="0" href="8128/36093.png" width="64" height="64" /><image x="640" y="0" href="8128/36098.png" width="64" height="64" /><image x="704" y="0" href="8128/36100.png" width="64" height="64" /><image x="768" y="0" href="8128/44443.png" width="64" height="64" /><image x="832" y="0" href="8128/36104.png" width="64" height="64" /><image x="0" y="64" href="8128/36108.png" width="64" height="64" /><image x="64" y="64" href="8128/36110.png" width="64" height="64" /><image x="128" y="64" href="8128/36111.png" width="64" height="64" /><image x="192" y="64" href="8128/35841.png" width="64" height="64" /><image x="256" y="64" href="8128/35844.png" width="64" height="64" /><image x="320" y="64" href="8128/35843.png" width="64" height="64" /><image x="384" y="64" href="8128/96121.png" width="64" height="64" /><image x="448" y="64" href="8128/94423.png" width="64" height="64" /><image x="512" y="64" href="8128/36113.png" width="64" height="64" /><image x="576" y="64" href="8128/36127.png" width="64" height="64" /><image x="640" y="64" href="8128/36141.png" width="64" height="64" /><image x="704" y="64" href="8128/94341.png" width="64" height="64" /><image x="768" y="64" href="8128/35830.png" width="64" height="64" /><image x="832" y="64" href="8128/36155.png" width="64" height="64" /><image x="0" y="128" href="8128/36156.png" width="64" height="64" /><image x="64" y="128" href="8128/35831.png" width="64" height="64" /><image x="128" y="128" href="8128/36157.png" width="64" height="64" /><image x="192" y="128" href="8128/36158.png" width="64" height="64" /><image x="256" y="128" href="8128/36160.png" width="64" height="64" /><image x="320" y="128" href="8128/94342.png" width="64" height="64" /><image x="384" y="128" href="8128/34098.png" width="64" height="64" /><image x="448" y="128" href="8128/36765.png" width="64" height="64" /><image x="512" y="128" href="8128/36161.png" width="64" height="64" /><image x="576" y="128" href="8128/36162.png" width="64" height="64" /><image x="640" y="128" href="8128/36163.png" width="64" height="64" /><image x="704" y="128" href="8128/36164.png" width="64" height="64" /><image x="768" y="128" href="8128/36165.png" width="64" height="64" /><image x="832" y="128" href="8128/36166.png" width="64" height="64" /><image x="0" y="192" href="8128/36168.png" width="64" height="64" /><image x="64" y="192" href="8128/95234.png" width="64" height="64" /><image x="128" y="192" href="8128/35835.png" width="64" height="64" /><image x="192" y="192" href="8128/35631.png" width="64" height="64" /><image x="256" y="192" href="8128/35632.png" width="64" height="64" /><image x="320" y="192" href="8128/35633.png" width="64" height="64" /><image x="384" y="192" href="8128/94934.png" width="64" height="64" /><image x="448" y="192" href="8128/50053.png" width="64" height="64" /><image x="512" y="192" href="8128/95087.png" width="64" height="64" /><image x="576" y="192" href="8128/81121.png" width="64" height="64" /><image x="640" y="192" href="8128/35634.png" width="64" height="64" /><image x="704" y="192" href="8128/95092.png" width="64" height="64" /><image x="768" y="192" href="8128/35833.png" width="64" height="64" /><image x="832" y="192" href="8128/35368.png" width="64" height="64" /><image x="0" y="256" href="8128/35635.png" width="64" height="64" /><image x="64" y="256" href="8128/36478.png" width="64" height="64" /><image x="128" y="256" href="8128/35636.png" width="64" height="64" /><image x="192" y="256" href="8128/35637.png" width="64" height="64" /><image x="256" y="256" href="8128/35814.png" width="64" height="64" /><image x="320" y="256" href="8128/95207.png" width="64" height="64" /><image x="384" y="256" href="8128/34008.png" width="64" height="64" /><image x="448" y="256" href="8128/35639.png" width="64" height="64" /><image x="512" y="256" href="8128/79669.png" width="64" height="64" /><image x="576" y="256" href="8128/95298.png" width="64" height="64" /><image x="640" y="256" href="8128/94426.png" width="64" height="64" /><image x="704" y="256" href="8128/94428.png" width="64" height="64" /><image x="768" y="256" href="8128/94424.png" width="64" height="64" /><image x="832" y="256" href="8128/95544.png" width="64" height="64" /><image x="0" y="320" href="8128/94427.png" width="64" height="64" /><image x="64" y="320" href="8128/95206.png" width="64" height="64" /><image x="128" y="320" href="8128/95069.png" width="64" height="64" /><image x="192" y="320" href="8128/35815.png" width="64" height="64" /><image x="256" y="320" href="8128/86115.png" width="64" height="64" /><image x="320" y="320" href="8128/79639.png" width="64" height="64" /><image x="384" y="320" href="8128/79630.png" width="64" height="64" /><image x="448" y="320" href="8128/79634.png" width="64" height="64" /><image x="512" y="320" href="8128/86064.png" width="64" height="64" /><image x="576" y="320" href="8128/35641.png" width="64" height="64" /><image x="640" y="320" href="8128/94479.png" width="64" height="64" /><image x="704" y="320" href="8128/35823.png" width="64" height="64" /><image x="768" y="320" href="8128/79629.png" width="64" height="64" /><image x="832" y="320" href="8128/79633.png" width="64" height="64" /><image x="0" y="384" href="8128/35643.png" width="64" height="64" /><image x="64" y="384" href="8128/35820.png" width="64" height="64" /><image x="128" y="384" href="8128/35817.png" width="64" height="64" /><image x="192" y="384" href="8128/35821.png" width="64" height="64" /><image x="256" y="384" href="8128/35816.png" width="64" height="64" /><image x="320" y="384" href="8128/35644.png" width="64" height="64" /><image x="384" y="384" href="8128/79636.png" width="64" height="64" /><image x="448" y="384" href="8128/36350.png" width="64" height="64" /><image x="512" y="384" href="8128/79638.png" width="64" height="64" /><image x="576" y="384" href="8128/35647.png" width="64" height="64" /><image x="640" y="384" href="8128/35839.png" width="64" height="64" /><image x="704" y="384" href="8128/85283.png" width="64" height="64" /><image x="768" y="384" href="8128/79631.png" width="64" height="64" /><image x="832" y="384" href="8128/79670.png" width="64" height="64" /><image x="0" y="448" href="8128/79635.png" width="64" height="64" /><image x="64" y="448" href="8128/55087.png" width="64" height="64" /><image x="128" y="448" href="8128/35648.png" width="64" height="64" /><image x="192" y="448" href="8128/35649.png" width="64" height="64" /><image x="256" y="448" href="8128/86921.png" width="64" height="64" /><image x="320" y="448" href="8128/55179.png" width="64" height="64" /><image x="384" y="448" href="8128/84997.png" width="64" height="64" /><image x="448" y="448" href="8128/35832.png" width="64" height="64" /><image x="512" y="448" href="8128/36094.png" width="64" height="64" /><image x="576" y="448" href="8128/86918.png" width="64" height="64" /><image x="640" y="448" href="8128/36095.png" width="64" height="64" /><image x="704" y="448" href="8128/87676.png" width="64" height="64" /><image x="768" y="448" href="8128/93441.png" width="64" height="64" /><image x="832" y="448" href="8128/36096.png" width="64" height="64" /><image x="0" y="512" href="8128/94478.png" width="64" height="64" /><image x="64" y="512" href="8128/36097.png" width="64" height="64" /><image x="128" y="512" href="8128/79632.png" width="64" height="64" /><image x="192" y="512" href="8128/109627.png" width="64" height="64" /><image x="256" y="512" href="8128/87780.png" width="64" height="64" /><image x="320" y="512" href="8128/94468.png" width="64" height="64" /><image x="384" y="512" href="8128/80431.png" width="64" height="64" /><image x="448" y="512" href="8128/86741.png" width="64" height="64" /><image x="512" y="512" href="8128/88993.png" width="64" height="64" /><image x="576" y="512" href="8128/35819.png" width="64" height="64" /><image x="640" y="512" href="8128/86733.png" width="64" height="64" /><image x="704" y="512" href="8128/94454.png" width="64" height="64" /><image x="768" y="512" href="8128/86742.png" width="64" height="64" /><image x="832" y="512" href="8128/55181.png" width="64" height="64" /><image x="0" y="576" href="8128/36101.png" width="64" height="64" /><image x="64" y="576" href="8128/87683.png" width="64" height="64" /><image x="128" y="576" href="8128/86036.png" width="64" height="64" /><image x="192" y="576" href="8128/80998.png" width="64" height="64" /><image x="256" y="576" href="8128/86737.png" width="64" height="64" /><image x="320" y="576" href="8128/35829.png" width="64" height="64" /><image x="384" y="576" href="8128/86739.png" width="64" height="64" /><image x="448" y="576" href="8128/86736.png" width="64" height="64" /><image x="512" y="576" href="8128/36102.png" width="64" height="64" /><image x="576" y="576" href="8128/36103.png" width="64" height="64" /><image x="640" y="576" href="8128/35825.png" width="64" height="64" /><image x="704" y="576" href="8128/35834.png" width="64" height="64" /><image x="768" y="576" href="8128/87677.png" width="64" height="64" /><image x="832" y="576" href="8128/86919.png" width="64" height="64" /><image x="0" y="640" href="8128/84654.png" width="64" height="64" /><image x="64" y="640" href="8128/35811.png" width="64" height="64" /><image x="128" y="640" href="8128/55184.png" width="64" height="64" /><image x="192" y="640" href="8128/87330.png" width="64" height="64" /><image x="256" y="640" href="8128/36105.png" width="64" height="64" /><image x="320" y="640" href="8128/36106.png" width="64" height="64" /><image x="384" y="640" href="8128/36107.png" width="64" height="64" /><image x="448" y="640" href="8128/36109.png" width="64" height="64" /><image x="512" y="640" href="8128/79637.png" width="64" height="64" /><image x="576" y="640" href="8128/79674.png" width="64" height="64" /><image x="640" y="640" href="8128/109667.png" width="64" height="64" /><image x="704" y="640" href="8128/88031.png" width="64" height="64" /><image x="768" y="640" href="8128/105239.png" width="64" height="64" /><image x="832" y="640" href="8128/181272.png" width="64" height="64" /><image x="0" y="704" href="8128/95539.png" width="64" height="64" /><image x="64" y="704" href="8128/94419.png" width="64" height="64" /><image x="128" y="704" href="8128/94902.png" width="64" height="64" /><image x="192" y="704" href="8128/95057.png" width="64" height="64" /><image x="256" y="704" href="8128/121835.png" width="64" height="64" /><image x="320" y="704" href="8128/110954.png" width="64" height="64" /><image x="384" y="704" href="8128/34028.png" width="64" height="64" /><image x="448" y="704" href="8128/37012.png" width="64" height="64" /><image x="512" y="704" href="8128/34030.png" width="64" height="64" /><image x="576" y="704" href="8128/138345.png" width="64" height="64" /><image x="640" y="704" href="8128/110960.png" width="64" height="64" /><image x="704" y="704" href="8128/111078.png" width="64" height="64" /><image x="768" y="704" href="8128/111885.png" width="64" height="64" /><image x="832" y="704" href="8128/111081.png" width="64" height="64" /><image x="0" y="768" href="8128/111084.png" width="64" height="64" /><image x="64" y="768" href="8128/111873.png" width="64" height="64" /><image x="128" y="768" href="8128/111082.png" width="64" height="64" /><image x="192" y="768" href="8128/121810.png" width="64" height="64" /><image x="256" y="768" href="8128/212236.png" width="64" height="64" /><image x="320" y="768" href="8128/111080.png" width="64" height="64" /><image x="384" y="768" href="8128/111085.png" width="64" height="64" /><image x="448" y="768" href="8128/111088.png" width="64" height="64" /><image x="512" y="768" href="8128/111083.png" width="64" height="64" /><image x="576" y="768" href="8128/111087.png" width="64" height="64" /></svg>