<?xml version="1.0" encoding="UTF-8"?>
<svg xmlns="http://www.w3.org/2000/svg" version="1.1" height="384" width="384"><rect x="0" y="0" width="384" height="384" fill="rgb(192,192,192)" /><image x="0" y="0" href="82240/156070.png" width="64" height="64" /><image x="64" y="0" href="82240/156190.png" width="64" height="64" /><image x="128" y="0" href="82240/156093.png" width="64" height="64" /><image x="192" y="0" href="82240/156288.png" width="64" height="64" /><image x="256" y="0" href="82240/156287.png" width="64" height="64" /><image x="320" y="0" href="82240/156091.png" width="64" height="64" /><image x="0" y="64" href="82240/156089.png" width="64" height="64" /><image x="64" y="64" href="82240/156067.png" width="64" height="64" /><image x="128" y="64" href="82240/156069.png" width="64" height="64" /><image x="192" y="64" href="82240/156127.png" width="64" height="64" /><image x="256" y="64" href="82240/156346.png" width="64" height="64" /><image x="320" y="64" href="82240/156068.png" width="64" height="64" /><image x="0" y="128" href="82240/156345.png" width="64" height="64" /><image x="64" y="128" href="82240/156191.png" width="64" height="64" /><image x="128" y="128" href="82240/156184.png" width="64" height="64" /><image x="192" y="128" href="82240/156111.png" width="64" height="64" /><image x="256" y="128" href="82240/156181.png" width="64" height="64" /><image x="320" y="128" href="82240/156201.png" width="64" height="64" /><image x="0" y="192" href="82240/156275.png" width="64" height="64" /><image x="64" y="192" href="82240/156071.png" width="64" height="64" /><image x="128" y="192" href="82240/156073.png" width="64" height="64" /><image x="192" y="192" href="82240/159808.png" width="64" height="64" /><image x="256" y="192" href="82240/156592.png" width="64" height="64" /><image x="320" y="192" href="82240/156605.png" width="64" height="64" /><image x="0" y="256" href="82240/156622.png" width="64" height="64" /><image x="64" y="256" href="82240/157020.png" width="64" height="64" /><image x="128" y="256" href="82240/155938.png" width="64" height="64" /><image x="192" y="256" href="82240/159045.png" width="64" height="64" /><image x="256" y="256" href="82240/155936.png" width="64" height="64" /><image x="320" y="256" href="82240/155993.png" width="64" height="64" /><image x="0" y="320" href="82240/159300.png" width="64" height="64" /><image x="64" y="320" href="82240/156668.png" width="64" height="64" /></svg>