<?xml version="1.0" encoding="UTF-8"?>
<svg xmlns="http://www.w3.org/2000/svg" version="1.1" height="384" width="384"><rect x="0" y="0" width="384" height="384" fill="rgb(192,192,192)" /><image x="0" y="0" href="82295/177827.png" width="64" height="64" /><image x="64" y="0" href="82295/177820.png" width="64" height="64" /><image x="128" y="0" href="82295/156589.png" width="64" height="64" /><image x="192" y="0" href="82295/159041.png" width="64" height="64" /><image x="256" y="0" href="82295/157077.png" width="64" height="64" /><image x="320" y="0" href="82295/156072.png" width="64" height="64" /><image x="0" y="64" href="82295/177829.png" width="64" height="64" /><image x="64" y="64" href="82295/177754.png" width="64" height="64" /><image x="128" y="64" href="82295/177792.png" width="64" height="64" /><image x="192" y="64" href="82295/159026.png" width="64" height="64" /><image x="256" y="64" href="82295/156773.png" width="64" height="64" /><image x="320" y="64" href="82295/156771.png" width="64" height="64" /><image x="0" y="128" href="82295/159032.png" width="64" height="64" /><image x="64" y="128" href="82295/156595.png" width="64" height="64" /><image x="128" y="128" href="82295/157021.png" width="64" height="64" /><image x="192" y="128" href="82295/157023.png" width="64" height="64" /><image x="256" y="128" href="82295/156794.png" width="64" height="64" /><image x="320" y="128" href="82295/156591.png" width="64" height="64" /><image x="0" y="192" href="82295/156792.png" width="64" height="64" /><image x="64" y="192" href="82295/156790.png" width="64" height="64" /><image x="128" y="192" href="82295/177774.png" width="64" height="64" /><image x="192" y="192" href="82295/156593.png" width="64" height="64" /><image x="256" y="192" href="82295/156793.png" width="64" height="64" /><image x="320" y="192" href="82295/156806.png" width="64" height="64" /><image x="0" y="256" href="82295/156795.png" width="64" height="64" /><image x="64" y="256" href="82295/156808.png" width="64" height="64" /><image x="128" y="256" href="82295/157028.png" width="64" height="64" /><image x="192" y="256" href="82295/157022.png" width="64" height="64" /></svg>