<?xml version="1.0" encoding="UTF-8"?>
<svg xmlns="http://www.w3.org/2000/svg" version="1.1" height="320" width="320"><rect x="0" y="0" width="320" height="320" fill="rgb(192,192,192)" /><image x="0" y="0" href="82521/156976.png" width="64" height="64" /><image x="64" y="0" href="82521/156977.png" width="64" height="64" /><image x="128" y="0" href="82521/157027.png" width="64" height="64" /><image x="192" y="0" href="82521/159038.png" width="64" height="64" /><image x="256" y="0" href="82521/227492.png" width="64" height="64" /><image x="0" y="64" href="82521/156770.png" width="64" height="64" /><image x="64" y="64" href="82521/156813.png" width="64" height="64" /><image x="128" y="64" href="82521/227584.png" width="64" height="64" /><image x="192" y="64" href="82521/156812.png" width="64" height="64" /><image x="256" y="64" href="82521/156814.png" width="64" height="64" /><image x="0" y="128" href="82521/227510.png" width="64" height="64" /><image x="64" y="128" href="82521/157008.png" width="64" height="64" /><image x="128" y="128" href="82521/156691.png" width="64" height="64" /><image x="192" y="128" href="82521/218888.png" width="64" height="64" /><image x="256" y="128" href="82521/189272.png" width="64" height="64" /><image x="0" y="192" href="82521/189240.png" width="64" height="64" /><image x="64" y="192" href="82521/202901.png" width="64" height="64" /><image x="128" y="192" href="82521/221608.png" width="64" height="64" /><image x="192" y="192" href="82521/253767.png" width="64" height="64" /><image x="256" y="192" href="82521/253831.png" width="64" height="64" /></svg>