<?xml version="1.0" encoding="UTF-8"?>
<svg xmlns="http://www.w3.org/2000/svg" version="1.1" height="256" width="256"><rect x="0" y="0" width="256" height="256" fill="rgb(192,192,192)" /><image x="0" y="0" href="8269/49236.png" width="64" height="64" /><image x="64" y="0" href="8269/34387.png" width="64" height="64" /><image x="128" y="0" href="8269/49550.png" width="64" height="64" /><image x="192" y="0" href="8269/34389.png" width="64" height="64" /><image x="0" y="64" href="8269/48991.png" width="64" height="64" /><image x="64" y="64" href="8269/49549.png" width="64" height="64" /><image x="128" y="64" href="8269/49477.png" width="64" height="64" /><image x="192" y="64" href="8269/34388.png" width="64" height="64" /><image x="0" y="128" href="8269/49564.png" width="64" height="64" /><image x="64" y="128" href="8269/51822.png" width="64" height="64" /><image x="128" y="128" href="8269/34390.png" width="64" height="64" /><image x="192" y="128" href="8269/107093.png" width="64" height="64" /><image x="0" y="192" href="8269/35201.png" width="64" height="64" /><image x="64" y="192" href="8269/48854.png" width="64" height="64" /><image x="128" y="192" href="8269/35192.png" width="64" height="64" /><image x="192" y="192" href="8269/49312.png" width="64" height="64" /></svg>