<?xml version="1.0" encoding="UTF-8"?>
<svg xmlns="http://www.w3.org/2000/svg" version="1.1" height="640" width="640"><rect x="0" y="0" width="640" height="640" fill="rgb(192,192,192)" /><image x="0" y="0" href="8641/108010.png" width="64" height="64" /><image x="64" y="0" href="8641/107901.png" width="64" height="64" /><image x="128" y="0" href="8641/105311.png" width="64" height="64" /><image x="192" y="0" href="8641/105470.png" width="64" height="64" /><image x="256" y="0" href="8641/214753.png" width="64" height="64" /><image x="320" y="0" href="8641/111853.png" width="64" height="64" /><image x="384" y="0" href="8641/105178.png" width="64" height="64" /><image x="448" y="0" href="8641/105146.png" width="64" height="64" /><image x="512" y="0" href="8641/107446.png" width="64" height="64" /><image x="576" y="0" href="8641/107393.png" width="64" height="64" /><image x="0" y="64" href="8641/105429.png" width="64" height="64" /><image x="64" y="64" href="8641/105426.png" width="64" height="64" /><image x="128" y="64" href="8641/107900.png" width="64" height="64" /><image x="192" y="64" href="8641/105162.png" width="64" height="64" /><image x="256" y="64" href="8641/82069.png" width="64" height="64" /><image x="320" y="64" href="8641/82070.png" width="64" height="64" /><image x="384" y="64" href="8641/36496.png" width="64" height="64" /><image x="448" y="64" href="8641/35930.png" width="64" height="64" /><image x="512" y="64" href="8641/35931.png" width="64" height="64" /><image x="576" y="64" href="8641/35932.png" width="64" height="64" /><image x="0" y="128" href="8641/82404.png" width="64" height="64" /><image x="64" y="128" href="8641/35933.png" width="64" height="64" /><image x="128" y="128" href="8641/105433.png" width="64" height="64" /><image x="192" y="128" href="8641/106288.png" width="64" height="64" /><image x="256" y="128" href="8641/35934.png" width="64" height="64" /><image x="320" y="128" href="8641/82071.png" width="64" height="64" /><image x="384" y="128" href="8641/35847.png" width="64" height="64" /><image x="448" y="128" href="8641/110946.png" width="64" height="64" /><image x="512" y="128" href="8641/82072.png" width="64" height="64" /><image x="576" y="128" href="8641/35935.png" width="64" height="64" /><image x="0" y="192" href="8641/35852.png" width="64" height="64" /><image x="64" y="192" href="8641/105449.png" width="64" height="64" /><image x="128" y="192" href="8641/105479.png" width="64" height="64" /><image x="192" y="192" href="8641/105297.png" width="64" height="64" /><image x="256" y="192" href="8641/36446.png" width="64" height="64" /><image x="320" y="192" href="8641/82075.png" width="64" height="64" /><image x="384" y="192" href="8641/35851.png" width="64" height="64" /><image x="448" y="192" href="8641/35860.png" width="64" height="64" /><image x="512" y="192" href="8641/35936.png" width="64" height="64" /><image x="576" y="192" href="8641/35937.png" width="64" height="64" /><image x="0" y="256" href="8641/36448.png" width="64" height="64" /><image x="64" y="256" href="8641/105459.png" width="64" height="64" /><image x="128" y="256" href="8641/35938.png" width="64" height="64" /><image x="192" y="256" href="8641/106807.png" width="64" height="64" /><image x="256" y="256" href="8641/35939.png" width="64" height="64" /><image x="320" y="256" href="8641/35940.png" width="64" height="64" /><image x="384" y="256" href="8641/36353.png" width="64" height="64" /><image x="448" y="256" href="8641/35941.png" width="64" height="64" /><image x="512" y="256" href="8641/35945.png" width="64" height="64" /><image x="576" y="256" href="8641/107046.png" width="64" height="64" /><image x="0" y="320" href="8641/35960.png" width="64" height="64" /><image x="64" y="320" href="8641/35974.png" width="64" height="64" /><image x="128" y="320" href="8641/35988.png" width="64" height="64" /><image x="192" y="320" href="8641/36002.png" width="64" height="64" /><image x="256" y="320" href="8641/35864.png" width="64" height="64" /><image x="320" y="320" href="8641/36011.png" width="64" height="64" /><image x="384" y="320" href="8641/36487.png" width="64" height="64" /><image x="448" y="320" href="8641/35894.png" width="64" height="64" /><image x="512" y="320" href="8641/36012.png" width="64" height="64" /><image x="576" y="320" href="8641/36484.png" width="64" height="64" /><image x="0" y="384" href="8641/35849.png" width="64" height="64" /><image x="64" y="384" href="8641/104195.png" width="64" height="64" /><image x="128" y="384" href="8641/35870.png" width="64" height="64" /><image x="192" y="384" href="8641/36013.png" width="64" height="64" /><image x="256" y="384" href="8641/36014.png" width="64" height="64" /><image x="320" y="384" href="8641/35872.png" width="64" height="64" /><image x="384" y="384" href="8641/36015.png" width="64" height="64" /><image x="448" y="384" href="8641/101768.png" width="64" height="64" /><image x="512" y="384" href="8641/35850.png" width="64" height="64" /><image x="576" y="384" href="8641/104196.png" width="64" height="64" /><image x="0" y="448" href="8641/36016.png" width="64" height="64" /><image x="64" y="448" href="8641/36017.png" width="64" height="64" /><image x="128" y="448" href="8641/36018.png" width="64" height="64" /><image x="192" y="448" href="8641/82409.png" width="64" height="64" /><image x="256" y="448" href="8641/82405.png" width="64" height="64" /><image x="320" y="448" href="8641/36019.png" width="64" height="64" /><image x="384" y="448" href="8641/36020.png" width="64" height="64" /><image x="448" y="448" href="8641/82406.png" width="64" height="64" /><image x="512" y="448" href="8641/36021.png" width="64" height="64" /><image x="576" y="448" href="8641/82403.png" width="64" height="64" /><image x="0" y="512" href="8641/36022.png" width="64" height="64" /><image x="64" y="512" href="8641/82054.png" width="64" height="64" /><image x="128" y="512" href="8641/82056.png" width="64" height="64" /><image x="192" y="512" href="8641/36023.png" width="64" height="64" /><image x="256" y="512" href="8641/36024.png" width="64" height="64" /><image x="320" y="512" href="8641/281105.png" width="64" height="64" /><image x="384" y="512" href="8641/281137.png" width="64" height="64" /><image x="448" y="512" href="8641/281140.png" width="64" height="64" /><image x="512" y="512" href="8641/281211.png" width="64" height="64" /></svg>