<?xml version="1.0" encoding="UTF-8"?>
<svg xmlns="http://www.w3.org/2000/svg" version="1.1" height="512" width="512"><rect x="0" y="0" width="512" height="512" fill="rgb(192,192,192)" /><image x="0" y="0" href="8649/35926.png" width="64" height="64" /><image x="64" y="0" href="8649/35927.png" width="64" height="64" /><image x="128" y="0" href="8649/82385.png" width="64" height="64" /><image x="192" y="0" href="8649/35928.png" width="64" height="64" /><image x="256" y="0" href="8649/35929.png" width="64" height="64" /><image x="320" y="0" href="8649/214165.png" width="64" height="64" /><image x="384" y="0" href="8649/270874.png" width="64" height="64" /><image x="448" y="0" href="8649/263682.png" width="64" height="64" /><image x="0" y="64" href="8649/264426.png" width="64" height="64" /><image x="64" y="64" href="8649/264425.png" width="64" height="64" /><image x="128" y="64" href="8649/264440.png" width="64" height="64" /><image x="192" y="64" href="8649/264380.png" width="64" height="64" /><image x="256" y="64" href="8649/265471.png" width="64" height="64" /><image x="320" y="64" href="8649/264261.png" width="64" height="64" /><image x="384" y="64" href="8649/268287.png" width="64" height="64" /><image x="448" y="64" href="8649/264925.png" width="64" height="64" /><image x="0" y="128" href="8649/264858.png" width="64" height="64" /><image x="64" y="128" href="8649/264924.png" width="64" height="64" /><image x="128" y="128" href="8649/266884.png" width="64" height="64" /><image x="192" y="128" href="8649/264740.png" width="64" height="64" /><image x="256" y="128" href="8649/264853.png" width="64" height="64" /><image x="320" y="128" href="8649/264741.png" width="64" height="64" /><image x="384" y="128" href="8649/264857.png" width="64" height="64" /><image x="448" y="128" href="8649/264204.png" width="64" height="64" /><image x="0" y="192" href="8649/264224.png" width="64" height="64" /><image x="64" y="192" href="8649/264296.png" width="64" height="64" /><image x="128" y="192" href="8649/264739.png" width="64" height="64" /><image x="192" y="192" href="8649/264738.png" width="64" height="64" /><image x="256" y="192" href="8649/264859.png" width="64" height="64" /><image x="320" y="192" href="8649/270807.png" width="64" height="64" /><image x="384" y="192" href="8649/266836.png" width="64" height="64" /><image x="448" y="192" href="8649/277815.png" width="64" height="64" /><image x="0" y="256" href="8649/264926.png" width="64" height="64" /><image x="64" y="256" href="8649/266968.png" width="64" height="64" /><image x="128" y="256" href="8649/266896.png" width="64" height="64" /><image x="192" y="256" href="8649/265610.png" width="64" height="64" /><image x="256" y="256" href="8649/268258.png" width="64" height="64" /><image x="320" y="256" href="8649/268123.png" width="64" height="64" /><image x="384" y="256" href="8649/268148.png" width="64" height="64" /><image x="448" y="256" href="8649/268149.png" width="64" height="64" /><image x="0" y="320" href="8649/268107.png" width="64" height="64" /><image x="64" y="320" href="8649/268147.png" width="64" height="64" /><image x="128" y="320" href="8649/266868.png" width="64" height="64" /><image x="192" y="320" href="8649/266882.png" width="64" height="64" /><image x="256" y="320" href="8649/268140.png" width="64" height="64" /><image x="320" y="320" href="8649/268259.png" width="64" height="64" /><image x="384" y="320" href="8649/268373.png" width="64" height="64" /><image x="448" y="320" href="8649/268150.png" width="64" height="64" /><image x="0" y="384" href="8649/266838.png" width="64" height="64" /><image x="64" y="384" href="8649/270877.png" width="64" height="64" /><image x="128" y="384" href="8649/266842.png" width="64" height="64" /><image x="192" y="384" href="8649/266905.png" width="64" height="64" /><image x="256" y="384" href="8649/266855.png" width="64" height="64" /><image x="320" y="384" href="8649/266951.png" width="64" height="64" /><image x="384" y="384" href="8649/266940.png" width="64" height="64" /><image x="448" y="384" href="8649/270981.png" width="64" height="64" /><image x="0" y="448" href="8649/266881.png" width="64" height="64" /><image x="64" y="448" href="8649/266904.png" width="64" height="64" /><image x="128" y="448" href="8649/266915.png" width="64" height="64" /><image x="192" y="448" href="8649/267084.png" width="64" height="64" /><image x="256" y="448" href="8649/266929.png" width="64" height="64" /><image x="320" y="448" href="8649/266869.png" width="64" height="64" /><image x="384" y="448" href="8649/268280.png" width="64" height="64" /><image x="448" y="448" href="8649/266912.png" width="64" height="64" /></svg>