<?xml version="1.0" encoding="UTF-8"?>
<svg xmlns="http://www.w3.org/2000/svg" version="1.1" height="384" width="384"><rect x="0" y="0" width="384" height="384" fill="rgb(192,192,192)" /><image x="0" y="0" href="8796/38068.png" width="64" height="64" /><image x="64" y="0" href="8796/37340.png" width="64" height="64" /><image x="128" y="0" href="8796/37378.png" width="64" height="64" /><image x="192" y="0" href="8796/37282.png" width="64" height="64" /><image x="256" y="0" href="8796/96897.png" width="64" height="64" /><image x="320" y="0" href="8796/97250.png" width="64" height="64" /><image x="0" y="64" href="8796/98682.png" width="64" height="64" /><image x="64" y="64" href="8796/246862.png" width="64" height="64" /><image x="128" y="64" href="8796/43893.png" width="64" height="64" /><image x="192" y="64" href="8796/37352.png" width="64" height="64" /><image x="256" y="64" href="8796/36653.png" width="64" height="64" /><image x="320" y="64" href="8796/37363.png" width="64" height="64" /><image x="0" y="128" href="8796/96893.png" width="64" height="64" /><image x="64" y="128" href="8796/37280.png" width="64" height="64" /><image x="128" y="128" href="8796/37425.png" width="64" height="64" /><image x="192" y="128" href="8796/37472.png" width="64" height="64" /><image x="256" y="128" href="8796/235750.png" width="64" height="64" /><image x="320" y="128" href="8796/230656.png" width="64" height="64" /><image x="0" y="192" href="8796/229913.png" width="64" height="64" /><image x="64" y="192" href="8796/230741.png" width="64" height="64" /><image x="128" y="192" href="8796/228959.png" width="64" height="64" /><image x="192" y="192" href="8796/230742.png" width="64" height="64" /><image x="256" y="192" href="8796/230693.png" width="64" height="64" /><image x="320" y="192" href="8796/230695.png" width="64" height="64" /><image x="0" y="256" href="8796/230655.png" width="64" height="64" /><image x="64" y="256" href="8796/230455.png" width="64" height="64" /><image x="128" y="256" href="8796/235682.png" width="64" height="64" /><image x="192" y="256" href="8796/230676.png" width="64" height="64" /><image x="256" y="256" href="8796/235771.png" width="64" height="64" /></svg>