<?xml version="1.0" encoding="UTF-8"?>
<svg xmlns="http://www.w3.org/2000/svg" version="1.1" height="960" width="960"><rect x="0" y="0" width="960" height="960" fill="rgb(192,192,192)" /><image x="0" y="0" href="8981/38483.png" width="64" height="64" /><image x="64" y="0" href="8981/38139.png" width="64" height="64" /><image x="128" y="0" href="8981/38140.png" width="64" height="64" /><image x="192" y="0" href="8981/38762.png" width="64" height="64" /><image x="256" y="0" href="8981/110849.png" width="64" height="64" /><image x="320" y="0" href="8981/39595.png" width="64" height="64" /><image x="384" y="0" href="8981/39592.png" width="64" height="64" /><image x="448" y="0" href="8981/38141.png" width="64" height="64" /><image x="512" y="0" href="8981/37618.png" width="64" height="64" /><image x="576" y="0" href="8981/37000.png" width="64" height="64" /><image x="640" y="0" href="8981/37620.png" width="64" height="64" /><image x="704" y="0" href="8981/39005.png" width="64" height="64" /><image x="768" y="0" href="8981/38487.png" width="64" height="64" /><image x="832" y="0" href="8981/38142.png" width="64" height="64" /><image x="896" y="0" href="8981/38729.png" width="64" height="64" /><image x="0" y="64" href="8981/38143.png" width="64" height="64" /><image x="64" y="64" href="8981/40663.png" width="64" height="64" /><image x="128" y="64" href="8981/40667.png" width="64" height="64" /><image x="192" y="64" href="8981/40644.png" width="64" height="64" /><image x="256" y="64" href="8981/40643.png" width="64" height="64" /><image x="320" y="64" href="8981/40668.png" width="64" height="64" /><image x="384" y="64" href="8981/163461.png" width="64" height="64" /><image x="448" y="64" href="8981/40639.png" width="64" height="64" /><image x="512" y="64" href="8981/163430.png" width="64" height="64" /><image x="576" y="64" href="8981/40642.png" width="64" height="64" /><image x="640" y="64" href="8981/40346.png" width="64" height="64" /><image x="704" y="64" href="8981/40665.png" width="64" height="64" /><image x="768" y="64" href="8981/40641.png" width="64" height="64" /><image x="832" y="64" href="8981/40449.png" width="64" height="64" /><image x="896" y="64" href="8981/40669.png" width="64" height="64" /><image x="0" y="128" href="8981/40661.png" width="64" height="64" /><image x="64" y="128" href="8981/40347.png" width="64" height="64" /><image x="128" y="128" href="8981/148555.png" width="64" height="64" /><image x="192" y="128" href="8981/148535.png" width="64" height="64" /><image x="256" y="128" href="8981/148880.png" width="64" height="64" /><image x="320" y="128" href="8981/148527.png" width="64" height="64" /><image x="384" y="128" href="8981/148557.png" width="64" height="64" /><image x="448" y="128" href="8981/148556.png" width="64" height="64" /><image x="512" y="128" href="8981/148558.png" width="64" height="64" /><image x="576" y="128" href="8981/148561.png" width="64" height="64" /><image x="640" y="128" href="8981/148559.png" width="64" height="64" /><image x="704" y="128" href="8981/148562.png" width="64" height="64" /><image x="768" y="128" href="8981/148564.png" width="64" height="64" /><image x="832" y="128" href="8981/177005.png" width="64" height="64" /><image x="896" y="128" href="8981/148565.png" width="64" height="64" /><image x="0" y="192" href="8981/148563.png" width="64" height="64" /><image x="64" y="192" href="8981/267819.png" width="64" height="64" /><image x="128" y="192" href="8981/148528.png" width="64" height="64" /><image x="192" y="192" href="8981/182036.png" width="64" height="64" /><image x="256" y="192" href="8981/148537.png" width="64" height="64" /><image x="320" y="192" href="8981/148560.png" width="64" height="64" /><image x="384" y="192" href="8981/149511.png" width="64" height="64" /><image x="448" y="192" href="8981/148538.png" width="64" height="64" /><image x="512" y="192" href="8981/148884.png" width="64" height="64" /><image x="576" y="192" href="8981/148881.png" width="64" height="64" /><image x="640" y="192" href="8981/148888.png" width="64" height="64" /><image x="704" y="192" href="8981/148532.png" width="64" height="64" /><image x="768" y="192" href="8981/148886.png" width="64" height="64" /><image x="832" y="192" href="8981/148889.png" width="64" height="64" /><image x="896" y="192" href="8981/148885.png" width="64" height="64" /><image x="0" y="256" href="8981/148878.png" width="64" height="64" /><image x="64" y="256" href="8981/126837.png" width="64" height="64" /><image x="128" y="256" href="8981/126693.png" width="64" height="64" /><image x="192" y="256" href="8981/126678.png" width="64" height="64" /><image x="256" y="256" href="8981/126660.png" width="64" height="64" /><image x="320" y="256" href="8981/126659.png" width="64" height="64" /><image x="384" y="256" href="8981/126658.png" width="64" height="64" /><image x="448" y="256" href="8981/126656.png" width="64" height="64" /><image x="512" y="256" href="8981/126657.png" width="64" height="64" /><image x="576" y="256" href="8981/126484.png" width="64" height="64" /><image x="640" y="256" href="8981/126491.png" width="64" height="64" /><image x="704" y="256" href="8981/126517.png" width="64" height="64" /><image x="768" y="256" href="8981/149483.png" width="64" height="64" /><image x="832" y="256" href="8981/126490.png" width="64" height="64" /><image x="896" y="256" href="8981/126500.png" width="64" height="64" /><image x="0" y="320" href="8981/126512.png" width="64" height="64" /><image x="64" y="320" href="8981/149462.png" width="64" height="64" /><image x="128" y="320" href="8981/126488.png" width="64" height="64" /><image x="192" y="320" href="8981/126485.png" width="64" height="64" /><image x="256" y="320" href="8981/149509.png" width="64" height="64" /><image x="320" y="320" href="8981/127189.png" width="64" height="64" /><image x="384" y="320" href="8981/126525.png" width="64" height="64" /><image x="448" y="320" href="8981/126492.png" width="64" height="64" /><image x="512" y="320" href="8981/126694.png" width="64" height="64" /><image x="576" y="320" href="8981/149506.png" width="64" height="64" /><image x="640" y="320" href="8981/126511.png" width="64" height="64" /><image x="704" y="320" href="8981/126515.png" width="64" height="64" /><image x="768" y="320" href="8981/126487.png" width="64" height="64" /><image x="832" y="320" href="8981/126506.png" width="64" height="64" /><image x="896" y="320" href="8981/126695.png" width="64" height="64" /><image x="0" y="384" href="8981/126692.png" width="64" height="64" /><image x="64" y="384" href="8981/126811.png" width="64" height="64" /><image x="128" y="384" href="8981/126507.png" width="64" height="64" /><image x="192" y="384" href="8981/126882.png" width="64" height="64" /><image x="256" y="384" href="8981/138380.png" width="64" height="64" /><image x="320" y="384" href="8981/138416.png" width="64" height="64" /><image x="384" y="384" href="8981/126814.png" width="64" height="64" /><image x="448" y="384" href="8981/138401.png" width="64" height="64" /><image x="512" y="384" href="8981/138635.png" width="64" height="64" /><image x="576" y="384" href="8981/126816.png" width="64" height="64" /><image x="640" y="384" href="8981/126812.png" width="64" height="64" /><image x="704" y="384" href="8981/127363.png" width="64" height="64" /><image x="768" y="384" href="8981/129622.png" width="64" height="64" /><image x="832" y="384" href="8981/129621.png" width="64" height="64" /><image x="896" y="384" href="8981/128873.png" width="64" height="64" /><image x="0" y="448" href="8981/128876.png" width="64" height="64" /><image x="64" y="448" href="8981/129385.png" width="64" height="64" /><image x="128" y="448" href="8981/128869.png" width="64" height="64" /><image x="192" y="448" href="8981/128925.png" width="64" height="64" /><image x="256" y="448" href="8981/128870.png" width="64" height="64" /><image x="320" y="448" href="8981/128872.png" width="64" height="64" /><image x="384" y="448" href="8981/128789.png" width="64" height="64" /><image x="448" y="448" href="8981/128827.png" width="64" height="64" /><image x="512" y="448" href="8981/128791.png" width="64" height="64" /><image x="576" y="448" href="8981/128837.png" width="64" height="64" /><image x="640" y="448" href="8981/128836.png" width="64" height="64" /><image x="704" y="448" href="8981/128796.png" width="64" height="64" /><image x="768" y="448" href="8981/128668.png" width="64" height="64" /><image x="832" y="448" href="8981/128116.png" width="64" height="64" /><image x="896" y="448" href="8981/128650.png" width="64" height="64" /><image x="0" y="512" href="8981/128115.png" width="64" height="64" /><image x="64" y="512" href="8981/128498.png" width="64" height="64" /><image x="128" y="512" href="8981/128833.png" width="64" height="64" /><image x="192" y="512" href="8981/128795.png" width="64" height="64" /><image x="256" y="512" href="8981/128799.png" width="64" height="64" /><image x="320" y="512" href="8981/128487.png" width="64" height="64" /><image x="384" y="512" href="8981/128349.png" width="64" height="64" /><image x="448" y="512" href="8981/128574.png" width="64" height="64" /><image x="512" y="512" href="8981/128643.png" width="64" height="64" /><image x="576" y="512" href="8981/128586.png" width="64" height="64" /><image x="640" y="512" href="8981/128644.png" width="64" height="64" /><image x="704" y="512" href="8981/128486.png" width="64" height="64" /><image x="768" y="512" href="8981/128485.png" width="64" height="64" /><image x="832" y="512" href="8981/128642.png" width="64" height="64" /><image x="896" y="512" href="8981/128598.png" width="64" height="64" /><image x="0" y="576" href="8981/128645.png" width="64" height="64" /><image x="64" y="576" href="8981/128625.png" width="64" height="64" /><image x="128" y="576" href="8981/128637.png" width="64" height="64" /><image x="192" y="576" href="8981/128633.png" width="64" height="64" /><image x="256" y="576" href="8981/128646.png" width="64" height="64" /><image x="320" y="576" href="8981/128489.png" width="64" height="64" /><image x="384" y="576" href="8981/128634.png" width="64" height="64" /><image x="448" y="576" href="8981/128635.png" width="64" height="64" /><image x="512" y="576" href="8981/128636.png" width="64" height="64" /><image x="576" y="576" href="8981/128670.png" width="64" height="64" /><image x="640" y="576" href="8981/128671.png" width="64" height="64" /><image x="704" y="576" href="8981/128672.png" width="64" height="64" /><image x="768" y="576" href="8981/128356.png" width="64" height="64" /><image x="832" y="576" href="8981/128352.png" width="64" height="64" /><image x="896" y="576" href="8981/128500.png" width="64" height="64" /><image x="0" y="640" href="8981/128502.png" width="64" height="64" /><image x="64" y="640" href="8981/128501.png" width="64" height="64" /><image x="128" y="640" href="8981/128299.png" width="64" height="64" /><image x="192" y="640" href="8981/128310.png" width="64" height="64" /><image x="256" y="640" href="8981/128314.png" width="64" height="64" /><image x="320" y="640" href="8981/128315.png" width="64" height="64" /><image x="384" y="640" href="8981/128300.png" width="64" height="64" /><image x="448" y="640" href="8981/128309.png" width="64" height="64" /><image x="512" y="640" href="8981/224041.png" width="64" height="64" /><image x="576" y="640" href="8981/128357.png" width="64" height="64" /><image x="640" y="640" href="8981/128359.png" width="64" height="64" /><image x="704" y="640" href="8981/128358.png" width="64" height="64" /><image x="768" y="640" href="8981/128496.png" width="64" height="64" /><image x="832" y="640" href="8981/128360.png" width="64" height="64" /><image x="896" y="640" href="8981/128361.png" width="64" height="64" /><image x="0" y="704" href="8981/128490.png" width="64" height="64" /><image x="64" y="704" href="8981/128491.png" width="64" height="64" /><image x="128" y="704" href="8981/128495.png" width="64" height="64" /><image x="192" y="704" href="8981/128492.png" width="64" height="64" /><image x="256" y="704" href="8981/128494.png" width="64" height="64" /><image x="320" y="704" href="8981/128497.png" width="64" height="64" /><image x="384" y="704" href="8981/128493.png" width="64" height="64" /><image x="448" y="704" href="8981/224098.png" width="64" height="64" /><image x="512" y="704" href="8981/128674.png" width="64" height="64" /><image x="576" y="704" href="8981/128673.png" width="64" height="64" /><image x="640" y="704" href="8981/128351.png" width="64" height="64" /><image x="704" y="704" href="8981/128354.png" width="64" height="64" /><image x="768" y="704" href="8981/128355.png" width="64" height="64" /><image x="832" y="704" href="8981/128347.png" width="64" height="64" /><image x="896" y="704" href="8981/128348.png" width="64" height="64" /><image x="0" y="768" href="8981/128350.png" width="64" height="64" /><image x="64" y="768" href="8981/127885.png" width="64" height="64" /><image x="128" y="768" href="8981/128117.png" width="64" height="64" /><image x="192" y="768" href="8981/128353.png" width="64" height="64" /><image x="256" y="768" href="8981/148549.png" width="64" height="64" /><image x="320" y="768" href="8981/148550.png" width="64" height="64" /><image x="384" y="768" href="8981/148551.png" width="64" height="64" /><image x="448" y="768" href="8981/148553.png" width="64" height="64" /><image x="512" y="768" href="8981/148534.png" width="64" height="64" /><image x="576" y="768" href="8981/148552.png" width="64" height="64" /><image x="640" y="768" href="8981/148548.png" width="64" height="64" /><image x="704" y="768" href="8981/148533.png" width="64" height="64" /><image x="768" y="768" href="8981/148554.png" width="64" height="64" /><image x="832" y="768" href="8981/148547.png" width="64" height="64" /><image x="896" y="768" href="8981/185302.png" width="64" height="64" /><image x="0" y="832" href="8981/183707.png" width="64" height="64" /><image x="64" y="832" href="8981/185629.png" width="64" height="64" /><image x="128" y="832" href="8981/185630.png" width="64" height="64" /><image x="192" y="832" href="8981/224112.png" width="64" height="64" /><image x="256" y="832" href="8981/202571.png" width="64" height="64" /><image x="320" y="832" href="8981/203304.png" width="64" height="64" /><image x="384" y="832" href="8981/202907.png" width="64" height="64" /><image x="448" y="832" href="8981/203184.png" width="64" height="64" /><image x="512" y="832" href="8981/203002.png" width="64" height="64" /><image x="576" y="832" href="8981/221120.png" width="64" height="64" /><image x="640" y="832" href="8981/221123.png" width="64" height="64" /><image x="704" y="832" href="8981/221125.png" width="64" height="64" /><image x="768" y="832" href="8981/221126.png" width="64" height="64" /><image x="832" y="832" href="8981/221130.png" width="64" height="64" /><image x="896" y="832" href="8981/274378.png" width="64" height="64" /><image x="0" y="896" href="8981/274312.png" width="64" height="64" /><image x="64" y="896" href="8981/274396.png" width="64" height="64" /><image x="128" y="896" href="8981/278583.png" width="64" height="64" /><image x="192" y="896" href="8981/278549.png" width="64" height="64" /></svg>