<?xml version="1.0" encoding="UTF-8"?>
<svg xmlns="http://www.w3.org/2000/svg" version="1.1" height="320" width="320"><rect x="0" y="0" width="320" height="320" fill="rgb(192,192,192)" /><image x="0" y="0" href="9028/37189.png" width="64" height="64" /><image x="64" y="0" href="9028/37126.png" width="64" height="64" /><image x="128" y="0" href="9028/37148.png" width="64" height="64" /><image x="192" y="0" href="9028/37847.png" width="64" height="64" /><image x="256" y="0" href="9028/37187.png" width="64" height="64" /><image x="0" y="64" href="9028/37147.png" width="64" height="64" /><image x="64" y="64" href="9028/37134.png" width="64" height="64" /><image x="128" y="64" href="9028/161368.png" width="64" height="64" /><image x="192" y="64" href="9028/37861.png" width="64" height="64" /><image x="256" y="64" href="9028/37141.png" width="64" height="64" /><image x="0" y="128" href="9028/279667.png" width="64" height="64" /><image x="64" y="128" href="9028/37186.png" width="64" height="64" /><image x="128" y="128" href="9028/279671.png" width="64" height="64" /><image x="192" y="128" href="9028/37109.png" width="64" height="64" /><image x="256" y="128" href="9028/37188.png" width="64" height="64" /><image x="0" y="192" href="9028/279200.png" width="64" height="64" /><image x="64" y="192" href="9028/279357.png" width="64" height="64" /></svg>