<?xml version="1.0" encoding="UTF-8"?>
<svg xmlns="http://www.w3.org/2000/svg" version="1.1" height="384" width="384"><rect x="0" y="0" width="384" height="384" fill="rgb(192,192,192)" /><image x="0" y="0" href="94758/172545.png" width="64" height="64" /><image x="64" y="0" href="94758/196092.png" width="64" height="64" /><image x="128" y="0" href="94758/196434.png" width="64" height="64" /><image x="192" y="0" href="94758/196437.png" width="64" height="64" /><image x="256" y="0" href="94758/172510.png" width="64" height="64" /><image x="320" y="0" href="94758/172448.png" width="64" height="64" /><image x="0" y="64" href="94758/172623.png" width="64" height="64" /><image x="64" y="64" href="94758/173065.png" width="64" height="64" /><image x="128" y="64" href="94758/173063.png" width="64" height="64" /><image x="192" y="64" href="94758/173050.png" width="64" height="64" /><image x="256" y="64" href="94758/173245.png" width="64" height="64" /><image x="320" y="64" href="94758/173061.png" width="64" height="64" /><image x="0" y="128" href="94758/173047.png" width="64" height="64" /><image x="64" y="128" href="94758/173066.png" width="64" height="64" /><image x="128" y="128" href="94758/173057.png" width="64" height="64" /><image x="192" y="128" href="94758/173086.png" width="64" height="64" /><image x="256" y="128" href="94758/173049.png" width="64" height="64" /><image x="320" y="128" href="94758/172888.png" width="64" height="64" /><image x="0" y="192" href="94758/173089.png" width="64" height="64" /><image x="64" y="192" href="94758/172889.png" width="64" height="64" /><image x="128" y="192" href="94758/173081.png" width="64" height="64" /><image x="192" y="192" href="94758/173043.png" width="64" height="64" /><image x="256" y="192" href="94758/173019.png" width="64" height="64" /><image x="320" y="192" href="94758/173024.png" width="64" height="64" /><image x="0" y="256" href="94758/173023.png" width="64" height="64" /><image x="64" y="256" href="94758/173329.png" width="64" height="64" /><image x="128" y="256" href="94758/196168.png" width="64" height="64" /><image x="192" y="256" href="94758/173338.png" width="64" height="64" /></svg>