<?xml version="1.0" encoding="UTF-8"?>
<svg xmlns="http://www.w3.org/2000/svg" version="1.1" height="512" width="512"><rect x="0" y="0" width="512" height="512" fill="rgb(192,192,192)" /><image x="0" y="0" href="9494/38535.png" width="64" height="64" /><image x="64" y="0" href="9494/84607.png" width="64" height="64" /><image x="128" y="0" href="9494/54659.png" width="64" height="64" /><image x="192" y="0" href="9494/54653.png" width="64" height="64" /><image x="256" y="0" href="9494/38537.png" width="64" height="64" /><image x="320" y="0" href="9494/84608.png" width="64" height="64" /><image x="384" y="0" href="9494/84609.png" width="64" height="64" /><image x="448" y="0" href="9494/44655.png" width="64" height="64" /><image x="0" y="64" href="9494/54708.png" width="64" height="64" /><image x="64" y="64" href="9494/84610.png" width="64" height="64" /><image x="128" y="64" href="9494/38590.png" width="64" height="64" /><image x="192" y="64" href="9494/81366.png" width="64" height="64" /><image x="256" y="64" href="9494/81365.png" width="64" height="64" /><image x="320" y="64" href="9494/84611.png" width="64" height="64" /><image x="384" y="64" href="9494/84612.png" width="64" height="64" /><image x="448" y="64" href="9494/99082.png" width="64" height="64" /><image x="0" y="128" href="9494/99839.png" width="64" height="64" /><image x="64" y="128" href="9494/100040.png" width="64" height="64" /><image x="128" y="128" href="9494/38528.png" width="64" height="64" /><image x="192" y="128" href="9494/99192.png" width="64" height="64" /><image x="256" y="128" href="9494/99838.png" width="64" height="64" /><image x="320" y="128" href="9494/38550.png" width="64" height="64" /><image x="384" y="128" href="9494/84613.png" width="64" height="64" /><image x="448" y="128" href="9494/84614.png" width="64" height="64" /><image x="0" y="192" href="9494/99836.png" width="64" height="64" /><image x="64" y="192" href="9494/99835.png" width="64" height="64" /><image x="128" y="192" href="9494/38552.png" width="64" height="64" /><image x="192" y="192" href="9494/38538.png" width="64" height="64" /><image x="256" y="192" href="9494/38548.png" width="64" height="64" /><image x="320" y="192" href="9494/99016.png" width="64" height="64" /><image x="384" y="192" href="9494/38557.png" width="64" height="64" /><image x="448" y="192" href="9494/38565.png" width="64" height="64" /><image x="0" y="256" href="9494/54707.png" width="64" height="64" /><image x="64" y="256" href="9494/55070.png" width="64" height="64" /><image x="128" y="256" href="9494/38352.png" width="64" height="64" /><image x="192" y="256" href="9494/99298.png" width="64" height="64" /><image x="256" y="256" href="9494/38530.png" width="64" height="64" /><image x="320" y="256" href="9494/38526.png" width="64" height="64" /><image x="384" y="256" href="9494/38544.png" width="64" height="64" /><image x="448" y="256" href="9494/38349.png" width="64" height="64" /><image x="0" y="320" href="9494/38556.png" width="64" height="64" /><image x="64" y="320" href="9494/38542.png" width="64" height="64" /><image x="128" y="320" href="9494/38547.png" width="64" height="64" /><image x="192" y="320" href="9494/38545.png" width="64" height="64" /><image x="256" y="320" href="9494/98676.png" width="64" height="64" /><image x="320" y="320" href="9494/38347.png" width="64" height="64" /><image x="384" y="320" href="9494/38529.png" width="64" height="64" /><image x="448" y="320" href="9494/39686.png" width="64" height="64" /><image x="0" y="384" href="9494/38551.png" width="64" height="64" /><image x="64" y="384" href="9494/38350.png" width="64" height="64" /></svg>