<?xml version="1.0" encoding="UTF-8"?>
<svg xmlns="http://www.w3.org/2000/svg" version="1.1" height="320" width="320"><rect x="0" y="0" width="320" height="320" fill="rgb(192,192,192)" /><image x="0" y="0" href="9698/100142.png" width="64" height="64" /><image x="64" y="0" href="9698/42351.png" width="64" height="64" /><image x="128" y="0" href="9698/42353.png" width="64" height="64" /><image x="192" y="0" href="9698/101157.png" width="64" height="64" /><image x="256" y="0" href="9698/98951.png" width="64" height="64" /><image x="0" y="64" href="9698/101311.png" width="64" height="64" /><image x="64" y="64" href="9698/110225.png" width="64" height="64" /><image x="128" y="64" href="9698/100950.png" width="64" height="64" /><image x="192" y="64" href="9698/39845.png" width="64" height="64" /><image x="256" y="64" href="9698/99534.png" width="64" height="64" /><image x="0" y="128" href="9698/100978.png" width="64" height="64" /><image x="64" y="128" href="9698/42933.png" width="64" height="64" /><image x="128" y="128" href="9698/81935.png" width="64" height="64" /><image x="192" y="128" href="9698/42328.png" width="64" height="64" /><image x="256" y="128" href="9698/81646.png" width="64" height="64" /><image x="0" y="192" href="9698/43639.png" width="64" height="64" /><image x="64" y="192" href="9698/81937.png" width="64" height="64" /><image x="128" y="192" href="9698/81939.png" width="64" height="64" /><image x="192" y="192" href="9698/42357.png" width="64" height="64" /><image x="256" y="192" href="9698/81940.png" width="64" height="64" /><image x="0" y="256" href="9698/42399.png" width="64" height="64" /><image x="64" y="256" href="9698/42377.png" width="64" height="64" /><image x="128" y="256" href="9698/42365.png" width="64" height="64" /><image x="192" y="256" href="9698/42396.png" width="64" height="64" /><image x="256" y="256" href="9698/42207.png" width="64" height="64" /></svg>