<?xml version="1.0" encoding="UTF-8"?>
<svg xmlns="http://www.w3.org/2000/svg" version="1.1" height="384" width="384"><rect x="0" y="0" width="384" height="384" fill="rgb(192,192,192)" /><image x="0" y="0" href="98946/177827.png" width="64" height="64" /><image x="64" y="0" href="98946/177820.png" width="64" height="64" /><image x="128" y="0" href="98946/156589.png" width="64" height="64" /><image x="192" y="0" href="98946/159041.png" width="64" height="64" /><image x="256" y="0" href="98946/157077.png" width="64" height="64" /><image x="320" y="0" href="98946/156072.png" width="64" height="64" /><image x="0" y="64" href="98946/177829.png" width="64" height="64" /><image x="64" y="64" href="98946/177754.png" width="64" height="64" /><image x="128" y="64" href="98946/177792.png" width="64" height="64" /><image x="192" y="64" href="98946/159026.png" width="64" height="64" /><image x="256" y="64" href="98946/156773.png" width="64" height="64" /><image x="320" y="64" href="98946/156771.png" width="64" height="64" /><image x="0" y="128" href="98946/159032.png" width="64" height="64" /><image x="64" y="128" href="98946/156595.png" width="64" height="64" /><image x="128" y="128" href="98946/157021.png" width="64" height="64" /><image x="192" y="128" href="98946/157023.png" width="64" height="64" /><image x="256" y="128" href="98946/156794.png" width="64" height="64" /><image x="320" y="128" href="98946/156591.png" width="64" height="64" /><image x="0" y="192" href="98946/156792.png" width="64" height="64" /><image x="64" y="192" href="98946/156790.png" width="64" height="64" /><image x="128" y="192" href="98946/177774.png" width="64" height="64" /><image x="192" y="192" href="98946/156593.png" width="64" height="64" /><image x="256" y="192" href="98946/156793.png" width="64" height="64" /><image x="320" y="192" href="98946/156806.png" width="64" height="64" /><image x="0" y="256" href="98946/156795.png" width="64" height="64" /><image x="64" y="256" href="98946/156808.png" width="64" height="64" /><image x="128" y="256" href="98946/157028.png" width="64" height="64" /><image x="192" y="256" href="98946/157022.png" width="64" height="64" /></svg>