<?xml version="1.0" encoding="UTF-8"?>
<svg xmlns="http://www.w3.org/2000/svg" version="1.1" height="800" width="800"><rect x="0" y="0" width="800" height="800" fill="rgb(192,192,192)" /><rect x="0" y="0" width="44" height="44" fill="none" /><rect x="44" y="0" width="44" height="44" fill="none" /><rect x="88" y="0" width="44" height="44" fill="none" /><rect x="132" y="0" width="44" height="44" fill="none" /><rect x="176" y="0" width="44" height="44" fill="none" /><rect x="220" y="0" width="44" height="44" fill="none" /><rect x="264" y="0" width="44" height="44" fill="none" /><rect x="308" y="0" width="44" height="44" fill="none" /><rect x="352" y="0" width="44" height="44" fill="none" /><rect x="396" y="0" width="44" height="44" fill="none" /><rect x="440" y="0" width="44" height="44" fill="none" /><rect x="484" y="0" width="44" height="44" fill="none" /><rect x="528" y="0" width="44" height="44" fill="none" /><rect x="572" y="0" width="44" height="44" fill="none" /><rect x="616" y="0" width="44" height="44" fill="none" /><rect x="660" y="0" width="44" height="44" fill="none" /><rect x="704" y="0" width="44" height="44" fill="none" /><rect x="748" y="0" width="44" height="44" fill="none" /><rect x="0" y="44" width="44" height="44" fill="none" /><rect x="44" y="44" width="44" height="44" fill="none" /><rect x="88" y="44" width="44" height="44" fill="none" /><rect x="132" y="44" width="44" height="44" fill="none" /><rect x="176" y="44" width="44" height="44" fill="none" /><rect x="220" y="44" width="44" height="44" fill="none" /><rect x="264" y="44" width="44" height="44" fill="none" /><rect x="308" y="44" width="44" height="44" fill="none" /><rect x="352" y="44" width="44" height="44" fill="none" /><rect x="396" y="44" width="44" height="44" fill="none" /><rect x="440" y="44" width="44" height="44" fill="none" /><rect x="484" y="44" width="44" height="44" fill="none" /><rect x="528" y="44" width="44" height="44" fill="none" /><rect x="572" y="44" width="44" height="44" fill="none" /><rect x="616" y="44" width="44" height="44" fill="none" /><rect x="660" y="44" width="44" height="44" fill="none" /><rect x="704" y="44" width="44" height="44" fill="none" /><rect x="748" y="44" width="44" height="44" fill="none" /><rect x="0" y="88" width="44" height="44" fill="none" /><rect x="44" y="88" width="44" height="44" fill="none" /><rect x="88" y="88" width="44" height="44" fill="none" /><rect x="132" y="88" width="44" height="44" fill="none" /><rect x="176" y="88" width="44" height="44" fill="none" /><rect x="220" y="88" width="44" height="44" fill="none" /><rect x="264" y="88" width="44" height="44" fill="none" /><rect x="308" y="88" width="44" height="44" fill="none" /><rect x="352" y="88" width="44" height="44" fill="none" /><rect x="396" y="88" width="44" height="44" fill="none" /><rect x="440" y="88" width="44" height="44" fill="none" /><rect x="484" y="88" width="44" height="44" fill="none" /><rect x="528" y="88" width="44" height="44" fill="none" /><rect x="572" y="88" width="44" height="44" fill="none" /><rect x="616" y="88" width="44" height="44" fill="none" /><rect x="660" y="88" width="44" height="44" fill="none" /><rect x="704" y="88" width="44" height="44" fill="none" /><rect x="748" y="88" width="44" height="44" fill="none" /><rect x="0" y="132" width="44" height="44" fill="none" /><rect x="44" y="132" width="44" height="44" fill="none" /><rect x="88" y="132" width="44" height="44" fill="none" /><rect x="132" y="132" width="44" height="44" fill="none" /><rect x="176" y="132" width="44" height="44" fill="none" /><rect x="220" y="132" width="44" height="44" fill="none" /><rect x="264" y="132" width="44" height="44" fill="none" /><rect x="308" y="132" width="44" height="44" fill="none" /><rect x="352" y="132" width="44" height="44" fill="none" /><rect x="396" y="132" width="44" height="44" fill="none" /><rect x="440" y="132" width="44" height="44" fill="none" /><rect x="484" y="132" width="44" height="44" fill="none" /><rect x="528" y="132" width="44" height="44" fill="none" /><rect x="572" y="132" width="44" height="44" fill="none" /><rect x="616" y="132" width="44" height="44" fill="none" /><rect x="660" y="132" width="44" height="44" fill="none" /><rect x="704" y="132" width="44" height="44" fill="none" /><rect x="748" y="132" width="44" height="44" fill="none" /><rect x="0" y="176" width="44" height="44" fill="none" /><rect x="44" y="176" width="44" height="44" fill="none" /><rect x="88" y="176" width="44" height="44" fill="none" /><rect x="132" y="176" width="44" height="44" fill="none" /><rect x="176" y="176" width="44" height="44" fill="none" /><rect x="220" y="176" width="44" height="44" fill="none" /><rect x="264" y="176" width="44" height="44" fill="none" /><rect x="308" y="176" width="44" height="44" fill="none" /><rect x="352" y="176" width="44" height="44" fill="none" /><rect x="396" y="176" width="44" height="44" fill="none" /><rect x="440" y="176" width="44" height="44" fill="none" /><rect x="484" y="176" width="44" height="44" fill="none" /><rect x="528" y="176" width="44" height="44" fill="none" /><rect x="572" y="176" width="44" height="44" fill="none" /><rect x="616" y="176" width="44" height="44" fill="none" /><rect x="660" y="176" width="44" height="44" fill="none" /><rect x="704" y="176" width="44" height="44" fill="none" /><rect x="748" y="176" width="44" height="44" fill="none" /><rect x="0" y="220" width="44" height="44" fill="none" /><rect x="44" y="220" width="44" height="44" fill="none" /><rect x="88" y="220" width="44" height="44" fill="none" /><rect x="132" y="220" width="44" height="44" fill="none" /><rect x="176" y="220" width="44" height="44" fill="none" /><rect x="220" y="220" width="44" height="44" fill="none" /><rect x="264" y="220" width="44" height="44" fill="none" /><rect x="308" y="220" width="44" height="44" fill="none" /><rect x="352" y="220" width="44" height="44" fill="none" /><rect x="396" y="220" width="44" height="44" fill="none" /><rect x="440" y="220" width="44" height="44" fill="none" /><rect x="484" y="220" width="44" height="44" fill="none" /><rect x="528" y="220" width="44" height="44" fill="none" /><rect x="572" y="220" width="44" height="44" fill="none" /><rect x="616" y="220" width="44" height="44" fill="none" /><rect x="660" y="220" width="44" height="44" fill="none" /><rect x="704" y="220" width="44" height="44" fill="none" /><rect x="748" y="220" width="44" height="44" fill="none" /><rect x="0" y="264" width="44" height="44" fill="none" /><rect x="44" y="264" width="44" height="44" fill="none" /><rect x="88" y="264" width="44" height="44" fill="none" /><rect x="132" y="264" width="44" height="44" fill="none" /><rect x="176" y="264" width="44" height="44" fill="none" /><rect x="220" y="264" width="44" height="44" fill="none" /><rect x="264" y="264" width="44" height="44" fill="none" /><rect x="308" y="264" width="44" height="44" fill="#FF6600" /><rect x="352" y="264" width="44" height="44" fill="#FF6600" /><rect x="396" y="264" width="44" height="44" fill="none" /><rect x="440" y="264" width="44" height="44" fill="none" /><rect x="484" y="264" width="44" height="44" fill="none" /><rect x="528" y="264" width="44" height="44" fill="none" /><rect x="572" y="264" width="44" height="44" fill="none" /><rect x="616" y="264" width="44" height="44" fill="none" /><rect x="660" y="264" width="44" height="44" fill="none" /><rect x="704" y="264" width="44" height="44" fill="none" /><rect x="748" y="264" width="44" height="44" fill="none" /><rect x="0" y="308" width="44" height="44" fill="none" /><rect x="44" y="308" width="44" height="44" fill="none" /><rect x="88" y="308" width="44" height="44" fill="none" /><rect x="132" y="308" width="44" height="44" fill="none" /><rect x="176" y="308" width="44" height="44" fill="none" /><rect x="220" y="308" width="44" height="44" fill="none" /><rect x="264" y="308" width="44" height="44" fill="none" /><rect x="308" y="308" width="44" height="44" fill="none" /><rect x="352" y="308" width="44" height="44" fill="none" /><rect x="396" y="308" width="44" height="44" fill="none" /><rect x="440" y="308" width="44" height="44" fill="none" /><rect x="484" y="308" width="44" height="44" fill="none" /><rect x="528" y="308" width="44" height="44" fill="none" /><rect x="572" y="308" width="44" height="44" fill="none" /><rect x="616" y="308" width="44" height="44" fill="none" /><rect x="660" y="308" width="44" height="44" fill="none" /><rect x="704" y="308" width="44" height="44" fill="none" /><rect x="748" y="308" width="44" height="44" fill="none" /><rect x="0" y="352" width="44" height="44" fill="none" /><rect x="44" y="352" width="44" height="44" fill="none" /><rect x="88" y="352" width="44" height="44" fill="#6666CC" /><rect x="132" y="352" width="44" height="44" fill="#6666CC" /><rect x="176" y="352" width="44" height="44" fill="none" /><rect x="220" y="352" width="44" height="44" fill="none" /><rect x="264" y="352" width="44" height="44" fill="none" /><rect x="308" y="352" width="44" height="44" fill="none" /><rect x="352" y="352" width="44" height="44" fill="none" /><rect x="396" y="352" width="44" height="44" fill="none" /><rect x="440" y="352" width="44" height="44" fill="none" /><rect x="484" y="352" width="44" height="44" fill="none" /><rect x="528" y="352" width="44" height="44" fill="none" /><rect x="572" y="352" width="44" height="44" fill="none" /><rect x="616" y="352" width="44" height="44" fill="none" /><rect x="660" y="352" width="44" height="44" fill="none" /><rect x="704" y="352" width="44" height="44" fill="none" /><rect x="748" y="352" width="44" height="44" fill="none" /><rect x="0" y="396" width="44" height="44" fill="none" /><rect x="44" y="396" width="44" height="44" fill="none" /><rect x="88" y="396" width="44" height="44" fill="none" /><rect x="132" y="396" width="44" height="44" fill="none" /><rect x="176" y="396" width="44" height="44" fill="none" /><rect x="220" y="396" width="44" height="44" fill="none" /><rect x="264" y="396" width="44" height="44" fill="none" /><rect x="308" y="396" width="44" height="44" fill="none" /><rect x="352" y="396" width="44" height="44" fill="none" /><rect x="396" y="396" width="44" height="44" fill="none" /><rect x="440" y="396" width="44" height="44" fill="none" /><rect x="484" y="396" width="44" height="44" fill="none" /><rect x="528" y="396" width="44" height="44" fill="none" /><rect x="572" y="396" width="44" height="44" fill="none" /><rect x="616" y="396" width="44" height="44" fill="none" /><rect x="660" y="396" width="44" height="44" fill="none" /><rect x="704" y="396" width="44" height="44" fill="none" /><rect x="748" y="396" width="44" height="44" fill="none" /><rect x="0" y="440" width="44" height="44" fill="none" /><rect x="44" y="440" width="44" height="44" fill="none" /><rect x="88" y="440" width="44" height="44" fill="none" /><rect x="132" y="440" width="44" height="44" fill="none" /><rect x="176" y="440" width="44" height="44" fill="none" /><rect x="220" y="440" width="44" height="44" fill="none" /><rect x="264" y="440" width="44" height="44" fill="none" /><rect x="308" y="440" width="44" height="44" fill="none" /><rect x="352" y="440" width="44" height="44" fill="none" /><rect x="396" y="440" width="44" height="44" fill="none" /><rect x="440" y="440" width="44" height="44" fill="none" /><rect x="484" y="440" width="44" height="44" fill="none" /><rect x="528" y="440" width="44" height="44" fill="none" /><rect x="572" y="440" width="44" height="44" fill="none" /><rect x="616" y="440" width="44" height="44" fill="none" /><rect x="660" y="440" width="44" height="44" fill="none" /><rect x="704" y="440" width="44" height="44" fill="none" /><rect x="748" y="440" width="44" height="44" fill="none" /><rect x="0" y="484" width="44" height="44" fill="none" /><rect x="44" y="484" width="44" height="44" fill="none" /><rect x="88" y="484" width="44" height="44" fill="none" /><rect x="132" y="484" width="44" height="44" fill="none" /><rect x="176" y="484" width="44" height="44" fill="none" /><rect x="220" y="484" width="44" height="44" fill="none" /><rect x="264" y="484" width="44" height="44" fill="none" /><rect x="308" y="484" width="44" height="44" fill="none" /><rect x="352" y="484" width="44" height="44" fill="none" /><rect x="396" y="484" width="44" height="44" fill="none" /><rect x="440" y="484" width="44" height="44" fill="none" /><rect x="484" y="484" width="44" height="44" fill="none" /><rect x="528" y="484" width="44" height="44" fill="none" /><rect x="572" y="484" width="44" height="44" fill="none" /><rect x="616" y="484" width="44" height="44" fill="none" /><rect x="660" y="484" width="44" height="44" fill="none" /><rect x="704" y="484" width="44" height="44" fill="none" /><rect x="748" y="484" width="44" height="44" fill="none" /><rect x="0" y="528" width="44" height="44" fill="none" /><rect x="44" y="528" width="44" height="44" fill="none" /><rect x="88" y="528" width="44" height="44" fill="none" /><rect x="132" y="528" width="44" height="44" fill="none" /><rect x="176" y="528" width="44" height="44" fill="none" /><rect x="220" y="528" width="44" height="44" fill="none" /><rect x="264" y="528" width="44" height="44" fill="none" /><rect x="308" y="528" width="44" height="44" fill="none" /><rect x="352" y="528" width="44" height="44" fill="none" /><rect x="396" y="528" width="44" height="44" fill="none" /><rect x="440" y="528" width="44" height="44" fill="none" /><rect x="484" y="528" width="44" height="44" fill="none" /><rect x="528" y="528" width="44" height="44" fill="none" /><rect x="572" y="528" width="44" height="44" fill="none" /><rect x="616" y="528" width="44" height="44" fill="none" /><rect x="660" y="528" width="44" height="44" fill="none" /><rect x="704" y="528" width="44" height="44" fill="none" /><rect x="748" y="528" width="44" height="44" fill="none" /><rect x="0" y="572" width="44" height="44" fill="none" /><rect x="44" y="572" width="44" height="44" fill="none" /><rect x="88" y="572" width="44" height="44" fill="none" /><rect x="132" y="572" width="44" height="44" fill="none" /><rect x="176" y="572" width="44" height="44" fill="none" /><rect x="220" y="572" width="44" height="44" fill="none" /><rect x="264" y="572" width="44" height="44" fill="none" /><rect x="308" y="572" width="44" height="44" fill="none" /><rect x="352" y="572" width="44" height="44" fill="none" /><rect x="396" y="572" width="44" height="44" fill="none" /><rect x="440" y="572" width="44" height="44" fill="none" /><rect x="484" y="572" width="44" height="44" fill="none" /><rect x="528" y="572" width="44" height="44" fill="none" /><rect x="572" y="572" width="44" height="44" fill="none" /><rect x="616" y="572" width="44" height="44" fill="none" /><rect x="660" y="572" width="44" height="44" fill="none" /><rect x="704" y="572" width="44" height="44" fill="none" /><rect x="748" y="572" width="44" height="44" fill="none" /><rect x="0" y="616" width="44" height="44" fill="none" /><rect x="44" y="616" width="44" height="44" fill="none" /><rect x="88" y="616" width="44" height="44" fill="none" /><rect x="132" y="616" width="44" height="44" fill="none" /><rect x="176" y="616" width="44" height="44" fill="none" /><rect x="220" y="616" width="44" height="44" fill="none" /><rect x="264" y="616" width="44" height="44" fill="none" /><rect x="308" y="616" width="44" height="44" fill="none" /><rect x="352" y="616" width="44" height="44" fill="none" /><rect x="396" y="616" width="44" height="44" fill="none" /><rect x="440" y="616" width="44" height="44" fill="none" /><rect x="484" y="616" width="44" height="44" fill="none" /><rect x="528" y="616" width="44" height="44" fill="none" /><rect x="572" y="616" width="44" height="44" fill="none" /><rect x="616" y="616" width="44" height="44" fill="none" /><rect x="660" y="616" width="44" height="44" fill="none" /><rect x="704" y="616" width="44" height="44" fill="none" /><rect x="748" y="616" width="44" height="44" fill="none" /><rect x="0" y="660" width="44" height="44" fill="none" /><rect x="44" y="660" width="44" height="44" fill="none" /><rect x="88" y="660" width="44" height="44" fill="none" /><rect x="132" y="660" width="44" height="44" fill="none" /><rect x="176" y="660" width="44" height="44" fill="none" /><rect x="220" y="660" width="44" height="44" fill="none" /><rect x="264" y="660" width="44" height="44" fill="none" /><rect x="308" y="660" width="44" height="44" fill="none" /><rect x="352" y="660" width="44" height="44" fill="none" /><rect x="396" y="660" width="44" height="44" fill="none" /><rect x="440" y="660" width="44" height="44" fill="none" /><rect x="484" y="660" width="44" height="44" fill="none" /><rect x="528" y="660" width="44" height="44" fill="none" /><rect x="572" y="660" width="44" height="44" fill="none" /><rect x="616" y="660" width="44" height="44" fill="none" /><rect x="660" y="660" width="44" height="44" fill="none" /><rect x="704" y="660" width="44" height="44" fill="none" /><rect x="748" y="660" width="44" height="44" fill="none" /><rect x="0" y="704" width="44" height="44" fill="none" /><rect x="44" y="704" width="44" height="44" fill="none" /><rect x="88" y="704" width="44" height="44" fill="none" /><rect x="132" y="704" width="44" height="44" fill="none" /><rect x="176" y="704" width="44" height="44" fill="none" /><rect x="220" y="704" width="44" height="44" fill="none" /><rect x="264" y="704" width="44" height="44" fill="none" /><rect x="308" y="704" width="44" height="44" fill="none" /><rect x="352" y="704" width="44" height="44" fill="none" /><rect x="396" y="704" width="44" height="44" fill="none" /><rect x="440" y="704" width="44" height="44" fill="none" /><rect x="484" y="704" width="44" height="44" fill="none" /><rect x="528" y="704" width="44" height="44" fill="none" /><rect x="572" y="704" width="44" height="44" fill="none" /><rect x="616" y="704" width="44" height="44" fill="none" /><rect x="660" y="704" width="44" height="44" fill="none" /><rect x="704" y="704" width="44" height="44" fill="none" /><rect x="748" y="704" width="44" height="44" fill="none" /><rect x="0" y="748" width="44" height="44" fill="none" /><rect x="44" y="748" width="44" height="44" fill="none" /><rect x="88" y="748" width="44" height="44" fill="none" /><rect x="132" y="748" width="44" height="44" fill="none" /><rect x="176" y="748" width="44" height="44" fill="none" /><rect x="220" y="748" width="44" height="44" fill="none" /></svg>