<?xml version="1.0" encoding="UTF-8"?>
<svg xmlns="http://www.w3.org/2000/svg" version="1.1" height="800" width="800"><rect x="0" y="0" width="800" height="800" fill="rgb(192,192,192)" /><rect x="0" y="0" width="34" height="34" fill="none" /><rect x="34" y="0" width="34" height="34" fill="none" /><rect x="68" y="0" width="34" height="34" fill="none" /><rect x="102" y="0" width="34" height="34" fill="none" /><rect x="136" y="0" width="34" height="34" fill="none" /><rect x="170" y="0" width="34" height="34" fill="none" /><rect x="204" y="0" width="34" height="34" fill="none" /><rect x="238" y="0" width="34" height="34" fill="none" /><rect x="272" y="0" width="34" height="34" fill="none" /><rect x="306" y="0" width="34" height="34" fill="none" /><rect x="340" y="0" width="34" height="34" fill="none" /><rect x="374" y="0" width="34" height="34" fill="none" /><rect x="408" y="0" width="34" height="34" fill="none" /><rect x="442" y="0" width="34" height="34" fill="none" /><rect x="476" y="0" width="34" height="34" fill="none" /><rect x="510" y="0" width="34" height="34" fill="none" /><rect x="544" y="0" width="34" height="34" fill="none" /><rect x="578" y="0" width="34" height="34" fill="none" /><rect x="612" y="0" width="34" height="34" fill="none" /><rect x="646" y="0" width="34" height="34" fill="none" /><rect x="680" y="0" width="34" height="34" fill="none" /><rect x="714" y="0" width="34" height="34" fill="none" /><rect x="748" y="0" width="34" height="34" fill="none" /><rect x="0" y="34" width="34" height="34" fill="none" /><rect x="34" y="34" width="34" height="34" fill="none" /><rect x="68" y="34" width="34" height="34" fill="none" /><rect x="102" y="34" width="34" height="34" fill="none" /><rect x="136" y="34" width="34" height="34" fill="none" /><rect x="170" y="34" width="34" height="34" fill="none" /><rect x="204" y="34" width="34" height="34" fill="none" /><rect x="238" y="34" width="34" height="34" fill="none" /><rect x="272" y="34" width="34" height="34" fill="none" /><rect x="306" y="34" width="34" height="34" fill="none" /><rect x="340" y="34" width="34" height="34" fill="none" /><rect x="374" y="34" width="34" height="34" fill="none" /><rect x="408" y="34" width="34" height="34" fill="none" /><rect x="442" y="34" width="34" height="34" fill="none" /><rect x="476" y="34" width="34" height="34" fill="none" /><rect x="510" y="34" width="34" height="34" fill="none" /><rect x="544" y="34" width="34" height="34" fill="none" /><rect x="578" y="34" width="34" height="34" fill="none" /><rect x="612" y="34" width="34" height="34" fill="none" /><rect x="646" y="34" width="34" height="34" fill="none" /><rect x="680" y="34" width="34" height="34" fill="none" /><rect x="714" y="34" width="34" height="34" fill="none" /><rect x="748" y="34" width="34" height="34" fill="none" /><rect x="0" y="68" width="34" height="34" fill="none" /><rect x="34" y="68" width="34" height="34" fill="none" /><rect x="68" y="68" width="34" height="34" fill="none" /><rect x="102" y="68" width="34" height="34" fill="none" /><rect x="136" y="68" width="34" height="34" fill="none" /><rect x="170" y="68" width="34" height="34" fill="none" /><rect x="204" y="68" width="34" height="34" fill="none" /><rect x="238" y="68" width="34" height="34" fill="none" /><rect x="272" y="68" width="34" height="34" fill="none" /><rect x="306" y="68" width="34" height="34" fill="none" /><rect x="340" y="68" width="34" height="34" fill="none" /><rect x="374" y="68" width="34" height="34" fill="none" /><rect x="408" y="68" width="34" height="34" fill="none" /><rect x="442" y="68" width="34" height="34" fill="none" /><rect x="476" y="68" width="34" height="34" fill="none" /><rect x="510" y="68" width="34" height="34" fill="none" /><rect x="544" y="68" width="34" height="34" fill="none" /><rect x="578" y="68" width="34" height="34" fill="none" /><rect x="612" y="68" width="34" height="34" fill="none" /><rect x="646" y="68" width="34" height="34" fill="none" /><rect x="680" y="68" width="34" height="34" fill="none" /><rect x="714" y="68" width="34" height="34" fill="none" /><rect x="748" y="68" width="34" height="34" fill="none" /><rect x="0" y="102" width="34" height="34" fill="none" /><rect x="34" y="102" width="34" height="34" fill="none" /><rect x="68" y="102" width="34" height="34" fill="none" /><rect x="102" y="102" width="34" height="34" fill="none" /><rect x="136" y="102" width="34" height="34" fill="none" /><rect x="170" y="102" width="34" height="34" fill="none" /><rect x="204" y="102" width="34" height="34" fill="none" /><rect x="238" y="102" width="34" height="34" fill="none" /><rect x="272" y="102" width="34" height="34" fill="none" /><rect x="306" y="102" width="34" height="34" fill="none" /><rect x="340" y="102" width="34" height="34" fill="none" /><rect x="374" y="102" width="34" height="34" fill="none" /><rect x="408" y="102" width="34" height="34" fill="none" /><rect x="442" y="102" width="34" height="34" fill="#FF6600" /><rect x="476" y="102" width="34" height="34" fill="#FF6600" /><rect x="510" y="102" width="34" height="34" fill="#FF6600" /><rect x="544" y="102" width="34" height="34" fill="#FF6600" /><rect x="578" y="102" width="34" height="34" fill="#FF6600" /><rect x="612" y="102" width="34" height="34" fill="#FF6600" /><rect x="646" y="102" width="34" height="34" fill="#FF6600" /><rect x="680" y="102" width="34" height="34" fill="#FF6600" /><rect x="714" y="102" width="34" height="34" fill="#6666CC" /><rect x="748" y="102" width="34" height="34" fill="#6666CC" /><rect x="0" y="136" width="34" height="34" fill="#6666CC" /><rect x="34" y="136" width="34" height="34" fill="#6666CC" /><rect x="68" y="136" width="34" height="34" fill="#6666CC" /><rect x="102" y="136" width="34" height="34" fill="#6666CC" /><rect x="136" y="136" width="34" height="34" fill="#FFFF99" /><rect x="170" y="136" width="34" height="34" fill="#FFFF99" /><rect x="204" y="136" width="34" height="34" fill="#FFFF99" /><rect x="238" y="136" width="34" height="34" fill="#FFFF99" /><rect x="272" y="136" width="34" height="34" fill="#FFFF99" /><rect x="306" y="136" width="34" height="34" fill="none" /><rect x="340" y="136" width="34" height="34" fill="none" /><rect x="374" y="136" width="34" height="34" fill="none" /><rect x="408" y="136" width="34" height="34" fill="none" /><rect x="442" y="136" width="34" height="34" fill="none" /><rect x="476" y="136" width="34" height="34" fill="none" /><rect x="510" y="136" width="34" height="34" fill="none" /><rect x="544" y="136" width="34" height="34" fill="none" /><rect x="578" y="136" width="34" height="34" fill="none" /><rect x="612" y="136" width="34" height="34" fill="none" /><rect x="646" y="136" width="34" height="34" fill="none" /><rect x="680" y="136" width="34" height="34" fill="none" /><rect x="714" y="136" width="34" height="34" fill="none" /><rect x="748" y="136" width="34" height="34" fill="none" /><rect x="0" y="170" width="34" height="34" fill="none" /><rect x="34" y="170" width="34" height="34" fill="none" /><rect x="68" y="170" width="34" height="34" fill="none" /><rect x="102" y="170" width="34" height="34" fill="none" /><rect x="136" y="170" width="34" height="34" fill="none" /><rect x="170" y="170" width="34" height="34" fill="none" /><rect x="204" y="170" width="34" height="34" fill="none" /><rect x="238" y="170" width="34" height="34" fill="none" /><rect x="272" y="170" width="34" height="34" fill="none" /><rect x="306" y="170" width="34" height="34" fill="#66FF66" /><rect x="340" y="170" width="34" height="34" fill="#66FF66" /><rect x="374" y="170" width="34" height="34" fill="#66FF66" /><rect x="408" y="170" width="34" height="34" fill="none" /><rect x="442" y="170" width="34" height="34" fill="none" /><rect x="476" y="170" width="34" height="34" fill="none" /><rect x="510" y="170" width="34" height="34" fill="#FF6600" /><rect x="544" y="170" width="34" height="34" fill="#FF6600" /><rect x="578" y="170" width="34" height="34" fill="#FF6600" /><rect x="612" y="170" width="34" height="34" fill="#FF6600" /><rect x="646" y="170" width="34" height="34" fill="#FF6600" /><rect x="680" y="170" width="34" height="34" fill="#FF6600" /><rect x="714" y="170" width="34" height="34" fill="#FF6600" /><rect x="748" y="170" width="34" height="34" fill="#FF6600" /><rect x="0" y="204" width="34" height="34" fill="#FF6600" /><rect x="34" y="204" width="34" height="34" fill="none" /><rect x="68" y="204" width="34" height="34" fill="none" /><rect x="102" y="204" width="34" height="34" fill="none" /><rect x="136" y="204" width="34" height="34" fill="none" /><rect x="170" y="204" width="34" height="34" fill="none" /><rect x="204" y="204" width="34" height="34" fill="none" /><rect x="238" y="204" width="34" height="34" fill="none" /><rect x="272" y="204" width="34" height="34" fill="none" /><rect x="306" y="204" width="34" height="34" fill="none" /><rect x="340" y="204" width="34" height="34" fill="none" /><rect x="374" y="204" width="34" height="34" fill="none" /><rect x="408" y="204" width="34" height="34" fill="none" /><rect x="442" y="204" width="34" height="34" fill="none" /><rect x="476" y="204" width="34" height="34" fill="none" /><rect x="510" y="204" width="34" height="34" fill="none" /><rect x="544" y="204" width="34" height="34" fill="none" /><rect x="578" y="204" width="34" height="34" fill="none" /><rect x="612" y="204" width="34" height="34" fill="none" /><rect x="646" y="204" width="34" height="34" fill="none" /><rect x="680" y="204" width="34" height="34" fill="none" /><rect x="714" y="204" width="34" height="34" fill="none" /><rect x="748" y="204" width="34" height="34" fill="none" /><rect x="0" y="238" width="34" height="34" fill="none" /><rect x="34" y="238" width="34" height="34" fill="none" /><rect x="68" y="238" width="34" height="34" fill="none" /><rect x="102" y="238" width="34" height="34" fill="none" /><rect x="136" y="238" width="34" height="34" fill="none" /><rect x="170" y="238" width="34" height="34" fill="none" /><rect x="204" y="238" width="34" height="34" fill="none" /><rect x="238" y="238" width="34" height="34" fill="none" /><rect x="272" y="238" width="34" height="34" fill="none" /><rect x="306" y="238" width="34" height="34" fill="none" /><rect x="340" y="238" width="34" height="34" fill="none" /><rect x="374" y="238" width="34" height="34" fill="none" /><rect x="408" y="238" width="34" height="34" fill="none" /><rect x="442" y="238" width="34" height="34" fill="none" /><rect x="476" y="238" width="34" height="34" fill="none" /><rect x="510" y="238" width="34" height="34" fill="none" /><rect x="544" y="238" width="34" height="34" fill="none" /><rect x="578" y="238" width="34" height="34" fill="#6666CC" /><rect x="612" y="238" width="34" height="34" fill="#6666CC" /><rect x="646" y="238" width="34" height="34" fill="#6666CC" /><rect x="680" y="238" width="34" height="34" fill="#6666CC" /><rect x="714" y="238" width="34" height="34" fill="#6666CC" /><rect x="748" y="238" width="34" height="34" fill="#6666CC" /><rect x="0" y="272" width="34" height="34" fill="#6666CC" /><rect x="34" y="272" width="34" height="34" fill="#FFFF99" /><rect x="68" y="272" width="34" height="34" fill="#FFFF99" /><rect x="102" y="272" width="34" height="34" fill="#FFFF99" /><rect x="136" y="272" width="34" height="34" fill="#FFFF99" /><rect x="170" y="272" width="34" height="34" fill="#FFFF99" /><rect x="204" y="272" width="34" height="34" fill="#FFFF99" /><rect x="238" y="272" width="34" height="34" fill="#FFFF99" /><rect x="272" y="272" width="34" height="34" fill="#FFFF99" /><rect x="306" y="272" width="34" height="34" fill="#FFFF99" /><rect x="340" y="272" width="34" height="34" fill="#FFFF99" /><rect x="374" y="272" width="34" height="34" fill="#FFFF99" /><rect x="408" y="272" width="34" height="34" fill="#FFFF99" /><rect x="442" y="272" width="34" height="34" fill="#FFFF99" /><rect x="476" y="272" width="34" height="34" fill="#FFFF99" /><rect x="510" y="272" width="34" height="34" fill="#FFFF99" /><rect x="544" y="272" width="34" height="34" fill="#FFFF99" /><rect x="578" y="272" width="34" height="34" fill="#FFFF99" /><rect x="612" y="272" width="34" height="34" fill="#FFFF99" /><rect x="646" y="272" width="34" height="34" fill="#FFFF99" /><rect x="680" y="272" width="34" height="34" fill="#FFFF99" /><rect x="714" y="272" width="34" height="34" fill="#FFFF99" /><rect x="748" y="272" width="34" height="34" fill="#FFFF99" /><rect x="0" y="306" width="34" height="34" fill="#FFFF99" /><rect x="34" y="306" width="34" height="34" fill="#66FF66" /><rect x="68" y="306" width="34" height="34" fill="#66FF66" /><rect x="102" y="306" width="34" height="34" fill="#66FF66" /><rect x="136" y="306" width="34" height="34" fill="#66FF66" /><rect x="170" y="306" width="34" height="34" fill="#66FF66" /><rect x="204" y="306" width="34" height="34" fill="#66FF66" /><rect x="238" y="306" width="34" height="34" fill="#66FF66" /><rect x="272" y="306" width="34" height="34" fill="#66FF66" /><rect x="306" y="306" width="34" height="34" fill="#66FF66" /><rect x="340" y="306" width="34" height="34" fill="#66FF66" /><rect x="374" y="306" width="34" height="34" fill="#66FF66" /><rect x="408" y="306" width="34" height="34" fill="#66FF66" /><rect x="442" y="306" width="34" height="34" fill="#66FF66" /><rect x="476" y="306" width="34" height="34" fill="#66FF66" /><rect x="510" y="306" width="34" height="34" fill="#66FF66" /><rect x="544" y="306" width="34" height="34" fill="#66FF66" /><rect x="578" y="306" width="34" height="34" fill="#FF6600" /><rect x="612" y="306" width="34" height="34" fill="#FF6600" /><rect x="646" y="306" width="34" height="34" fill="#FF6600" /><rect x="680" y="306" width="34" height="34" fill="#FF6600" /><rect x="714" y="306" width="34" height="34" fill="#FF6600" /><rect x="748" y="306" width="34" height="34" fill="#FF6600" /><rect x="0" y="340" width="34" height="34" fill="#FF6600" /><rect x="34" y="340" width="34" height="34" fill="#FF6600" /><rect x="68" y="340" width="34" height="34" fill="#FF6600" /><rect x="102" y="340" width="34" height="34" fill="#FF6600" /><rect x="136" y="340" width="34" height="34" fill="#FF6600" /><rect x="170" y="340" width="34" height="34" fill="#FF6600" /><rect x="204" y="340" width="34" height="34" fill="#FF6600" /><rect x="238" y="340" width="34" height="34" fill="none" /><rect x="272" y="340" width="34" height="34" fill="#6666CC" /><rect x="306" y="340" width="34" height="34" fill="#6666CC" /><rect x="340" y="340" width="34" height="34" fill="#6666CC" /><rect x="374" y="340" width="34" height="34" fill="#6666CC" /><rect x="408" y="340" width="34" height="34" fill="#6666CC" /><rect x="442" y="340" width="34" height="34" fill="#6666CC" /><rect x="476" y="340" width="34" height="34" fill="#6666CC" /><rect x="510" y="340" width="34" height="34" fill="#6666CC" /><rect x="544" y="340" width="34" height="34" fill="#6666CC" /><rect x="578" y="340" width="34" height="34" fill="#6666CC" /><rect x="612" y="340" width="34" height="34" fill="#6666CC" /><rect x="646" y="340" width="34" height="34" fill="#6666CC" /><rect x="680" y="340" width="34" height="34" fill="#6666CC" /><rect x="714" y="340" width="34" height="34" fill="#6666CC" /><rect x="748" y="340" width="34" height="34" fill="#6666CC" /><rect x="0" y="374" width="34" height="34" fill="#6666CC" /><rect x="34" y="374" width="34" height="34" fill="#6666CC" /><rect x="68" y="374" width="34" height="34" fill="#6666CC" /><rect x="102" y="374" width="34" height="34" fill="#6666CC" /><rect x="136" y="374" width="34" height="34" fill="#6666CC" /><rect x="170" y="374" width="34" height="34" fill="#6666CC" /><rect x="204" y="374" width="34" height="34" fill="#6666CC" /><rect x="238" y="374" width="34" height="34" fill="#6666CC" /><rect x="272" y="374" width="34" height="34" fill="#6666CC" /><rect x="306" y="374" width="34" height="34" fill="#6666CC" /><rect x="340" y="374" width="34" height="34" fill="#6666CC" /><rect x="374" y="374" width="34" height="34" fill="#6666CC" /><rect x="408" y="374" width="34" height="34" fill="#FFFF99" /><rect x="442" y="374" width="34" height="34" fill="#FFFF99" /><rect x="476" y="374" width="34" height="34" fill="#FFFF99" /><rect x="510" y="374" width="34" height="34" fill="#FFFF99" /><rect x="544" y="374" width="34" height="34" fill="#FFFF99" /><rect x="578" y="374" width="34" height="34" fill="#FFFF99" /><rect x="612" y="374" width="34" height="34" fill="#FFFF99" /><rect x="646" y="374" width="34" height="34" fill="#FFFF99" /><rect x="680" y="374" width="34" height="34" fill="#FFFF99" /><rect x="714" y="374" width="34" height="34" fill="#FFFF99" /><rect x="748" y="374" width="34" height="34" fill="#FFFF99" /><rect x="0" y="408" width="34" height="34" fill="#FFFF99" /><rect x="34" y="408" width="34" height="34" fill="#FFFF99" /><rect x="68" y="408" width="34" height="34" fill="#FFFF99" /><rect x="102" y="408" width="34" height="34" fill="#FFFF99" /><rect x="136" y="408" width="34" height="34" fill="#FFFF99" /><rect x="170" y="408" width="34" height="34" fill="#FFFF99" /><rect x="204" y="408" width="34" height="34" fill="#FFFF99" /><rect x="238" y="408" width="34" height="34" fill="#FFFF99" /><rect x="272" y="408" width="34" height="34" fill="#FFFF99" /><rect x="306" y="408" width="34" height="34" fill="#FFFF99" /><rect x="340" y="408" width="34" height="34" fill="#FFFF99" /><rect x="374" y="408" width="34" height="34" fill="#FFFF99" /><rect x="408" y="408" width="34" height="34" fill="#FFFF99" /><rect x="442" y="408" width="34" height="34" fill="none" /><rect x="476" y="408" width="34" height="34" fill="none" /><rect x="510" y="408" width="34" height="34" fill="none" /><rect x="544" y="408" width="34" height="34" fill="none" /><rect x="578" y="408" width="34" height="34" fill="none" /><rect x="612" y="408" width="34" height="34" fill="none" /><rect x="646" y="408" width="34" height="34" fill="none" /><rect x="680" y="408" width="34" height="34" fill="none" /><rect x="714" y="408" width="34" height="34" fill="none" /><rect x="748" y="408" width="34" height="34" fill="#66FF66" /><rect x="0" y="442" width="34" height="34" fill="#66FF66" /><rect x="34" y="442" width="34" height="34" fill="#66FF66" /><rect x="68" y="442" width="34" height="34" fill="#66FF66" /><rect x="102" y="442" width="34" height="34" fill="#66FF66" /><rect x="136" y="442" width="34" height="34" fill="#66FF66" /><rect x="170" y="442" width="34" height="34" fill="#66FF66" /><rect x="204" y="442" width="34" height="34" fill="#66FF66" /><rect x="238" y="442" width="34" height="34" fill="#66FF66" /><rect x="272" y="442" width="34" height="34" fill="#66FF66" /><rect x="306" y="442" width="34" height="34" fill="#66FF66" /><rect x="340" y="442" width="34" height="34" fill="#66FF66" /><rect x="374" y="442" width="34" height="34" fill="#66FF66" /><rect x="408" y="442" width="34" height="34" fill="#66FF66" /><rect x="442" y="442" width="34" height="34" fill="#66FF66" /><rect x="476" y="442" width="34" height="34" fill="#66FF66" /><rect x="510" y="442" width="34" height="34" fill="#66FF66" /><rect x="544" y="442" width="34" height="34" fill="none" /><rect x="578" y="442" width="34" height="34" fill="none" /><rect x="612" y="442" width="34" height="34" fill="none" /><rect x="646" y="442" width="34" height="34" fill="none" /><rect x="680" y="442" width="34" height="34" fill="none" /><rect x="714" y="442" width="34" height="34" fill="none" /><rect x="748" y="442" width="34" height="34" fill="none" /><rect x="0" y="476" width="34" height="34" fill="none" /><rect x="34" y="476" width="34" height="34" fill="none" /><rect x="68" y="476" width="34" height="34" fill="none" /><rect x="102" y="476" width="34" height="34" fill="none" /><rect x="136" y="476" width="34" height="34" fill="none" /><rect x="170" y="476" width="34" height="34" fill="none" /><rect x="204" y="476" width="34" height="34" fill="none" /><rect x="238" y="476" width="34" height="34" fill="none" /><rect x="272" y="476" width="34" height="34" fill="none" /><rect x="306" y="476" width="34" height="34" fill="none" /><rect x="340" y="476" width="34" height="34" fill="none" /><rect x="374" y="476" width="34" height="34" fill="none" /><rect x="408" y="476" width="34" height="34" fill="none" /><rect x="442" y="476" width="34" height="34" fill="none" /><rect x="476" y="476" width="34" height="34" fill="#FF6600" /><rect x="510" y="476" width="34" height="34" fill="#FF6600" /><rect x="544" y="476" width="34" height="34" fill="#FF6600" /><rect x="578" y="476" width="34" height="34" fill="#FF6600" /><rect x="612" y="476" width="34" height="34" fill="#FF6600" /><rect x="646" y="476" width="34" height="34" fill="#FF6600" /><rect x="680" y="476" width="34" height="34" fill="#FF6600" /><rect x="714" y="476" width="34" height="34" fill="#FF6600" /><rect x="748" y="476" width="34" height="34" fill="#6666CC" /><rect x="0" y="510" width="34" height="34" fill="#6666CC" /><rect x="34" y="510" width="34" height="34" fill="#6666CC" /><rect x="68" y="510" width="34" height="34" fill="#6666CC" /><rect x="102" y="510" width="34" height="34" fill="#6666CC" /><rect x="136" y="510" width="34" height="34" fill="#6666CC" /><rect x="170" y="510" width="34" height="34" fill="#6666CC" /><rect x="204" y="510" width="34" height="34" fill="#6666CC" /><rect x="238" y="510" width="34" height="34" fill="none" /><rect x="272" y="510" width="34" height="34" fill="none" /><rect x="306" y="510" width="34" height="34" fill="none" /><rect x="340" y="510" width="34" height="34" fill="none" /><rect x="374" y="510" width="34" height="34" fill="none" /><rect x="408" y="510" width="34" height="34" fill="none" /><rect x="442" y="510" width="34" height="34" fill="none" /><rect x="476" y="510" width="34" height="34" fill="none" /><rect x="510" y="510" width="34" height="34" fill="none" /><rect x="544" y="510" width="34" height="34" fill="none" /><rect x="578" y="510" width="34" height="34" fill="none" /><rect x="612" y="510" width="34" height="34" fill="none" /><rect x="646" y="510" width="34" height="34" fill="none" /><rect x="680" y="510" width="34" height="34" fill="none" /><rect x="714" y="510" width="34" height="34" fill="none" /><rect x="748" y="510" width="34" height="34" fill="none" /><rect x="0" y="544" width="34" height="34" fill="none" /><rect x="34" y="544" width="34" height="34" fill="none" /><rect x="68" y="544" width="34" height="34" fill="none" /><rect x="102" y="544" width="34" height="34" fill="none" /><rect x="136" y="544" width="34" height="34" fill="none" /><rect x="170" y="544" width="34" height="34" fill="none" /><rect x="204" y="544" width="34" height="34" fill="none" /><rect x="238" y="544" width="34" height="34" fill="none" /><rect x="272" y="544" width="34" height="34" fill="none" /><rect x="306" y="544" width="34" height="34" fill="none" /><rect x="340" y="544" width="34" height="34" fill="none" /><rect x="374" y="544" width="34" height="34" fill="none" /><rect x="408" y="544" width="34" height="34" fill="none" /><rect x="442" y="544" width="34" height="34" fill="none" /><rect x="476" y="544" width="34" height="34" fill="none" /><rect x="510" y="544" width="34" height="34" fill="none" /><rect x="544" y="544" width="34" height="34" fill="none" /><rect x="578" y="544" width="34" height="34" fill="none" /><rect x="612" y="544" width="34" height="34" fill="none" /><rect x="646" y="544" width="34" height="34" fill="none" /><rect x="680" y="544" width="34" height="34" fill="#FFFF99" /><rect x="714" y="544" width="34" height="34" fill="#FFFF99" /><rect x="748" y="544" width="34" height="34" fill="#FFFF99" /><rect x="0" y="578" width="34" height="34" fill="#FFFF99" /><rect x="34" y="578" width="34" height="34" fill="#66FF66" /><rect x="68" y="578" width="34" height="34" fill="#66FF66" /><rect x="102" y="578" width="34" height="34" fill="#66FF66" /><rect x="136" y="578" width="34" height="34" fill="#66FF66" /><rect x="170" y="578" width="34" height="34" fill="#66FF66" /><rect x="204" y="578" width="34" height="34" fill="#66FF66" /><rect x="238" y="578" width="34" height="34" fill="#66FF66" /><rect x="272" y="578" width="34" height="34" fill="#66FF66" /><rect x="306" y="578" width="34" height="34" fill="none" /><rect x="340" y="578" width="34" height="34" fill="none" /><rect x="374" y="578" width="34" height="34" fill="none" /><rect x="408" y="578" width="34" height="34" fill="none" /><rect x="442" y="578" width="34" height="34" fill="none" /><rect x="476" y="578" width="34" height="34" fill="none" /><rect x="510" y="578" width="34" height="34" fill="none" /><rect x="544" y="578" width="34" height="34" fill="none" /><rect x="578" y="578" width="34" height="34" fill="none" /><rect x="612" y="578" width="34" height="34" fill="none" /><rect x="646" y="578" width="34" height="34" fill="none" /><rect x="680" y="578" width="34" height="34" fill="none" /><rect x="714" y="578" width="34" height="34" fill="none" /><rect x="748" y="578" width="34" height="34" fill="none" /><rect x="0" y="612" width="34" height="34" fill="#FF6600" /><rect x="34" y="612" width="34" height="34" fill="#FF6600" /><rect x="68" y="612" width="34" height="34" fill="#FF6600" /><rect x="102" y="612" width="34" height="34" fill="none" /><rect x="136" y="612" width="34" height="34" fill="none" /><rect x="170" y="612" width="34" height="34" fill="none" /><rect x="204" y="612" width="34" height="34" fill="none" /><rect x="238" y="612" width="34" height="34" fill="none" /><rect x="272" y="612" width="34" height="34" fill="none" /><rect x="306" y="612" width="34" height="34" fill="none" /><rect x="340" y="612" width="34" height="34" fill="none" /><rect x="374" y="612" width="34" height="34" fill="none" /><rect x="408" y="612" width="34" height="34" fill="none" /><rect x="442" y="612" width="34" height="34" fill="none" /><rect x="476" y="612" width="34" height="34" fill="#6666CC" /><rect x="510" y="612" width="34" height="34" fill="#6666CC" /><rect x="544" y="612" width="34" height="34" fill="#6666CC" /><rect x="578" y="612" width="34" height="34" fill="#FFFF99" /><rect x="612" y="612" width="34" height="34" fill="#FFFF99" /><rect x="646" y="612" width="34" height="34" fill="#FFFF99" /><rect x="680" y="612" width="34" height="34" fill="#FFFF99" /><rect x="714" y="612" width="34" height="34" fill="#FFFF99" /><rect x="748" y="612" width="34" height="34" fill="#FFFF99" /><rect x="0" y="646" width="34" height="34" fill="#FFFF99" /><rect x="34" y="646" width="34" height="34" fill="none" /><rect x="68" y="646" width="34" height="34" fill="none" /><rect x="102" y="646" width="34" height="34" fill="none" /><rect x="136" y="646" width="34" height="34" fill="none" /><rect x="170" y="646" width="34" height="34" fill="none" /><rect x="204" y="646" width="34" height="34" fill="none" /><rect x="238" y="646" width="34" height="34" fill="none" /><rect x="272" y="646" width="34" height="34" fill="none" /><rect x="306" y="646" width="34" height="34" fill="none" /><rect x="340" y="646" width="34" height="34" fill="none" /><rect x="374" y="646" width="34" height="34" fill="none" /><rect x="408" y="646" width="34" height="34" fill="none" /><rect x="442" y="646" width="34" height="34" fill="none" /><rect x="476" y="646" width="34" height="34" fill="none" /><rect x="510" y="646" width="34" height="34" fill="none" /><rect x="544" y="646" width="34" height="34" fill="none" /><rect x="578" y="646" width="34" height="34" fill="none" /><rect x="612" y="646" width="34" height="34" fill="none" /><rect x="646" y="646" width="34" height="34" fill="none" /><rect x="680" y="646" width="34" height="34" fill="none" /><rect x="714" y="646" width="34" height="34" fill="none" /><rect x="748" y="646" width="34" height="34" fill="none" /><rect x="0" y="680" width="34" height="34" fill="none" /><rect x="34" y="680" width="34" height="34" fill="none" /><rect x="68" y="680" width="34" height="34" fill="none" /><rect x="102" y="680" width="34" height="34" fill="none" /><rect x="136" y="680" width="34" height="34" fill="#6666CC" /><rect x="170" y="680" width="34" height="34" fill="none" /><rect x="204" y="680" width="34" height="34" fill="none" /><rect x="238" y="680" width="34" height="34" fill="#6666CC" /><rect x="272" y="680" width="34" height="34" fill="#6666CC" /><rect x="306" y="680" width="34" height="34" fill="none" /><rect x="340" y="680" width="34" height="34" fill="none" /><rect x="374" y="680" width="34" height="34" fill="none" /><rect x="408" y="680" width="34" height="34" fill="none" /><rect x="442" y="680" width="34" height="34" fill="none" /><rect x="476" y="680" width="34" height="34" fill="none" /><rect x="510" y="680" width="34" height="34" fill="none" /><rect x="544" y="680" width="34" height="34" fill="none" /><rect x="578" y="680" width="34" height="34" fill="none" /><rect x="612" y="680" width="34" height="34" fill="none" /><rect x="646" y="680" width="34" height="34" fill="none" /><rect x="680" y="680" width="34" height="34" fill="none" /><rect x="714" y="680" width="34" height="34" fill="none" /><rect x="748" y="680" width="34" height="34" fill="none" /><rect x="0" y="714" width="34" height="34" fill="none" /><rect x="34" y="714" width="34" height="34" fill="none" /><rect x="68" y="714" width="34" height="34" fill="none" /><rect x="102" y="714" width="34" height="34" fill="none" /><rect x="136" y="714" width="34" height="34" fill="none" /><rect x="170" y="714" width="34" height="34" fill="none" /><rect x="204" y="714" width="34" height="34" fill="none" /><rect x="238" y="714" width="34" height="34" fill="none" /><rect x="272" y="714" width="34" height="34" fill="none" /><rect x="306" y="714" width="34" height="34" fill="none" /><rect x="340" y="714" width="34" height="34" fill="none" /><rect x="374" y="714" width="34" height="34" fill="none" /><rect x="408" y="714" width="34" height="34" fill="none" /><rect x="442" y="714" width="34" height="34" fill="none" /><rect x="476" y="714" width="34" height="34" fill="none" /><rect x="510" y="714" width="34" height="34" fill="none" /><rect x="544" y="714" width="34" height="34" fill="none" /></svg>