<?xml version="1.0" encoding="UTF-8"?>
<svg xmlns="http://www.w3.org/2000/svg" version="1.1" height="800" width="800"><rect x="0" y="0" width="800" height="800" fill="rgb(192,192,192)" /><rect x="0" y="0" width="40" height="40" fill="none" /><rect x="40" y="0" width="40" height="40" fill="none" /><rect x="80" y="0" width="40" height="40" fill="none" /><rect x="120" y="0" width="40" height="40" fill="none" /><rect x="160" y="0" width="40" height="40" fill="none" /><rect x="200" y="0" width="40" height="40" fill="none" /><rect x="240" y="0" width="40" height="40" fill="none" /><rect x="280" y="0" width="40" height="40" fill="none" /><rect x="320" y="0" width="40" height="40" fill="none" /><rect x="360" y="0" width="40" height="40" fill="none" /><rect x="400" y="0" width="40" height="40" fill="none" /><rect x="440" y="0" width="40" height="40" fill="none" /><rect x="480" y="0" width="40" height="40" fill="none" /><rect x="520" y="0" width="40" height="40" fill="none" /><rect x="560" y="0" width="40" height="40" fill="none" /><rect x="600" y="0" width="40" height="40" fill="none" /><rect x="640" y="0" width="40" height="40" fill="none" /><rect x="680" y="0" width="40" height="40" fill="none" /><rect x="720" y="0" width="40" height="40" fill="none" /><rect x="760" y="0" width="40" height="40" fill="none" /><rect x="0" y="40" width="40" height="40" fill="none" /><rect x="40" y="40" width="40" height="40" fill="none" /><rect x="80" y="40" width="40" height="40" fill="none" /><rect x="120" y="40" width="40" height="40" fill="none" /><rect x="160" y="40" width="40" height="40" fill="none" /><rect x="200" y="40" width="40" height="40" fill="none" /><rect x="240" y="40" width="40" height="40" fill="none" /><rect x="280" y="40" width="40" height="40" fill="none" /><rect x="320" y="40" width="40" height="40" fill="none" /><rect x="360" y="40" width="40" height="40" fill="none" /><rect x="400" y="40" width="40" height="40" fill="none" /><rect x="440" y="40" width="40" height="40" fill="none" /><rect x="480" y="40" width="40" height="40" fill="none" /><rect x="520" y="40" width="40" height="40" fill="none" /><rect x="560" y="40" width="40" height="40" fill="none" /><rect x="600" y="40" width="40" height="40" fill="none" /><rect x="640" y="40" width="40" height="40" fill="none" /><rect x="680" y="40" width="40" height="40" fill="none" /><rect x="720" y="40" width="40" height="40" fill="none" /><rect x="760" y="40" width="40" height="40" fill="none" /><rect x="0" y="80" width="40" height="40" fill="none" /><rect x="40" y="80" width="40" height="40" fill="none" /><rect x="80" y="80" width="40" height="40" fill="none" /><rect x="120" y="80" width="40" height="40" fill="none" /><rect x="160" y="80" width="40" height="40" fill="none" /><rect x="200" y="80" width="40" height="40" fill="none" /><rect x="240" y="80" width="40" height="40" fill="none" /><rect x="280" y="80" width="40" height="40" fill="none" /><rect x="320" y="80" width="40" height="40" fill="none" /><rect x="360" y="80" width="40" height="40" fill="none" /><rect x="400" y="80" width="40" height="40" fill="none" /><rect x="440" y="80" width="40" height="40" fill="none" /><rect x="480" y="80" width="40" height="40" fill="none" /><rect x="520" y="80" width="40" height="40" fill="none" /><rect x="560" y="80" width="40" height="40" fill="none" /><rect x="600" y="80" width="40" height="40" fill="none" /><rect x="640" y="80" width="40" height="40" fill="none" /><rect x="680" y="80" width="40" height="40" fill="none" /><rect x="720" y="80" width="40" height="40" fill="none" /><rect x="760" y="80" width="40" height="40" fill="none" /><rect x="0" y="120" width="40" height="40" fill="none" /><rect x="40" y="120" width="40" height="40" fill="none" /><rect x="80" y="120" width="40" height="40" fill="none" /><rect x="120" y="120" width="40" height="40" fill="none" /><rect x="160" y="120" width="40" height="40" fill="none" /><rect x="200" y="120" width="40" height="40" fill="none" /><rect x="240" y="120" width="40" height="40" fill="none" /><rect x="280" y="120" width="40" height="40" fill="none" /><rect x="320" y="120" width="40" height="40" fill="none" /><rect x="360" y="120" width="40" height="40" fill="none" /><rect x="400" y="120" width="40" height="40" fill="none" /><rect x="440" y="120" width="40" height="40" fill="none" /><rect x="480" y="120" width="40" height="40" fill="none" /><rect x="520" y="120" width="40" height="40" fill="none" /><rect x="560" y="120" width="40" height="40" fill="none" /><rect x="600" y="120" width="40" height="40" fill="none" /><rect x="640" y="120" width="40" height="40" fill="none" /><rect x="680" y="120" width="40" height="40" fill="none" /><rect x="720" y="120" width="40" height="40" fill="none" /><rect x="760" y="120" width="40" height="40" fill="none" /><rect x="0" y="160" width="40" height="40" fill="none" /><rect x="40" y="160" width="40" height="40" fill="none" /><rect x="80" y="160" width="40" height="40" fill="none" /><rect x="120" y="160" width="40" height="40" fill="none" /><rect x="160" y="160" width="40" height="40" fill="none" /><rect x="200" y="160" width="40" height="40" fill="none" /><rect x="240" y="160" width="40" height="40" fill="none" /><rect x="280" y="160" width="40" height="40" fill="none" /><rect x="320" y="160" width="40" height="40" fill="none" /><rect x="360" y="160" width="40" height="40" fill="none" /><rect x="400" y="160" width="40" height="40" fill="none" /><rect x="440" y="160" width="40" height="40" fill="none" /><rect x="480" y="160" width="40" height="40" fill="none" /><rect x="520" y="160" width="40" height="40" fill="none" /><rect x="560" y="160" width="40" height="40" fill="none" /><rect x="600" y="160" width="40" height="40" fill="none" /><rect x="640" y="160" width="40" height="40" fill="none" /><rect x="680" y="160" width="40" height="40" fill="none" /><rect x="720" y="160" width="40" height="40" fill="none" /><rect x="760" y="160" width="40" height="40" fill="none" /><rect x="0" y="200" width="40" height="40" fill="none" /><rect x="40" y="200" width="40" height="40" fill="none" /><rect x="80" y="200" width="40" height="40" fill="none" /><rect x="120" y="200" width="40" height="40" fill="none" /><rect x="160" y="200" width="40" height="40" fill="none" /><rect x="200" y="200" width="40" height="40" fill="none" /><rect x="240" y="200" width="40" height="40" fill="none" /><rect x="280" y="200" width="40" height="40" fill="none" /><rect x="320" y="200" width="40" height="40" fill="none" /><rect x="360" y="200" width="40" height="40" fill="none" /><rect x="400" y="200" width="40" height="40" fill="none" /><rect x="440" y="200" width="40" height="40" fill="none" /><rect x="480" y="200" width="40" height="40" fill="none" /><rect x="520" y="200" width="40" height="40" fill="none" /><rect x="560" y="200" width="40" height="40" fill="none" /><rect x="600" y="200" width="40" height="40" fill="none" /><rect x="640" y="200" width="40" height="40" fill="none" /><rect x="680" y="200" width="40" height="40" fill="none" /><rect x="720" y="200" width="40" height="40" fill="none" /><rect x="760" y="200" width="40" height="40" fill="none" /><rect x="0" y="240" width="40" height="40" fill="none" /><rect x="40" y="240" width="40" height="40" fill="none" /><rect x="80" y="240" width="40" height="40" fill="none" /><rect x="120" y="240" width="40" height="40" fill="none" /><rect x="160" y="240" width="40" height="40" fill="none" /><rect x="200" y="240" width="40" height="40" fill="none" /><rect x="240" y="240" width="40" height="40" fill="none" /><rect x="280" y="240" width="40" height="40" fill="none" /><rect x="320" y="240" width="40" height="40" fill="none" /><rect x="360" y="240" width="40" height="40" fill="none" /><rect x="400" y="240" width="40" height="40" fill="none" /><rect x="440" y="240" width="40" height="40" fill="none" /><rect x="480" y="240" width="40" height="40" fill="none" /><rect x="520" y="240" width="40" height="40" fill="none" /><rect x="560" y="240" width="40" height="40" fill="none" /><rect x="600" y="240" width="40" height="40" fill="none" /><rect x="640" y="240" width="40" height="40" fill="none" /><rect x="680" y="240" width="40" height="40" fill="none" /><rect x="720" y="240" width="40" height="40" fill="none" /><rect x="760" y="240" width="40" height="40" fill="none" /><rect x="0" y="280" width="40" height="40" fill="none" /><rect x="40" y="280" width="40" height="40" fill="none" /><rect x="80" y="280" width="40" height="40" fill="none" /><rect x="120" y="280" width="40" height="40" fill="none" /><rect x="160" y="280" width="40" height="40" fill="none" /><rect x="200" y="280" width="40" height="40" fill="none" /><rect x="240" y="280" width="40" height="40" fill="none" /><rect x="280" y="280" width="40" height="40" fill="none" /><rect x="320" y="280" width="40" height="40" fill="none" /><rect x="360" y="280" width="40" height="40" fill="none" /><rect x="400" y="280" width="40" height="40" fill="none" /><rect x="440" y="280" width="40" height="40" fill="none" /><rect x="480" y="280" width="40" height="40" fill="none" /><rect x="520" y="280" width="40" height="40" fill="none" /><rect x="560" y="280" width="40" height="40" fill="none" /><rect x="600" y="280" width="40" height="40" fill="none" /><rect x="640" y="280" width="40" height="40" fill="none" /><rect x="680" y="280" width="40" height="40" fill="none" /><rect x="720" y="280" width="40" height="40" fill="none" /><rect x="760" y="280" width="40" height="40" fill="none" /><rect x="0" y="320" width="40" height="40" fill="none" /><rect x="40" y="320" width="40" height="40" fill="none" /><rect x="80" y="320" width="40" height="40" fill="none" /><rect x="120" y="320" width="40" height="40" fill="none" /><rect x="160" y="320" width="40" height="40" fill="none" /><rect x="200" y="320" width="40" height="40" fill="none" /><rect x="240" y="320" width="40" height="40" fill="none" /><rect x="280" y="320" width="40" height="40" fill="none" /><rect x="320" y="320" width="40" height="40" fill="none" /><rect x="360" y="320" width="40" height="40" fill="none" /><rect x="400" y="320" width="40" height="40" fill="none" /><rect x="440" y="320" width="40" height="40" fill="none" /><rect x="480" y="320" width="40" height="40" fill="none" /><rect x="520" y="320" width="40" height="40" fill="none" /><rect x="560" y="320" width="40" height="40" fill="none" /><rect x="600" y="320" width="40" height="40" fill="none" /><rect x="640" y="320" width="40" height="40" fill="none" /><rect x="680" y="320" width="40" height="40" fill="none" /><rect x="720" y="320" width="40" height="40" fill="none" /><rect x="760" y="320" width="40" height="40" fill="none" /><rect x="0" y="360" width="40" height="40" fill="none" /><rect x="40" y="360" width="40" height="40" fill="none" /><rect x="80" y="360" width="40" height="40" fill="none" /><rect x="120" y="360" width="40" height="40" fill="none" /><rect x="160" y="360" width="40" height="40" fill="none" /><rect x="200" y="360" width="40" height="40" fill="none" /><rect x="240" y="360" width="40" height="40" fill="none" /><rect x="280" y="360" width="40" height="40" fill="none" /><rect x="320" y="360" width="40" height="40" fill="none" /><rect x="360" y="360" width="40" height="40" fill="none" /><rect x="400" y="360" width="40" height="40" fill="none" /><rect x="440" y="360" width="40" height="40" fill="none" /><rect x="480" y="360" width="40" height="40" fill="none" /><rect x="520" y="360" width="40" height="40" fill="none" /><rect x="560" y="360" width="40" height="40" fill="none" /><rect x="600" y="360" width="40" height="40" fill="none" /><rect x="640" y="360" width="40" height="40" fill="none" /><rect x="680" y="360" width="40" height="40" fill="none" /><rect x="720" y="360" width="40" height="40" fill="none" /><rect x="760" y="360" width="40" height="40" fill="none" /><rect x="0" y="400" width="40" height="40" fill="none" /><rect x="40" y="400" width="40" height="40" fill="none" /><rect x="80" y="400" width="40" height="40" fill="none" /><rect x="120" y="400" width="40" height="40" fill="none" /><rect x="160" y="400" width="40" height="40" fill="none" /><rect x="200" y="400" width="40" height="40" fill="none" /><rect x="240" y="400" width="40" height="40" fill="none" /><rect x="280" y="400" width="40" height="40" fill="none" /><rect x="320" y="400" width="40" height="40" fill="none" /><rect x="360" y="400" width="40" height="40" fill="none" /><rect x="400" y="400" width="40" height="40" fill="none" /><rect x="440" y="400" width="40" height="40" fill="none" /><rect x="480" y="400" width="40" height="40" fill="none" /><rect x="520" y="400" width="40" height="40" fill="none" /><rect x="560" y="400" width="40" height="40" fill="none" /><rect x="600" y="400" width="40" height="40" fill="none" /><rect x="640" y="400" width="40" height="40" fill="none" /><rect x="680" y="400" width="40" height="40" fill="none" /><rect x="720" y="400" width="40" height="40" fill="none" /><rect x="760" y="400" width="40" height="40" fill="none" /><rect x="0" y="440" width="40" height="40" fill="none" /><rect x="40" y="440" width="40" height="40" fill="none" /><rect x="80" y="440" width="40" height="40" fill="none" /><rect x="120" y="440" width="40" height="40" fill="none" /><rect x="160" y="440" width="40" height="40" fill="none" /><rect x="200" y="440" width="40" height="40" fill="none" /><rect x="240" y="440" width="40" height="40" fill="none" /><rect x="280" y="440" width="40" height="40" fill="none" /><rect x="320" y="440" width="40" height="40" fill="none" /><rect x="360" y="440" width="40" height="40" fill="none" /><rect x="400" y="440" width="40" height="40" fill="none" /><rect x="440" y="440" width="40" height="40" fill="none" /><rect x="480" y="440" width="40" height="40" fill="none" /><rect x="520" y="440" width="40" height="40" fill="none" /><rect x="560" y="440" width="40" height="40" fill="none" /><rect x="600" y="440" width="40" height="40" fill="none" /><rect x="640" y="440" width="40" height="40" fill="none" /><rect x="680" y="440" width="40" height="40" fill="none" /><rect x="720" y="440" width="40" height="40" fill="none" /><rect x="760" y="440" width="40" height="40" fill="none" /><rect x="0" y="480" width="40" height="40" fill="none" /><rect x="40" y="480" width="40" height="40" fill="none" /><rect x="80" y="480" width="40" height="40" fill="none" /><rect x="120" y="480" width="40" height="40" fill="none" /><rect x="160" y="480" width="40" height="40" fill="none" /><rect x="200" y="480" width="40" height="40" fill="none" /><rect x="240" y="480" width="40" height="40" fill="none" /><rect x="280" y="480" width="40" height="40" fill="none" /><rect x="320" y="480" width="40" height="40" fill="none" /><rect x="360" y="480" width="40" height="40" fill="none" /><rect x="400" y="480" width="40" height="40" fill="none" /><rect x="440" y="480" width="40" height="40" fill="none" /><rect x="480" y="480" width="40" height="40" fill="none" /><rect x="520" y="480" width="40" height="40" fill="none" /><rect x="560" y="480" width="40" height="40" fill="none" /><rect x="600" y="480" width="40" height="40" fill="none" /><rect x="640" y="480" width="40" height="40" fill="none" /><rect x="680" y="480" width="40" height="40" fill="none" /><rect x="720" y="480" width="40" height="40" fill="none" /><rect x="760" y="480" width="40" height="40" fill="none" /><rect x="0" y="520" width="40" height="40" fill="none" /><rect x="40" y="520" width="40" height="40" fill="none" /><rect x="80" y="520" width="40" height="40" fill="none" /><rect x="120" y="520" width="40" height="40" fill="none" /><rect x="160" y="520" width="40" height="40" fill="none" /><rect x="200" y="520" width="40" height="40" fill="none" /><rect x="240" y="520" width="40" height="40" fill="none" /><rect x="280" y="520" width="40" height="40" fill="none" /><rect x="320" y="520" width="40" height="40" fill="none" /><rect x="360" y="520" width="40" height="40" fill="none" /><rect x="400" y="520" width="40" height="40" fill="none" /><rect x="440" y="520" width="40" height="40" fill="none" /><rect x="480" y="520" width="40" height="40" fill="none" /><rect x="520" y="520" width="40" height="40" fill="none" /><rect x="560" y="520" width="40" height="40" fill="none" /><rect x="600" y="520" width="40" height="40" fill="none" /><rect x="640" y="520" width="40" height="40" fill="none" /><rect x="680" y="520" width="40" height="40" fill="none" /><rect x="720" y="520" width="40" height="40" fill="none" /><rect x="760" y="520" width="40" height="40" fill="none" /><rect x="0" y="560" width="40" height="40" fill="none" /><rect x="40" y="560" width="40" height="40" fill="none" /><rect x="80" y="560" width="40" height="40" fill="none" /><rect x="120" y="560" width="40" height="40" fill="none" /><rect x="160" y="560" width="40" height="40" fill="none" /><rect x="200" y="560" width="40" height="40" fill="none" /><rect x="240" y="560" width="40" height="40" fill="none" /><rect x="280" y="560" width="40" height="40" fill="none" /><rect x="320" y="560" width="40" height="40" fill="none" /><rect x="360" y="560" width="40" height="40" fill="none" /><rect x="400" y="560" width="40" height="40" fill="none" /><rect x="440" y="560" width="40" height="40" fill="none" /><rect x="480" y="560" width="40" height="40" fill="none" /><rect x="520" y="560" width="40" height="40" fill="none" /><rect x="560" y="560" width="40" height="40" fill="none" /><rect x="600" y="560" width="40" height="40" fill="none" /><rect x="640" y="560" width="40" height="40" fill="none" /><rect x="680" y="560" width="40" height="40" fill="none" /><rect x="720" y="560" width="40" height="40" fill="none" /><rect x="760" y="560" width="40" height="40" fill="none" /><rect x="0" y="600" width="40" height="40" fill="none" /><rect x="40" y="600" width="40" height="40" fill="none" /><rect x="80" y="600" width="40" height="40" fill="none" /><rect x="120" y="600" width="40" height="40" fill="none" /><rect x="160" y="600" width="40" height="40" fill="none" /><rect x="200" y="600" width="40" height="40" fill="none" /><rect x="240" y="600" width="40" height="40" fill="none" /><rect x="280" y="600" width="40" height="40" fill="none" /><rect x="320" y="600" width="40" height="40" fill="none" /><rect x="360" y="600" width="40" height="40" fill="none" /><rect x="400" y="600" width="40" height="40" fill="none" /><rect x="440" y="600" width="40" height="40" fill="none" /><rect x="480" y="600" width="40" height="40" fill="none" /><rect x="520" y="600" width="40" height="40" fill="none" /><rect x="560" y="600" width="40" height="40" fill="none" /><rect x="600" y="600" width="40" height="40" fill="none" /><rect x="640" y="600" width="40" height="40" fill="none" /><rect x="680" y="600" width="40" height="40" fill="none" /><rect x="720" y="600" width="40" height="40" fill="none" /><rect x="760" y="600" width="40" height="40" fill="none" /><rect x="0" y="640" width="40" height="40" fill="none" /><rect x="40" y="640" width="40" height="40" fill="none" /><rect x="80" y="640" width="40" height="40" fill="none" /><rect x="120" y="640" width="40" height="40" fill="none" /><rect x="160" y="640" width="40" height="40" fill="none" /><rect x="200" y="640" width="40" height="40" fill="none" /><rect x="240" y="640" width="40" height="40" fill="none" /><rect x="280" y="640" width="40" height="40" fill="none" /><rect x="320" y="640" width="40" height="40" fill="none" /><rect x="360" y="640" width="40" height="40" fill="none" /><rect x="400" y="640" width="40" height="40" fill="none" /><rect x="440" y="640" width="40" height="40" fill="none" /><rect x="480" y="640" width="40" height="40" fill="none" /><rect x="520" y="640" width="40" height="40" fill="none" /><rect x="560" y="640" width="40" height="40" fill="none" /><rect x="600" y="640" width="40" height="40" fill="none" /><rect x="640" y="640" width="40" height="40" fill="none" /><rect x="680" y="640" width="40" height="40" fill="none" /><rect x="720" y="640" width="40" height="40" fill="none" /><rect x="760" y="640" width="40" height="40" fill="none" /><rect x="0" y="680" width="40" height="40" fill="none" /><rect x="40" y="680" width="40" height="40" fill="none" /><rect x="80" y="680" width="40" height="40" fill="none" /><rect x="120" y="680" width="40" height="40" fill="none" /><rect x="160" y="680" width="40" height="40" fill="none" /><rect x="200" y="680" width="40" height="40" fill="none" /><rect x="240" y="680" width="40" height="40" fill="none" /><rect x="280" y="680" width="40" height="40" fill="none" /><rect x="320" y="680" width="40" height="40" fill="none" /><rect x="360" y="680" width="40" height="40" fill="none" /><rect x="400" y="680" width="40" height="40" fill="none" /><rect x="440" y="680" width="40" height="40" fill="none" /><rect x="480" y="680" width="40" height="40" fill="none" /><rect x="520" y="680" width="40" height="40" fill="none" /><rect x="560" y="680" width="40" height="40" fill="none" /><rect x="600" y="680" width="40" height="40" fill="none" /><rect x="640" y="680" width="40" height="40" fill="none" /><rect x="680" y="680" width="40" height="40" fill="none" /><rect x="720" y="680" width="40" height="40" fill="none" /><rect x="760" y="680" width="40" height="40" fill="none" /><rect x="0" y="720" width="40" height="40" fill="none" /><rect x="40" y="720" width="40" height="40" fill="none" /><rect x="80" y="720" width="40" height="40" fill="none" /><rect x="120" y="720" width="40" height="40" fill="none" /><rect x="160" y="720" width="40" height="40" fill="none" /><rect x="200" y="720" width="40" height="40" fill="none" /><rect x="240" y="720" width="40" height="40" fill="none" /><rect x="280" y="720" width="40" height="40" fill="none" /><rect x="320" y="720" width="40" height="40" fill="none" /><rect x="360" y="720" width="40" height="40" fill="none" /><rect x="400" y="720" width="40" height="40" fill="none" /><rect x="440" y="720" width="40" height="40" fill="none" /><rect x="480" y="720" width="40" height="40" fill="none" /><rect x="520" y="720" width="40" height="40" fill="none" /></svg>