<?xml version="1.0" encoding="UTF-8"?>
<svg xmlns="http://www.w3.org/2000/svg" version="1.1" height="800" width="800"><rect x="0" y="0" width="800" height="800" fill="rgb(192,192,192)" /><rect x="0" y="0" width="200" height="200" fill="none" /><rect x="200" y="0" width="200" height="200" fill="none" /><rect x="400" y="0" width="200" height="200" fill="none" /><rect x="600" y="0" width="200" height="200" fill="none" /><rect x="0" y="200" width="200" height="200" fill="none" /><rect x="200" y="200" width="200" height="200" fill="none" /><rect x="400" y="200" width="200" height="200" fill="#FF6600" /><rect x="600" y="200" width="200" height="200" fill="#FF6600" /><rect x="0" y="400" width="200" height="200" fill="#FF6600" /><rect x="200" y="400" width="200" height="200" fill="none" /><rect x="400" y="400" width="200" height="200" fill="none" /><rect x="600" y="400" width="200" height="200" fill="none" /><rect x="0" y="600" width="200" height="200" fill="none" /><rect x="200" y="600" width="200" height="200" fill="none" /></svg>