<?xml version="1.0" encoding="UTF-8"?>
<svg xmlns="http://www.w3.org/2000/svg" version="1.1" height="800" width="800"><rect x="0" y="0" width="800" height="800" fill="rgb(192,192,192)" /><rect x="0" y="0" width="133" height="133" fill="none" /><rect x="133" y="0" width="133" height="133" fill="none" /><rect x="266" y="0" width="133" height="133" fill="#FF6600" /><rect x="399" y="0" width="133" height="133" fill="#FF6600" /><rect x="532" y="0" width="133" height="133" fill="#FF6600" /><rect x="665" y="0" width="133" height="133" fill="#FF6600" /><rect x="0" y="133" width="133" height="133" fill="#FF6600" /><rect x="133" y="133" width="133" height="133" fill="#FF6600" /><rect x="266" y="133" width="133" height="133" fill="#FF6600" /><rect x="399" y="133" width="133" height="133" fill="#FF6600" /><rect x="532" y="133" width="133" height="133" fill="#FF6600" /><rect x="665" y="133" width="133" height="133" fill="#FF6600" /><rect x="0" y="266" width="133" height="133" fill="#FF6600" /><rect x="133" y="266" width="133" height="133" fill="#FF6600" /><rect x="266" y="266" width="133" height="133" fill="#FF6600" /><rect x="399" y="266" width="133" height="133" fill="#FF6600" /><rect x="532" y="266" width="133" height="133" fill="#FF6600" /><rect x="665" y="266" width="133" height="133" fill="#FF6600" /><rect x="0" y="399" width="133" height="133" fill="#FF6600" /><rect x="133" y="399" width="133" height="133" fill="#FF6600" /><rect x="266" y="399" width="133" height="133" fill="#FF6600" /><rect x="399" y="399" width="133" height="133" fill="#FF6600" /><rect x="532" y="399" width="133" height="133" fill="#FF6600" /><rect x="665" y="399" width="133" height="133" fill="#FF6600" /><rect x="0" y="532" width="133" height="133" fill="none" /><rect x="133" y="532" width="133" height="133" fill="none" /><rect x="266" y="532" width="133" height="133" fill="none" /><rect x="399" y="532" width="133" height="133" fill="none" /></svg>