<?xml version="1.0" encoding="UTF-8"?>
<svg xmlns="http://www.w3.org/2000/svg" version="1.1" height="800" width="800"><rect x="0" y="0" width="800" height="800" fill="rgb(192,192,192)" /><rect x="0" y="0" width="66" height="66" fill="none" /><rect x="66" y="0" width="66" height="66" fill="none" /><rect x="132" y="0" width="66" height="66" fill="none" /><rect x="198" y="0" width="66" height="66" fill="none" /><rect x="264" y="0" width="66" height="66" fill="none" /><rect x="330" y="0" width="66" height="66" fill="none" /><rect x="396" y="0" width="66" height="66" fill="none" /><rect x="462" y="0" width="66" height="66" fill="none" /><rect x="528" y="0" width="66" height="66" fill="none" /><rect x="594" y="0" width="66" height="66" fill="none" /><rect x="660" y="0" width="66" height="66" fill="none" /><rect x="726" y="0" width="66" height="66" fill="none" /><rect x="0" y="66" width="66" height="66" fill="none" /><rect x="66" y="66" width="66" height="66" fill="none" /><rect x="132" y="66" width="66" height="66" fill="none" /><rect x="198" y="66" width="66" height="66" fill="none" /><rect x="264" y="66" width="66" height="66" fill="none" /><rect x="330" y="66" width="66" height="66" fill="none" /><rect x="396" y="66" width="66" height="66" fill="none" /><rect x="462" y="66" width="66" height="66" fill="none" /><rect x="528" y="66" width="66" height="66" fill="none" /><rect x="594" y="66" width="66" height="66" fill="none" /><rect x="660" y="66" width="66" height="66" fill="none" /><rect x="726" y="66" width="66" height="66" fill="none" /><rect x="0" y="132" width="66" height="66" fill="none" /><rect x="66" y="132" width="66" height="66" fill="none" /><rect x="132" y="132" width="66" height="66" fill="none" /><rect x="198" y="132" width="66" height="66" fill="none" /><rect x="264" y="132" width="66" height="66" fill="none" /><rect x="330" y="132" width="66" height="66" fill="none" /><rect x="396" y="132" width="66" height="66" fill="none" /><rect x="462" y="132" width="66" height="66" fill="none" /><rect x="528" y="132" width="66" height="66" fill="none" /><rect x="594" y="132" width="66" height="66" fill="none" /><rect x="660" y="132" width="66" height="66" fill="none" /><rect x="726" y="132" width="66" height="66" fill="none" /><rect x="0" y="198" width="66" height="66" fill="none" /><rect x="66" y="198" width="66" height="66" fill="none" /><rect x="132" y="198" width="66" height="66" fill="none" /><rect x="198" y="198" width="66" height="66" fill="none" /><rect x="264" y="198" width="66" height="66" fill="none" /><rect x="330" y="198" width="66" height="66" fill="none" /><rect x="396" y="198" width="66" height="66" fill="none" /><rect x="462" y="198" width="66" height="66" fill="none" /><rect x="528" y="198" width="66" height="66" fill="none" /><rect x="594" y="198" width="66" height="66" fill="none" /><rect x="660" y="198" width="66" height="66" fill="none" /><rect x="726" y="198" width="66" height="66" fill="none" /><rect x="0" y="264" width="66" height="66" fill="none" /><rect x="66" y="264" width="66" height="66" fill="none" /><rect x="132" y="264" width="66" height="66" fill="none" /><rect x="198" y="264" width="66" height="66" fill="none" /><rect x="264" y="264" width="66" height="66" fill="none" /><rect x="330" y="264" width="66" height="66" fill="none" /><rect x="396" y="264" width="66" height="66" fill="none" /><rect x="462" y="264" width="66" height="66" fill="none" /><rect x="528" y="264" width="66" height="66" fill="none" /><rect x="594" y="264" width="66" height="66" fill="none" /><rect x="660" y="264" width="66" height="66" fill="none" /><rect x="726" y="264" width="66" height="66" fill="none" /><rect x="0" y="330" width="66" height="66" fill="none" /><rect x="66" y="330" width="66" height="66" fill="none" /><rect x="132" y="330" width="66" height="66" fill="none" /><rect x="198" y="330" width="66" height="66" fill="none" /><rect x="264" y="330" width="66" height="66" fill="none" /><rect x="330" y="330" width="66" height="66" fill="none" /><rect x="396" y="330" width="66" height="66" fill="none" /><rect x="462" y="330" width="66" height="66" fill="none" /><rect x="528" y="330" width="66" height="66" fill="none" /><rect x="594" y="330" width="66" height="66" fill="none" /><rect x="660" y="330" width="66" height="66" fill="none" /><rect x="726" y="330" width="66" height="66" fill="none" /><rect x="0" y="396" width="66" height="66" fill="none" /><rect x="66" y="396" width="66" height="66" fill="none" /><rect x="132" y="396" width="66" height="66" fill="none" /><rect x="198" y="396" width="66" height="66" fill="none" /><rect x="264" y="396" width="66" height="66" fill="none" /><rect x="330" y="396" width="66" height="66" fill="none" /><rect x="396" y="396" width="66" height="66" fill="none" /><rect x="462" y="396" width="66" height="66" fill="none" /><rect x="528" y="396" width="66" height="66" fill="none" /><rect x="594" y="396" width="66" height="66" fill="none" /><rect x="660" y="396" width="66" height="66" fill="none" /><rect x="726" y="396" width="66" height="66" fill="none" /><rect x="0" y="462" width="66" height="66" fill="none" /><rect x="66" y="462" width="66" height="66" fill="none" /><rect x="132" y="462" width="66" height="66" fill="none" /><rect x="198" y="462" width="66" height="66" fill="none" /><rect x="264" y="462" width="66" height="66" fill="none" /><rect x="330" y="462" width="66" height="66" fill="none" /><rect x="396" y="462" width="66" height="66" fill="none" /><rect x="462" y="462" width="66" height="66" fill="none" /><rect x="528" y="462" width="66" height="66" fill="none" /><rect x="594" y="462" width="66" height="66" fill="none" /><rect x="660" y="462" width="66" height="66" fill="none" /><rect x="726" y="462" width="66" height="66" fill="none" /><rect x="0" y="528" width="66" height="66" fill="none" /><rect x="66" y="528" width="66" height="66" fill="none" /><rect x="132" y="528" width="66" height="66" fill="none" /><rect x="198" y="528" width="66" height="66" fill="none" /><rect x="264" y="528" width="66" height="66" fill="none" /><rect x="330" y="528" width="66" height="66" fill="none" /><rect x="396" y="528" width="66" height="66" fill="none" /><rect x="462" y="528" width="66" height="66" fill="none" /><rect x="528" y="528" width="66" height="66" fill="none" /><rect x="594" y="528" width="66" height="66" fill="none" /><rect x="660" y="528" width="66" height="66" fill="none" /><rect x="726" y="528" width="66" height="66" fill="none" /><rect x="0" y="594" width="66" height="66" fill="none" /><rect x="66" y="594" width="66" height="66" fill="none" /><rect x="132" y="594" width="66" height="66" fill="none" /><rect x="198" y="594" width="66" height="66" fill="none" /><rect x="264" y="594" width="66" height="66" fill="none" /><rect x="330" y="594" width="66" height="66" fill="none" /><rect x="396" y="594" width="66" height="66" fill="none" /><rect x="462" y="594" width="66" height="66" fill="none" /><rect x="528" y="594" width="66" height="66" fill="none" /><rect x="594" y="594" width="66" height="66" fill="none" /><rect x="660" y="594" width="66" height="66" fill="none" /><rect x="726" y="594" width="66" height="66" fill="none" /><rect x="0" y="660" width="66" height="66" fill="none" /><rect x="66" y="660" width="66" height="66" fill="none" /><rect x="132" y="660" width="66" height="66" fill="none" /><rect x="198" y="660" width="66" height="66" fill="none" /><rect x="264" y="660" width="66" height="66" fill="none" /><rect x="330" y="660" width="66" height="66" fill="none" /><rect x="396" y="660" width="66" height="66" fill="none" /><rect x="462" y="660" width="66" height="66" fill="none" /><rect x="528" y="660" width="66" height="66" fill="none" /><rect x="594" y="660" width="66" height="66" fill="none" /><rect x="660" y="660" width="66" height="66" fill="none" /><rect x="726" y="660" width="66" height="66" fill="none" /><rect x="0" y="726" width="66" height="66" fill="none" /><rect x="66" y="726" width="66" height="66" fill="none" /></svg>