<?xml version="1.0" encoding="UTF-8"?>
<svg xmlns="http://www.w3.org/2000/svg" version="1.1" height="800" width="800"><rect x="0" y="0" width="800" height="800" fill="rgb(192,192,192)" /><rect x="0" y="0" width="28" height="28" fill="none" /><rect x="28" y="0" width="28" height="28" fill="none" /><rect x="56" y="0" width="28" height="28" fill="none" /><rect x="84" y="0" width="28" height="28" fill="none" /><rect x="112" y="0" width="28" height="28" fill="none" /><rect x="140" y="0" width="28" height="28" fill="none" /><rect x="168" y="0" width="28" height="28" fill="none" /><rect x="196" y="0" width="28" height="28" fill="none" /><rect x="224" y="0" width="28" height="28" fill="none" /><rect x="252" y="0" width="28" height="28" fill="none" /><rect x="280" y="0" width="28" height="28" fill="none" /><rect x="308" y="0" width="28" height="28" fill="none" /><rect x="336" y="0" width="28" height="28" fill="none" /><rect x="364" y="0" width="28" height="28" fill="none" /><rect x="392" y="0" width="28" height="28" fill="none" /><rect x="420" y="0" width="28" height="28" fill="none" /><rect x="448" y="0" width="28" height="28" fill="#FF6600" /><rect x="476" y="0" width="28" height="28" fill="#FF6600" /><rect x="504" y="0" width="28" height="28" fill="#FF6600" /><rect x="532" y="0" width="28" height="28" fill="#FF6600" /><rect x="560" y="0" width="28" height="28" fill="#FF6600" /><rect x="588" y="0" width="28" height="28" fill="#FF6600" /><rect x="616" y="0" width="28" height="28" fill="#FF6600" /><rect x="644" y="0" width="28" height="28" fill="#FF6600" /><rect x="672" y="0" width="28" height="28" fill="#FF6600" /><rect x="700" y="0" width="28" height="28" fill="#FF6600" /><rect x="728" y="0" width="28" height="28" fill="none" /><rect x="756" y="0" width="28" height="28" fill="none" /><rect x="0" y="28" width="28" height="28" fill="#6666CC" /><rect x="28" y="28" width="28" height="28" fill="#6666CC" /><rect x="56" y="28" width="28" height="28" fill="#6666CC" /><rect x="84" y="28" width="28" height="28" fill="#6666CC" /><rect x="112" y="28" width="28" height="28" fill="#6666CC" /><rect x="140" y="28" width="28" height="28" fill="#6666CC" /><rect x="168" y="28" width="28" height="28" fill="#6666CC" /><rect x="196" y="28" width="28" height="28" fill="#6666CC" /><rect x="224" y="28" width="28" height="28" fill="#6666CC" /><rect x="252" y="28" width="28" height="28" fill="#6666CC" /><rect x="280" y="28" width="28" height="28" fill="#6666CC" /><rect x="308" y="28" width="28" height="28" fill="#6666CC" /><rect x="336" y="28" width="28" height="28" fill="#6666CC" /><rect x="364" y="28" width="28" height="28" fill="#6666CC" /><rect x="392" y="28" width="28" height="28" fill="#6666CC" /><rect x="420" y="28" width="28" height="28" fill="#6666CC" /><rect x="448" y="28" width="28" height="28" fill="none" /><rect x="476" y="28" width="28" height="28" fill="none" /><rect x="504" y="28" width="28" height="28" fill="#FFFF99" /><rect x="532" y="28" width="28" height="28" fill="#FFFF99" /><rect x="560" y="28" width="28" height="28" fill="#FFFF99" /><rect x="588" y="28" width="28" height="28" fill="#FFFF99" /><rect x="616" y="28" width="28" height="28" fill="#FFFF99" /><rect x="644" y="28" width="28" height="28" fill="#FFFF99" /><rect x="672" y="28" width="28" height="28" fill="#FFFF99" /><rect x="700" y="28" width="28" height="28" fill="#FFFF99" /><rect x="728" y="28" width="28" height="28" fill="#FFFF99" /><rect x="756" y="28" width="28" height="28" fill="#FFFF99" /><rect x="0" y="56" width="28" height="28" fill="#FFFF99" /><rect x="28" y="56" width="28" height="28" fill="#FFFF99" /><rect x="56" y="56" width="28" height="28" fill="#FFFF99" /><rect x="84" y="56" width="28" height="28" fill="#FFFF99" /><rect x="112" y="56" width="28" height="28" fill="#FFFF99" /><rect x="140" y="56" width="28" height="28" fill="#FFFF99" /><rect x="168" y="56" width="28" height="28" fill="#FFFF99" /><rect x="196" y="56" width="28" height="28" fill="#FFFF99" /><rect x="224" y="56" width="28" height="28" fill="#FFFF99" /><rect x="252" y="56" width="28" height="28" fill="#FFFF99" /><rect x="280" y="56" width="28" height="28" fill="#FFFF99" /><rect x="308" y="56" width="28" height="28" fill="#FFFF99" /><rect x="336" y="56" width="28" height="28" fill="#FFFF99" /><rect x="364" y="56" width="28" height="28" fill="#FFFF99" /><rect x="392" y="56" width="28" height="28" fill="#FFFF99" /><rect x="420" y="56" width="28" height="28" fill="#FFFF99" /><rect x="448" y="56" width="28" height="28" fill="#FFFF99" /><rect x="476" y="56" width="28" height="28" fill="#FFFF99" /><rect x="504" y="56" width="28" height="28" fill="#FFFF99" /><rect x="532" y="56" width="28" height="28" fill="#FFFF99" /><rect x="560" y="56" width="28" height="28" fill="#FFFF99" /><rect x="588" y="56" width="28" height="28" fill="#FFFF99" /><rect x="616" y="56" width="28" height="28" fill="#FFFF99" /><rect x="644" y="56" width="28" height="28" fill="#FFFF99" /><rect x="672" y="56" width="28" height="28" fill="#FFFF99" /><rect x="700" y="56" width="28" height="28" fill="#FFFF99" /><rect x="728" y="56" width="28" height="28" fill="#FFFF99" /><rect x="756" y="56" width="28" height="28" fill="#FFFF99" /><rect x="0" y="84" width="28" height="28" fill="#FFFF99" /><rect x="28" y="84" width="28" height="28" fill="#FFFF99" /><rect x="56" y="84" width="28" height="28" fill="none" /><rect x="84" y="84" width="28" height="28" fill="none" /><rect x="112" y="84" width="28" height="28" fill="#66FF66" /><rect x="140" y="84" width="28" height="28" fill="#66FF66" /><rect x="168" y="84" width="28" height="28" fill="#66FF66" /><rect x="196" y="84" width="28" height="28" fill="#66FF66" /><rect x="224" y="84" width="28" height="28" fill="#66FF66" /><rect x="252" y="84" width="28" height="28" fill="#66FF66" /><rect x="280" y="84" width="28" height="28" fill="#66FF66" /><rect x="308" y="84" width="28" height="28" fill="#66FF66" /><rect x="336" y="84" width="28" height="28" fill="#66FF66" /><rect x="364" y="84" width="28" height="28" fill="#66FF66" /><rect x="392" y="84" width="28" height="28" fill="#66FF66" /><rect x="420" y="84" width="28" height="28" fill="#66FF66" /><rect x="448" y="84" width="28" height="28" fill="#66FF66" /><rect x="476" y="84" width="28" height="28" fill="#66FF66" /><rect x="504" y="84" width="28" height="28" fill="#66FF66" /><rect x="532" y="84" width="28" height="28" fill="#66FF66" /><rect x="560" y="84" width="28" height="28" fill="#66FF66" /><rect x="588" y="84" width="28" height="28" fill="#66FF66" /><rect x="616" y="84" width="28" height="28" fill="#66FF66" /><rect x="644" y="84" width="28" height="28" fill="#66FF66" /><rect x="672" y="84" width="28" height="28" fill="#66FF66" /><rect x="700" y="84" width="28" height="28" fill="#66FF66" /><rect x="728" y="84" width="28" height="28" fill="#66FF66" /><rect x="756" y="84" width="28" height="28" fill="#66FF66" /><rect x="0" y="112" width="28" height="28" fill="#66FF66" /><rect x="28" y="112" width="28" height="28" fill="#66FF66" /><rect x="56" y="112" width="28" height="28" fill="#66FF66" /><rect x="84" y="112" width="28" height="28" fill="#66FF66" /><rect x="112" y="112" width="28" height="28" fill="#66FF66" /><rect x="140" y="112" width="28" height="28" fill="#66FF66" /><rect x="168" y="112" width="28" height="28" fill="#66FF66" /><rect x="196" y="112" width="28" height="28" fill="#66FF66" /><rect x="224" y="112" width="28" height="28" fill="#FF6600" /><rect x="252" y="112" width="28" height="28" fill="#FF6600" /><rect x="280" y="112" width="28" height="28" fill="#FF6600" /><rect x="308" y="112" width="28" height="28" fill="#FF6600" /><rect x="336" y="112" width="28" height="28" fill="#FF6600" /><rect x="364" y="112" width="28" height="28" fill="#FF6600" /><rect x="392" y="112" width="28" height="28" fill="#FF6600" /><rect x="420" y="112" width="28" height="28" fill="#FF6600" /><rect x="448" y="112" width="28" height="28" fill="none" /><rect x="476" y="112" width="28" height="28" fill="none" /><rect x="504" y="112" width="28" height="28" fill="none" /><rect x="532" y="112" width="28" height="28" fill="none" /><rect x="560" y="112" width="28" height="28" fill="none" /><rect x="588" y="112" width="28" height="28" fill="none" /><rect x="616" y="112" width="28" height="28" fill="#6666CC" /><rect x="644" y="112" width="28" height="28" fill="#6666CC" /><rect x="672" y="112" width="28" height="28" fill="#6666CC" /><rect x="700" y="112" width="28" height="28" fill="#6666CC" /><rect x="728" y="112" width="28" height="28" fill="#6666CC" /><rect x="756" y="112" width="28" height="28" fill="#6666CC" /><rect x="0" y="140" width="28" height="28" fill="#6666CC" /><rect x="28" y="140" width="28" height="28" fill="#6666CC" /><rect x="56" y="140" width="28" height="28" fill="#6666CC" /><rect x="84" y="140" width="28" height="28" fill="#6666CC" /><rect x="112" y="140" width="28" height="28" fill="#6666CC" /><rect x="140" y="140" width="28" height="28" fill="#6666CC" /><rect x="168" y="140" width="28" height="28" fill="#6666CC" /><rect x="196" y="140" width="28" height="28" fill="#6666CC" /><rect x="224" y="140" width="28" height="28" fill="#6666CC" /><rect x="252" y="140" width="28" height="28" fill="#6666CC" /><rect x="280" y="140" width="28" height="28" fill="#6666CC" /><rect x="308" y="140" width="28" height="28" fill="#6666CC" /><rect x="336" y="140" width="28" height="28" fill="#6666CC" /><rect x="364" y="140" width="28" height="28" fill="#6666CC" /><rect x="392" y="140" width="28" height="28" fill="#6666CC" /><rect x="420" y="140" width="28" height="28" fill="#6666CC" /><rect x="448" y="140" width="28" height="28" fill="#6666CC" /><rect x="476" y="140" width="28" height="28" fill="#6666CC" /><rect x="504" y="140" width="28" height="28" fill="#6666CC" /><rect x="532" y="140" width="28" height="28" fill="#6666CC" /><rect x="560" y="140" width="28" height="28" fill="#6666CC" /><rect x="588" y="140" width="28" height="28" fill="#6666CC" /><rect x="616" y="140" width="28" height="28" fill="none" /><rect x="644" y="140" width="28" height="28" fill="none" /><rect x="672" y="140" width="28" height="28" fill="none" /><rect x="700" y="140" width="28" height="28" fill="none" /><rect x="728" y="140" width="28" height="28" fill="#FFFF99" /><rect x="756" y="140" width="28" height="28" fill="#FFFF99" /><rect x="0" y="168" width="28" height="28" fill="#FFFF99" /><rect x="28" y="168" width="28" height="28" fill="#FFFF99" /><rect x="56" y="168" width="28" height="28" fill="#FFFF99" /><rect x="84" y="168" width="28" height="28" fill="#FFFF99" /><rect x="112" y="168" width="28" height="28" fill="#FFFF99" /><rect x="140" y="168" width="28" height="28" fill="#FFFF99" /><rect x="168" y="168" width="28" height="28" fill="#FFFF99" /><rect x="196" y="168" width="28" height="28" fill="#FFFF99" /><rect x="224" y="168" width="28" height="28" fill="#FFFF99" /><rect x="252" y="168" width="28" height="28" fill="#FFFF99" /><rect x="280" y="168" width="28" height="28" fill="#FFFF99" /><rect x="308" y="168" width="28" height="28" fill="#FFFF99" /><rect x="336" y="168" width="28" height="28" fill="#FFFF99" /><rect x="364" y="168" width="28" height="28" fill="#FFFF99" /><rect x="392" y="168" width="28" height="28" fill="#FFFF99" /><rect x="420" y="168" width="28" height="28" fill="#FFFF99" /><rect x="448" y="168" width="28" height="28" fill="#FFFF99" /><rect x="476" y="168" width="28" height="28" fill="#FFFF99" /><rect x="504" y="168" width="28" height="28" fill="#FFFF99" /><rect x="532" y="168" width="28" height="28" fill="none" /><rect x="560" y="168" width="28" height="28" fill="none" /><rect x="588" y="168" width="28" height="28" fill="none" /><rect x="616" y="168" width="28" height="28" fill="#66FF66" /><rect x="644" y="168" width="28" height="28" fill="#66FF66" /><rect x="672" y="168" width="28" height="28" fill="#66FF66" /><rect x="700" y="168" width="28" height="28" fill="#66FF66" /><rect x="728" y="168" width="28" height="28" fill="#66FF66" /><rect x="756" y="168" width="28" height="28" fill="#66FF66" /><rect x="0" y="196" width="28" height="28" fill="#66FF66" /><rect x="28" y="196" width="28" height="28" fill="#66FF66" /><rect x="56" y="196" width="28" height="28" fill="#66FF66" /><rect x="84" y="196" width="28" height="28" fill="#66FF66" /><rect x="112" y="196" width="28" height="28" fill="#66FF66" /><rect x="140" y="196" width="28" height="28" fill="none" /><rect x="168" y="196" width="28" height="28" fill="none" /><rect x="196" y="196" width="28" height="28" fill="none" /><rect x="224" y="196" width="28" height="28" fill="#FF6600" /><rect x="252" y="196" width="28" height="28" fill="#FF6600" /><rect x="280" y="196" width="28" height="28" fill="#FF6600" /><rect x="308" y="196" width="28" height="28" fill="#FF6600" /><rect x="336" y="196" width="28" height="28" fill="#FF6600" /><rect x="364" y="196" width="28" height="28" fill="none" /><rect x="392" y="196" width="28" height="28" fill="none" /><rect x="420" y="196" width="28" height="28" fill="none" /><rect x="448" y="196" width="28" height="28" fill="#6666CC" /><rect x="476" y="196" width="28" height="28" fill="#6666CC" /><rect x="504" y="196" width="28" height="28" fill="#6666CC" /><rect x="532" y="196" width="28" height="28" fill="#6666CC" /><rect x="560" y="196" width="28" height="28" fill="#6666CC" /><rect x="588" y="196" width="28" height="28" fill="#6666CC" /><rect x="616" y="196" width="28" height="28" fill="#6666CC" /><rect x="644" y="196" width="28" height="28" fill="#6666CC" /><rect x="672" y="196" width="28" height="28" fill="#6666CC" /><rect x="700" y="196" width="28" height="28" fill="#6666CC" /><rect x="728" y="196" width="28" height="28" fill="#6666CC" /><rect x="756" y="196" width="28" height="28" fill="#6666CC" /><rect x="0" y="224" width="28" height="28" fill="#6666CC" /><rect x="28" y="224" width="28" height="28" fill="#6666CC" /><rect x="56" y="224" width="28" height="28" fill="#6666CC" /><rect x="84" y="224" width="28" height="28" fill="#6666CC" /><rect x="112" y="224" width="28" height="28" fill="#6666CC" /><rect x="140" y="224" width="28" height="28" fill="#6666CC" /><rect x="168" y="224" width="28" height="28" fill="#6666CC" /><rect x="196" y="224" width="28" height="28" fill="#6666CC" /><rect x="224" y="224" width="28" height="28" fill="#6666CC" /><rect x="252" y="224" width="28" height="28" fill="#6666CC" /><rect x="280" y="224" width="28" height="28" fill="#6666CC" /><rect x="308" y="224" width="28" height="28" fill="#6666CC" /><rect x="336" y="224" width="28" height="28" fill="#6666CC" /><rect x="364" y="224" width="28" height="28" fill="#6666CC" /><rect x="392" y="224" width="28" height="28" fill="#6666CC" /><rect x="420" y="224" width="28" height="28" fill="#6666CC" /><rect x="448" y="224" width="28" height="28" fill="#6666CC" /><rect x="476" y="224" width="28" height="28" fill="#6666CC" /><rect x="504" y="224" width="28" height="28" fill="#6666CC" /><rect x="532" y="224" width="28" height="28" fill="#6666CC" /><rect x="560" y="224" width="28" height="28" fill="#6666CC" /><rect x="588" y="224" width="28" height="28" fill="#6666CC" /><rect x="616" y="224" width="28" height="28" fill="#6666CC" /><rect x="644" y="224" width="28" height="28" fill="#6666CC" /><rect x="672" y="224" width="28" height="28" fill="#6666CC" /><rect x="700" y="224" width="28" height="28" fill="#6666CC" /><rect x="728" y="224" width="28" height="28" fill="#6666CC" /><rect x="756" y="224" width="28" height="28" fill="#6666CC" /><rect x="0" y="252" width="28" height="28" fill="#6666CC" /><rect x="28" y="252" width="28" height="28" fill="#6666CC" /><rect x="56" y="252" width="28" height="28" fill="#6666CC" /><rect x="84" y="252" width="28" height="28" fill="#6666CC" /><rect x="112" y="252" width="28" height="28" fill="#6666CC" /><rect x="140" y="252" width="28" height="28" fill="#6666CC" /><rect x="168" y="252" width="28" height="28" fill="#6666CC" /><rect x="196" y="252" width="28" height="28" fill="#6666CC" /><rect x="224" y="252" width="28" height="28" fill="#6666CC" /><rect x="252" y="252" width="28" height="28" fill="#6666CC" /><rect x="280" y="252" width="28" height="28" fill="#6666CC" /><rect x="308" y="252" width="28" height="28" fill="#6666CC" /><rect x="336" y="252" width="28" height="28" fill="#6666CC" /><rect x="364" y="252" width="28" height="28" fill="#6666CC" /><rect x="392" y="252" width="28" height="28" fill="#6666CC" /><rect x="420" y="252" width="28" height="28" fill="#6666CC" /><rect x="448" y="252" width="28" height="28" fill="#6666CC" /><rect x="476" y="252" width="28" height="28" fill="#6666CC" /><rect x="504" y="252" width="28" height="28" fill="#6666CC" /><rect x="532" y="252" width="28" height="28" fill="#6666CC" /><rect x="560" y="252" width="28" height="28" fill="#6666CC" /><rect x="588" y="252" width="28" height="28" fill="#6666CC" /><rect x="616" y="252" width="28" height="28" fill="#6666CC" /><rect x="644" y="252" width="28" height="28" fill="#6666CC" /><rect x="672" y="252" width="28" height="28" fill="#6666CC" /><rect x="700" y="252" width="28" height="28" fill="#6666CC" /><rect x="728" y="252" width="28" height="28" fill="#6666CC" /><rect x="756" y="252" width="28" height="28" fill="#6666CC" /><rect x="0" y="280" width="28" height="28" fill="#6666CC" /><rect x="28" y="280" width="28" height="28" fill="none" /><rect x="56" y="280" width="28" height="28" fill="none" /><rect x="84" y="280" width="28" height="28" fill="none" /><rect x="112" y="280" width="28" height="28" fill="#FFFF99" /><rect x="140" y="280" width="28" height="28" fill="#FFFF99" /><rect x="168" y="280" width="28" height="28" fill="#FFFF99" /><rect x="196" y="280" width="28" height="28" fill="#FFFF99" /><rect x="224" y="280" width="28" height="28" fill="#FFFF99" /><rect x="252" y="280" width="28" height="28" fill="#FFFF99" /><rect x="280" y="280" width="28" height="28" fill="#FFFF99" /><rect x="308" y="280" width="28" height="28" fill="#FFFF99" /><rect x="336" y="280" width="28" height="28" fill="#FFFF99" /><rect x="364" y="280" width="28" height="28" fill="#FFFF99" /><rect x="392" y="280" width="28" height="28" fill="#FFFF99" /><rect x="420" y="280" width="28" height="28" fill="#FFFF99" /><rect x="448" y="280" width="28" height="28" fill="#FFFF99" /><rect x="476" y="280" width="28" height="28" fill="#FFFF99" /><rect x="504" y="280" width="28" height="28" fill="#FFFF99" /><rect x="532" y="280" width="28" height="28" fill="#FFFF99" /><rect x="560" y="280" width="28" height="28" fill="#FFFF99" /><rect x="588" y="280" width="28" height="28" fill="#FFFF99" /><rect x="616" y="280" width="28" height="28" fill="#FFFF99" /><rect x="644" y="280" width="28" height="28" fill="#FFFF99" /><rect x="672" y="280" width="28" height="28" fill="#FFFF99" /><rect x="700" y="280" width="28" height="28" fill="#FFFF99" /><rect x="728" y="280" width="28" height="28" fill="#FFFF99" /><rect x="756" y="280" width="28" height="28" fill="#FFFF99" /><rect x="0" y="308" width="28" height="28" fill="#FFFF99" /><rect x="28" y="308" width="28" height="28" fill="#FFFF99" /><rect x="56" y="308" width="28" height="28" fill="#FFFF99" /><rect x="84" y="308" width="28" height="28" fill="#FFFF99" /><rect x="112" y="308" width="28" height="28" fill="#FFFF99" /><rect x="140" y="308" width="28" height="28" fill="#FFFF99" /><rect x="168" y="308" width="28" height="28" fill="#FFFF99" /><rect x="196" y="308" width="28" height="28" fill="#FFFF99" /><rect x="224" y="308" width="28" height="28" fill="#FFFF99" /><rect x="252" y="308" width="28" height="28" fill="#FFFF99" /><rect x="280" y="308" width="28" height="28" fill="#FFFF99" /><rect x="308" y="308" width="28" height="28" fill="#FFFF99" /><rect x="336" y="308" width="28" height="28" fill="#FFFF99" /><rect x="364" y="308" width="28" height="28" fill="#FFFF99" /><rect x="392" y="308" width="28" height="28" fill="#FFFF99" /><rect x="420" y="308" width="28" height="28" fill="#FFFF99" /><rect x="448" y="308" width="28" height="28" fill="#FFFF99" /><rect x="476" y="308" width="28" height="28" fill="#FFFF99" /><rect x="504" y="308" width="28" height="28" fill="#FFFF99" /><rect x="532" y="308" width="28" height="28" fill="#FFFF99" /><rect x="560" y="308" width="28" height="28" fill="#FFFF99" /><rect x="588" y="308" width="28" height="28" fill="#FFFF99" /><rect x="616" y="308" width="28" height="28" fill="#FFFF99" /><rect x="644" y="308" width="28" height="28" fill="#FFFF99" /><rect x="672" y="308" width="28" height="28" fill="#FFFF99" /><rect x="700" y="308" width="28" height="28" fill="#FFFF99" /><rect x="728" y="308" width="28" height="28" fill="#FFFF99" /><rect x="756" y="308" width="28" height="28" fill="#FFFF99" /><rect x="0" y="336" width="28" height="28" fill="#FFFF99" /><rect x="28" y="336" width="28" height="28" fill="#FFFF99" /><rect x="56" y="336" width="28" height="28" fill="#FFFF99" /><rect x="84" y="336" width="28" height="28" fill="#FFFF99" /><rect x="112" y="336" width="28" height="28" fill="#FFFF99" /><rect x="140" y="336" width="28" height="28" fill="#FFFF99" /><rect x="168" y="336" width="28" height="28" fill="#FFFF99" /><rect x="196" y="336" width="28" height="28" fill="none" /><rect x="224" y="336" width="28" height="28" fill="#66FF66" /><rect x="252" y="336" width="28" height="28" fill="#66FF66" /><rect x="280" y="336" width="28" height="28" fill="#66FF66" /><rect x="308" y="336" width="28" height="28" fill="#66FF66" /><rect x="336" y="336" width="28" height="28" fill="#66FF66" /><rect x="364" y="336" width="28" height="28" fill="#66FF66" /><rect x="392" y="336" width="28" height="28" fill="#66FF66" /><rect x="420" y="336" width="28" height="28" fill="#66FF66" /><rect x="448" y="336" width="28" height="28" fill="#66FF66" /><rect x="476" y="336" width="28" height="28" fill="#66FF66" /><rect x="504" y="336" width="28" height="28" fill="#66FF66" /><rect x="532" y="336" width="28" height="28" fill="#66FF66" /><rect x="560" y="336" width="28" height="28" fill="#66FF66" /><rect x="588" y="336" width="28" height="28" fill="#66FF66" /><rect x="616" y="336" width="28" height="28" fill="#66FF66" /><rect x="644" y="336" width="28" height="28" fill="#66FF66" /><rect x="672" y="336" width="28" height="28" fill="#66FF66" /><rect x="700" y="336" width="28" height="28" fill="#66FF66" /><rect x="728" y="336" width="28" height="28" fill="#66FF66" /><rect x="756" y="336" width="28" height="28" fill="#66FF66" /><rect x="0" y="364" width="28" height="28" fill="#66FF66" /><rect x="28" y="364" width="28" height="28" fill="#66FF66" /><rect x="56" y="364" width="28" height="28" fill="#66FF66" /><rect x="84" y="364" width="28" height="28" fill="#66FF66" /><rect x="112" y="364" width="28" height="28" fill="#66FF66" /><rect x="140" y="364" width="28" height="28" fill="#66FF66" /><rect x="168" y="364" width="28" height="28" fill="none" /><rect x="196" y="364" width="28" height="28" fill="none" /><rect x="224" y="364" width="28" height="28" fill="none" /><rect x="252" y="364" width="28" height="28" fill="none" /><rect x="280" y="364" width="28" height="28" fill="none" /><rect x="308" y="364" width="28" height="28" fill="none" /><rect x="336" y="364" width="28" height="28" fill="none" /><rect x="364" y="364" width="28" height="28" fill="none" /><rect x="392" y="364" width="28" height="28" fill="none" /><rect x="420" y="364" width="28" height="28" fill="none" /><rect x="448" y="364" width="28" height="28" fill="none" /><rect x="476" y="364" width="28" height="28" fill="none" /><rect x="504" y="364" width="28" height="28" fill="none" /><rect x="532" y="364" width="28" height="28" fill="none" /><rect x="560" y="364" width="28" height="28" fill="#FF6600" /><rect x="588" y="364" width="28" height="28" fill="#FF6600" /><rect x="616" y="364" width="28" height="28" fill="#FF6600" /><rect x="644" y="364" width="28" height="28" fill="#FF6600" /><rect x="672" y="364" width="28" height="28" fill="#FF6600" /><rect x="700" y="364" width="28" height="28" fill="#FF6600" /><rect x="728" y="364" width="28" height="28" fill="#FF6600" /><rect x="756" y="364" width="28" height="28" fill="#FF6600" /><rect x="0" y="392" width="28" height="28" fill="#FF6600" /><rect x="28" y="392" width="28" height="28" fill="#FF6600" /><rect x="56" y="392" width="28" height="28" fill="#FF6600" /><rect x="84" y="392" width="28" height="28" fill="#FF6600" /><rect x="112" y="392" width="28" height="28" fill="#FF6600" /><rect x="140" y="392" width="28" height="28" fill="#FF6600" /><rect x="168" y="392" width="28" height="28" fill="#FF6600" /><rect x="196" y="392" width="28" height="28" fill="#FF6600" /><rect x="224" y="392" width="28" height="28" fill="#FF6600" /><rect x="252" y="392" width="28" height="28" fill="#FF6600" /><rect x="280" y="392" width="28" height="28" fill="#FF6600" /><rect x="308" y="392" width="28" height="28" fill="#FF6600" /><rect x="336" y="392" width="28" height="28" fill="#FF6600" /><rect x="364" y="392" width="28" height="28" fill="#FF6600" /><rect x="392" y="392" width="28" height="28" fill="#FF6600" /><rect x="420" y="392" width="28" height="28" fill="#FF6600" /><rect x="448" y="392" width="28" height="28" fill="#FF6600" /><rect x="476" y="392" width="28" height="28" fill="#FF6600" /><rect x="504" y="392" width="28" height="28" fill="#FF6600" /><rect x="532" y="392" width="28" height="28" fill="#FF6600" /><rect x="560" y="392" width="28" height="28" fill="#FF6600" /><rect x="588" y="392" width="28" height="28" fill="#FF6600" /><rect x="616" y="392" width="28" height="28" fill="#FF6600" /><rect x="644" y="392" width="28" height="28" fill="#FF6600" /><rect x="672" y="392" width="28" height="28" fill="#FF6600" /><rect x="700" y="392" width="28" height="28" fill="#FF6600" /><rect x="728" y="392" width="28" height="28" fill="#FF6600" /><rect x="756" y="392" width="28" height="28" fill="#FF6600" /><rect x="0" y="420" width="28" height="28" fill="#FF6600" /><rect x="28" y="420" width="28" height="28" fill="#FF6600" /><rect x="56" y="420" width="28" height="28" fill="#FF6600" /><rect x="84" y="420" width="28" height="28" fill="#FF6600" /><rect x="112" y="420" width="28" height="28" fill="#FF6600" /><rect x="140" y="420" width="28" height="28" fill="#FF6600" /><rect x="168" y="420" width="28" height="28" fill="#FF6600" /><rect x="196" y="420" width="28" height="28" fill="#FF6600" /><rect x="224" y="420" width="28" height="28" fill="#FF6600" /><rect x="252" y="420" width="28" height="28" fill="#FF6600" /><rect x="280" y="420" width="28" height="28" fill="#FF6600" /><rect x="308" y="420" width="28" height="28" fill="#FF6600" /><rect x="336" y="420" width="28" height="28" fill="#FF6600" /><rect x="364" y="420" width="28" height="28" fill="#FF6600" /><rect x="392" y="420" width="28" height="28" fill="#FF6600" /><rect x="420" y="420" width="28" height="28" fill="#FF6600" /><rect x="448" y="420" width="28" height="28" fill="#FF6600" /><rect x="476" y="420" width="28" height="28" fill="#FF6600" /><rect x="504" y="420" width="28" height="28" fill="#FF6600" /><rect x="532" y="420" width="28" height="28" fill="#FF6600" /><rect x="560" y="420" width="28" height="28" fill="#FF6600" /><rect x="588" y="420" width="28" height="28" fill="#FF6600" /><rect x="616" y="420" width="28" height="28" fill="#FF6600" /><rect x="644" y="420" width="28" height="28" fill="#FF6600" /><rect x="672" y="420" width="28" height="28" fill="#FF6600" /><rect x="700" y="420" width="28" height="28" fill="#FF6600" /><rect x="728" y="420" width="28" height="28" fill="#FF6600" /><rect x="756" y="420" width="28" height="28" fill="#FF6600" /><rect x="0" y="448" width="28" height="28" fill="#FF6600" /><rect x="28" y="448" width="28" height="28" fill="#FF6600" /><rect x="56" y="448" width="28" height="28" fill="#FF6600" /><rect x="84" y="448" width="28" height="28" fill="#FF6600" /><rect x="112" y="448" width="28" height="28" fill="#FF6600" /><rect x="140" y="448" width="28" height="28" fill="#FF6600" /><rect x="168" y="448" width="28" height="28" fill="#FF6600" /><rect x="196" y="448" width="28" height="28" fill="#FF6600" /><rect x="224" y="448" width="28" height="28" fill="#FF6600" /><rect x="252" y="448" width="28" height="28" fill="#FF6600" /><rect x="280" y="448" width="28" height="28" fill="#FF6600" /><rect x="308" y="448" width="28" height="28" fill="#FF6600" /><rect x="336" y="448" width="28" height="28" fill="#FF6600" /><rect x="364" y="448" width="28" height="28" fill="#FF6600" /><rect x="392" y="448" width="28" height="28" fill="#FF6600" /><rect x="420" y="448" width="28" height="28" fill="#FF6600" /><rect x="448" y="448" width="28" height="28" fill="#FF6600" /><rect x="476" y="448" width="28" height="28" fill="#FF6600" /><rect x="504" y="448" width="28" height="28" fill="#FF6600" /><rect x="532" y="448" width="28" height="28" fill="none" /><rect x="560" y="448" width="28" height="28" fill="none" /><rect x="588" y="448" width="28" height="28" fill="none" /><rect x="616" y="448" width="28" height="28" fill="none" /><rect x="644" y="448" width="28" height="28" fill="none" /><rect x="672" y="448" width="28" height="28" fill="none" /><rect x="700" y="448" width="28" height="28" fill="none" /><rect x="728" y="448" width="28" height="28" fill="none" /><rect x="756" y="448" width="28" height="28" fill="none" /><rect x="0" y="476" width="28" height="28" fill="none" /><rect x="28" y="476" width="28" height="28" fill="none" /><rect x="56" y="476" width="28" height="28" fill="none" /><rect x="84" y="476" width="28" height="28" fill="none" /><rect x="112" y="476" width="28" height="28" fill="none" /><rect x="140" y="476" width="28" height="28" fill="none" /><rect x="168" y="476" width="28" height="28" fill="none" /><rect x="196" y="476" width="28" height="28" fill="none" /><rect x="224" y="476" width="28" height="28" fill="none" /><rect x="252" y="476" width="28" height="28" fill="none" /><rect x="280" y="476" width="28" height="28" fill="none" /><rect x="308" y="476" width="28" height="28" fill="none" /><rect x="336" y="476" width="28" height="28" fill="none" /><rect x="364" y="476" width="28" height="28" fill="none" /><rect x="392" y="476" width="28" height="28" fill="none" /><rect x="420" y="476" width="28" height="28" fill="none" /><rect x="448" y="476" width="28" height="28" fill="none" /><rect x="476" y="476" width="28" height="28" fill="none" /><rect x="504" y="476" width="28" height="28" fill="none" /><rect x="532" y="476" width="28" height="28" fill="none" /><rect x="560" y="476" width="28" height="28" fill="none" /><rect x="588" y="476" width="28" height="28" fill="none" /><rect x="616" y="476" width="28" height="28" fill="none" /><rect x="644" y="476" width="28" height="28" fill="none" /><rect x="672" y="476" width="28" height="28" fill="#6666CC" /><rect x="700" y="476" width="28" height="28" fill="#6666CC" /><rect x="728" y="476" width="28" height="28" fill="#6666CC" /><rect x="756" y="476" width="28" height="28" fill="#6666CC" /><rect x="0" y="504" width="28" height="28" fill="none" /><rect x="28" y="504" width="28" height="28" fill="none" /><rect x="56" y="504" width="28" height="28" fill="#FFFF99" /><rect x="84" y="504" width="28" height="28" fill="#FFFF99" /><rect x="112" y="504" width="28" height="28" fill="#FFFF99" /><rect x="140" y="504" width="28" height="28" fill="#FFFF99" /><rect x="168" y="504" width="28" height="28" fill="#FFFF99" /><rect x="196" y="504" width="28" height="28" fill="#FFFF99" /><rect x="224" y="504" width="28" height="28" fill="#FFFF99" /><rect x="252" y="504" width="28" height="28" fill="#FFFF99" /><rect x="280" y="504" width="28" height="28" fill="#FFFF99" /><rect x="308" y="504" width="28" height="28" fill="#FFFF99" /><rect x="336" y="504" width="28" height="28" fill="#FFFF99" /><rect x="364" y="504" width="28" height="28" fill="#FFFF99" /><rect x="392" y="504" width="28" height="28" fill="#FFFF99" /><rect x="420" y="504" width="28" height="28" fill="#FFFF99" /><rect x="448" y="504" width="28" height="28" fill="#FFFF99" /><rect x="476" y="504" width="28" height="28" fill="#FFFF99" /><rect x="504" y="504" width="28" height="28" fill="#FFFF99" /><rect x="532" y="504" width="28" height="28" fill="#FFFF99" /><rect x="560" y="504" width="28" height="28" fill="#FFFF99" /><rect x="588" y="504" width="28" height="28" fill="#FFFF99" /><rect x="616" y="504" width="28" height="28" fill="#FFFF99" /><rect x="644" y="504" width="28" height="28" fill="none" /><rect x="672" y="504" width="28" height="28" fill="none" /><rect x="700" y="504" width="28" height="28" fill="none" /><rect x="728" y="504" width="28" height="28" fill="#66FF66" /><rect x="756" y="504" width="28" height="28" fill="#66FF66" /><rect x="0" y="532" width="28" height="28" fill="#66FF66" /><rect x="28" y="532" width="28" height="28" fill="#66FF66" /><rect x="56" y="532" width="28" height="28" fill="#66FF66" /><rect x="84" y="532" width="28" height="28" fill="#66FF66" /><rect x="112" y="532" width="28" height="28" fill="#66FF66" /><rect x="140" y="532" width="28" height="28" fill="#66FF66" /><rect x="168" y="532" width="28" height="28" fill="#66FF66" /><rect x="196" y="532" width="28" height="28" fill="#66FF66" /><rect x="224" y="532" width="28" height="28" fill="#66FF66" /><rect x="252" y="532" width="28" height="28" fill="#66FF66" /><rect x="280" y="532" width="28" height="28" fill="#66FF66" /><rect x="308" y="532" width="28" height="28" fill="#66FF66" /><rect x="336" y="532" width="28" height="28" fill="#66FF66" /><rect x="364" y="532" width="28" height="28" fill="#66FF66" /><rect x="392" y="532" width="28" height="28" fill="none" /><rect x="420" y="532" width="28" height="28" fill="none" /><rect x="448" y="532" width="28" height="28" fill="#FF6600" /><rect x="476" y="532" width="28" height="28" fill="#FF6600" /><rect x="504" y="532" width="28" height="28" fill="#FF6600" /><rect x="532" y="532" width="28" height="28" fill="none" /><rect x="560" y="532" width="28" height="28" fill="#6666CC" /><rect x="588" y="532" width="28" height="28" fill="#6666CC" /><rect x="616" y="532" width="28" height="28" fill="#6666CC" /><rect x="644" y="532" width="28" height="28" fill="#6666CC" /><rect x="672" y="532" width="28" height="28" fill="#6666CC" /><rect x="700" y="532" width="28" height="28" fill="#6666CC" /><rect x="728" y="532" width="28" height="28" fill="#6666CC" /><rect x="756" y="532" width="28" height="28" fill="#6666CC" /><rect x="0" y="560" width="28" height="28" fill="#FFFF99" /><rect x="28" y="560" width="28" height="28" fill="#FFFF99" /><rect x="56" y="560" width="28" height="28" fill="#FFFF99" /><rect x="84" y="560" width="28" height="28" fill="#FFFF99" /><rect x="112" y="560" width="28" height="28" fill="none" /><rect x="140" y="560" width="28" height="28" fill="none" /><rect x="168" y="560" width="28" height="28" fill="#66FF66" /><rect x="196" y="560" width="28" height="28" fill="#66FF66" /><rect x="224" y="560" width="28" height="28" fill="#66FF66" /><rect x="252" y="560" width="28" height="28" fill="#66FF66" /><rect x="280" y="560" width="28" height="28" fill="#66FF66" /><rect x="308" y="560" width="28" height="28" fill="#66FF66" /><rect x="336" y="560" width="28" height="28" fill="#66FF66" /><rect x="364" y="560" width="28" height="28" fill="#66FF66" /><rect x="392" y="560" width="28" height="28" fill="#66FF66" /><rect x="420" y="560" width="28" height="28" fill="#66FF66" /><rect x="448" y="560" width="28" height="28" fill="#66FF66" /><rect x="476" y="560" width="28" height="28" fill="#66FF66" /><rect x="504" y="560" width="28" height="28" fill="#66FF66" /><rect x="532" y="560" width="28" height="28" fill="#66FF66" /><rect x="560" y="560" width="28" height="28" fill="#66FF66" /><rect x="588" y="560" width="28" height="28" fill="#66FF66" /><rect x="616" y="560" width="28" height="28" fill="#66FF66" /><rect x="644" y="560" width="28" height="28" fill="#66FF66" /><rect x="672" y="560" width="28" height="28" fill="#66FF66" /><rect x="700" y="560" width="28" height="28" fill="#66FF66" /><rect x="728" y="560" width="28" height="28" fill="#66FF66" /><rect x="756" y="560" width="28" height="28" fill="#66FF66" /><rect x="0" y="588" width="28" height="28" fill="#66FF66" /><rect x="28" y="588" width="28" height="28" fill="#66FF66" /><rect x="56" y="588" width="28" height="28" fill="#FF6600" /><rect x="84" y="588" width="28" height="28" fill="#FF6600" /><rect x="112" y="588" width="28" height="28" fill="#FF6600" /><rect x="140" y="588" width="28" height="28" fill="#FF6600" /><rect x="168" y="588" width="28" height="28" fill="none" /><rect x="196" y="588" width="28" height="28" fill="none" /><rect x="224" y="588" width="28" height="28" fill="#6666CC" /><rect x="252" y="588" width="28" height="28" fill="#6666CC" /><rect x="280" y="588" width="28" height="28" fill="#6666CC" /><rect x="308" y="588" width="28" height="28" fill="#6666CC" /><rect x="336" y="588" width="28" height="28" fill="#6666CC" /><rect x="364" y="588" width="28" height="28" fill="#6666CC" /><rect x="392" y="588" width="28" height="28" fill="#6666CC" /><rect x="420" y="588" width="28" height="28" fill="#6666CC" /><rect x="448" y="588" width="28" height="28" fill="#6666CC" /><rect x="476" y="588" width="28" height="28" fill="#6666CC" /><rect x="504" y="588" width="28" height="28" fill="#6666CC" /><rect x="532" y="588" width="28" height="28" fill="#6666CC" /><rect x="560" y="588" width="28" height="28" fill="#6666CC" /><rect x="588" y="588" width="28" height="28" fill="#6666CC" /><rect x="616" y="588" width="28" height="28" fill="#6666CC" /><rect x="644" y="588" width="28" height="28" fill="#6666CC" /><rect x="672" y="588" width="28" height="28" fill="#6666CC" /><rect x="700" y="588" width="28" height="28" fill="#6666CC" /><rect x="728" y="588" width="28" height="28" fill="#6666CC" /><rect x="756" y="588" width="28" height="28" fill="#6666CC" /><rect x="0" y="616" width="28" height="28" fill="#6666CC" /><rect x="28" y="616" width="28" height="28" fill="#6666CC" /><rect x="56" y="616" width="28" height="28" fill="#6666CC" /><rect x="84" y="616" width="28" height="28" fill="#6666CC" /><rect x="112" y="616" width="28" height="28" fill="#6666CC" /><rect x="140" y="616" width="28" height="28" fill="#6666CC" /><rect x="168" y="616" width="28" height="28" fill="#6666CC" /><rect x="196" y="616" width="28" height="28" fill="#6666CC" /><rect x="224" y="616" width="28" height="28" fill="#6666CC" /><rect x="252" y="616" width="28" height="28" fill="#6666CC" /><rect x="280" y="616" width="28" height="28" fill="#6666CC" /><rect x="308" y="616" width="28" height="28" fill="#6666CC" /><rect x="336" y="616" width="28" height="28" fill="#6666CC" /><rect x="364" y="616" width="28" height="28" fill="#6666CC" /><rect x="392" y="616" width="28" height="28" fill="#6666CC" /><rect x="420" y="616" width="28" height="28" fill="#6666CC" /><rect x="448" y="616" width="28" height="28" fill="#6666CC" /><rect x="476" y="616" width="28" height="28" fill="#6666CC" /><rect x="504" y="616" width="28" height="28" fill="#6666CC" /><rect x="532" y="616" width="28" height="28" fill="#6666CC" /><rect x="560" y="616" width="28" height="28" fill="#6666CC" /><rect x="588" y="616" width="28" height="28" fill="#6666CC" /><rect x="616" y="616" width="28" height="28" fill="none" /><rect x="644" y="616" width="28" height="28" fill="none" /><rect x="672" y="616" width="28" height="28" fill="#FFFF99" /><rect x="700" y="616" width="28" height="28" fill="#FFFF99" /><rect x="728" y="616" width="28" height="28" fill="#FFFF99" /><rect x="756" y="616" width="28" height="28" fill="#FFFF99" /><rect x="0" y="644" width="28" height="28" fill="#FFFF99" /><rect x="28" y="644" width="28" height="28" fill="#FFFF99" /><rect x="56" y="644" width="28" height="28" fill="#FFFF99" /><rect x="84" y="644" width="28" height="28" fill="#FFFF99" /><rect x="112" y="644" width="28" height="28" fill="#FFFF99" /><rect x="140" y="644" width="28" height="28" fill="#FFFF99" /><rect x="168" y="644" width="28" height="28" fill="#FFFF99" /><rect x="196" y="644" width="28" height="28" fill="#FFFF99" /><rect x="224" y="644" width="28" height="28" fill="#FFFF99" /><rect x="252" y="644" width="28" height="28" fill="#FFFF99" /><rect x="280" y="644" width="28" height="28" fill="#FFFF99" /><rect x="308" y="644" width="28" height="28" fill="#FFFF99" /><rect x="336" y="644" width="28" height="28" fill="#FFFF99" /><rect x="364" y="644" width="28" height="28" fill="#FFFF99" /><rect x="392" y="644" width="28" height="28" fill="#FFFF99" /><rect x="420" y="644" width="28" height="28" fill="none" /><rect x="448" y="644" width="28" height="28" fill="#66FF66" /><rect x="476" y="644" width="28" height="28" fill="#66FF66" /><rect x="504" y="644" width="28" height="28" fill="#66FF66" /><rect x="532" y="644" width="28" height="28" fill="#66FF66" /><rect x="560" y="644" width="28" height="28" fill="#66FF66" /><rect x="588" y="644" width="28" height="28" fill="#66FF66" /><rect x="616" y="644" width="28" height="28" fill="#66FF66" /><rect x="644" y="644" width="28" height="28" fill="#66FF66" /><rect x="672" y="644" width="28" height="28" fill="#66FF66" /><rect x="700" y="644" width="28" height="28" fill="#66FF66" /><rect x="728" y="644" width="28" height="28" fill="#66FF66" /><rect x="756" y="644" width="28" height="28" fill="#66FF66" /><rect x="0" y="672" width="28" height="28" fill="#66FF66" /><rect x="28" y="672" width="28" height="28" fill="#66FF66" /><rect x="56" y="672" width="28" height="28" fill="#66FF66" /><rect x="84" y="672" width="28" height="28" fill="#66FF66" /><rect x="112" y="672" width="28" height="28" fill="#66FF66" /><rect x="140" y="672" width="28" height="28" fill="#66FF66" /><rect x="168" y="672" width="28" height="28" fill="#66FF66" /><rect x="196" y="672" width="28" height="28" fill="#66FF66" /><rect x="224" y="672" width="28" height="28" fill="#66FF66" /><rect x="252" y="672" width="28" height="28" fill="#66FF66" /><rect x="280" y="672" width="28" height="28" fill="#66FF66" /><rect x="308" y="672" width="28" height="28" fill="#66FF66" /><rect x="336" y="672" width="28" height="28" fill="#66FF66" /><rect x="364" y="672" width="28" height="28" fill="#66FF66" /><rect x="392" y="672" width="28" height="28" fill="#66FF66" /><rect x="420" y="672" width="28" height="28" fill="#66FF66" /><rect x="448" y="672" width="28" height="28" fill="#66FF66" /><rect x="476" y="672" width="28" height="28" fill="#66FF66" /><rect x="504" y="672" width="28" height="28" fill="#66FF66" /><rect x="532" y="672" width="28" height="28" fill="none" /><rect x="560" y="672" width="28" height="28" fill="#66FF66" /><rect x="588" y="672" width="28" height="28" fill="#66FF66" /><rect x="616" y="672" width="28" height="28" fill="#66FF66" /><rect x="644" y="672" width="28" height="28" fill="#66FF66" /><rect x="672" y="672" width="28" height="28" fill="#66FF66" /><rect x="700" y="672" width="28" height="28" fill="#66FF66" /><rect x="728" y="672" width="28" height="28" fill="#66FF66" /><rect x="756" y="672" width="28" height="28" fill="#66FF66" /><rect x="0" y="700" width="28" height="28" fill="#66FF66" /><rect x="28" y="700" width="28" height="28" fill="#66FF66" /><rect x="56" y="700" width="28" height="28" fill="#66FF66" /><rect x="84" y="700" width="28" height="28" fill="#66FF66" /><rect x="112" y="700" width="28" height="28" fill="#66FF66" /><rect x="140" y="700" width="28" height="28" fill="#66FF66" /><rect x="168" y="700" width="28" height="28" fill="none" /><rect x="196" y="700" width="28" height="28" fill="none" /><rect x="224" y="700" width="28" height="28" fill="#FF6600" /><rect x="252" y="700" width="28" height="28" fill="#FF6600" /><rect x="280" y="700" width="28" height="28" fill="#FF6600" /><rect x="308" y="700" width="28" height="28" fill="#FF6600" /><rect x="336" y="700" width="28" height="28" fill="#FF6600" /><rect x="364" y="700" width="28" height="28" fill="#FF6600" /><rect x="392" y="700" width="28" height="28" fill="#FF6600" /><rect x="420" y="700" width="28" height="28" fill="#FF6600" /><rect x="448" y="700" width="28" height="28" fill="#FF6600" /><rect x="476" y="700" width="28" height="28" fill="#FF6600" /><rect x="504" y="700" width="28" height="28" fill="#FF6600" /><rect x="532" y="700" width="28" height="28" fill="#FF6600" /><rect x="560" y="700" width="28" height="28" fill="#FF6600" /><rect x="588" y="700" width="28" height="28" fill="none" /><rect x="616" y="700" width="28" height="28" fill="none" /><rect x="644" y="700" width="28" height="28" fill="none" /><rect x="672" y="700" width="28" height="28" fill="none" /><rect x="700" y="700" width="28" height="28" fill="none" /><rect x="728" y="700" width="28" height="28" fill="none" /><rect x="756" y="700" width="28" height="28" fill="none" /><rect x="0" y="728" width="28" height="28" fill="none" /><rect x="28" y="728" width="28" height="28" fill="none" /><rect x="56" y="728" width="28" height="28" fill="none" /><rect x="84" y="728" width="28" height="28" fill="none" /><rect x="112" y="728" width="28" height="28" fill="none" /><rect x="140" y="728" width="28" height="28" fill="none" /><rect x="168" y="728" width="28" height="28" fill="none" /><rect x="196" y="728" width="28" height="28" fill="none" /><rect x="224" y="728" width="28" height="28" fill="none" /><rect x="252" y="728" width="28" height="28" fill="none" /><rect x="280" y="728" width="28" height="28" fill="none" /><rect x="308" y="728" width="28" height="28" fill="none" /><rect x="336" y="728" width="28" height="28" fill="none" /><rect x="364" y="728" width="28" height="28" fill="none" /><rect x="392" y="728" width="28" height="28" fill="none" /><rect x="420" y="728" width="28" height="28" fill="none" /><rect x="448" y="728" width="28" height="28" fill="none" /><rect x="476" y="728" width="28" height="28" fill="none" /><rect x="504" y="728" width="28" height="28" fill="none" /><rect x="532" y="728" width="28" height="28" fill="none" /><rect x="560" y="728" width="28" height="28" fill="none" /><rect x="588" y="728" width="28" height="28" fill="none" /><rect x="616" y="728" width="28" height="28" fill="none" /><rect x="644" y="728" width="28" height="28" fill="none" /><rect x="672" y="728" width="28" height="28" fill="none" /><rect x="700" y="728" width="28" height="28" fill="none" /><rect x="728" y="728" width="28" height="28" fill="none" /><rect x="756" y="728" width="28" height="28" fill="none" /><rect x="0" y="756" width="28" height="28" fill="none" /><rect x="28" y="756" width="28" height="28" fill="none" /><rect x="56" y="756" width="28" height="28" fill="none" /><rect x="84" y="756" width="28" height="28" fill="none" /></svg>