<?xml version="1.0" encoding="UTF-8"?>
<svg xmlns="http://www.w3.org/2000/svg" version="1.1" height="800" width="800"><rect x="0" y="0" width="800" height="800" fill="rgb(192,192,192)" /><rect x="0" y="0" width="114" height="114" fill="none" /><rect x="114" y="0" width="114" height="114" fill="none" /><rect x="228" y="0" width="114" height="114" fill="none" /><rect x="342" y="0" width="114" height="114" fill="none" /><rect x="456" y="0" width="114" height="114" fill="#FF6600" /><rect x="570" y="0" width="114" height="114" fill="#FF6600" /><rect x="684" y="0" width="114" height="114" fill="#FF6600" /><rect x="0" y="114" width="114" height="114" fill="#FF6600" /><rect x="114" y="114" width="114" height="114" fill="#FF6600" /><rect x="228" y="114" width="114" height="114" fill="#FF6600" /><rect x="342" y="114" width="114" height="114" fill="#FF6600" /><rect x="456" y="114" width="114" height="114" fill="#FF6600" /><rect x="570" y="114" width="114" height="114" fill="#FF6600" /><rect x="684" y="114" width="114" height="114" fill="#FF6600" /><rect x="0" y="228" width="114" height="114" fill="#FF6600" /><rect x="114" y="228" width="114" height="114" fill="#FF6600" /><rect x="228" y="228" width="114" height="114" fill="#FF6600" /><rect x="342" y="228" width="114" height="114" fill="#FF6600" /><rect x="456" y="228" width="114" height="114" fill="#FF6600" /><rect x="570" y="228" width="114" height="114" fill="#FF6600" /><rect x="684" y="228" width="114" height="114" fill="#FF6600" /><rect x="0" y="342" width="114" height="114" fill="#FF6600" /><rect x="114" y="342" width="114" height="114" fill="#6666CC" /><rect x="228" y="342" width="114" height="114" fill="#6666CC" /><rect x="342" y="342" width="114" height="114" fill="#6666CC" /><rect x="456" y="342" width="114" height="114" fill="#6666CC" /><rect x="570" y="342" width="114" height="114" fill="#6666CC" /><rect x="684" y="342" width="114" height="114" fill="#6666CC" /><rect x="0" y="456" width="114" height="114" fill="#6666CC" /><rect x="114" y="456" width="114" height="114" fill="#6666CC" /><rect x="228" y="456" width="114" height="114" fill="#6666CC" /><rect x="342" y="456" width="114" height="114" fill="#6666CC" /><rect x="456" y="456" width="114" height="114" fill="#6666CC" /><rect x="570" y="456" width="114" height="114" fill="#6666CC" /><rect x="684" y="456" width="114" height="114" fill="#6666CC" /><rect x="0" y="570" width="114" height="114" fill="#6666CC" /><rect x="114" y="570" width="114" height="114" fill="#6666CC" /><rect x="228" y="570" width="114" height="114" fill="#6666CC" /><rect x="342" y="570" width="114" height="114" fill="#6666CC" /><rect x="456" y="570" width="114" height="114" fill="#6666CC" /><rect x="570" y="570" width="114" height="114" fill="none" /><rect x="684" y="570" width="114" height="114" fill="none" /><rect x="0" y="684" width="114" height="114" fill="none" /><rect x="114" y="684" width="114" height="114" fill="none" /></svg>