<?xml version="1.0" encoding="UTF-8"?>
<svg xmlns="http://www.w3.org/2000/svg" version="1.1" height="800" width="800"><rect x="0" y="0" width="800" height="800" fill="rgb(192,192,192)" /><rect x="0" y="0" width="61" height="61" fill="none" /><rect x="61" y="0" width="61" height="61" fill="none" /><rect x="122" y="0" width="61" height="61" fill="none" /><rect x="183" y="0" width="61" height="61" fill="none" /><rect x="244" y="0" width="61" height="61" fill="none" /><rect x="305" y="0" width="61" height="61" fill="none" /><rect x="366" y="0" width="61" height="61" fill="#FF6600" /><rect x="427" y="0" width="61" height="61" fill="#FF6600" /><rect x="488" y="0" width="61" height="61" fill="#FF6600" /><rect x="549" y="0" width="61" height="61" fill="#FF6600" /><rect x="610" y="0" width="61" height="61" fill="#FF6600" /><rect x="671" y="0" width="61" height="61" fill="#FF6600" /><rect x="732" y="0" width="61" height="61" fill="#FF6600" /><rect x="0" y="61" width="61" height="61" fill="#FF6600" /><rect x="61" y="61" width="61" height="61" fill="#6666CC" /><rect x="122" y="61" width="61" height="61" fill="#6666CC" /><rect x="183" y="61" width="61" height="61" fill="#6666CC" /><rect x="244" y="61" width="61" height="61" fill="#6666CC" /><rect x="305" y="61" width="61" height="61" fill="#6666CC" /><rect x="366" y="61" width="61" height="61" fill="#6666CC" /><rect x="427" y="61" width="61" height="61" fill="#6666CC" /><rect x="488" y="61" width="61" height="61" fill="#6666CC" /><rect x="549" y="61" width="61" height="61" fill="#6666CC" /><rect x="610" y="61" width="61" height="61" fill="#6666CC" /><rect x="671" y="61" width="61" height="61" fill="#6666CC" /><rect x="732" y="61" width="61" height="61" fill="#6666CC" /><rect x="0" y="122" width="61" height="61" fill="#6666CC" /><rect x="61" y="122" width="61" height="61" fill="#6666CC" /><rect x="122" y="122" width="61" height="61" fill="#FFFF99" /><rect x="183" y="122" width="61" height="61" fill="#FFFF99" /><rect x="244" y="122" width="61" height="61" fill="#FFFF99" /><rect x="305" y="122" width="61" height="61" fill="#FFFF99" /><rect x="366" y="122" width="61" height="61" fill="#FFFF99" /><rect x="427" y="122" width="61" height="61" fill="#FFFF99" /><rect x="488" y="122" width="61" height="61" fill="#FFFF99" /><rect x="549" y="122" width="61" height="61" fill="#FFFF99" /><rect x="610" y="122" width="61" height="61" fill="#66FF66" /><rect x="671" y="122" width="61" height="61" fill="#66FF66" /><rect x="732" y="122" width="61" height="61" fill="#66FF66" /><rect x="0" y="183" width="61" height="61" fill="#66FF66" /><rect x="61" y="183" width="61" height="61" fill="#66FF66" /><rect x="122" y="183" width="61" height="61" fill="#66FF66" /><rect x="183" y="183" width="61" height="61" fill="#FF6600" /><rect x="244" y="183" width="61" height="61" fill="#FF6600" /><rect x="305" y="183" width="61" height="61" fill="#FF6600" /><rect x="366" y="183" width="61" height="61" fill="#FF6600" /><rect x="427" y="183" width="61" height="61" fill="#FF6600" /><rect x="488" y="183" width="61" height="61" fill="#FF6600" /><rect x="549" y="183" width="61" height="61" fill="#6666CC" /><rect x="610" y="183" width="61" height="61" fill="#6666CC" /><rect x="671" y="183" width="61" height="61" fill="#6666CC" /><rect x="732" y="183" width="61" height="61" fill="#6666CC" /><rect x="0" y="244" width="61" height="61" fill="#6666CC" /><rect x="61" y="244" width="61" height="61" fill="#6666CC" /><rect x="122" y="244" width="61" height="61" fill="#6666CC" /><rect x="183" y="244" width="61" height="61" fill="#6666CC" /><rect x="244" y="244" width="61" height="61" fill="#6666CC" /><rect x="305" y="244" width="61" height="61" fill="#6666CC" /><rect x="366" y="244" width="61" height="61" fill="#FFFF99" /><rect x="427" y="244" width="61" height="61" fill="#FFFF99" /><rect x="488" y="244" width="61" height="61" fill="#FFFF99" /><rect x="549" y="244" width="61" height="61" fill="#FFFF99" /><rect x="610" y="244" width="61" height="61" fill="#FFFF99" /><rect x="671" y="244" width="61" height="61" fill="#FFFF99" /><rect x="732" y="244" width="61" height="61" fill="#FFFF99" /><rect x="0" y="305" width="61" height="61" fill="#FFFF99" /><rect x="61" y="305" width="61" height="61" fill="#FFFF99" /><rect x="122" y="305" width="61" height="61" fill="#FFFF99" /><rect x="183" y="305" width="61" height="61" fill="#FFFF99" /><rect x="244" y="305" width="61" height="61" fill="#FFFF99" /><rect x="305" y="305" width="61" height="61" fill="#FFFF99" /><rect x="366" y="305" width="61" height="61" fill="#FFFF99" /><rect x="427" y="305" width="61" height="61" fill="#FFFF99" /><rect x="488" y="305" width="61" height="61" fill="#FFFF99" /><rect x="549" y="305" width="61" height="61" fill="#FFFF99" /><rect x="610" y="305" width="61" height="61" fill="#FFFF99" /><rect x="671" y="305" width="61" height="61" fill="#FFFF99" /><rect x="732" y="305" width="61" height="61" fill="#FFFF99" /><rect x="0" y="366" width="61" height="61" fill="#66FF66" /><rect x="61" y="366" width="61" height="61" fill="#66FF66" /><rect x="122" y="366" width="61" height="61" fill="#66FF66" /><rect x="183" y="366" width="61" height="61" fill="#66FF66" /><rect x="244" y="366" width="61" height="61" fill="#FF6600" /><rect x="305" y="366" width="61" height="61" fill="#FF6600" /><rect x="366" y="366" width="61" height="61" fill="#FF6600" /><rect x="427" y="366" width="61" height="61" fill="#FF6600" /><rect x="488" y="366" width="61" height="61" fill="#FF6600" /><rect x="549" y="366" width="61" height="61" fill="#FF6600" /><rect x="610" y="366" width="61" height="61" fill="#FF6600" /><rect x="671" y="366" width="61" height="61" fill="#FF6600" /><rect x="732" y="366" width="61" height="61" fill="#FF6600" /><rect x="0" y="427" width="61" height="61" fill="#FF6600" /><rect x="61" y="427" width="61" height="61" fill="#FF6600" /><rect x="122" y="427" width="61" height="61" fill="#FF6600" /><rect x="183" y="427" width="61" height="61" fill="#FF6600" /><rect x="244" y="427" width="61" height="61" fill="#FF6600" /><rect x="305" y="427" width="61" height="61" fill="#6666CC" /><rect x="366" y="427" width="61" height="61" fill="#6666CC" /><rect x="427" y="427" width="61" height="61" fill="#6666CC" /><rect x="488" y="427" width="61" height="61" fill="#6666CC" /><rect x="549" y="427" width="61" height="61" fill="#6666CC" /><rect x="610" y="427" width="61" height="61" fill="#6666CC" /><rect x="671" y="427" width="61" height="61" fill="#6666CC" /><rect x="732" y="427" width="61" height="61" fill="#6666CC" /><rect x="0" y="488" width="61" height="61" fill="#6666CC" /><rect x="61" y="488" width="61" height="61" fill="#6666CC" /><rect x="122" y="488" width="61" height="61" fill="#FFFF99" /><rect x="183" y="488" width="61" height="61" fill="#FFFF99" /><rect x="244" y="488" width="61" height="61" fill="#FFFF99" /><rect x="305" y="488" width="61" height="61" fill="#FFFF99" /><rect x="366" y="488" width="61" height="61" fill="#FFFF99" /><rect x="427" y="488" width="61" height="61" fill="#FFFF99" /><rect x="488" y="488" width="61" height="61" fill="#FFFF99" /><rect x="549" y="488" width="61" height="61" fill="#FFFF99" /><rect x="610" y="488" width="61" height="61" fill="#FFFF99" /><rect x="671" y="488" width="61" height="61" fill="#FFFF99" /><rect x="732" y="488" width="61" height="61" fill="#FFFF99" /><rect x="0" y="549" width="61" height="61" fill="#FFFF99" /><rect x="61" y="549" width="61" height="61" fill="#FFFF99" /><rect x="122" y="549" width="61" height="61" fill="#FFFF99" /><rect x="183" y="549" width="61" height="61" fill="#FFFF99" /><rect x="244" y="549" width="61" height="61" fill="#FFFF99" /><rect x="305" y="549" width="61" height="61" fill="#FFFF99" /><rect x="366" y="549" width="61" height="61" fill="#FFFF99" /><rect x="427" y="549" width="61" height="61" fill="#FFFF99" /><rect x="488" y="549" width="61" height="61" fill="#FFFF99" /><rect x="549" y="549" width="61" height="61" fill="#FFFF99" /><rect x="610" y="549" width="61" height="61" fill="#FFFF99" /><rect x="671" y="549" width="61" height="61" fill="#FFFF99" /><rect x="732" y="549" width="61" height="61" fill="#FFFF99" /><rect x="0" y="610" width="61" height="61" fill="#FFFF99" /><rect x="61" y="610" width="61" height="61" fill="#FFFF99" /><rect x="122" y="610" width="61" height="61" fill="#FFFF99" /><rect x="183" y="610" width="61" height="61" fill="#FFFF99" /><rect x="244" y="610" width="61" height="61" fill="#66FF66" /><rect x="305" y="610" width="61" height="61" fill="#66FF66" /><rect x="366" y="610" width="61" height="61" fill="#66FF66" /><rect x="427" y="610" width="61" height="61" fill="#66FF66" /><rect x="488" y="610" width="61" height="61" fill="#66FF66" /><rect x="549" y="610" width="61" height="61" fill="#66FF66" /><rect x="610" y="610" width="61" height="61" fill="#66FF66" /><rect x="671" y="610" width="61" height="61" fill="#66FF66" /><rect x="732" y="610" width="61" height="61" fill="#66FF66" /><rect x="0" y="671" width="61" height="61" fill="#66FF66" /><rect x="61" y="671" width="61" height="61" fill="#66FF66" /><rect x="122" y="671" width="61" height="61" fill="#66FF66" /><rect x="183" y="671" width="61" height="61" fill="#FF6600" /><rect x="244" y="671" width="61" height="61" fill="#FF6600" /><rect x="305" y="671" width="61" height="61" fill="#FF6600" /><rect x="366" y="671" width="61" height="61" fill="#FF6600" /><rect x="427" y="671" width="61" height="61" fill="#FF6600" /><rect x="488" y="671" width="61" height="61" fill="#FF6600" /><rect x="549" y="671" width="61" height="61" fill="none" /><rect x="610" y="671" width="61" height="61" fill="none" /><rect x="671" y="671" width="61" height="61" fill="none" /><rect x="732" y="671" width="61" height="61" fill="none" /><rect x="0" y="732" width="61" height="61" fill="none" /><rect x="61" y="732" width="61" height="61" fill="none" /><rect x="122" y="732" width="61" height="61" fill="none" /><rect x="183" y="732" width="61" height="61" fill="none" /></svg>