<?xml version="1.0" encoding="UTF-8"?>
<svg xmlns="http://www.w3.org/2000/svg" version="1.1" height="800" width="800"><rect x="0" y="0" width="800" height="800" fill="rgb(192,192,192)" /><rect x="0" y="0" width="38" height="38" fill="none" /><rect x="38" y="0" width="38" height="38" fill="none" /><rect x="76" y="0" width="38" height="38" fill="none" /><rect x="114" y="0" width="38" height="38" fill="none" /><rect x="152" y="0" width="38" height="38" fill="none" /><rect x="190" y="0" width="38" height="38" fill="none" /><rect x="228" y="0" width="38" height="38" fill="none" /><rect x="266" y="0" width="38" height="38" fill="none" /><rect x="304" y="0" width="38" height="38" fill="none" /><rect x="342" y="0" width="38" height="38" fill="none" /><rect x="380" y="0" width="38" height="38" fill="#FF6600" /><rect x="418" y="0" width="38" height="38" fill="#FF6600" /><rect x="456" y="0" width="38" height="38" fill="#FF6600" /><rect x="494" y="0" width="38" height="38" fill="#FF6600" /><rect x="532" y="0" width="38" height="38" fill="#FF6600" /><rect x="570" y="0" width="38" height="38" fill="#FF6600" /><rect x="608" y="0" width="38" height="38" fill="#FF6600" /><rect x="646" y="0" width="38" height="38" fill="none" /><rect x="684" y="0" width="38" height="38" fill="#6666CC" /><rect x="722" y="0" width="38" height="38" fill="#6666CC" /><rect x="760" y="0" width="38" height="38" fill="#6666CC" /><rect x="0" y="38" width="38" height="38" fill="#6666CC" /><rect x="38" y="38" width="38" height="38" fill="#6666CC" /><rect x="76" y="38" width="38" height="38" fill="#6666CC" /><rect x="114" y="38" width="38" height="38" fill="#6666CC" /><rect x="152" y="38" width="38" height="38" fill="#6666CC" /><rect x="190" y="38" width="38" height="38" fill="#6666CC" /><rect x="228" y="38" width="38" height="38" fill="#6666CC" /><rect x="266" y="38" width="38" height="38" fill="#FFFF99" /><rect x="304" y="38" width="38" height="38" fill="#FFFF99" /><rect x="342" y="38" width="38" height="38" fill="#FFFF99" /><rect x="380" y="38" width="38" height="38" fill="#FFFF99" /><rect x="418" y="38" width="38" height="38" fill="#FFFF99" /><rect x="456" y="38" width="38" height="38" fill="#FFFF99" /><rect x="494" y="38" width="38" height="38" fill="#FFFF99" /><rect x="532" y="38" width="38" height="38" fill="#FFFF99" /><rect x="570" y="38" width="38" height="38" fill="#FFFF99" /><rect x="608" y="38" width="38" height="38" fill="#FFFF99" /><rect x="646" y="38" width="38" height="38" fill="#FFFF99" /><rect x="684" y="38" width="38" height="38" fill="none" /><rect x="722" y="38" width="38" height="38" fill="#66FF66" /><rect x="760" y="38" width="38" height="38" fill="#66FF66" /><rect x="0" y="76" width="38" height="38" fill="#66FF66" /><rect x="38" y="76" width="38" height="38" fill="#66FF66" /><rect x="76" y="76" width="38" height="38" fill="#FF6600" /><rect x="114" y="76" width="38" height="38" fill="#FF6600" /><rect x="152" y="76" width="38" height="38" fill="#FF6600" /><rect x="190" y="76" width="38" height="38" fill="#FF6600" /><rect x="228" y="76" width="38" height="38" fill="#FF6600" /><rect x="266" y="76" width="38" height="38" fill="#FF6600" /><rect x="304" y="76" width="38" height="38" fill="#FF6600" /><rect x="342" y="76" width="38" height="38" fill="#FF6600" /><rect x="380" y="76" width="38" height="38" fill="#FF6600" /><rect x="418" y="76" width="38" height="38" fill="#FF6600" /><rect x="456" y="76" width="38" height="38" fill="#FF6600" /><rect x="494" y="76" width="38" height="38" fill="#FF6600" /><rect x="532" y="76" width="38" height="38" fill="#FF6600" /><rect x="570" y="76" width="38" height="38" fill="#FF6600" /><rect x="608" y="76" width="38" height="38" fill="#FF6600" /><rect x="646" y="76" width="38" height="38" fill="#FF6600" /><rect x="684" y="76" width="38" height="38" fill="#FF6600" /><rect x="722" y="76" width="38" height="38" fill="#FF6600" /><rect x="760" y="76" width="38" height="38" fill="#FF6600" /><rect x="0" y="114" width="38" height="38" fill="#FF6600" /><rect x="38" y="114" width="38" height="38" fill="#FF6600" /><rect x="76" y="114" width="38" height="38" fill="#FF6600" /><rect x="114" y="114" width="38" height="38" fill="#FF6600" /><rect x="152" y="114" width="38" height="38" fill="none" /><rect x="190" y="114" width="38" height="38" fill="#6666CC" /><rect x="228" y="114" width="38" height="38" fill="#6666CC" /><rect x="266" y="114" width="38" height="38" fill="#6666CC" /><rect x="304" y="114" width="38" height="38" fill="#6666CC" /><rect x="342" y="114" width="38" height="38" fill="#6666CC" /><rect x="380" y="114" width="38" height="38" fill="#6666CC" /><rect x="418" y="114" width="38" height="38" fill="#6666CC" /><rect x="456" y="114" width="38" height="38" fill="#6666CC" /><rect x="494" y="114" width="38" height="38" fill="#FFFF99" /><rect x="532" y="114" width="38" height="38" fill="#FFFF99" /><rect x="570" y="114" width="38" height="38" fill="#FFFF99" /><rect x="608" y="114" width="38" height="38" fill="#FFFF99" /><rect x="646" y="114" width="38" height="38" fill="#FFFF99" /><rect x="684" y="114" width="38" height="38" fill="#FFFF99" /><rect x="722" y="114" width="38" height="38" fill="#FFFF99" /><rect x="760" y="114" width="38" height="38" fill="#FFFF99" /><rect x="0" y="152" width="38" height="38" fill="#FFFF99" /><rect x="38" y="152" width="38" height="38" fill="#FFFF99" /><rect x="76" y="152" width="38" height="38" fill="#FFFF99" /><rect x="114" y="152" width="38" height="38" fill="#FFFF99" /><rect x="152" y="152" width="38" height="38" fill="#FFFF99" /><rect x="190" y="152" width="38" height="38" fill="#FFFF99" /><rect x="228" y="152" width="38" height="38" fill="#FFFF99" /><rect x="266" y="152" width="38" height="38" fill="#FFFF99" /><rect x="304" y="152" width="38" height="38" fill="#FFFF99" /><rect x="342" y="152" width="38" height="38" fill="#FFFF99" /><rect x="380" y="152" width="38" height="38" fill="#FFFF99" /><rect x="418" y="152" width="38" height="38" fill="#FFFF99" /><rect x="456" y="152" width="38" height="38" fill="#FFFF99" /><rect x="494" y="152" width="38" height="38" fill="#FFFF99" /><rect x="532" y="152" width="38" height="38" fill="#FFFF99" /><rect x="570" y="152" width="38" height="38" fill="#FFFF99" /><rect x="608" y="152" width="38" height="38" fill="#FFFF99" /><rect x="646" y="152" width="38" height="38" fill="#FFFF99" /><rect x="684" y="152" width="38" height="38" fill="#FFFF99" /><rect x="722" y="152" width="38" height="38" fill="#FFFF99" /><rect x="760" y="152" width="38" height="38" fill="#FFFF99" /><rect x="0" y="190" width="38" height="38" fill="#FFFF99" /><rect x="38" y="190" width="38" height="38" fill="#66FF66" /><rect x="76" y="190" width="38" height="38" fill="#66FF66" /><rect x="114" y="190" width="38" height="38" fill="#66FF66" /><rect x="152" y="190" width="38" height="38" fill="#66FF66" /><rect x="190" y="190" width="38" height="38" fill="#66FF66" /><rect x="228" y="190" width="38" height="38" fill="#66FF66" /><rect x="266" y="190" width="38" height="38" fill="#66FF66" /><rect x="304" y="190" width="38" height="38" fill="#66FF66" /><rect x="342" y="190" width="38" height="38" fill="#66FF66" /><rect x="380" y="190" width="38" height="38" fill="#66FF66" /><rect x="418" y="190" width="38" height="38" fill="#66FF66" /><rect x="456" y="190" width="38" height="38" fill="#66FF66" /><rect x="494" y="190" width="38" height="38" fill="#66FF66" /><rect x="532" y="190" width="38" height="38" fill="#66FF66" /><rect x="570" y="190" width="38" height="38" fill="none" /><rect x="608" y="190" width="38" height="38" fill="none" /><rect x="646" y="190" width="38" height="38" fill="none" /><rect x="684" y="190" width="38" height="38" fill="none" /><rect x="722" y="190" width="38" height="38" fill="none" /><rect x="760" y="190" width="38" height="38" fill="none" /><rect x="0" y="228" width="38" height="38" fill="none" /><rect x="38" y="228" width="38" height="38" fill="none" /><rect x="76" y="228" width="38" height="38" fill="none" /><rect x="114" y="228" width="38" height="38" fill="none" /><rect x="152" y="228" width="38" height="38" fill="none" /><rect x="190" y="228" width="38" height="38" fill="none" /><rect x="228" y="228" width="38" height="38" fill="none" /><rect x="266" y="228" width="38" height="38" fill="none" /><rect x="304" y="228" width="38" height="38" fill="none" /><rect x="342" y="228" width="38" height="38" fill="none" /><rect x="380" y="228" width="38" height="38" fill="#FF6600" /><rect x="418" y="228" width="38" height="38" fill="#FF6600" /><rect x="456" y="228" width="38" height="38" fill="#FF6600" /><rect x="494" y="228" width="38" height="38" fill="#FF6600" /><rect x="532" y="228" width="38" height="38" fill="#FF6600" /><rect x="570" y="228" width="38" height="38" fill="#FF6600" /><rect x="608" y="228" width="38" height="38" fill="#FF6600" /><rect x="646" y="228" width="38" height="38" fill="#FF6600" /><rect x="684" y="228" width="38" height="38" fill="#FF6600" /><rect x="722" y="228" width="38" height="38" fill="#FF6600" /><rect x="760" y="228" width="38" height="38" fill="#FF6600" /><rect x="0" y="266" width="38" height="38" fill="#FF6600" /><rect x="38" y="266" width="38" height="38" fill="#FF6600" /><rect x="76" y="266" width="38" height="38" fill="#FF6600" /><rect x="114" y="266" width="38" height="38" fill="#FF6600" /><rect x="152" y="266" width="38" height="38" fill="#FF6600" /><rect x="190" y="266" width="38" height="38" fill="#FF6600" /><rect x="228" y="266" width="38" height="38" fill="#FF6600" /><rect x="266" y="266" width="38" height="38" fill="#FF6600" /><rect x="304" y="266" width="38" height="38" fill="#FF6600" /><rect x="342" y="266" width="38" height="38" fill="#FF6600" /><rect x="380" y="266" width="38" height="38" fill="#FF6600" /><rect x="418" y="266" width="38" height="38" fill="#FF6600" /><rect x="456" y="266" width="38" height="38" fill="#FF6600" /><rect x="494" y="266" width="38" height="38" fill="#FF6600" /><rect x="532" y="266" width="38" height="38" fill="#FF6600" /><rect x="570" y="266" width="38" height="38" fill="#FF6600" /><rect x="608" y="266" width="38" height="38" fill="#FF6600" /><rect x="646" y="266" width="38" height="38" fill="#FF6600" /><rect x="684" y="266" width="38" height="38" fill="#FF6600" /><rect x="722" y="266" width="38" height="38" fill="#FF6600" /><rect x="760" y="266" width="38" height="38" fill="#FF6600" /><rect x="0" y="304" width="38" height="38" fill="#FF6600" /><rect x="38" y="304" width="38" height="38" fill="#FF6600" /><rect x="76" y="304" width="38" height="38" fill="#FF6600" /><rect x="114" y="304" width="38" height="38" fill="#FF6600" /><rect x="152" y="304" width="38" height="38" fill="#FF6600" /><rect x="190" y="304" width="38" height="38" fill="#FF6600" /><rect x="228" y="304" width="38" height="38" fill="#FF6600" /><rect x="266" y="304" width="38" height="38" fill="#FF6600" /><rect x="304" y="304" width="38" height="38" fill="#FF6600" /><rect x="342" y="304" width="38" height="38" fill="#FF6600" /><rect x="380" y="304" width="38" height="38" fill="#FF6600" /><rect x="418" y="304" width="38" height="38" fill="#FF6600" /><rect x="456" y="304" width="38" height="38" fill="none" /><rect x="494" y="304" width="38" height="38" fill="none" /><rect x="532" y="304" width="38" height="38" fill="#6666CC" /><rect x="570" y="304" width="38" height="38" fill="#6666CC" /><rect x="608" y="304" width="38" height="38" fill="#6666CC" /><rect x="646" y="304" width="38" height="38" fill="#6666CC" /><rect x="684" y="304" width="38" height="38" fill="#6666CC" /><rect x="722" y="304" width="38" height="38" fill="#6666CC" /><rect x="760" y="304" width="38" height="38" fill="#6666CC" /><rect x="0" y="342" width="38" height="38" fill="#6666CC" /><rect x="38" y="342" width="38" height="38" fill="#6666CC" /><rect x="76" y="342" width="38" height="38" fill="#6666CC" /><rect x="114" y="342" width="38" height="38" fill="#6666CC" /><rect x="152" y="342" width="38" height="38" fill="none" /><rect x="190" y="342" width="38" height="38" fill="#FFFF99" /><rect x="228" y="342" width="38" height="38" fill="#FFFF99" /><rect x="266" y="342" width="38" height="38" fill="#FFFF99" /><rect x="304" y="342" width="38" height="38" fill="#FFFF99" /><rect x="342" y="342" width="38" height="38" fill="#FFFF99" /><rect x="380" y="342" width="38" height="38" fill="#FFFF99" /><rect x="418" y="342" width="38" height="38" fill="#FFFF99" /><rect x="456" y="342" width="38" height="38" fill="#FFFF99" /><rect x="494" y="342" width="38" height="38" fill="#FFFF99" /><rect x="532" y="342" width="38" height="38" fill="#FFFF99" /><rect x="570" y="342" width="38" height="38" fill="#FFFF99" /><rect x="608" y="342" width="38" height="38" fill="#FFFF99" /><rect x="646" y="342" width="38" height="38" fill="#FFFF99" /><rect x="684" y="342" width="38" height="38" fill="#FFFF99" /><rect x="722" y="342" width="38" height="38" fill="#FFFF99" /><rect x="760" y="342" width="38" height="38" fill="#FFFF99" /><rect x="0" y="380" width="38" height="38" fill="#FFFF99" /><rect x="38" y="380" width="38" height="38" fill="#FFFF99" /><rect x="76" y="380" width="38" height="38" fill="#FFFF99" /><rect x="114" y="380" width="38" height="38" fill="#FFFF99" /><rect x="152" y="380" width="38" height="38" fill="#FFFF99" /><rect x="190" y="380" width="38" height="38" fill="#FFFF99" /><rect x="228" y="380" width="38" height="38" fill="#FFFF99" /><rect x="266" y="380" width="38" height="38" fill="#FFFF99" /><rect x="304" y="380" width="38" height="38" fill="#FFFF99" /><rect x="342" y="380" width="38" height="38" fill="none" /><rect x="380" y="380" width="38" height="38" fill="#66FF66" /><rect x="418" y="380" width="38" height="38" fill="#66FF66" /><rect x="456" y="380" width="38" height="38" fill="#66FF66" /><rect x="494" y="380" width="38" height="38" fill="#66FF66" /><rect x="532" y="380" width="38" height="38" fill="#66FF66" /><rect x="570" y="380" width="38" height="38" fill="#66FF66" /><rect x="608" y="380" width="38" height="38" fill="#66FF66" /><rect x="646" y="380" width="38" height="38" fill="#66FF66" /><rect x="684" y="380" width="38" height="38" fill="#66FF66" /><rect x="722" y="380" width="38" height="38" fill="#66FF66" /><rect x="760" y="380" width="38" height="38" fill="#66FF66" /><rect x="0" y="418" width="38" height="38" fill="none" /><rect x="38" y="418" width="38" height="38" fill="none" /><rect x="76" y="418" width="38" height="38" fill="none" /><rect x="114" y="418" width="38" height="38" fill="none" /><rect x="152" y="418" width="38" height="38" fill="none" /><rect x="190" y="418" width="38" height="38" fill="none" /><rect x="228" y="418" width="38" height="38" fill="none" /><rect x="266" y="418" width="38" height="38" fill="none" /><rect x="304" y="418" width="38" height="38" fill="none" /><rect x="342" y="418" width="38" height="38" fill="none" /><rect x="380" y="418" width="38" height="38" fill="none" /><rect x="418" y="418" width="38" height="38" fill="none" /><rect x="456" y="418" width="38" height="38" fill="none" /><rect x="494" y="418" width="38" height="38" fill="none" /><rect x="532" y="418" width="38" height="38" fill="none" /><rect x="570" y="418" width="38" height="38" fill="none" /><rect x="608" y="418" width="38" height="38" fill="none" /><rect x="646" y="418" width="38" height="38" fill="none" /><rect x="684" y="418" width="38" height="38" fill="none" /><rect x="722" y="418" width="38" height="38" fill="#FF6600" /><rect x="760" y="418" width="38" height="38" fill="#FF6600" /><rect x="0" y="456" width="38" height="38" fill="#FF6600" /><rect x="38" y="456" width="38" height="38" fill="#FF6600" /><rect x="76" y="456" width="38" height="38" fill="#FF6600" /><rect x="114" y="456" width="38" height="38" fill="#FF6600" /><rect x="152" y="456" width="38" height="38" fill="#FF6600" /><rect x="190" y="456" width="38" height="38" fill="#FF6600" /><rect x="228" y="456" width="38" height="38" fill="#FF6600" /><rect x="266" y="456" width="38" height="38" fill="#FF6600" /><rect x="304" y="456" width="38" height="38" fill="#FF6600" /><rect x="342" y="456" width="38" height="38" fill="#FF6600" /><rect x="380" y="456" width="38" height="38" fill="#FF6600" /><rect x="418" y="456" width="38" height="38" fill="none" /><rect x="456" y="456" width="38" height="38" fill="#6666CC" /><rect x="494" y="456" width="38" height="38" fill="#6666CC" /><rect x="532" y="456" width="38" height="38" fill="#6666CC" /><rect x="570" y="456" width="38" height="38" fill="#6666CC" /><rect x="608" y="456" width="38" height="38" fill="#6666CC" /><rect x="646" y="456" width="38" height="38" fill="#6666CC" /><rect x="684" y="456" width="38" height="38" fill="#6666CC" /><rect x="722" y="456" width="38" height="38" fill="#6666CC" /><rect x="760" y="456" width="38" height="38" fill="#6666CC" /><rect x="0" y="494" width="38" height="38" fill="#6666CC" /><rect x="38" y="494" width="38" height="38" fill="#6666CC" /><rect x="76" y="494" width="38" height="38" fill="#6666CC" /><rect x="114" y="494" width="38" height="38" fill="#6666CC" /><rect x="152" y="494" width="38" height="38" fill="none" /><rect x="190" y="494" width="38" height="38" fill="#FFFF99" /><rect x="228" y="494" width="38" height="38" fill="#FFFF99" /><rect x="266" y="494" width="38" height="38" fill="#FFFF99" /><rect x="304" y="494" width="38" height="38" fill="#FFFF99" /><rect x="342" y="494" width="38" height="38" fill="#FFFF99" /><rect x="380" y="494" width="38" height="38" fill="#FFFF99" /><rect x="418" y="494" width="38" height="38" fill="#FFFF99" /><rect x="456" y="494" width="38" height="38" fill="#FFFF99" /><rect x="494" y="494" width="38" height="38" fill="#FFFF99" /><rect x="532" y="494" width="38" height="38" fill="#FFFF99" /><rect x="570" y="494" width="38" height="38" fill="#FFFF99" /><rect x="608" y="494" width="38" height="38" fill="#FFFF99" /><rect x="646" y="494" width="38" height="38" fill="#FFFF99" /><rect x="684" y="494" width="38" height="38" fill="#FFFF99" /><rect x="722" y="494" width="38" height="38" fill="#FFFF99" /><rect x="760" y="494" width="38" height="38" fill="none" /><rect x="0" y="532" width="38" height="38" fill="#66FF66" /><rect x="38" y="532" width="38" height="38" fill="#66FF66" /><rect x="76" y="532" width="38" height="38" fill="#66FF66" /><rect x="114" y="532" width="38" height="38" fill="#66FF66" /><rect x="152" y="532" width="38" height="38" fill="#66FF66" /><rect x="190" y="532" width="38" height="38" fill="#66FF66" /><rect x="228" y="532" width="38" height="38" fill="#66FF66" /><rect x="266" y="532" width="38" height="38" fill="#66FF66" /><rect x="304" y="532" width="38" height="38" fill="#FF6600" /><rect x="342" y="532" width="38" height="38" fill="#FF6600" /><rect x="380" y="532" width="38" height="38" fill="#FF6600" /><rect x="418" y="532" width="38" height="38" fill="#FF6600" /><rect x="456" y="532" width="38" height="38" fill="#FF6600" /><rect x="494" y="532" width="38" height="38" fill="#FF6600" /><rect x="532" y="532" width="38" height="38" fill="#FF6600" /><rect x="570" y="532" width="38" height="38" fill="#FF6600" /><rect x="608" y="532" width="38" height="38" fill="#FF6600" /><rect x="646" y="532" width="38" height="38" fill="#FF6600" /><rect x="684" y="532" width="38" height="38" fill="#FF6600" /><rect x="722" y="532" width="38" height="38" fill="#FF6600" /><rect x="760" y="532" width="38" height="38" fill="#FF6600" /><rect x="0" y="570" width="38" height="38" fill="#FF6600" /><rect x="38" y="570" width="38" height="38" fill="#FF6600" /><rect x="76" y="570" width="38" height="38" fill="#FF6600" /><rect x="114" y="570" width="38" height="38" fill="#FF6600" /><rect x="152" y="570" width="38" height="38" fill="#FF6600" /><rect x="190" y="570" width="38" height="38" fill="#FF6600" /><rect x="228" y="570" width="38" height="38" fill="#FF6600" /><rect x="266" y="570" width="38" height="38" fill="#FF6600" /><rect x="304" y="570" width="38" height="38" fill="#FF6600" /><rect x="342" y="570" width="38" height="38" fill="#FF6600" /><rect x="380" y="570" width="38" height="38" fill="#FF6600" /><rect x="418" y="570" width="38" height="38" fill="#FF6600" /><rect x="456" y="570" width="38" height="38" fill="#FF6600" /><rect x="494" y="570" width="38" height="38" fill="#FF6600" /><rect x="532" y="570" width="38" height="38" fill="#FF6600" /><rect x="570" y="570" width="38" height="38" fill="#FF6600" /><rect x="608" y="570" width="38" height="38" fill="#FF6600" /><rect x="646" y="570" width="38" height="38" fill="#6666CC" /><rect x="684" y="570" width="38" height="38" fill="#6666CC" /><rect x="722" y="570" width="38" height="38" fill="#6666CC" /><rect x="760" y="570" width="38" height="38" fill="#6666CC" /><rect x="0" y="608" width="38" height="38" fill="#6666CC" /><rect x="38" y="608" width="38" height="38" fill="#6666CC" /><rect x="76" y="608" width="38" height="38" fill="#6666CC" /><rect x="114" y="608" width="38" height="38" fill="#6666CC" /><rect x="152" y="608" width="38" height="38" fill="#6666CC" /><rect x="190" y="608" width="38" height="38" fill="#6666CC" /><rect x="228" y="608" width="38" height="38" fill="#6666CC" /><rect x="266" y="608" width="38" height="38" fill="#6666CC" /><rect x="304" y="608" width="38" height="38" fill="#6666CC" /><rect x="342" y="608" width="38" height="38" fill="#6666CC" /><rect x="380" y="608" width="38" height="38" fill="#6666CC" /><rect x="418" y="608" width="38" height="38" fill="#6666CC" /><rect x="456" y="608" width="38" height="38" fill="#FFFF99" /><rect x="494" y="608" width="38" height="38" fill="#FFFF99" /><rect x="532" y="608" width="38" height="38" fill="#FFFF99" /><rect x="570" y="608" width="38" height="38" fill="#FFFF99" /><rect x="608" y="608" width="38" height="38" fill="#FFFF99" /><rect x="646" y="608" width="38" height="38" fill="#FFFF99" /><rect x="684" y="608" width="38" height="38" fill="#FFFF99" /><rect x="722" y="608" width="38" height="38" fill="#FFFF99" /><rect x="760" y="608" width="38" height="38" fill="#FFFF99" /><rect x="0" y="646" width="38" height="38" fill="#FFFF99" /><rect x="38" y="646" width="38" height="38" fill="#FFFF99" /><rect x="76" y="646" width="38" height="38" fill="#FFFF99" /><rect x="114" y="646" width="38" height="38" fill="#FFFF99" /><rect x="152" y="646" width="38" height="38" fill="#FFFF99" /><rect x="190" y="646" width="38" height="38" fill="#FFFF99" /><rect x="228" y="646" width="38" height="38" fill="#FFFF99" /><rect x="266" y="646" width="38" height="38" fill="#FFFF99" /><rect x="304" y="646" width="38" height="38" fill="#FFFF99" /><rect x="342" y="646" width="38" height="38" fill="#FFFF99" /><rect x="380" y="646" width="38" height="38" fill="#FFFF99" /><rect x="418" y="646" width="38" height="38" fill="#FFFF99" /><rect x="456" y="646" width="38" height="38" fill="#FFFF99" /><rect x="494" y="646" width="38" height="38" fill="#FFFF99" /><rect x="532" y="646" width="38" height="38" fill="#FFFF99" /><rect x="570" y="646" width="38" height="38" fill="#66FF66" /><rect x="608" y="646" width="38" height="38" fill="#66FF66" /><rect x="646" y="646" width="38" height="38" fill="#66FF66" /><rect x="684" y="646" width="38" height="38" fill="#66FF66" /><rect x="722" y="646" width="38" height="38" fill="#66FF66" /><rect x="760" y="646" width="38" height="38" fill="#66FF66" /><rect x="0" y="684" width="38" height="38" fill="#66FF66" /><rect x="38" y="684" width="38" height="38" fill="#66FF66" /><rect x="76" y="684" width="38" height="38" fill="#66FF66" /><rect x="114" y="684" width="38" height="38" fill="#66FF66" /><rect x="152" y="684" width="38" height="38" fill="#66FF66" /><rect x="190" y="684" width="38" height="38" fill="#66FF66" /><rect x="228" y="684" width="38" height="38" fill="#66FF66" /><rect x="266" y="684" width="38" height="38" fill="none" /><rect x="304" y="684" width="38" height="38" fill="none" /><rect x="342" y="684" width="38" height="38" fill="none" /><rect x="380" y="684" width="38" height="38" fill="none" /><rect x="418" y="684" width="38" height="38" fill="none" /><rect x="456" y="684" width="38" height="38" fill="none" /><rect x="494" y="684" width="38" height="38" fill="none" /><rect x="532" y="684" width="38" height="38" fill="none" /><rect x="570" y="684" width="38" height="38" fill="none" /><rect x="608" y="684" width="38" height="38" fill="none" /><rect x="646" y="684" width="38" height="38" fill="none" /><rect x="684" y="684" width="38" height="38" fill="none" /><rect x="722" y="684" width="38" height="38" fill="none" /><rect x="760" y="684" width="38" height="38" fill="none" /><rect x="0" y="722" width="38" height="38" fill="none" /><rect x="38" y="722" width="38" height="38" fill="none" /><rect x="76" y="722" width="38" height="38" fill="none" /><rect x="114" y="722" width="38" height="38" fill="none" /><rect x="152" y="722" width="38" height="38" fill="none" /><rect x="190" y="722" width="38" height="38" fill="none" /><rect x="228" y="722" width="38" height="38" fill="none" /><rect x="266" y="722" width="38" height="38" fill="none" /><rect x="304" y="722" width="38" height="38" fill="none" /><rect x="342" y="722" width="38" height="38" fill="none" /><rect x="380" y="722" width="38" height="38" fill="none" /></svg>