<?xml version="1.0" encoding="UTF-8"?>
<svg xmlns="http://www.w3.org/2000/svg" version="1.1" height="800" width="800"><rect x="0" y="0" width="800" height="800" fill="rgb(192,192,192)" /><rect x="0" y="0" width="50" height="50" fill="none" /><rect x="50" y="0" width="50" height="50" fill="none" /><rect x="100" y="0" width="50" height="50" fill="none" /><rect x="150" y="0" width="50" height="50" fill="none" /><rect x="200" y="0" width="50" height="50" fill="none" /><rect x="250" y="0" width="50" height="50" fill="none" /><rect x="300" y="0" width="50" height="50" fill="none" /><rect x="350" y="0" width="50" height="50" fill="none" /><rect x="400" y="0" width="50" height="50" fill="none" /><rect x="450" y="0" width="50" height="50" fill="none" /><rect x="500" y="0" width="50" height="50" fill="none" /><rect x="550" y="0" width="50" height="50" fill="none" /><rect x="600" y="0" width="50" height="50" fill="none" /><rect x="650" y="0" width="50" height="50" fill="none" /><rect x="700" y="0" width="50" height="50" fill="#FF6600" /><rect x="750" y="0" width="50" height="50" fill="#FF6600" /><rect x="0" y="50" width="50" height="50" fill="#FF6600" /><rect x="50" y="50" width="50" height="50" fill="#FF6600" /><rect x="100" y="50" width="50" height="50" fill="#6666CC" /><rect x="150" y="50" width="50" height="50" fill="#6666CC" /><rect x="200" y="50" width="50" height="50" fill="#FFFF99" /><rect x="250" y="50" width="50" height="50" fill="#66FF66" /><rect x="300" y="50" width="50" height="50" fill="#66FF66" /><rect x="350" y="50" width="50" height="50" fill="#66FF66" /><rect x="400" y="50" width="50" height="50" fill="#FF6600" /><rect x="450" y="50" width="50" height="50" fill="#FF6600" /><rect x="500" y="50" width="50" height="50" fill="#FF6600" /><rect x="550" y="50" width="50" height="50" fill="#FF6600" /><rect x="600" y="50" width="50" height="50" fill="#6666CC" /><rect x="650" y="50" width="50" height="50" fill="#6666CC" /><rect x="700" y="50" width="50" height="50" fill="#6666CC" /><rect x="750" y="50" width="50" height="50" fill="#6666CC" /><rect x="0" y="100" width="50" height="50" fill="#6666CC" /><rect x="50" y="100" width="50" height="50" fill="#6666CC" /><rect x="100" y="100" width="50" height="50" fill="#6666CC" /><rect x="150" y="100" width="50" height="50" fill="#6666CC" /><rect x="200" y="100" width="50" height="50" fill="#6666CC" /><rect x="250" y="100" width="50" height="50" fill="none" /><rect x="300" y="100" width="50" height="50" fill="none" /><rect x="350" y="100" width="50" height="50" fill="none" /><rect x="400" y="100" width="50" height="50" fill="none" /><rect x="450" y="100" width="50" height="50" fill="none" /><rect x="500" y="100" width="50" height="50" fill="none" /><rect x="550" y="100" width="50" height="50" fill="none" /><rect x="600" y="100" width="50" height="50" fill="none" /><rect x="650" y="100" width="50" height="50" fill="none" /><rect x="700" y="100" width="50" height="50" fill="none" /><rect x="750" y="100" width="50" height="50" fill="none" /><rect x="0" y="150" width="50" height="50" fill="none" /><rect x="50" y="150" width="50" height="50" fill="none" /><rect x="100" y="150" width="50" height="50" fill="none" /><rect x="150" y="150" width="50" height="50" fill="none" /><rect x="200" y="150" width="50" height="50" fill="none" /><rect x="250" y="150" width="50" height="50" fill="none" /><rect x="300" y="150" width="50" height="50" fill="none" /><rect x="350" y="150" width="50" height="50" fill="none" /><rect x="400" y="150" width="50" height="50" fill="none" /><rect x="450" y="150" width="50" height="50" fill="none" /><rect x="500" y="150" width="50" height="50" fill="none" /><rect x="550" y="150" width="50" height="50" fill="none" /><rect x="600" y="150" width="50" height="50" fill="#FFFF99" /><rect x="650" y="150" width="50" height="50" fill="#FFFF99" /><rect x="700" y="150" width="50" height="50" fill="#FFFF99" /><rect x="750" y="150" width="50" height="50" fill="#FFFF99" /><rect x="0" y="200" width="50" height="50" fill="#FFFF99" /><rect x="50" y="200" width="50" height="50" fill="#FFFF99" /><rect x="100" y="200" width="50" height="50" fill="#FFFF99" /><rect x="150" y="200" width="50" height="50" fill="#FFFF99" /><rect x="200" y="200" width="50" height="50" fill="#FFFF99" /><rect x="250" y="200" width="50" height="50" fill="none" /><rect x="300" y="200" width="50" height="50" fill="#66FF66" /><rect x="350" y="200" width="50" height="50" fill="#66FF66" /><rect x="400" y="200" width="50" height="50" fill="#FF6600" /><rect x="450" y="200" width="50" height="50" fill="#FF6600" /><rect x="500" y="200" width="50" height="50" fill="#FF6600" /><rect x="550" y="200" width="50" height="50" fill="#FF6600" /><rect x="600" y="200" width="50" height="50" fill="#FF6600" /><rect x="650" y="200" width="50" height="50" fill="#FF6600" /><rect x="700" y="200" width="50" height="50" fill="#FF6600" /><rect x="750" y="200" width="50" height="50" fill="#FF6600" /><rect x="0" y="250" width="50" height="50" fill="#FF6600" /><rect x="50" y="250" width="50" height="50" fill="#FF6600" /><rect x="100" y="250" width="50" height="50" fill="#FF6600" /><rect x="150" y="250" width="50" height="50" fill="#6666CC" /><rect x="200" y="250" width="50" height="50" fill="#6666CC" /><rect x="250" y="250" width="50" height="50" fill="#6666CC" /><rect x="300" y="250" width="50" height="50" fill="#6666CC" /><rect x="350" y="250" width="50" height="50" fill="#6666CC" /><rect x="400" y="250" width="50" height="50" fill="#6666CC" /><rect x="450" y="250" width="50" height="50" fill="#6666CC" /><rect x="500" y="250" width="50" height="50" fill="#6666CC" /><rect x="550" y="250" width="50" height="50" fill="#6666CC" /><rect x="600" y="250" width="50" height="50" fill="#FFFF99" /><rect x="650" y="250" width="50" height="50" fill="#FFFF99" /><rect x="700" y="250" width="50" height="50" fill="#FFFF99" /><rect x="750" y="250" width="50" height="50" fill="#FFFF99" /><rect x="0" y="300" width="50" height="50" fill="#FFFF99" /><rect x="50" y="300" width="50" height="50" fill="#FFFF99" /><rect x="100" y="300" width="50" height="50" fill="#FFFF99" /><rect x="150" y="300" width="50" height="50" fill="#FFFF99" /><rect x="200" y="300" width="50" height="50" fill="none" /><rect x="250" y="300" width="50" height="50" fill="none" /><rect x="300" y="300" width="50" height="50" fill="#66FF66" /><rect x="350" y="300" width="50" height="50" fill="#FF6600" /><rect x="400" y="300" width="50" height="50" fill="#FF6600" /><rect x="450" y="300" width="50" height="50" fill="#FF6600" /><rect x="500" y="300" width="50" height="50" fill="none" /><rect x="550" y="300" width="50" height="50" fill="none" /><rect x="600" y="300" width="50" height="50" fill="none" /><rect x="650" y="300" width="50" height="50" fill="none" /><rect x="700" y="300" width="50" height="50" fill="none" /><rect x="750" y="300" width="50" height="50" fill="none" /><rect x="0" y="350" width="50" height="50" fill="none" /><rect x="50" y="350" width="50" height="50" fill="none" /><rect x="100" y="350" width="50" height="50" fill="none" /><rect x="150" y="350" width="50" height="50" fill="none" /><rect x="200" y="350" width="50" height="50" fill="none" /><rect x="250" y="350" width="50" height="50" fill="none" /><rect x="300" y="350" width="50" height="50" fill="none" /><rect x="350" y="350" width="50" height="50" fill="none" /><rect x="400" y="350" width="50" height="50" fill="none" /><rect x="450" y="350" width="50" height="50" fill="none" /><rect x="500" y="350" width="50" height="50" fill="none" /><rect x="550" y="350" width="50" height="50" fill="none" /><rect x="600" y="350" width="50" height="50" fill="none" /><rect x="650" y="350" width="50" height="50" fill="none" /><rect x="700" y="350" width="50" height="50" fill="none" /><rect x="750" y="350" width="50" height="50" fill="none" /><rect x="0" y="400" width="50" height="50" fill="none" /><rect x="50" y="400" width="50" height="50" fill="none" /><rect x="100" y="400" width="50" height="50" fill="none" /><rect x="150" y="400" width="50" height="50" fill="none" /><rect x="200" y="400" width="50" height="50" fill="none" /><rect x="250" y="400" width="50" height="50" fill="none" /><rect x="300" y="400" width="50" height="50" fill="none" /><rect x="350" y="400" width="50" height="50" fill="none" /><rect x="400" y="400" width="50" height="50" fill="none" /><rect x="450" y="400" width="50" height="50" fill="none" /><rect x="500" y="400" width="50" height="50" fill="none" /><rect x="550" y="400" width="50" height="50" fill="none" /><rect x="600" y="400" width="50" height="50" fill="none" /><rect x="650" y="400" width="50" height="50" fill="none" /><rect x="700" y="400" width="50" height="50" fill="none" /><rect x="750" y="400" width="50" height="50" fill="#6666CC" /><rect x="0" y="450" width="50" height="50" fill="#6666CC" /><rect x="50" y="450" width="50" height="50" fill="#6666CC" /><rect x="100" y="450" width="50" height="50" fill="#6666CC" /><rect x="150" y="450" width="50" height="50" fill="#6666CC" /><rect x="200" y="450" width="50" height="50" fill="#6666CC" /><rect x="250" y="450" width="50" height="50" fill="#6666CC" /><rect x="300" y="450" width="50" height="50" fill="#6666CC" /><rect x="350" y="450" width="50" height="50" fill="#6666CC" /><rect x="400" y="450" width="50" height="50" fill="#6666CC" /><rect x="450" y="450" width="50" height="50" fill="#6666CC" /><rect x="500" y="450" width="50" height="50" fill="#6666CC" /><rect x="550" y="450" width="50" height="50" fill="#FFFF99" /><rect x="600" y="450" width="50" height="50" fill="#FFFF99" /><rect x="650" y="450" width="50" height="50" fill="#FFFF99" /><rect x="700" y="450" width="50" height="50" fill="#FFFF99" /><rect x="750" y="450" width="50" height="50" fill="#FFFF99" /><rect x="0" y="500" width="50" height="50" fill="none" /><rect x="50" y="500" width="50" height="50" fill="none" /><rect x="100" y="500" width="50" height="50" fill="none" /><rect x="150" y="500" width="50" height="50" fill="none" /><rect x="200" y="500" width="50" height="50" fill="none" /><rect x="250" y="500" width="50" height="50" fill="none" /><rect x="300" y="500" width="50" height="50" fill="none" /><rect x="350" y="500" width="50" height="50" fill="none" /><rect x="400" y="500" width="50" height="50" fill="#66FF66" /><rect x="450" y="500" width="50" height="50" fill="#66FF66" /><rect x="500" y="500" width="50" height="50" fill="#66FF66" /><rect x="550" y="500" width="50" height="50" fill="#66FF66" /><rect x="600" y="500" width="50" height="50" fill="#66FF66" /><rect x="650" y="500" width="50" height="50" fill="#66FF66" /><rect x="700" y="500" width="50" height="50" fill="#66FF66" /><rect x="750" y="500" width="50" height="50" fill="#66FF66" /><rect x="0" y="550" width="50" height="50" fill="#FF6600" /><rect x="50" y="550" width="50" height="50" fill="#FF6600" /><rect x="100" y="550" width="50" height="50" fill="#FF6600" /><rect x="150" y="550" width="50" height="50" fill="#FF6600" /><rect x="200" y="550" width="50" height="50" fill="#FF6600" /><rect x="250" y="550" width="50" height="50" fill="#FF6600" /><rect x="300" y="550" width="50" height="50" fill="#FF6600" /><rect x="350" y="550" width="50" height="50" fill="#FF6600" /><rect x="400" y="550" width="50" height="50" fill="#FF6600" /><rect x="450" y="550" width="50" height="50" fill="#FF6600" /><rect x="500" y="550" width="50" height="50" fill="#6666CC" /><rect x="550" y="550" width="50" height="50" fill="#6666CC" /><rect x="600" y="550" width="50" height="50" fill="#FFFF99" /><rect x="650" y="550" width="50" height="50" fill="#FFFF99" /><rect x="700" y="550" width="50" height="50" fill="#66FF66" /><rect x="750" y="550" width="50" height="50" fill="#FF6600" /><rect x="0" y="600" width="50" height="50" fill="#6666CC" /><rect x="50" y="600" width="50" height="50" fill="#6666CC" /><rect x="100" y="600" width="50" height="50" fill="#6666CC" /><rect x="150" y="600" width="50" height="50" fill="#6666CC" /><rect x="200" y="600" width="50" height="50" fill="#6666CC" /><rect x="250" y="600" width="50" height="50" fill="#6666CC" /><rect x="300" y="600" width="50" height="50" fill="#6666CC" /><rect x="350" y="600" width="50" height="50" fill="#6666CC" /><rect x="400" y="600" width="50" height="50" fill="#FFFF99" /><rect x="450" y="600" width="50" height="50" fill="#FFFF99" /><rect x="500" y="600" width="50" height="50" fill="#66FF66" /><rect x="550" y="600" width="50" height="50" fill="#66FF66" /><rect x="600" y="600" width="50" height="50" fill="#66FF66" /><rect x="650" y="600" width="50" height="50" fill="#66FF66" /><rect x="700" y="600" width="50" height="50" fill="#FF6600" /><rect x="750" y="600" width="50" height="50" fill="#FF6600" /><rect x="0" y="650" width="50" height="50" fill="#FF6600" /><rect x="50" y="650" width="50" height="50" fill="none" /><rect x="100" y="650" width="50" height="50" fill="#6666CC" /><rect x="150" y="650" width="50" height="50" fill="#FFFF99" /><rect x="200" y="650" width="50" height="50" fill="none" /><rect x="250" y="650" width="50" height="50" fill="none" /><rect x="300" y="650" width="50" height="50" fill="none" /><rect x="350" y="650" width="50" height="50" fill="none" /><rect x="400" y="650" width="50" height="50" fill="none" /><rect x="450" y="650" width="50" height="50" fill="none" /><rect x="500" y="650" width="50" height="50" fill="none" /><rect x="550" y="650" width="50" height="50" fill="none" /><rect x="600" y="650" width="50" height="50" fill="none" /><rect x="650" y="650" width="50" height="50" fill="none" /><rect x="700" y="650" width="50" height="50" fill="none" /><rect x="750" y="650" width="50" height="50" fill="none" /><rect x="0" y="700" width="50" height="50" fill="none" /><rect x="50" y="700" width="50" height="50" fill="none" /><rect x="100" y="700" width="50" height="50" fill="none" /><rect x="150" y="700" width="50" height="50" fill="none" /><rect x="200" y="700" width="50" height="50" fill="none" /><rect x="250" y="700" width="50" height="50" fill="none" /></svg>