<?xml version="1.0" encoding="UTF-8"?>
<svg xmlns="http://www.w3.org/2000/svg" version="1.1" height="800" width="800"><rect x="0" y="0" width="800" height="800" fill="rgb(192,192,192)" /><rect x="0" y="0" width="100" height="100" fill="none" /><rect x="100" y="0" width="100" height="100" fill="none" /><rect x="200" y="0" width="100" height="100" fill="none" /><rect x="300" y="0" width="100" height="100" fill="none" /><rect x="400" y="0" width="100" height="100" fill="none" /><rect x="500" y="0" width="100" height="100" fill="none" /><rect x="600" y="0" width="100" height="100" fill="none" /><rect x="700" y="0" width="100" height="100" fill="none" /><rect x="0" y="100" width="100" height="100" fill="none" /><rect x="100" y="100" width="100" height="100" fill="none" /><rect x="200" y="100" width="100" height="100" fill="none" /><rect x="300" y="100" width="100" height="100" fill="none" /><rect x="400" y="100" width="100" height="100" fill="none" /><rect x="500" y="100" width="100" height="100" fill="none" /><rect x="600" y="100" width="100" height="100" fill="none" /><rect x="700" y="100" width="100" height="100" fill="none" /><rect x="0" y="200" width="100" height="100" fill="none" /><rect x="100" y="200" width="100" height="100" fill="none" /><rect x="200" y="200" width="100" height="100" fill="#FF6600" /><rect x="300" y="200" width="100" height="100" fill="#FF6600" /><rect x="400" y="200" width="100" height="100" fill="#FF6600" /><rect x="500" y="200" width="100" height="100" fill="#FF6600" /><rect x="600" y="200" width="100" height="100" fill="#FF6600" /><rect x="700" y="200" width="100" height="100" fill="#FF6600" /><rect x="0" y="300" width="100" height="100" fill="#FF6600" /><rect x="100" y="300" width="100" height="100" fill="#FF6600" /><rect x="200" y="300" width="100" height="100" fill="#FF6600" /><rect x="300" y="300" width="100" height="100" fill="#FF6600" /><rect x="400" y="300" width="100" height="100" fill="none" /><rect x="500" y="300" width="100" height="100" fill="none" /><rect x="600" y="300" width="100" height="100" fill="none" /><rect x="700" y="300" width="100" height="100" fill="none" /><rect x="0" y="400" width="100" height="100" fill="none" /><rect x="100" y="400" width="100" height="100" fill="none" /><rect x="200" y="400" width="100" height="100" fill="none" /><rect x="300" y="400" width="100" height="100" fill="none" /><rect x="400" y="400" width="100" height="100" fill="none" /><rect x="500" y="400" width="100" height="100" fill="none" /><rect x="600" y="400" width="100" height="100" fill="none" /><rect x="700" y="400" width="100" height="100" fill="none" /><rect x="0" y="500" width="100" height="100" fill="none" /><rect x="100" y="500" width="100" height="100" fill="none" /><rect x="200" y="500" width="100" height="100" fill="none" /><rect x="300" y="500" width="100" height="100" fill="none" /><rect x="400" y="500" width="100" height="100" fill="none" /><rect x="500" y="500" width="100" height="100" fill="none" /><rect x="600" y="500" width="100" height="100" fill="none" /><rect x="700" y="500" width="100" height="100" fill="none" /><rect x="0" y="600" width="100" height="100" fill="none" /><rect x="100" y="600" width="100" height="100" fill="none" /><rect x="200" y="600" width="100" height="100" fill="none" /><rect x="300" y="600" width="100" height="100" fill="none" /><rect x="400" y="600" width="100" height="100" fill="none" /><rect x="500" y="600" width="100" height="100" fill="none" /><rect x="600" y="600" width="100" height="100" fill="none" /><rect x="700" y="600" width="100" height="100" fill="none" /><rect x="0" y="700" width="100" height="100" fill="none" /><rect x="100" y="700" width="100" height="100" fill="none" /><rect x="200" y="700" width="100" height="100" fill="none" /><rect x="300" y="700" width="100" height="100" fill="none" /></svg>