<?xml version="1.0" encoding="UTF-8"?>
<svg xmlns="http://www.w3.org/2000/svg" version="1.1" height="800" width="800"><rect x="0" y="0" width="800" height="800" fill="rgb(192,192,192)" /><rect x="0" y="0" width="88" height="88" fill="none" /><rect x="88" y="0" width="88" height="88" fill="none" /><rect x="176" y="0" width="88" height="88" fill="none" /><rect x="264" y="0" width="88" height="88" fill="none" /><rect x="352" y="0" width="88" height="88" fill="#FF6600" /><rect x="440" y="0" width="88" height="88" fill="#FF6600" /><rect x="528" y="0" width="88" height="88" fill="#FF6600" /><rect x="616" y="0" width="88" height="88" fill="#FF6600" /><rect x="704" y="0" width="88" height="88" fill="#FF6600" /><rect x="0" y="88" width="88" height="88" fill="#FF6600" /><rect x="88" y="88" width="88" height="88" fill="#FF6600" /><rect x="176" y="88" width="88" height="88" fill="#FF6600" /><rect x="264" y="88" width="88" height="88" fill="#FF6600" /><rect x="352" y="88" width="88" height="88" fill="#FF6600" /><rect x="440" y="88" width="88" height="88" fill="#6666CC" /><rect x="528" y="88" width="88" height="88" fill="#6666CC" /><rect x="616" y="88" width="88" height="88" fill="#6666CC" /><rect x="704" y="88" width="88" height="88" fill="#6666CC" /><rect x="0" y="176" width="88" height="88" fill="#FFFF99" /><rect x="88" y="176" width="88" height="88" fill="#FFFF99" /><rect x="176" y="176" width="88" height="88" fill="#FFFF99" /><rect x="264" y="176" width="88" height="88" fill="#FFFF99" /><rect x="352" y="176" width="88" height="88" fill="#FFFF99" /><rect x="440" y="176" width="88" height="88" fill="#FFFF99" /><rect x="528" y="176" width="88" height="88" fill="#FFFF99" /><rect x="616" y="176" width="88" height="88" fill="#FFFF99" /><rect x="704" y="176" width="88" height="88" fill="#FFFF99" /><rect x="0" y="264" width="88" height="88" fill="#FFFF99" /><rect x="88" y="264" width="88" height="88" fill="#FFFF99" /><rect x="176" y="264" width="88" height="88" fill="#FFFF99" /><rect x="264" y="264" width="88" height="88" fill="#FFFF99" /><rect x="352" y="264" width="88" height="88" fill="#FFFF99" /><rect x="440" y="264" width="88" height="88" fill="#FFFF99" /><rect x="528" y="264" width="88" height="88" fill="none" /><rect x="616" y="264" width="88" height="88" fill="#66FF66" /><rect x="704" y="264" width="88" height="88" fill="#66FF66" /><rect x="0" y="352" width="88" height="88" fill="#66FF66" /><rect x="88" y="352" width="88" height="88" fill="#66FF66" /><rect x="176" y="352" width="88" height="88" fill="#66FF66" /><rect x="264" y="352" width="88" height="88" fill="none" /><rect x="352" y="352" width="88" height="88" fill="#FF6600" /><rect x="440" y="352" width="88" height="88" fill="#FF6600" /><rect x="528" y="352" width="88" height="88" fill="#FF6600" /><rect x="616" y="352" width="88" height="88" fill="#FF6600" /><rect x="704" y="352" width="88" height="88" fill="#FF6600" /><rect x="0" y="440" width="88" height="88" fill="#FF6600" /><rect x="88" y="440" width="88" height="88" fill="#FF6600" /><rect x="176" y="440" width="88" height="88" fill="#FF6600" /><rect x="264" y="440" width="88" height="88" fill="#FF6600" /><rect x="352" y="440" width="88" height="88" fill="#FF6600" /><rect x="440" y="440" width="88" height="88" fill="#FF6600" /><rect x="528" y="440" width="88" height="88" fill="none" /><rect x="616" y="440" width="88" height="88" fill="#6666CC" /><rect x="704" y="440" width="88" height="88" fill="#6666CC" /><rect x="0" y="528" width="88" height="88" fill="#6666CC" /><rect x="88" y="528" width="88" height="88" fill="#6666CC" /><rect x="176" y="528" width="88" height="88" fill="#6666CC" /><rect x="264" y="528" width="88" height="88" fill="none" /><rect x="352" y="528" width="88" height="88" fill="#FFFF99" /><rect x="440" y="528" width="88" height="88" fill="#FFFF99" /><rect x="528" y="528" width="88" height="88" fill="#FFFF99" /><rect x="616" y="528" width="88" height="88" fill="#FFFF99" /><rect x="704" y="528" width="88" height="88" fill="#FFFF99" /><rect x="0" y="616" width="88" height="88" fill="#FFFF99" /><rect x="88" y="616" width="88" height="88" fill="#FFFF99" /><rect x="176" y="616" width="88" height="88" fill="#FFFF99" /><rect x="264" y="616" width="88" height="88" fill="#FFFF99" /><rect x="352" y="616" width="88" height="88" fill="#FFFF99" /><rect x="440" y="616" width="88" height="88" fill="#FFFF99" /><rect x="528" y="616" width="88" height="88" fill="#FFFF99" /><rect x="616" y="616" width="88" height="88" fill="#66FF66" /><rect x="704" y="616" width="88" height="88" fill="#66FF66" /><rect x="0" y="704" width="88" height="88" fill="#FF6600" /><rect x="88" y="704" width="88" height="88" fill="#FF6600" /><rect x="176" y="704" width="88" height="88" fill="none" /><rect x="264" y="704" width="88" height="88" fill="none" /></svg>