<?xml version="1.0" encoding="UTF-8"?>
<svg xmlns="http://www.w3.org/2000/svg" version="1.1" height="800" width="800"><rect x="0" y="0" width="800" height="800" fill="rgb(192,192,192)" /><rect x="0" y="0" width="80" height="80" fill="none" /><rect x="80" y="0" width="80" height="80" fill="none" /><rect x="160" y="0" width="80" height="80" fill="none" /><rect x="240" y="0" width="80" height="80" fill="none" /><rect x="320" y="0" width="80" height="80" fill="#FF6600" /><rect x="400" y="0" width="80" height="80" fill="#FF6600" /><rect x="480" y="0" width="80" height="80" fill="#FF6600" /><rect x="560" y="0" width="80" height="80" fill="#FF6600" /><rect x="640" y="0" width="80" height="80" fill="#FF6600" /><rect x="720" y="0" width="80" height="80" fill="#FF6600" /><rect x="0" y="80" width="80" height="80" fill="#FF6600" /><rect x="80" y="80" width="80" height="80" fill="#FF6600" /><rect x="160" y="80" width="80" height="80" fill="#FF6600" /><rect x="240" y="80" width="80" height="80" fill="#FF6600" /><rect x="320" y="80" width="80" height="80" fill="#FF6600" /><rect x="400" y="80" width="80" height="80" fill="#FF6600" /><rect x="480" y="80" width="80" height="80" fill="#FF6600" /><rect x="560" y="80" width="80" height="80" fill="#FF6600" /><rect x="640" y="80" width="80" height="80" fill="#6666CC" /><rect x="720" y="80" width="80" height="80" fill="#6666CC" /><rect x="0" y="160" width="80" height="80" fill="#6666CC" /><rect x="80" y="160" width="80" height="80" fill="#6666CC" /><rect x="160" y="160" width="80" height="80" fill="#6666CC" /><rect x="240" y="160" width="80" height="80" fill="#6666CC" /><rect x="320" y="160" width="80" height="80" fill="#6666CC" /><rect x="400" y="160" width="80" height="80" fill="#6666CC" /><rect x="480" y="160" width="80" height="80" fill="#6666CC" /><rect x="560" y="160" width="80" height="80" fill="#6666CC" /><rect x="640" y="160" width="80" height="80" fill="#6666CC" /><rect x="720" y="160" width="80" height="80" fill="#6666CC" /><rect x="0" y="240" width="80" height="80" fill="#6666CC" /><rect x="80" y="240" width="80" height="80" fill="#6666CC" /><rect x="160" y="240" width="80" height="80" fill="#6666CC" /><rect x="240" y="240" width="80" height="80" fill="none" /><rect x="320" y="240" width="80" height="80" fill="#FFFF99" /><rect x="400" y="240" width="80" height="80" fill="#FFFF99" /><rect x="480" y="240" width="80" height="80" fill="#FFFF99" /><rect x="560" y="240" width="80" height="80" fill="#FFFF99" /><rect x="640" y="240" width="80" height="80" fill="#FFFF99" /><rect x="720" y="240" width="80" height="80" fill="#FFFF99" /><rect x="0" y="320" width="80" height="80" fill="#FFFF99" /><rect x="80" y="320" width="80" height="80" fill="#FFFF99" /><rect x="160" y="320" width="80" height="80" fill="#FFFF99" /><rect x="240" y="320" width="80" height="80" fill="#FFFF99" /><rect x="320" y="320" width="80" height="80" fill="#66FF66" /><rect x="400" y="320" width="80" height="80" fill="#66FF66" /><rect x="480" y="320" width="80" height="80" fill="#66FF66" /><rect x="560" y="320" width="80" height="80" fill="#66FF66" /><rect x="640" y="320" width="80" height="80" fill="#66FF66" /><rect x="720" y="320" width="80" height="80" fill="#66FF66" /><rect x="0" y="400" width="80" height="80" fill="#FF6600" /><rect x="80" y="400" width="80" height="80" fill="#FF6600" /><rect x="160" y="400" width="80" height="80" fill="#FF6600" /><rect x="240" y="400" width="80" height="80" fill="#FF6600" /><rect x="320" y="400" width="80" height="80" fill="#FF6600" /><rect x="400" y="400" width="80" height="80" fill="#FF6600" /><rect x="480" y="400" width="80" height="80" fill="#FF6600" /><rect x="560" y="400" width="80" height="80" fill="#FF6600" /><rect x="640" y="400" width="80" height="80" fill="#FF6600" /><rect x="720" y="400" width="80" height="80" fill="#FF6600" /><rect x="0" y="480" width="80" height="80" fill="#FF6600" /><rect x="80" y="480" width="80" height="80" fill="#FF6600" /><rect x="160" y="480" width="80" height="80" fill="#FF6600" /><rect x="240" y="480" width="80" height="80" fill="#FF6600" /><rect x="320" y="480" width="80" height="80" fill="#FF6600" /><rect x="400" y="480" width="80" height="80" fill="#FF6600" /><rect x="480" y="480" width="80" height="80" fill="#6666CC" /><rect x="560" y="480" width="80" height="80" fill="#6666CC" /><rect x="640" y="480" width="80" height="80" fill="#6666CC" /><rect x="720" y="480" width="80" height="80" fill="#6666CC" /><rect x="0" y="560" width="80" height="80" fill="#6666CC" /><rect x="80" y="560" width="80" height="80" fill="#6666CC" /><rect x="160" y="560" width="80" height="80" fill="#FFFF99" /><rect x="240" y="560" width="80" height="80" fill="#FFFF99" /><rect x="320" y="560" width="80" height="80" fill="#FFFF99" /><rect x="400" y="560" width="80" height="80" fill="#FFFF99" /><rect x="480" y="560" width="80" height="80" fill="#66FF66" /><rect x="560" y="560" width="80" height="80" fill="#66FF66" /><rect x="640" y="560" width="80" height="80" fill="#66FF66" /><rect x="720" y="560" width="80" height="80" fill="#66FF66" /><rect x="0" y="640" width="80" height="80" fill="#FF6600" /><rect x="80" y="640" width="80" height="80" fill="#FF6600" /><rect x="160" y="640" width="80" height="80" fill="none" /><rect x="240" y="640" width="80" height="80" fill="none" /></svg>