<?xml version="1.0" encoding="UTF-8"?>
<svg xmlns="http://www.w3.org/2000/svg" version="1.1" height="800" width="800"><rect x="0" y="0" width="800" height="800" fill="rgb(192,192,192)" /><rect x="0" y="0" width="160" height="160" fill="none" /><rect x="160" y="0" width="160" height="160" fill="none" /><rect x="320" y="0" width="160" height="160" fill="none" /><rect x="480" y="0" width="160" height="160" fill="none" /><rect x="640" y="0" width="160" height="160" fill="none" /><rect x="0" y="160" width="160" height="160" fill="none" /><rect x="160" y="160" width="160" height="160" fill="none" /><rect x="320" y="160" width="160" height="160" fill="none" /><rect x="480" y="160" width="160" height="160" fill="none" /><rect x="640" y="160" width="160" height="160" fill="none" /><rect x="0" y="320" width="160" height="160" fill="none" /><rect x="160" y="320" width="160" height="160" fill="none" /><rect x="320" y="320" width="160" height="160" fill="none" /><rect x="480" y="320" width="160" height="160" fill="none" /><rect x="640" y="320" width="160" height="160" fill="none" /><rect x="0" y="480" width="160" height="160" fill="none" /><rect x="160" y="480" width="160" height="160" fill="none" /><rect x="320" y="480" width="160" height="160" fill="none" /><rect x="480" y="480" width="160" height="160" fill="none" /><rect x="640" y="480" width="160" height="160" fill="none" /><rect x="0" y="640" width="160" height="160" fill="none" /><rect x="160" y="640" width="160" height="160" fill="none" /><rect x="320" y="640" width="160" height="160" fill="none" /><rect x="480" y="640" width="160" height="160" fill="none" /></svg>