<?xml version="1.0" encoding="UTF-8"?>
<svg xmlns="http://www.w3.org/2000/svg" version="1.1" height="800" width="800"><rect x="0" y="0" width="800" height="800" fill="rgb(192,192,192)" /><rect x="0" y="0" width="36" height="36" fill="none" /><rect x="36" y="0" width="36" height="36" fill="none" /><rect x="72" y="0" width="36" height="36" fill="none" /><rect x="108" y="0" width="36" height="36" fill="none" /><rect x="144" y="0" width="36" height="36" fill="none" /><rect x="180" y="0" width="36" height="36" fill="none" /><rect x="216" y="0" width="36" height="36" fill="none" /><rect x="252" y="0" width="36" height="36" fill="none" /><rect x="288" y="0" width="36" height="36" fill="none" /><rect x="324" y="0" width="36" height="36" fill="none" /><rect x="360" y="0" width="36" height="36" fill="none" /><rect x="396" y="0" width="36" height="36" fill="none" /><rect x="432" y="0" width="36" height="36" fill="none" /><rect x="468" y="0" width="36" height="36" fill="none" /><rect x="504" y="0" width="36" height="36" fill="none" /><rect x="540" y="0" width="36" height="36" fill="none" /><rect x="576" y="0" width="36" height="36" fill="none" /><rect x="612" y="0" width="36" height="36" fill="none" /><rect x="648" y="0" width="36" height="36" fill="none" /><rect x="684" y="0" width="36" height="36" fill="none" /><rect x="720" y="0" width="36" height="36" fill="none" /><rect x="756" y="0" width="36" height="36" fill="none" /><rect x="0" y="36" width="36" height="36" fill="none" /><rect x="36" y="36" width="36" height="36" fill="none" /><rect x="72" y="36" width="36" height="36" fill="none" /><rect x="108" y="36" width="36" height="36" fill="none" /><rect x="144" y="36" width="36" height="36" fill="none" /><rect x="180" y="36" width="36" height="36" fill="none" /><rect x="216" y="36" width="36" height="36" fill="none" /><rect x="252" y="36" width="36" height="36" fill="none" /><rect x="288" y="36" width="36" height="36" fill="none" /><rect x="324" y="36" width="36" height="36" fill="none" /><rect x="360" y="36" width="36" height="36" fill="none" /><rect x="396" y="36" width="36" height="36" fill="none" /><rect x="432" y="36" width="36" height="36" fill="none" /><rect x="468" y="36" width="36" height="36" fill="none" /><rect x="504" y="36" width="36" height="36" fill="none" /><rect x="540" y="36" width="36" height="36" fill="none" /><rect x="576" y="36" width="36" height="36" fill="none" /><rect x="612" y="36" width="36" height="36" fill="none" /><rect x="648" y="36" width="36" height="36" fill="none" /><rect x="684" y="36" width="36" height="36" fill="none" /><rect x="720" y="36" width="36" height="36" fill="none" /><rect x="756" y="36" width="36" height="36" fill="none" /><rect x="0" y="72" width="36" height="36" fill="none" /><rect x="36" y="72" width="36" height="36" fill="none" /><rect x="72" y="72" width="36" height="36" fill="none" /><rect x="108" y="72" width="36" height="36" fill="none" /><rect x="144" y="72" width="36" height="36" fill="none" /><rect x="180" y="72" width="36" height="36" fill="none" /><rect x="216" y="72" width="36" height="36" fill="none" /><rect x="252" y="72" width="36" height="36" fill="none" /><rect x="288" y="72" width="36" height="36" fill="none" /><rect x="324" y="72" width="36" height="36" fill="none" /><rect x="360" y="72" width="36" height="36" fill="none" /><rect x="396" y="72" width="36" height="36" fill="none" /><rect x="432" y="72" width="36" height="36" fill="none" /><rect x="468" y="72" width="36" height="36" fill="none" /><rect x="504" y="72" width="36" height="36" fill="none" /><rect x="540" y="72" width="36" height="36" fill="none" /><rect x="576" y="72" width="36" height="36" fill="none" /><rect x="612" y="72" width="36" height="36" fill="none" /><rect x="648" y="72" width="36" height="36" fill="none" /><rect x="684" y="72" width="36" height="36" fill="none" /><rect x="720" y="72" width="36" height="36" fill="none" /><rect x="756" y="72" width="36" height="36" fill="none" /><rect x="0" y="108" width="36" height="36" fill="none" /><rect x="36" y="108" width="36" height="36" fill="none" /><rect x="72" y="108" width="36" height="36" fill="none" /><rect x="108" y="108" width="36" height="36" fill="none" /><rect x="144" y="108" width="36" height="36" fill="none" /><rect x="180" y="108" width="36" height="36" fill="none" /><rect x="216" y="108" width="36" height="36" fill="none" /><rect x="252" y="108" width="36" height="36" fill="none" /><rect x="288" y="108" width="36" height="36" fill="none" /><rect x="324" y="108" width="36" height="36" fill="none" /><rect x="360" y="108" width="36" height="36" fill="none" /><rect x="396" y="108" width="36" height="36" fill="none" /><rect x="432" y="108" width="36" height="36" fill="none" /><rect x="468" y="108" width="36" height="36" fill="none" /><rect x="504" y="108" width="36" height="36" fill="none" /><rect x="540" y="108" width="36" height="36" fill="none" /><rect x="576" y="108" width="36" height="36" fill="none" /><rect x="612" y="108" width="36" height="36" fill="none" /><rect x="648" y="108" width="36" height="36" fill="none" /><rect x="684" y="108" width="36" height="36" fill="none" /><rect x="720" y="108" width="36" height="36" fill="none" /><rect x="756" y="108" width="36" height="36" fill="none" /><rect x="0" y="144" width="36" height="36" fill="none" /><rect x="36" y="144" width="36" height="36" fill="none" /><rect x="72" y="144" width="36" height="36" fill="none" /><rect x="108" y="144" width="36" height="36" fill="none" /><rect x="144" y="144" width="36" height="36" fill="none" /><rect x="180" y="144" width="36" height="36" fill="none" /><rect x="216" y="144" width="36" height="36" fill="none" /><rect x="252" y="144" width="36" height="36" fill="none" /><rect x="288" y="144" width="36" height="36" fill="none" /><rect x="324" y="144" width="36" height="36" fill="none" /><rect x="360" y="144" width="36" height="36" fill="none" /><rect x="396" y="144" width="36" height="36" fill="none" /><rect x="432" y="144" width="36" height="36" fill="none" /><rect x="468" y="144" width="36" height="36" fill="none" /><rect x="504" y="144" width="36" height="36" fill="none" /><rect x="540" y="144" width="36" height="36" fill="none" /><rect x="576" y="144" width="36" height="36" fill="none" /><rect x="612" y="144" width="36" height="36" fill="none" /><rect x="648" y="144" width="36" height="36" fill="none" /><rect x="684" y="144" width="36" height="36" fill="none" /><rect x="720" y="144" width="36" height="36" fill="none" /><rect x="756" y="144" width="36" height="36" fill="none" /><rect x="0" y="180" width="36" height="36" fill="none" /><rect x="36" y="180" width="36" height="36" fill="none" /><rect x="72" y="180" width="36" height="36" fill="none" /><rect x="108" y="180" width="36" height="36" fill="none" /><rect x="144" y="180" width="36" height="36" fill="none" /><rect x="180" y="180" width="36" height="36" fill="none" /><rect x="216" y="180" width="36" height="36" fill="none" /><rect x="252" y="180" width="36" height="36" fill="none" /><rect x="288" y="180" width="36" height="36" fill="none" /><rect x="324" y="180" width="36" height="36" fill="none" /><rect x="360" y="180" width="36" height="36" fill="none" /><rect x="396" y="180" width="36" height="36" fill="none" /><rect x="432" y="180" width="36" height="36" fill="none" /><rect x="468" y="180" width="36" height="36" fill="none" /><rect x="504" y="180" width="36" height="36" fill="none" /><rect x="540" y="180" width="36" height="36" fill="none" /><rect x="576" y="180" width="36" height="36" fill="none" /><rect x="612" y="180" width="36" height="36" fill="none" /><rect x="648" y="180" width="36" height="36" fill="none" /><rect x="684" y="180" width="36" height="36" fill="none" /><rect x="720" y="180" width="36" height="36" fill="none" /><rect x="756" y="180" width="36" height="36" fill="none" /><rect x="0" y="216" width="36" height="36" fill="none" /><rect x="36" y="216" width="36" height="36" fill="none" /><rect x="72" y="216" width="36" height="36" fill="none" /><rect x="108" y="216" width="36" height="36" fill="none" /><rect x="144" y="216" width="36" height="36" fill="none" /><rect x="180" y="216" width="36" height="36" fill="none" /><rect x="216" y="216" width="36" height="36" fill="none" /><rect x="252" y="216" width="36" height="36" fill="none" /><rect x="288" y="216" width="36" height="36" fill="none" /><rect x="324" y="216" width="36" height="36" fill="none" /><rect x="360" y="216" width="36" height="36" fill="none" /><rect x="396" y="216" width="36" height="36" fill="none" /><rect x="432" y="216" width="36" height="36" fill="none" /><rect x="468" y="216" width="36" height="36" fill="none" /><rect x="504" y="216" width="36" height="36" fill="none" /><rect x="540" y="216" width="36" height="36" fill="none" /><rect x="576" y="216" width="36" height="36" fill="none" /><rect x="612" y="216" width="36" height="36" fill="none" /><rect x="648" y="216" width="36" height="36" fill="none" /><rect x="684" y="216" width="36" height="36" fill="none" /><rect x="720" y="216" width="36" height="36" fill="none" /><rect x="756" y="216" width="36" height="36" fill="none" /><rect x="0" y="252" width="36" height="36" fill="none" /><rect x="36" y="252" width="36" height="36" fill="none" /><rect x="72" y="252" width="36" height="36" fill="none" /><rect x="108" y="252" width="36" height="36" fill="none" /><rect x="144" y="252" width="36" height="36" fill="none" /><rect x="180" y="252" width="36" height="36" fill="none" /><rect x="216" y="252" width="36" height="36" fill="none" /><rect x="252" y="252" width="36" height="36" fill="none" /><rect x="288" y="252" width="36" height="36" fill="none" /><rect x="324" y="252" width="36" height="36" fill="none" /><rect x="360" y="252" width="36" height="36" fill="none" /><rect x="396" y="252" width="36" height="36" fill="none" /><rect x="432" y="252" width="36" height="36" fill="none" /><rect x="468" y="252" width="36" height="36" fill="none" /><rect x="504" y="252" width="36" height="36" fill="none" /><rect x="540" y="252" width="36" height="36" fill="none" /><rect x="576" y="252" width="36" height="36" fill="none" /><rect x="612" y="252" width="36" height="36" fill="none" /><rect x="648" y="252" width="36" height="36" fill="none" /><rect x="684" y="252" width="36" height="36" fill="none" /><rect x="720" y="252" width="36" height="36" fill="none" /><rect x="756" y="252" width="36" height="36" fill="none" /><rect x="0" y="288" width="36" height="36" fill="none" /><rect x="36" y="288" width="36" height="36" fill="none" /><rect x="72" y="288" width="36" height="36" fill="none" /><rect x="108" y="288" width="36" height="36" fill="none" /><rect x="144" y="288" width="36" height="36" fill="none" /><rect x="180" y="288" width="36" height="36" fill="none" /><rect x="216" y="288" width="36" height="36" fill="none" /><rect x="252" y="288" width="36" height="36" fill="none" /><rect x="288" y="288" width="36" height="36" fill="none" /><rect x="324" y="288" width="36" height="36" fill="none" /><rect x="360" y="288" width="36" height="36" fill="none" /><rect x="396" y="288" width="36" height="36" fill="none" /><rect x="432" y="288" width="36" height="36" fill="none" /><rect x="468" y="288" width="36" height="36" fill="none" /><rect x="504" y="288" width="36" height="36" fill="none" /><rect x="540" y="288" width="36" height="36" fill="none" /><rect x="576" y="288" width="36" height="36" fill="none" /><rect x="612" y="288" width="36" height="36" fill="none" /><rect x="648" y="288" width="36" height="36" fill="none" /><rect x="684" y="288" width="36" height="36" fill="none" /><rect x="720" y="288" width="36" height="36" fill="none" /><rect x="756" y="288" width="36" height="36" fill="none" /><rect x="0" y="324" width="36" height="36" fill="none" /><rect x="36" y="324" width="36" height="36" fill="none" /><rect x="72" y="324" width="36" height="36" fill="none" /><rect x="108" y="324" width="36" height="36" fill="none" /><rect x="144" y="324" width="36" height="36" fill="none" /><rect x="180" y="324" width="36" height="36" fill="none" /><rect x="216" y="324" width="36" height="36" fill="none" /><rect x="252" y="324" width="36" height="36" fill="none" /><rect x="288" y="324" width="36" height="36" fill="none" /><rect x="324" y="324" width="36" height="36" fill="none" /><rect x="360" y="324" width="36" height="36" fill="none" /><rect x="396" y="324" width="36" height="36" fill="none" /><rect x="432" y="324" width="36" height="36" fill="none" /><rect x="468" y="324" width="36" height="36" fill="none" /><rect x="504" y="324" width="36" height="36" fill="none" /><rect x="540" y="324" width="36" height="36" fill="none" /><rect x="576" y="324" width="36" height="36" fill="none" /><rect x="612" y="324" width="36" height="36" fill="none" /><rect x="648" y="324" width="36" height="36" fill="none" /><rect x="684" y="324" width="36" height="36" fill="none" /><rect x="720" y="324" width="36" height="36" fill="none" /><rect x="756" y="324" width="36" height="36" fill="none" /><rect x="0" y="360" width="36" height="36" fill="none" /><rect x="36" y="360" width="36" height="36" fill="none" /><rect x="72" y="360" width="36" height="36" fill="none" /><rect x="108" y="360" width="36" height="36" fill="none" /><rect x="144" y="360" width="36" height="36" fill="none" /><rect x="180" y="360" width="36" height="36" fill="none" /><rect x="216" y="360" width="36" height="36" fill="none" /><rect x="252" y="360" width="36" height="36" fill="none" /><rect x="288" y="360" width="36" height="36" fill="none" /><rect x="324" y="360" width="36" height="36" fill="none" /><rect x="360" y="360" width="36" height="36" fill="none" /><rect x="396" y="360" width="36" height="36" fill="none" /><rect x="432" y="360" width="36" height="36" fill="none" /><rect x="468" y="360" width="36" height="36" fill="none" /><rect x="504" y="360" width="36" height="36" fill="none" /><rect x="540" y="360" width="36" height="36" fill="none" /><rect x="576" y="360" width="36" height="36" fill="none" /><rect x="612" y="360" width="36" height="36" fill="none" /><rect x="648" y="360" width="36" height="36" fill="none" /><rect x="684" y="360" width="36" height="36" fill="none" /><rect x="720" y="360" width="36" height="36" fill="none" /><rect x="756" y="360" width="36" height="36" fill="none" /><rect x="0" y="396" width="36" height="36" fill="none" /><rect x="36" y="396" width="36" height="36" fill="none" /><rect x="72" y="396" width="36" height="36" fill="none" /><rect x="108" y="396" width="36" height="36" fill="none" /><rect x="144" y="396" width="36" height="36" fill="none" /><rect x="180" y="396" width="36" height="36" fill="none" /><rect x="216" y="396" width="36" height="36" fill="none" /><rect x="252" y="396" width="36" height="36" fill="none" /><rect x="288" y="396" width="36" height="36" fill="none" /><rect x="324" y="396" width="36" height="36" fill="none" /><rect x="360" y="396" width="36" height="36" fill="none" /><rect x="396" y="396" width="36" height="36" fill="none" /><rect x="432" y="396" width="36" height="36" fill="none" /><rect x="468" y="396" width="36" height="36" fill="none" /><rect x="504" y="396" width="36" height="36" fill="none" /><rect x="540" y="396" width="36" height="36" fill="none" /><rect x="576" y="396" width="36" height="36" fill="none" /><rect x="612" y="396" width="36" height="36" fill="none" /><rect x="648" y="396" width="36" height="36" fill="none" /><rect x="684" y="396" width="36" height="36" fill="none" /><rect x="720" y="396" width="36" height="36" fill="none" /><rect x="756" y="396" width="36" height="36" fill="none" /><rect x="0" y="432" width="36" height="36" fill="none" /><rect x="36" y="432" width="36" height="36" fill="none" /><rect x="72" y="432" width="36" height="36" fill="none" /><rect x="108" y="432" width="36" height="36" fill="none" /><rect x="144" y="432" width="36" height="36" fill="none" /><rect x="180" y="432" width="36" height="36" fill="none" /><rect x="216" y="432" width="36" height="36" fill="none" /><rect x="252" y="432" width="36" height="36" fill="none" /><rect x="288" y="432" width="36" height="36" fill="none" /><rect x="324" y="432" width="36" height="36" fill="none" /><rect x="360" y="432" width="36" height="36" fill="none" /><rect x="396" y="432" width="36" height="36" fill="none" /><rect x="432" y="432" width="36" height="36" fill="none" /><rect x="468" y="432" width="36" height="36" fill="none" /><rect x="504" y="432" width="36" height="36" fill="none" /><rect x="540" y="432" width="36" height="36" fill="none" /><rect x="576" y="432" width="36" height="36" fill="none" /><rect x="612" y="432" width="36" height="36" fill="none" /><rect x="648" y="432" width="36" height="36" fill="none" /><rect x="684" y="432" width="36" height="36" fill="none" /><rect x="720" y="432" width="36" height="36" fill="none" /><rect x="756" y="432" width="36" height="36" fill="none" /><rect x="0" y="468" width="36" height="36" fill="none" /><rect x="36" y="468" width="36" height="36" fill="none" /><rect x="72" y="468" width="36" height="36" fill="none" /><rect x="108" y="468" width="36" height="36" fill="none" /><rect x="144" y="468" width="36" height="36" fill="none" /><rect x="180" y="468" width="36" height="36" fill="none" /><rect x="216" y="468" width="36" height="36" fill="none" /><rect x="252" y="468" width="36" height="36" fill="none" /><rect x="288" y="468" width="36" height="36" fill="none" /><rect x="324" y="468" width="36" height="36" fill="none" /><rect x="360" y="468" width="36" height="36" fill="none" /><rect x="396" y="468" width="36" height="36" fill="none" /><rect x="432" y="468" width="36" height="36" fill="none" /><rect x="468" y="468" width="36" height="36" fill="none" /><rect x="504" y="468" width="36" height="36" fill="none" /><rect x="540" y="468" width="36" height="36" fill="none" /><rect x="576" y="468" width="36" height="36" fill="none" /><rect x="612" y="468" width="36" height="36" fill="none" /><rect x="648" y="468" width="36" height="36" fill="none" /><rect x="684" y="468" width="36" height="36" fill="none" /><rect x="720" y="468" width="36" height="36" fill="none" /><rect x="756" y="468" width="36" height="36" fill="none" /><rect x="0" y="504" width="36" height="36" fill="none" /><rect x="36" y="504" width="36" height="36" fill="none" /><rect x="72" y="504" width="36" height="36" fill="none" /><rect x="108" y="504" width="36" height="36" fill="none" /><rect x="144" y="504" width="36" height="36" fill="none" /><rect x="180" y="504" width="36" height="36" fill="none" /><rect x="216" y="504" width="36" height="36" fill="none" /><rect x="252" y="504" width="36" height="36" fill="none" /><rect x="288" y="504" width="36" height="36" fill="none" /><rect x="324" y="504" width="36" height="36" fill="none" /><rect x="360" y="504" width="36" height="36" fill="none" /><rect x="396" y="504" width="36" height="36" fill="none" /><rect x="432" y="504" width="36" height="36" fill="none" /><rect x="468" y="504" width="36" height="36" fill="none" /><rect x="504" y="504" width="36" height="36" fill="none" /><rect x="540" y="504" width="36" height="36" fill="none" /><rect x="576" y="504" width="36" height="36" fill="none" /><rect x="612" y="504" width="36" height="36" fill="none" /><rect x="648" y="504" width="36" height="36" fill="none" /><rect x="684" y="504" width="36" height="36" fill="none" /><rect x="720" y="504" width="36" height="36" fill="none" /><rect x="756" y="504" width="36" height="36" fill="none" /><rect x="0" y="540" width="36" height="36" fill="none" /><rect x="36" y="540" width="36" height="36" fill="none" /><rect x="72" y="540" width="36" height="36" fill="none" /><rect x="108" y="540" width="36" height="36" fill="none" /><rect x="144" y="540" width="36" height="36" fill="none" /><rect x="180" y="540" width="36" height="36" fill="none" /><rect x="216" y="540" width="36" height="36" fill="none" /><rect x="252" y="540" width="36" height="36" fill="none" /><rect x="288" y="540" width="36" height="36" fill="none" /><rect x="324" y="540" width="36" height="36" fill="none" /><rect x="360" y="540" width="36" height="36" fill="none" /><rect x="396" y="540" width="36" height="36" fill="none" /><rect x="432" y="540" width="36" height="36" fill="none" /><rect x="468" y="540" width="36" height="36" fill="none" /><rect x="504" y="540" width="36" height="36" fill="none" /><rect x="540" y="540" width="36" height="36" fill="none" /><rect x="576" y="540" width="36" height="36" fill="none" /><rect x="612" y="540" width="36" height="36" fill="none" /><rect x="648" y="540" width="36" height="36" fill="none" /><rect x="684" y="540" width="36" height="36" fill="none" /><rect x="720" y="540" width="36" height="36" fill="none" /><rect x="756" y="540" width="36" height="36" fill="none" /><rect x="0" y="576" width="36" height="36" fill="none" /><rect x="36" y="576" width="36" height="36" fill="none" /><rect x="72" y="576" width="36" height="36" fill="none" /><rect x="108" y="576" width="36" height="36" fill="none" /><rect x="144" y="576" width="36" height="36" fill="none" /><rect x="180" y="576" width="36" height="36" fill="none" /><rect x="216" y="576" width="36" height="36" fill="none" /><rect x="252" y="576" width="36" height="36" fill="none" /><rect x="288" y="576" width="36" height="36" fill="none" /><rect x="324" y="576" width="36" height="36" fill="none" /><rect x="360" y="576" width="36" height="36" fill="none" /><rect x="396" y="576" width="36" height="36" fill="none" /><rect x="432" y="576" width="36" height="36" fill="none" /><rect x="468" y="576" width="36" height="36" fill="none" /><rect x="504" y="576" width="36" height="36" fill="none" /><rect x="540" y="576" width="36" height="36" fill="none" /><rect x="576" y="576" width="36" height="36" fill="none" /><rect x="612" y="576" width="36" height="36" fill="none" /><rect x="648" y="576" width="36" height="36" fill="none" /><rect x="684" y="576" width="36" height="36" fill="none" /><rect x="720" y="576" width="36" height="36" fill="none" /><rect x="756" y="576" width="36" height="36" fill="none" /><rect x="0" y="612" width="36" height="36" fill="none" /><rect x="36" y="612" width="36" height="36" fill="none" /><rect x="72" y="612" width="36" height="36" fill="none" /><rect x="108" y="612" width="36" height="36" fill="none" /><rect x="144" y="612" width="36" height="36" fill="none" /><rect x="180" y="612" width="36" height="36" fill="none" /><rect x="216" y="612" width="36" height="36" fill="none" /><rect x="252" y="612" width="36" height="36" fill="none" /><rect x="288" y="612" width="36" height="36" fill="none" /><rect x="324" y="612" width="36" height="36" fill="none" /><rect x="360" y="612" width="36" height="36" fill="none" /><rect x="396" y="612" width="36" height="36" fill="none" /><rect x="432" y="612" width="36" height="36" fill="none" /><rect x="468" y="612" width="36" height="36" fill="none" /><rect x="504" y="612" width="36" height="36" fill="none" /><rect x="540" y="612" width="36" height="36" fill="none" /><rect x="576" y="612" width="36" height="36" fill="none" /><rect x="612" y="612" width="36" height="36" fill="none" /><rect x="648" y="612" width="36" height="36" fill="none" /><rect x="684" y="612" width="36" height="36" fill="none" /><rect x="720" y="612" width="36" height="36" fill="none" /><rect x="756" y="612" width="36" height="36" fill="none" /><rect x="0" y="648" width="36" height="36" fill="none" /><rect x="36" y="648" width="36" height="36" fill="none" /><rect x="72" y="648" width="36" height="36" fill="none" /><rect x="108" y="648" width="36" height="36" fill="none" /><rect x="144" y="648" width="36" height="36" fill="none" /><rect x="180" y="648" width="36" height="36" fill="none" /><rect x="216" y="648" width="36" height="36" fill="none" /><rect x="252" y="648" width="36" height="36" fill="none" /><rect x="288" y="648" width="36" height="36" fill="none" /><rect x="324" y="648" width="36" height="36" fill="none" /><rect x="360" y="648" width="36" height="36" fill="none" /><rect x="396" y="648" width="36" height="36" fill="none" /><rect x="432" y="648" width="36" height="36" fill="none" /><rect x="468" y="648" width="36" height="36" fill="none" /><rect x="504" y="648" width="36" height="36" fill="none" /><rect x="540" y="648" width="36" height="36" fill="none" /><rect x="576" y="648" width="36" height="36" fill="none" /><rect x="612" y="648" width="36" height="36" fill="none" /><rect x="648" y="648" width="36" height="36" fill="none" /><rect x="684" y="648" width="36" height="36" fill="none" /><rect x="720" y="648" width="36" height="36" fill="none" /><rect x="756" y="648" width="36" height="36" fill="none" /><rect x="0" y="684" width="36" height="36" fill="none" /><rect x="36" y="684" width="36" height="36" fill="none" /><rect x="72" y="684" width="36" height="36" fill="none" /><rect x="108" y="684" width="36" height="36" fill="none" /><rect x="144" y="684" width="36" height="36" fill="none" /><rect x="180" y="684" width="36" height="36" fill="none" /><rect x="216" y="684" width="36" height="36" fill="none" /><rect x="252" y="684" width="36" height="36" fill="none" /><rect x="288" y="684" width="36" height="36" fill="none" /><rect x="324" y="684" width="36" height="36" fill="none" /><rect x="360" y="684" width="36" height="36" fill="none" /><rect x="396" y="684" width="36" height="36" fill="none" /><rect x="432" y="684" width="36" height="36" fill="none" /><rect x="468" y="684" width="36" height="36" fill="none" /><rect x="504" y="684" width="36" height="36" fill="none" /><rect x="540" y="684" width="36" height="36" fill="none" /><rect x="576" y="684" width="36" height="36" fill="none" /><rect x="612" y="684" width="36" height="36" fill="none" /><rect x="648" y="684" width="36" height="36" fill="none" /><rect x="684" y="684" width="36" height="36" fill="none" /><rect x="720" y="684" width="36" height="36" fill="none" /><rect x="756" y="684" width="36" height="36" fill="none" /><rect x="0" y="720" width="36" height="36" fill="none" /><rect x="36" y="720" width="36" height="36" fill="none" /><rect x="72" y="720" width="36" height="36" fill="none" /><rect x="108" y="720" width="36" height="36" fill="none" /><rect x="144" y="720" width="36" height="36" fill="none" /><rect x="180" y="720" width="36" height="36" fill="none" /><rect x="216" y="720" width="36" height="36" fill="none" /><rect x="252" y="720" width="36" height="36" fill="none" /><rect x="288" y="720" width="36" height="36" fill="none" /><rect x="324" y="720" width="36" height="36" fill="none" /></svg>