<?xml version="1.0" encoding="UTF-8"?>
<svg xmlns="http://www.w3.org/2000/svg" version="1.1" height="800" width="800"><rect x="0" y="0" width="800" height="800" fill="rgb(192,192,192)" /><rect x="0" y="0" width="57" height="57" fill="none" /><rect x="57" y="0" width="57" height="57" fill="none" /><rect x="114" y="0" width="57" height="57" fill="none" /><rect x="171" y="0" width="57" height="57" fill="none" /><rect x="228" y="0" width="57" height="57" fill="none" /><rect x="285" y="0" width="57" height="57" fill="none" /><rect x="342" y="0" width="57" height="57" fill="none" /><rect x="399" y="0" width="57" height="57" fill="none" /><rect x="456" y="0" width="57" height="57" fill="none" /><rect x="513" y="0" width="57" height="57" fill="none" /><rect x="570" y="0" width="57" height="57" fill="none" /><rect x="627" y="0" width="57" height="57" fill="none" /><rect x="684" y="0" width="57" height="57" fill="none" /><rect x="741" y="0" width="57" height="57" fill="none" /><rect x="0" y="57" width="57" height="57" fill="none" /><rect x="57" y="57" width="57" height="57" fill="none" /><rect x="114" y="57" width="57" height="57" fill="none" /><rect x="171" y="57" width="57" height="57" fill="none" /><rect x="228" y="57" width="57" height="57" fill="none" /><rect x="285" y="57" width="57" height="57" fill="none" /><rect x="342" y="57" width="57" height="57" fill="none" /><rect x="399" y="57" width="57" height="57" fill="none" /><rect x="456" y="57" width="57" height="57" fill="none" /><rect x="513" y="57" width="57" height="57" fill="none" /><rect x="570" y="57" width="57" height="57" fill="#FF6600" /><rect x="627" y="57" width="57" height="57" fill="#FF6600" /><rect x="684" y="57" width="57" height="57" fill="#FF6600" /><rect x="741" y="57" width="57" height="57" fill="#FF6600" /><rect x="0" y="114" width="57" height="57" fill="#FF6600" /><rect x="57" y="114" width="57" height="57" fill="#FF6600" /><rect x="114" y="114" width="57" height="57" fill="#FF6600" /><rect x="171" y="114" width="57" height="57" fill="#FF6600" /><rect x="228" y="114" width="57" height="57" fill="#FF6600" /><rect x="285" y="114" width="57" height="57" fill="none" /><rect x="342" y="114" width="57" height="57" fill="#6666CC" /><rect x="399" y="114" width="57" height="57" fill="#6666CC" /><rect x="456" y="114" width="57" height="57" fill="#6666CC" /><rect x="513" y="114" width="57" height="57" fill="#6666CC" /><rect x="570" y="114" width="57" height="57" fill="#6666CC" /><rect x="627" y="114" width="57" height="57" fill="#6666CC" /><rect x="684" y="114" width="57" height="57" fill="#6666CC" /><rect x="741" y="114" width="57" height="57" fill="#6666CC" /><rect x="0" y="171" width="57" height="57" fill="#6666CC" /><rect x="57" y="171" width="57" height="57" fill="#6666CC" /><rect x="114" y="171" width="57" height="57" fill="#6666CC" /><rect x="171" y="171" width="57" height="57" fill="#6666CC" /><rect x="228" y="171" width="57" height="57" fill="none" /><rect x="285" y="171" width="57" height="57" fill="none" /><rect x="342" y="171" width="57" height="57" fill="none" /><rect x="399" y="171" width="57" height="57" fill="none" /><rect x="456" y="171" width="57" height="57" fill="#FFFF99" /><rect x="513" y="171" width="57" height="57" fill="#FFFF99" /><rect x="570" y="171" width="57" height="57" fill="#FFFF99" /><rect x="627" y="171" width="57" height="57" fill="#FFFF99" /><rect x="684" y="171" width="57" height="57" fill="#FFFF99" /><rect x="741" y="171" width="57" height="57" fill="#66FF66" /><rect x="0" y="228" width="57" height="57" fill="#66FF66" /><rect x="57" y="228" width="57" height="57" fill="#66FF66" /><rect x="114" y="228" width="57" height="57" fill="#FF6600" /><rect x="171" y="228" width="57" height="57" fill="#FF6600" /><rect x="228" y="228" width="57" height="57" fill="#FF6600" /><rect x="285" y="228" width="57" height="57" fill="#FF6600" /><rect x="342" y="228" width="57" height="57" fill="none" /><rect x="399" y="228" width="57" height="57" fill="none" /><rect x="456" y="228" width="57" height="57" fill="none" /><rect x="513" y="228" width="57" height="57" fill="none" /><rect x="570" y="228" width="57" height="57" fill="none" /><rect x="627" y="228" width="57" height="57" fill="none" /><rect x="684" y="228" width="57" height="57" fill="none" /><rect x="741" y="228" width="57" height="57" fill="none" /><rect x="0" y="285" width="57" height="57" fill="none" /><rect x="57" y="285" width="57" height="57" fill="none" /><rect x="114" y="285" width="57" height="57" fill="none" /><rect x="171" y="285" width="57" height="57" fill="none" /><rect x="228" y="285" width="57" height="57" fill="none" /><rect x="285" y="285" width="57" height="57" fill="none" /><rect x="342" y="285" width="57" height="57" fill="none" /><rect x="399" y="285" width="57" height="57" fill="none" /><rect x="456" y="285" width="57" height="57" fill="#6666CC" /><rect x="513" y="285" width="57" height="57" fill="#6666CC" /><rect x="570" y="285" width="57" height="57" fill="none" /><rect x="627" y="285" width="57" height="57" fill="none" /><rect x="684" y="285" width="57" height="57" fill="none" /><rect x="741" y="285" width="57" height="57" fill="none" /><rect x="0" y="342" width="57" height="57" fill="none" /><rect x="57" y="342" width="57" height="57" fill="#FFFF99" /><rect x="114" y="342" width="57" height="57" fill="#FFFF99" /><rect x="171" y="342" width="57" height="57" fill="#FFFF99" /><rect x="228" y="342" width="57" height="57" fill="#FFFF99" /><rect x="285" y="342" width="57" height="57" fill="none" /><rect x="342" y="342" width="57" height="57" fill="none" /><rect x="399" y="342" width="57" height="57" fill="none" /><rect x="456" y="342" width="57" height="57" fill="none" /><rect x="513" y="342" width="57" height="57" fill="none" /><rect x="570" y="342" width="57" height="57" fill="none" /><rect x="627" y="342" width="57" height="57" fill="none" /><rect x="684" y="342" width="57" height="57" fill="none" /><rect x="741" y="342" width="57" height="57" fill="none" /><rect x="0" y="399" width="57" height="57" fill="none" /><rect x="57" y="399" width="57" height="57" fill="none" /><rect x="114" y="399" width="57" height="57" fill="none" /><rect x="171" y="399" width="57" height="57" fill="#66FF66" /><rect x="228" y="399" width="57" height="57" fill="#66FF66" /><rect x="285" y="399" width="57" height="57" fill="#66FF66" /><rect x="342" y="399" width="57" height="57" fill="none" /><rect x="399" y="399" width="57" height="57" fill="none" /><rect x="456" y="399" width="57" height="57" fill="none" /><rect x="513" y="399" width="57" height="57" fill="none" /><rect x="570" y="399" width="57" height="57" fill="none" /><rect x="627" y="399" width="57" height="57" fill="none" /><rect x="684" y="399" width="57" height="57" fill="none" /><rect x="741" y="399" width="57" height="57" fill="none" /><rect x="0" y="456" width="57" height="57" fill="none" /><rect x="57" y="456" width="57" height="57" fill="none" /><rect x="114" y="456" width="57" height="57" fill="none" /><rect x="171" y="456" width="57" height="57" fill="#FF6600" /><rect x="228" y="456" width="57" height="57" fill="#FF6600" /><rect x="285" y="456" width="57" height="57" fill="#FF6600" /><rect x="342" y="456" width="57" height="57" fill="#FF6600" /><rect x="399" y="456" width="57" height="57" fill="#FF6600" /><rect x="456" y="456" width="57" height="57" fill="#6666CC" /><rect x="513" y="456" width="57" height="57" fill="#6666CC" /><rect x="570" y="456" width="57" height="57" fill="none" /><rect x="627" y="456" width="57" height="57" fill="none" /><rect x="684" y="456" width="57" height="57" fill="none" /><rect x="741" y="456" width="57" height="57" fill="none" /><rect x="0" y="513" width="57" height="57" fill="none" /><rect x="57" y="513" width="57" height="57" fill="none" /><rect x="114" y="513" width="57" height="57" fill="none" /><rect x="171" y="513" width="57" height="57" fill="none" /><rect x="228" y="513" width="57" height="57" fill="none" /><rect x="285" y="513" width="57" height="57" fill="none" /><rect x="342" y="513" width="57" height="57" fill="none" /><rect x="399" y="513" width="57" height="57" fill="none" /><rect x="456" y="513" width="57" height="57" fill="none" /><rect x="513" y="513" width="57" height="57" fill="none" /><rect x="570" y="513" width="57" height="57" fill="none" /><rect x="627" y="513" width="57" height="57" fill="none" /><rect x="684" y="513" width="57" height="57" fill="none" /><rect x="741" y="513" width="57" height="57" fill="none" /><rect x="0" y="570" width="57" height="57" fill="none" /><rect x="57" y="570" width="57" height="57" fill="none" /><rect x="114" y="570" width="57" height="57" fill="none" /><rect x="171" y="570" width="57" height="57" fill="none" /><rect x="228" y="570" width="57" height="57" fill="none" /><rect x="285" y="570" width="57" height="57" fill="none" /><rect x="342" y="570" width="57" height="57" fill="#FFFF99" /><rect x="399" y="570" width="57" height="57" fill="none" /><rect x="456" y="570" width="57" height="57" fill="none" /><rect x="513" y="570" width="57" height="57" fill="none" /><rect x="570" y="570" width="57" height="57" fill="none" /><rect x="627" y="570" width="57" height="57" fill="none" /><rect x="684" y="570" width="57" height="57" fill="none" /><rect x="741" y="570" width="57" height="57" fill="none" /><rect x="0" y="627" width="57" height="57" fill="#66FF66" /><rect x="57" y="627" width="57" height="57" fill="#66FF66" /><rect x="114" y="627" width="57" height="57" fill="#66FF66" /><rect x="171" y="627" width="57" height="57" fill="#66FF66" /><rect x="228" y="627" width="57" height="57" fill="#66FF66" /><rect x="285" y="627" width="57" height="57" fill="#66FF66" /><rect x="342" y="627" width="57" height="57" fill="#66FF66" /><rect x="399" y="627" width="57" height="57" fill="#66FF66" /><rect x="456" y="627" width="57" height="57" fill="#66FF66" /><rect x="513" y="627" width="57" height="57" fill="#66FF66" /><rect x="570" y="627" width="57" height="57" fill="#66FF66" /><rect x="627" y="627" width="57" height="57" fill="#66FF66" /><rect x="684" y="627" width="57" height="57" fill="none" /><rect x="741" y="627" width="57" height="57" fill="none" /><rect x="0" y="684" width="57" height="57" fill="none" /><rect x="57" y="684" width="57" height="57" fill="none" /><rect x="114" y="684" width="57" height="57" fill="none" /><rect x="171" y="684" width="57" height="57" fill="none" /><rect x="228" y="684" width="57" height="57" fill="none" /><rect x="285" y="684" width="57" height="57" fill="none" /><rect x="342" y="684" width="57" height="57" fill="none" /><rect x="399" y="684" width="57" height="57" fill="none" /><rect x="456" y="684" width="57" height="57" fill="none" /><rect x="513" y="684" width="57" height="57" fill="none" /><rect x="570" y="684" width="57" height="57" fill="none" /><rect x="627" y="684" width="57" height="57" fill="none" /><rect x="684" y="684" width="57" height="57" fill="none" /><rect x="741" y="684" width="57" height="57" fill="none" /><rect x="0" y="741" width="57" height="57" fill="none" /><rect x="57" y="741" width="57" height="57" fill="none" /><rect x="114" y="741" width="57" height="57" fill="none" /><rect x="171" y="741" width="57" height="57" fill="none" /><rect x="228" y="741" width="57" height="57" fill="none" /><rect x="285" y="741" width="57" height="57" fill="none" /><rect x="342" y="741" width="57" height="57" fill="none" /><rect x="399" y="741" width="57" height="57" fill="none" /><rect x="456" y="741" width="57" height="57" fill="none" /><rect x="513" y="741" width="57" height="57" fill="none" /></svg>