<?xml version="1.0" encoding="UTF-8"?>
<svg xmlns="http://www.w3.org/2000/svg" version="1.1" height="800" width="800"><rect x="0" y="0" width="800" height="800" fill="rgb(192,192,192)" /><rect x="0" y="0" width="29" height="29" fill="none" /><rect x="29" y="0" width="29" height="29" fill="none" /><rect x="58" y="0" width="29" height="29" fill="none" /><rect x="87" y="0" width="29" height="29" fill="none" /><rect x="116" y="0" width="29" height="29" fill="none" /><rect x="145" y="0" width="29" height="29" fill="none" /><rect x="174" y="0" width="29" height="29" fill="none" /><rect x="203" y="0" width="29" height="29" fill="none" /><rect x="232" y="0" width="29" height="29" fill="none" /><rect x="261" y="0" width="29" height="29" fill="none" /><rect x="290" y="0" width="29" height="29" fill="none" /><rect x="319" y="0" width="29" height="29" fill="none" /><rect x="348" y="0" width="29" height="29" fill="none" /><rect x="377" y="0" width="29" height="29" fill="none" /><rect x="406" y="0" width="29" height="29" fill="none" /><rect x="435" y="0" width="29" height="29" fill="none" /><rect x="464" y="0" width="29" height="29" fill="none" /><rect x="493" y="0" width="29" height="29" fill="none" /><rect x="522" y="0" width="29" height="29" fill="none" /><rect x="551" y="0" width="29" height="29" fill="none" /><rect x="580" y="0" width="29" height="29" fill="none" /><rect x="609" y="0" width="29" height="29" fill="none" /><rect x="638" y="0" width="29" height="29" fill="none" /><rect x="667" y="0" width="29" height="29" fill="none" /><rect x="696" y="0" width="29" height="29" fill="none" /><rect x="725" y="0" width="29" height="29" fill="none" /><rect x="754" y="0" width="29" height="29" fill="none" /><rect x="0" y="29" width="29" height="29" fill="none" /><rect x="29" y="29" width="29" height="29" fill="none" /><rect x="58" y="29" width="29" height="29" fill="none" /><rect x="87" y="29" width="29" height="29" fill="none" /><rect x="116" y="29" width="29" height="29" fill="none" /><rect x="145" y="29" width="29" height="29" fill="none" /><rect x="174" y="29" width="29" height="29" fill="none" /><rect x="203" y="29" width="29" height="29" fill="none" /><rect x="232" y="29" width="29" height="29" fill="none" /><rect x="261" y="29" width="29" height="29" fill="none" /><rect x="290" y="29" width="29" height="29" fill="none" /><rect x="319" y="29" width="29" height="29" fill="none" /><rect x="348" y="29" width="29" height="29" fill="none" /><rect x="377" y="29" width="29" height="29" fill="none" /><rect x="406" y="29" width="29" height="29" fill="none" /><rect x="435" y="29" width="29" height="29" fill="none" /><rect x="464" y="29" width="29" height="29" fill="none" /><rect x="493" y="29" width="29" height="29" fill="none" /><rect x="522" y="29" width="29" height="29" fill="none" /><rect x="551" y="29" width="29" height="29" fill="none" /><rect x="580" y="29" width="29" height="29" fill="none" /><rect x="609" y="29" width="29" height="29" fill="none" /><rect x="638" y="29" width="29" height="29" fill="none" /><rect x="667" y="29" width="29" height="29" fill="none" /><rect x="696" y="29" width="29" height="29" fill="none" /><rect x="725" y="29" width="29" height="29" fill="none" /><rect x="754" y="29" width="29" height="29" fill="none" /><rect x="0" y="58" width="29" height="29" fill="none" /><rect x="29" y="58" width="29" height="29" fill="none" /><rect x="58" y="58" width="29" height="29" fill="none" /><rect x="87" y="58" width="29" height="29" fill="none" /><rect x="116" y="58" width="29" height="29" fill="none" /><rect x="145" y="58" width="29" height="29" fill="none" /><rect x="174" y="58" width="29" height="29" fill="none" /><rect x="203" y="58" width="29" height="29" fill="none" /><rect x="232" y="58" width="29" height="29" fill="none" /><rect x="261" y="58" width="29" height="29" fill="none" /><rect x="290" y="58" width="29" height="29" fill="none" /><rect x="319" y="58" width="29" height="29" fill="none" /><rect x="348" y="58" width="29" height="29" fill="none" /><rect x="377" y="58" width="29" height="29" fill="none" /><rect x="406" y="58" width="29" height="29" fill="none" /><rect x="435" y="58" width="29" height="29" fill="none" /><rect x="464" y="58" width="29" height="29" fill="none" /><rect x="493" y="58" width="29" height="29" fill="none" /><rect x="522" y="58" width="29" height="29" fill="none" /><rect x="551" y="58" width="29" height="29" fill="none" /><rect x="580" y="58" width="29" height="29" fill="none" /><rect x="609" y="58" width="29" height="29" fill="none" /><rect x="638" y="58" width="29" height="29" fill="none" /><rect x="667" y="58" width="29" height="29" fill="none" /><rect x="696" y="58" width="29" height="29" fill="none" /><rect x="725" y="58" width="29" height="29" fill="none" /><rect x="754" y="58" width="29" height="29" fill="none" /><rect x="0" y="87" width="29" height="29" fill="none" /><rect x="29" y="87" width="29" height="29" fill="none" /><rect x="58" y="87" width="29" height="29" fill="none" /><rect x="87" y="87" width="29" height="29" fill="none" /><rect x="116" y="87" width="29" height="29" fill="none" /><rect x="145" y="87" width="29" height="29" fill="none" /><rect x="174" y="87" width="29" height="29" fill="none" /><rect x="203" y="87" width="29" height="29" fill="none" /><rect x="232" y="87" width="29" height="29" fill="none" /><rect x="261" y="87" width="29" height="29" fill="none" /><rect x="290" y="87" width="29" height="29" fill="none" /><rect x="319" y="87" width="29" height="29" fill="none" /><rect x="348" y="87" width="29" height="29" fill="none" /><rect x="377" y="87" width="29" height="29" fill="none" /><rect x="406" y="87" width="29" height="29" fill="none" /><rect x="435" y="87" width="29" height="29" fill="none" /><rect x="464" y="87" width="29" height="29" fill="none" /><rect x="493" y="87" width="29" height="29" fill="none" /><rect x="522" y="87" width="29" height="29" fill="none" /><rect x="551" y="87" width="29" height="29" fill="none" /><rect x="580" y="87" width="29" height="29" fill="none" /><rect x="609" y="87" width="29" height="29" fill="none" /><rect x="638" y="87" width="29" height="29" fill="none" /><rect x="667" y="87" width="29" height="29" fill="none" /><rect x="696" y="87" width="29" height="29" fill="none" /><rect x="725" y="87" width="29" height="29" fill="none" /><rect x="754" y="87" width="29" height="29" fill="none" /><rect x="0" y="116" width="29" height="29" fill="none" /><rect x="29" y="116" width="29" height="29" fill="none" /><rect x="58" y="116" width="29" height="29" fill="none" /><rect x="87" y="116" width="29" height="29" fill="none" /><rect x="116" y="116" width="29" height="29" fill="none" /><rect x="145" y="116" width="29" height="29" fill="none" /><rect x="174" y="116" width="29" height="29" fill="none" /><rect x="203" y="116" width="29" height="29" fill="none" /><rect x="232" y="116" width="29" height="29" fill="none" /><rect x="261" y="116" width="29" height="29" fill="none" /><rect x="290" y="116" width="29" height="29" fill="none" /><rect x="319" y="116" width="29" height="29" fill="none" /><rect x="348" y="116" width="29" height="29" fill="none" /><rect x="377" y="116" width="29" height="29" fill="none" /><rect x="406" y="116" width="29" height="29" fill="none" /><rect x="435" y="116" width="29" height="29" fill="none" /><rect x="464" y="116" width="29" height="29" fill="none" /><rect x="493" y="116" width="29" height="29" fill="none" /><rect x="522" y="116" width="29" height="29" fill="none" /><rect x="551" y="116" width="29" height="29" fill="none" /><rect x="580" y="116" width="29" height="29" fill="none" /><rect x="609" y="116" width="29" height="29" fill="none" /><rect x="638" y="116" width="29" height="29" fill="none" /><rect x="667" y="116" width="29" height="29" fill="none" /><rect x="696" y="116" width="29" height="29" fill="none" /><rect x="725" y="116" width="29" height="29" fill="none" /><rect x="754" y="116" width="29" height="29" fill="none" /><rect x="0" y="145" width="29" height="29" fill="none" /><rect x="29" y="145" width="29" height="29" fill="none" /><rect x="58" y="145" width="29" height="29" fill="none" /><rect x="87" y="145" width="29" height="29" fill="none" /><rect x="116" y="145" width="29" height="29" fill="none" /><rect x="145" y="145" width="29" height="29" fill="none" /><rect x="174" y="145" width="29" height="29" fill="none" /><rect x="203" y="145" width="29" height="29" fill="none" /><rect x="232" y="145" width="29" height="29" fill="none" /><rect x="261" y="145" width="29" height="29" fill="none" /><rect x="290" y="145" width="29" height="29" fill="none" /><rect x="319" y="145" width="29" height="29" fill="none" /><rect x="348" y="145" width="29" height="29" fill="none" /><rect x="377" y="145" width="29" height="29" fill="none" /><rect x="406" y="145" width="29" height="29" fill="none" /><rect x="435" y="145" width="29" height="29" fill="none" /><rect x="464" y="145" width="29" height="29" fill="none" /><rect x="493" y="145" width="29" height="29" fill="none" /><rect x="522" y="145" width="29" height="29" fill="none" /><rect x="551" y="145" width="29" height="29" fill="none" /><rect x="580" y="145" width="29" height="29" fill="none" /><rect x="609" y="145" width="29" height="29" fill="none" /><rect x="638" y="145" width="29" height="29" fill="none" /><rect x="667" y="145" width="29" height="29" fill="none" /><rect x="696" y="145" width="29" height="29" fill="none" /><rect x="725" y="145" width="29" height="29" fill="none" /><rect x="754" y="145" width="29" height="29" fill="none" /><rect x="0" y="174" width="29" height="29" fill="none" /><rect x="29" y="174" width="29" height="29" fill="none" /><rect x="58" y="174" width="29" height="29" fill="none" /><rect x="87" y="174" width="29" height="29" fill="none" /><rect x="116" y="174" width="29" height="29" fill="none" /><rect x="145" y="174" width="29" height="29" fill="none" /><rect x="174" y="174" width="29" height="29" fill="none" /><rect x="203" y="174" width="29" height="29" fill="none" /><rect x="232" y="174" width="29" height="29" fill="none" /><rect x="261" y="174" width="29" height="29" fill="none" /><rect x="290" y="174" width="29" height="29" fill="none" /><rect x="319" y="174" width="29" height="29" fill="none" /><rect x="348" y="174" width="29" height="29" fill="none" /><rect x="377" y="174" width="29" height="29" fill="none" /><rect x="406" y="174" width="29" height="29" fill="none" /><rect x="435" y="174" width="29" height="29" fill="none" /><rect x="464" y="174" width="29" height="29" fill="none" /><rect x="493" y="174" width="29" height="29" fill="none" /><rect x="522" y="174" width="29" height="29" fill="none" /><rect x="551" y="174" width="29" height="29" fill="none" /><rect x="580" y="174" width="29" height="29" fill="none" /><rect x="609" y="174" width="29" height="29" fill="none" /><rect x="638" y="174" width="29" height="29" fill="none" /><rect x="667" y="174" width="29" height="29" fill="none" /><rect x="696" y="174" width="29" height="29" fill="none" /><rect x="725" y="174" width="29" height="29" fill="none" /><rect x="754" y="174" width="29" height="29" fill="none" /><rect x="0" y="203" width="29" height="29" fill="none" /><rect x="29" y="203" width="29" height="29" fill="none" /><rect x="58" y="203" width="29" height="29" fill="none" /><rect x="87" y="203" width="29" height="29" fill="none" /><rect x="116" y="203" width="29" height="29" fill="none" /><rect x="145" y="203" width="29" height="29" fill="none" /><rect x="174" y="203" width="29" height="29" fill="none" /><rect x="203" y="203" width="29" height="29" fill="none" /><rect x="232" y="203" width="29" height="29" fill="none" /><rect x="261" y="203" width="29" height="29" fill="none" /><rect x="290" y="203" width="29" height="29" fill="none" /><rect x="319" y="203" width="29" height="29" fill="none" /><rect x="348" y="203" width="29" height="29" fill="none" /><rect x="377" y="203" width="29" height="29" fill="none" /><rect x="406" y="203" width="29" height="29" fill="none" /><rect x="435" y="203" width="29" height="29" fill="none" /><rect x="464" y="203" width="29" height="29" fill="none" /><rect x="493" y="203" width="29" height="29" fill="none" /><rect x="522" y="203" width="29" height="29" fill="none" /><rect x="551" y="203" width="29" height="29" fill="none" /><rect x="580" y="203" width="29" height="29" fill="none" /><rect x="609" y="203" width="29" height="29" fill="none" /><rect x="638" y="203" width="29" height="29" fill="none" /><rect x="667" y="203" width="29" height="29" fill="none" /><rect x="696" y="203" width="29" height="29" fill="none" /><rect x="725" y="203" width="29" height="29" fill="none" /><rect x="754" y="203" width="29" height="29" fill="none" /><rect x="0" y="232" width="29" height="29" fill="none" /><rect x="29" y="232" width="29" height="29" fill="none" /><rect x="58" y="232" width="29" height="29" fill="none" /><rect x="87" y="232" width="29" height="29" fill="none" /><rect x="116" y="232" width="29" height="29" fill="none" /><rect x="145" y="232" width="29" height="29" fill="none" /><rect x="174" y="232" width="29" height="29" fill="none" /><rect x="203" y="232" width="29" height="29" fill="none" /><rect x="232" y="232" width="29" height="29" fill="none" /><rect x="261" y="232" width="29" height="29" fill="none" /><rect x="290" y="232" width="29" height="29" fill="none" /><rect x="319" y="232" width="29" height="29" fill="none" /><rect x="348" y="232" width="29" height="29" fill="none" /><rect x="377" y="232" width="29" height="29" fill="none" /><rect x="406" y="232" width="29" height="29" fill="none" /><rect x="435" y="232" width="29" height="29" fill="none" /><rect x="464" y="232" width="29" height="29" fill="none" /><rect x="493" y="232" width="29" height="29" fill="none" /><rect x="522" y="232" width="29" height="29" fill="none" /><rect x="551" y="232" width="29" height="29" fill="none" /><rect x="580" y="232" width="29" height="29" fill="none" /><rect x="609" y="232" width="29" height="29" fill="none" /><rect x="638" y="232" width="29" height="29" fill="none" /><rect x="667" y="232" width="29" height="29" fill="none" /><rect x="696" y="232" width="29" height="29" fill="none" /><rect x="725" y="232" width="29" height="29" fill="none" /><rect x="754" y="232" width="29" height="29" fill="none" /><rect x="0" y="261" width="29" height="29" fill="none" /><rect x="29" y="261" width="29" height="29" fill="none" /><rect x="58" y="261" width="29" height="29" fill="none" /><rect x="87" y="261" width="29" height="29" fill="none" /><rect x="116" y="261" width="29" height="29" fill="none" /><rect x="145" y="261" width="29" height="29" fill="none" /><rect x="174" y="261" width="29" height="29" fill="none" /><rect x="203" y="261" width="29" height="29" fill="none" /><rect x="232" y="261" width="29" height="29" fill="none" /><rect x="261" y="261" width="29" height="29" fill="none" /><rect x="290" y="261" width="29" height="29" fill="none" /><rect x="319" y="261" width="29" height="29" fill="none" /><rect x="348" y="261" width="29" height="29" fill="none" /><rect x="377" y="261" width="29" height="29" fill="none" /><rect x="406" y="261" width="29" height="29" fill="none" /><rect x="435" y="261" width="29" height="29" fill="none" /><rect x="464" y="261" width="29" height="29" fill="none" /><rect x="493" y="261" width="29" height="29" fill="none" /><rect x="522" y="261" width="29" height="29" fill="none" /><rect x="551" y="261" width="29" height="29" fill="none" /><rect x="580" y="261" width="29" height="29" fill="none" /><rect x="609" y="261" width="29" height="29" fill="none" /><rect x="638" y="261" width="29" height="29" fill="none" /><rect x="667" y="261" width="29" height="29" fill="none" /><rect x="696" y="261" width="29" height="29" fill="none" /><rect x="725" y="261" width="29" height="29" fill="none" /><rect x="754" y="261" width="29" height="29" fill="none" /><rect x="0" y="290" width="29" height="29" fill="none" /><rect x="29" y="290" width="29" height="29" fill="none" /><rect x="58" y="290" width="29" height="29" fill="none" /><rect x="87" y="290" width="29" height="29" fill="none" /><rect x="116" y="290" width="29" height="29" fill="none" /><rect x="145" y="290" width="29" height="29" fill="none" /><rect x="174" y="290" width="29" height="29" fill="none" /><rect x="203" y="290" width="29" height="29" fill="none" /><rect x="232" y="290" width="29" height="29" fill="none" /><rect x="261" y="290" width="29" height="29" fill="none" /><rect x="290" y="290" width="29" height="29" fill="none" /><rect x="319" y="290" width="29" height="29" fill="none" /><rect x="348" y="290" width="29" height="29" fill="none" /><rect x="377" y="290" width="29" height="29" fill="none" /><rect x="406" y="290" width="29" height="29" fill="none" /><rect x="435" y="290" width="29" height="29" fill="none" /><rect x="464" y="290" width="29" height="29" fill="none" /><rect x="493" y="290" width="29" height="29" fill="none" /><rect x="522" y="290" width="29" height="29" fill="none" /><rect x="551" y="290" width="29" height="29" fill="none" /><rect x="580" y="290" width="29" height="29" fill="none" /><rect x="609" y="290" width="29" height="29" fill="none" /><rect x="638" y="290" width="29" height="29" fill="none" /><rect x="667" y="290" width="29" height="29" fill="none" /><rect x="696" y="290" width="29" height="29" fill="none" /><rect x="725" y="290" width="29" height="29" fill="none" /><rect x="754" y="290" width="29" height="29" fill="none" /><rect x="0" y="319" width="29" height="29" fill="none" /><rect x="29" y="319" width="29" height="29" fill="none" /><rect x="58" y="319" width="29" height="29" fill="none" /><rect x="87" y="319" width="29" height="29" fill="none" /><rect x="116" y="319" width="29" height="29" fill="none" /><rect x="145" y="319" width="29" height="29" fill="none" /><rect x="174" y="319" width="29" height="29" fill="none" /><rect x="203" y="319" width="29" height="29" fill="none" /><rect x="232" y="319" width="29" height="29" fill="none" /><rect x="261" y="319" width="29" height="29" fill="none" /><rect x="290" y="319" width="29" height="29" fill="none" /><rect x="319" y="319" width="29" height="29" fill="none" /><rect x="348" y="319" width="29" height="29" fill="none" /><rect x="377" y="319" width="29" height="29" fill="none" /><rect x="406" y="319" width="29" height="29" fill="none" /><rect x="435" y="319" width="29" height="29" fill="none" /><rect x="464" y="319" width="29" height="29" fill="none" /><rect x="493" y="319" width="29" height="29" fill="none" /><rect x="522" y="319" width="29" height="29" fill="none" /><rect x="551" y="319" width="29" height="29" fill="none" /><rect x="580" y="319" width="29" height="29" fill="none" /><rect x="609" y="319" width="29" height="29" fill="none" /><rect x="638" y="319" width="29" height="29" fill="none" /><rect x="667" y="319" width="29" height="29" fill="none" /><rect x="696" y="319" width="29" height="29" fill="none" /><rect x="725" y="319" width="29" height="29" fill="none" /><rect x="754" y="319" width="29" height="29" fill="none" /><rect x="0" y="348" width="29" height="29" fill="none" /><rect x="29" y="348" width="29" height="29" fill="none" /><rect x="58" y="348" width="29" height="29" fill="none" /><rect x="87" y="348" width="29" height="29" fill="none" /><rect x="116" y="348" width="29" height="29" fill="none" /><rect x="145" y="348" width="29" height="29" fill="none" /><rect x="174" y="348" width="29" height="29" fill="none" /><rect x="203" y="348" width="29" height="29" fill="none" /><rect x="232" y="348" width="29" height="29" fill="none" /><rect x="261" y="348" width="29" height="29" fill="none" /><rect x="290" y="348" width="29" height="29" fill="none" /><rect x="319" y="348" width="29" height="29" fill="none" /><rect x="348" y="348" width="29" height="29" fill="none" /><rect x="377" y="348" width="29" height="29" fill="none" /><rect x="406" y="348" width="29" height="29" fill="none" /><rect x="435" y="348" width="29" height="29" fill="none" /><rect x="464" y="348" width="29" height="29" fill="none" /><rect x="493" y="348" width="29" height="29" fill="none" /><rect x="522" y="348" width="29" height="29" fill="none" /><rect x="551" y="348" width="29" height="29" fill="none" /><rect x="580" y="348" width="29" height="29" fill="none" /><rect x="609" y="348" width="29" height="29" fill="none" /><rect x="638" y="348" width="29" height="29" fill="none" /><rect x="667" y="348" width="29" height="29" fill="none" /><rect x="696" y="348" width="29" height="29" fill="none" /><rect x="725" y="348" width="29" height="29" fill="none" /><rect x="754" y="348" width="29" height="29" fill="none" /><rect x="0" y="377" width="29" height="29" fill="none" /><rect x="29" y="377" width="29" height="29" fill="none" /><rect x="58" y="377" width="29" height="29" fill="none" /><rect x="87" y="377" width="29" height="29" fill="none" /><rect x="116" y="377" width="29" height="29" fill="none" /><rect x="145" y="377" width="29" height="29" fill="none" /><rect x="174" y="377" width="29" height="29" fill="none" /><rect x="203" y="377" width="29" height="29" fill="none" /><rect x="232" y="377" width="29" height="29" fill="none" /><rect x="261" y="377" width="29" height="29" fill="none" /><rect x="290" y="377" width="29" height="29" fill="none" /><rect x="319" y="377" width="29" height="29" fill="none" /><rect x="348" y="377" width="29" height="29" fill="none" /><rect x="377" y="377" width="29" height="29" fill="none" /><rect x="406" y="377" width="29" height="29" fill="none" /><rect x="435" y="377" width="29" height="29" fill="none" /><rect x="464" y="377" width="29" height="29" fill="none" /><rect x="493" y="377" width="29" height="29" fill="none" /><rect x="522" y="377" width="29" height="29" fill="none" /><rect x="551" y="377" width="29" height="29" fill="none" /><rect x="580" y="377" width="29" height="29" fill="none" /><rect x="609" y="377" width="29" height="29" fill="none" /><rect x="638" y="377" width="29" height="29" fill="none" /><rect x="667" y="377" width="29" height="29" fill="none" /><rect x="696" y="377" width="29" height="29" fill="none" /><rect x="725" y="377" width="29" height="29" fill="none" /><rect x="754" y="377" width="29" height="29" fill="none" /><rect x="0" y="406" width="29" height="29" fill="none" /><rect x="29" y="406" width="29" height="29" fill="none" /><rect x="58" y="406" width="29" height="29" fill="none" /><rect x="87" y="406" width="29" height="29" fill="none" /><rect x="116" y="406" width="29" height="29" fill="none" /><rect x="145" y="406" width="29" height="29" fill="none" /><rect x="174" y="406" width="29" height="29" fill="none" /><rect x="203" y="406" width="29" height="29" fill="none" /><rect x="232" y="406" width="29" height="29" fill="none" /><rect x="261" y="406" width="29" height="29" fill="none" /><rect x="290" y="406" width="29" height="29" fill="none" /><rect x="319" y="406" width="29" height="29" fill="none" /><rect x="348" y="406" width="29" height="29" fill="none" /><rect x="377" y="406" width="29" height="29" fill="none" /><rect x="406" y="406" width="29" height="29" fill="none" /><rect x="435" y="406" width="29" height="29" fill="none" /><rect x="464" y="406" width="29" height="29" fill="none" /><rect x="493" y="406" width="29" height="29" fill="none" /><rect x="522" y="406" width="29" height="29" fill="none" /><rect x="551" y="406" width="29" height="29" fill="none" /><rect x="580" y="406" width="29" height="29" fill="none" /><rect x="609" y="406" width="29" height="29" fill="none" /><rect x="638" y="406" width="29" height="29" fill="none" /><rect x="667" y="406" width="29" height="29" fill="none" /><rect x="696" y="406" width="29" height="29" fill="none" /><rect x="725" y="406" width="29" height="29" fill="none" /><rect x="754" y="406" width="29" height="29" fill="none" /><rect x="0" y="435" width="29" height="29" fill="none" /><rect x="29" y="435" width="29" height="29" fill="none" /><rect x="58" y="435" width="29" height="29" fill="none" /><rect x="87" y="435" width="29" height="29" fill="none" /><rect x="116" y="435" width="29" height="29" fill="none" /><rect x="145" y="435" width="29" height="29" fill="none" /><rect x="174" y="435" width="29" height="29" fill="none" /><rect x="203" y="435" width="29" height="29" fill="none" /><rect x="232" y="435" width="29" height="29" fill="none" /><rect x="261" y="435" width="29" height="29" fill="none" /><rect x="290" y="435" width="29" height="29" fill="none" /><rect x="319" y="435" width="29" height="29" fill="none" /><rect x="348" y="435" width="29" height="29" fill="none" /><rect x="377" y="435" width="29" height="29" fill="none" /><rect x="406" y="435" width="29" height="29" fill="none" /><rect x="435" y="435" width="29" height="29" fill="none" /><rect x="464" y="435" width="29" height="29" fill="none" /><rect x="493" y="435" width="29" height="29" fill="none" /><rect x="522" y="435" width="29" height="29" fill="none" /><rect x="551" y="435" width="29" height="29" fill="none" /><rect x="580" y="435" width="29" height="29" fill="none" /><rect x="609" y="435" width="29" height="29" fill="none" /><rect x="638" y="435" width="29" height="29" fill="none" /><rect x="667" y="435" width="29" height="29" fill="none" /><rect x="696" y="435" width="29" height="29" fill="none" /><rect x="725" y="435" width="29" height="29" fill="none" /><rect x="754" y="435" width="29" height="29" fill="none" /><rect x="0" y="464" width="29" height="29" fill="none" /><rect x="29" y="464" width="29" height="29" fill="none" /><rect x="58" y="464" width="29" height="29" fill="none" /><rect x="87" y="464" width="29" height="29" fill="none" /><rect x="116" y="464" width="29" height="29" fill="none" /><rect x="145" y="464" width="29" height="29" fill="none" /><rect x="174" y="464" width="29" height="29" fill="none" /><rect x="203" y="464" width="29" height="29" fill="none" /><rect x="232" y="464" width="29" height="29" fill="none" /><rect x="261" y="464" width="29" height="29" fill="none" /><rect x="290" y="464" width="29" height="29" fill="none" /><rect x="319" y="464" width="29" height="29" fill="none" /><rect x="348" y="464" width="29" height="29" fill="none" /><rect x="377" y="464" width="29" height="29" fill="none" /><rect x="406" y="464" width="29" height="29" fill="none" /><rect x="435" y="464" width="29" height="29" fill="none" /><rect x="464" y="464" width="29" height="29" fill="none" /><rect x="493" y="464" width="29" height="29" fill="none" /><rect x="522" y="464" width="29" height="29" fill="none" /><rect x="551" y="464" width="29" height="29" fill="none" /><rect x="580" y="464" width="29" height="29" fill="none" /><rect x="609" y="464" width="29" height="29" fill="none" /><rect x="638" y="464" width="29" height="29" fill="none" /><rect x="667" y="464" width="29" height="29" fill="none" /><rect x="696" y="464" width="29" height="29" fill="none" /><rect x="725" y="464" width="29" height="29" fill="none" /><rect x="754" y="464" width="29" height="29" fill="none" /><rect x="0" y="493" width="29" height="29" fill="none" /><rect x="29" y="493" width="29" height="29" fill="none" /><rect x="58" y="493" width="29" height="29" fill="none" /><rect x="87" y="493" width="29" height="29" fill="none" /><rect x="116" y="493" width="29" height="29" fill="none" /><rect x="145" y="493" width="29" height="29" fill="none" /><rect x="174" y="493" width="29" height="29" fill="none" /><rect x="203" y="493" width="29" height="29" fill="none" /><rect x="232" y="493" width="29" height="29" fill="none" /><rect x="261" y="493" width="29" height="29" fill="none" /><rect x="290" y="493" width="29" height="29" fill="none" /><rect x="319" y="493" width="29" height="29" fill="none" /><rect x="348" y="493" width="29" height="29" fill="none" /><rect x="377" y="493" width="29" height="29" fill="none" /><rect x="406" y="493" width="29" height="29" fill="none" /><rect x="435" y="493" width="29" height="29" fill="none" /><rect x="464" y="493" width="29" height="29" fill="none" /><rect x="493" y="493" width="29" height="29" fill="none" /><rect x="522" y="493" width="29" height="29" fill="none" /><rect x="551" y="493" width="29" height="29" fill="none" /><rect x="580" y="493" width="29" height="29" fill="none" /><rect x="609" y="493" width="29" height="29" fill="none" /><rect x="638" y="493" width="29" height="29" fill="none" /><rect x="667" y="493" width="29" height="29" fill="none" /><rect x="696" y="493" width="29" height="29" fill="none" /><rect x="725" y="493" width="29" height="29" fill="none" /><rect x="754" y="493" width="29" height="29" fill="none" /><rect x="0" y="522" width="29" height="29" fill="none" /><rect x="29" y="522" width="29" height="29" fill="none" /><rect x="58" y="522" width="29" height="29" fill="none" /><rect x="87" y="522" width="29" height="29" fill="none" /><rect x="116" y="522" width="29" height="29" fill="none" /><rect x="145" y="522" width="29" height="29" fill="none" /><rect x="174" y="522" width="29" height="29" fill="none" /><rect x="203" y="522" width="29" height="29" fill="none" /><rect x="232" y="522" width="29" height="29" fill="none" /><rect x="261" y="522" width="29" height="29" fill="none" /><rect x="290" y="522" width="29" height="29" fill="none" /><rect x="319" y="522" width="29" height="29" fill="none" /><rect x="348" y="522" width="29" height="29" fill="none" /><rect x="377" y="522" width="29" height="29" fill="none" /><rect x="406" y="522" width="29" height="29" fill="none" /><rect x="435" y="522" width="29" height="29" fill="none" /><rect x="464" y="522" width="29" height="29" fill="none" /><rect x="493" y="522" width="29" height="29" fill="none" /><rect x="522" y="522" width="29" height="29" fill="none" /><rect x="551" y="522" width="29" height="29" fill="none" /><rect x="580" y="522" width="29" height="29" fill="none" /><rect x="609" y="522" width="29" height="29" fill="none" /><rect x="638" y="522" width="29" height="29" fill="none" /><rect x="667" y="522" width="29" height="29" fill="none" /><rect x="696" y="522" width="29" height="29" fill="none" /><rect x="725" y="522" width="29" height="29" fill="none" /><rect x="754" y="522" width="29" height="29" fill="none" /><rect x="0" y="551" width="29" height="29" fill="none" /><rect x="29" y="551" width="29" height="29" fill="none" /><rect x="58" y="551" width="29" height="29" fill="none" /><rect x="87" y="551" width="29" height="29" fill="none" /><rect x="116" y="551" width="29" height="29" fill="none" /><rect x="145" y="551" width="29" height="29" fill="none" /><rect x="174" y="551" width="29" height="29" fill="none" /><rect x="203" y="551" width="29" height="29" fill="none" /><rect x="232" y="551" width="29" height="29" fill="none" /><rect x="261" y="551" width="29" height="29" fill="none" /><rect x="290" y="551" width="29" height="29" fill="none" /><rect x="319" y="551" width="29" height="29" fill="none" /><rect x="348" y="551" width="29" height="29" fill="none" /><rect x="377" y="551" width="29" height="29" fill="none" /><rect x="406" y="551" width="29" height="29" fill="none" /><rect x="435" y="551" width="29" height="29" fill="none" /><rect x="464" y="551" width="29" height="29" fill="none" /><rect x="493" y="551" width="29" height="29" fill="none" /><rect x="522" y="551" width="29" height="29" fill="none" /><rect x="551" y="551" width="29" height="29" fill="none" /><rect x="580" y="551" width="29" height="29" fill="none" /><rect x="609" y="551" width="29" height="29" fill="none" /><rect x="638" y="551" width="29" height="29" fill="none" /><rect x="667" y="551" width="29" height="29" fill="none" /><rect x="696" y="551" width="29" height="29" fill="none" /><rect x="725" y="551" width="29" height="29" fill="none" /><rect x="754" y="551" width="29" height="29" fill="none" /><rect x="0" y="580" width="29" height="29" fill="none" /><rect x="29" y="580" width="29" height="29" fill="none" /><rect x="58" y="580" width="29" height="29" fill="none" /><rect x="87" y="580" width="29" height="29" fill="none" /><rect x="116" y="580" width="29" height="29" fill="none" /><rect x="145" y="580" width="29" height="29" fill="none" /><rect x="174" y="580" width="29" height="29" fill="none" /><rect x="203" y="580" width="29" height="29" fill="none" /><rect x="232" y="580" width="29" height="29" fill="none" /><rect x="261" y="580" width="29" height="29" fill="none" /><rect x="290" y="580" width="29" height="29" fill="none" /><rect x="319" y="580" width="29" height="29" fill="none" /><rect x="348" y="580" width="29" height="29" fill="none" /><rect x="377" y="580" width="29" height="29" fill="none" /><rect x="406" y="580" width="29" height="29" fill="none" /><rect x="435" y="580" width="29" height="29" fill="none" /><rect x="464" y="580" width="29" height="29" fill="none" /><rect x="493" y="580" width="29" height="29" fill="none" /><rect x="522" y="580" width="29" height="29" fill="none" /><rect x="551" y="580" width="29" height="29" fill="none" /><rect x="580" y="580" width="29" height="29" fill="none" /><rect x="609" y="580" width="29" height="29" fill="none" /><rect x="638" y="580" width="29" height="29" fill="none" /><rect x="667" y="580" width="29" height="29" fill="none" /><rect x="696" y="580" width="29" height="29" fill="none" /><rect x="725" y="580" width="29" height="29" fill="none" /><rect x="754" y="580" width="29" height="29" fill="none" /><rect x="0" y="609" width="29" height="29" fill="none" /><rect x="29" y="609" width="29" height="29" fill="none" /><rect x="58" y="609" width="29" height="29" fill="none" /><rect x="87" y="609" width="29" height="29" fill="none" /><rect x="116" y="609" width="29" height="29" fill="none" /><rect x="145" y="609" width="29" height="29" fill="none" /><rect x="174" y="609" width="29" height="29" fill="none" /><rect x="203" y="609" width="29" height="29" fill="none" /><rect x="232" y="609" width="29" height="29" fill="none" /><rect x="261" y="609" width="29" height="29" fill="none" /><rect x="290" y="609" width="29" height="29" fill="none" /><rect x="319" y="609" width="29" height="29" fill="none" /><rect x="348" y="609" width="29" height="29" fill="none" /><rect x="377" y="609" width="29" height="29" fill="none" /><rect x="406" y="609" width="29" height="29" fill="none" /><rect x="435" y="609" width="29" height="29" fill="none" /><rect x="464" y="609" width="29" height="29" fill="none" /><rect x="493" y="609" width="29" height="29" fill="none" /><rect x="522" y="609" width="29" height="29" fill="none" /><rect x="551" y="609" width="29" height="29" fill="none" /><rect x="580" y="609" width="29" height="29" fill="none" /><rect x="609" y="609" width="29" height="29" fill="none" /><rect x="638" y="609" width="29" height="29" fill="none" /><rect x="667" y="609" width="29" height="29" fill="none" /><rect x="696" y="609" width="29" height="29" fill="none" /><rect x="725" y="609" width="29" height="29" fill="none" /><rect x="754" y="609" width="29" height="29" fill="none" /><rect x="0" y="638" width="29" height="29" fill="none" /><rect x="29" y="638" width="29" height="29" fill="none" /><rect x="58" y="638" width="29" height="29" fill="none" /><rect x="87" y="638" width="29" height="29" fill="none" /><rect x="116" y="638" width="29" height="29" fill="none" /><rect x="145" y="638" width="29" height="29" fill="none" /><rect x="174" y="638" width="29" height="29" fill="none" /><rect x="203" y="638" width="29" height="29" fill="none" /><rect x="232" y="638" width="29" height="29" fill="none" /><rect x="261" y="638" width="29" height="29" fill="none" /><rect x="290" y="638" width="29" height="29" fill="none" /><rect x="319" y="638" width="29" height="29" fill="none" /><rect x="348" y="638" width="29" height="29" fill="none" /><rect x="377" y="638" width="29" height="29" fill="none" /><rect x="406" y="638" width="29" height="29" fill="none" /><rect x="435" y="638" width="29" height="29" fill="none" /><rect x="464" y="638" width="29" height="29" fill="none" /><rect x="493" y="638" width="29" height="29" fill="none" /><rect x="522" y="638" width="29" height="29" fill="none" /><rect x="551" y="638" width="29" height="29" fill="none" /><rect x="580" y="638" width="29" height="29" fill="none" /><rect x="609" y="638" width="29" height="29" fill="none" /><rect x="638" y="638" width="29" height="29" fill="none" /><rect x="667" y="638" width="29" height="29" fill="none" /><rect x="696" y="638" width="29" height="29" fill="none" /><rect x="725" y="638" width="29" height="29" fill="none" /><rect x="754" y="638" width="29" height="29" fill="none" /><rect x="0" y="667" width="29" height="29" fill="none" /><rect x="29" y="667" width="29" height="29" fill="none" /><rect x="58" y="667" width="29" height="29" fill="none" /><rect x="87" y="667" width="29" height="29" fill="none" /><rect x="116" y="667" width="29" height="29" fill="none" /><rect x="145" y="667" width="29" height="29" fill="none" /><rect x="174" y="667" width="29" height="29" fill="none" /><rect x="203" y="667" width="29" height="29" fill="none" /><rect x="232" y="667" width="29" height="29" fill="none" /><rect x="261" y="667" width="29" height="29" fill="none" /><rect x="290" y="667" width="29" height="29" fill="none" /><rect x="319" y="667" width="29" height="29" fill="none" /><rect x="348" y="667" width="29" height="29" fill="none" /><rect x="377" y="667" width="29" height="29" fill="none" /><rect x="406" y="667" width="29" height="29" fill="none" /><rect x="435" y="667" width="29" height="29" fill="none" /><rect x="464" y="667" width="29" height="29" fill="none" /><rect x="493" y="667" width="29" height="29" fill="none" /><rect x="522" y="667" width="29" height="29" fill="none" /><rect x="551" y="667" width="29" height="29" fill="none" /><rect x="580" y="667" width="29" height="29" fill="none" /><rect x="609" y="667" width="29" height="29" fill="none" /><rect x="638" y="667" width="29" height="29" fill="none" /><rect x="667" y="667" width="29" height="29" fill="none" /><rect x="696" y="667" width="29" height="29" fill="none" /><rect x="725" y="667" width="29" height="29" fill="none" /><rect x="754" y="667" width="29" height="29" fill="none" /><rect x="0" y="696" width="29" height="29" fill="none" /><rect x="29" y="696" width="29" height="29" fill="none" /><rect x="58" y="696" width="29" height="29" fill="none" /><rect x="87" y="696" width="29" height="29" fill="none" /><rect x="116" y="696" width="29" height="29" fill="none" /><rect x="145" y="696" width="29" height="29" fill="none" /><rect x="174" y="696" width="29" height="29" fill="none" /><rect x="203" y="696" width="29" height="29" fill="none" /><rect x="232" y="696" width="29" height="29" fill="none" /><rect x="261" y="696" width="29" height="29" fill="none" /><rect x="290" y="696" width="29" height="29" fill="none" /><rect x="319" y="696" width="29" height="29" fill="none" /><rect x="348" y="696" width="29" height="29" fill="none" /><rect x="377" y="696" width="29" height="29" fill="none" /><rect x="406" y="696" width="29" height="29" fill="none" /><rect x="435" y="696" width="29" height="29" fill="none" /><rect x="464" y="696" width="29" height="29" fill="none" /><rect x="493" y="696" width="29" height="29" fill="none" /><rect x="522" y="696" width="29" height="29" fill="none" /><rect x="551" y="696" width="29" height="29" fill="none" /><rect x="580" y="696" width="29" height="29" fill="none" /><rect x="609" y="696" width="29" height="29" fill="none" /><rect x="638" y="696" width="29" height="29" fill="none" /><rect x="667" y="696" width="29" height="29" fill="none" /><rect x="696" y="696" width="29" height="29" fill="none" /><rect x="725" y="696" width="29" height="29" fill="none" /><rect x="754" y="696" width="29" height="29" fill="none" /><rect x="0" y="725" width="29" height="29" fill="none" /><rect x="29" y="725" width="29" height="29" fill="none" /><rect x="58" y="725" width="29" height="29" fill="none" /><rect x="87" y="725" width="29" height="29" fill="none" /><rect x="116" y="725" width="29" height="29" fill="none" /><rect x="145" y="725" width="29" height="29" fill="none" /><rect x="174" y="725" width="29" height="29" fill="none" /><rect x="203" y="725" width="29" height="29" fill="none" /><rect x="232" y="725" width="29" height="29" fill="none" /><rect x="261" y="725" width="29" height="29" fill="none" /><rect x="290" y="725" width="29" height="29" fill="none" /><rect x="319" y="725" width="29" height="29" fill="none" /><rect x="348" y="725" width="29" height="29" fill="none" /><rect x="377" y="725" width="29" height="29" fill="none" /><rect x="406" y="725" width="29" height="29" fill="none" /><rect x="435" y="725" width="29" height="29" fill="none" /></svg>