<?xml version="1.0" encoding="UTF-8"?>
<svg xmlns="http://www.w3.org/2000/svg" version="1.1" height="800" width="800"><rect x="0" y="0" width="800" height="800" fill="rgb(192,192,192)" /><rect x="0" y="0" width="53" height="53" fill="none" /><rect x="53" y="0" width="53" height="53" fill="none" /><rect x="106" y="0" width="53" height="53" fill="none" /><rect x="159" y="0" width="53" height="53" fill="none" /><rect x="212" y="0" width="53" height="53" fill="none" /><rect x="265" y="0" width="53" height="53" fill="none" /><rect x="318" y="0" width="53" height="53" fill="none" /><rect x="371" y="0" width="53" height="53" fill="none" /><rect x="424" y="0" width="53" height="53" fill="#FF6600" /><rect x="477" y="0" width="53" height="53" fill="#FF6600" /><rect x="530" y="0" width="53" height="53" fill="#FF6600" /><rect x="583" y="0" width="53" height="53" fill="#FF6600" /><rect x="636" y="0" width="53" height="53" fill="#FF6600" /><rect x="689" y="0" width="53" height="53" fill="#FF6600" /><rect x="742" y="0" width="53" height="53" fill="#FF6600" /><rect x="0" y="53" width="53" height="53" fill="#FF6600" /><rect x="53" y="53" width="53" height="53" fill="#FF6600" /><rect x="106" y="53" width="53" height="53" fill="#FF6600" /><rect x="159" y="53" width="53" height="53" fill="#FF6600" /><rect x="212" y="53" width="53" height="53" fill="#FF6600" /><rect x="265" y="53" width="53" height="53" fill="#FF6600" /><rect x="318" y="53" width="53" height="53" fill="#FF6600" /><rect x="371" y="53" width="53" height="53" fill="#FF6600" /><rect x="424" y="53" width="53" height="53" fill="#FF6600" /><rect x="477" y="53" width="53" height="53" fill="#FF6600" /><rect x="530" y="53" width="53" height="53" fill="#FF6600" /><rect x="583" y="53" width="53" height="53" fill="#FF6600" /><rect x="636" y="53" width="53" height="53" fill="#FF6600" /><rect x="689" y="53" width="53" height="53" fill="#FF6600" /><rect x="742" y="53" width="53" height="53" fill="#FF6600" /><rect x="0" y="106" width="53" height="53" fill="#FF6600" /><rect x="53" y="106" width="53" height="53" fill="#FF6600" /><rect x="106" y="106" width="53" height="53" fill="#FF6600" /><rect x="159" y="106" width="53" height="53" fill="#FF6600" /><rect x="212" y="106" width="53" height="53" fill="#FF6600" /><rect x="265" y="106" width="53" height="53" fill="none" /><rect x="318" y="106" width="53" height="53" fill="none" /><rect x="371" y="106" width="53" height="53" fill="none" /><rect x="424" y="106" width="53" height="53" fill="none" /><rect x="477" y="106" width="53" height="53" fill="none" /><rect x="530" y="106" width="53" height="53" fill="#6666CC" /><rect x="583" y="106" width="53" height="53" fill="#6666CC" /><rect x="636" y="106" width="53" height="53" fill="none" /><rect x="689" y="106" width="53" height="53" fill="none" /><rect x="742" y="106" width="53" height="53" fill="#FFFF99" /><rect x="0" y="159" width="53" height="53" fill="#FFFF99" /><rect x="53" y="159" width="53" height="53" fill="#66FF66" /><rect x="106" y="159" width="53" height="53" fill="#66FF66" /><rect x="159" y="159" width="53" height="53" fill="#FF6600" /><rect x="212" y="159" width="53" height="53" fill="#FF6600" /><rect x="265" y="159" width="53" height="53" fill="#FF6600" /><rect x="318" y="159" width="53" height="53" fill="#FF6600" /><rect x="371" y="159" width="53" height="53" fill="#FF6600" /><rect x="424" y="159" width="53" height="53" fill="#FF6600" /><rect x="477" y="159" width="53" height="53" fill="#FF6600" /><rect x="530" y="159" width="53" height="53" fill="#FF6600" /><rect x="583" y="159" width="53" height="53" fill="#FF6600" /><rect x="636" y="159" width="53" height="53" fill="#FF6600" /><rect x="689" y="159" width="53" height="53" fill="#FF6600" /><rect x="742" y="159" width="53" height="53" fill="#FF6600" /><rect x="0" y="212" width="53" height="53" fill="#6666CC" /><rect x="53" y="212" width="53" height="53" fill="#6666CC" /><rect x="106" y="212" width="53" height="53" fill="#6666CC" /><rect x="159" y="212" width="53" height="53" fill="none" /><rect x="212" y="212" width="53" height="53" fill="#FFFF99" /><rect x="265" y="212" width="53" height="53" fill="#FFFF99" /><rect x="318" y="212" width="53" height="53" fill="#66FF66" /><rect x="371" y="212" width="53" height="53" fill="#66FF66" /><rect x="424" y="212" width="53" height="53" fill="#66FF66" /><rect x="477" y="212" width="53" height="53" fill="#66FF66" /><rect x="530" y="212" width="53" height="53" fill="#66FF66" /><rect x="583" y="212" width="53" height="53" fill="#66FF66" /><rect x="636" y="212" width="53" height="53" fill="#66FF66" /><rect x="689" y="212" width="53" height="53" fill="#66FF66" /><rect x="742" y="212" width="53" height="53" fill="#66FF66" /><rect x="0" y="265" width="53" height="53" fill="#66FF66" /><rect x="53" y="265" width="53" height="53" fill="#66FF66" /><rect x="106" y="265" width="53" height="53" fill="#66FF66" /><rect x="159" y="265" width="53" height="53" fill="#66FF66" /><rect x="212" y="265" width="53" height="53" fill="#66FF66" /><rect x="265" y="265" width="53" height="53" fill="#66FF66" /><rect x="318" y="265" width="53" height="53" fill="#66FF66" /><rect x="371" y="265" width="53" height="53" fill="#66FF66" /><rect x="424" y="265" width="53" height="53" fill="#66FF66" /><rect x="477" y="265" width="53" height="53" fill="none" /><rect x="530" y="265" width="53" height="53" fill="none" /><rect x="583" y="265" width="53" height="53" fill="none" /><rect x="636" y="265" width="53" height="53" fill="none" /><rect x="689" y="265" width="53" height="53" fill="none" /><rect x="742" y="265" width="53" height="53" fill="none" /><rect x="0" y="318" width="53" height="53" fill="#FF6600" /><rect x="53" y="318" width="53" height="53" fill="#FF6600" /><rect x="106" y="318" width="53" height="53" fill="#FF6600" /><rect x="159" y="318" width="53" height="53" fill="#FF6600" /><rect x="212" y="318" width="53" height="53" fill="#FF6600" /><rect x="265" y="318" width="53" height="53" fill="none" /><rect x="318" y="318" width="53" height="53" fill="none" /><rect x="371" y="318" width="53" height="53" fill="none" /><rect x="424" y="318" width="53" height="53" fill="#6666CC" /><rect x="477" y="318" width="53" height="53" fill="#6666CC" /><rect x="530" y="318" width="53" height="53" fill="#6666CC" /><rect x="583" y="318" width="53" height="53" fill="#6666CC" /><rect x="636" y="318" width="53" height="53" fill="#6666CC" /><rect x="689" y="318" width="53" height="53" fill="#6666CC" /><rect x="742" y="318" width="53" height="53" fill="#6666CC" /><rect x="0" y="371" width="53" height="53" fill="#6666CC" /><rect x="53" y="371" width="53" height="53" fill="#6666CC" /><rect x="106" y="371" width="53" height="53" fill="#6666CC" /><rect x="159" y="371" width="53" height="53" fill="#6666CC" /><rect x="212" y="371" width="53" height="53" fill="#6666CC" /><rect x="265" y="371" width="53" height="53" fill="#6666CC" /><rect x="318" y="371" width="53" height="53" fill="#6666CC" /><rect x="371" y="371" width="53" height="53" fill="#6666CC" /><rect x="424" y="371" width="53" height="53" fill="#6666CC" /><rect x="477" y="371" width="53" height="53" fill="#6666CC" /><rect x="530" y="371" width="53" height="53" fill="#6666CC" /><rect x="583" y="371" width="53" height="53" fill="#6666CC" /><rect x="636" y="371" width="53" height="53" fill="#6666CC" /><rect x="689" y="371" width="53" height="53" fill="#6666CC" /><rect x="742" y="371" width="53" height="53" fill="#6666CC" /><rect x="0" y="424" width="53" height="53" fill="#6666CC" /><rect x="53" y="424" width="53" height="53" fill="#6666CC" /><rect x="106" y="424" width="53" height="53" fill="#6666CC" /><rect x="159" y="424" width="53" height="53" fill="#6666CC" /><rect x="212" y="424" width="53" height="53" fill="#6666CC" /><rect x="265" y="424" width="53" height="53" fill="#6666CC" /><rect x="318" y="424" width="53" height="53" fill="#6666CC" /><rect x="371" y="424" width="53" height="53" fill="#6666CC" /><rect x="424" y="424" width="53" height="53" fill="#6666CC" /><rect x="477" y="424" width="53" height="53" fill="#6666CC" /><rect x="530" y="424" width="53" height="53" fill="#6666CC" /><rect x="583" y="424" width="53" height="53" fill="#6666CC" /><rect x="636" y="424" width="53" height="53" fill="#6666CC" /><rect x="689" y="424" width="53" height="53" fill="#6666CC" /><rect x="742" y="424" width="53" height="53" fill="#6666CC" /><rect x="0" y="477" width="53" height="53" fill="#6666CC" /><rect x="53" y="477" width="53" height="53" fill="#6666CC" /><rect x="106" y="477" width="53" height="53" fill="#6666CC" /><rect x="159" y="477" width="53" height="53" fill="#6666CC" /><rect x="212" y="477" width="53" height="53" fill="none" /><rect x="265" y="477" width="53" height="53" fill="none" /><rect x="318" y="477" width="53" height="53" fill="none" /><rect x="371" y="477" width="53" height="53" fill="none" /><rect x="424" y="477" width="53" height="53" fill="none" /><rect x="477" y="477" width="53" height="53" fill="none" /><rect x="530" y="477" width="53" height="53" fill="none" /><rect x="583" y="477" width="53" height="53" fill="none" /><rect x="636" y="477" width="53" height="53" fill="none" /><rect x="689" y="477" width="53" height="53" fill="none" /><rect x="742" y="477" width="53" height="53" fill="none" /><rect x="0" y="530" width="53" height="53" fill="none" /><rect x="53" y="530" width="53" height="53" fill="none" /><rect x="106" y="530" width="53" height="53" fill="none" /><rect x="159" y="530" width="53" height="53" fill="none" /><rect x="212" y="530" width="53" height="53" fill="none" /><rect x="265" y="530" width="53" height="53" fill="none" /><rect x="318" y="530" width="53" height="53" fill="#FFFF99" /><rect x="371" y="530" width="53" height="53" fill="#FFFF99" /><rect x="424" y="530" width="53" height="53" fill="#FFFF99" /><rect x="477" y="530" width="53" height="53" fill="#FFFF99" /><rect x="530" y="530" width="53" height="53" fill="#FFFF99" /><rect x="583" y="530" width="53" height="53" fill="#FFFF99" /><rect x="636" y="530" width="53" height="53" fill="#FFFF99" /><rect x="689" y="530" width="53" height="53" fill="#FFFF99" /><rect x="742" y="530" width="53" height="53" fill="#FFFF99" /><rect x="0" y="583" width="53" height="53" fill="#66FF66" /><rect x="53" y="583" width="53" height="53" fill="#66FF66" /><rect x="106" y="583" width="53" height="53" fill="#66FF66" /><rect x="159" y="583" width="53" height="53" fill="#66FF66" /><rect x="212" y="583" width="53" height="53" fill="#66FF66" /><rect x="265" y="583" width="53" height="53" fill="#66FF66" /><rect x="318" y="583" width="53" height="53" fill="#66FF66" /><rect x="371" y="583" width="53" height="53" fill="#66FF66" /><rect x="424" y="583" width="53" height="53" fill="#66FF66" /><rect x="477" y="583" width="53" height="53" fill="#66FF66" /><rect x="530" y="583" width="53" height="53" fill="#66FF66" /><rect x="583" y="583" width="53" height="53" fill="#66FF66" /><rect x="636" y="583" width="53" height="53" fill="#66FF66" /><rect x="689" y="583" width="53" height="53" fill="#66FF66" /><rect x="742" y="583" width="53" height="53" fill="#66FF66" /><rect x="0" y="636" width="53" height="53" fill="#66FF66" /><rect x="53" y="636" width="53" height="53" fill="#66FF66" /><rect x="106" y="636" width="53" height="53" fill="#66FF66" /><rect x="159" y="636" width="53" height="53" fill="#66FF66" /><rect x="212" y="636" width="53" height="53" fill="#66FF66" /><rect x="265" y="636" width="53" height="53" fill="#66FF66" /><rect x="318" y="636" width="53" height="53" fill="#66FF66" /><rect x="371" y="636" width="53" height="53" fill="#66FF66" /><rect x="424" y="636" width="53" height="53" fill="#66FF66" /><rect x="477" y="636" width="53" height="53" fill="#66FF66" /><rect x="530" y="636" width="53" height="53" fill="#66FF66" /><rect x="583" y="636" width="53" height="53" fill="#66FF66" /><rect x="636" y="636" width="53" height="53" fill="#66FF66" /><rect x="689" y="636" width="53" height="53" fill="#66FF66" /><rect x="742" y="636" width="53" height="53" fill="#66FF66" /><rect x="0" y="689" width="53" height="53" fill="#66FF66" /><rect x="53" y="689" width="53" height="53" fill="none" /><rect x="106" y="689" width="53" height="53" fill="none" /><rect x="159" y="689" width="53" height="53" fill="none" /><rect x="212" y="689" width="53" height="53" fill="none" /><rect x="265" y="689" width="53" height="53" fill="none" /><rect x="318" y="689" width="53" height="53" fill="none" /><rect x="371" y="689" width="53" height="53" fill="none" /><rect x="424" y="689" width="53" height="53" fill="none" /><rect x="477" y="689" width="53" height="53" fill="none" /><rect x="530" y="689" width="53" height="53" fill="none" /><rect x="583" y="689" width="53" height="53" fill="none" /><rect x="636" y="689" width="53" height="53" fill="none" /><rect x="689" y="689" width="53" height="53" fill="none" /><rect x="742" y="689" width="53" height="53" fill="none" /><rect x="0" y="742" width="53" height="53" fill="none" /><rect x="53" y="742" width="53" height="53" fill="none" /><rect x="106" y="742" width="53" height="53" fill="none" /><rect x="159" y="742" width="53" height="53" fill="none" /></svg>