<?xml version="1.0" encoding="UTF-8"?>
<svg xmlns="http://www.w3.org/2000/svg" version="1.1" height="800" width="800"><rect x="0" y="0" width="800" height="800" fill="rgb(192,192,192)" /><rect x="0" y="0" width="42" height="42" fill="none" /><rect x="42" y="0" width="42" height="42" fill="none" /><rect x="84" y="0" width="42" height="42" fill="none" /><rect x="126" y="0" width="42" height="42" fill="none" /><rect x="168" y="0" width="42" height="42" fill="none" /><rect x="210" y="0" width="42" height="42" fill="none" /><rect x="252" y="0" width="42" height="42" fill="#FF6600" /><rect x="294" y="0" width="42" height="42" fill="#FF6600" /><rect x="336" y="0" width="42" height="42" fill="#FF6600" /><rect x="378" y="0" width="42" height="42" fill="#FF6600" /><rect x="420" y="0" width="42" height="42" fill="#FF6600" /><rect x="462" y="0" width="42" height="42" fill="#FF6600" /><rect x="504" y="0" width="42" height="42" fill="#FF6600" /><rect x="546" y="0" width="42" height="42" fill="#FF6600" /><rect x="588" y="0" width="42" height="42" fill="#FF6600" /><rect x="630" y="0" width="42" height="42" fill="#FF6600" /><rect x="672" y="0" width="42" height="42" fill="#FF6600" /><rect x="714" y="0" width="42" height="42" fill="#FF6600" /><rect x="756" y="0" width="42" height="42" fill="#FF6600" /><rect x="0" y="42" width="42" height="42" fill="#FF6600" /><rect x="42" y="42" width="42" height="42" fill="#FF6600" /><rect x="84" y="42" width="42" height="42" fill="#FF6600" /><rect x="126" y="42" width="42" height="42" fill="#FF6600" /><rect x="168" y="42" width="42" height="42" fill="#FF6600" /><rect x="210" y="42" width="42" height="42" fill="#FF6600" /><rect x="252" y="42" width="42" height="42" fill="#FF6600" /><rect x="294" y="42" width="42" height="42" fill="#FF6600" /><rect x="336" y="42" width="42" height="42" fill="#FF6600" /><rect x="378" y="42" width="42" height="42" fill="#FF6600" /><rect x="420" y="42" width="42" height="42" fill="#FF6600" /><rect x="462" y="42" width="42" height="42" fill="#FF6600" /><rect x="504" y="42" width="42" height="42" fill="#FF6600" /><rect x="546" y="42" width="42" height="42" fill="#FF6600" /><rect x="588" y="42" width="42" height="42" fill="#FF6600" /><rect x="630" y="42" width="42" height="42" fill="#FF6600" /><rect x="672" y="42" width="42" height="42" fill="#FF6600" /><rect x="714" y="42" width="42" height="42" fill="#FF6600" /><rect x="756" y="42" width="42" height="42" fill="#FF6600" /><rect x="0" y="84" width="42" height="42" fill="#FF6600" /><rect x="42" y="84" width="42" height="42" fill="#FF6600" /><rect x="84" y="84" width="42" height="42" fill="#FF6600" /><rect x="126" y="84" width="42" height="42" fill="#FF6600" /><rect x="168" y="84" width="42" height="42" fill="#FF6600" /><rect x="210" y="84" width="42" height="42" fill="#FF6600" /><rect x="252" y="84" width="42" height="42" fill="#FF6600" /><rect x="294" y="84" width="42" height="42" fill="#FF6600" /><rect x="336" y="84" width="42" height="42" fill="#FF6600" /><rect x="378" y="84" width="42" height="42" fill="#FF6600" /><rect x="420" y="84" width="42" height="42" fill="#FF6600" /><rect x="462" y="84" width="42" height="42" fill="#FF6600" /><rect x="504" y="84" width="42" height="42" fill="#FF6600" /><rect x="546" y="84" width="42" height="42" fill="#FF6600" /><rect x="588" y="84" width="42" height="42" fill="#FF6600" /><rect x="630" y="84" width="42" height="42" fill="#FF6600" /><rect x="672" y="84" width="42" height="42" fill="#FF6600" /><rect x="714" y="84" width="42" height="42" fill="#FF6600" /><rect x="756" y="84" width="42" height="42" fill="#FF6600" /><rect x="0" y="126" width="42" height="42" fill="#FF6600" /><rect x="42" y="126" width="42" height="42" fill="#FF6600" /><rect x="84" y="126" width="42" height="42" fill="#FF6600" /><rect x="126" y="126" width="42" height="42" fill="#FF6600" /><rect x="168" y="126" width="42" height="42" fill="#FF6600" /><rect x="210" y="126" width="42" height="42" fill="#FF6600" /><rect x="252" y="126" width="42" height="42" fill="#FF6600" /><rect x="294" y="126" width="42" height="42" fill="#FF6600" /><rect x="336" y="126" width="42" height="42" fill="#FF6600" /><rect x="378" y="126" width="42" height="42" fill="#FF6600" /><rect x="420" y="126" width="42" height="42" fill="#FF6600" /><rect x="462" y="126" width="42" height="42" fill="none" /><rect x="504" y="126" width="42" height="42" fill="none" /><rect x="546" y="126" width="42" height="42" fill="none" /><rect x="588" y="126" width="42" height="42" fill="none" /><rect x="630" y="126" width="42" height="42" fill="none" /><rect x="672" y="126" width="42" height="42" fill="none" /><rect x="714" y="126" width="42" height="42" fill="#6666CC" /><rect x="756" y="126" width="42" height="42" fill="#6666CC" /><rect x="0" y="168" width="42" height="42" fill="#6666CC" /><rect x="42" y="168" width="42" height="42" fill="#6666CC" /><rect x="84" y="168" width="42" height="42" fill="#6666CC" /><rect x="126" y="168" width="42" height="42" fill="#6666CC" /><rect x="168" y="168" width="42" height="42" fill="#6666CC" /><rect x="210" y="168" width="42" height="42" fill="#6666CC" /><rect x="252" y="168" width="42" height="42" fill="#6666CC" /><rect x="294" y="168" width="42" height="42" fill="#6666CC" /><rect x="336" y="168" width="42" height="42" fill="#6666CC" /><rect x="378" y="168" width="42" height="42" fill="#6666CC" /><rect x="420" y="168" width="42" height="42" fill="#6666CC" /><rect x="462" y="168" width="42" height="42" fill="#6666CC" /><rect x="504" y="168" width="42" height="42" fill="#6666CC" /><rect x="546" y="168" width="42" height="42" fill="#6666CC" /><rect x="588" y="168" width="42" height="42" fill="#6666CC" /><rect x="630" y="168" width="42" height="42" fill="#6666CC" /><rect x="672" y="168" width="42" height="42" fill="#6666CC" /><rect x="714" y="168" width="42" height="42" fill="#6666CC" /><rect x="756" y="168" width="42" height="42" fill="#6666CC" /><rect x="0" y="210" width="42" height="42" fill="#6666CC" /><rect x="42" y="210" width="42" height="42" fill="#6666CC" /><rect x="84" y="210" width="42" height="42" fill="#6666CC" /><rect x="126" y="210" width="42" height="42" fill="#6666CC" /><rect x="168" y="210" width="42" height="42" fill="#6666CC" /><rect x="210" y="210" width="42" height="42" fill="#6666CC" /><rect x="252" y="210" width="42" height="42" fill="#6666CC" /><rect x="294" y="210" width="42" height="42" fill="#6666CC" /><rect x="336" y="210" width="42" height="42" fill="#6666CC" /><rect x="378" y="210" width="42" height="42" fill="#6666CC" /><rect x="420" y="210" width="42" height="42" fill="#6666CC" /><rect x="462" y="210" width="42" height="42" fill="#6666CC" /><rect x="504" y="210" width="42" height="42" fill="#6666CC" /><rect x="546" y="210" width="42" height="42" fill="#6666CC" /><rect x="588" y="210" width="42" height="42" fill="#6666CC" /><rect x="630" y="210" width="42" height="42" fill="#6666CC" /><rect x="672" y="210" width="42" height="42" fill="#6666CC" /><rect x="714" y="210" width="42" height="42" fill="#6666CC" /><rect x="756" y="210" width="42" height="42" fill="#6666CC" /><rect x="0" y="252" width="42" height="42" fill="#6666CC" /><rect x="42" y="252" width="42" height="42" fill="#6666CC" /><rect x="84" y="252" width="42" height="42" fill="#6666CC" /><rect x="126" y="252" width="42" height="42" fill="#6666CC" /><rect x="168" y="252" width="42" height="42" fill="#6666CC" /><rect x="210" y="252" width="42" height="42" fill="#6666CC" /><rect x="252" y="252" width="42" height="42" fill="#6666CC" /><rect x="294" y="252" width="42" height="42" fill="#6666CC" /><rect x="336" y="252" width="42" height="42" fill="#6666CC" /><rect x="378" y="252" width="42" height="42" fill="#6666CC" /><rect x="420" y="252" width="42" height="42" fill="#6666CC" /><rect x="462" y="252" width="42" height="42" fill="#6666CC" /><rect x="504" y="252" width="42" height="42" fill="#6666CC" /><rect x="546" y="252" width="42" height="42" fill="#6666CC" /><rect x="588" y="252" width="42" height="42" fill="#6666CC" /><rect x="630" y="252" width="42" height="42" fill="#6666CC" /><rect x="672" y="252" width="42" height="42" fill="#6666CC" /><rect x="714" y="252" width="42" height="42" fill="#6666CC" /><rect x="756" y="252" width="42" height="42" fill="#6666CC" /><rect x="0" y="294" width="42" height="42" fill="#6666CC" /><rect x="42" y="294" width="42" height="42" fill="#6666CC" /><rect x="84" y="294" width="42" height="42" fill="#6666CC" /><rect x="126" y="294" width="42" height="42" fill="#6666CC" /><rect x="168" y="294" width="42" height="42" fill="none" /><rect x="210" y="294" width="42" height="42" fill="none" /><rect x="252" y="294" width="42" height="42" fill="none" /><rect x="294" y="294" width="42" height="42" fill="none" /><rect x="336" y="294" width="42" height="42" fill="none" /><rect x="378" y="294" width="42" height="42" fill="#FFFF99" /><rect x="420" y="294" width="42" height="42" fill="#FFFF99" /><rect x="462" y="294" width="42" height="42" fill="#FFFF99" /><rect x="504" y="294" width="42" height="42" fill="#FFFF99" /><rect x="546" y="294" width="42" height="42" fill="#FFFF99" /><rect x="588" y="294" width="42" height="42" fill="#FFFF99" /><rect x="630" y="294" width="42" height="42" fill="#FFFF99" /><rect x="672" y="294" width="42" height="42" fill="#FFFF99" /><rect x="714" y="294" width="42" height="42" fill="#FFFF99" /><rect x="756" y="294" width="42" height="42" fill="#FFFF99" /><rect x="0" y="336" width="42" height="42" fill="#FFFF99" /><rect x="42" y="336" width="42" height="42" fill="#FFFF99" /><rect x="84" y="336" width="42" height="42" fill="#FFFF99" /><rect x="126" y="336" width="42" height="42" fill="#FFFF99" /><rect x="168" y="336" width="42" height="42" fill="#FFFF99" /><rect x="210" y="336" width="42" height="42" fill="#FFFF99" /><rect x="252" y="336" width="42" height="42" fill="#FFFF99" /><rect x="294" y="336" width="42" height="42" fill="#FFFF99" /><rect x="336" y="336" width="42" height="42" fill="#FFFF99" /><rect x="378" y="336" width="42" height="42" fill="#FFFF99" /><rect x="420" y="336" width="42" height="42" fill="#FFFF99" /><rect x="462" y="336" width="42" height="42" fill="#FFFF99" /><rect x="504" y="336" width="42" height="42" fill="#FFFF99" /><rect x="546" y="336" width="42" height="42" fill="#FFFF99" /><rect x="588" y="336" width="42" height="42" fill="#FFFF99" /><rect x="630" y="336" width="42" height="42" fill="#FFFF99" /><rect x="672" y="336" width="42" height="42" fill="none" /><rect x="714" y="336" width="42" height="42" fill="none" /><rect x="756" y="336" width="42" height="42" fill="none" /><rect x="0" y="378" width="42" height="42" fill="none" /><rect x="42" y="378" width="42" height="42" fill="none" /><rect x="84" y="378" width="42" height="42" fill="none" /><rect x="126" y="378" width="42" height="42" fill="#66FF66" /><rect x="168" y="378" width="42" height="42" fill="#66FF66" /><rect x="210" y="378" width="42" height="42" fill="#66FF66" /><rect x="252" y="378" width="42" height="42" fill="#66FF66" /><rect x="294" y="378" width="42" height="42" fill="#66FF66" /><rect x="336" y="378" width="42" height="42" fill="#66FF66" /><rect x="378" y="378" width="42" height="42" fill="#66FF66" /><rect x="420" y="378" width="42" height="42" fill="#66FF66" /><rect x="462" y="378" width="42" height="42" fill="#66FF66" /><rect x="504" y="378" width="42" height="42" fill="#66FF66" /><rect x="546" y="378" width="42" height="42" fill="#66FF66" /><rect x="588" y="378" width="42" height="42" fill="#66FF66" /><rect x="630" y="378" width="42" height="42" fill="#66FF66" /><rect x="672" y="378" width="42" height="42" fill="#66FF66" /><rect x="714" y="378" width="42" height="42" fill="#66FF66" /><rect x="756" y="378" width="42" height="42" fill="#66FF66" /><rect x="0" y="420" width="42" height="42" fill="#66FF66" /><rect x="42" y="420" width="42" height="42" fill="#66FF66" /><rect x="84" y="420" width="42" height="42" fill="#66FF66" /><rect x="126" y="420" width="42" height="42" fill="#66FF66" /><rect x="168" y="420" width="42" height="42" fill="#66FF66" /><rect x="210" y="420" width="42" height="42" fill="#66FF66" /><rect x="252" y="420" width="42" height="42" fill="#66FF66" /><rect x="294" y="420" width="42" height="42" fill="#66FF66" /><rect x="336" y="420" width="42" height="42" fill="#66FF66" /><rect x="378" y="420" width="42" height="42" fill="#66FF66" /><rect x="420" y="420" width="42" height="42" fill="#66FF66" /><rect x="462" y="420" width="42" height="42" fill="#66FF66" /><rect x="504" y="420" width="42" height="42" fill="#66FF66" /><rect x="546" y="420" width="42" height="42" fill="#66FF66" /><rect x="588" y="420" width="42" height="42" fill="#66FF66" /><rect x="630" y="420" width="42" height="42" fill="#66FF66" /><rect x="672" y="420" width="42" height="42" fill="#66FF66" /><rect x="714" y="420" width="42" height="42" fill="#66FF66" /><rect x="756" y="420" width="42" height="42" fill="#66FF66" /><rect x="0" y="462" width="42" height="42" fill="#66FF66" /><rect x="42" y="462" width="42" height="42" fill="#66FF66" /><rect x="84" y="462" width="42" height="42" fill="#66FF66" /><rect x="126" y="462" width="42" height="42" fill="#66FF66" /><rect x="168" y="462" width="42" height="42" fill="#66FF66" /><rect x="210" y="462" width="42" height="42" fill="#66FF66" /><rect x="252" y="462" width="42" height="42" fill="#66FF66" /><rect x="294" y="462" width="42" height="42" fill="#66FF66" /><rect x="336" y="462" width="42" height="42" fill="#66FF66" /><rect x="378" y="462" width="42" height="42" fill="#66FF66" /><rect x="420" y="462" width="42" height="42" fill="#66FF66" /><rect x="462" y="462" width="42" height="42" fill="none" /><rect x="504" y="462" width="42" height="42" fill="none" /><rect x="546" y="462" width="42" height="42" fill="none" /><rect x="588" y="462" width="42" height="42" fill="none" /><rect x="630" y="462" width="42" height="42" fill="none" /><rect x="672" y="462" width="42" height="42" fill="none" /><rect x="714" y="462" width="42" height="42" fill="#FF6600" /><rect x="756" y="462" width="42" height="42" fill="#FF6600" /><rect x="0" y="504" width="42" height="42" fill="#FF6600" /><rect x="42" y="504" width="42" height="42" fill="#FF6600" /><rect x="84" y="504" width="42" height="42" fill="#FF6600" /><rect x="126" y="504" width="42" height="42" fill="#FF6600" /><rect x="168" y="504" width="42" height="42" fill="#FF6600" /><rect x="210" y="504" width="42" height="42" fill="#FF6600" /><rect x="252" y="504" width="42" height="42" fill="#FF6600" /><rect x="294" y="504" width="42" height="42" fill="#FF6600" /><rect x="336" y="504" width="42" height="42" fill="#FF6600" /><rect x="378" y="504" width="42" height="42" fill="#FF6600" /><rect x="420" y="504" width="42" height="42" fill="#FF6600" /><rect x="462" y="504" width="42" height="42" fill="#FF6600" /><rect x="504" y="504" width="42" height="42" fill="#FF6600" /><rect x="546" y="504" width="42" height="42" fill="#FF6600" /><rect x="588" y="504" width="42" height="42" fill="#FF6600" /><rect x="630" y="504" width="42" height="42" fill="#FF6600" /><rect x="672" y="504" width="42" height="42" fill="#FF6600" /><rect x="714" y="504" width="42" height="42" fill="#FF6600" /><rect x="756" y="504" width="42" height="42" fill="#FF6600" /><rect x="0" y="546" width="42" height="42" fill="#FF6600" /><rect x="42" y="546" width="42" height="42" fill="#FF6600" /><rect x="84" y="546" width="42" height="42" fill="#FF6600" /><rect x="126" y="546" width="42" height="42" fill="#FF6600" /><rect x="168" y="546" width="42" height="42" fill="#FF6600" /><rect x="210" y="546" width="42" height="42" fill="#FF6600" /><rect x="252" y="546" width="42" height="42" fill="#FF6600" /><rect x="294" y="546" width="42" height="42" fill="#FF6600" /><rect x="336" y="546" width="42" height="42" fill="#FF6600" /><rect x="378" y="546" width="42" height="42" fill="#FF6600" /><rect x="420" y="546" width="42" height="42" fill="#FF6600" /><rect x="462" y="546" width="42" height="42" fill="#FF6600" /><rect x="504" y="546" width="42" height="42" fill="#FF6600" /><rect x="546" y="546" width="42" height="42" fill="#FF6600" /><rect x="588" y="546" width="42" height="42" fill="#FF6600" /><rect x="630" y="546" width="42" height="42" fill="#FF6600" /><rect x="672" y="546" width="42" height="42" fill="#FF6600" /><rect x="714" y="546" width="42" height="42" fill="#FF6600" /><rect x="756" y="546" width="42" height="42" fill="#FF6600" /><rect x="0" y="588" width="42" height="42" fill="#FF6600" /><rect x="42" y="588" width="42" height="42" fill="#FF6600" /><rect x="84" y="588" width="42" height="42" fill="#FF6600" /><rect x="126" y="588" width="42" height="42" fill="#FF6600" /><rect x="168" y="588" width="42" height="42" fill="#FF6600" /><rect x="210" y="588" width="42" height="42" fill="#FF6600" /><rect x="252" y="588" width="42" height="42" fill="#FF6600" /><rect x="294" y="588" width="42" height="42" fill="#FF6600" /><rect x="336" y="588" width="42" height="42" fill="#FF6600" /><rect x="378" y="588" width="42" height="42" fill="#FF6600" /><rect x="420" y="588" width="42" height="42" fill="#FF6600" /><rect x="462" y="588" width="42" height="42" fill="#FF6600" /><rect x="504" y="588" width="42" height="42" fill="#FF6600" /><rect x="546" y="588" width="42" height="42" fill="#FF6600" /><rect x="588" y="588" width="42" height="42" fill="#FF6600" /><rect x="630" y="588" width="42" height="42" fill="#FF6600" /><rect x="672" y="588" width="42" height="42" fill="#FF6600" /><rect x="714" y="588" width="42" height="42" fill="#FF6600" /><rect x="756" y="588" width="42" height="42" fill="#FF6600" /><rect x="0" y="630" width="42" height="42" fill="#FF6600" /><rect x="42" y="630" width="42" height="42" fill="#FF6600" /><rect x="84" y="630" width="42" height="42" fill="none" /><rect x="126" y="630" width="42" height="42" fill="none" /><rect x="168" y="630" width="42" height="42" fill="none" /><rect x="210" y="630" width="42" height="42" fill="none" /><rect x="252" y="630" width="42" height="42" fill="none" /><rect x="294" y="630" width="42" height="42" fill="none" /><rect x="336" y="630" width="42" height="42" fill="none" /><rect x="378" y="630" width="42" height="42" fill="none" /><rect x="420" y="630" width="42" height="42" fill="none" /><rect x="462" y="630" width="42" height="42" fill="#6666CC" /><rect x="504" y="630" width="42" height="42" fill="#6666CC" /><rect x="546" y="630" width="42" height="42" fill="#6666CC" /><rect x="588" y="630" width="42" height="42" fill="#6666CC" /><rect x="630" y="630" width="42" height="42" fill="#6666CC" /><rect x="672" y="630" width="42" height="42" fill="#6666CC" /><rect x="714" y="630" width="42" height="42" fill="#6666CC" /><rect x="756" y="630" width="42" height="42" fill="#6666CC" /><rect x="0" y="672" width="42" height="42" fill="#6666CC" /><rect x="42" y="672" width="42" height="42" fill="#6666CC" /><rect x="84" y="672" width="42" height="42" fill="#FFFF99" /><rect x="126" y="672" width="42" height="42" fill="#FFFF99" /><rect x="168" y="672" width="42" height="42" fill="#FFFF99" /><rect x="210" y="672" width="42" height="42" fill="#FFFF99" /><rect x="252" y="672" width="42" height="42" fill="#66FF66" /><rect x="294" y="672" width="42" height="42" fill="#66FF66" /><rect x="336" y="672" width="42" height="42" fill="#66FF66" /><rect x="378" y="672" width="42" height="42" fill="#66FF66" /><rect x="420" y="672" width="42" height="42" fill="#66FF66" /><rect x="462" y="672" width="42" height="42" fill="#66FF66" /><rect x="504" y="672" width="42" height="42" fill="#66FF66" /><rect x="546" y="672" width="42" height="42" fill="#66FF66" /><rect x="588" y="672" width="42" height="42" fill="#66FF66" /><rect x="630" y="672" width="42" height="42" fill="none" /><rect x="672" y="672" width="42" height="42" fill="#FF6600" /><rect x="714" y="672" width="42" height="42" fill="#FF6600" /><rect x="756" y="672" width="42" height="42" fill="#FF6600" /><rect x="0" y="714" width="42" height="42" fill="#FF6600" /><rect x="42" y="714" width="42" height="42" fill="#FF6600" /><rect x="84" y="714" width="42" height="42" fill="#FF6600" /><rect x="126" y="714" width="42" height="42" fill="#FF6600" /><rect x="168" y="714" width="42" height="42" fill="#FF6600" /><rect x="210" y="714" width="42" height="42" fill="#FF6600" /><rect x="252" y="714" width="42" height="42" fill="#FF6600" /><rect x="294" y="714" width="42" height="42" fill="#FF6600" /><rect x="336" y="714" width="42" height="42" fill="#FF6600" /><rect x="378" y="714" width="42" height="42" fill="#FF6600" /><rect x="420" y="714" width="42" height="42" fill="#FF6600" /><rect x="462" y="714" width="42" height="42" fill="#FF6600" /><rect x="504" y="714" width="42" height="42" fill="none" /><rect x="546" y="714" width="42" height="42" fill="#6666CC" /><rect x="588" y="714" width="42" height="42" fill="#6666CC" /><rect x="630" y="714" width="42" height="42" fill="#6666CC" /><rect x="672" y="714" width="42" height="42" fill="#6666CC" /><rect x="714" y="714" width="42" height="42" fill="#6666CC" /><rect x="756" y="714" width="42" height="42" fill="#6666CC" /><rect x="0" y="756" width="42" height="42" fill="#6666CC" /><rect x="42" y="756" width="42" height="42" fill="none" /><rect x="84" y="756" width="42" height="42" fill="none" /><rect x="126" y="756" width="42" height="42" fill="none" /><rect x="168" y="756" width="42" height="42" fill="none" /><rect x="210" y="756" width="42" height="42" fill="none" /><rect x="252" y="756" width="42" height="42" fill="none" /><rect x="294" y="756" width="42" height="42" fill="none" /><rect x="336" y="756" width="42" height="42" fill="none" /><rect x="378" y="756" width="42" height="42" fill="none" /><rect x="420" y="756" width="42" height="42" fill="none" /><rect x="462" y="756" width="42" height="42" fill="none" /></svg>