<?xml version="1.0" encoding="UTF-8"?>
<svg xmlns="http://www.w3.org/2000/svg" version="1.1" height="800" width="800"><rect x="0" y="0" width="800" height="800" fill="rgb(192,192,192)" /><rect x="0" y="0" width="72" height="72" fill="none" /><rect x="72" y="0" width="72" height="72" fill="none" /><rect x="144" y="0" width="72" height="72" fill="#FF6600" /><rect x="216" y="0" width="72" height="72" fill="#FF6600" /><rect x="288" y="0" width="72" height="72" fill="#FF6600" /><rect x="360" y="0" width="72" height="72" fill="#FF6600" /><rect x="432" y="0" width="72" height="72" fill="#FF6600" /><rect x="504" y="0" width="72" height="72" fill="#FF6600" /><rect x="576" y="0" width="72" height="72" fill="#FF6600" /><rect x="648" y="0" width="72" height="72" fill="#FF6600" /><rect x="720" y="0" width="72" height="72" fill="#FF6600" /><rect x="0" y="72" width="72" height="72" fill="#FF6600" /><rect x="72" y="72" width="72" height="72" fill="#FF6600" /><rect x="144" y="72" width="72" height="72" fill="#FF6600" /><rect x="216" y="72" width="72" height="72" fill="#FF6600" /><rect x="288" y="72" width="72" height="72" fill="#FF6600" /><rect x="360" y="72" width="72" height="72" fill="#FF6600" /><rect x="432" y="72" width="72" height="72" fill="#FF6600" /><rect x="504" y="72" width="72" height="72" fill="#FF6600" /><rect x="576" y="72" width="72" height="72" fill="#FF6600" /><rect x="648" y="72" width="72" height="72" fill="#FF6600" /><rect x="720" y="72" width="72" height="72" fill="#FF6600" /><rect x="0" y="144" width="72" height="72" fill="#FF6600" /><rect x="72" y="144" width="72" height="72" fill="#FF6600" /><rect x="144" y="144" width="72" height="72" fill="#FF6600" /><rect x="216" y="144" width="72" height="72" fill="#FF6600" /><rect x="288" y="144" width="72" height="72" fill="#FF6600" /><rect x="360" y="144" width="72" height="72" fill="#FF6600" /><rect x="432" y="144" width="72" height="72" fill="#FF6600" /><rect x="504" y="144" width="72" height="72" fill="#FF6600" /><rect x="576" y="144" width="72" height="72" fill="#FF6600" /><rect x="648" y="144" width="72" height="72" fill="#FF6600" /><rect x="720" y="144" width="72" height="72" fill="#FF6600" /><rect x="0" y="216" width="72" height="72" fill="#FF6600" /><rect x="72" y="216" width="72" height="72" fill="#FF6600" /><rect x="144" y="216" width="72" height="72" fill="#FF6600" /><rect x="216" y="216" width="72" height="72" fill="#6666CC" /><rect x="288" y="216" width="72" height="72" fill="#6666CC" /><rect x="360" y="216" width="72" height="72" fill="#6666CC" /><rect x="432" y="216" width="72" height="72" fill="#6666CC" /><rect x="504" y="216" width="72" height="72" fill="#6666CC" /><rect x="576" y="216" width="72" height="72" fill="#6666CC" /><rect x="648" y="216" width="72" height="72" fill="#6666CC" /><rect x="720" y="216" width="72" height="72" fill="#6666CC" /><rect x="0" y="288" width="72" height="72" fill="#6666CC" /><rect x="72" y="288" width="72" height="72" fill="#6666CC" /><rect x="144" y="288" width="72" height="72" fill="#6666CC" /><rect x="216" y="288" width="72" height="72" fill="#6666CC" /><rect x="288" y="288" width="72" height="72" fill="#6666CC" /><rect x="360" y="288" width="72" height="72" fill="#6666CC" /><rect x="432" y="288" width="72" height="72" fill="#FFFF99" /><rect x="504" y="288" width="72" height="72" fill="#FFFF99" /><rect x="576" y="288" width="72" height="72" fill="#FFFF99" /><rect x="648" y="288" width="72" height="72" fill="#FFFF99" /><rect x="720" y="288" width="72" height="72" fill="#FFFF99" /><rect x="0" y="360" width="72" height="72" fill="#FFFF99" /><rect x="72" y="360" width="72" height="72" fill="#FFFF99" /><rect x="144" y="360" width="72" height="72" fill="#FFFF99" /><rect x="216" y="360" width="72" height="72" fill="#FFFF99" /><rect x="288" y="360" width="72" height="72" fill="#FFFF99" /><rect x="360" y="360" width="72" height="72" fill="#FFFF99" /><rect x="432" y="360" width="72" height="72" fill="#FFFF99" /><rect x="504" y="360" width="72" height="72" fill="#FFFF99" /><rect x="576" y="360" width="72" height="72" fill="#FFFF99" /><rect x="648" y="360" width="72" height="72" fill="#FFFF99" /><rect x="720" y="360" width="72" height="72" fill="#FFFF99" /><rect x="0" y="432" width="72" height="72" fill="#FFFF99" /><rect x="72" y="432" width="72" height="72" fill="#FFFF99" /><rect x="144" y="432" width="72" height="72" fill="#FFFF99" /><rect x="216" y="432" width="72" height="72" fill="#FFFF99" /><rect x="288" y="432" width="72" height="72" fill="#FFFF99" /><rect x="360" y="432" width="72" height="72" fill="#FFFF99" /><rect x="432" y="432" width="72" height="72" fill="#FFFF99" /><rect x="504" y="432" width="72" height="72" fill="#FFFF99" /><rect x="576" y="432" width="72" height="72" fill="#FFFF99" /><rect x="648" y="432" width="72" height="72" fill="#FFFF99" /><rect x="720" y="432" width="72" height="72" fill="#FFFF99" /><rect x="0" y="504" width="72" height="72" fill="#FFFF99" /><rect x="72" y="504" width="72" height="72" fill="#FFFF99" /><rect x="144" y="504" width="72" height="72" fill="#FFFF99" /><rect x="216" y="504" width="72" height="72" fill="#FFFF99" /><rect x="288" y="504" width="72" height="72" fill="#FFFF99" /><rect x="360" y="504" width="72" height="72" fill="#FFFF99" /><rect x="432" y="504" width="72" height="72" fill="#FFFF99" /><rect x="504" y="504" width="72" height="72" fill="#FFFF99" /><rect x="576" y="504" width="72" height="72" fill="#FFFF99" /><rect x="648" y="504" width="72" height="72" fill="#FFFF99" /><rect x="720" y="504" width="72" height="72" fill="#FFFF99" /><rect x="0" y="576" width="72" height="72" fill="#FFFF99" /><rect x="72" y="576" width="72" height="72" fill="#FFFF99" /><rect x="144" y="576" width="72" height="72" fill="#FFFF99" /><rect x="216" y="576" width="72" height="72" fill="#FFFF99" /><rect x="288" y="576" width="72" height="72" fill="#66FF66" /><rect x="360" y="576" width="72" height="72" fill="#66FF66" /><rect x="432" y="576" width="72" height="72" fill="#66FF66" /><rect x="504" y="576" width="72" height="72" fill="#66FF66" /><rect x="576" y="576" width="72" height="72" fill="#66FF66" /><rect x="648" y="576" width="72" height="72" fill="#66FF66" /><rect x="720" y="576" width="72" height="72" fill="#66FF66" /><rect x="0" y="648" width="72" height="72" fill="#66FF66" /><rect x="72" y="648" width="72" height="72" fill="#66FF66" /><rect x="144" y="648" width="72" height="72" fill="none" /><rect x="216" y="648" width="72" height="72" fill="none" /><rect x="288" y="648" width="72" height="72" fill="none" /></svg>